%TF.GenerationSoftware,KiCad,Pcbnew,7.0.5*%
%TF.CreationDate,2024-09-25T00:12:03+08:00*%
%TF.ProjectId,TPS,5450532e-6b69-4636-9164-5f7063625858,rev?*%
%TF.SameCoordinates,Original*%
%TF.FileFunction,Legend,Bot*%
%TF.FilePolarity,Positive*%
%FSLAX46Y46*%
G04 Gerber Fmt 4.6, Leading zero omitted, Abs format (unit mm)*
G04 Created by KiCad (PCBNEW 7.0.5) date 2024-09-25 00:12:03*
%MOMM*%
%LPD*%
G01*
G04 APERTURE LIST*
%ADD10C,0.150000*%
%ADD11C,0.120000*%
%ADD12C,0.100000*%
G04 APERTURE END LIST*
D10*
X54609258Y-116430810D02*
X53172632Y-115620319D01*
X52668441Y-115295109D02*
X51337631Y-114320565D01*
X50875394Y-113938065D02*
X49669041Y-112813119D01*
X49255231Y-112378687D02*
X48190234Y-111119096D01*
X47830648Y-110638817D02*
X46921923Y-109262224D01*
X46621597Y-108742825D02*
X45881874Y-107268512D01*
X45645016Y-106717270D02*
X45084655Y-105165888D01*
X44914582Y-104590523D02*
X44541433Y-102983803D01*
X44440527Y-102392374D02*
X44259817Y-100752821D01*
X44229491Y-100153613D02*
X44243751Y-98504193D01*
X44284431Y-97905599D02*
X44493461Y-96269415D01*
X44604577Y-95679820D02*
X45005448Y-94079791D01*
X45185444Y-93507452D02*
X45772542Y-91965990D01*
X46018896Y-91418925D02*
X46783998Y-89957622D01*
X47093258Y-89443493D02*
X48025647Y-88082817D01*
X48393483Y-87608827D02*
X49480098Y-86367836D01*
X56400785Y-81758132D02*
X57964673Y-81233686D01*
X58543806Y-81076923D02*
X60158702Y-80740915D01*
X60752300Y-80653671D02*
X62395583Y-80510808D01*
X62995331Y-80494305D02*
X64643984Y-80546587D01*
X65241481Y-80601057D02*
X66872411Y-80847752D01*
X67459288Y-80972432D02*
X69049650Y-81410084D01*
X69617687Y-81603227D02*
X71145204Y-82225707D01*
X71686444Y-82484607D02*
X73129720Y-83283195D01*
X73636582Y-83604227D02*
X74975401Y-84567737D01*
X75440785Y-84946403D02*
X76656395Y-86061339D01*
X77073782Y-86492336D02*
X78149154Y-87743081D01*
X78512698Y-88220371D02*
X79432770Y-89589406D01*
X79737379Y-90106304D02*
X80489264Y-91574452D01*
X80730671Y-92123718D02*
X81303836Y-93670415D01*
X81478659Y-94244354D02*
X81865076Y-95847935D01*
X81970867Y-96438510D02*
X82165124Y-98076513D01*
X82200401Y-98675450D02*
X82199776Y-100324931D01*
X82164045Y-100923841D02*
X81968548Y-102561697D01*
X81862309Y-103152191D02*
X81474677Y-104755479D01*
X81299419Y-105329286D02*
X80725082Y-106875548D01*
X80483259Y-107424630D02*
X79730263Y-108892209D01*
X79425262Y-109408876D02*
X78504153Y-110777213D01*
X78140247Y-111254227D02*
X77063928Y-112504158D01*
X76646214Y-112934838D02*
X75429760Y-114048853D01*
X74964089Y-114427166D02*
X73624540Y-115389662D01*
X73117436Y-115710309D02*
X71685894Y-116501666D01*
D11*
%TO.C,T2*%
X45593523Y-64501355D02*
X45136380Y-64501355D01*
X45364952Y-65301355D02*
X45364952Y-64501355D01*
X44412570Y-65301355D02*
X44679237Y-64920402D01*
X44869713Y-65301355D02*
X44869713Y-64501355D01*
X44869713Y-64501355D02*
X44564951Y-64501355D01*
X44564951Y-64501355D02*
X44488761Y-64539450D01*
X44488761Y-64539450D02*
X44450666Y-64577545D01*
X44450666Y-64577545D02*
X44412570Y-64653736D01*
X44412570Y-64653736D02*
X44412570Y-64768021D01*
X44412570Y-64768021D02*
X44450666Y-64844212D01*
X44450666Y-64844212D02*
X44488761Y-64882307D01*
X44488761Y-64882307D02*
X44564951Y-64920402D01*
X44564951Y-64920402D02*
X44869713Y-64920402D01*
X43612570Y-65301355D02*
X43879237Y-64920402D01*
X44069713Y-65301355D02*
X44069713Y-64501355D01*
X44069713Y-64501355D02*
X43764951Y-64501355D01*
X43764951Y-64501355D02*
X43688761Y-64539450D01*
X43688761Y-64539450D02*
X43650666Y-64577545D01*
X43650666Y-64577545D02*
X43612570Y-64653736D01*
X43612570Y-64653736D02*
X43612570Y-64768021D01*
X43612570Y-64768021D02*
X43650666Y-64844212D01*
X43650666Y-64844212D02*
X43688761Y-64882307D01*
X43688761Y-64882307D02*
X43764951Y-64920402D01*
X43764951Y-64920402D02*
X44069713Y-64920402D01*
X43307809Y-65263260D02*
X43193523Y-65301355D01*
X43193523Y-65301355D02*
X43003047Y-65301355D01*
X43003047Y-65301355D02*
X42926856Y-65263260D01*
X42926856Y-65263260D02*
X42888761Y-65225164D01*
X42888761Y-65225164D02*
X42850666Y-65148974D01*
X42850666Y-65148974D02*
X42850666Y-65072783D01*
X42850666Y-65072783D02*
X42888761Y-64996593D01*
X42888761Y-64996593D02*
X42926856Y-64958498D01*
X42926856Y-64958498D02*
X43003047Y-64920402D01*
X43003047Y-64920402D02*
X43155428Y-64882307D01*
X43155428Y-64882307D02*
X43231618Y-64844212D01*
X43231618Y-64844212D02*
X43269713Y-64806117D01*
X43269713Y-64806117D02*
X43307809Y-64729926D01*
X43307809Y-64729926D02*
X43307809Y-64653736D01*
X43307809Y-64653736D02*
X43269713Y-64577545D01*
X43269713Y-64577545D02*
X43231618Y-64539450D01*
X43231618Y-64539450D02*
X43155428Y-64501355D01*
X43155428Y-64501355D02*
X42964951Y-64501355D01*
X42964951Y-64501355D02*
X42850666Y-64539450D01*
%TO.C,T1*%
X76777855Y-33313476D02*
X76777855Y-33770619D01*
X77577855Y-33542047D02*
X76777855Y-33542047D01*
X77577855Y-34494429D02*
X77196902Y-34227762D01*
X77577855Y-34037286D02*
X76777855Y-34037286D01*
X76777855Y-34037286D02*
X76777855Y-34342048D01*
X76777855Y-34342048D02*
X76815950Y-34418238D01*
X76815950Y-34418238D02*
X76854045Y-34456333D01*
X76854045Y-34456333D02*
X76930236Y-34494429D01*
X76930236Y-34494429D02*
X77044521Y-34494429D01*
X77044521Y-34494429D02*
X77120712Y-34456333D01*
X77120712Y-34456333D02*
X77158807Y-34418238D01*
X77158807Y-34418238D02*
X77196902Y-34342048D01*
X77196902Y-34342048D02*
X77196902Y-34037286D01*
X77577855Y-35294429D02*
X77196902Y-35027762D01*
X77577855Y-34837286D02*
X76777855Y-34837286D01*
X76777855Y-34837286D02*
X76777855Y-35142048D01*
X76777855Y-35142048D02*
X76815950Y-35218238D01*
X76815950Y-35218238D02*
X76854045Y-35256333D01*
X76854045Y-35256333D02*
X76930236Y-35294429D01*
X76930236Y-35294429D02*
X77044521Y-35294429D01*
X77044521Y-35294429D02*
X77120712Y-35256333D01*
X77120712Y-35256333D02*
X77158807Y-35218238D01*
X77158807Y-35218238D02*
X77196902Y-35142048D01*
X77196902Y-35142048D02*
X77196902Y-34837286D01*
X77539760Y-35599190D02*
X77577855Y-35713476D01*
X77577855Y-35713476D02*
X77577855Y-35903952D01*
X77577855Y-35903952D02*
X77539760Y-35980143D01*
X77539760Y-35980143D02*
X77501664Y-36018238D01*
X77501664Y-36018238D02*
X77425474Y-36056333D01*
X77425474Y-36056333D02*
X77349283Y-36056333D01*
X77349283Y-36056333D02*
X77273093Y-36018238D01*
X77273093Y-36018238D02*
X77234998Y-35980143D01*
X77234998Y-35980143D02*
X77196902Y-35903952D01*
X77196902Y-35903952D02*
X77158807Y-35751571D01*
X77158807Y-35751571D02*
X77120712Y-35675381D01*
X77120712Y-35675381D02*
X77082617Y-35637286D01*
X77082617Y-35637286D02*
X77006426Y-35599190D01*
X77006426Y-35599190D02*
X76930236Y-35599190D01*
X76930236Y-35599190D02*
X76854045Y-35637286D01*
X76854045Y-35637286D02*
X76815950Y-35675381D01*
X76815950Y-35675381D02*
X76777855Y-35751571D01*
X76777855Y-35751571D02*
X76777855Y-35942048D01*
X76777855Y-35942048D02*
X76815950Y-36056333D01*
%TO.C,R1*%
X51294332Y-83706855D02*
X51560999Y-83325902D01*
X51751475Y-83706855D02*
X51751475Y-82906855D01*
X51751475Y-82906855D02*
X51446713Y-82906855D01*
X51446713Y-82906855D02*
X51370523Y-82944950D01*
X51370523Y-82944950D02*
X51332428Y-82983045D01*
X51332428Y-82983045D02*
X51294332Y-83059236D01*
X51294332Y-83059236D02*
X51294332Y-83173521D01*
X51294332Y-83173521D02*
X51332428Y-83249712D01*
X51332428Y-83249712D02*
X51370523Y-83287807D01*
X51370523Y-83287807D02*
X51446713Y-83325902D01*
X51446713Y-83325902D02*
X51751475Y-83325902D01*
X50532428Y-83706855D02*
X50989571Y-83706855D01*
X50760999Y-83706855D02*
X50760999Y-82906855D01*
X50760999Y-82906855D02*
X50837190Y-83021140D01*
X50837190Y-83021140D02*
X50913380Y-83097331D01*
X50913380Y-83097331D02*
X50989571Y-83135426D01*
%TO.C,JP1*%
X77307855Y-46799524D02*
X76507855Y-46799524D01*
X76507855Y-46799524D02*
X76507855Y-47104286D01*
X76507855Y-47104286D02*
X76545950Y-47180476D01*
X76545950Y-47180476D02*
X76584045Y-47218571D01*
X76584045Y-47218571D02*
X76660236Y-47256667D01*
X76660236Y-47256667D02*
X76774521Y-47256667D01*
X76774521Y-47256667D02*
X76850712Y-47218571D01*
X76850712Y-47218571D02*
X76888807Y-47180476D01*
X76888807Y-47180476D02*
X76926902Y-47104286D01*
X76926902Y-47104286D02*
X76926902Y-46799524D01*
X77307855Y-48018571D02*
X77307855Y-47561428D01*
X77307855Y-47790000D02*
X76507855Y-47790000D01*
X76507855Y-47790000D02*
X76622140Y-47713809D01*
X76622140Y-47713809D02*
X76698331Y-47637619D01*
X76698331Y-47637619D02*
X76736426Y-47561428D01*
%TO.C,JP2*%
X79847855Y-46799524D02*
X79047855Y-46799524D01*
X79047855Y-46799524D02*
X79047855Y-47104286D01*
X79047855Y-47104286D02*
X79085950Y-47180476D01*
X79085950Y-47180476D02*
X79124045Y-47218571D01*
X79124045Y-47218571D02*
X79200236Y-47256667D01*
X79200236Y-47256667D02*
X79314521Y-47256667D01*
X79314521Y-47256667D02*
X79390712Y-47218571D01*
X79390712Y-47218571D02*
X79428807Y-47180476D01*
X79428807Y-47180476D02*
X79466902Y-47104286D01*
X79466902Y-47104286D02*
X79466902Y-46799524D01*
X79124045Y-47561428D02*
X79085950Y-47599524D01*
X79085950Y-47599524D02*
X79047855Y-47675714D01*
X79047855Y-47675714D02*
X79047855Y-47866190D01*
X79047855Y-47866190D02*
X79085950Y-47942381D01*
X79085950Y-47942381D02*
X79124045Y-47980476D01*
X79124045Y-47980476D02*
X79200236Y-48018571D01*
X79200236Y-48018571D02*
X79276426Y-48018571D01*
X79276426Y-48018571D02*
X79390712Y-47980476D01*
X79390712Y-47980476D02*
X79847855Y-47523333D01*
X79847855Y-47523333D02*
X79847855Y-48018571D01*
D10*
%TO.C,RST1*%
X51039094Y-31190295D02*
X51305761Y-30809342D01*
X51496237Y-31190295D02*
X51496237Y-30390295D01*
X51496237Y-30390295D02*
X51191475Y-30390295D01*
X51191475Y-30390295D02*
X51115285Y-30428390D01*
X51115285Y-30428390D02*
X51077190Y-30466485D01*
X51077190Y-30466485D02*
X51039094Y-30542676D01*
X51039094Y-30542676D02*
X51039094Y-30656961D01*
X51039094Y-30656961D02*
X51077190Y-30733152D01*
X51077190Y-30733152D02*
X51115285Y-30771247D01*
X51115285Y-30771247D02*
X51191475Y-30809342D01*
X51191475Y-30809342D02*
X51496237Y-30809342D01*
X50734333Y-31152200D02*
X50620047Y-31190295D01*
X50620047Y-31190295D02*
X50429571Y-31190295D01*
X50429571Y-31190295D02*
X50353380Y-31152200D01*
X50353380Y-31152200D02*
X50315285Y-31114104D01*
X50315285Y-31114104D02*
X50277190Y-31037914D01*
X50277190Y-31037914D02*
X50277190Y-30961723D01*
X50277190Y-30961723D02*
X50315285Y-30885533D01*
X50315285Y-30885533D02*
X50353380Y-30847438D01*
X50353380Y-30847438D02*
X50429571Y-30809342D01*
X50429571Y-30809342D02*
X50581952Y-30771247D01*
X50581952Y-30771247D02*
X50658142Y-30733152D01*
X50658142Y-30733152D02*
X50696237Y-30695057D01*
X50696237Y-30695057D02*
X50734333Y-30618866D01*
X50734333Y-30618866D02*
X50734333Y-30542676D01*
X50734333Y-30542676D02*
X50696237Y-30466485D01*
X50696237Y-30466485D02*
X50658142Y-30428390D01*
X50658142Y-30428390D02*
X50581952Y-30390295D01*
X50581952Y-30390295D02*
X50391475Y-30390295D01*
X50391475Y-30390295D02*
X50277190Y-30428390D01*
X50048618Y-30390295D02*
X49591475Y-30390295D01*
X49820047Y-31190295D02*
X49820047Y-30390295D01*
D11*
%TO.C,J1*%
X66629450Y-88298476D02*
X66591355Y-88222286D01*
X66591355Y-88222286D02*
X66591355Y-88108000D01*
X66591355Y-88108000D02*
X66629450Y-87993714D01*
X66629450Y-87993714D02*
X66705640Y-87917524D01*
X66705640Y-87917524D02*
X66781831Y-87879429D01*
X66781831Y-87879429D02*
X66934212Y-87841333D01*
X66934212Y-87841333D02*
X67048498Y-87841333D01*
X67048498Y-87841333D02*
X67200879Y-87879429D01*
X67200879Y-87879429D02*
X67277069Y-87917524D01*
X67277069Y-87917524D02*
X67353260Y-87993714D01*
X67353260Y-87993714D02*
X67391355Y-88108000D01*
X67391355Y-88108000D02*
X67391355Y-88184191D01*
X67391355Y-88184191D02*
X67353260Y-88298476D01*
X67353260Y-88298476D02*
X67315164Y-88336572D01*
X67315164Y-88336572D02*
X67048498Y-88336572D01*
X67048498Y-88336572D02*
X67048498Y-88184191D01*
X67391355Y-88679429D02*
X66591355Y-88679429D01*
X66591355Y-88679429D02*
X67391355Y-89136572D01*
X67391355Y-89136572D02*
X66591355Y-89136572D01*
X67391355Y-89517524D02*
X66591355Y-89517524D01*
X66591355Y-89517524D02*
X66591355Y-89708000D01*
X66591355Y-89708000D02*
X66629450Y-89822286D01*
X66629450Y-89822286D02*
X66705640Y-89898476D01*
X66705640Y-89898476D02*
X66781831Y-89936571D01*
X66781831Y-89936571D02*
X66934212Y-89974667D01*
X66934212Y-89974667D02*
X67048498Y-89974667D01*
X67048498Y-89974667D02*
X67200879Y-89936571D01*
X67200879Y-89936571D02*
X67277069Y-89898476D01*
X67277069Y-89898476D02*
X67353260Y-89822286D01*
X67353260Y-89822286D02*
X67391355Y-89708000D01*
X67391355Y-89708000D02*
X67391355Y-89517524D01*
X62273260Y-87955618D02*
X62311355Y-88069904D01*
X62311355Y-88069904D02*
X62311355Y-88260380D01*
X62311355Y-88260380D02*
X62273260Y-88336571D01*
X62273260Y-88336571D02*
X62235164Y-88374666D01*
X62235164Y-88374666D02*
X62158974Y-88412761D01*
X62158974Y-88412761D02*
X62082783Y-88412761D01*
X62082783Y-88412761D02*
X62006593Y-88374666D01*
X62006593Y-88374666D02*
X61968498Y-88336571D01*
X61968498Y-88336571D02*
X61930402Y-88260380D01*
X61930402Y-88260380D02*
X61892307Y-88107999D01*
X61892307Y-88107999D02*
X61854212Y-88031809D01*
X61854212Y-88031809D02*
X61816117Y-87993714D01*
X61816117Y-87993714D02*
X61739926Y-87955618D01*
X61739926Y-87955618D02*
X61663736Y-87955618D01*
X61663736Y-87955618D02*
X61587545Y-87993714D01*
X61587545Y-87993714D02*
X61549450Y-88031809D01*
X61549450Y-88031809D02*
X61511355Y-88107999D01*
X61511355Y-88107999D02*
X61511355Y-88298476D01*
X61511355Y-88298476D02*
X61549450Y-88412761D01*
X62235164Y-89212762D02*
X62273260Y-89174666D01*
X62273260Y-89174666D02*
X62311355Y-89060381D01*
X62311355Y-89060381D02*
X62311355Y-88984190D01*
X62311355Y-88984190D02*
X62273260Y-88869904D01*
X62273260Y-88869904D02*
X62197069Y-88793714D01*
X62197069Y-88793714D02*
X62120879Y-88755619D01*
X62120879Y-88755619D02*
X61968498Y-88717523D01*
X61968498Y-88717523D02*
X61854212Y-88717523D01*
X61854212Y-88717523D02*
X61701831Y-88755619D01*
X61701831Y-88755619D02*
X61625640Y-88793714D01*
X61625640Y-88793714D02*
X61549450Y-88869904D01*
X61549450Y-88869904D02*
X61511355Y-88984190D01*
X61511355Y-88984190D02*
X61511355Y-89060381D01*
X61511355Y-89060381D02*
X61549450Y-89174666D01*
X61549450Y-89174666D02*
X61587545Y-89212762D01*
X62311355Y-89936571D02*
X62311355Y-89555619D01*
X62311355Y-89555619D02*
X61511355Y-89555619D01*
X59733260Y-87936571D02*
X59771355Y-88050857D01*
X59771355Y-88050857D02*
X59771355Y-88241333D01*
X59771355Y-88241333D02*
X59733260Y-88317524D01*
X59733260Y-88317524D02*
X59695164Y-88355619D01*
X59695164Y-88355619D02*
X59618974Y-88393714D01*
X59618974Y-88393714D02*
X59542783Y-88393714D01*
X59542783Y-88393714D02*
X59466593Y-88355619D01*
X59466593Y-88355619D02*
X59428498Y-88317524D01*
X59428498Y-88317524D02*
X59390402Y-88241333D01*
X59390402Y-88241333D02*
X59352307Y-88088952D01*
X59352307Y-88088952D02*
X59314212Y-88012762D01*
X59314212Y-88012762D02*
X59276117Y-87974667D01*
X59276117Y-87974667D02*
X59199926Y-87936571D01*
X59199926Y-87936571D02*
X59123736Y-87936571D01*
X59123736Y-87936571D02*
X59047545Y-87974667D01*
X59047545Y-87974667D02*
X59009450Y-88012762D01*
X59009450Y-88012762D02*
X58971355Y-88088952D01*
X58971355Y-88088952D02*
X58971355Y-88279429D01*
X58971355Y-88279429D02*
X59009450Y-88393714D01*
X59771355Y-88736572D02*
X58971355Y-88736572D01*
X58971355Y-88736572D02*
X58971355Y-88927048D01*
X58971355Y-88927048D02*
X59009450Y-89041334D01*
X59009450Y-89041334D02*
X59085640Y-89117524D01*
X59085640Y-89117524D02*
X59161831Y-89155619D01*
X59161831Y-89155619D02*
X59314212Y-89193715D01*
X59314212Y-89193715D02*
X59428498Y-89193715D01*
X59428498Y-89193715D02*
X59580879Y-89155619D01*
X59580879Y-89155619D02*
X59657069Y-89117524D01*
X59657069Y-89117524D02*
X59733260Y-89041334D01*
X59733260Y-89041334D02*
X59771355Y-88927048D01*
X59771355Y-88927048D02*
X59771355Y-88736572D01*
X59542783Y-89498476D02*
X59542783Y-89879429D01*
X59771355Y-89422286D02*
X58971355Y-89688953D01*
X58971355Y-89688953D02*
X59771355Y-89955619D01*
X64051355Y-87841333D02*
X64851355Y-88108000D01*
X64851355Y-88108000D02*
X64051355Y-88374666D01*
X64775164Y-89098476D02*
X64813260Y-89060380D01*
X64813260Y-89060380D02*
X64851355Y-88946095D01*
X64851355Y-88946095D02*
X64851355Y-88869904D01*
X64851355Y-88869904D02*
X64813260Y-88755618D01*
X64813260Y-88755618D02*
X64737069Y-88679428D01*
X64737069Y-88679428D02*
X64660879Y-88641333D01*
X64660879Y-88641333D02*
X64508498Y-88603237D01*
X64508498Y-88603237D02*
X64394212Y-88603237D01*
X64394212Y-88603237D02*
X64241831Y-88641333D01*
X64241831Y-88641333D02*
X64165640Y-88679428D01*
X64165640Y-88679428D02*
X64089450Y-88755618D01*
X64089450Y-88755618D02*
X64051355Y-88869904D01*
X64051355Y-88869904D02*
X64051355Y-88946095D01*
X64051355Y-88946095D02*
X64089450Y-89060380D01*
X64089450Y-89060380D02*
X64127545Y-89098476D01*
X64775164Y-89898476D02*
X64813260Y-89860380D01*
X64813260Y-89860380D02*
X64851355Y-89746095D01*
X64851355Y-89746095D02*
X64851355Y-89669904D01*
X64851355Y-89669904D02*
X64813260Y-89555618D01*
X64813260Y-89555618D02*
X64737069Y-89479428D01*
X64737069Y-89479428D02*
X64660879Y-89441333D01*
X64660879Y-89441333D02*
X64508498Y-89403237D01*
X64508498Y-89403237D02*
X64394212Y-89403237D01*
X64394212Y-89403237D02*
X64241831Y-89441333D01*
X64241831Y-89441333D02*
X64165640Y-89479428D01*
X64165640Y-89479428D02*
X64089450Y-89555618D01*
X64089450Y-89555618D02*
X64051355Y-89669904D01*
X64051355Y-89669904D02*
X64051355Y-89746095D01*
X64051355Y-89746095D02*
X64089450Y-89860380D01*
X64089450Y-89860380D02*
X64127545Y-89898476D01*
%TO.C,R2*%
X51294332Y-81166855D02*
X51560999Y-80785902D01*
X51751475Y-81166855D02*
X51751475Y-80366855D01*
X51751475Y-80366855D02*
X51446713Y-80366855D01*
X51446713Y-80366855D02*
X51370523Y-80404950D01*
X51370523Y-80404950D02*
X51332428Y-80443045D01*
X51332428Y-80443045D02*
X51294332Y-80519236D01*
X51294332Y-80519236D02*
X51294332Y-80633521D01*
X51294332Y-80633521D02*
X51332428Y-80709712D01*
X51332428Y-80709712D02*
X51370523Y-80747807D01*
X51370523Y-80747807D02*
X51446713Y-80785902D01*
X51446713Y-80785902D02*
X51751475Y-80785902D01*
X50989571Y-80443045D02*
X50951475Y-80404950D01*
X50951475Y-80404950D02*
X50875285Y-80366855D01*
X50875285Y-80366855D02*
X50684809Y-80366855D01*
X50684809Y-80366855D02*
X50608618Y-80404950D01*
X50608618Y-80404950D02*
X50570523Y-80443045D01*
X50570523Y-80443045D02*
X50532428Y-80519236D01*
X50532428Y-80519236D02*
X50532428Y-80595426D01*
X50532428Y-80595426D02*
X50570523Y-80709712D01*
X50570523Y-80709712D02*
X51027666Y-81166855D01*
X51027666Y-81166855D02*
X50532428Y-81166855D01*
%TO.C,U1*%
X45570523Y-42806450D02*
X45646713Y-42768355D01*
X45646713Y-42768355D02*
X45760999Y-42768355D01*
X45760999Y-42768355D02*
X45875285Y-42806450D01*
X45875285Y-42806450D02*
X45951475Y-42882640D01*
X45951475Y-42882640D02*
X45989570Y-42958831D01*
X45989570Y-42958831D02*
X46027666Y-43111212D01*
X46027666Y-43111212D02*
X46027666Y-43225498D01*
X46027666Y-43225498D02*
X45989570Y-43377879D01*
X45989570Y-43377879D02*
X45951475Y-43454069D01*
X45951475Y-43454069D02*
X45875285Y-43530260D01*
X45875285Y-43530260D02*
X45760999Y-43568355D01*
X45760999Y-43568355D02*
X45684808Y-43568355D01*
X45684808Y-43568355D02*
X45570523Y-43530260D01*
X45570523Y-43530260D02*
X45532427Y-43492164D01*
X45532427Y-43492164D02*
X45532427Y-43225498D01*
X45532427Y-43225498D02*
X45684808Y-43225498D01*
X45189570Y-43568355D02*
X45189570Y-42768355D01*
X45189570Y-42768355D02*
X44732427Y-43568355D01*
X44732427Y-43568355D02*
X44732427Y-42768355D01*
X44351475Y-43568355D02*
X44351475Y-42768355D01*
X44351475Y-42768355D02*
X44160999Y-42768355D01*
X44160999Y-42768355D02*
X44046713Y-42806450D01*
X44046713Y-42806450D02*
X43970523Y-42882640D01*
X43970523Y-42882640D02*
X43932428Y-42958831D01*
X43932428Y-42958831D02*
X43894332Y-43111212D01*
X43894332Y-43111212D02*
X43894332Y-43225498D01*
X43894332Y-43225498D02*
X43932428Y-43377879D01*
X43932428Y-43377879D02*
X43970523Y-43454069D01*
X43970523Y-43454069D02*
X44046713Y-43530260D01*
X44046713Y-43530260D02*
X44160999Y-43568355D01*
X44160999Y-43568355D02*
X44351475Y-43568355D01*
X50650523Y-58046450D02*
X50726713Y-58008355D01*
X50726713Y-58008355D02*
X50840999Y-58008355D01*
X50840999Y-58008355D02*
X50955285Y-58046450D01*
X50955285Y-58046450D02*
X51031475Y-58122640D01*
X51031475Y-58122640D02*
X51069570Y-58198831D01*
X51069570Y-58198831D02*
X51107666Y-58351212D01*
X51107666Y-58351212D02*
X51107666Y-58465498D01*
X51107666Y-58465498D02*
X51069570Y-58617879D01*
X51069570Y-58617879D02*
X51031475Y-58694069D01*
X51031475Y-58694069D02*
X50955285Y-58770260D01*
X50955285Y-58770260D02*
X50840999Y-58808355D01*
X50840999Y-58808355D02*
X50764808Y-58808355D01*
X50764808Y-58808355D02*
X50650523Y-58770260D01*
X50650523Y-58770260D02*
X50612427Y-58732164D01*
X50612427Y-58732164D02*
X50612427Y-58465498D01*
X50612427Y-58465498D02*
X50764808Y-58465498D01*
X50269570Y-58808355D02*
X50269570Y-58008355D01*
X50269570Y-58008355D02*
X49812427Y-58808355D01*
X49812427Y-58808355D02*
X49812427Y-58008355D01*
X49431475Y-58808355D02*
X49431475Y-58008355D01*
X49431475Y-58008355D02*
X49240999Y-58008355D01*
X49240999Y-58008355D02*
X49126713Y-58046450D01*
X49126713Y-58046450D02*
X49050523Y-58122640D01*
X49050523Y-58122640D02*
X49012428Y-58198831D01*
X49012428Y-58198831D02*
X48974332Y-58351212D01*
X48974332Y-58351212D02*
X48974332Y-58465498D01*
X48974332Y-58465498D02*
X49012428Y-58617879D01*
X49012428Y-58617879D02*
X49050523Y-58694069D01*
X49050523Y-58694069D02*
X49126713Y-58770260D01*
X49126713Y-58770260D02*
X49240999Y-58808355D01*
X49240999Y-58808355D02*
X49431475Y-58808355D01*
X48110523Y-58046450D02*
X48186713Y-58008355D01*
X48186713Y-58008355D02*
X48300999Y-58008355D01*
X48300999Y-58008355D02*
X48415285Y-58046450D01*
X48415285Y-58046450D02*
X48491475Y-58122640D01*
X48491475Y-58122640D02*
X48529570Y-58198831D01*
X48529570Y-58198831D02*
X48567666Y-58351212D01*
X48567666Y-58351212D02*
X48567666Y-58465498D01*
X48567666Y-58465498D02*
X48529570Y-58617879D01*
X48529570Y-58617879D02*
X48491475Y-58694069D01*
X48491475Y-58694069D02*
X48415285Y-58770260D01*
X48415285Y-58770260D02*
X48300999Y-58808355D01*
X48300999Y-58808355D02*
X48224808Y-58808355D01*
X48224808Y-58808355D02*
X48110523Y-58770260D01*
X48110523Y-58770260D02*
X48072427Y-58732164D01*
X48072427Y-58732164D02*
X48072427Y-58465498D01*
X48072427Y-58465498D02*
X48224808Y-58465498D01*
X47729570Y-58808355D02*
X47729570Y-58008355D01*
X47729570Y-58008355D02*
X47272427Y-58808355D01*
X47272427Y-58808355D02*
X47272427Y-58008355D01*
X46891475Y-58808355D02*
X46891475Y-58008355D01*
X46891475Y-58008355D02*
X46700999Y-58008355D01*
X46700999Y-58008355D02*
X46586713Y-58046450D01*
X46586713Y-58046450D02*
X46510523Y-58122640D01*
X46510523Y-58122640D02*
X46472428Y-58198831D01*
X46472428Y-58198831D02*
X46434332Y-58351212D01*
X46434332Y-58351212D02*
X46434332Y-58465498D01*
X46434332Y-58465498D02*
X46472428Y-58617879D01*
X46472428Y-58617879D02*
X46510523Y-58694069D01*
X46510523Y-58694069D02*
X46586713Y-58770260D01*
X46586713Y-58770260D02*
X46700999Y-58808355D01*
X46700999Y-58808355D02*
X46891475Y-58808355D01*
X51107666Y-42768355D02*
X50840999Y-43568355D01*
X50840999Y-43568355D02*
X50574333Y-42768355D01*
X49850523Y-43492164D02*
X49888619Y-43530260D01*
X49888619Y-43530260D02*
X50002904Y-43568355D01*
X50002904Y-43568355D02*
X50079095Y-43568355D01*
X50079095Y-43568355D02*
X50193381Y-43530260D01*
X50193381Y-43530260D02*
X50269571Y-43454069D01*
X50269571Y-43454069D02*
X50307666Y-43377879D01*
X50307666Y-43377879D02*
X50345762Y-43225498D01*
X50345762Y-43225498D02*
X50345762Y-43111212D01*
X50345762Y-43111212D02*
X50307666Y-42958831D01*
X50307666Y-42958831D02*
X50269571Y-42882640D01*
X50269571Y-42882640D02*
X50193381Y-42806450D01*
X50193381Y-42806450D02*
X50079095Y-42768355D01*
X50079095Y-42768355D02*
X50002904Y-42768355D01*
X50002904Y-42768355D02*
X49888619Y-42806450D01*
X49888619Y-42806450D02*
X49850523Y-42844545D01*
X49050523Y-43492164D02*
X49088619Y-43530260D01*
X49088619Y-43530260D02*
X49202904Y-43568355D01*
X49202904Y-43568355D02*
X49279095Y-43568355D01*
X49279095Y-43568355D02*
X49393381Y-43530260D01*
X49393381Y-43530260D02*
X49469571Y-43454069D01*
X49469571Y-43454069D02*
X49507666Y-43377879D01*
X49507666Y-43377879D02*
X49545762Y-43225498D01*
X49545762Y-43225498D02*
X49545762Y-43111212D01*
X49545762Y-43111212D02*
X49507666Y-42958831D01*
X49507666Y-42958831D02*
X49469571Y-42882640D01*
X49469571Y-42882640D02*
X49393381Y-42806450D01*
X49393381Y-42806450D02*
X49279095Y-42768355D01*
X49279095Y-42768355D02*
X49202904Y-42768355D01*
X49202904Y-42768355D02*
X49088619Y-42806450D01*
X49088619Y-42806450D02*
X49050523Y-42844545D01*
D10*
%TO.C,T2*%
X38611000Y-68315700D02*
X51184000Y-68315700D01*
X51184000Y-68315700D02*
X51184000Y-61559300D01*
X38611000Y-61559300D02*
X38611000Y-68315700D01*
X38611000Y-61559300D02*
X51184000Y-61559300D01*
%TO.C,T1*%
X73835800Y-29150000D02*
X73835800Y-41723000D01*
X73835800Y-41723000D02*
X80592200Y-41723000D01*
X80592200Y-29150000D02*
X73835800Y-29150000D01*
X80592200Y-29150000D02*
X80592200Y-41723000D01*
D12*
%TO.C,D16*%
X150505600Y-30000000D02*
X150105600Y-30000000D01*
X150105600Y-30000000D02*
X150105600Y-30550000D01*
X150105600Y-30000000D02*
X150105600Y-29450000D01*
X150105600Y-30000000D02*
X149505600Y-29600000D01*
X149505600Y-30400000D02*
X150105600Y-30000000D01*
X149505600Y-30000000D02*
X149005600Y-30000000D01*
X149505600Y-29600000D02*
X149505600Y-30400000D01*
%TO.C,D24*%
X169685600Y-87150000D02*
X169285600Y-87150000D01*
X169285600Y-87150000D02*
X169285600Y-87700000D01*
X169285600Y-87150000D02*
X169285600Y-86600000D01*
X169285600Y-87150000D02*
X168685600Y-86750000D01*
X168685600Y-87550000D02*
X169285600Y-87150000D01*
X168685600Y-87150000D02*
X168185600Y-87150000D01*
X168685600Y-86750000D02*
X168685600Y-87550000D01*
D11*
%TO.C,SW19*%
X147800000Y-98025000D02*
X147800000Y-98975000D01*
X147800000Y-98025000D02*
X152200000Y-98025000D01*
X147800000Y-102725000D02*
X147800000Y-101775000D01*
X147800000Y-102725000D02*
X150800000Y-102725000D01*
X152200000Y-98025000D02*
X154400000Y-99075000D01*
X152384000Y-88266000D02*
X153321000Y-87329000D01*
X153090000Y-103175000D02*
X154400000Y-103775000D01*
X153321000Y-87329000D02*
X156068000Y-87329000D01*
X153321000Y-92121000D02*
X152300000Y-91100000D01*
X155968000Y-92121000D02*
X153321000Y-92121000D01*
X156068000Y-87329000D02*
X156471000Y-87409000D01*
X156471000Y-87409000D02*
X156813000Y-87638000D01*
X156530000Y-92226000D02*
X155968000Y-92121000D01*
X156813000Y-87638000D02*
X157346000Y-88171000D01*
X157009000Y-92525000D02*
X156530000Y-92226000D01*
X157346000Y-88171000D02*
X157346000Y-88393000D01*
X157346000Y-88393000D02*
X157433000Y-88831000D01*
X157347000Y-92978000D02*
X157009000Y-92525000D01*
X157433000Y-88831000D02*
X157677000Y-89198000D01*
X157501000Y-93536000D02*
X157347000Y-92978000D01*
X157583000Y-93834000D02*
X157501000Y-93536000D01*
X157677000Y-89198000D02*
X158044000Y-89442000D01*
X157700000Y-99075000D02*
X154400000Y-99075000D01*
X157776000Y-94092000D02*
X157583000Y-93834000D01*
X158044000Y-89442000D02*
X158482000Y-89529000D01*
X158050000Y-94262000D02*
X157776000Y-94092000D01*
X158360000Y-94321000D02*
X158050000Y-94262000D01*
X158482000Y-89529000D02*
X161282000Y-89529000D01*
X160000000Y-103775000D02*
X154400000Y-103775000D01*
X160000000Y-103775000D02*
X160000000Y-102875000D01*
X161282000Y-89529000D02*
X161609000Y-89594000D01*
X161609000Y-89594000D02*
X161892000Y-89783000D01*
X161892000Y-89783000D02*
X162081000Y-90066000D01*
X162081000Y-90066000D02*
X162166000Y-90493000D01*
X162446000Y-93379000D02*
X162446000Y-94321000D01*
X162446000Y-94321000D02*
X158360000Y-94321000D01*
D12*
%TO.C,D20*%
X150505600Y-106200000D02*
X150105600Y-106200000D01*
X150105600Y-106200000D02*
X150105600Y-106750000D01*
X150105600Y-106200000D02*
X150105600Y-105650000D01*
X150105600Y-106200000D02*
X149505600Y-105800000D01*
X149505600Y-106600000D02*
X150105600Y-106200000D01*
X149505600Y-106200000D02*
X149005600Y-106200000D01*
X149505600Y-105800000D02*
X149505600Y-106600000D01*
%TO.C,D1*%
X93355600Y-30000000D02*
X92955600Y-30000000D01*
X92955600Y-30000000D02*
X92955600Y-30550000D01*
X92955600Y-30000000D02*
X92955600Y-29450000D01*
X92955600Y-30000000D02*
X92355600Y-29600000D01*
X92355600Y-30400000D02*
X92955600Y-30000000D01*
X92355600Y-30000000D02*
X91855600Y-30000000D01*
X92355600Y-29600000D02*
X92355600Y-30400000D01*
%TO.C,D22*%
X169555600Y-49050000D02*
X169155600Y-49050000D01*
X169155600Y-49050000D02*
X169155600Y-49600000D01*
X169155600Y-49050000D02*
X169155600Y-48500000D01*
X169155600Y-49050000D02*
X168555600Y-48650000D01*
X168555600Y-49450000D02*
X169155600Y-49050000D01*
X168555600Y-49050000D02*
X168055600Y-49050000D01*
X168555600Y-48650000D02*
X168555600Y-49450000D01*
D11*
%TO.C,SW3*%
X90650000Y-78975000D02*
X90650000Y-79925000D01*
X90650000Y-78975000D02*
X95050000Y-78975000D01*
X90650000Y-83675000D02*
X90650000Y-82725000D01*
X90650000Y-83675000D02*
X93650000Y-83675000D01*
X95050000Y-78975000D02*
X97250000Y-80025000D01*
X95234000Y-69216000D02*
X96171000Y-68279000D01*
X95940000Y-84125000D02*
X97250000Y-84725000D01*
X96171000Y-68279000D02*
X98918000Y-68279000D01*
X96171000Y-73071000D02*
X95150000Y-72050000D01*
X98818000Y-73071000D02*
X96171000Y-73071000D01*
X98918000Y-68279000D02*
X99321000Y-68359000D01*
X99321000Y-68359000D02*
X99663000Y-68588000D01*
X99380000Y-73176000D02*
X98818000Y-73071000D01*
X99663000Y-68588000D02*
X100196000Y-69121000D01*
X99859000Y-73475000D02*
X99380000Y-73176000D01*
X100196000Y-69121000D02*
X100196000Y-69343000D01*
X100196000Y-69343000D02*
X100283000Y-69781000D01*
X100197000Y-73928000D02*
X99859000Y-73475000D01*
X100283000Y-69781000D02*
X100527000Y-70148000D01*
X100351000Y-74486000D02*
X100197000Y-73928000D01*
X100433000Y-74784000D02*
X100351000Y-74486000D01*
X100527000Y-70148000D02*
X100894000Y-70392000D01*
X100550000Y-80025000D02*
X97250000Y-80025000D01*
X100626000Y-75042000D02*
X100433000Y-74784000D01*
X100894000Y-70392000D02*
X101332000Y-70479000D01*
X100900000Y-75212000D02*
X100626000Y-75042000D01*
X101210000Y-75271000D02*
X100900000Y-75212000D01*
X101332000Y-70479000D02*
X104132000Y-70479000D01*
X102850000Y-84725000D02*
X97250000Y-84725000D01*
X102850000Y-84725000D02*
X102850000Y-83825000D01*
X104132000Y-70479000D02*
X104459000Y-70544000D01*
X104459000Y-70544000D02*
X104742000Y-70733000D01*
X104742000Y-70733000D02*
X104931000Y-71016000D01*
X104931000Y-71016000D02*
X105016000Y-71443000D01*
X105296000Y-74329000D02*
X105296000Y-75271000D01*
X105296000Y-75271000D02*
X101210000Y-75271000D01*
%TO.C,SW4*%
X90650000Y-98025000D02*
X90650000Y-98975000D01*
X90650000Y-98025000D02*
X95050000Y-98025000D01*
X90650000Y-102725000D02*
X90650000Y-101775000D01*
X90650000Y-102725000D02*
X93650000Y-102725000D01*
X95050000Y-98025000D02*
X97250000Y-99075000D01*
X95234000Y-88266000D02*
X96171000Y-87329000D01*
X95940000Y-103175000D02*
X97250000Y-103775000D01*
X96171000Y-87329000D02*
X98918000Y-87329000D01*
X96171000Y-92121000D02*
X95150000Y-91100000D01*
X98818000Y-92121000D02*
X96171000Y-92121000D01*
X98918000Y-87329000D02*
X99321000Y-87409000D01*
X99321000Y-87409000D02*
X99663000Y-87638000D01*
X99380000Y-92226000D02*
X98818000Y-92121000D01*
X99663000Y-87638000D02*
X100196000Y-88171000D01*
X99859000Y-92525000D02*
X99380000Y-92226000D01*
X100196000Y-88171000D02*
X100196000Y-88393000D01*
X100196000Y-88393000D02*
X100283000Y-88831000D01*
X100197000Y-92978000D02*
X99859000Y-92525000D01*
X100283000Y-88831000D02*
X100527000Y-89198000D01*
X100351000Y-93536000D02*
X100197000Y-92978000D01*
X100433000Y-93834000D02*
X100351000Y-93536000D01*
X100527000Y-89198000D02*
X100894000Y-89442000D01*
X100550000Y-99075000D02*
X97250000Y-99075000D01*
X100626000Y-94092000D02*
X100433000Y-93834000D01*
X100894000Y-89442000D02*
X101332000Y-89529000D01*
X100900000Y-94262000D02*
X100626000Y-94092000D01*
X101210000Y-94321000D02*
X100900000Y-94262000D01*
X101332000Y-89529000D02*
X104132000Y-89529000D01*
X102850000Y-103775000D02*
X97250000Y-103775000D01*
X102850000Y-103775000D02*
X102850000Y-102875000D01*
X104132000Y-89529000D02*
X104459000Y-89594000D01*
X104459000Y-89594000D02*
X104742000Y-89783000D01*
X104742000Y-89783000D02*
X104931000Y-90066000D01*
X104931000Y-90066000D02*
X105016000Y-90493000D01*
X105296000Y-93379000D02*
X105296000Y-94321000D01*
X105296000Y-94321000D02*
X101210000Y-94321000D01*
D12*
%TO.C,D27*%
X188605600Y-49050000D02*
X188205600Y-49050000D01*
X188205600Y-49050000D02*
X188205600Y-49600000D01*
X188205600Y-49050000D02*
X188205600Y-48500000D01*
X188205600Y-49050000D02*
X187605600Y-48650000D01*
X187605600Y-49450000D02*
X188205600Y-49050000D01*
X187605600Y-49050000D02*
X187105600Y-49050000D01*
X187605600Y-48650000D02*
X187605600Y-49450000D01*
D11*
%TO.C,SW1*%
X90650000Y-40875000D02*
X90650000Y-41825000D01*
X90650000Y-40875000D02*
X95050000Y-40875000D01*
X90650000Y-45575000D02*
X90650000Y-44625000D01*
X90650000Y-45575000D02*
X93650000Y-45575000D01*
X95050000Y-40875000D02*
X97250000Y-41925000D01*
X95234000Y-31116000D02*
X96171000Y-30179000D01*
X95940000Y-46025000D02*
X97250000Y-46625000D01*
X96171000Y-30179000D02*
X98918000Y-30179000D01*
X96171000Y-34971000D02*
X95150000Y-33950000D01*
X98818000Y-34971000D02*
X96171000Y-34971000D01*
X98918000Y-30179000D02*
X99321000Y-30259000D01*
X99321000Y-30259000D02*
X99663000Y-30488000D01*
X99380000Y-35076000D02*
X98818000Y-34971000D01*
X99663000Y-30488000D02*
X100196000Y-31021000D01*
X99859000Y-35375000D02*
X99380000Y-35076000D01*
X100196000Y-31021000D02*
X100196000Y-31243000D01*
X100196000Y-31243000D02*
X100283000Y-31681000D01*
X100197000Y-35828000D02*
X99859000Y-35375000D01*
X100283000Y-31681000D02*
X100527000Y-32048000D01*
X100351000Y-36386000D02*
X100197000Y-35828000D01*
X100433000Y-36684000D02*
X100351000Y-36386000D01*
X100527000Y-32048000D02*
X100894000Y-32292000D01*
X100550000Y-41925000D02*
X97250000Y-41925000D01*
X100626000Y-36942000D02*
X100433000Y-36684000D01*
X100894000Y-32292000D02*
X101332000Y-32379000D01*
X100900000Y-37112000D02*
X100626000Y-36942000D01*
X101210000Y-37171000D02*
X100900000Y-37112000D01*
X101332000Y-32379000D02*
X104132000Y-32379000D01*
X102850000Y-46625000D02*
X97250000Y-46625000D01*
X102850000Y-46625000D02*
X102850000Y-45725000D01*
X104132000Y-32379000D02*
X104459000Y-32444000D01*
X104459000Y-32444000D02*
X104742000Y-32633000D01*
X104742000Y-32633000D02*
X104931000Y-32916000D01*
X104931000Y-32916000D02*
X105016000Y-33343000D01*
X105296000Y-36229000D02*
X105296000Y-37171000D01*
X105296000Y-37171000D02*
X101210000Y-37171000D01*
D12*
%TO.C,D7*%
X112405600Y-49050000D02*
X112005600Y-49050000D01*
X112005600Y-49050000D02*
X112005600Y-49600000D01*
X112005600Y-49050000D02*
X112005600Y-48500000D01*
X112005600Y-49050000D02*
X111405600Y-48650000D01*
X111405600Y-49450000D02*
X112005600Y-49050000D01*
X111405600Y-49050000D02*
X110905600Y-49050000D01*
X111405600Y-48650000D02*
X111405600Y-49450000D01*
D11*
%TO.C,SW8*%
X109700000Y-78975000D02*
X109700000Y-79925000D01*
X109700000Y-78975000D02*
X114100000Y-78975000D01*
X109700000Y-83675000D02*
X109700000Y-82725000D01*
X109700000Y-83675000D02*
X112700000Y-83675000D01*
X114100000Y-78975000D02*
X116300000Y-80025000D01*
X114284000Y-69216000D02*
X115221000Y-68279000D01*
X114990000Y-84125000D02*
X116300000Y-84725000D01*
X115221000Y-68279000D02*
X117968000Y-68279000D01*
X115221000Y-73071000D02*
X114200000Y-72050000D01*
X117868000Y-73071000D02*
X115221000Y-73071000D01*
X117968000Y-68279000D02*
X118371000Y-68359000D01*
X118371000Y-68359000D02*
X118713000Y-68588000D01*
X118430000Y-73176000D02*
X117868000Y-73071000D01*
X118713000Y-68588000D02*
X119246000Y-69121000D01*
X118909000Y-73475000D02*
X118430000Y-73176000D01*
X119246000Y-69121000D02*
X119246000Y-69343000D01*
X119246000Y-69343000D02*
X119333000Y-69781000D01*
X119247000Y-73928000D02*
X118909000Y-73475000D01*
X119333000Y-69781000D02*
X119577000Y-70148000D01*
X119401000Y-74486000D02*
X119247000Y-73928000D01*
X119483000Y-74784000D02*
X119401000Y-74486000D01*
X119577000Y-70148000D02*
X119944000Y-70392000D01*
X119600000Y-80025000D02*
X116300000Y-80025000D01*
X119676000Y-75042000D02*
X119483000Y-74784000D01*
X119944000Y-70392000D02*
X120382000Y-70479000D01*
X119950000Y-75212000D02*
X119676000Y-75042000D01*
X120260000Y-75271000D02*
X119950000Y-75212000D01*
X120382000Y-70479000D02*
X123182000Y-70479000D01*
X121900000Y-84725000D02*
X116300000Y-84725000D01*
X121900000Y-84725000D02*
X121900000Y-83825000D01*
X123182000Y-70479000D02*
X123509000Y-70544000D01*
X123509000Y-70544000D02*
X123792000Y-70733000D01*
X123792000Y-70733000D02*
X123981000Y-71016000D01*
X123981000Y-71016000D02*
X124066000Y-71443000D01*
X124346000Y-74329000D02*
X124346000Y-75271000D01*
X124346000Y-75271000D02*
X120260000Y-75271000D01*
%TO.C,SW5*%
X90650000Y-117075000D02*
X90650000Y-118025000D01*
X90650000Y-117075000D02*
X95050000Y-117075000D01*
X90650000Y-121775000D02*
X90650000Y-120825000D01*
X90650000Y-121775000D02*
X93650000Y-121775000D01*
X95050000Y-117075000D02*
X97250000Y-118125000D01*
X95234000Y-107316000D02*
X96171000Y-106379000D01*
X95940000Y-122225000D02*
X97250000Y-122825000D01*
X96171000Y-106379000D02*
X98918000Y-106379000D01*
X96171000Y-111171000D02*
X95150000Y-110150000D01*
X98818000Y-111171000D02*
X96171000Y-111171000D01*
X98918000Y-106379000D02*
X99321000Y-106459000D01*
X99321000Y-106459000D02*
X99663000Y-106688000D01*
X99380000Y-111276000D02*
X98818000Y-111171000D01*
X99663000Y-106688000D02*
X100196000Y-107221000D01*
X99859000Y-111575000D02*
X99380000Y-111276000D01*
X100196000Y-107221000D02*
X100196000Y-107443000D01*
X100196000Y-107443000D02*
X100283000Y-107881000D01*
X100197000Y-112028000D02*
X99859000Y-111575000D01*
X100283000Y-107881000D02*
X100527000Y-108248000D01*
X100351000Y-112586000D02*
X100197000Y-112028000D01*
X100433000Y-112884000D02*
X100351000Y-112586000D01*
X100527000Y-108248000D02*
X100894000Y-108492000D01*
X100550000Y-118125000D02*
X97250000Y-118125000D01*
X100626000Y-113142000D02*
X100433000Y-112884000D01*
X100894000Y-108492000D02*
X101332000Y-108579000D01*
X100900000Y-113312000D02*
X100626000Y-113142000D01*
X101210000Y-113371000D02*
X100900000Y-113312000D01*
X101332000Y-108579000D02*
X104132000Y-108579000D01*
X102850000Y-122825000D02*
X97250000Y-122825000D01*
X102850000Y-122825000D02*
X102850000Y-121925000D01*
X104132000Y-108579000D02*
X104459000Y-108644000D01*
X104459000Y-108644000D02*
X104742000Y-108833000D01*
X104742000Y-108833000D02*
X104931000Y-109116000D01*
X104931000Y-109116000D02*
X105016000Y-109543000D01*
X105296000Y-112429000D02*
X105296000Y-113371000D01*
X105296000Y-113371000D02*
X101210000Y-113371000D01*
%TO.C,SW11*%
X128750000Y-40875000D02*
X128750000Y-41825000D01*
X128750000Y-40875000D02*
X133150000Y-40875000D01*
X128750000Y-45575000D02*
X128750000Y-44625000D01*
X128750000Y-45575000D02*
X131750000Y-45575000D01*
X133150000Y-40875000D02*
X135350000Y-41925000D01*
X133334000Y-31116000D02*
X134271000Y-30179000D01*
X134040000Y-46025000D02*
X135350000Y-46625000D01*
X134271000Y-30179000D02*
X137018000Y-30179000D01*
X134271000Y-34971000D02*
X133250000Y-33950000D01*
X136918000Y-34971000D02*
X134271000Y-34971000D01*
X137018000Y-30179000D02*
X137421000Y-30259000D01*
X137421000Y-30259000D02*
X137763000Y-30488000D01*
X137480000Y-35076000D02*
X136918000Y-34971000D01*
X137763000Y-30488000D02*
X138296000Y-31021000D01*
X137959000Y-35375000D02*
X137480000Y-35076000D01*
X138296000Y-31021000D02*
X138296000Y-31243000D01*
X138296000Y-31243000D02*
X138383000Y-31681000D01*
X138297000Y-35828000D02*
X137959000Y-35375000D01*
X138383000Y-31681000D02*
X138627000Y-32048000D01*
X138451000Y-36386000D02*
X138297000Y-35828000D01*
X138533000Y-36684000D02*
X138451000Y-36386000D01*
X138627000Y-32048000D02*
X138994000Y-32292000D01*
X138650000Y-41925000D02*
X135350000Y-41925000D01*
X138726000Y-36942000D02*
X138533000Y-36684000D01*
X138994000Y-32292000D02*
X139432000Y-32379000D01*
X139000000Y-37112000D02*
X138726000Y-36942000D01*
X139310000Y-37171000D02*
X139000000Y-37112000D01*
X139432000Y-32379000D02*
X142232000Y-32379000D01*
X140950000Y-46625000D02*
X135350000Y-46625000D01*
X140950000Y-46625000D02*
X140950000Y-45725000D01*
X142232000Y-32379000D02*
X142559000Y-32444000D01*
X142559000Y-32444000D02*
X142842000Y-32633000D01*
X142842000Y-32633000D02*
X143031000Y-32916000D01*
X143031000Y-32916000D02*
X143116000Y-33343000D01*
X143396000Y-36229000D02*
X143396000Y-37171000D01*
X143396000Y-37171000D02*
X139310000Y-37171000D01*
D12*
%TO.C,D2*%
X93355600Y-49050000D02*
X92955600Y-49050000D01*
X92955600Y-49050000D02*
X92955600Y-49600000D01*
X92955600Y-49050000D02*
X92955600Y-48500000D01*
X92955600Y-49050000D02*
X92355600Y-48650000D01*
X92355600Y-49450000D02*
X92955600Y-49050000D01*
X92355600Y-49050000D02*
X91855600Y-49050000D01*
X92355600Y-48650000D02*
X92355600Y-49450000D01*
%TO.C,D30*%
X188605600Y-106200000D02*
X188205600Y-106200000D01*
X188205600Y-106200000D02*
X188205600Y-106750000D01*
X188205600Y-106200000D02*
X188205600Y-105650000D01*
X188205600Y-106200000D02*
X187605600Y-105800000D01*
X187605600Y-106600000D02*
X188205600Y-106200000D01*
X187605600Y-106200000D02*
X187105600Y-106200000D01*
X187605600Y-105800000D02*
X187605600Y-106600000D01*
D11*
%TO.C,SW30*%
X185900000Y-117075000D02*
X185900000Y-118025000D01*
X185900000Y-117075000D02*
X190300000Y-117075000D01*
X185900000Y-121775000D02*
X185900000Y-120825000D01*
X185900000Y-121775000D02*
X188900000Y-121775000D01*
X190300000Y-117075000D02*
X192500000Y-118125000D01*
X190484000Y-107316000D02*
X191421000Y-106379000D01*
X191190000Y-122225000D02*
X192500000Y-122825000D01*
X191421000Y-106379000D02*
X194168000Y-106379000D01*
X191421000Y-111171000D02*
X190400000Y-110150000D01*
X194068000Y-111171000D02*
X191421000Y-111171000D01*
X194168000Y-106379000D02*
X194571000Y-106459000D01*
X194571000Y-106459000D02*
X194913000Y-106688000D01*
X194630000Y-111276000D02*
X194068000Y-111171000D01*
X194913000Y-106688000D02*
X195446000Y-107221000D01*
X195109000Y-111575000D02*
X194630000Y-111276000D01*
X195446000Y-107221000D02*
X195446000Y-107443000D01*
X195446000Y-107443000D02*
X195533000Y-107881000D01*
X195447000Y-112028000D02*
X195109000Y-111575000D01*
X195533000Y-107881000D02*
X195777000Y-108248000D01*
X195601000Y-112586000D02*
X195447000Y-112028000D01*
X195683000Y-112884000D02*
X195601000Y-112586000D01*
X195777000Y-108248000D02*
X196144000Y-108492000D01*
X195800000Y-118125000D02*
X192500000Y-118125000D01*
X195876000Y-113142000D02*
X195683000Y-112884000D01*
X196144000Y-108492000D02*
X196582000Y-108579000D01*
X196150000Y-113312000D02*
X195876000Y-113142000D01*
X196460000Y-113371000D02*
X196150000Y-113312000D01*
X196582000Y-108579000D02*
X199382000Y-108579000D01*
X198100000Y-122825000D02*
X192500000Y-122825000D01*
X198100000Y-122825000D02*
X198100000Y-121925000D01*
X199382000Y-108579000D02*
X199709000Y-108644000D01*
X199709000Y-108644000D02*
X199992000Y-108833000D01*
X199992000Y-108833000D02*
X200181000Y-109116000D01*
X200181000Y-109116000D02*
X200266000Y-109543000D01*
X200546000Y-112429000D02*
X200546000Y-113371000D01*
X200546000Y-113371000D02*
X196460000Y-113371000D01*
D12*
%TO.C,D8*%
X112405600Y-68100000D02*
X112005600Y-68100000D01*
X112005600Y-68100000D02*
X112005600Y-68650000D01*
X112005600Y-68100000D02*
X112005600Y-67550000D01*
X112005600Y-68100000D02*
X111405600Y-67700000D01*
X111405600Y-68500000D02*
X112005600Y-68100000D01*
X111405600Y-68100000D02*
X110905600Y-68100000D01*
X111405600Y-67700000D02*
X111405600Y-68500000D01*
D11*
%TO.C,SW21*%
X166850000Y-40875000D02*
X166850000Y-41825000D01*
X166850000Y-40875000D02*
X171250000Y-40875000D01*
X166850000Y-45575000D02*
X166850000Y-44625000D01*
X166850000Y-45575000D02*
X169850000Y-45575000D01*
X171250000Y-40875000D02*
X173450000Y-41925000D01*
X171434000Y-31116000D02*
X172371000Y-30179000D01*
X172140000Y-46025000D02*
X173450000Y-46625000D01*
X172371000Y-30179000D02*
X175118000Y-30179000D01*
X172371000Y-34971000D02*
X171350000Y-33950000D01*
X175018000Y-34971000D02*
X172371000Y-34971000D01*
X175118000Y-30179000D02*
X175521000Y-30259000D01*
X175521000Y-30259000D02*
X175863000Y-30488000D01*
X175580000Y-35076000D02*
X175018000Y-34971000D01*
X175863000Y-30488000D02*
X176396000Y-31021000D01*
X176059000Y-35375000D02*
X175580000Y-35076000D01*
X176396000Y-31021000D02*
X176396000Y-31243000D01*
X176396000Y-31243000D02*
X176483000Y-31681000D01*
X176397000Y-35828000D02*
X176059000Y-35375000D01*
X176483000Y-31681000D02*
X176727000Y-32048000D01*
X176551000Y-36386000D02*
X176397000Y-35828000D01*
X176633000Y-36684000D02*
X176551000Y-36386000D01*
X176727000Y-32048000D02*
X177094000Y-32292000D01*
X176750000Y-41925000D02*
X173450000Y-41925000D01*
X176826000Y-36942000D02*
X176633000Y-36684000D01*
X177094000Y-32292000D02*
X177532000Y-32379000D01*
X177100000Y-37112000D02*
X176826000Y-36942000D01*
X177410000Y-37171000D02*
X177100000Y-37112000D01*
X177532000Y-32379000D02*
X180332000Y-32379000D01*
X179050000Y-46625000D02*
X173450000Y-46625000D01*
X179050000Y-46625000D02*
X179050000Y-45725000D01*
X180332000Y-32379000D02*
X180659000Y-32444000D01*
X180659000Y-32444000D02*
X180942000Y-32633000D01*
X180942000Y-32633000D02*
X181131000Y-32916000D01*
X181131000Y-32916000D02*
X181216000Y-33343000D01*
X181496000Y-36229000D02*
X181496000Y-37171000D01*
X181496000Y-37171000D02*
X177410000Y-37171000D01*
%TO.C,SW27*%
X185900000Y-59925000D02*
X185900000Y-60875000D01*
X185900000Y-59925000D02*
X190300000Y-59925000D01*
X185900000Y-64625000D02*
X185900000Y-63675000D01*
X185900000Y-64625000D02*
X188900000Y-64625000D01*
X190300000Y-59925000D02*
X192500000Y-60975000D01*
X190484000Y-50166000D02*
X191421000Y-49229000D01*
X191190000Y-65075000D02*
X192500000Y-65675000D01*
X191421000Y-49229000D02*
X194168000Y-49229000D01*
X191421000Y-54021000D02*
X190400000Y-53000000D01*
X194068000Y-54021000D02*
X191421000Y-54021000D01*
X194168000Y-49229000D02*
X194571000Y-49309000D01*
X194571000Y-49309000D02*
X194913000Y-49538000D01*
X194630000Y-54126000D02*
X194068000Y-54021000D01*
X194913000Y-49538000D02*
X195446000Y-50071000D01*
X195109000Y-54425000D02*
X194630000Y-54126000D01*
X195446000Y-50071000D02*
X195446000Y-50293000D01*
X195446000Y-50293000D02*
X195533000Y-50731000D01*
X195447000Y-54878000D02*
X195109000Y-54425000D01*
X195533000Y-50731000D02*
X195777000Y-51098000D01*
X195601000Y-55436000D02*
X195447000Y-54878000D01*
X195683000Y-55734000D02*
X195601000Y-55436000D01*
X195777000Y-51098000D02*
X196144000Y-51342000D01*
X195800000Y-60975000D02*
X192500000Y-60975000D01*
X195876000Y-55992000D02*
X195683000Y-55734000D01*
X196144000Y-51342000D02*
X196582000Y-51429000D01*
X196150000Y-56162000D02*
X195876000Y-55992000D01*
X196460000Y-56221000D02*
X196150000Y-56162000D01*
X196582000Y-51429000D02*
X199382000Y-51429000D01*
X198100000Y-65675000D02*
X192500000Y-65675000D01*
X198100000Y-65675000D02*
X198100000Y-64775000D01*
X199382000Y-51429000D02*
X199709000Y-51494000D01*
X199709000Y-51494000D02*
X199992000Y-51683000D01*
X199992000Y-51683000D02*
X200181000Y-51966000D01*
X200181000Y-51966000D02*
X200266000Y-52393000D01*
X200546000Y-55279000D02*
X200546000Y-56221000D01*
X200546000Y-56221000D02*
X196460000Y-56221000D01*
%TO.C,SW10*%
X109700000Y-117075000D02*
X109700000Y-118025000D01*
X109700000Y-117075000D02*
X114100000Y-117075000D01*
X109700000Y-121775000D02*
X109700000Y-120825000D01*
X109700000Y-121775000D02*
X112700000Y-121775000D01*
X114100000Y-117075000D02*
X116300000Y-118125000D01*
X114284000Y-107316000D02*
X115221000Y-106379000D01*
X114990000Y-122225000D02*
X116300000Y-122825000D01*
X115221000Y-106379000D02*
X117968000Y-106379000D01*
X115221000Y-111171000D02*
X114200000Y-110150000D01*
X117868000Y-111171000D02*
X115221000Y-111171000D01*
X117968000Y-106379000D02*
X118371000Y-106459000D01*
X118371000Y-106459000D02*
X118713000Y-106688000D01*
X118430000Y-111276000D02*
X117868000Y-111171000D01*
X118713000Y-106688000D02*
X119246000Y-107221000D01*
X118909000Y-111575000D02*
X118430000Y-111276000D01*
X119246000Y-107221000D02*
X119246000Y-107443000D01*
X119246000Y-107443000D02*
X119333000Y-107881000D01*
X119247000Y-112028000D02*
X118909000Y-111575000D01*
X119333000Y-107881000D02*
X119577000Y-108248000D01*
X119401000Y-112586000D02*
X119247000Y-112028000D01*
X119483000Y-112884000D02*
X119401000Y-112586000D01*
X119577000Y-108248000D02*
X119944000Y-108492000D01*
X119600000Y-118125000D02*
X116300000Y-118125000D01*
X119676000Y-113142000D02*
X119483000Y-112884000D01*
X119944000Y-108492000D02*
X120382000Y-108579000D01*
X119950000Y-113312000D02*
X119676000Y-113142000D01*
X120260000Y-113371000D02*
X119950000Y-113312000D01*
X120382000Y-108579000D02*
X123182000Y-108579000D01*
X121900000Y-122825000D02*
X116300000Y-122825000D01*
X121900000Y-122825000D02*
X121900000Y-121925000D01*
X123182000Y-108579000D02*
X123509000Y-108644000D01*
X123509000Y-108644000D02*
X123792000Y-108833000D01*
X123792000Y-108833000D02*
X123981000Y-109116000D01*
X123981000Y-109116000D02*
X124066000Y-109543000D01*
X124346000Y-112429000D02*
X124346000Y-113371000D01*
X124346000Y-113371000D02*
X120260000Y-113371000D01*
%TO.C,SW26*%
X185900000Y-40875000D02*
X185900000Y-41825000D01*
X185900000Y-40875000D02*
X190300000Y-40875000D01*
X185900000Y-45575000D02*
X185900000Y-44625000D01*
X185900000Y-45575000D02*
X188900000Y-45575000D01*
X190300000Y-40875000D02*
X192500000Y-41925000D01*
X190484000Y-31116000D02*
X191421000Y-30179000D01*
X191190000Y-46025000D02*
X192500000Y-46625000D01*
X191421000Y-30179000D02*
X194168000Y-30179000D01*
X191421000Y-34971000D02*
X190400000Y-33950000D01*
X194068000Y-34971000D02*
X191421000Y-34971000D01*
X194168000Y-30179000D02*
X194571000Y-30259000D01*
X194571000Y-30259000D02*
X194913000Y-30488000D01*
X194630000Y-35076000D02*
X194068000Y-34971000D01*
X194913000Y-30488000D02*
X195446000Y-31021000D01*
X195109000Y-35375000D02*
X194630000Y-35076000D01*
X195446000Y-31021000D02*
X195446000Y-31243000D01*
X195446000Y-31243000D02*
X195533000Y-31681000D01*
X195447000Y-35828000D02*
X195109000Y-35375000D01*
X195533000Y-31681000D02*
X195777000Y-32048000D01*
X195601000Y-36386000D02*
X195447000Y-35828000D01*
X195683000Y-36684000D02*
X195601000Y-36386000D01*
X195777000Y-32048000D02*
X196144000Y-32292000D01*
X195800000Y-41925000D02*
X192500000Y-41925000D01*
X195876000Y-36942000D02*
X195683000Y-36684000D01*
X196144000Y-32292000D02*
X196582000Y-32379000D01*
X196150000Y-37112000D02*
X195876000Y-36942000D01*
X196460000Y-37171000D02*
X196150000Y-37112000D01*
X196582000Y-32379000D02*
X199382000Y-32379000D01*
X198100000Y-46625000D02*
X192500000Y-46625000D01*
X198100000Y-46625000D02*
X198100000Y-45725000D01*
X199382000Y-32379000D02*
X199709000Y-32444000D01*
X199709000Y-32444000D02*
X199992000Y-32633000D01*
X199992000Y-32633000D02*
X200181000Y-32916000D01*
X200181000Y-32916000D02*
X200266000Y-33343000D01*
X200546000Y-36229000D02*
X200546000Y-37171000D01*
X200546000Y-37171000D02*
X196460000Y-37171000D01*
D12*
%TO.C,D23*%
X169685600Y-68100000D02*
X169285600Y-68100000D01*
X169285600Y-68100000D02*
X169285600Y-68650000D01*
X169285600Y-68100000D02*
X169285600Y-67550000D01*
X169285600Y-68100000D02*
X168685600Y-67700000D01*
X168685600Y-68500000D02*
X169285600Y-68100000D01*
X168685600Y-68100000D02*
X168185600Y-68100000D01*
X168685600Y-67700000D02*
X168685600Y-68500000D01*
D11*
%TO.C,SW28*%
X185900000Y-78975000D02*
X185900000Y-79925000D01*
X185900000Y-78975000D02*
X190300000Y-78975000D01*
X185900000Y-83675000D02*
X185900000Y-82725000D01*
X185900000Y-83675000D02*
X188900000Y-83675000D01*
X190300000Y-78975000D02*
X192500000Y-80025000D01*
X190484000Y-69216000D02*
X191421000Y-68279000D01*
X191190000Y-84125000D02*
X192500000Y-84725000D01*
X191421000Y-68279000D02*
X194168000Y-68279000D01*
X191421000Y-73071000D02*
X190400000Y-72050000D01*
X194068000Y-73071000D02*
X191421000Y-73071000D01*
X194168000Y-68279000D02*
X194571000Y-68359000D01*
X194571000Y-68359000D02*
X194913000Y-68588000D01*
X194630000Y-73176000D02*
X194068000Y-73071000D01*
X194913000Y-68588000D02*
X195446000Y-69121000D01*
X195109000Y-73475000D02*
X194630000Y-73176000D01*
X195446000Y-69121000D02*
X195446000Y-69343000D01*
X195446000Y-69343000D02*
X195533000Y-69781000D01*
X195447000Y-73928000D02*
X195109000Y-73475000D01*
X195533000Y-69781000D02*
X195777000Y-70148000D01*
X195601000Y-74486000D02*
X195447000Y-73928000D01*
X195683000Y-74784000D02*
X195601000Y-74486000D01*
X195777000Y-70148000D02*
X196144000Y-70392000D01*
X195800000Y-80025000D02*
X192500000Y-80025000D01*
X195876000Y-75042000D02*
X195683000Y-74784000D01*
X196144000Y-70392000D02*
X196582000Y-70479000D01*
X196150000Y-75212000D02*
X195876000Y-75042000D01*
X196460000Y-75271000D02*
X196150000Y-75212000D01*
X196582000Y-70479000D02*
X199382000Y-70479000D01*
X198100000Y-84725000D02*
X192500000Y-84725000D01*
X198100000Y-84725000D02*
X198100000Y-83825000D01*
X199382000Y-70479000D02*
X199709000Y-70544000D01*
X199709000Y-70544000D02*
X199992000Y-70733000D01*
X199992000Y-70733000D02*
X200181000Y-71016000D01*
X200181000Y-71016000D02*
X200266000Y-71443000D01*
X200546000Y-74329000D02*
X200546000Y-75271000D01*
X200546000Y-75271000D02*
X196460000Y-75271000D01*
D12*
%TO.C,D14*%
X131455600Y-87150000D02*
X131055600Y-87150000D01*
X131055600Y-87150000D02*
X131055600Y-87700000D01*
X131055600Y-87150000D02*
X131055600Y-86600000D01*
X131055600Y-87150000D02*
X130455600Y-86750000D01*
X130455600Y-87550000D02*
X131055600Y-87150000D01*
X130455600Y-87150000D02*
X129955600Y-87150000D01*
X130455600Y-86750000D02*
X130455600Y-87550000D01*
%TO.C,D31*%
X73676600Y-108125000D02*
X73276600Y-108125000D01*
X73276600Y-108125000D02*
X73276600Y-108675000D01*
X73276600Y-108125000D02*
X73276600Y-107575000D01*
X73276600Y-108125000D02*
X72676600Y-107725000D01*
X72676600Y-108525000D02*
X73276600Y-108125000D01*
X72676600Y-108125000D02*
X72176600Y-108125000D01*
X72676600Y-107725000D02*
X72676600Y-108525000D01*
D11*
%TO.C,SW22*%
X166850000Y-59925000D02*
X166850000Y-60875000D01*
X166850000Y-59925000D02*
X171250000Y-59925000D01*
X166850000Y-64625000D02*
X166850000Y-63675000D01*
X166850000Y-64625000D02*
X169850000Y-64625000D01*
X171250000Y-59925000D02*
X173450000Y-60975000D01*
X171434000Y-50166000D02*
X172371000Y-49229000D01*
X172140000Y-65075000D02*
X173450000Y-65675000D01*
X172371000Y-49229000D02*
X175118000Y-49229000D01*
X172371000Y-54021000D02*
X171350000Y-53000000D01*
X175018000Y-54021000D02*
X172371000Y-54021000D01*
X175118000Y-49229000D02*
X175521000Y-49309000D01*
X175521000Y-49309000D02*
X175863000Y-49538000D01*
X175580000Y-54126000D02*
X175018000Y-54021000D01*
X175863000Y-49538000D02*
X176396000Y-50071000D01*
X176059000Y-54425000D02*
X175580000Y-54126000D01*
X176396000Y-50071000D02*
X176396000Y-50293000D01*
X176396000Y-50293000D02*
X176483000Y-50731000D01*
X176397000Y-54878000D02*
X176059000Y-54425000D01*
X176483000Y-50731000D02*
X176727000Y-51098000D01*
X176551000Y-55436000D02*
X176397000Y-54878000D01*
X176633000Y-55734000D02*
X176551000Y-55436000D01*
X176727000Y-51098000D02*
X177094000Y-51342000D01*
X176750000Y-60975000D02*
X173450000Y-60975000D01*
X176826000Y-55992000D02*
X176633000Y-55734000D01*
X177094000Y-51342000D02*
X177532000Y-51429000D01*
X177100000Y-56162000D02*
X176826000Y-55992000D01*
X177410000Y-56221000D02*
X177100000Y-56162000D01*
X177532000Y-51429000D02*
X180332000Y-51429000D01*
X179050000Y-65675000D02*
X173450000Y-65675000D01*
X179050000Y-65675000D02*
X179050000Y-64775000D01*
X180332000Y-51429000D02*
X180659000Y-51494000D01*
X180659000Y-51494000D02*
X180942000Y-51683000D01*
X180942000Y-51683000D02*
X181131000Y-51966000D01*
X181131000Y-51966000D02*
X181216000Y-52393000D01*
X181496000Y-55279000D02*
X181496000Y-56221000D01*
X181496000Y-56221000D02*
X177410000Y-56221000D01*
D12*
%TO.C,D4*%
X93355600Y-87150000D02*
X92955600Y-87150000D01*
X92955600Y-87150000D02*
X92955600Y-87700000D01*
X92955600Y-87150000D02*
X92955600Y-86600000D01*
X92955600Y-87150000D02*
X92355600Y-86750000D01*
X92355600Y-87550000D02*
X92955600Y-87150000D01*
X92355600Y-87150000D02*
X91855600Y-87150000D01*
X92355600Y-86750000D02*
X92355600Y-87550000D01*
%TO.C,D17*%
X150505600Y-49050000D02*
X150105600Y-49050000D01*
X150105600Y-49050000D02*
X150105600Y-49600000D01*
X150105600Y-49050000D02*
X150105600Y-48500000D01*
X150105600Y-49050000D02*
X149505600Y-48650000D01*
X149505600Y-49450000D02*
X150105600Y-49050000D01*
X149505600Y-49050000D02*
X149005600Y-49050000D01*
X149505600Y-48650000D02*
X149505600Y-49450000D01*
%TO.C,D13*%
X131455600Y-68100000D02*
X131055600Y-68100000D01*
X131055600Y-68100000D02*
X131055600Y-68650000D01*
X131055600Y-68100000D02*
X131055600Y-67550000D01*
X131055600Y-68100000D02*
X130455600Y-67700000D01*
X130455600Y-68500000D02*
X131055600Y-68100000D01*
X130455600Y-68100000D02*
X129955600Y-68100000D01*
X130455600Y-67700000D02*
X130455600Y-68500000D01*
%TO.C,D12*%
X131455600Y-49050000D02*
X131055600Y-49050000D01*
X131055600Y-49050000D02*
X131055600Y-49600000D01*
X131055600Y-49050000D02*
X131055600Y-48500000D01*
X131055600Y-49050000D02*
X130455600Y-48650000D01*
X130455600Y-49450000D02*
X131055600Y-49050000D01*
X130455600Y-49050000D02*
X129955600Y-49050000D01*
X130455600Y-48650000D02*
X130455600Y-49450000D01*
D11*
%TO.C,SW31*%
X55418000Y-103593000D02*
X56018000Y-103593000D01*
X55718000Y-103293000D02*
X55418000Y-103593000D01*
X56018000Y-103593000D02*
X55718000Y-103293000D01*
X57118000Y-105393000D02*
X57118000Y-93593000D01*
X61218000Y-93593000D02*
X57118000Y-93593000D01*
X61218000Y-105393000D02*
X57118000Y-105393000D01*
X63218000Y-98993000D02*
X63218000Y-99993000D01*
X63718000Y-99493000D02*
X62718000Y-99493000D01*
X65218000Y-105393000D02*
X69318000Y-105393000D01*
X69318000Y-93593000D02*
X65218000Y-93593000D01*
X69318000Y-95993000D02*
X69318000Y-93593000D01*
X69318000Y-100793000D02*
X69318000Y-98193000D01*
X69318000Y-105393000D02*
X69318000Y-102993000D01*
X66218000Y-99493000D02*
G75*
G03*
X66218000Y-99493000I-3000000J0D01*
G01*
%TO.C,SW16*%
X147800000Y-40875000D02*
X147800000Y-41825000D01*
X147800000Y-40875000D02*
X152200000Y-40875000D01*
X147800000Y-45575000D02*
X147800000Y-44625000D01*
X147800000Y-45575000D02*
X150800000Y-45575000D01*
X152200000Y-40875000D02*
X154400000Y-41925000D01*
X152384000Y-31116000D02*
X153321000Y-30179000D01*
X153090000Y-46025000D02*
X154400000Y-46625000D01*
X153321000Y-30179000D02*
X156068000Y-30179000D01*
X153321000Y-34971000D02*
X152300000Y-33950000D01*
X155968000Y-34971000D02*
X153321000Y-34971000D01*
X156068000Y-30179000D02*
X156471000Y-30259000D01*
X156471000Y-30259000D02*
X156813000Y-30488000D01*
X156530000Y-35076000D02*
X155968000Y-34971000D01*
X156813000Y-30488000D02*
X157346000Y-31021000D01*
X157009000Y-35375000D02*
X156530000Y-35076000D01*
X157346000Y-31021000D02*
X157346000Y-31243000D01*
X157346000Y-31243000D02*
X157433000Y-31681000D01*
X157347000Y-35828000D02*
X157009000Y-35375000D01*
X157433000Y-31681000D02*
X157677000Y-32048000D01*
X157501000Y-36386000D02*
X157347000Y-35828000D01*
X157583000Y-36684000D02*
X157501000Y-36386000D01*
X157677000Y-32048000D02*
X158044000Y-32292000D01*
X157700000Y-41925000D02*
X154400000Y-41925000D01*
X157776000Y-36942000D02*
X157583000Y-36684000D01*
X158044000Y-32292000D02*
X158482000Y-32379000D01*
X158050000Y-37112000D02*
X157776000Y-36942000D01*
X158360000Y-37171000D02*
X158050000Y-37112000D01*
X158482000Y-32379000D02*
X161282000Y-32379000D01*
X160000000Y-46625000D02*
X154400000Y-46625000D01*
X160000000Y-46625000D02*
X160000000Y-45725000D01*
X161282000Y-32379000D02*
X161609000Y-32444000D01*
X161609000Y-32444000D02*
X161892000Y-32633000D01*
X161892000Y-32633000D02*
X162081000Y-32916000D01*
X162081000Y-32916000D02*
X162166000Y-33343000D01*
X162446000Y-36229000D02*
X162446000Y-37171000D01*
X162446000Y-37171000D02*
X158360000Y-37171000D01*
%TO.C,R1*%
X48291000Y-83343000D02*
X49241000Y-83343000D01*
X49241000Y-82423000D02*
X53081000Y-82423000D01*
X49241000Y-84263000D02*
X49241000Y-82423000D01*
X53081000Y-82423000D02*
X53081000Y-84263000D01*
X53081000Y-84263000D02*
X49241000Y-84263000D01*
X54031000Y-83343000D02*
X53081000Y-83343000D01*
%TO.C,SW15*%
X128750000Y-117075000D02*
X128750000Y-118025000D01*
X128750000Y-117075000D02*
X133150000Y-117075000D01*
X128750000Y-121775000D02*
X128750000Y-120825000D01*
X128750000Y-121775000D02*
X131750000Y-121775000D01*
X133150000Y-117075000D02*
X135350000Y-118125000D01*
X133334000Y-107316000D02*
X134271000Y-106379000D01*
X134040000Y-122225000D02*
X135350000Y-122825000D01*
X134271000Y-106379000D02*
X137018000Y-106379000D01*
X134271000Y-111171000D02*
X133250000Y-110150000D01*
X136918000Y-111171000D02*
X134271000Y-111171000D01*
X137018000Y-106379000D02*
X137421000Y-106459000D01*
X137421000Y-106459000D02*
X137763000Y-106688000D01*
X137480000Y-111276000D02*
X136918000Y-111171000D01*
X137763000Y-106688000D02*
X138296000Y-107221000D01*
X137959000Y-111575000D02*
X137480000Y-111276000D01*
X138296000Y-107221000D02*
X138296000Y-107443000D01*
X138296000Y-107443000D02*
X138383000Y-107881000D01*
X138297000Y-112028000D02*
X137959000Y-111575000D01*
X138383000Y-107881000D02*
X138627000Y-108248000D01*
X138451000Y-112586000D02*
X138297000Y-112028000D01*
X138533000Y-112884000D02*
X138451000Y-112586000D01*
X138627000Y-108248000D02*
X138994000Y-108492000D01*
X138650000Y-118125000D02*
X135350000Y-118125000D01*
X138726000Y-113142000D02*
X138533000Y-112884000D01*
X138994000Y-108492000D02*
X139432000Y-108579000D01*
X139000000Y-113312000D02*
X138726000Y-113142000D01*
X139310000Y-113371000D02*
X139000000Y-113312000D01*
X139432000Y-108579000D02*
X142232000Y-108579000D01*
X140950000Y-122825000D02*
X135350000Y-122825000D01*
X140950000Y-122825000D02*
X140950000Y-121925000D01*
X142232000Y-108579000D02*
X142559000Y-108644000D01*
X142559000Y-108644000D02*
X142842000Y-108833000D01*
X142842000Y-108833000D02*
X143031000Y-109116000D01*
X143031000Y-109116000D02*
X143116000Y-109543000D01*
X143396000Y-112429000D02*
X143396000Y-113371000D01*
X143396000Y-113371000D02*
X139310000Y-113371000D01*
%TO.C,SW14*%
X128750000Y-98025000D02*
X128750000Y-98975000D01*
X128750000Y-98025000D02*
X133150000Y-98025000D01*
X128750000Y-102725000D02*
X128750000Y-101775000D01*
X128750000Y-102725000D02*
X131750000Y-102725000D01*
X133150000Y-98025000D02*
X135350000Y-99075000D01*
X133334000Y-88266000D02*
X134271000Y-87329000D01*
X134040000Y-103175000D02*
X135350000Y-103775000D01*
X134271000Y-87329000D02*
X137018000Y-87329000D01*
X134271000Y-92121000D02*
X133250000Y-91100000D01*
X136918000Y-92121000D02*
X134271000Y-92121000D01*
X137018000Y-87329000D02*
X137421000Y-87409000D01*
X137421000Y-87409000D02*
X137763000Y-87638000D01*
X137480000Y-92226000D02*
X136918000Y-92121000D01*
X137763000Y-87638000D02*
X138296000Y-88171000D01*
X137959000Y-92525000D02*
X137480000Y-92226000D01*
X138296000Y-88171000D02*
X138296000Y-88393000D01*
X138296000Y-88393000D02*
X138383000Y-88831000D01*
X138297000Y-92978000D02*
X137959000Y-92525000D01*
X138383000Y-88831000D02*
X138627000Y-89198000D01*
X138451000Y-93536000D02*
X138297000Y-92978000D01*
X138533000Y-93834000D02*
X138451000Y-93536000D01*
X138627000Y-89198000D02*
X138994000Y-89442000D01*
X138650000Y-99075000D02*
X135350000Y-99075000D01*
X138726000Y-94092000D02*
X138533000Y-93834000D01*
X138994000Y-89442000D02*
X139432000Y-89529000D01*
X139000000Y-94262000D02*
X138726000Y-94092000D01*
X139310000Y-94321000D02*
X139000000Y-94262000D01*
X139432000Y-89529000D02*
X142232000Y-89529000D01*
X140950000Y-103775000D02*
X135350000Y-103775000D01*
X140950000Y-103775000D02*
X140950000Y-102875000D01*
X142232000Y-89529000D02*
X142559000Y-89594000D01*
X142559000Y-89594000D02*
X142842000Y-89783000D01*
X142842000Y-89783000D02*
X143031000Y-90066000D01*
X143031000Y-90066000D02*
X143116000Y-90493000D01*
X143396000Y-93379000D02*
X143396000Y-94321000D01*
X143396000Y-94321000D02*
X139310000Y-94321000D01*
D12*
%TO.C,D19*%
X150505600Y-87150000D02*
X150105600Y-87150000D01*
X150105600Y-87150000D02*
X150105600Y-87700000D01*
X150105600Y-87150000D02*
X150105600Y-86600000D01*
X150105600Y-87150000D02*
X149505600Y-86750000D01*
X149505600Y-87550000D02*
X150105600Y-87150000D01*
X149505600Y-87150000D02*
X149005600Y-87150000D01*
X149505600Y-86750000D02*
X149505600Y-87550000D01*
%TO.C,D21*%
X169555600Y-30000000D02*
X169155600Y-30000000D01*
X169155600Y-30000000D02*
X169155600Y-30550000D01*
X169155600Y-30000000D02*
X169155600Y-29450000D01*
X169155600Y-30000000D02*
X168555600Y-29600000D01*
X168555600Y-30400000D02*
X169155600Y-30000000D01*
X168555600Y-30000000D02*
X168055600Y-30000000D01*
X168555600Y-29600000D02*
X168555600Y-30400000D01*
D11*
%TO.C,SW20*%
X147800000Y-117075000D02*
X147800000Y-118025000D01*
X147800000Y-117075000D02*
X152200000Y-117075000D01*
X147800000Y-121775000D02*
X147800000Y-120825000D01*
X147800000Y-121775000D02*
X150800000Y-121775000D01*
X152200000Y-117075000D02*
X154400000Y-118125000D01*
X152384000Y-107316000D02*
X153321000Y-106379000D01*
X153090000Y-122225000D02*
X154400000Y-122825000D01*
X153321000Y-106379000D02*
X156068000Y-106379000D01*
X153321000Y-111171000D02*
X152300000Y-110150000D01*
X155968000Y-111171000D02*
X153321000Y-111171000D01*
X156068000Y-106379000D02*
X156471000Y-106459000D01*
X156471000Y-106459000D02*
X156813000Y-106688000D01*
X156530000Y-111276000D02*
X155968000Y-111171000D01*
X156813000Y-106688000D02*
X157346000Y-107221000D01*
X157009000Y-111575000D02*
X156530000Y-111276000D01*
X157346000Y-107221000D02*
X157346000Y-107443000D01*
X157346000Y-107443000D02*
X157433000Y-107881000D01*
X157347000Y-112028000D02*
X157009000Y-111575000D01*
X157433000Y-107881000D02*
X157677000Y-108248000D01*
X157501000Y-112586000D02*
X157347000Y-112028000D01*
X157583000Y-112884000D02*
X157501000Y-112586000D01*
X157677000Y-108248000D02*
X158044000Y-108492000D01*
X157700000Y-118125000D02*
X154400000Y-118125000D01*
X157776000Y-113142000D02*
X157583000Y-112884000D01*
X158044000Y-108492000D02*
X158482000Y-108579000D01*
X158050000Y-113312000D02*
X157776000Y-113142000D01*
X158360000Y-113371000D02*
X158050000Y-113312000D01*
X158482000Y-108579000D02*
X161282000Y-108579000D01*
X160000000Y-122825000D02*
X154400000Y-122825000D01*
X160000000Y-122825000D02*
X160000000Y-121925000D01*
X161282000Y-108579000D02*
X161609000Y-108644000D01*
X161609000Y-108644000D02*
X161892000Y-108833000D01*
X161892000Y-108833000D02*
X162081000Y-109116000D01*
X162081000Y-109116000D02*
X162166000Y-109543000D01*
X162446000Y-112429000D02*
X162446000Y-113371000D01*
X162446000Y-113371000D02*
X158360000Y-113371000D01*
D10*
%TO.C,RST1*%
X47751000Y-29228000D02*
X47751000Y-29478000D01*
X47751000Y-32428000D02*
X47751000Y-32178000D01*
X53451000Y-29228000D02*
X47751000Y-29228000D01*
X53451000Y-29228000D02*
X53451000Y-29478000D01*
X53451000Y-32428000D02*
X47751000Y-32428000D01*
X53451000Y-32428000D02*
X53451000Y-32178000D01*
D11*
%TO.C,SW17*%
X147800000Y-59925000D02*
X147800000Y-60875000D01*
X147800000Y-59925000D02*
X152200000Y-59925000D01*
X147800000Y-64625000D02*
X147800000Y-63675000D01*
X147800000Y-64625000D02*
X150800000Y-64625000D01*
X152200000Y-59925000D02*
X154400000Y-60975000D01*
X152384000Y-50166000D02*
X153321000Y-49229000D01*
X153090000Y-65075000D02*
X154400000Y-65675000D01*
X153321000Y-49229000D02*
X156068000Y-49229000D01*
X153321000Y-54021000D02*
X152300000Y-53000000D01*
X155968000Y-54021000D02*
X153321000Y-54021000D01*
X156068000Y-49229000D02*
X156471000Y-49309000D01*
X156471000Y-49309000D02*
X156813000Y-49538000D01*
X156530000Y-54126000D02*
X155968000Y-54021000D01*
X156813000Y-49538000D02*
X157346000Y-50071000D01*
X157009000Y-54425000D02*
X156530000Y-54126000D01*
X157346000Y-50071000D02*
X157346000Y-50293000D01*
X157346000Y-50293000D02*
X157433000Y-50731000D01*
X157347000Y-54878000D02*
X157009000Y-54425000D01*
X157433000Y-50731000D02*
X157677000Y-51098000D01*
X157501000Y-55436000D02*
X157347000Y-54878000D01*
X157583000Y-55734000D02*
X157501000Y-55436000D01*
X157677000Y-51098000D02*
X158044000Y-51342000D01*
X157700000Y-60975000D02*
X154400000Y-60975000D01*
X157776000Y-55992000D02*
X157583000Y-55734000D01*
X158044000Y-51342000D02*
X158482000Y-51429000D01*
X158050000Y-56162000D02*
X157776000Y-55992000D01*
X158360000Y-56221000D02*
X158050000Y-56162000D01*
X158482000Y-51429000D02*
X161282000Y-51429000D01*
X160000000Y-65675000D02*
X154400000Y-65675000D01*
X160000000Y-65675000D02*
X160000000Y-64775000D01*
X161282000Y-51429000D02*
X161609000Y-51494000D01*
X161609000Y-51494000D02*
X161892000Y-51683000D01*
X161892000Y-51683000D02*
X162081000Y-51966000D01*
X162081000Y-51966000D02*
X162166000Y-52393000D01*
X162446000Y-55279000D02*
X162446000Y-56221000D01*
X162446000Y-56221000D02*
X158360000Y-56221000D01*
D12*
%TO.C,D3*%
X93355600Y-68100000D02*
X92955600Y-68100000D01*
X92955600Y-68100000D02*
X92955600Y-68650000D01*
X92955600Y-68100000D02*
X92955600Y-67550000D01*
X92955600Y-68100000D02*
X92355600Y-67700000D01*
X92355600Y-68500000D02*
X92955600Y-68100000D01*
X92355600Y-68100000D02*
X91855600Y-68100000D01*
X92355600Y-67700000D02*
X92355600Y-68500000D01*
D11*
%TO.C,SW6*%
X109700000Y-40875000D02*
X109700000Y-41825000D01*
X109700000Y-40875000D02*
X114100000Y-40875000D01*
X109700000Y-45575000D02*
X109700000Y-44625000D01*
X109700000Y-45575000D02*
X112700000Y-45575000D01*
X114100000Y-40875000D02*
X116300000Y-41925000D01*
X114284000Y-31116000D02*
X115221000Y-30179000D01*
X114990000Y-46025000D02*
X116300000Y-46625000D01*
X115221000Y-30179000D02*
X117968000Y-30179000D01*
X115221000Y-34971000D02*
X114200000Y-33950000D01*
X117868000Y-34971000D02*
X115221000Y-34971000D01*
X117968000Y-30179000D02*
X118371000Y-30259000D01*
X118371000Y-30259000D02*
X118713000Y-30488000D01*
X118430000Y-35076000D02*
X117868000Y-34971000D01*
X118713000Y-30488000D02*
X119246000Y-31021000D01*
X118909000Y-35375000D02*
X118430000Y-35076000D01*
X119246000Y-31021000D02*
X119246000Y-31243000D01*
X119246000Y-31243000D02*
X119333000Y-31681000D01*
X119247000Y-35828000D02*
X118909000Y-35375000D01*
X119333000Y-31681000D02*
X119577000Y-32048000D01*
X119401000Y-36386000D02*
X119247000Y-35828000D01*
X119483000Y-36684000D02*
X119401000Y-36386000D01*
X119577000Y-32048000D02*
X119944000Y-32292000D01*
X119600000Y-41925000D02*
X116300000Y-41925000D01*
X119676000Y-36942000D02*
X119483000Y-36684000D01*
X119944000Y-32292000D02*
X120382000Y-32379000D01*
X119950000Y-37112000D02*
X119676000Y-36942000D01*
X120260000Y-37171000D02*
X119950000Y-37112000D01*
X120382000Y-32379000D02*
X123182000Y-32379000D01*
X121900000Y-46625000D02*
X116300000Y-46625000D01*
X121900000Y-46625000D02*
X121900000Y-45725000D01*
X123182000Y-32379000D02*
X123509000Y-32444000D01*
X123509000Y-32444000D02*
X123792000Y-32633000D01*
X123792000Y-32633000D02*
X123981000Y-32916000D01*
X123981000Y-32916000D02*
X124066000Y-33343000D01*
X124346000Y-36229000D02*
X124346000Y-37171000D01*
X124346000Y-37171000D02*
X120260000Y-37171000D01*
%TO.C,SW13*%
X128750000Y-78975000D02*
X128750000Y-79925000D01*
X128750000Y-78975000D02*
X133150000Y-78975000D01*
X128750000Y-83675000D02*
X128750000Y-82725000D01*
X128750000Y-83675000D02*
X131750000Y-83675000D01*
X133150000Y-78975000D02*
X135350000Y-80025000D01*
X133334000Y-69216000D02*
X134271000Y-68279000D01*
X134040000Y-84125000D02*
X135350000Y-84725000D01*
X134271000Y-68279000D02*
X137018000Y-68279000D01*
X134271000Y-73071000D02*
X133250000Y-72050000D01*
X136918000Y-73071000D02*
X134271000Y-73071000D01*
X137018000Y-68279000D02*
X137421000Y-68359000D01*
X137421000Y-68359000D02*
X137763000Y-68588000D01*
X137480000Y-73176000D02*
X136918000Y-73071000D01*
X137763000Y-68588000D02*
X138296000Y-69121000D01*
X137959000Y-73475000D02*
X137480000Y-73176000D01*
X138296000Y-69121000D02*
X138296000Y-69343000D01*
X138296000Y-69343000D02*
X138383000Y-69781000D01*
X138297000Y-73928000D02*
X137959000Y-73475000D01*
X138383000Y-69781000D02*
X138627000Y-70148000D01*
X138451000Y-74486000D02*
X138297000Y-73928000D01*
X138533000Y-74784000D02*
X138451000Y-74486000D01*
X138627000Y-70148000D02*
X138994000Y-70392000D01*
X138650000Y-80025000D02*
X135350000Y-80025000D01*
X138726000Y-75042000D02*
X138533000Y-74784000D01*
X138994000Y-70392000D02*
X139432000Y-70479000D01*
X139000000Y-75212000D02*
X138726000Y-75042000D01*
X139310000Y-75271000D02*
X139000000Y-75212000D01*
X139432000Y-70479000D02*
X142232000Y-70479000D01*
X140950000Y-84725000D02*
X135350000Y-84725000D01*
X140950000Y-84725000D02*
X140950000Y-83825000D01*
X142232000Y-70479000D02*
X142559000Y-70544000D01*
X142559000Y-70544000D02*
X142842000Y-70733000D01*
X142842000Y-70733000D02*
X143031000Y-71016000D01*
X143031000Y-71016000D02*
X143116000Y-71443000D01*
X143396000Y-74329000D02*
X143396000Y-75271000D01*
X143396000Y-75271000D02*
X139310000Y-75271000D01*
D12*
%TO.C,D18*%
X150505600Y-68100000D02*
X150105600Y-68100000D01*
X150105600Y-68100000D02*
X150105600Y-68650000D01*
X150105600Y-68100000D02*
X150105600Y-67550000D01*
X150105600Y-68100000D02*
X149505600Y-67700000D01*
X149505600Y-68500000D02*
X150105600Y-68100000D01*
X149505600Y-68100000D02*
X149005600Y-68100000D01*
X149505600Y-67700000D02*
X149505600Y-68500000D01*
D11*
%TO.C,SW24*%
X166850000Y-98025000D02*
X166850000Y-98975000D01*
X166850000Y-98025000D02*
X171250000Y-98025000D01*
X166850000Y-102725000D02*
X166850000Y-101775000D01*
X166850000Y-102725000D02*
X169850000Y-102725000D01*
X171250000Y-98025000D02*
X173450000Y-99075000D01*
X171434000Y-88266000D02*
X172371000Y-87329000D01*
X172140000Y-103175000D02*
X173450000Y-103775000D01*
X172371000Y-87329000D02*
X175118000Y-87329000D01*
X172371000Y-92121000D02*
X171350000Y-91100000D01*
X175018000Y-92121000D02*
X172371000Y-92121000D01*
X175118000Y-87329000D02*
X175521000Y-87409000D01*
X175521000Y-87409000D02*
X175863000Y-87638000D01*
X175580000Y-92226000D02*
X175018000Y-92121000D01*
X175863000Y-87638000D02*
X176396000Y-88171000D01*
X176059000Y-92525000D02*
X175580000Y-92226000D01*
X176396000Y-88171000D02*
X176396000Y-88393000D01*
X176396000Y-88393000D02*
X176483000Y-88831000D01*
X176397000Y-92978000D02*
X176059000Y-92525000D01*
X176483000Y-88831000D02*
X176727000Y-89198000D01*
X176551000Y-93536000D02*
X176397000Y-92978000D01*
X176633000Y-93834000D02*
X176551000Y-93536000D01*
X176727000Y-89198000D02*
X177094000Y-89442000D01*
X176750000Y-99075000D02*
X173450000Y-99075000D01*
X176826000Y-94092000D02*
X176633000Y-93834000D01*
X177094000Y-89442000D02*
X177532000Y-89529000D01*
X177100000Y-94262000D02*
X176826000Y-94092000D01*
X177410000Y-94321000D02*
X177100000Y-94262000D01*
X177532000Y-89529000D02*
X180332000Y-89529000D01*
X179050000Y-103775000D02*
X173450000Y-103775000D01*
X179050000Y-103775000D02*
X179050000Y-102875000D01*
X180332000Y-89529000D02*
X180659000Y-89594000D01*
X180659000Y-89594000D02*
X180942000Y-89783000D01*
X180942000Y-89783000D02*
X181131000Y-90066000D01*
X181131000Y-90066000D02*
X181216000Y-90493000D01*
X181496000Y-93379000D02*
X181496000Y-94321000D01*
X181496000Y-94321000D02*
X177410000Y-94321000D01*
%TO.C,SW18*%
X147800000Y-78975000D02*
X147800000Y-79925000D01*
X147800000Y-78975000D02*
X152200000Y-78975000D01*
X147800000Y-83675000D02*
X147800000Y-82725000D01*
X147800000Y-83675000D02*
X150800000Y-83675000D01*
X152200000Y-78975000D02*
X154400000Y-80025000D01*
X152384000Y-69216000D02*
X153321000Y-68279000D01*
X153090000Y-84125000D02*
X154400000Y-84725000D01*
X153321000Y-68279000D02*
X156068000Y-68279000D01*
X153321000Y-73071000D02*
X152300000Y-72050000D01*
X155968000Y-73071000D02*
X153321000Y-73071000D01*
X156068000Y-68279000D02*
X156471000Y-68359000D01*
X156471000Y-68359000D02*
X156813000Y-68588000D01*
X156530000Y-73176000D02*
X155968000Y-73071000D01*
X156813000Y-68588000D02*
X157346000Y-69121000D01*
X157009000Y-73475000D02*
X156530000Y-73176000D01*
X157346000Y-69121000D02*
X157346000Y-69343000D01*
X157346000Y-69343000D02*
X157433000Y-69781000D01*
X157347000Y-73928000D02*
X157009000Y-73475000D01*
X157433000Y-69781000D02*
X157677000Y-70148000D01*
X157501000Y-74486000D02*
X157347000Y-73928000D01*
X157583000Y-74784000D02*
X157501000Y-74486000D01*
X157677000Y-70148000D02*
X158044000Y-70392000D01*
X157700000Y-80025000D02*
X154400000Y-80025000D01*
X157776000Y-75042000D02*
X157583000Y-74784000D01*
X158044000Y-70392000D02*
X158482000Y-70479000D01*
X158050000Y-75212000D02*
X157776000Y-75042000D01*
X158360000Y-75271000D02*
X158050000Y-75212000D01*
X158482000Y-70479000D02*
X161282000Y-70479000D01*
X160000000Y-84725000D02*
X154400000Y-84725000D01*
X160000000Y-84725000D02*
X160000000Y-83825000D01*
X161282000Y-70479000D02*
X161609000Y-70544000D01*
X161609000Y-70544000D02*
X161892000Y-70733000D01*
X161892000Y-70733000D02*
X162081000Y-71016000D01*
X162081000Y-71016000D02*
X162166000Y-71443000D01*
X162446000Y-74329000D02*
X162446000Y-75271000D01*
X162446000Y-75271000D02*
X158360000Y-75271000D01*
D12*
%TO.C,D9*%
X112405600Y-87150000D02*
X112005600Y-87150000D01*
X112005600Y-87150000D02*
X112005600Y-87700000D01*
X112005600Y-87150000D02*
X112005600Y-86600000D01*
X112005600Y-87150000D02*
X111405600Y-86750000D01*
X111405600Y-87550000D02*
X112005600Y-87150000D01*
X111405600Y-87150000D02*
X110905600Y-87150000D01*
X111405600Y-86750000D02*
X111405600Y-87550000D01*
D11*
%TO.C,SW12*%
X128750000Y-59925000D02*
X128750000Y-60875000D01*
X128750000Y-59925000D02*
X133150000Y-59925000D01*
X128750000Y-64625000D02*
X128750000Y-63675000D01*
X128750000Y-64625000D02*
X131750000Y-64625000D01*
X133150000Y-59925000D02*
X135350000Y-60975000D01*
X133334000Y-50166000D02*
X134271000Y-49229000D01*
X134040000Y-65075000D02*
X135350000Y-65675000D01*
X134271000Y-49229000D02*
X137018000Y-49229000D01*
X134271000Y-54021000D02*
X133250000Y-53000000D01*
X136918000Y-54021000D02*
X134271000Y-54021000D01*
X137018000Y-49229000D02*
X137421000Y-49309000D01*
X137421000Y-49309000D02*
X137763000Y-49538000D01*
X137480000Y-54126000D02*
X136918000Y-54021000D01*
X137763000Y-49538000D02*
X138296000Y-50071000D01*
X137959000Y-54425000D02*
X137480000Y-54126000D01*
X138296000Y-50071000D02*
X138296000Y-50293000D01*
X138296000Y-50293000D02*
X138383000Y-50731000D01*
X138297000Y-54878000D02*
X137959000Y-54425000D01*
X138383000Y-50731000D02*
X138627000Y-51098000D01*
X138451000Y-55436000D02*
X138297000Y-54878000D01*
X138533000Y-55734000D02*
X138451000Y-55436000D01*
X138627000Y-51098000D02*
X138994000Y-51342000D01*
X138650000Y-60975000D02*
X135350000Y-60975000D01*
X138726000Y-55992000D02*
X138533000Y-55734000D01*
X138994000Y-51342000D02*
X139432000Y-51429000D01*
X139000000Y-56162000D02*
X138726000Y-55992000D01*
X139310000Y-56221000D02*
X139000000Y-56162000D01*
X139432000Y-51429000D02*
X142232000Y-51429000D01*
X140950000Y-65675000D02*
X135350000Y-65675000D01*
X140950000Y-65675000D02*
X140950000Y-64775000D01*
X142232000Y-51429000D02*
X142559000Y-51494000D01*
X142559000Y-51494000D02*
X142842000Y-51683000D01*
X142842000Y-51683000D02*
X143031000Y-51966000D01*
X143031000Y-51966000D02*
X143116000Y-52393000D01*
X143396000Y-55279000D02*
X143396000Y-56221000D01*
X143396000Y-56221000D02*
X139310000Y-56221000D01*
D12*
%TO.C,D10*%
X112405600Y-106200000D02*
X112005600Y-106200000D01*
X112005600Y-106200000D02*
X112005600Y-106750000D01*
X112005600Y-106200000D02*
X112005600Y-105650000D01*
X112005600Y-106200000D02*
X111405600Y-105800000D01*
X111405600Y-106600000D02*
X112005600Y-106200000D01*
X111405600Y-106200000D02*
X110905600Y-106200000D01*
X111405600Y-105800000D02*
X111405600Y-106600000D01*
%TO.C,D11*%
X131455600Y-30000000D02*
X131055600Y-30000000D01*
X131055600Y-30000000D02*
X131055600Y-30550000D01*
X131055600Y-30000000D02*
X131055600Y-29450000D01*
X131055600Y-30000000D02*
X130455600Y-29600000D01*
X130455600Y-30400000D02*
X131055600Y-30000000D01*
X130455600Y-30000000D02*
X129955600Y-30000000D01*
X130455600Y-29600000D02*
X130455600Y-30400000D01*
%TO.C,D29*%
X188605600Y-87150000D02*
X188205600Y-87150000D01*
X188205600Y-87150000D02*
X188205600Y-87700000D01*
X188205600Y-87150000D02*
X188205600Y-86600000D01*
X188205600Y-87150000D02*
X187605600Y-86750000D01*
X187605600Y-87550000D02*
X188205600Y-87150000D01*
X187605600Y-87150000D02*
X187105600Y-87150000D01*
X187605600Y-86750000D02*
X187605600Y-87550000D01*
D11*
%TO.C,SW7*%
X109700000Y-59925000D02*
X109700000Y-60875000D01*
X109700000Y-59925000D02*
X114100000Y-59925000D01*
X109700000Y-64625000D02*
X109700000Y-63675000D01*
X109700000Y-64625000D02*
X112700000Y-64625000D01*
X114100000Y-59925000D02*
X116300000Y-60975000D01*
X114284000Y-50166000D02*
X115221000Y-49229000D01*
X114990000Y-65075000D02*
X116300000Y-65675000D01*
X115221000Y-49229000D02*
X117968000Y-49229000D01*
X115221000Y-54021000D02*
X114200000Y-53000000D01*
X117868000Y-54021000D02*
X115221000Y-54021000D01*
X117968000Y-49229000D02*
X118371000Y-49309000D01*
X118371000Y-49309000D02*
X118713000Y-49538000D01*
X118430000Y-54126000D02*
X117868000Y-54021000D01*
X118713000Y-49538000D02*
X119246000Y-50071000D01*
X118909000Y-54425000D02*
X118430000Y-54126000D01*
X119246000Y-50071000D02*
X119246000Y-50293000D01*
X119246000Y-50293000D02*
X119333000Y-50731000D01*
X119247000Y-54878000D02*
X118909000Y-54425000D01*
X119333000Y-50731000D02*
X119577000Y-51098000D01*
X119401000Y-55436000D02*
X119247000Y-54878000D01*
X119483000Y-55734000D02*
X119401000Y-55436000D01*
X119577000Y-51098000D02*
X119944000Y-51342000D01*
X119600000Y-60975000D02*
X116300000Y-60975000D01*
X119676000Y-55992000D02*
X119483000Y-55734000D01*
X119944000Y-51342000D02*
X120382000Y-51429000D01*
X119950000Y-56162000D02*
X119676000Y-55992000D01*
X120260000Y-56221000D02*
X119950000Y-56162000D01*
X120382000Y-51429000D02*
X123182000Y-51429000D01*
X121900000Y-65675000D02*
X116300000Y-65675000D01*
X121900000Y-65675000D02*
X121900000Y-64775000D01*
X123182000Y-51429000D02*
X123509000Y-51494000D01*
X123509000Y-51494000D02*
X123792000Y-51683000D01*
X123792000Y-51683000D02*
X123981000Y-51966000D01*
X123981000Y-51966000D02*
X124066000Y-52393000D01*
X124346000Y-55279000D02*
X124346000Y-56221000D01*
X124346000Y-56221000D02*
X120260000Y-56221000D01*
D12*
%TO.C,D5*%
X93355600Y-106200000D02*
X92955600Y-106200000D01*
X92955600Y-106200000D02*
X92955600Y-106750000D01*
X92955600Y-106200000D02*
X92955600Y-105650000D01*
X92955600Y-106200000D02*
X92355600Y-105800000D01*
X92355600Y-106600000D02*
X92955600Y-106200000D01*
X92355600Y-106200000D02*
X91855600Y-106200000D01*
X92355600Y-105800000D02*
X92355600Y-106600000D01*
D11*
%TO.C,R2*%
X48291000Y-80803000D02*
X49241000Y-80803000D01*
X49241000Y-79883000D02*
X53081000Y-79883000D01*
X49241000Y-81723000D02*
X49241000Y-79883000D01*
X53081000Y-79883000D02*
X53081000Y-81723000D01*
X53081000Y-81723000D02*
X49241000Y-81723000D01*
X54031000Y-80803000D02*
X53081000Y-80803000D01*
D12*
%TO.C,D26*%
X188605600Y-30000000D02*
X188205600Y-30000000D01*
X188205600Y-30000000D02*
X188205600Y-30550000D01*
X188205600Y-30000000D02*
X188205600Y-29450000D01*
X188205600Y-30000000D02*
X187605600Y-29600000D01*
X187605600Y-30400000D02*
X188205600Y-30000000D01*
X187605600Y-30000000D02*
X187105600Y-30000000D01*
X187605600Y-29600000D02*
X187605600Y-30400000D01*
D11*
%TO.C,SW25*%
X166850000Y-117075000D02*
X166850000Y-118025000D01*
X166850000Y-117075000D02*
X171250000Y-117075000D01*
X166850000Y-121775000D02*
X166850000Y-120825000D01*
X166850000Y-121775000D02*
X169850000Y-121775000D01*
X171250000Y-117075000D02*
X173450000Y-118125000D01*
X171434000Y-107316000D02*
X172371000Y-106379000D01*
X172140000Y-122225000D02*
X173450000Y-122825000D01*
X172371000Y-106379000D02*
X175118000Y-106379000D01*
X172371000Y-111171000D02*
X171350000Y-110150000D01*
X175018000Y-111171000D02*
X172371000Y-111171000D01*
X175118000Y-106379000D02*
X175521000Y-106459000D01*
X175521000Y-106459000D02*
X175863000Y-106688000D01*
X175580000Y-111276000D02*
X175018000Y-111171000D01*
X175863000Y-106688000D02*
X176396000Y-107221000D01*
X176059000Y-111575000D02*
X175580000Y-111276000D01*
X176396000Y-107221000D02*
X176396000Y-107443000D01*
X176396000Y-107443000D02*
X176483000Y-107881000D01*
X176397000Y-112028000D02*
X176059000Y-111575000D01*
X176483000Y-107881000D02*
X176727000Y-108248000D01*
X176551000Y-112586000D02*
X176397000Y-112028000D01*
X176633000Y-112884000D02*
X176551000Y-112586000D01*
X176727000Y-108248000D02*
X177094000Y-108492000D01*
X176750000Y-118125000D02*
X173450000Y-118125000D01*
X176826000Y-113142000D02*
X176633000Y-112884000D01*
X177094000Y-108492000D02*
X177532000Y-108579000D01*
X177100000Y-113312000D02*
X176826000Y-113142000D01*
X177410000Y-113371000D02*
X177100000Y-113312000D01*
X177532000Y-108579000D02*
X180332000Y-108579000D01*
X179050000Y-122825000D02*
X173450000Y-122825000D01*
X179050000Y-122825000D02*
X179050000Y-121925000D01*
X180332000Y-108579000D02*
X180659000Y-108644000D01*
X180659000Y-108644000D02*
X180942000Y-108833000D01*
X180942000Y-108833000D02*
X181131000Y-109116000D01*
X181131000Y-109116000D02*
X181216000Y-109543000D01*
X181496000Y-112429000D02*
X181496000Y-113371000D01*
X181496000Y-113371000D02*
X177410000Y-113371000D01*
D12*
%TO.C,D6*%
X112405600Y-30000000D02*
X112005600Y-30000000D01*
X112005600Y-30000000D02*
X112005600Y-30550000D01*
X112005600Y-30000000D02*
X112005600Y-29450000D01*
X112005600Y-30000000D02*
X111405600Y-29600000D01*
X111405600Y-30400000D02*
X112005600Y-30000000D01*
X111405600Y-30000000D02*
X110905600Y-30000000D01*
X111405600Y-29600000D02*
X111405600Y-30400000D01*
D11*
%TO.C,SW2*%
X90650000Y-59925000D02*
X90650000Y-60875000D01*
X90650000Y-59925000D02*
X95050000Y-59925000D01*
X90650000Y-64625000D02*
X90650000Y-63675000D01*
X90650000Y-64625000D02*
X93650000Y-64625000D01*
X95050000Y-59925000D02*
X97250000Y-60975000D01*
X95234000Y-50166000D02*
X96171000Y-49229000D01*
X95940000Y-65075000D02*
X97250000Y-65675000D01*
X96171000Y-49229000D02*
X98918000Y-49229000D01*
X96171000Y-54021000D02*
X95150000Y-53000000D01*
X98818000Y-54021000D02*
X96171000Y-54021000D01*
X98918000Y-49229000D02*
X99321000Y-49309000D01*
X99321000Y-49309000D02*
X99663000Y-49538000D01*
X99380000Y-54126000D02*
X98818000Y-54021000D01*
X99663000Y-49538000D02*
X100196000Y-50071000D01*
X99859000Y-54425000D02*
X99380000Y-54126000D01*
X100196000Y-50071000D02*
X100196000Y-50293000D01*
X100196000Y-50293000D02*
X100283000Y-50731000D01*
X100197000Y-54878000D02*
X99859000Y-54425000D01*
X100283000Y-50731000D02*
X100527000Y-51098000D01*
X100351000Y-55436000D02*
X100197000Y-54878000D01*
X100433000Y-55734000D02*
X100351000Y-55436000D01*
X100527000Y-51098000D02*
X100894000Y-51342000D01*
X100550000Y-60975000D02*
X97250000Y-60975000D01*
X100626000Y-55992000D02*
X100433000Y-55734000D01*
X100894000Y-51342000D02*
X101332000Y-51429000D01*
X100900000Y-56162000D02*
X100626000Y-55992000D01*
X101210000Y-56221000D02*
X100900000Y-56162000D01*
X101332000Y-51429000D02*
X104132000Y-51429000D01*
X102850000Y-65675000D02*
X97250000Y-65675000D01*
X102850000Y-65675000D02*
X102850000Y-64775000D01*
X104132000Y-51429000D02*
X104459000Y-51494000D01*
X104459000Y-51494000D02*
X104742000Y-51683000D01*
X104742000Y-51683000D02*
X104931000Y-51966000D01*
X104931000Y-51966000D02*
X105016000Y-52393000D01*
X105296000Y-55279000D02*
X105296000Y-56221000D01*
X105296000Y-56221000D02*
X101210000Y-56221000D01*
D12*
%TO.C,D28*%
X188605600Y-68100000D02*
X188205600Y-68100000D01*
X188205600Y-68100000D02*
X188205600Y-68650000D01*
X188205600Y-68100000D02*
X188205600Y-67550000D01*
X188205600Y-68100000D02*
X187605600Y-67700000D01*
X187605600Y-68500000D02*
X188205600Y-68100000D01*
X187605600Y-68100000D02*
X187105600Y-68100000D01*
X187605600Y-67700000D02*
X187605600Y-68500000D01*
D11*
%TO.C,SW29*%
X185900000Y-98025000D02*
X185900000Y-98975000D01*
X185900000Y-98025000D02*
X190300000Y-98025000D01*
X185900000Y-102725000D02*
X185900000Y-101775000D01*
X185900000Y-102725000D02*
X188900000Y-102725000D01*
X190300000Y-98025000D02*
X192500000Y-99075000D01*
X190484000Y-88266000D02*
X191421000Y-87329000D01*
X191190000Y-103175000D02*
X192500000Y-103775000D01*
X191421000Y-87329000D02*
X194168000Y-87329000D01*
X191421000Y-92121000D02*
X190400000Y-91100000D01*
X194068000Y-92121000D02*
X191421000Y-92121000D01*
X194168000Y-87329000D02*
X194571000Y-87409000D01*
X194571000Y-87409000D02*
X194913000Y-87638000D01*
X194630000Y-92226000D02*
X194068000Y-92121000D01*
X194913000Y-87638000D02*
X195446000Y-88171000D01*
X195109000Y-92525000D02*
X194630000Y-92226000D01*
X195446000Y-88171000D02*
X195446000Y-88393000D01*
X195446000Y-88393000D02*
X195533000Y-88831000D01*
X195447000Y-92978000D02*
X195109000Y-92525000D01*
X195533000Y-88831000D02*
X195777000Y-89198000D01*
X195601000Y-93536000D02*
X195447000Y-92978000D01*
X195683000Y-93834000D02*
X195601000Y-93536000D01*
X195777000Y-89198000D02*
X196144000Y-89442000D01*
X195800000Y-99075000D02*
X192500000Y-99075000D01*
X195876000Y-94092000D02*
X195683000Y-93834000D01*
X196144000Y-89442000D02*
X196582000Y-89529000D01*
X196150000Y-94262000D02*
X195876000Y-94092000D01*
X196460000Y-94321000D02*
X196150000Y-94262000D01*
X196582000Y-89529000D02*
X199382000Y-89529000D01*
X198100000Y-103775000D02*
X192500000Y-103775000D01*
X198100000Y-103775000D02*
X198100000Y-102875000D01*
X199382000Y-89529000D02*
X199709000Y-89594000D01*
X199709000Y-89594000D02*
X199992000Y-89783000D01*
X199992000Y-89783000D02*
X200181000Y-90066000D01*
X200181000Y-90066000D02*
X200266000Y-90493000D01*
X200546000Y-93379000D02*
X200546000Y-94321000D01*
X200546000Y-94321000D02*
X196460000Y-94321000D01*
%TO.C,SW9*%
X109700000Y-98025000D02*
X109700000Y-98975000D01*
X109700000Y-98025000D02*
X114100000Y-98025000D01*
X109700000Y-102725000D02*
X109700000Y-101775000D01*
X109700000Y-102725000D02*
X112700000Y-102725000D01*
X114100000Y-98025000D02*
X116300000Y-99075000D01*
X114284000Y-88266000D02*
X115221000Y-87329000D01*
X114990000Y-103175000D02*
X116300000Y-103775000D01*
X115221000Y-87329000D02*
X117968000Y-87329000D01*
X115221000Y-92121000D02*
X114200000Y-91100000D01*
X117868000Y-92121000D02*
X115221000Y-92121000D01*
X117968000Y-87329000D02*
X118371000Y-87409000D01*
X118371000Y-87409000D02*
X118713000Y-87638000D01*
X118430000Y-92226000D02*
X117868000Y-92121000D01*
X118713000Y-87638000D02*
X119246000Y-88171000D01*
X118909000Y-92525000D02*
X118430000Y-92226000D01*
X119246000Y-88171000D02*
X119246000Y-88393000D01*
X119246000Y-88393000D02*
X119333000Y-88831000D01*
X119247000Y-92978000D02*
X118909000Y-92525000D01*
X119333000Y-88831000D02*
X119577000Y-89198000D01*
X119401000Y-93536000D02*
X119247000Y-92978000D01*
X119483000Y-93834000D02*
X119401000Y-93536000D01*
X119577000Y-89198000D02*
X119944000Y-89442000D01*
X119600000Y-99075000D02*
X116300000Y-99075000D01*
X119676000Y-94092000D02*
X119483000Y-93834000D01*
X119944000Y-89442000D02*
X120382000Y-89529000D01*
X119950000Y-94262000D02*
X119676000Y-94092000D01*
X120260000Y-94321000D02*
X119950000Y-94262000D01*
X120382000Y-89529000D02*
X123182000Y-89529000D01*
X121900000Y-103775000D02*
X116300000Y-103775000D01*
X121900000Y-103775000D02*
X121900000Y-102875000D01*
X123182000Y-89529000D02*
X123509000Y-89594000D01*
X123509000Y-89594000D02*
X123792000Y-89783000D01*
X123792000Y-89783000D02*
X123981000Y-90066000D01*
X123981000Y-90066000D02*
X124066000Y-90493000D01*
X124346000Y-93379000D02*
X124346000Y-94321000D01*
X124346000Y-94321000D02*
X120260000Y-94321000D01*
D12*
%TO.C,D15*%
X131455600Y-106200000D02*
X131055600Y-106200000D01*
X131055600Y-106200000D02*
X131055600Y-106750000D01*
X131055600Y-106200000D02*
X131055600Y-105650000D01*
X131055600Y-106200000D02*
X130455600Y-105800000D01*
X130455600Y-106600000D02*
X131055600Y-106200000D01*
X130455600Y-106200000D02*
X129955600Y-106200000D01*
X130455600Y-105800000D02*
X130455600Y-106600000D01*
%TO.C,D25*%
X169555600Y-106200000D02*
X169155600Y-106200000D01*
X169155600Y-106200000D02*
X169155600Y-106750000D01*
X169155600Y-106200000D02*
X169155600Y-105650000D01*
X169155600Y-106200000D02*
X168555600Y-105800000D01*
X168555600Y-106600000D02*
X169155600Y-106200000D01*
X168555600Y-106200000D02*
X168055600Y-106200000D01*
X168555600Y-105800000D02*
X168555600Y-106600000D01*
D11*
%TO.C,SW23*%
X166850000Y-78975000D02*
X166850000Y-79925000D01*
X166850000Y-78975000D02*
X171250000Y-78975000D01*
X166850000Y-83675000D02*
X166850000Y-82725000D01*
X166850000Y-83675000D02*
X169850000Y-83675000D01*
X171250000Y-78975000D02*
X173450000Y-80025000D01*
X171434000Y-69216000D02*
X172371000Y-68279000D01*
X172140000Y-84125000D02*
X173450000Y-84725000D01*
X172371000Y-68279000D02*
X175118000Y-68279000D01*
X172371000Y-73071000D02*
X171350000Y-72050000D01*
X175018000Y-73071000D02*
X172371000Y-73071000D01*
X175118000Y-68279000D02*
X175521000Y-68359000D01*
X175521000Y-68359000D02*
X175863000Y-68588000D01*
X175580000Y-73176000D02*
X175018000Y-73071000D01*
X175863000Y-68588000D02*
X176396000Y-69121000D01*
X176059000Y-73475000D02*
X175580000Y-73176000D01*
X176396000Y-69121000D02*
X176396000Y-69343000D01*
X176396000Y-69343000D02*
X176483000Y-69781000D01*
X176397000Y-73928000D02*
X176059000Y-73475000D01*
X176483000Y-69781000D02*
X176727000Y-70148000D01*
X176551000Y-74486000D02*
X176397000Y-73928000D01*
X176633000Y-74784000D02*
X176551000Y-74486000D01*
X176727000Y-70148000D02*
X177094000Y-70392000D01*
X176750000Y-80025000D02*
X173450000Y-80025000D01*
X176826000Y-75042000D02*
X176633000Y-74784000D01*
X177094000Y-70392000D02*
X177532000Y-70479000D01*
X177100000Y-75212000D02*
X176826000Y-75042000D01*
X177410000Y-75271000D02*
X177100000Y-75212000D01*
X177532000Y-70479000D02*
X180332000Y-70479000D01*
X179050000Y-84725000D02*
X173450000Y-84725000D01*
X179050000Y-84725000D02*
X179050000Y-83825000D01*
X180332000Y-70479000D02*
X180659000Y-70544000D01*
X180659000Y-70544000D02*
X180942000Y-70733000D01*
X180942000Y-70733000D02*
X181131000Y-71016000D01*
X181131000Y-71016000D02*
X181216000Y-71443000D01*
X181496000Y-74329000D02*
X181496000Y-75271000D01*
X181496000Y-75271000D02*
X177410000Y-75271000D01*
%TO.C,JP9*%
X66727500Y-87443000D02*
X67327500Y-87443000D01*
X68027500Y-86743000D02*
X68027500Y-85343000D01*
X66027500Y-85343000D02*
X66027500Y-86743000D01*
X67327500Y-84643000D02*
X66727500Y-84643000D01*
X66027500Y-86743000D02*
G75*
G03*
X66727500Y-87443000I699999J-1D01*
G01*
X67327500Y-87443000D02*
G75*
G03*
X68027500Y-86743000I1J699999D01*
G01*
X66727500Y-84643000D02*
G75*
G03*
X66027500Y-85343000I0J-700000D01*
G01*
X68027500Y-85343000D02*
G75*
G03*
X67327500Y-84643000I-700000J0D01*
G01*
%TO.C,JP12*%
X59107500Y-87443000D02*
X59707500Y-87443000D01*
X60407500Y-86743000D02*
X60407500Y-85343000D01*
X58407500Y-85343000D02*
X58407500Y-86743000D01*
X59707500Y-84643000D02*
X59107500Y-84643000D01*
X58407500Y-86743000D02*
G75*
G03*
X59107500Y-87443000I699999J-1D01*
G01*
X59707500Y-87443000D02*
G75*
G03*
X60407500Y-86743000I1J699999D01*
G01*
X59107500Y-84643000D02*
G75*
G03*
X58407500Y-85343000I0J-700000D01*
G01*
X60407500Y-85343000D02*
G75*
G03*
X59707500Y-84643000I-700000J0D01*
G01*
%TO.C,JP3*%
X75944000Y-46250000D02*
X77944000Y-46250000D01*
X77944000Y-46250000D02*
X77944000Y-43450000D01*
X75944000Y-43450000D02*
X75944000Y-46250000D01*
X77944000Y-43450000D02*
X75944000Y-43450000D01*
%TO.C,JP11*%
X61647500Y-87443000D02*
X62247500Y-87443000D01*
X62947500Y-86743000D02*
X62947500Y-85343000D01*
X60947500Y-85343000D02*
X60947500Y-86743000D01*
X62247500Y-84643000D02*
X61647500Y-84643000D01*
X60947500Y-86743000D02*
G75*
G03*
X61647500Y-87443000I699999J-1D01*
G01*
X62247500Y-87443000D02*
G75*
G03*
X62947500Y-86743000I1J699999D01*
G01*
X61647500Y-84643000D02*
G75*
G03*
X60947500Y-85343000I0J-700000D01*
G01*
X62947500Y-85343000D02*
G75*
G03*
X62247500Y-84643000I-700000J0D01*
G01*
%TO.C,JP10*%
X64187500Y-87443000D02*
X64787500Y-87443000D01*
X65487500Y-86743000D02*
X65487500Y-85343000D01*
X63487500Y-85343000D02*
X63487500Y-86743000D01*
X64787500Y-84643000D02*
X64187500Y-84643000D01*
X63487500Y-86743000D02*
G75*
G03*
X64187500Y-87443000I699999J-1D01*
G01*
X64787500Y-87443000D02*
G75*
G03*
X65487500Y-86743000I1J699999D01*
G01*
X64187500Y-84643000D02*
G75*
G03*
X63487500Y-85343000I0J-700000D01*
G01*
X65487500Y-85343000D02*
G75*
G03*
X64787500Y-84643000I-700000J0D01*
G01*
%TO.C,JP4*%
X78484000Y-46250000D02*
X80484000Y-46250000D01*
X80484000Y-46250000D02*
X80484000Y-43450000D01*
X78484000Y-43450000D02*
X78484000Y-46250000D01*
X80484000Y-43450000D02*
X78484000Y-43450000D01*
%TO.C,J3*%
X67868000Y-114593000D02*
X58568000Y-114593000D01*
X67868000Y-112853000D02*
X67868000Y-114593000D01*
X67868000Y-108793000D02*
X67868000Y-110133000D01*
X66378000Y-108793000D02*
X67868000Y-108793000D01*
X66378000Y-108793000D02*
X66378000Y-107593000D01*
X60058000Y-108793000D02*
X58568000Y-108793000D01*
X58568000Y-114593000D02*
X58568000Y-112853000D01*
X58568000Y-108793000D02*
X58568000Y-110133000D01*
%TO.C,U1*%
X38611000Y-39719500D02*
X71631000Y-39719500D01*
X38611000Y-39719500D02*
X38611000Y-42259500D01*
X71631000Y-42259500D02*
X71631000Y-39719500D01*
X38611000Y-42259500D02*
X71631000Y-42259500D01*
X38611000Y-54959500D02*
X71631000Y-54959500D01*
X38611000Y-54959500D02*
X38611000Y-57499500D01*
X71631000Y-57499500D02*
X71631000Y-54959500D01*
X38611000Y-57499500D02*
X71631000Y-57499500D01*
%TD*%
M02*
