M48
; DRILL file {KiCad 7.0.5} date Wed Sep 25 00:12:00 2024
; FORMAT={-:-/ absolute / metric / decimal}
; #@! TF.CreationDate,2024-09-25T00:12:00+08:00
; #@! TF.GenerationSoftware,Kicad,Pcbnew,7.0.5
; #@! TF.FileFunction,Plated,1,2,PTH
FMAT,2
METRIC
; #@! TA.AperFunction,Plated,PTH,ViaDrill
T1C0.400
; #@! TA.AperFunction,Plated,PTH,ComponentDrill
T2C0.700
; #@! TA.AperFunction,Plated,PTH,ComponentDrill
T3C0.900
; #@! TA.AperFunction,Plated,PTH,ComponentDrill
T4C1.000
; #@! TA.AperFunction,Plated,PTH,ComponentDrill
T5C1.092
; #@! TA.AperFunction,Plated,PTH,ComponentDrill
T6C1.300
; #@! TA.AperFunction,Plated,PTH,ComponentDrill
T7C1.500
; #@! TA.AperFunction,Plated,PTH,ComponentDrill
T8C3.050
%
G90
G05
T1
X42.421Y-46.91
X44.961Y-49.47
X45.03Y-31.61
X50.041Y-46.185
X51.856Y-58.16
X56.38Y-58.16
X57.661Y-45.46
X57.74Y-85.39
X59.407Y-83.343
X59.72Y-103.77
X60.201Y-43.54
X60.67Y-104.5
X61.947Y-83.343
X62.741Y-47.66
X63.22Y-84.11
X63.68Y-81.87
X64.01Y-50.73
X65.281Y-47.64
X65.76Y-104.51
X66.54Y-49.54
X67.821Y-49.54
X69.09Y-45.45
X70.218Y-108.125
X70.35Y-59.41
X70.361Y-49.54
X73.09Y-35.62
X74.91Y-44.2
X74.91Y-45.5
X75.621Y-108.125
X78.214Y-46.91
X84.765Y-51.643
X85.03Y-49.539
X85.218Y-50.752
X85.915Y-66.88
X86.02Y-49.33
X86.358Y-48.364
X86.64Y-66.12
X86.64Y-85.17
X87.455Y-83.995
X87.47Y-86.33
X87.48Y-48.459
X87.48Y-65.08
X90.95Y-31.2
X90.95Y-50.25
X90.95Y-69.3
X90.95Y-88.35
X90.95Y-107.4
X95.3Y-30.0
X95.3Y-49.05
X95.3Y-68.1
X95.3Y-87.15
X95.3Y-106.2
X110.0Y-31.2
X110.0Y-50.25
X110.0Y-69.3
X110.0Y-88.35
X110.0Y-107.4
X114.35Y-30.0
X114.35Y-49.05
X114.35Y-68.1
X114.35Y-87.15
X114.35Y-106.2
X129.05Y-31.21
X129.05Y-50.25
X129.05Y-69.3
X129.05Y-88.35
X129.05Y-107.4
X133.4Y-30.0
X133.4Y-49.05
X133.4Y-68.1
X133.4Y-87.15
X133.4Y-106.2
X148.09Y-50.25
X148.1Y-31.2
X148.1Y-69.3
X148.1Y-88.35
X148.1Y-107.4
X152.45Y-30.0
X152.45Y-49.05
X152.45Y-68.1
X152.45Y-87.15
X152.45Y-106.2
X167.15Y-31.2
X167.15Y-50.25
X167.15Y-107.6
X167.28Y-69.3
X167.28Y-88.35
X171.5Y-30.0
X171.5Y-49.05
X171.5Y-106.2
X171.63Y-68.1
X171.63Y-87.15
X186.2Y-31.2
X186.2Y-50.25
X186.2Y-69.3
X186.2Y-88.35
X186.2Y-107.4
X190.55Y-30.0
X190.55Y-49.05
X190.55Y-68.1
X190.55Y-87.15
X190.55Y-106.2
X200.64Y-68.88
X200.65Y-30.78
X200.65Y-49.83
X200.65Y-106.98
X200.66Y-87.92
T2
X47.351Y-80.803
X47.351Y-83.343
X54.971Y-80.803
X54.971Y-83.343
T4
X55.718Y-96.993
X55.718Y-99.493
X55.718Y-101.993
X59.407Y-91.123
X61.947Y-91.123
X64.487Y-91.123
X67.028Y-91.123
X70.218Y-96.993
X70.218Y-101.993
T5
X39.881Y-38.45
X39.881Y-40.989
X39.881Y-53.689
X39.881Y-56.229
X42.421Y-38.45
X42.421Y-40.989
X42.421Y-53.689
X42.421Y-56.229
X44.961Y-38.45
X44.961Y-40.989
X44.961Y-53.689
X44.961Y-56.229
X47.501Y-38.45
X47.501Y-40.989
X47.501Y-53.689
X47.501Y-56.229
X50.041Y-38.45
X50.041Y-40.989
X50.041Y-53.689
X50.041Y-56.229
X52.581Y-38.45
X52.581Y-40.989
X52.581Y-53.689
X52.581Y-56.229
X55.121Y-38.45
X55.121Y-40.989
X55.121Y-53.689
X55.121Y-56.229
X57.661Y-38.45
X57.661Y-40.989
X57.661Y-53.689
X57.661Y-56.229
X60.201Y-38.45
X60.201Y-40.989
X60.201Y-53.689
X60.201Y-56.229
X62.741Y-38.45
X62.741Y-40.989
X62.741Y-53.689
X62.741Y-56.229
X65.281Y-38.45
X65.281Y-40.989
X65.281Y-53.689
X65.281Y-56.229
X67.821Y-38.45
X67.821Y-40.989
X67.821Y-53.689
X67.821Y-56.229
X70.361Y-38.45
X70.361Y-40.989
X70.361Y-53.689
X70.361Y-56.229
T6
X47.351Y-30.823
X53.851Y-30.823
T8
X92.65Y-34.725
X92.65Y-53.775
X92.65Y-72.825
X92.65Y-91.875
X92.65Y-110.925
X93.25Y-43.225
X93.25Y-62.275
X93.25Y-81.325
X93.25Y-100.375
X93.25Y-119.425
X95.05Y-44.275
X95.05Y-63.325
X95.05Y-82.375
X95.05Y-101.425
X95.05Y-120.475
X100.25Y-44.275
X100.25Y-63.325
X100.25Y-82.375
X100.25Y-101.425
X100.25Y-120.475
X102.05Y-43.225
X102.05Y-62.275
X102.05Y-81.325
X102.05Y-100.375
X102.05Y-119.425
X102.65Y-34.725
X102.65Y-53.775
X102.65Y-72.825
X102.65Y-91.875
X102.65Y-110.925
X111.7Y-34.725
X111.7Y-53.775
X111.7Y-72.825
X111.7Y-91.875
X111.7Y-110.925
X112.3Y-43.225
X112.3Y-62.275
X112.3Y-81.325
X112.3Y-100.375
X112.3Y-119.425
X114.1Y-44.275
X114.1Y-63.325
X114.1Y-82.375
X114.1Y-101.425
X114.1Y-120.475
X119.3Y-44.275
X119.3Y-63.325
X119.3Y-82.375
X119.3Y-101.425
X119.3Y-120.475
X121.1Y-43.225
X121.1Y-62.275
X121.1Y-81.325
X121.1Y-100.375
X121.1Y-119.425
X121.7Y-34.725
X121.7Y-53.775
X121.7Y-72.825
X121.7Y-91.875
X121.7Y-110.925
X130.75Y-34.725
X130.75Y-53.775
X130.75Y-72.825
X130.75Y-91.875
X130.75Y-110.925
X131.35Y-43.225
X131.35Y-62.275
X131.35Y-81.325
X131.35Y-100.375
X131.35Y-119.425
X133.15Y-44.275
X133.15Y-63.325
X133.15Y-82.375
X133.15Y-101.425
X133.15Y-120.475
X138.35Y-44.275
X138.35Y-63.325
X138.35Y-82.375
X138.35Y-101.425
X138.35Y-120.475
X140.15Y-43.225
X140.15Y-62.275
X140.15Y-81.325
X140.15Y-100.375
X140.15Y-119.425
X140.75Y-34.725
X140.75Y-53.775
X140.75Y-72.825
X140.75Y-91.875
X140.75Y-110.925
X149.8Y-34.725
X149.8Y-53.775
X149.8Y-72.825
X149.8Y-91.875
X149.8Y-110.925
X150.4Y-43.225
X150.4Y-62.275
X150.4Y-81.325
X150.4Y-100.375
X150.4Y-119.425
X152.2Y-44.275
X152.2Y-63.325
X152.2Y-82.375
X152.2Y-101.425
X152.2Y-120.475
X157.4Y-44.275
X157.4Y-63.325
X157.4Y-82.375
X157.4Y-101.425
X157.4Y-120.475
X159.2Y-43.225
X159.2Y-62.275
X159.2Y-81.325
X159.2Y-100.375
X159.2Y-119.425
X159.8Y-34.725
X159.8Y-53.775
X159.8Y-72.825
X159.8Y-91.875
X159.8Y-110.925
X168.85Y-34.725
X168.85Y-53.775
X168.85Y-72.825
X168.85Y-91.875
X168.85Y-110.925
X169.45Y-43.225
X169.45Y-62.275
X169.45Y-81.325
X169.45Y-100.375
X169.45Y-119.425
X171.25Y-44.275
X171.25Y-63.325
X171.25Y-82.375
X171.25Y-101.425
X171.25Y-120.475
X176.45Y-44.275
X176.45Y-63.325
X176.45Y-82.375
X176.45Y-101.425
X176.45Y-120.475
X178.25Y-43.225
X178.25Y-62.275
X178.25Y-81.325
X178.25Y-100.375
X178.25Y-119.425
X178.85Y-34.725
X178.85Y-53.775
X178.85Y-72.825
X178.85Y-91.875
X178.85Y-110.925
X187.9Y-34.725
X187.9Y-53.775
X187.9Y-72.825
X187.9Y-91.875
X187.9Y-110.925
X188.5Y-43.225
X188.5Y-62.275
X188.5Y-81.325
X188.5Y-100.375
X188.5Y-119.425
X190.3Y-44.275
X190.3Y-63.325
X190.3Y-82.375
X190.3Y-101.425
X190.3Y-120.475
X195.5Y-44.275
X195.5Y-63.325
X195.5Y-82.375
X195.5Y-101.425
X195.5Y-120.475
X197.3Y-43.225
X197.3Y-62.275
X197.3Y-81.325
X197.3Y-100.375
X197.3Y-119.425
X197.9Y-34.725
X197.9Y-53.775
X197.9Y-72.825
X197.9Y-91.875
X197.9Y-110.925
T3
X41.563Y-60.637G85X41.963Y-60.637
G05
X41.563Y-67.237G85X41.963Y-67.237
G05
X44.611Y-60.637G85X45.011Y-60.637
G05
X44.611Y-67.237G85X45.011Y-67.237
G05
X48.611Y-60.637G85X49.011Y-60.637
G05
X48.611Y-67.237G85X49.011Y-67.237
G05
X49.711Y-62.637G85X50.111Y-62.637
G05
X49.711Y-65.237G85X50.111Y-65.237
G05
X74.914Y-32.102G85X74.914Y-32.502
G05
X74.914Y-35.15G85X74.914Y-35.55
G05
X74.914Y-39.15G85X74.914Y-39.55
G05
X76.914Y-40.25G85X76.914Y-40.65
G05
X79.514Y-40.25G85X79.514Y-40.65
G05
X81.514Y-32.102G85X81.514Y-32.502
G05
X81.514Y-35.15G85X81.514Y-35.55
G05
X81.514Y-39.15G85X81.514Y-39.55
G05
T7
X62.668Y-93.893G85X63.768Y-93.893
G05
X62.668Y-105.093G85X63.768Y-105.093
G05
T0
M30
