%TF.GenerationSoftware,KiCad,Pcbnew,7.0.5*%
%TF.CreationDate,2024-09-25T00:12:03+08:00*%
%TF.ProjectId,TPS,5450532e-6b69-4636-9164-5f7063625858,rev?*%
%TF.SameCoordinates,Original*%
%TF.FileFunction,Legend,Top*%
%TF.FilePolarity,Positive*%
%FSLAX46Y46*%
G04 Gerber Fmt 4.6, Leading zero omitted, Abs format (unit mm)*
G04 Created by KiCad (PCBNEW 7.0.5) date 2024-09-25 00:12:03*
%MOMM*%
%LPD*%
G01*
G04 APERTURE LIST*
%ADD10C,0.150000*%
%ADD11C,0.120000*%
%ADD12C,0.100000*%
G04 APERTURE END LIST*
D10*
X54609258Y-116430810D02*
X53172632Y-115620319D01*
X52668441Y-115295109D02*
X51337631Y-114320565D01*
X50875394Y-113938065D02*
X49669041Y-112813119D01*
X49255231Y-112378687D02*
X48190234Y-111119096D01*
X47830648Y-110638817D02*
X46921923Y-109262224D01*
X46621597Y-108742825D02*
X45881874Y-107268512D01*
X45645016Y-106717270D02*
X45084655Y-105165888D01*
X44914582Y-104590523D02*
X44541433Y-102983803D01*
X44440527Y-102392374D02*
X44259817Y-100752821D01*
X44229491Y-100153613D02*
X44243751Y-98504193D01*
X44284431Y-97905599D02*
X44493461Y-96269415D01*
X44604577Y-95679820D02*
X45005448Y-94079791D01*
X45185444Y-93507452D02*
X45772542Y-91965990D01*
X46018896Y-91418925D02*
X46783998Y-89957622D01*
X47093258Y-89443493D02*
X48025647Y-88082817D01*
X48393483Y-87608827D02*
X49480098Y-86367836D01*
X56400785Y-81758132D02*
X57964673Y-81233686D01*
X58543806Y-81076923D02*
X60158702Y-80740915D01*
X60752300Y-80653671D02*
X62395583Y-80510808D01*
X62995331Y-80494305D02*
X64643984Y-80546587D01*
X65241481Y-80601057D02*
X66872411Y-80847752D01*
X67459288Y-80972432D02*
X69049650Y-81410084D01*
X69617687Y-81603227D02*
X71145204Y-82225707D01*
X71686444Y-82484607D02*
X73129720Y-83283195D01*
X73636582Y-83604227D02*
X74975401Y-84567737D01*
X75440785Y-84946403D02*
X76656395Y-86061339D01*
X77073782Y-86492336D02*
X78149154Y-87743081D01*
X78512698Y-88220371D02*
X79432770Y-89589406D01*
X79737379Y-90106304D02*
X80489264Y-91574452D01*
X80730671Y-92123718D02*
X81303836Y-93670415D01*
X81478659Y-94244354D02*
X81865076Y-95847935D01*
X81970867Y-96438510D02*
X82165124Y-98076513D01*
X82200401Y-98675450D02*
X82199776Y-100324931D01*
X82164045Y-100923841D02*
X81968548Y-102561697D01*
X81862309Y-103152191D02*
X81474677Y-104755479D01*
X81299419Y-105329286D02*
X80725082Y-106875548D01*
X80483259Y-107424630D02*
X79730263Y-108892209D01*
X79425262Y-109408876D02*
X78504153Y-110777213D01*
X78140247Y-111254227D02*
X77063928Y-112504158D01*
X76646214Y-112934838D02*
X75429760Y-114048853D01*
X74964089Y-114427166D02*
X73624540Y-115389662D01*
X73117436Y-115710309D02*
X71685894Y-116501666D01*
D11*
%TO.C,T2*%
X42774476Y-62501355D02*
X43231619Y-62501355D01*
X43003047Y-63301355D02*
X43003047Y-62501355D01*
X43955429Y-63301355D02*
X43688762Y-62920402D01*
X43498286Y-63301355D02*
X43498286Y-62501355D01*
X43498286Y-62501355D02*
X43803048Y-62501355D01*
X43803048Y-62501355D02*
X43879238Y-62539450D01*
X43879238Y-62539450D02*
X43917333Y-62577545D01*
X43917333Y-62577545D02*
X43955429Y-62653736D01*
X43955429Y-62653736D02*
X43955429Y-62768021D01*
X43955429Y-62768021D02*
X43917333Y-62844212D01*
X43917333Y-62844212D02*
X43879238Y-62882307D01*
X43879238Y-62882307D02*
X43803048Y-62920402D01*
X43803048Y-62920402D02*
X43498286Y-62920402D01*
X44755429Y-63301355D02*
X44488762Y-62920402D01*
X44298286Y-63301355D02*
X44298286Y-62501355D01*
X44298286Y-62501355D02*
X44603048Y-62501355D01*
X44603048Y-62501355D02*
X44679238Y-62539450D01*
X44679238Y-62539450D02*
X44717333Y-62577545D01*
X44717333Y-62577545D02*
X44755429Y-62653736D01*
X44755429Y-62653736D02*
X44755429Y-62768021D01*
X44755429Y-62768021D02*
X44717333Y-62844212D01*
X44717333Y-62844212D02*
X44679238Y-62882307D01*
X44679238Y-62882307D02*
X44603048Y-62920402D01*
X44603048Y-62920402D02*
X44298286Y-62920402D01*
X45060190Y-63263260D02*
X45174476Y-63301355D01*
X45174476Y-63301355D02*
X45364952Y-63301355D01*
X45364952Y-63301355D02*
X45441143Y-63263260D01*
X45441143Y-63263260D02*
X45479238Y-63225164D01*
X45479238Y-63225164D02*
X45517333Y-63148974D01*
X45517333Y-63148974D02*
X45517333Y-63072783D01*
X45517333Y-63072783D02*
X45479238Y-62996593D01*
X45479238Y-62996593D02*
X45441143Y-62958498D01*
X45441143Y-62958498D02*
X45364952Y-62920402D01*
X45364952Y-62920402D02*
X45212571Y-62882307D01*
X45212571Y-62882307D02*
X45136381Y-62844212D01*
X45136381Y-62844212D02*
X45098286Y-62806117D01*
X45098286Y-62806117D02*
X45060190Y-62729926D01*
X45060190Y-62729926D02*
X45060190Y-62653736D01*
X45060190Y-62653736D02*
X45098286Y-62577545D01*
X45098286Y-62577545D02*
X45136381Y-62539450D01*
X45136381Y-62539450D02*
X45212571Y-62501355D01*
X45212571Y-62501355D02*
X45403048Y-62501355D01*
X45403048Y-62501355D02*
X45517333Y-62539450D01*
%TO.C,T1*%
X78777855Y-36132523D02*
X78777855Y-35675380D01*
X79577855Y-35903952D02*
X78777855Y-35903952D01*
X79577855Y-34951570D02*
X79196902Y-35218237D01*
X79577855Y-35408713D02*
X78777855Y-35408713D01*
X78777855Y-35408713D02*
X78777855Y-35103951D01*
X78777855Y-35103951D02*
X78815950Y-35027761D01*
X78815950Y-35027761D02*
X78854045Y-34989666D01*
X78854045Y-34989666D02*
X78930236Y-34951570D01*
X78930236Y-34951570D02*
X79044521Y-34951570D01*
X79044521Y-34951570D02*
X79120712Y-34989666D01*
X79120712Y-34989666D02*
X79158807Y-35027761D01*
X79158807Y-35027761D02*
X79196902Y-35103951D01*
X79196902Y-35103951D02*
X79196902Y-35408713D01*
X79577855Y-34151570D02*
X79196902Y-34418237D01*
X79577855Y-34608713D02*
X78777855Y-34608713D01*
X78777855Y-34608713D02*
X78777855Y-34303951D01*
X78777855Y-34303951D02*
X78815950Y-34227761D01*
X78815950Y-34227761D02*
X78854045Y-34189666D01*
X78854045Y-34189666D02*
X78930236Y-34151570D01*
X78930236Y-34151570D02*
X79044521Y-34151570D01*
X79044521Y-34151570D02*
X79120712Y-34189666D01*
X79120712Y-34189666D02*
X79158807Y-34227761D01*
X79158807Y-34227761D02*
X79196902Y-34303951D01*
X79196902Y-34303951D02*
X79196902Y-34608713D01*
X79539760Y-33846809D02*
X79577855Y-33732523D01*
X79577855Y-33732523D02*
X79577855Y-33542047D01*
X79577855Y-33542047D02*
X79539760Y-33465856D01*
X79539760Y-33465856D02*
X79501664Y-33427761D01*
X79501664Y-33427761D02*
X79425474Y-33389666D01*
X79425474Y-33389666D02*
X79349283Y-33389666D01*
X79349283Y-33389666D02*
X79273093Y-33427761D01*
X79273093Y-33427761D02*
X79234998Y-33465856D01*
X79234998Y-33465856D02*
X79196902Y-33542047D01*
X79196902Y-33542047D02*
X79158807Y-33694428D01*
X79158807Y-33694428D02*
X79120712Y-33770618D01*
X79120712Y-33770618D02*
X79082617Y-33808713D01*
X79082617Y-33808713D02*
X79006426Y-33846809D01*
X79006426Y-33846809D02*
X78930236Y-33846809D01*
X78930236Y-33846809D02*
X78854045Y-33808713D01*
X78854045Y-33808713D02*
X78815950Y-33770618D01*
X78815950Y-33770618D02*
X78777855Y-33694428D01*
X78777855Y-33694428D02*
X78777855Y-33503951D01*
X78777855Y-33503951D02*
X78815950Y-33389666D01*
%TO.C,R1*%
X51027667Y-83706855D02*
X50761000Y-83325902D01*
X50570524Y-83706855D02*
X50570524Y-82906855D01*
X50570524Y-82906855D02*
X50875286Y-82906855D01*
X50875286Y-82906855D02*
X50951476Y-82944950D01*
X50951476Y-82944950D02*
X50989571Y-82983045D01*
X50989571Y-82983045D02*
X51027667Y-83059236D01*
X51027667Y-83059236D02*
X51027667Y-83173521D01*
X51027667Y-83173521D02*
X50989571Y-83249712D01*
X50989571Y-83249712D02*
X50951476Y-83287807D01*
X50951476Y-83287807D02*
X50875286Y-83325902D01*
X50875286Y-83325902D02*
X50570524Y-83325902D01*
X51789571Y-83706855D02*
X51332428Y-83706855D01*
X51561000Y-83706855D02*
X51561000Y-82906855D01*
X51561000Y-82906855D02*
X51484809Y-83021140D01*
X51484809Y-83021140D02*
X51408619Y-83097331D01*
X51408619Y-83097331D02*
X51332428Y-83135426D01*
%TO.C,JP1*%
X77307855Y-47980475D02*
X76507855Y-47980475D01*
X76507855Y-47980475D02*
X76507855Y-47675713D01*
X76507855Y-47675713D02*
X76545950Y-47599523D01*
X76545950Y-47599523D02*
X76584045Y-47561428D01*
X76584045Y-47561428D02*
X76660236Y-47523332D01*
X76660236Y-47523332D02*
X76774521Y-47523332D01*
X76774521Y-47523332D02*
X76850712Y-47561428D01*
X76850712Y-47561428D02*
X76888807Y-47599523D01*
X76888807Y-47599523D02*
X76926902Y-47675713D01*
X76926902Y-47675713D02*
X76926902Y-47980475D01*
X77307855Y-46761428D02*
X77307855Y-47218571D01*
X77307855Y-46989999D02*
X76507855Y-46989999D01*
X76507855Y-46989999D02*
X76622140Y-47066190D01*
X76622140Y-47066190D02*
X76698331Y-47142380D01*
X76698331Y-47142380D02*
X76736426Y-47218571D01*
%TO.C,JP2*%
X79847855Y-47980475D02*
X79047855Y-47980475D01*
X79047855Y-47980475D02*
X79047855Y-47675713D01*
X79047855Y-47675713D02*
X79085950Y-47599523D01*
X79085950Y-47599523D02*
X79124045Y-47561428D01*
X79124045Y-47561428D02*
X79200236Y-47523332D01*
X79200236Y-47523332D02*
X79314521Y-47523332D01*
X79314521Y-47523332D02*
X79390712Y-47561428D01*
X79390712Y-47561428D02*
X79428807Y-47599523D01*
X79428807Y-47599523D02*
X79466902Y-47675713D01*
X79466902Y-47675713D02*
X79466902Y-47980475D01*
X79124045Y-47218571D02*
X79085950Y-47180475D01*
X79085950Y-47180475D02*
X79047855Y-47104285D01*
X79047855Y-47104285D02*
X79047855Y-46913809D01*
X79047855Y-46913809D02*
X79085950Y-46837618D01*
X79085950Y-46837618D02*
X79124045Y-46799523D01*
X79124045Y-46799523D02*
X79200236Y-46761428D01*
X79200236Y-46761428D02*
X79276426Y-46761428D01*
X79276426Y-46761428D02*
X79390712Y-46799523D01*
X79390712Y-46799523D02*
X79847855Y-47256666D01*
X79847855Y-47256666D02*
X79847855Y-46761428D01*
D10*
%TO.C,RST1*%
X50162905Y-31185295D02*
X49896238Y-30804342D01*
X49705762Y-31185295D02*
X49705762Y-30385295D01*
X49705762Y-30385295D02*
X50010524Y-30385295D01*
X50010524Y-30385295D02*
X50086714Y-30423390D01*
X50086714Y-30423390D02*
X50124809Y-30461485D01*
X50124809Y-30461485D02*
X50162905Y-30537676D01*
X50162905Y-30537676D02*
X50162905Y-30651961D01*
X50162905Y-30651961D02*
X50124809Y-30728152D01*
X50124809Y-30728152D02*
X50086714Y-30766247D01*
X50086714Y-30766247D02*
X50010524Y-30804342D01*
X50010524Y-30804342D02*
X49705762Y-30804342D01*
X50467666Y-31147200D02*
X50581952Y-31185295D01*
X50581952Y-31185295D02*
X50772428Y-31185295D01*
X50772428Y-31185295D02*
X50848619Y-31147200D01*
X50848619Y-31147200D02*
X50886714Y-31109104D01*
X50886714Y-31109104D02*
X50924809Y-31032914D01*
X50924809Y-31032914D02*
X50924809Y-30956723D01*
X50924809Y-30956723D02*
X50886714Y-30880533D01*
X50886714Y-30880533D02*
X50848619Y-30842438D01*
X50848619Y-30842438D02*
X50772428Y-30804342D01*
X50772428Y-30804342D02*
X50620047Y-30766247D01*
X50620047Y-30766247D02*
X50543857Y-30728152D01*
X50543857Y-30728152D02*
X50505762Y-30690057D01*
X50505762Y-30690057D02*
X50467666Y-30613866D01*
X50467666Y-30613866D02*
X50467666Y-30537676D01*
X50467666Y-30537676D02*
X50505762Y-30461485D01*
X50505762Y-30461485D02*
X50543857Y-30423390D01*
X50543857Y-30423390D02*
X50620047Y-30385295D01*
X50620047Y-30385295D02*
X50810524Y-30385295D01*
X50810524Y-30385295D02*
X50924809Y-30423390D01*
X51153381Y-30385295D02*
X51610524Y-30385295D01*
X51381952Y-31185295D02*
X51381952Y-30385295D01*
D11*
%TO.C,J1*%
X61511355Y-89974666D02*
X62311355Y-89707999D01*
X62311355Y-89707999D02*
X61511355Y-89441333D01*
X62235164Y-88717523D02*
X62273260Y-88755619D01*
X62273260Y-88755619D02*
X62311355Y-88869904D01*
X62311355Y-88869904D02*
X62311355Y-88946095D01*
X62311355Y-88946095D02*
X62273260Y-89060381D01*
X62273260Y-89060381D02*
X62197069Y-89136571D01*
X62197069Y-89136571D02*
X62120879Y-89174666D01*
X62120879Y-89174666D02*
X61968498Y-89212762D01*
X61968498Y-89212762D02*
X61854212Y-89212762D01*
X61854212Y-89212762D02*
X61701831Y-89174666D01*
X61701831Y-89174666D02*
X61625640Y-89136571D01*
X61625640Y-89136571D02*
X61549450Y-89060381D01*
X61549450Y-89060381D02*
X61511355Y-88946095D01*
X61511355Y-88946095D02*
X61511355Y-88869904D01*
X61511355Y-88869904D02*
X61549450Y-88755619D01*
X61549450Y-88755619D02*
X61587545Y-88717523D01*
X62235164Y-87917523D02*
X62273260Y-87955619D01*
X62273260Y-87955619D02*
X62311355Y-88069904D01*
X62311355Y-88069904D02*
X62311355Y-88146095D01*
X62311355Y-88146095D02*
X62273260Y-88260381D01*
X62273260Y-88260381D02*
X62197069Y-88336571D01*
X62197069Y-88336571D02*
X62120879Y-88374666D01*
X62120879Y-88374666D02*
X61968498Y-88412762D01*
X61968498Y-88412762D02*
X61854212Y-88412762D01*
X61854212Y-88412762D02*
X61701831Y-88374666D01*
X61701831Y-88374666D02*
X61625640Y-88336571D01*
X61625640Y-88336571D02*
X61549450Y-88260381D01*
X61549450Y-88260381D02*
X61511355Y-88146095D01*
X61511355Y-88146095D02*
X61511355Y-88069904D01*
X61511355Y-88069904D02*
X61549450Y-87955619D01*
X61549450Y-87955619D02*
X61587545Y-87917523D01*
X64813260Y-89860381D02*
X64851355Y-89746095D01*
X64851355Y-89746095D02*
X64851355Y-89555619D01*
X64851355Y-89555619D02*
X64813260Y-89479428D01*
X64813260Y-89479428D02*
X64775164Y-89441333D01*
X64775164Y-89441333D02*
X64698974Y-89403238D01*
X64698974Y-89403238D02*
X64622783Y-89403238D01*
X64622783Y-89403238D02*
X64546593Y-89441333D01*
X64546593Y-89441333D02*
X64508498Y-89479428D01*
X64508498Y-89479428D02*
X64470402Y-89555619D01*
X64470402Y-89555619D02*
X64432307Y-89708000D01*
X64432307Y-89708000D02*
X64394212Y-89784190D01*
X64394212Y-89784190D02*
X64356117Y-89822285D01*
X64356117Y-89822285D02*
X64279926Y-89860381D01*
X64279926Y-89860381D02*
X64203736Y-89860381D01*
X64203736Y-89860381D02*
X64127545Y-89822285D01*
X64127545Y-89822285D02*
X64089450Y-89784190D01*
X64089450Y-89784190D02*
X64051355Y-89708000D01*
X64051355Y-89708000D02*
X64051355Y-89517523D01*
X64051355Y-89517523D02*
X64089450Y-89403238D01*
X64775164Y-88603237D02*
X64813260Y-88641333D01*
X64813260Y-88641333D02*
X64851355Y-88755618D01*
X64851355Y-88755618D02*
X64851355Y-88831809D01*
X64851355Y-88831809D02*
X64813260Y-88946095D01*
X64813260Y-88946095D02*
X64737069Y-89022285D01*
X64737069Y-89022285D02*
X64660879Y-89060380D01*
X64660879Y-89060380D02*
X64508498Y-89098476D01*
X64508498Y-89098476D02*
X64394212Y-89098476D01*
X64394212Y-89098476D02*
X64241831Y-89060380D01*
X64241831Y-89060380D02*
X64165640Y-89022285D01*
X64165640Y-89022285D02*
X64089450Y-88946095D01*
X64089450Y-88946095D02*
X64051355Y-88831809D01*
X64051355Y-88831809D02*
X64051355Y-88755618D01*
X64051355Y-88755618D02*
X64089450Y-88641333D01*
X64089450Y-88641333D02*
X64127545Y-88603237D01*
X64851355Y-87879428D02*
X64851355Y-88260380D01*
X64851355Y-88260380D02*
X64051355Y-88260380D01*
X67353260Y-89879428D02*
X67391355Y-89765142D01*
X67391355Y-89765142D02*
X67391355Y-89574666D01*
X67391355Y-89574666D02*
X67353260Y-89498475D01*
X67353260Y-89498475D02*
X67315164Y-89460380D01*
X67315164Y-89460380D02*
X67238974Y-89422285D01*
X67238974Y-89422285D02*
X67162783Y-89422285D01*
X67162783Y-89422285D02*
X67086593Y-89460380D01*
X67086593Y-89460380D02*
X67048498Y-89498475D01*
X67048498Y-89498475D02*
X67010402Y-89574666D01*
X67010402Y-89574666D02*
X66972307Y-89727047D01*
X66972307Y-89727047D02*
X66934212Y-89803237D01*
X66934212Y-89803237D02*
X66896117Y-89841332D01*
X66896117Y-89841332D02*
X66819926Y-89879428D01*
X66819926Y-89879428D02*
X66743736Y-89879428D01*
X66743736Y-89879428D02*
X66667545Y-89841332D01*
X66667545Y-89841332D02*
X66629450Y-89803237D01*
X66629450Y-89803237D02*
X66591355Y-89727047D01*
X66591355Y-89727047D02*
X66591355Y-89536570D01*
X66591355Y-89536570D02*
X66629450Y-89422285D01*
X67391355Y-89079427D02*
X66591355Y-89079427D01*
X66591355Y-89079427D02*
X66591355Y-88888951D01*
X66591355Y-88888951D02*
X66629450Y-88774665D01*
X66629450Y-88774665D02*
X66705640Y-88698475D01*
X66705640Y-88698475D02*
X66781831Y-88660380D01*
X66781831Y-88660380D02*
X66934212Y-88622284D01*
X66934212Y-88622284D02*
X67048498Y-88622284D01*
X67048498Y-88622284D02*
X67200879Y-88660380D01*
X67200879Y-88660380D02*
X67277069Y-88698475D01*
X67277069Y-88698475D02*
X67353260Y-88774665D01*
X67353260Y-88774665D02*
X67391355Y-88888951D01*
X67391355Y-88888951D02*
X67391355Y-89079427D01*
X67162783Y-88317523D02*
X67162783Y-87936570D01*
X67391355Y-88393713D02*
X66591355Y-88127046D01*
X66591355Y-88127046D02*
X67391355Y-87860380D01*
X59009450Y-89517523D02*
X58971355Y-89593713D01*
X58971355Y-89593713D02*
X58971355Y-89707999D01*
X58971355Y-89707999D02*
X59009450Y-89822285D01*
X59009450Y-89822285D02*
X59085640Y-89898475D01*
X59085640Y-89898475D02*
X59161831Y-89936570D01*
X59161831Y-89936570D02*
X59314212Y-89974666D01*
X59314212Y-89974666D02*
X59428498Y-89974666D01*
X59428498Y-89974666D02*
X59580879Y-89936570D01*
X59580879Y-89936570D02*
X59657069Y-89898475D01*
X59657069Y-89898475D02*
X59733260Y-89822285D01*
X59733260Y-89822285D02*
X59771355Y-89707999D01*
X59771355Y-89707999D02*
X59771355Y-89631808D01*
X59771355Y-89631808D02*
X59733260Y-89517523D01*
X59733260Y-89517523D02*
X59695164Y-89479427D01*
X59695164Y-89479427D02*
X59428498Y-89479427D01*
X59428498Y-89479427D02*
X59428498Y-89631808D01*
X59771355Y-89136570D02*
X58971355Y-89136570D01*
X58971355Y-89136570D02*
X59771355Y-88679427D01*
X59771355Y-88679427D02*
X58971355Y-88679427D01*
X59771355Y-88298475D02*
X58971355Y-88298475D01*
X58971355Y-88298475D02*
X58971355Y-88107999D01*
X58971355Y-88107999D02*
X59009450Y-87993713D01*
X59009450Y-87993713D02*
X59085640Y-87917523D01*
X59085640Y-87917523D02*
X59161831Y-87879428D01*
X59161831Y-87879428D02*
X59314212Y-87841332D01*
X59314212Y-87841332D02*
X59428498Y-87841332D01*
X59428498Y-87841332D02*
X59580879Y-87879428D01*
X59580879Y-87879428D02*
X59657069Y-87917523D01*
X59657069Y-87917523D02*
X59733260Y-87993713D01*
X59733260Y-87993713D02*
X59771355Y-88107999D01*
X59771355Y-88107999D02*
X59771355Y-88298475D01*
%TO.C,R2*%
X51027667Y-81166855D02*
X50761000Y-80785902D01*
X50570524Y-81166855D02*
X50570524Y-80366855D01*
X50570524Y-80366855D02*
X50875286Y-80366855D01*
X50875286Y-80366855D02*
X50951476Y-80404950D01*
X50951476Y-80404950D02*
X50989571Y-80443045D01*
X50989571Y-80443045D02*
X51027667Y-80519236D01*
X51027667Y-80519236D02*
X51027667Y-80633521D01*
X51027667Y-80633521D02*
X50989571Y-80709712D01*
X50989571Y-80709712D02*
X50951476Y-80747807D01*
X50951476Y-80747807D02*
X50875286Y-80785902D01*
X50875286Y-80785902D02*
X50570524Y-80785902D01*
X51332428Y-80443045D02*
X51370524Y-80404950D01*
X51370524Y-80404950D02*
X51446714Y-80366855D01*
X51446714Y-80366855D02*
X51637190Y-80366855D01*
X51637190Y-80366855D02*
X51713381Y-80404950D01*
X51713381Y-80404950D02*
X51751476Y-80443045D01*
X51751476Y-80443045D02*
X51789571Y-80519236D01*
X51789571Y-80519236D02*
X51789571Y-80595426D01*
X51789571Y-80595426D02*
X51751476Y-80709712D01*
X51751476Y-80709712D02*
X51294333Y-81166855D01*
X51294333Y-81166855D02*
X51789571Y-81166855D01*
%TO.C,U1*%
X46891476Y-35836450D02*
X46815286Y-35798355D01*
X46815286Y-35798355D02*
X46701000Y-35798355D01*
X46701000Y-35798355D02*
X46586714Y-35836450D01*
X46586714Y-35836450D02*
X46510524Y-35912640D01*
X46510524Y-35912640D02*
X46472429Y-35988831D01*
X46472429Y-35988831D02*
X46434333Y-36141212D01*
X46434333Y-36141212D02*
X46434333Y-36255498D01*
X46434333Y-36255498D02*
X46472429Y-36407879D01*
X46472429Y-36407879D02*
X46510524Y-36484069D01*
X46510524Y-36484069D02*
X46586714Y-36560260D01*
X46586714Y-36560260D02*
X46701000Y-36598355D01*
X46701000Y-36598355D02*
X46777191Y-36598355D01*
X46777191Y-36598355D02*
X46891476Y-36560260D01*
X46891476Y-36560260D02*
X46929572Y-36522164D01*
X46929572Y-36522164D02*
X46929572Y-36255498D01*
X46929572Y-36255498D02*
X46777191Y-36255498D01*
X47272429Y-36598355D02*
X47272429Y-35798355D01*
X47272429Y-35798355D02*
X47729572Y-36598355D01*
X47729572Y-36598355D02*
X47729572Y-35798355D01*
X48110524Y-36598355D02*
X48110524Y-35798355D01*
X48110524Y-35798355D02*
X48301000Y-35798355D01*
X48301000Y-35798355D02*
X48415286Y-35836450D01*
X48415286Y-35836450D02*
X48491476Y-35912640D01*
X48491476Y-35912640D02*
X48529571Y-35988831D01*
X48529571Y-35988831D02*
X48567667Y-36141212D01*
X48567667Y-36141212D02*
X48567667Y-36255498D01*
X48567667Y-36255498D02*
X48529571Y-36407879D01*
X48529571Y-36407879D02*
X48491476Y-36484069D01*
X48491476Y-36484069D02*
X48415286Y-36560260D01*
X48415286Y-36560260D02*
X48301000Y-36598355D01*
X48301000Y-36598355D02*
X48110524Y-36598355D01*
X48974333Y-51038355D02*
X49241000Y-51838355D01*
X49241000Y-51838355D02*
X49507666Y-51038355D01*
X50231476Y-51762164D02*
X50193380Y-51800260D01*
X50193380Y-51800260D02*
X50079095Y-51838355D01*
X50079095Y-51838355D02*
X50002904Y-51838355D01*
X50002904Y-51838355D02*
X49888618Y-51800260D01*
X49888618Y-51800260D02*
X49812428Y-51724069D01*
X49812428Y-51724069D02*
X49774333Y-51647879D01*
X49774333Y-51647879D02*
X49736237Y-51495498D01*
X49736237Y-51495498D02*
X49736237Y-51381212D01*
X49736237Y-51381212D02*
X49774333Y-51228831D01*
X49774333Y-51228831D02*
X49812428Y-51152640D01*
X49812428Y-51152640D02*
X49888618Y-51076450D01*
X49888618Y-51076450D02*
X50002904Y-51038355D01*
X50002904Y-51038355D02*
X50079095Y-51038355D01*
X50079095Y-51038355D02*
X50193380Y-51076450D01*
X50193380Y-51076450D02*
X50231476Y-51114545D01*
X51031476Y-51762164D02*
X50993380Y-51800260D01*
X50993380Y-51800260D02*
X50879095Y-51838355D01*
X50879095Y-51838355D02*
X50802904Y-51838355D01*
X50802904Y-51838355D02*
X50688618Y-51800260D01*
X50688618Y-51800260D02*
X50612428Y-51724069D01*
X50612428Y-51724069D02*
X50574333Y-51647879D01*
X50574333Y-51647879D02*
X50536237Y-51495498D01*
X50536237Y-51495498D02*
X50536237Y-51381212D01*
X50536237Y-51381212D02*
X50574333Y-51228831D01*
X50574333Y-51228831D02*
X50612428Y-51152640D01*
X50612428Y-51152640D02*
X50688618Y-51076450D01*
X50688618Y-51076450D02*
X50802904Y-51038355D01*
X50802904Y-51038355D02*
X50879095Y-51038355D01*
X50879095Y-51038355D02*
X50993380Y-51076450D01*
X50993380Y-51076450D02*
X51031476Y-51114545D01*
X49431476Y-35836450D02*
X49355286Y-35798355D01*
X49355286Y-35798355D02*
X49241000Y-35798355D01*
X49241000Y-35798355D02*
X49126714Y-35836450D01*
X49126714Y-35836450D02*
X49050524Y-35912640D01*
X49050524Y-35912640D02*
X49012429Y-35988831D01*
X49012429Y-35988831D02*
X48974333Y-36141212D01*
X48974333Y-36141212D02*
X48974333Y-36255498D01*
X48974333Y-36255498D02*
X49012429Y-36407879D01*
X49012429Y-36407879D02*
X49050524Y-36484069D01*
X49050524Y-36484069D02*
X49126714Y-36560260D01*
X49126714Y-36560260D02*
X49241000Y-36598355D01*
X49241000Y-36598355D02*
X49317191Y-36598355D01*
X49317191Y-36598355D02*
X49431476Y-36560260D01*
X49431476Y-36560260D02*
X49469572Y-36522164D01*
X49469572Y-36522164D02*
X49469572Y-36255498D01*
X49469572Y-36255498D02*
X49317191Y-36255498D01*
X49812429Y-36598355D02*
X49812429Y-35798355D01*
X49812429Y-35798355D02*
X50269572Y-36598355D01*
X50269572Y-36598355D02*
X50269572Y-35798355D01*
X50650524Y-36598355D02*
X50650524Y-35798355D01*
X50650524Y-35798355D02*
X50841000Y-35798355D01*
X50841000Y-35798355D02*
X50955286Y-35836450D01*
X50955286Y-35836450D02*
X51031476Y-35912640D01*
X51031476Y-35912640D02*
X51069571Y-35988831D01*
X51069571Y-35988831D02*
X51107667Y-36141212D01*
X51107667Y-36141212D02*
X51107667Y-36255498D01*
X51107667Y-36255498D02*
X51069571Y-36407879D01*
X51069571Y-36407879D02*
X51031476Y-36484069D01*
X51031476Y-36484069D02*
X50955286Y-36560260D01*
X50955286Y-36560260D02*
X50841000Y-36598355D01*
X50841000Y-36598355D02*
X50650524Y-36598355D01*
X44351476Y-51076450D02*
X44275286Y-51038355D01*
X44275286Y-51038355D02*
X44161000Y-51038355D01*
X44161000Y-51038355D02*
X44046714Y-51076450D01*
X44046714Y-51076450D02*
X43970524Y-51152640D01*
X43970524Y-51152640D02*
X43932429Y-51228831D01*
X43932429Y-51228831D02*
X43894333Y-51381212D01*
X43894333Y-51381212D02*
X43894333Y-51495498D01*
X43894333Y-51495498D02*
X43932429Y-51647879D01*
X43932429Y-51647879D02*
X43970524Y-51724069D01*
X43970524Y-51724069D02*
X44046714Y-51800260D01*
X44046714Y-51800260D02*
X44161000Y-51838355D01*
X44161000Y-51838355D02*
X44237191Y-51838355D01*
X44237191Y-51838355D02*
X44351476Y-51800260D01*
X44351476Y-51800260D02*
X44389572Y-51762164D01*
X44389572Y-51762164D02*
X44389572Y-51495498D01*
X44389572Y-51495498D02*
X44237191Y-51495498D01*
X44732429Y-51838355D02*
X44732429Y-51038355D01*
X44732429Y-51038355D02*
X45189572Y-51838355D01*
X45189572Y-51838355D02*
X45189572Y-51038355D01*
X45570524Y-51838355D02*
X45570524Y-51038355D01*
X45570524Y-51038355D02*
X45761000Y-51038355D01*
X45761000Y-51038355D02*
X45875286Y-51076450D01*
X45875286Y-51076450D02*
X45951476Y-51152640D01*
X45951476Y-51152640D02*
X45989571Y-51228831D01*
X45989571Y-51228831D02*
X46027667Y-51381212D01*
X46027667Y-51381212D02*
X46027667Y-51495498D01*
X46027667Y-51495498D02*
X45989571Y-51647879D01*
X45989571Y-51647879D02*
X45951476Y-51724069D01*
X45951476Y-51724069D02*
X45875286Y-51800260D01*
X45875286Y-51800260D02*
X45761000Y-51838355D01*
X45761000Y-51838355D02*
X45570524Y-51838355D01*
D10*
%TO.C,T2*%
X38611000Y-66315700D02*
X47249000Y-66315700D01*
X38611000Y-66315700D02*
X38611000Y-59559300D01*
X47249000Y-66315700D02*
X51184000Y-66315700D01*
X38611000Y-59559300D02*
X51184000Y-59559300D01*
X51184000Y-59559300D02*
X51184000Y-66315700D01*
%TO.C,T1*%
X75835800Y-29150000D02*
X75835800Y-37788000D01*
X75835800Y-29150000D02*
X82592200Y-29150000D01*
X75835800Y-37788000D02*
X75835800Y-41723000D01*
X82592200Y-29150000D02*
X82592200Y-41723000D01*
X82592200Y-41723000D02*
X75835800Y-41723000D01*
D12*
%TO.C,D16*%
X150505600Y-30000000D02*
X150105600Y-30000000D01*
X150105600Y-30000000D02*
X150105600Y-30550000D01*
X150105600Y-30000000D02*
X150105600Y-29450000D01*
X150105600Y-30000000D02*
X149505600Y-30400000D01*
X149505600Y-30400000D02*
X149505600Y-29600000D01*
X149505600Y-30000000D02*
X149005600Y-30000000D01*
X149505600Y-29600000D02*
X150105600Y-30000000D01*
%TO.C,D24*%
X169685600Y-87150000D02*
X169285600Y-87150000D01*
X169285600Y-87150000D02*
X169285600Y-87700000D01*
X169285600Y-87150000D02*
X169285600Y-86600000D01*
X169285600Y-87150000D02*
X168685600Y-87550000D01*
X168685600Y-87550000D02*
X168685600Y-86750000D01*
X168685600Y-87150000D02*
X168185600Y-87150000D01*
X168685600Y-86750000D02*
X169285600Y-87150000D01*
D11*
%TO.C,SW19*%
X147154000Y-93379000D02*
X147154000Y-94321000D01*
X147154000Y-94321000D02*
X151240000Y-94321000D01*
X147519000Y-90066000D02*
X147434000Y-90493000D01*
X147708000Y-89783000D02*
X147519000Y-90066000D01*
X147991000Y-89594000D02*
X147708000Y-89783000D01*
X148318000Y-89529000D02*
X147991000Y-89594000D01*
X149600000Y-103775000D02*
X149600000Y-102875000D01*
X149600000Y-103775000D02*
X155200000Y-103775000D01*
X151118000Y-89529000D02*
X148318000Y-89529000D01*
X151240000Y-94321000D02*
X151550000Y-94262000D01*
X151550000Y-94262000D02*
X151824000Y-94092000D01*
X151556000Y-89442000D02*
X151118000Y-89529000D01*
X151824000Y-94092000D02*
X152017000Y-93834000D01*
X151900000Y-99075000D02*
X155200000Y-99075000D01*
X151923000Y-89198000D02*
X151556000Y-89442000D01*
X152017000Y-93834000D02*
X152099000Y-93536000D01*
X152099000Y-93536000D02*
X152253000Y-92978000D01*
X152167000Y-88831000D02*
X151923000Y-89198000D01*
X152253000Y-92978000D02*
X152591000Y-92525000D01*
X152254000Y-88171000D02*
X152254000Y-88393000D01*
X152254000Y-88393000D02*
X152167000Y-88831000D01*
X152591000Y-92525000D02*
X153070000Y-92226000D01*
X152787000Y-87638000D02*
X152254000Y-88171000D01*
X153070000Y-92226000D02*
X153632000Y-92121000D01*
X153129000Y-87409000D02*
X152787000Y-87638000D01*
X153532000Y-87329000D02*
X153129000Y-87409000D01*
X153632000Y-92121000D02*
X156279000Y-92121000D01*
X156279000Y-87329000D02*
X153532000Y-87329000D01*
X156279000Y-92121000D02*
X157300000Y-91100000D01*
X156510000Y-103175000D02*
X155200000Y-103775000D01*
X157216000Y-88266000D02*
X156279000Y-87329000D01*
X157400000Y-98025000D02*
X155200000Y-99075000D01*
X161800000Y-98025000D02*
X157400000Y-98025000D01*
X161800000Y-98025000D02*
X161800000Y-98975000D01*
X161800000Y-102725000D02*
X158800000Y-102725000D01*
X161800000Y-102725000D02*
X161800000Y-101775000D01*
D12*
%TO.C,D20*%
X150505600Y-106200000D02*
X150105600Y-106200000D01*
X150105600Y-106200000D02*
X150105600Y-106750000D01*
X150105600Y-106200000D02*
X150105600Y-105650000D01*
X150105600Y-106200000D02*
X149505600Y-106600000D01*
X149505600Y-106600000D02*
X149505600Y-105800000D01*
X149505600Y-106200000D02*
X149005600Y-106200000D01*
X149505600Y-105800000D02*
X150105600Y-106200000D01*
%TO.C,D1*%
X93355600Y-30000000D02*
X92955600Y-30000000D01*
X92955600Y-30000000D02*
X92955600Y-30550000D01*
X92955600Y-30000000D02*
X92955600Y-29450000D01*
X92955600Y-30000000D02*
X92355600Y-30400000D01*
X92355600Y-30400000D02*
X92355600Y-29600000D01*
X92355600Y-30000000D02*
X91855600Y-30000000D01*
X92355600Y-29600000D02*
X92955600Y-30000000D01*
%TO.C,D22*%
X169555600Y-49050000D02*
X169155600Y-49050000D01*
X169155600Y-49050000D02*
X169155600Y-49600000D01*
X169155600Y-49050000D02*
X169155600Y-48500000D01*
X169155600Y-49050000D02*
X168555600Y-49450000D01*
X168555600Y-49450000D02*
X168555600Y-48650000D01*
X168555600Y-49050000D02*
X168055600Y-49050000D01*
X168555600Y-48650000D02*
X169155600Y-49050000D01*
D11*
%TO.C,SW3*%
X90004000Y-74329000D02*
X90004000Y-75271000D01*
X90004000Y-75271000D02*
X94090000Y-75271000D01*
X90369000Y-71016000D02*
X90284000Y-71443000D01*
X90558000Y-70733000D02*
X90369000Y-71016000D01*
X90841000Y-70544000D02*
X90558000Y-70733000D01*
X91168000Y-70479000D02*
X90841000Y-70544000D01*
X92450000Y-84725000D02*
X92450000Y-83825000D01*
X92450000Y-84725000D02*
X98050000Y-84725000D01*
X93968000Y-70479000D02*
X91168000Y-70479000D01*
X94090000Y-75271000D02*
X94400000Y-75212000D01*
X94400000Y-75212000D02*
X94674000Y-75042000D01*
X94406000Y-70392000D02*
X93968000Y-70479000D01*
X94674000Y-75042000D02*
X94867000Y-74784000D01*
X94750000Y-80025000D02*
X98050000Y-80025000D01*
X94773000Y-70148000D02*
X94406000Y-70392000D01*
X94867000Y-74784000D02*
X94949000Y-74486000D01*
X94949000Y-74486000D02*
X95103000Y-73928000D01*
X95017000Y-69781000D02*
X94773000Y-70148000D01*
X95103000Y-73928000D02*
X95441000Y-73475000D01*
X95104000Y-69121000D02*
X95104000Y-69343000D01*
X95104000Y-69343000D02*
X95017000Y-69781000D01*
X95441000Y-73475000D02*
X95920000Y-73176000D01*
X95637000Y-68588000D02*
X95104000Y-69121000D01*
X95920000Y-73176000D02*
X96482000Y-73071000D01*
X95979000Y-68359000D02*
X95637000Y-68588000D01*
X96382000Y-68279000D02*
X95979000Y-68359000D01*
X96482000Y-73071000D02*
X99129000Y-73071000D01*
X99129000Y-68279000D02*
X96382000Y-68279000D01*
X99129000Y-73071000D02*
X100150000Y-72050000D01*
X99360000Y-84125000D02*
X98050000Y-84725000D01*
X100066000Y-69216000D02*
X99129000Y-68279000D01*
X100250000Y-78975000D02*
X98050000Y-80025000D01*
X104650000Y-78975000D02*
X100250000Y-78975000D01*
X104650000Y-78975000D02*
X104650000Y-79925000D01*
X104650000Y-83675000D02*
X101650000Y-83675000D01*
X104650000Y-83675000D02*
X104650000Y-82725000D01*
%TO.C,SW4*%
X90004000Y-93379000D02*
X90004000Y-94321000D01*
X90004000Y-94321000D02*
X94090000Y-94321000D01*
X90369000Y-90066000D02*
X90284000Y-90493000D01*
X90558000Y-89783000D02*
X90369000Y-90066000D01*
X90841000Y-89594000D02*
X90558000Y-89783000D01*
X91168000Y-89529000D02*
X90841000Y-89594000D01*
X92450000Y-103775000D02*
X92450000Y-102875000D01*
X92450000Y-103775000D02*
X98050000Y-103775000D01*
X93968000Y-89529000D02*
X91168000Y-89529000D01*
X94090000Y-94321000D02*
X94400000Y-94262000D01*
X94400000Y-94262000D02*
X94674000Y-94092000D01*
X94406000Y-89442000D02*
X93968000Y-89529000D01*
X94674000Y-94092000D02*
X94867000Y-93834000D01*
X94750000Y-99075000D02*
X98050000Y-99075000D01*
X94773000Y-89198000D02*
X94406000Y-89442000D01*
X94867000Y-93834000D02*
X94949000Y-93536000D01*
X94949000Y-93536000D02*
X95103000Y-92978000D01*
X95017000Y-88831000D02*
X94773000Y-89198000D01*
X95103000Y-92978000D02*
X95441000Y-92525000D01*
X95104000Y-88171000D02*
X95104000Y-88393000D01*
X95104000Y-88393000D02*
X95017000Y-88831000D01*
X95441000Y-92525000D02*
X95920000Y-92226000D01*
X95637000Y-87638000D02*
X95104000Y-88171000D01*
X95920000Y-92226000D02*
X96482000Y-92121000D01*
X95979000Y-87409000D02*
X95637000Y-87638000D01*
X96382000Y-87329000D02*
X95979000Y-87409000D01*
X96482000Y-92121000D02*
X99129000Y-92121000D01*
X99129000Y-87329000D02*
X96382000Y-87329000D01*
X99129000Y-92121000D02*
X100150000Y-91100000D01*
X99360000Y-103175000D02*
X98050000Y-103775000D01*
X100066000Y-88266000D02*
X99129000Y-87329000D01*
X100250000Y-98025000D02*
X98050000Y-99075000D01*
X104650000Y-98025000D02*
X100250000Y-98025000D01*
X104650000Y-98025000D02*
X104650000Y-98975000D01*
X104650000Y-102725000D02*
X101650000Y-102725000D01*
X104650000Y-102725000D02*
X104650000Y-101775000D01*
D12*
%TO.C,D27*%
X188605600Y-49050000D02*
X188205600Y-49050000D01*
X188205600Y-49050000D02*
X188205600Y-49600000D01*
X188205600Y-49050000D02*
X188205600Y-48500000D01*
X188205600Y-49050000D02*
X187605600Y-49450000D01*
X187605600Y-49450000D02*
X187605600Y-48650000D01*
X187605600Y-49050000D02*
X187105600Y-49050000D01*
X187605600Y-48650000D02*
X188205600Y-49050000D01*
D11*
%TO.C,SW1*%
X90004000Y-36229000D02*
X90004000Y-37171000D01*
X90004000Y-37171000D02*
X94090000Y-37171000D01*
X90369000Y-32916000D02*
X90284000Y-33343000D01*
X90558000Y-32633000D02*
X90369000Y-32916000D01*
X90841000Y-32444000D02*
X90558000Y-32633000D01*
X91168000Y-32379000D02*
X90841000Y-32444000D01*
X92450000Y-46625000D02*
X92450000Y-45725000D01*
X92450000Y-46625000D02*
X98050000Y-46625000D01*
X93968000Y-32379000D02*
X91168000Y-32379000D01*
X94090000Y-37171000D02*
X94400000Y-37112000D01*
X94400000Y-37112000D02*
X94674000Y-36942000D01*
X94406000Y-32292000D02*
X93968000Y-32379000D01*
X94674000Y-36942000D02*
X94867000Y-36684000D01*
X94750000Y-41925000D02*
X98050000Y-41925000D01*
X94773000Y-32048000D02*
X94406000Y-32292000D01*
X94867000Y-36684000D02*
X94949000Y-36386000D01*
X94949000Y-36386000D02*
X95103000Y-35828000D01*
X95017000Y-31681000D02*
X94773000Y-32048000D01*
X95103000Y-35828000D02*
X95441000Y-35375000D01*
X95104000Y-31021000D02*
X95104000Y-31243000D01*
X95104000Y-31243000D02*
X95017000Y-31681000D01*
X95441000Y-35375000D02*
X95920000Y-35076000D01*
X95637000Y-30488000D02*
X95104000Y-31021000D01*
X95920000Y-35076000D02*
X96482000Y-34971000D01*
X95979000Y-30259000D02*
X95637000Y-30488000D01*
X96382000Y-30179000D02*
X95979000Y-30259000D01*
X96482000Y-34971000D02*
X99129000Y-34971000D01*
X99129000Y-30179000D02*
X96382000Y-30179000D01*
X99129000Y-34971000D02*
X100150000Y-33950000D01*
X99360000Y-46025000D02*
X98050000Y-46625000D01*
X100066000Y-31116000D02*
X99129000Y-30179000D01*
X100250000Y-40875000D02*
X98050000Y-41925000D01*
X104650000Y-40875000D02*
X100250000Y-40875000D01*
X104650000Y-40875000D02*
X104650000Y-41825000D01*
X104650000Y-45575000D02*
X101650000Y-45575000D01*
X104650000Y-45575000D02*
X104650000Y-44625000D01*
D12*
%TO.C,D7*%
X112405600Y-49050000D02*
X112005600Y-49050000D01*
X112005600Y-49050000D02*
X112005600Y-49600000D01*
X112005600Y-49050000D02*
X112005600Y-48500000D01*
X112005600Y-49050000D02*
X111405600Y-49450000D01*
X111405600Y-49450000D02*
X111405600Y-48650000D01*
X111405600Y-49050000D02*
X110905600Y-49050000D01*
X111405600Y-48650000D02*
X112005600Y-49050000D01*
D11*
%TO.C,SW8*%
X109054000Y-74329000D02*
X109054000Y-75271000D01*
X109054000Y-75271000D02*
X113140000Y-75271000D01*
X109419000Y-71016000D02*
X109334000Y-71443000D01*
X109608000Y-70733000D02*
X109419000Y-71016000D01*
X109891000Y-70544000D02*
X109608000Y-70733000D01*
X110218000Y-70479000D02*
X109891000Y-70544000D01*
X111500000Y-84725000D02*
X111500000Y-83825000D01*
X111500000Y-84725000D02*
X117100000Y-84725000D01*
X113018000Y-70479000D02*
X110218000Y-70479000D01*
X113140000Y-75271000D02*
X113450000Y-75212000D01*
X113450000Y-75212000D02*
X113724000Y-75042000D01*
X113456000Y-70392000D02*
X113018000Y-70479000D01*
X113724000Y-75042000D02*
X113917000Y-74784000D01*
X113800000Y-80025000D02*
X117100000Y-80025000D01*
X113823000Y-70148000D02*
X113456000Y-70392000D01*
X113917000Y-74784000D02*
X113999000Y-74486000D01*
X113999000Y-74486000D02*
X114153000Y-73928000D01*
X114067000Y-69781000D02*
X113823000Y-70148000D01*
X114153000Y-73928000D02*
X114491000Y-73475000D01*
X114154000Y-69121000D02*
X114154000Y-69343000D01*
X114154000Y-69343000D02*
X114067000Y-69781000D01*
X114491000Y-73475000D02*
X114970000Y-73176000D01*
X114687000Y-68588000D02*
X114154000Y-69121000D01*
X114970000Y-73176000D02*
X115532000Y-73071000D01*
X115029000Y-68359000D02*
X114687000Y-68588000D01*
X115432000Y-68279000D02*
X115029000Y-68359000D01*
X115532000Y-73071000D02*
X118179000Y-73071000D01*
X118179000Y-68279000D02*
X115432000Y-68279000D01*
X118179000Y-73071000D02*
X119200000Y-72050000D01*
X118410000Y-84125000D02*
X117100000Y-84725000D01*
X119116000Y-69216000D02*
X118179000Y-68279000D01*
X119300000Y-78975000D02*
X117100000Y-80025000D01*
X123700000Y-78975000D02*
X119300000Y-78975000D01*
X123700000Y-78975000D02*
X123700000Y-79925000D01*
X123700000Y-83675000D02*
X120700000Y-83675000D01*
X123700000Y-83675000D02*
X123700000Y-82725000D01*
%TO.C,SW5*%
X90004000Y-112429000D02*
X90004000Y-113371000D01*
X90004000Y-113371000D02*
X94090000Y-113371000D01*
X90369000Y-109116000D02*
X90284000Y-109543000D01*
X90558000Y-108833000D02*
X90369000Y-109116000D01*
X90841000Y-108644000D02*
X90558000Y-108833000D01*
X91168000Y-108579000D02*
X90841000Y-108644000D01*
X92450000Y-122825000D02*
X92450000Y-121925000D01*
X92450000Y-122825000D02*
X98050000Y-122825000D01*
X93968000Y-108579000D02*
X91168000Y-108579000D01*
X94090000Y-113371000D02*
X94400000Y-113312000D01*
X94400000Y-113312000D02*
X94674000Y-113142000D01*
X94406000Y-108492000D02*
X93968000Y-108579000D01*
X94674000Y-113142000D02*
X94867000Y-112884000D01*
X94750000Y-118125000D02*
X98050000Y-118125000D01*
X94773000Y-108248000D02*
X94406000Y-108492000D01*
X94867000Y-112884000D02*
X94949000Y-112586000D01*
X94949000Y-112586000D02*
X95103000Y-112028000D01*
X95017000Y-107881000D02*
X94773000Y-108248000D01*
X95103000Y-112028000D02*
X95441000Y-111575000D01*
X95104000Y-107221000D02*
X95104000Y-107443000D01*
X95104000Y-107443000D02*
X95017000Y-107881000D01*
X95441000Y-111575000D02*
X95920000Y-111276000D01*
X95637000Y-106688000D02*
X95104000Y-107221000D01*
X95920000Y-111276000D02*
X96482000Y-111171000D01*
X95979000Y-106459000D02*
X95637000Y-106688000D01*
X96382000Y-106379000D02*
X95979000Y-106459000D01*
X96482000Y-111171000D02*
X99129000Y-111171000D01*
X99129000Y-106379000D02*
X96382000Y-106379000D01*
X99129000Y-111171000D02*
X100150000Y-110150000D01*
X99360000Y-122225000D02*
X98050000Y-122825000D01*
X100066000Y-107316000D02*
X99129000Y-106379000D01*
X100250000Y-117075000D02*
X98050000Y-118125000D01*
X104650000Y-117075000D02*
X100250000Y-117075000D01*
X104650000Y-117075000D02*
X104650000Y-118025000D01*
X104650000Y-121775000D02*
X101650000Y-121775000D01*
X104650000Y-121775000D02*
X104650000Y-120825000D01*
%TO.C,SW11*%
X128104000Y-36229000D02*
X128104000Y-37171000D01*
X128104000Y-37171000D02*
X132190000Y-37171000D01*
X128469000Y-32916000D02*
X128384000Y-33343000D01*
X128658000Y-32633000D02*
X128469000Y-32916000D01*
X128941000Y-32444000D02*
X128658000Y-32633000D01*
X129268000Y-32379000D02*
X128941000Y-32444000D01*
X130550000Y-46625000D02*
X130550000Y-45725000D01*
X130550000Y-46625000D02*
X136150000Y-46625000D01*
X132068000Y-32379000D02*
X129268000Y-32379000D01*
X132190000Y-37171000D02*
X132500000Y-37112000D01*
X132500000Y-37112000D02*
X132774000Y-36942000D01*
X132506000Y-32292000D02*
X132068000Y-32379000D01*
X132774000Y-36942000D02*
X132967000Y-36684000D01*
X132850000Y-41925000D02*
X136150000Y-41925000D01*
X132873000Y-32048000D02*
X132506000Y-32292000D01*
X132967000Y-36684000D02*
X133049000Y-36386000D01*
X133049000Y-36386000D02*
X133203000Y-35828000D01*
X133117000Y-31681000D02*
X132873000Y-32048000D01*
X133203000Y-35828000D02*
X133541000Y-35375000D01*
X133204000Y-31021000D02*
X133204000Y-31243000D01*
X133204000Y-31243000D02*
X133117000Y-31681000D01*
X133541000Y-35375000D02*
X134020000Y-35076000D01*
X133737000Y-30488000D02*
X133204000Y-31021000D01*
X134020000Y-35076000D02*
X134582000Y-34971000D01*
X134079000Y-30259000D02*
X133737000Y-30488000D01*
X134482000Y-30179000D02*
X134079000Y-30259000D01*
X134582000Y-34971000D02*
X137229000Y-34971000D01*
X137229000Y-30179000D02*
X134482000Y-30179000D01*
X137229000Y-34971000D02*
X138250000Y-33950000D01*
X137460000Y-46025000D02*
X136150000Y-46625000D01*
X138166000Y-31116000D02*
X137229000Y-30179000D01*
X138350000Y-40875000D02*
X136150000Y-41925000D01*
X142750000Y-40875000D02*
X138350000Y-40875000D01*
X142750000Y-40875000D02*
X142750000Y-41825000D01*
X142750000Y-45575000D02*
X139750000Y-45575000D01*
X142750000Y-45575000D02*
X142750000Y-44625000D01*
D12*
%TO.C,D2*%
X93355600Y-49050000D02*
X92955600Y-49050000D01*
X92955600Y-49050000D02*
X92955600Y-49600000D01*
X92955600Y-49050000D02*
X92955600Y-48500000D01*
X92955600Y-49050000D02*
X92355600Y-49450000D01*
X92355600Y-49450000D02*
X92355600Y-48650000D01*
X92355600Y-49050000D02*
X91855600Y-49050000D01*
X92355600Y-48650000D02*
X92955600Y-49050000D01*
%TO.C,D30*%
X188605600Y-106200000D02*
X188205600Y-106200000D01*
X188205600Y-106200000D02*
X188205600Y-106750000D01*
X188205600Y-106200000D02*
X188205600Y-105650000D01*
X188205600Y-106200000D02*
X187605600Y-106600000D01*
X187605600Y-106600000D02*
X187605600Y-105800000D01*
X187605600Y-106200000D02*
X187105600Y-106200000D01*
X187605600Y-105800000D02*
X188205600Y-106200000D01*
D11*
%TO.C,SW30*%
X185254000Y-112429000D02*
X185254000Y-113371000D01*
X185254000Y-113371000D02*
X189340000Y-113371000D01*
X185619000Y-109116000D02*
X185534000Y-109543000D01*
X185808000Y-108833000D02*
X185619000Y-109116000D01*
X186091000Y-108644000D02*
X185808000Y-108833000D01*
X186418000Y-108579000D02*
X186091000Y-108644000D01*
X187700000Y-122825000D02*
X187700000Y-121925000D01*
X187700000Y-122825000D02*
X193300000Y-122825000D01*
X189218000Y-108579000D02*
X186418000Y-108579000D01*
X189340000Y-113371000D02*
X189650000Y-113312000D01*
X189650000Y-113312000D02*
X189924000Y-113142000D01*
X189656000Y-108492000D02*
X189218000Y-108579000D01*
X189924000Y-113142000D02*
X190117000Y-112884000D01*
X190000000Y-118125000D02*
X193300000Y-118125000D01*
X190023000Y-108248000D02*
X189656000Y-108492000D01*
X190117000Y-112884000D02*
X190199000Y-112586000D01*
X190199000Y-112586000D02*
X190353000Y-112028000D01*
X190267000Y-107881000D02*
X190023000Y-108248000D01*
X190353000Y-112028000D02*
X190691000Y-111575000D01*
X190354000Y-107221000D02*
X190354000Y-107443000D01*
X190354000Y-107443000D02*
X190267000Y-107881000D01*
X190691000Y-111575000D02*
X191170000Y-111276000D01*
X190887000Y-106688000D02*
X190354000Y-107221000D01*
X191170000Y-111276000D02*
X191732000Y-111171000D01*
X191229000Y-106459000D02*
X190887000Y-106688000D01*
X191632000Y-106379000D02*
X191229000Y-106459000D01*
X191732000Y-111171000D02*
X194379000Y-111171000D01*
X194379000Y-106379000D02*
X191632000Y-106379000D01*
X194379000Y-111171000D02*
X195400000Y-110150000D01*
X194610000Y-122225000D02*
X193300000Y-122825000D01*
X195316000Y-107316000D02*
X194379000Y-106379000D01*
X195500000Y-117075000D02*
X193300000Y-118125000D01*
X199900000Y-117075000D02*
X195500000Y-117075000D01*
X199900000Y-117075000D02*
X199900000Y-118025000D01*
X199900000Y-121775000D02*
X196900000Y-121775000D01*
X199900000Y-121775000D02*
X199900000Y-120825000D01*
D12*
%TO.C,D8*%
X112405600Y-68100000D02*
X112005600Y-68100000D01*
X112005600Y-68100000D02*
X112005600Y-68650000D01*
X112005600Y-68100000D02*
X112005600Y-67550000D01*
X112005600Y-68100000D02*
X111405600Y-68500000D01*
X111405600Y-68500000D02*
X111405600Y-67700000D01*
X111405600Y-68100000D02*
X110905600Y-68100000D01*
X111405600Y-67700000D02*
X112005600Y-68100000D01*
D11*
%TO.C,SW21*%
X166204000Y-36229000D02*
X166204000Y-37171000D01*
X166204000Y-37171000D02*
X170290000Y-37171000D01*
X166569000Y-32916000D02*
X166484000Y-33343000D01*
X166758000Y-32633000D02*
X166569000Y-32916000D01*
X167041000Y-32444000D02*
X166758000Y-32633000D01*
X167368000Y-32379000D02*
X167041000Y-32444000D01*
X168650000Y-46625000D02*
X168650000Y-45725000D01*
X168650000Y-46625000D02*
X174250000Y-46625000D01*
X170168000Y-32379000D02*
X167368000Y-32379000D01*
X170290000Y-37171000D02*
X170600000Y-37112000D01*
X170600000Y-37112000D02*
X170874000Y-36942000D01*
X170606000Y-32292000D02*
X170168000Y-32379000D01*
X170874000Y-36942000D02*
X171067000Y-36684000D01*
X170950000Y-41925000D02*
X174250000Y-41925000D01*
X170973000Y-32048000D02*
X170606000Y-32292000D01*
X171067000Y-36684000D02*
X171149000Y-36386000D01*
X171149000Y-36386000D02*
X171303000Y-35828000D01*
X171217000Y-31681000D02*
X170973000Y-32048000D01*
X171303000Y-35828000D02*
X171641000Y-35375000D01*
X171304000Y-31021000D02*
X171304000Y-31243000D01*
X171304000Y-31243000D02*
X171217000Y-31681000D01*
X171641000Y-35375000D02*
X172120000Y-35076000D01*
X171837000Y-30488000D02*
X171304000Y-31021000D01*
X172120000Y-35076000D02*
X172682000Y-34971000D01*
X172179000Y-30259000D02*
X171837000Y-30488000D01*
X172582000Y-30179000D02*
X172179000Y-30259000D01*
X172682000Y-34971000D02*
X175329000Y-34971000D01*
X175329000Y-30179000D02*
X172582000Y-30179000D01*
X175329000Y-34971000D02*
X176350000Y-33950000D01*
X175560000Y-46025000D02*
X174250000Y-46625000D01*
X176266000Y-31116000D02*
X175329000Y-30179000D01*
X176450000Y-40875000D02*
X174250000Y-41925000D01*
X180850000Y-40875000D02*
X176450000Y-40875000D01*
X180850000Y-40875000D02*
X180850000Y-41825000D01*
X180850000Y-45575000D02*
X177850000Y-45575000D01*
X180850000Y-45575000D02*
X180850000Y-44625000D01*
%TO.C,SW27*%
X185254000Y-55279000D02*
X185254000Y-56221000D01*
X185254000Y-56221000D02*
X189340000Y-56221000D01*
X185619000Y-51966000D02*
X185534000Y-52393000D01*
X185808000Y-51683000D02*
X185619000Y-51966000D01*
X186091000Y-51494000D02*
X185808000Y-51683000D01*
X186418000Y-51429000D02*
X186091000Y-51494000D01*
X187700000Y-65675000D02*
X187700000Y-64775000D01*
X187700000Y-65675000D02*
X193300000Y-65675000D01*
X189218000Y-51429000D02*
X186418000Y-51429000D01*
X189340000Y-56221000D02*
X189650000Y-56162000D01*
X189650000Y-56162000D02*
X189924000Y-55992000D01*
X189656000Y-51342000D02*
X189218000Y-51429000D01*
X189924000Y-55992000D02*
X190117000Y-55734000D01*
X190000000Y-60975000D02*
X193300000Y-60975000D01*
X190023000Y-51098000D02*
X189656000Y-51342000D01*
X190117000Y-55734000D02*
X190199000Y-55436000D01*
X190199000Y-55436000D02*
X190353000Y-54878000D01*
X190267000Y-50731000D02*
X190023000Y-51098000D01*
X190353000Y-54878000D02*
X190691000Y-54425000D01*
X190354000Y-50071000D02*
X190354000Y-50293000D01*
X190354000Y-50293000D02*
X190267000Y-50731000D01*
X190691000Y-54425000D02*
X191170000Y-54126000D01*
X190887000Y-49538000D02*
X190354000Y-50071000D01*
X191170000Y-54126000D02*
X191732000Y-54021000D01*
X191229000Y-49309000D02*
X190887000Y-49538000D01*
X191632000Y-49229000D02*
X191229000Y-49309000D01*
X191732000Y-54021000D02*
X194379000Y-54021000D01*
X194379000Y-49229000D02*
X191632000Y-49229000D01*
X194379000Y-54021000D02*
X195400000Y-53000000D01*
X194610000Y-65075000D02*
X193300000Y-65675000D01*
X195316000Y-50166000D02*
X194379000Y-49229000D01*
X195500000Y-59925000D02*
X193300000Y-60975000D01*
X199900000Y-59925000D02*
X195500000Y-59925000D01*
X199900000Y-59925000D02*
X199900000Y-60875000D01*
X199900000Y-64625000D02*
X196900000Y-64625000D01*
X199900000Y-64625000D02*
X199900000Y-63675000D01*
%TO.C,SW10*%
X109054000Y-112429000D02*
X109054000Y-113371000D01*
X109054000Y-113371000D02*
X113140000Y-113371000D01*
X109419000Y-109116000D02*
X109334000Y-109543000D01*
X109608000Y-108833000D02*
X109419000Y-109116000D01*
X109891000Y-108644000D02*
X109608000Y-108833000D01*
X110218000Y-108579000D02*
X109891000Y-108644000D01*
X111500000Y-122825000D02*
X111500000Y-121925000D01*
X111500000Y-122825000D02*
X117100000Y-122825000D01*
X113018000Y-108579000D02*
X110218000Y-108579000D01*
X113140000Y-113371000D02*
X113450000Y-113312000D01*
X113450000Y-113312000D02*
X113724000Y-113142000D01*
X113456000Y-108492000D02*
X113018000Y-108579000D01*
X113724000Y-113142000D02*
X113917000Y-112884000D01*
X113800000Y-118125000D02*
X117100000Y-118125000D01*
X113823000Y-108248000D02*
X113456000Y-108492000D01*
X113917000Y-112884000D02*
X113999000Y-112586000D01*
X113999000Y-112586000D02*
X114153000Y-112028000D01*
X114067000Y-107881000D02*
X113823000Y-108248000D01*
X114153000Y-112028000D02*
X114491000Y-111575000D01*
X114154000Y-107221000D02*
X114154000Y-107443000D01*
X114154000Y-107443000D02*
X114067000Y-107881000D01*
X114491000Y-111575000D02*
X114970000Y-111276000D01*
X114687000Y-106688000D02*
X114154000Y-107221000D01*
X114970000Y-111276000D02*
X115532000Y-111171000D01*
X115029000Y-106459000D02*
X114687000Y-106688000D01*
X115432000Y-106379000D02*
X115029000Y-106459000D01*
X115532000Y-111171000D02*
X118179000Y-111171000D01*
X118179000Y-106379000D02*
X115432000Y-106379000D01*
X118179000Y-111171000D02*
X119200000Y-110150000D01*
X118410000Y-122225000D02*
X117100000Y-122825000D01*
X119116000Y-107316000D02*
X118179000Y-106379000D01*
X119300000Y-117075000D02*
X117100000Y-118125000D01*
X123700000Y-117075000D02*
X119300000Y-117075000D01*
X123700000Y-117075000D02*
X123700000Y-118025000D01*
X123700000Y-121775000D02*
X120700000Y-121775000D01*
X123700000Y-121775000D02*
X123700000Y-120825000D01*
%TO.C,SW26*%
X185254000Y-36229000D02*
X185254000Y-37171000D01*
X185254000Y-37171000D02*
X189340000Y-37171000D01*
X185619000Y-32916000D02*
X185534000Y-33343000D01*
X185808000Y-32633000D02*
X185619000Y-32916000D01*
X186091000Y-32444000D02*
X185808000Y-32633000D01*
X186418000Y-32379000D02*
X186091000Y-32444000D01*
X187700000Y-46625000D02*
X187700000Y-45725000D01*
X187700000Y-46625000D02*
X193300000Y-46625000D01*
X189218000Y-32379000D02*
X186418000Y-32379000D01*
X189340000Y-37171000D02*
X189650000Y-37112000D01*
X189650000Y-37112000D02*
X189924000Y-36942000D01*
X189656000Y-32292000D02*
X189218000Y-32379000D01*
X189924000Y-36942000D02*
X190117000Y-36684000D01*
X190000000Y-41925000D02*
X193300000Y-41925000D01*
X190023000Y-32048000D02*
X189656000Y-32292000D01*
X190117000Y-36684000D02*
X190199000Y-36386000D01*
X190199000Y-36386000D02*
X190353000Y-35828000D01*
X190267000Y-31681000D02*
X190023000Y-32048000D01*
X190353000Y-35828000D02*
X190691000Y-35375000D01*
X190354000Y-31021000D02*
X190354000Y-31243000D01*
X190354000Y-31243000D02*
X190267000Y-31681000D01*
X190691000Y-35375000D02*
X191170000Y-35076000D01*
X190887000Y-30488000D02*
X190354000Y-31021000D01*
X191170000Y-35076000D02*
X191732000Y-34971000D01*
X191229000Y-30259000D02*
X190887000Y-30488000D01*
X191632000Y-30179000D02*
X191229000Y-30259000D01*
X191732000Y-34971000D02*
X194379000Y-34971000D01*
X194379000Y-30179000D02*
X191632000Y-30179000D01*
X194379000Y-34971000D02*
X195400000Y-33950000D01*
X194610000Y-46025000D02*
X193300000Y-46625000D01*
X195316000Y-31116000D02*
X194379000Y-30179000D01*
X195500000Y-40875000D02*
X193300000Y-41925000D01*
X199900000Y-40875000D02*
X195500000Y-40875000D01*
X199900000Y-40875000D02*
X199900000Y-41825000D01*
X199900000Y-45575000D02*
X196900000Y-45575000D01*
X199900000Y-45575000D02*
X199900000Y-44625000D01*
D12*
%TO.C,D23*%
X169685600Y-68100000D02*
X169285600Y-68100000D01*
X169285600Y-68100000D02*
X169285600Y-68650000D01*
X169285600Y-68100000D02*
X169285600Y-67550000D01*
X169285600Y-68100000D02*
X168685600Y-68500000D01*
X168685600Y-68500000D02*
X168685600Y-67700000D01*
X168685600Y-68100000D02*
X168185600Y-68100000D01*
X168685600Y-67700000D02*
X169285600Y-68100000D01*
D11*
%TO.C,JP5*%
X67327500Y-87443000D02*
X66727500Y-87443000D01*
X66027500Y-86743000D02*
X66027500Y-85343000D01*
X68027500Y-85343000D02*
X68027500Y-86743000D01*
X66727500Y-84643000D02*
X67327500Y-84643000D01*
X66027500Y-86743000D02*
G75*
G03*
X66727500Y-87443000I699999J-1D01*
G01*
X67327500Y-87443000D02*
G75*
G03*
X68027500Y-86743000I1J699999D01*
G01*
X66727500Y-84643000D02*
G75*
G03*
X66027500Y-85343000I0J-700000D01*
G01*
X68027500Y-85343000D02*
G75*
G03*
X67327500Y-84643000I-700000J0D01*
G01*
%TO.C,SW28*%
X185254000Y-74329000D02*
X185254000Y-75271000D01*
X185254000Y-75271000D02*
X189340000Y-75271000D01*
X185619000Y-71016000D02*
X185534000Y-71443000D01*
X185808000Y-70733000D02*
X185619000Y-71016000D01*
X186091000Y-70544000D02*
X185808000Y-70733000D01*
X186418000Y-70479000D02*
X186091000Y-70544000D01*
X187700000Y-84725000D02*
X187700000Y-83825000D01*
X187700000Y-84725000D02*
X193300000Y-84725000D01*
X189218000Y-70479000D02*
X186418000Y-70479000D01*
X189340000Y-75271000D02*
X189650000Y-75212000D01*
X189650000Y-75212000D02*
X189924000Y-75042000D01*
X189656000Y-70392000D02*
X189218000Y-70479000D01*
X189924000Y-75042000D02*
X190117000Y-74784000D01*
X190000000Y-80025000D02*
X193300000Y-80025000D01*
X190023000Y-70148000D02*
X189656000Y-70392000D01*
X190117000Y-74784000D02*
X190199000Y-74486000D01*
X190199000Y-74486000D02*
X190353000Y-73928000D01*
X190267000Y-69781000D02*
X190023000Y-70148000D01*
X190353000Y-73928000D02*
X190691000Y-73475000D01*
X190354000Y-69121000D02*
X190354000Y-69343000D01*
X190354000Y-69343000D02*
X190267000Y-69781000D01*
X190691000Y-73475000D02*
X191170000Y-73176000D01*
X190887000Y-68588000D02*
X190354000Y-69121000D01*
X191170000Y-73176000D02*
X191732000Y-73071000D01*
X191229000Y-68359000D02*
X190887000Y-68588000D01*
X191632000Y-68279000D02*
X191229000Y-68359000D01*
X191732000Y-73071000D02*
X194379000Y-73071000D01*
X194379000Y-68279000D02*
X191632000Y-68279000D01*
X194379000Y-73071000D02*
X195400000Y-72050000D01*
X194610000Y-84125000D02*
X193300000Y-84725000D01*
X195316000Y-69216000D02*
X194379000Y-68279000D01*
X195500000Y-78975000D02*
X193300000Y-80025000D01*
X199900000Y-78975000D02*
X195500000Y-78975000D01*
X199900000Y-78975000D02*
X199900000Y-79925000D01*
X199900000Y-83675000D02*
X196900000Y-83675000D01*
X199900000Y-83675000D02*
X199900000Y-82725000D01*
D12*
%TO.C,D14*%
X131455600Y-87150000D02*
X131055600Y-87150000D01*
X131055600Y-87150000D02*
X131055600Y-87700000D01*
X131055600Y-87150000D02*
X131055600Y-86600000D01*
X131055600Y-87150000D02*
X130455600Y-87550000D01*
X130455600Y-87550000D02*
X130455600Y-86750000D01*
X130455600Y-87150000D02*
X129955600Y-87150000D01*
X130455600Y-86750000D02*
X131055600Y-87150000D01*
%TO.C,D31*%
X73676600Y-108125000D02*
X73276600Y-108125000D01*
X73276600Y-108125000D02*
X73276600Y-108675000D01*
X73276600Y-108125000D02*
X73276600Y-107575000D01*
X73276600Y-108125000D02*
X72676600Y-108525000D01*
X72676600Y-108525000D02*
X72676600Y-107725000D01*
X72676600Y-108125000D02*
X72176600Y-108125000D01*
X72676600Y-107725000D02*
X73276600Y-108125000D01*
D11*
%TO.C,SW22*%
X166204000Y-55279000D02*
X166204000Y-56221000D01*
X166204000Y-56221000D02*
X170290000Y-56221000D01*
X166569000Y-51966000D02*
X166484000Y-52393000D01*
X166758000Y-51683000D02*
X166569000Y-51966000D01*
X167041000Y-51494000D02*
X166758000Y-51683000D01*
X167368000Y-51429000D02*
X167041000Y-51494000D01*
X168650000Y-65675000D02*
X168650000Y-64775000D01*
X168650000Y-65675000D02*
X174250000Y-65675000D01*
X170168000Y-51429000D02*
X167368000Y-51429000D01*
X170290000Y-56221000D02*
X170600000Y-56162000D01*
X170600000Y-56162000D02*
X170874000Y-55992000D01*
X170606000Y-51342000D02*
X170168000Y-51429000D01*
X170874000Y-55992000D02*
X171067000Y-55734000D01*
X170950000Y-60975000D02*
X174250000Y-60975000D01*
X170973000Y-51098000D02*
X170606000Y-51342000D01*
X171067000Y-55734000D02*
X171149000Y-55436000D01*
X171149000Y-55436000D02*
X171303000Y-54878000D01*
X171217000Y-50731000D02*
X170973000Y-51098000D01*
X171303000Y-54878000D02*
X171641000Y-54425000D01*
X171304000Y-50071000D02*
X171304000Y-50293000D01*
X171304000Y-50293000D02*
X171217000Y-50731000D01*
X171641000Y-54425000D02*
X172120000Y-54126000D01*
X171837000Y-49538000D02*
X171304000Y-50071000D01*
X172120000Y-54126000D02*
X172682000Y-54021000D01*
X172179000Y-49309000D02*
X171837000Y-49538000D01*
X172582000Y-49229000D02*
X172179000Y-49309000D01*
X172682000Y-54021000D02*
X175329000Y-54021000D01*
X175329000Y-49229000D02*
X172582000Y-49229000D01*
X175329000Y-54021000D02*
X176350000Y-53000000D01*
X175560000Y-65075000D02*
X174250000Y-65675000D01*
X176266000Y-50166000D02*
X175329000Y-49229000D01*
X176450000Y-59925000D02*
X174250000Y-60975000D01*
X180850000Y-59925000D02*
X176450000Y-59925000D01*
X180850000Y-59925000D02*
X180850000Y-60875000D01*
X180850000Y-64625000D02*
X177850000Y-64625000D01*
X180850000Y-64625000D02*
X180850000Y-63675000D01*
D12*
%TO.C,D4*%
X93355600Y-87150000D02*
X92955600Y-87150000D01*
X92955600Y-87150000D02*
X92955600Y-87700000D01*
X92955600Y-87150000D02*
X92955600Y-86600000D01*
X92955600Y-87150000D02*
X92355600Y-87550000D01*
X92355600Y-87550000D02*
X92355600Y-86750000D01*
X92355600Y-87150000D02*
X91855600Y-87150000D01*
X92355600Y-86750000D02*
X92955600Y-87150000D01*
%TO.C,D17*%
X150505600Y-49050000D02*
X150105600Y-49050000D01*
X150105600Y-49050000D02*
X150105600Y-49600000D01*
X150105600Y-49050000D02*
X150105600Y-48500000D01*
X150105600Y-49050000D02*
X149505600Y-49450000D01*
X149505600Y-49450000D02*
X149505600Y-48650000D01*
X149505600Y-49050000D02*
X149005600Y-49050000D01*
X149505600Y-48650000D02*
X150105600Y-49050000D01*
%TO.C,D13*%
X131455600Y-68100000D02*
X131055600Y-68100000D01*
X131055600Y-68100000D02*
X131055600Y-68650000D01*
X131055600Y-68100000D02*
X131055600Y-67550000D01*
X131055600Y-68100000D02*
X130455600Y-68500000D01*
X130455600Y-68500000D02*
X130455600Y-67700000D01*
X130455600Y-68100000D02*
X129955600Y-68100000D01*
X130455600Y-67700000D02*
X131055600Y-68100000D01*
%TO.C,D12*%
X131455600Y-49050000D02*
X131055600Y-49050000D01*
X131055600Y-49050000D02*
X131055600Y-49600000D01*
X131055600Y-49050000D02*
X131055600Y-48500000D01*
X131055600Y-49050000D02*
X130455600Y-49450000D01*
X130455600Y-49450000D02*
X130455600Y-48650000D01*
X130455600Y-49050000D02*
X129955600Y-49050000D01*
X130455600Y-48650000D02*
X131055600Y-49050000D01*
D11*
%TO.C,SW31*%
X55418000Y-95393000D02*
X56018000Y-95393000D01*
X55718000Y-95693000D02*
X55418000Y-95393000D01*
X56018000Y-95393000D02*
X55718000Y-95693000D01*
X57118000Y-93593000D02*
X57118000Y-105393000D01*
X61218000Y-93593000D02*
X57118000Y-93593000D01*
X61218000Y-105393000D02*
X57118000Y-105393000D01*
X62718000Y-99493000D02*
X63718000Y-99493000D01*
X63218000Y-98993000D02*
X63218000Y-99993000D01*
X65218000Y-93593000D02*
X69318000Y-93593000D01*
X69318000Y-93593000D02*
X69318000Y-95993000D01*
X69318000Y-98193000D02*
X69318000Y-100793000D01*
X69318000Y-102993000D02*
X69318000Y-105393000D01*
X69318000Y-105393000D02*
X65218000Y-105393000D01*
X66218000Y-99493000D02*
G75*
G03*
X66218000Y-99493000I-3000000J0D01*
G01*
%TO.C,SW16*%
X147154000Y-36229000D02*
X147154000Y-37171000D01*
X147154000Y-37171000D02*
X151240000Y-37171000D01*
X147519000Y-32916000D02*
X147434000Y-33343000D01*
X147708000Y-32633000D02*
X147519000Y-32916000D01*
X147991000Y-32444000D02*
X147708000Y-32633000D01*
X148318000Y-32379000D02*
X147991000Y-32444000D01*
X149600000Y-46625000D02*
X149600000Y-45725000D01*
X149600000Y-46625000D02*
X155200000Y-46625000D01*
X151118000Y-32379000D02*
X148318000Y-32379000D01*
X151240000Y-37171000D02*
X151550000Y-37112000D01*
X151550000Y-37112000D02*
X151824000Y-36942000D01*
X151556000Y-32292000D02*
X151118000Y-32379000D01*
X151824000Y-36942000D02*
X152017000Y-36684000D01*
X151900000Y-41925000D02*
X155200000Y-41925000D01*
X151923000Y-32048000D02*
X151556000Y-32292000D01*
X152017000Y-36684000D02*
X152099000Y-36386000D01*
X152099000Y-36386000D02*
X152253000Y-35828000D01*
X152167000Y-31681000D02*
X151923000Y-32048000D01*
X152253000Y-35828000D02*
X152591000Y-35375000D01*
X152254000Y-31021000D02*
X152254000Y-31243000D01*
X152254000Y-31243000D02*
X152167000Y-31681000D01*
X152591000Y-35375000D02*
X153070000Y-35076000D01*
X152787000Y-30488000D02*
X152254000Y-31021000D01*
X153070000Y-35076000D02*
X153632000Y-34971000D01*
X153129000Y-30259000D02*
X152787000Y-30488000D01*
X153532000Y-30179000D02*
X153129000Y-30259000D01*
X153632000Y-34971000D02*
X156279000Y-34971000D01*
X156279000Y-30179000D02*
X153532000Y-30179000D01*
X156279000Y-34971000D02*
X157300000Y-33950000D01*
X156510000Y-46025000D02*
X155200000Y-46625000D01*
X157216000Y-31116000D02*
X156279000Y-30179000D01*
X157400000Y-40875000D02*
X155200000Y-41925000D01*
X161800000Y-40875000D02*
X157400000Y-40875000D01*
X161800000Y-40875000D02*
X161800000Y-41825000D01*
X161800000Y-45575000D02*
X158800000Y-45575000D01*
X161800000Y-45575000D02*
X161800000Y-44625000D01*
%TO.C,R1*%
X48291000Y-83343000D02*
X49241000Y-83343000D01*
X49241000Y-82423000D02*
X49241000Y-84263000D01*
X49241000Y-84263000D02*
X53081000Y-84263000D01*
X53081000Y-82423000D02*
X49241000Y-82423000D01*
X53081000Y-84263000D02*
X53081000Y-82423000D01*
X54031000Y-83343000D02*
X53081000Y-83343000D01*
%TO.C,SW15*%
X128104000Y-112429000D02*
X128104000Y-113371000D01*
X128104000Y-113371000D02*
X132190000Y-113371000D01*
X128469000Y-109116000D02*
X128384000Y-109543000D01*
X128658000Y-108833000D02*
X128469000Y-109116000D01*
X128941000Y-108644000D02*
X128658000Y-108833000D01*
X129268000Y-108579000D02*
X128941000Y-108644000D01*
X130550000Y-122825000D02*
X130550000Y-121925000D01*
X130550000Y-122825000D02*
X136150000Y-122825000D01*
X132068000Y-108579000D02*
X129268000Y-108579000D01*
X132190000Y-113371000D02*
X132500000Y-113312000D01*
X132500000Y-113312000D02*
X132774000Y-113142000D01*
X132506000Y-108492000D02*
X132068000Y-108579000D01*
X132774000Y-113142000D02*
X132967000Y-112884000D01*
X132850000Y-118125000D02*
X136150000Y-118125000D01*
X132873000Y-108248000D02*
X132506000Y-108492000D01*
X132967000Y-112884000D02*
X133049000Y-112586000D01*
X133049000Y-112586000D02*
X133203000Y-112028000D01*
X133117000Y-107881000D02*
X132873000Y-108248000D01*
X133203000Y-112028000D02*
X133541000Y-111575000D01*
X133204000Y-107221000D02*
X133204000Y-107443000D01*
X133204000Y-107443000D02*
X133117000Y-107881000D01*
X133541000Y-111575000D02*
X134020000Y-111276000D01*
X133737000Y-106688000D02*
X133204000Y-107221000D01*
X134020000Y-111276000D02*
X134582000Y-111171000D01*
X134079000Y-106459000D02*
X133737000Y-106688000D01*
X134482000Y-106379000D02*
X134079000Y-106459000D01*
X134582000Y-111171000D02*
X137229000Y-111171000D01*
X137229000Y-106379000D02*
X134482000Y-106379000D01*
X137229000Y-111171000D02*
X138250000Y-110150000D01*
X137460000Y-122225000D02*
X136150000Y-122825000D01*
X138166000Y-107316000D02*
X137229000Y-106379000D01*
X138350000Y-117075000D02*
X136150000Y-118125000D01*
X142750000Y-117075000D02*
X138350000Y-117075000D01*
X142750000Y-117075000D02*
X142750000Y-118025000D01*
X142750000Y-121775000D02*
X139750000Y-121775000D01*
X142750000Y-121775000D02*
X142750000Y-120825000D01*
%TO.C,SW14*%
X128104000Y-93379000D02*
X128104000Y-94321000D01*
X128104000Y-94321000D02*
X132190000Y-94321000D01*
X128469000Y-90066000D02*
X128384000Y-90493000D01*
X128658000Y-89783000D02*
X128469000Y-90066000D01*
X128941000Y-89594000D02*
X128658000Y-89783000D01*
X129268000Y-89529000D02*
X128941000Y-89594000D01*
X130550000Y-103775000D02*
X130550000Y-102875000D01*
X130550000Y-103775000D02*
X136150000Y-103775000D01*
X132068000Y-89529000D02*
X129268000Y-89529000D01*
X132190000Y-94321000D02*
X132500000Y-94262000D01*
X132500000Y-94262000D02*
X132774000Y-94092000D01*
X132506000Y-89442000D02*
X132068000Y-89529000D01*
X132774000Y-94092000D02*
X132967000Y-93834000D01*
X132850000Y-99075000D02*
X136150000Y-99075000D01*
X132873000Y-89198000D02*
X132506000Y-89442000D01*
X132967000Y-93834000D02*
X133049000Y-93536000D01*
X133049000Y-93536000D02*
X133203000Y-92978000D01*
X133117000Y-88831000D02*
X132873000Y-89198000D01*
X133203000Y-92978000D02*
X133541000Y-92525000D01*
X133204000Y-88171000D02*
X133204000Y-88393000D01*
X133204000Y-88393000D02*
X133117000Y-88831000D01*
X133541000Y-92525000D02*
X134020000Y-92226000D01*
X133737000Y-87638000D02*
X133204000Y-88171000D01*
X134020000Y-92226000D02*
X134582000Y-92121000D01*
X134079000Y-87409000D02*
X133737000Y-87638000D01*
X134482000Y-87329000D02*
X134079000Y-87409000D01*
X134582000Y-92121000D02*
X137229000Y-92121000D01*
X137229000Y-87329000D02*
X134482000Y-87329000D01*
X137229000Y-92121000D02*
X138250000Y-91100000D01*
X137460000Y-103175000D02*
X136150000Y-103775000D01*
X138166000Y-88266000D02*
X137229000Y-87329000D01*
X138350000Y-98025000D02*
X136150000Y-99075000D01*
X142750000Y-98025000D02*
X138350000Y-98025000D01*
X142750000Y-98025000D02*
X142750000Y-98975000D01*
X142750000Y-102725000D02*
X139750000Y-102725000D01*
X142750000Y-102725000D02*
X142750000Y-101775000D01*
D12*
%TO.C,D19*%
X150505600Y-87150000D02*
X150105600Y-87150000D01*
X150105600Y-87150000D02*
X150105600Y-87700000D01*
X150105600Y-87150000D02*
X150105600Y-86600000D01*
X150105600Y-87150000D02*
X149505600Y-87550000D01*
X149505600Y-87550000D02*
X149505600Y-86750000D01*
X149505600Y-87150000D02*
X149005600Y-87150000D01*
X149505600Y-86750000D02*
X150105600Y-87150000D01*
%TO.C,D21*%
X169555600Y-30000000D02*
X169155600Y-30000000D01*
X169155600Y-30000000D02*
X169155600Y-30550000D01*
X169155600Y-30000000D02*
X169155600Y-29450000D01*
X169155600Y-30000000D02*
X168555600Y-30400000D01*
X168555600Y-30400000D02*
X168555600Y-29600000D01*
X168555600Y-30000000D02*
X168055600Y-30000000D01*
X168555600Y-29600000D02*
X169155600Y-30000000D01*
D11*
%TO.C,SW20*%
X147154000Y-112429000D02*
X147154000Y-113371000D01*
X147154000Y-113371000D02*
X151240000Y-113371000D01*
X147519000Y-109116000D02*
X147434000Y-109543000D01*
X147708000Y-108833000D02*
X147519000Y-109116000D01*
X147991000Y-108644000D02*
X147708000Y-108833000D01*
X148318000Y-108579000D02*
X147991000Y-108644000D01*
X149600000Y-122825000D02*
X149600000Y-121925000D01*
X149600000Y-122825000D02*
X155200000Y-122825000D01*
X151118000Y-108579000D02*
X148318000Y-108579000D01*
X151240000Y-113371000D02*
X151550000Y-113312000D01*
X151550000Y-113312000D02*
X151824000Y-113142000D01*
X151556000Y-108492000D02*
X151118000Y-108579000D01*
X151824000Y-113142000D02*
X152017000Y-112884000D01*
X151900000Y-118125000D02*
X155200000Y-118125000D01*
X151923000Y-108248000D02*
X151556000Y-108492000D01*
X152017000Y-112884000D02*
X152099000Y-112586000D01*
X152099000Y-112586000D02*
X152253000Y-112028000D01*
X152167000Y-107881000D02*
X151923000Y-108248000D01*
X152253000Y-112028000D02*
X152591000Y-111575000D01*
X152254000Y-107221000D02*
X152254000Y-107443000D01*
X152254000Y-107443000D02*
X152167000Y-107881000D01*
X152591000Y-111575000D02*
X153070000Y-111276000D01*
X152787000Y-106688000D02*
X152254000Y-107221000D01*
X153070000Y-111276000D02*
X153632000Y-111171000D01*
X153129000Y-106459000D02*
X152787000Y-106688000D01*
X153532000Y-106379000D02*
X153129000Y-106459000D01*
X153632000Y-111171000D02*
X156279000Y-111171000D01*
X156279000Y-106379000D02*
X153532000Y-106379000D01*
X156279000Y-111171000D02*
X157300000Y-110150000D01*
X156510000Y-122225000D02*
X155200000Y-122825000D01*
X157216000Y-107316000D02*
X156279000Y-106379000D01*
X157400000Y-117075000D02*
X155200000Y-118125000D01*
X161800000Y-117075000D02*
X157400000Y-117075000D01*
X161800000Y-117075000D02*
X161800000Y-118025000D01*
X161800000Y-121775000D02*
X158800000Y-121775000D01*
X161800000Y-121775000D02*
X161800000Y-120825000D01*
%TO.C,JP7*%
X62247500Y-87443000D02*
X61647500Y-87443000D01*
X60947500Y-86743000D02*
X60947500Y-85343000D01*
X62947500Y-85343000D02*
X62947500Y-86743000D01*
X61647500Y-84643000D02*
X62247500Y-84643000D01*
X60947500Y-86743000D02*
G75*
G03*
X61647500Y-87443000I699999J-1D01*
G01*
X62247500Y-87443000D02*
G75*
G03*
X62947500Y-86743000I1J699999D01*
G01*
X61647500Y-84643000D02*
G75*
G03*
X60947500Y-85343000I0J-700000D01*
G01*
X62947500Y-85343000D02*
G75*
G03*
X62247500Y-84643000I-700000J0D01*
G01*
%TO.C,JP1*%
X75944000Y-46250000D02*
X75944000Y-43450000D01*
X77944000Y-46250000D02*
X75944000Y-46250000D01*
X75944000Y-43450000D02*
X77944000Y-43450000D01*
X77944000Y-43450000D02*
X77944000Y-46250000D01*
%TO.C,JP2*%
X78484000Y-46250000D02*
X78484000Y-43450000D01*
X80484000Y-46250000D02*
X78484000Y-46250000D01*
X78484000Y-43450000D02*
X80484000Y-43450000D01*
X80484000Y-43450000D02*
X80484000Y-46250000D01*
D10*
%TO.C,RST1*%
X47751000Y-29223000D02*
X47751000Y-29473000D01*
X47751000Y-29223000D02*
X53451000Y-29223000D01*
X47751000Y-32423000D02*
X47751000Y-32173000D01*
X47751000Y-32423000D02*
X53451000Y-32423000D01*
X53451000Y-29223000D02*
X53451000Y-29473000D01*
X53451000Y-32423000D02*
X53451000Y-32173000D01*
D11*
%TO.C,SW17*%
X147154000Y-55279000D02*
X147154000Y-56221000D01*
X147154000Y-56221000D02*
X151240000Y-56221000D01*
X147519000Y-51966000D02*
X147434000Y-52393000D01*
X147708000Y-51683000D02*
X147519000Y-51966000D01*
X147991000Y-51494000D02*
X147708000Y-51683000D01*
X148318000Y-51429000D02*
X147991000Y-51494000D01*
X149600000Y-65675000D02*
X149600000Y-64775000D01*
X149600000Y-65675000D02*
X155200000Y-65675000D01*
X151118000Y-51429000D02*
X148318000Y-51429000D01*
X151240000Y-56221000D02*
X151550000Y-56162000D01*
X151550000Y-56162000D02*
X151824000Y-55992000D01*
X151556000Y-51342000D02*
X151118000Y-51429000D01*
X151824000Y-55992000D02*
X152017000Y-55734000D01*
X151900000Y-60975000D02*
X155200000Y-60975000D01*
X151923000Y-51098000D02*
X151556000Y-51342000D01*
X152017000Y-55734000D02*
X152099000Y-55436000D01*
X152099000Y-55436000D02*
X152253000Y-54878000D01*
X152167000Y-50731000D02*
X151923000Y-51098000D01*
X152253000Y-54878000D02*
X152591000Y-54425000D01*
X152254000Y-50071000D02*
X152254000Y-50293000D01*
X152254000Y-50293000D02*
X152167000Y-50731000D01*
X152591000Y-54425000D02*
X153070000Y-54126000D01*
X152787000Y-49538000D02*
X152254000Y-50071000D01*
X153070000Y-54126000D02*
X153632000Y-54021000D01*
X153129000Y-49309000D02*
X152787000Y-49538000D01*
X153532000Y-49229000D02*
X153129000Y-49309000D01*
X153632000Y-54021000D02*
X156279000Y-54021000D01*
X156279000Y-49229000D02*
X153532000Y-49229000D01*
X156279000Y-54021000D02*
X157300000Y-53000000D01*
X156510000Y-65075000D02*
X155200000Y-65675000D01*
X157216000Y-50166000D02*
X156279000Y-49229000D01*
X157400000Y-59925000D02*
X155200000Y-60975000D01*
X161800000Y-59925000D02*
X157400000Y-59925000D01*
X161800000Y-59925000D02*
X161800000Y-60875000D01*
X161800000Y-64625000D02*
X158800000Y-64625000D01*
X161800000Y-64625000D02*
X161800000Y-63675000D01*
D12*
%TO.C,D3*%
X93355600Y-68100000D02*
X92955600Y-68100000D01*
X92955600Y-68100000D02*
X92955600Y-68650000D01*
X92955600Y-68100000D02*
X92955600Y-67550000D01*
X92955600Y-68100000D02*
X92355600Y-68500000D01*
X92355600Y-68500000D02*
X92355600Y-67700000D01*
X92355600Y-68100000D02*
X91855600Y-68100000D01*
X92355600Y-67700000D02*
X92955600Y-68100000D01*
D11*
%TO.C,SW6*%
X109054000Y-36229000D02*
X109054000Y-37171000D01*
X109054000Y-37171000D02*
X113140000Y-37171000D01*
X109419000Y-32916000D02*
X109334000Y-33343000D01*
X109608000Y-32633000D02*
X109419000Y-32916000D01*
X109891000Y-32444000D02*
X109608000Y-32633000D01*
X110218000Y-32379000D02*
X109891000Y-32444000D01*
X111500000Y-46625000D02*
X111500000Y-45725000D01*
X111500000Y-46625000D02*
X117100000Y-46625000D01*
X113018000Y-32379000D02*
X110218000Y-32379000D01*
X113140000Y-37171000D02*
X113450000Y-37112000D01*
X113450000Y-37112000D02*
X113724000Y-36942000D01*
X113456000Y-32292000D02*
X113018000Y-32379000D01*
X113724000Y-36942000D02*
X113917000Y-36684000D01*
X113800000Y-41925000D02*
X117100000Y-41925000D01*
X113823000Y-32048000D02*
X113456000Y-32292000D01*
X113917000Y-36684000D02*
X113999000Y-36386000D01*
X113999000Y-36386000D02*
X114153000Y-35828000D01*
X114067000Y-31681000D02*
X113823000Y-32048000D01*
X114153000Y-35828000D02*
X114491000Y-35375000D01*
X114154000Y-31021000D02*
X114154000Y-31243000D01*
X114154000Y-31243000D02*
X114067000Y-31681000D01*
X114491000Y-35375000D02*
X114970000Y-35076000D01*
X114687000Y-30488000D02*
X114154000Y-31021000D01*
X114970000Y-35076000D02*
X115532000Y-34971000D01*
X115029000Y-30259000D02*
X114687000Y-30488000D01*
X115432000Y-30179000D02*
X115029000Y-30259000D01*
X115532000Y-34971000D02*
X118179000Y-34971000D01*
X118179000Y-30179000D02*
X115432000Y-30179000D01*
X118179000Y-34971000D02*
X119200000Y-33950000D01*
X118410000Y-46025000D02*
X117100000Y-46625000D01*
X119116000Y-31116000D02*
X118179000Y-30179000D01*
X119300000Y-40875000D02*
X117100000Y-41925000D01*
X123700000Y-40875000D02*
X119300000Y-40875000D01*
X123700000Y-40875000D02*
X123700000Y-41825000D01*
X123700000Y-45575000D02*
X120700000Y-45575000D01*
X123700000Y-45575000D02*
X123700000Y-44625000D01*
%TO.C,SW13*%
X128104000Y-74329000D02*
X128104000Y-75271000D01*
X128104000Y-75271000D02*
X132190000Y-75271000D01*
X128469000Y-71016000D02*
X128384000Y-71443000D01*
X128658000Y-70733000D02*
X128469000Y-71016000D01*
X128941000Y-70544000D02*
X128658000Y-70733000D01*
X129268000Y-70479000D02*
X128941000Y-70544000D01*
X130550000Y-84725000D02*
X130550000Y-83825000D01*
X130550000Y-84725000D02*
X136150000Y-84725000D01*
X132068000Y-70479000D02*
X129268000Y-70479000D01*
X132190000Y-75271000D02*
X132500000Y-75212000D01*
X132500000Y-75212000D02*
X132774000Y-75042000D01*
X132506000Y-70392000D02*
X132068000Y-70479000D01*
X132774000Y-75042000D02*
X132967000Y-74784000D01*
X132850000Y-80025000D02*
X136150000Y-80025000D01*
X132873000Y-70148000D02*
X132506000Y-70392000D01*
X132967000Y-74784000D02*
X133049000Y-74486000D01*
X133049000Y-74486000D02*
X133203000Y-73928000D01*
X133117000Y-69781000D02*
X132873000Y-70148000D01*
X133203000Y-73928000D02*
X133541000Y-73475000D01*
X133204000Y-69121000D02*
X133204000Y-69343000D01*
X133204000Y-69343000D02*
X133117000Y-69781000D01*
X133541000Y-73475000D02*
X134020000Y-73176000D01*
X133737000Y-68588000D02*
X133204000Y-69121000D01*
X134020000Y-73176000D02*
X134582000Y-73071000D01*
X134079000Y-68359000D02*
X133737000Y-68588000D01*
X134482000Y-68279000D02*
X134079000Y-68359000D01*
X134582000Y-73071000D02*
X137229000Y-73071000D01*
X137229000Y-68279000D02*
X134482000Y-68279000D01*
X137229000Y-73071000D02*
X138250000Y-72050000D01*
X137460000Y-84125000D02*
X136150000Y-84725000D01*
X138166000Y-69216000D02*
X137229000Y-68279000D01*
X138350000Y-78975000D02*
X136150000Y-80025000D01*
X142750000Y-78975000D02*
X138350000Y-78975000D01*
X142750000Y-78975000D02*
X142750000Y-79925000D01*
X142750000Y-83675000D02*
X139750000Y-83675000D01*
X142750000Y-83675000D02*
X142750000Y-82725000D01*
D12*
%TO.C,D18*%
X150505600Y-68100000D02*
X150105600Y-68100000D01*
X150105600Y-68100000D02*
X150105600Y-68650000D01*
X150105600Y-68100000D02*
X150105600Y-67550000D01*
X150105600Y-68100000D02*
X149505600Y-68500000D01*
X149505600Y-68500000D02*
X149505600Y-67700000D01*
X149505600Y-68100000D02*
X149005600Y-68100000D01*
X149505600Y-67700000D02*
X150105600Y-68100000D01*
D11*
%TO.C,SW24*%
X166204000Y-93379000D02*
X166204000Y-94321000D01*
X166204000Y-94321000D02*
X170290000Y-94321000D01*
X166569000Y-90066000D02*
X166484000Y-90493000D01*
X166758000Y-89783000D02*
X166569000Y-90066000D01*
X167041000Y-89594000D02*
X166758000Y-89783000D01*
X167368000Y-89529000D02*
X167041000Y-89594000D01*
X168650000Y-103775000D02*
X168650000Y-102875000D01*
X168650000Y-103775000D02*
X174250000Y-103775000D01*
X170168000Y-89529000D02*
X167368000Y-89529000D01*
X170290000Y-94321000D02*
X170600000Y-94262000D01*
X170600000Y-94262000D02*
X170874000Y-94092000D01*
X170606000Y-89442000D02*
X170168000Y-89529000D01*
X170874000Y-94092000D02*
X171067000Y-93834000D01*
X170950000Y-99075000D02*
X174250000Y-99075000D01*
X170973000Y-89198000D02*
X170606000Y-89442000D01*
X171067000Y-93834000D02*
X171149000Y-93536000D01*
X171149000Y-93536000D02*
X171303000Y-92978000D01*
X171217000Y-88831000D02*
X170973000Y-89198000D01*
X171303000Y-92978000D02*
X171641000Y-92525000D01*
X171304000Y-88171000D02*
X171304000Y-88393000D01*
X171304000Y-88393000D02*
X171217000Y-88831000D01*
X171641000Y-92525000D02*
X172120000Y-92226000D01*
X171837000Y-87638000D02*
X171304000Y-88171000D01*
X172120000Y-92226000D02*
X172682000Y-92121000D01*
X172179000Y-87409000D02*
X171837000Y-87638000D01*
X172582000Y-87329000D02*
X172179000Y-87409000D01*
X172682000Y-92121000D02*
X175329000Y-92121000D01*
X175329000Y-87329000D02*
X172582000Y-87329000D01*
X175329000Y-92121000D02*
X176350000Y-91100000D01*
X175560000Y-103175000D02*
X174250000Y-103775000D01*
X176266000Y-88266000D02*
X175329000Y-87329000D01*
X176450000Y-98025000D02*
X174250000Y-99075000D01*
X180850000Y-98025000D02*
X176450000Y-98025000D01*
X180850000Y-98025000D02*
X180850000Y-98975000D01*
X180850000Y-102725000D02*
X177850000Y-102725000D01*
X180850000Y-102725000D02*
X180850000Y-101775000D01*
%TO.C,SW18*%
X147154000Y-74329000D02*
X147154000Y-75271000D01*
X147154000Y-75271000D02*
X151240000Y-75271000D01*
X147519000Y-71016000D02*
X147434000Y-71443000D01*
X147708000Y-70733000D02*
X147519000Y-71016000D01*
X147991000Y-70544000D02*
X147708000Y-70733000D01*
X148318000Y-70479000D02*
X147991000Y-70544000D01*
X149600000Y-84725000D02*
X149600000Y-83825000D01*
X149600000Y-84725000D02*
X155200000Y-84725000D01*
X151118000Y-70479000D02*
X148318000Y-70479000D01*
X151240000Y-75271000D02*
X151550000Y-75212000D01*
X151550000Y-75212000D02*
X151824000Y-75042000D01*
X151556000Y-70392000D02*
X151118000Y-70479000D01*
X151824000Y-75042000D02*
X152017000Y-74784000D01*
X151900000Y-80025000D02*
X155200000Y-80025000D01*
X151923000Y-70148000D02*
X151556000Y-70392000D01*
X152017000Y-74784000D02*
X152099000Y-74486000D01*
X152099000Y-74486000D02*
X152253000Y-73928000D01*
X152167000Y-69781000D02*
X151923000Y-70148000D01*
X152253000Y-73928000D02*
X152591000Y-73475000D01*
X152254000Y-69121000D02*
X152254000Y-69343000D01*
X152254000Y-69343000D02*
X152167000Y-69781000D01*
X152591000Y-73475000D02*
X153070000Y-73176000D01*
X152787000Y-68588000D02*
X152254000Y-69121000D01*
X153070000Y-73176000D02*
X153632000Y-73071000D01*
X153129000Y-68359000D02*
X152787000Y-68588000D01*
X153532000Y-68279000D02*
X153129000Y-68359000D01*
X153632000Y-73071000D02*
X156279000Y-73071000D01*
X156279000Y-68279000D02*
X153532000Y-68279000D01*
X156279000Y-73071000D02*
X157300000Y-72050000D01*
X156510000Y-84125000D02*
X155200000Y-84725000D01*
X157216000Y-69216000D02*
X156279000Y-68279000D01*
X157400000Y-78975000D02*
X155200000Y-80025000D01*
X161800000Y-78975000D02*
X157400000Y-78975000D01*
X161800000Y-78975000D02*
X161800000Y-79925000D01*
X161800000Y-83675000D02*
X158800000Y-83675000D01*
X161800000Y-83675000D02*
X161800000Y-82725000D01*
D12*
%TO.C,D9*%
X112405600Y-87150000D02*
X112005600Y-87150000D01*
X112005600Y-87150000D02*
X112005600Y-87700000D01*
X112005600Y-87150000D02*
X112005600Y-86600000D01*
X112005600Y-87150000D02*
X111405600Y-87550000D01*
X111405600Y-87550000D02*
X111405600Y-86750000D01*
X111405600Y-87150000D02*
X110905600Y-87150000D01*
X111405600Y-86750000D02*
X112005600Y-87150000D01*
D11*
%TO.C,SW12*%
X128104000Y-55279000D02*
X128104000Y-56221000D01*
X128104000Y-56221000D02*
X132190000Y-56221000D01*
X128469000Y-51966000D02*
X128384000Y-52393000D01*
X128658000Y-51683000D02*
X128469000Y-51966000D01*
X128941000Y-51494000D02*
X128658000Y-51683000D01*
X129268000Y-51429000D02*
X128941000Y-51494000D01*
X130550000Y-65675000D02*
X130550000Y-64775000D01*
X130550000Y-65675000D02*
X136150000Y-65675000D01*
X132068000Y-51429000D02*
X129268000Y-51429000D01*
X132190000Y-56221000D02*
X132500000Y-56162000D01*
X132500000Y-56162000D02*
X132774000Y-55992000D01*
X132506000Y-51342000D02*
X132068000Y-51429000D01*
X132774000Y-55992000D02*
X132967000Y-55734000D01*
X132850000Y-60975000D02*
X136150000Y-60975000D01*
X132873000Y-51098000D02*
X132506000Y-51342000D01*
X132967000Y-55734000D02*
X133049000Y-55436000D01*
X133049000Y-55436000D02*
X133203000Y-54878000D01*
X133117000Y-50731000D02*
X132873000Y-51098000D01*
X133203000Y-54878000D02*
X133541000Y-54425000D01*
X133204000Y-50071000D02*
X133204000Y-50293000D01*
X133204000Y-50293000D02*
X133117000Y-50731000D01*
X133541000Y-54425000D02*
X134020000Y-54126000D01*
X133737000Y-49538000D02*
X133204000Y-50071000D01*
X134020000Y-54126000D02*
X134582000Y-54021000D01*
X134079000Y-49309000D02*
X133737000Y-49538000D01*
X134482000Y-49229000D02*
X134079000Y-49309000D01*
X134582000Y-54021000D02*
X137229000Y-54021000D01*
X137229000Y-49229000D02*
X134482000Y-49229000D01*
X137229000Y-54021000D02*
X138250000Y-53000000D01*
X137460000Y-65075000D02*
X136150000Y-65675000D01*
X138166000Y-50166000D02*
X137229000Y-49229000D01*
X138350000Y-59925000D02*
X136150000Y-60975000D01*
X142750000Y-59925000D02*
X138350000Y-59925000D01*
X142750000Y-59925000D02*
X142750000Y-60875000D01*
X142750000Y-64625000D02*
X139750000Y-64625000D01*
X142750000Y-64625000D02*
X142750000Y-63675000D01*
D12*
%TO.C,D10*%
X112405600Y-106200000D02*
X112005600Y-106200000D01*
X112005600Y-106200000D02*
X112005600Y-106750000D01*
X112005600Y-106200000D02*
X112005600Y-105650000D01*
X112005600Y-106200000D02*
X111405600Y-106600000D01*
X111405600Y-106600000D02*
X111405600Y-105800000D01*
X111405600Y-106200000D02*
X110905600Y-106200000D01*
X111405600Y-105800000D02*
X112005600Y-106200000D01*
%TO.C,D11*%
X131455600Y-30000000D02*
X131055600Y-30000000D01*
X131055600Y-30000000D02*
X131055600Y-30550000D01*
X131055600Y-30000000D02*
X131055600Y-29450000D01*
X131055600Y-30000000D02*
X130455600Y-30400000D01*
X130455600Y-30400000D02*
X130455600Y-29600000D01*
X130455600Y-30000000D02*
X129955600Y-30000000D01*
X130455600Y-29600000D02*
X131055600Y-30000000D01*
%TO.C,D29*%
X188605600Y-87150000D02*
X188205600Y-87150000D01*
X188205600Y-87150000D02*
X188205600Y-87700000D01*
X188205600Y-87150000D02*
X188205600Y-86600000D01*
X188205600Y-87150000D02*
X187605600Y-87550000D01*
X187605600Y-87550000D02*
X187605600Y-86750000D01*
X187605600Y-87150000D02*
X187105600Y-87150000D01*
X187605600Y-86750000D02*
X188205600Y-87150000D01*
D11*
%TO.C,SW7*%
X109054000Y-55279000D02*
X109054000Y-56221000D01*
X109054000Y-56221000D02*
X113140000Y-56221000D01*
X109419000Y-51966000D02*
X109334000Y-52393000D01*
X109608000Y-51683000D02*
X109419000Y-51966000D01*
X109891000Y-51494000D02*
X109608000Y-51683000D01*
X110218000Y-51429000D02*
X109891000Y-51494000D01*
X111500000Y-65675000D02*
X111500000Y-64775000D01*
X111500000Y-65675000D02*
X117100000Y-65675000D01*
X113018000Y-51429000D02*
X110218000Y-51429000D01*
X113140000Y-56221000D02*
X113450000Y-56162000D01*
X113450000Y-56162000D02*
X113724000Y-55992000D01*
X113456000Y-51342000D02*
X113018000Y-51429000D01*
X113724000Y-55992000D02*
X113917000Y-55734000D01*
X113800000Y-60975000D02*
X117100000Y-60975000D01*
X113823000Y-51098000D02*
X113456000Y-51342000D01*
X113917000Y-55734000D02*
X113999000Y-55436000D01*
X113999000Y-55436000D02*
X114153000Y-54878000D01*
X114067000Y-50731000D02*
X113823000Y-51098000D01*
X114153000Y-54878000D02*
X114491000Y-54425000D01*
X114154000Y-50071000D02*
X114154000Y-50293000D01*
X114154000Y-50293000D02*
X114067000Y-50731000D01*
X114491000Y-54425000D02*
X114970000Y-54126000D01*
X114687000Y-49538000D02*
X114154000Y-50071000D01*
X114970000Y-54126000D02*
X115532000Y-54021000D01*
X115029000Y-49309000D02*
X114687000Y-49538000D01*
X115432000Y-49229000D02*
X115029000Y-49309000D01*
X115532000Y-54021000D02*
X118179000Y-54021000D01*
X118179000Y-49229000D02*
X115432000Y-49229000D01*
X118179000Y-54021000D02*
X119200000Y-53000000D01*
X118410000Y-65075000D02*
X117100000Y-65675000D01*
X119116000Y-50166000D02*
X118179000Y-49229000D01*
X119300000Y-59925000D02*
X117100000Y-60975000D01*
X123700000Y-59925000D02*
X119300000Y-59925000D01*
X123700000Y-59925000D02*
X123700000Y-60875000D01*
X123700000Y-64625000D02*
X120700000Y-64625000D01*
X123700000Y-64625000D02*
X123700000Y-63675000D01*
%TO.C,J2*%
X58571000Y-108793000D02*
X58571000Y-110133000D01*
X58571000Y-112853000D02*
X58571000Y-114593000D01*
X58571000Y-114593000D02*
X67871000Y-114593000D01*
X60061000Y-108793000D02*
X58571000Y-108793000D01*
X60061000Y-108793000D02*
X60061000Y-107593000D01*
X66381000Y-108793000D02*
X67871000Y-108793000D01*
X67871000Y-108793000D02*
X67871000Y-110133000D01*
X67871000Y-114593000D02*
X67871000Y-112853000D01*
D12*
%TO.C,D5*%
X93355600Y-106200000D02*
X92955600Y-106200000D01*
X92955600Y-106200000D02*
X92955600Y-106750000D01*
X92955600Y-106200000D02*
X92955600Y-105650000D01*
X92955600Y-106200000D02*
X92355600Y-106600000D01*
X92355600Y-106600000D02*
X92355600Y-105800000D01*
X92355600Y-106200000D02*
X91855600Y-106200000D01*
X92355600Y-105800000D02*
X92955600Y-106200000D01*
D11*
%TO.C,R2*%
X48291000Y-80803000D02*
X49241000Y-80803000D01*
X49241000Y-79883000D02*
X49241000Y-81723000D01*
X49241000Y-81723000D02*
X53081000Y-81723000D01*
X53081000Y-79883000D02*
X49241000Y-79883000D01*
X53081000Y-81723000D02*
X53081000Y-79883000D01*
X54031000Y-80803000D02*
X53081000Y-80803000D01*
D12*
%TO.C,D26*%
X188605600Y-30000000D02*
X188205600Y-30000000D01*
X188205600Y-30000000D02*
X188205600Y-30550000D01*
X188205600Y-30000000D02*
X188205600Y-29450000D01*
X188205600Y-30000000D02*
X187605600Y-30400000D01*
X187605600Y-30400000D02*
X187605600Y-29600000D01*
X187605600Y-30000000D02*
X187105600Y-30000000D01*
X187605600Y-29600000D02*
X188205600Y-30000000D01*
D11*
%TO.C,SW25*%
X166204000Y-112429000D02*
X166204000Y-113371000D01*
X166204000Y-113371000D02*
X170290000Y-113371000D01*
X166569000Y-109116000D02*
X166484000Y-109543000D01*
X166758000Y-108833000D02*
X166569000Y-109116000D01*
X167041000Y-108644000D02*
X166758000Y-108833000D01*
X167368000Y-108579000D02*
X167041000Y-108644000D01*
X168650000Y-122825000D02*
X168650000Y-121925000D01*
X168650000Y-122825000D02*
X174250000Y-122825000D01*
X170168000Y-108579000D02*
X167368000Y-108579000D01*
X170290000Y-113371000D02*
X170600000Y-113312000D01*
X170600000Y-113312000D02*
X170874000Y-113142000D01*
X170606000Y-108492000D02*
X170168000Y-108579000D01*
X170874000Y-113142000D02*
X171067000Y-112884000D01*
X170950000Y-118125000D02*
X174250000Y-118125000D01*
X170973000Y-108248000D02*
X170606000Y-108492000D01*
X171067000Y-112884000D02*
X171149000Y-112586000D01*
X171149000Y-112586000D02*
X171303000Y-112028000D01*
X171217000Y-107881000D02*
X170973000Y-108248000D01*
X171303000Y-112028000D02*
X171641000Y-111575000D01*
X171304000Y-107221000D02*
X171304000Y-107443000D01*
X171304000Y-107443000D02*
X171217000Y-107881000D01*
X171641000Y-111575000D02*
X172120000Y-111276000D01*
X171837000Y-106688000D02*
X171304000Y-107221000D01*
X172120000Y-111276000D02*
X172682000Y-111171000D01*
X172179000Y-106459000D02*
X171837000Y-106688000D01*
X172582000Y-106379000D02*
X172179000Y-106459000D01*
X172682000Y-111171000D02*
X175329000Y-111171000D01*
X175329000Y-106379000D02*
X172582000Y-106379000D01*
X175329000Y-111171000D02*
X176350000Y-110150000D01*
X175560000Y-122225000D02*
X174250000Y-122825000D01*
X176266000Y-107316000D02*
X175329000Y-106379000D01*
X176450000Y-117075000D02*
X174250000Y-118125000D01*
X180850000Y-117075000D02*
X176450000Y-117075000D01*
X180850000Y-117075000D02*
X180850000Y-118025000D01*
X180850000Y-121775000D02*
X177850000Y-121775000D01*
X180850000Y-121775000D02*
X180850000Y-120825000D01*
D12*
%TO.C,D6*%
X112405600Y-30000000D02*
X112005600Y-30000000D01*
X112005600Y-30000000D02*
X112005600Y-30550000D01*
X112005600Y-30000000D02*
X112005600Y-29450000D01*
X112005600Y-30000000D02*
X111405600Y-30400000D01*
X111405600Y-30400000D02*
X111405600Y-29600000D01*
X111405600Y-30000000D02*
X110905600Y-30000000D01*
X111405600Y-29600000D02*
X112005600Y-30000000D01*
D11*
%TO.C,SW2*%
X90004000Y-55279000D02*
X90004000Y-56221000D01*
X90004000Y-56221000D02*
X94090000Y-56221000D01*
X90369000Y-51966000D02*
X90284000Y-52393000D01*
X90558000Y-51683000D02*
X90369000Y-51966000D01*
X90841000Y-51494000D02*
X90558000Y-51683000D01*
X91168000Y-51429000D02*
X90841000Y-51494000D01*
X92450000Y-65675000D02*
X92450000Y-64775000D01*
X92450000Y-65675000D02*
X98050000Y-65675000D01*
X93968000Y-51429000D02*
X91168000Y-51429000D01*
X94090000Y-56221000D02*
X94400000Y-56162000D01*
X94400000Y-56162000D02*
X94674000Y-55992000D01*
X94406000Y-51342000D02*
X93968000Y-51429000D01*
X94674000Y-55992000D02*
X94867000Y-55734000D01*
X94750000Y-60975000D02*
X98050000Y-60975000D01*
X94773000Y-51098000D02*
X94406000Y-51342000D01*
X94867000Y-55734000D02*
X94949000Y-55436000D01*
X94949000Y-55436000D02*
X95103000Y-54878000D01*
X95017000Y-50731000D02*
X94773000Y-51098000D01*
X95103000Y-54878000D02*
X95441000Y-54425000D01*
X95104000Y-50071000D02*
X95104000Y-50293000D01*
X95104000Y-50293000D02*
X95017000Y-50731000D01*
X95441000Y-54425000D02*
X95920000Y-54126000D01*
X95637000Y-49538000D02*
X95104000Y-50071000D01*
X95920000Y-54126000D02*
X96482000Y-54021000D01*
X95979000Y-49309000D02*
X95637000Y-49538000D01*
X96382000Y-49229000D02*
X95979000Y-49309000D01*
X96482000Y-54021000D02*
X99129000Y-54021000D01*
X99129000Y-49229000D02*
X96382000Y-49229000D01*
X99129000Y-54021000D02*
X100150000Y-53000000D01*
X99360000Y-65075000D02*
X98050000Y-65675000D01*
X100066000Y-50166000D02*
X99129000Y-49229000D01*
X100250000Y-59925000D02*
X98050000Y-60975000D01*
X104650000Y-59925000D02*
X100250000Y-59925000D01*
X104650000Y-59925000D02*
X104650000Y-60875000D01*
X104650000Y-64625000D02*
X101650000Y-64625000D01*
X104650000Y-64625000D02*
X104650000Y-63675000D01*
D12*
%TO.C,D28*%
X188605600Y-68100000D02*
X188205600Y-68100000D01*
X188205600Y-68100000D02*
X188205600Y-68650000D01*
X188205600Y-68100000D02*
X188205600Y-67550000D01*
X188205600Y-68100000D02*
X187605600Y-68500000D01*
X187605600Y-68500000D02*
X187605600Y-67700000D01*
X187605600Y-68100000D02*
X187105600Y-68100000D01*
X187605600Y-67700000D02*
X188205600Y-68100000D01*
D11*
%TO.C,SW29*%
X185254000Y-93379000D02*
X185254000Y-94321000D01*
X185254000Y-94321000D02*
X189340000Y-94321000D01*
X185619000Y-90066000D02*
X185534000Y-90493000D01*
X185808000Y-89783000D02*
X185619000Y-90066000D01*
X186091000Y-89594000D02*
X185808000Y-89783000D01*
X186418000Y-89529000D02*
X186091000Y-89594000D01*
X187700000Y-103775000D02*
X187700000Y-102875000D01*
X187700000Y-103775000D02*
X193300000Y-103775000D01*
X189218000Y-89529000D02*
X186418000Y-89529000D01*
X189340000Y-94321000D02*
X189650000Y-94262000D01*
X189650000Y-94262000D02*
X189924000Y-94092000D01*
X189656000Y-89442000D02*
X189218000Y-89529000D01*
X189924000Y-94092000D02*
X190117000Y-93834000D01*
X190000000Y-99075000D02*
X193300000Y-99075000D01*
X190023000Y-89198000D02*
X189656000Y-89442000D01*
X190117000Y-93834000D02*
X190199000Y-93536000D01*
X190199000Y-93536000D02*
X190353000Y-92978000D01*
X190267000Y-88831000D02*
X190023000Y-89198000D01*
X190353000Y-92978000D02*
X190691000Y-92525000D01*
X190354000Y-88171000D02*
X190354000Y-88393000D01*
X190354000Y-88393000D02*
X190267000Y-88831000D01*
X190691000Y-92525000D02*
X191170000Y-92226000D01*
X190887000Y-87638000D02*
X190354000Y-88171000D01*
X191170000Y-92226000D02*
X191732000Y-92121000D01*
X191229000Y-87409000D02*
X190887000Y-87638000D01*
X191632000Y-87329000D02*
X191229000Y-87409000D01*
X191732000Y-92121000D02*
X194379000Y-92121000D01*
X194379000Y-87329000D02*
X191632000Y-87329000D01*
X194379000Y-92121000D02*
X195400000Y-91100000D01*
X194610000Y-103175000D02*
X193300000Y-103775000D01*
X195316000Y-88266000D02*
X194379000Y-87329000D01*
X195500000Y-98025000D02*
X193300000Y-99075000D01*
X199900000Y-98025000D02*
X195500000Y-98025000D01*
X199900000Y-98025000D02*
X199900000Y-98975000D01*
X199900000Y-102725000D02*
X196900000Y-102725000D01*
X199900000Y-102725000D02*
X199900000Y-101775000D01*
%TO.C,SW9*%
X109054000Y-93379000D02*
X109054000Y-94321000D01*
X109054000Y-94321000D02*
X113140000Y-94321000D01*
X109419000Y-90066000D02*
X109334000Y-90493000D01*
X109608000Y-89783000D02*
X109419000Y-90066000D01*
X109891000Y-89594000D02*
X109608000Y-89783000D01*
X110218000Y-89529000D02*
X109891000Y-89594000D01*
X111500000Y-103775000D02*
X111500000Y-102875000D01*
X111500000Y-103775000D02*
X117100000Y-103775000D01*
X113018000Y-89529000D02*
X110218000Y-89529000D01*
X113140000Y-94321000D02*
X113450000Y-94262000D01*
X113450000Y-94262000D02*
X113724000Y-94092000D01*
X113456000Y-89442000D02*
X113018000Y-89529000D01*
X113724000Y-94092000D02*
X113917000Y-93834000D01*
X113800000Y-99075000D02*
X117100000Y-99075000D01*
X113823000Y-89198000D02*
X113456000Y-89442000D01*
X113917000Y-93834000D02*
X113999000Y-93536000D01*
X113999000Y-93536000D02*
X114153000Y-92978000D01*
X114067000Y-88831000D02*
X113823000Y-89198000D01*
X114153000Y-92978000D02*
X114491000Y-92525000D01*
X114154000Y-88171000D02*
X114154000Y-88393000D01*
X114154000Y-88393000D02*
X114067000Y-88831000D01*
X114491000Y-92525000D02*
X114970000Y-92226000D01*
X114687000Y-87638000D02*
X114154000Y-88171000D01*
X114970000Y-92226000D02*
X115532000Y-92121000D01*
X115029000Y-87409000D02*
X114687000Y-87638000D01*
X115432000Y-87329000D02*
X115029000Y-87409000D01*
X115532000Y-92121000D02*
X118179000Y-92121000D01*
X118179000Y-87329000D02*
X115432000Y-87329000D01*
X118179000Y-92121000D02*
X119200000Y-91100000D01*
X118410000Y-103175000D02*
X117100000Y-103775000D01*
X119116000Y-88266000D02*
X118179000Y-87329000D01*
X119300000Y-98025000D02*
X117100000Y-99075000D01*
X123700000Y-98025000D02*
X119300000Y-98025000D01*
X123700000Y-98025000D02*
X123700000Y-98975000D01*
X123700000Y-102725000D02*
X120700000Y-102725000D01*
X123700000Y-102725000D02*
X123700000Y-101775000D01*
%TO.C,JP6*%
X64787500Y-87443000D02*
X64187500Y-87443000D01*
X63487500Y-86743000D02*
X63487500Y-85343000D01*
X65487500Y-85343000D02*
X65487500Y-86743000D01*
X64187500Y-84643000D02*
X64787500Y-84643000D01*
X63487500Y-86743000D02*
G75*
G03*
X64187500Y-87443000I699999J-1D01*
G01*
X64787500Y-87443000D02*
G75*
G03*
X65487500Y-86743000I1J699999D01*
G01*
X64187500Y-84643000D02*
G75*
G03*
X63487500Y-85343000I0J-700000D01*
G01*
X65487500Y-85343000D02*
G75*
G03*
X64787500Y-84643000I-700000J0D01*
G01*
%TO.C,JP8*%
X59707500Y-87443000D02*
X59107500Y-87443000D01*
X58407500Y-86743000D02*
X58407500Y-85343000D01*
X60407500Y-85343000D02*
X60407500Y-86743000D01*
X59107500Y-84643000D02*
X59707500Y-84643000D01*
X58407500Y-86743000D02*
G75*
G03*
X59107500Y-87443000I699999J-1D01*
G01*
X59707500Y-87443000D02*
G75*
G03*
X60407500Y-86743000I1J699999D01*
G01*
X59107500Y-84643000D02*
G75*
G03*
X58407500Y-85343000I0J-700000D01*
G01*
X60407500Y-85343000D02*
G75*
G03*
X59707500Y-84643000I-700000J0D01*
G01*
D12*
%TO.C,D15*%
X131455600Y-106200000D02*
X131055600Y-106200000D01*
X131055600Y-106200000D02*
X131055600Y-106750000D01*
X131055600Y-106200000D02*
X131055600Y-105650000D01*
X131055600Y-106200000D02*
X130455600Y-106600000D01*
X130455600Y-106600000D02*
X130455600Y-105800000D01*
X130455600Y-106200000D02*
X129955600Y-106200000D01*
X130455600Y-105800000D02*
X131055600Y-106200000D01*
%TO.C,D25*%
X169555600Y-106200000D02*
X169155600Y-106200000D01*
X169155600Y-106200000D02*
X169155600Y-106750000D01*
X169155600Y-106200000D02*
X169155600Y-105650000D01*
X169155600Y-106200000D02*
X168555600Y-106600000D01*
X168555600Y-106600000D02*
X168555600Y-105800000D01*
X168555600Y-106200000D02*
X168055600Y-106200000D01*
X168555600Y-105800000D02*
X169155600Y-106200000D01*
D11*
%TO.C,SW23*%
X166204000Y-74329000D02*
X166204000Y-75271000D01*
X166204000Y-75271000D02*
X170290000Y-75271000D01*
X166569000Y-71016000D02*
X166484000Y-71443000D01*
X166758000Y-70733000D02*
X166569000Y-71016000D01*
X167041000Y-70544000D02*
X166758000Y-70733000D01*
X167368000Y-70479000D02*
X167041000Y-70544000D01*
X168650000Y-84725000D02*
X168650000Y-83825000D01*
X168650000Y-84725000D02*
X174250000Y-84725000D01*
X170168000Y-70479000D02*
X167368000Y-70479000D01*
X170290000Y-75271000D02*
X170600000Y-75212000D01*
X170600000Y-75212000D02*
X170874000Y-75042000D01*
X170606000Y-70392000D02*
X170168000Y-70479000D01*
X170874000Y-75042000D02*
X171067000Y-74784000D01*
X170950000Y-80025000D02*
X174250000Y-80025000D01*
X170973000Y-70148000D02*
X170606000Y-70392000D01*
X171067000Y-74784000D02*
X171149000Y-74486000D01*
X171149000Y-74486000D02*
X171303000Y-73928000D01*
X171217000Y-69781000D02*
X170973000Y-70148000D01*
X171303000Y-73928000D02*
X171641000Y-73475000D01*
X171304000Y-69121000D02*
X171304000Y-69343000D01*
X171304000Y-69343000D02*
X171217000Y-69781000D01*
X171641000Y-73475000D02*
X172120000Y-73176000D01*
X171837000Y-68588000D02*
X171304000Y-69121000D01*
X172120000Y-73176000D02*
X172682000Y-73071000D01*
X172179000Y-68359000D02*
X171837000Y-68588000D01*
X172582000Y-68279000D02*
X172179000Y-68359000D01*
X172682000Y-73071000D02*
X175329000Y-73071000D01*
X175329000Y-68279000D02*
X172582000Y-68279000D01*
X175329000Y-73071000D02*
X176350000Y-72050000D01*
X175560000Y-84125000D02*
X174250000Y-84725000D01*
X176266000Y-69216000D02*
X175329000Y-68279000D01*
X176450000Y-78975000D02*
X174250000Y-80025000D01*
X180850000Y-78975000D02*
X176450000Y-78975000D01*
X180850000Y-78975000D02*
X180850000Y-79925000D01*
X180850000Y-83675000D02*
X177850000Y-83675000D01*
X180850000Y-83675000D02*
X180850000Y-82725000D01*
%TO.C,U1*%
X71631000Y-37179500D02*
X71631000Y-39719500D01*
X38611000Y-37179500D02*
X71631000Y-37179500D01*
X38611000Y-39719500D02*
X38611000Y-37179500D01*
X38611000Y-39719500D02*
X71631000Y-39719500D01*
X71631000Y-52419500D02*
X71631000Y-54959500D01*
X38611000Y-52419500D02*
X71631000Y-52419500D01*
X38611000Y-54959500D02*
X38611000Y-52419500D01*
X38611000Y-54959500D02*
X71631000Y-54959500D01*
%TD*%
M02*
