%TF.GenerationSoftware,KiCad,Pcbnew,7.0.5*%
%TF.CreationDate,2024-09-25T00:11:59+08:00*%
%TF.ProjectId,TPS,5450532e-6b69-4636-9164-5f7063625858,rev?*%
%TF.SameCoordinates,Original*%
%TF.FileFunction,Drillmap*%
%TF.FilePolarity,Positive*%
%FSLAX45Y45*%
G04 Gerber Fmt 4.5, Leading zero omitted, Abs format (unit mm)*
G04 Created by KiCad (PCBNEW 7.0.5) date 2024-09-25 00:11:59*
%MOMM*%
%LPD*%
G01*
G04 APERTURE LIST*
%ADD10C,0.100000*%
%ADD11C,0.120000*%
%ADD12C,0.200000*%
%ADD13C,0.040000*%
%ADD14C,0.070000*%
%ADD15C,0.090000*%
%ADD16C,0.109220*%
%ADD17C,0.130000*%
%ADD18C,0.150000*%
%ADD19C,0.305000*%
G04 APERTURE END LIST*
D10*
X6927100Y-11826300D02*
X5716800Y-11826300D01*
D11*
X20115500Y-2900000D02*
X3973100Y-2900000D01*
X3846100Y-12298000D02*
G75*
G03*
X3973100Y-12425000I127000J0D01*
G01*
X3973100Y-2900000D02*
G75*
G03*
X3846100Y-3027000I0J-127000D01*
G01*
X20242500Y-12298000D02*
X20242500Y-3027000D01*
D10*
X6927100Y-11826300D02*
G75*
G03*
X6927100Y-11576300I0J125000D01*
G01*
D11*
X20115500Y-12425000D02*
X3973100Y-12425000D01*
X3846100Y-3027000D02*
X3846100Y-12298000D01*
X20115500Y-12425000D02*
G75*
G03*
X20242500Y-12298000I0J127000D01*
G01*
D10*
X5716800Y-11576300D02*
G75*
G03*
X5716800Y-11826300I0J-125000D01*
G01*
D11*
X20242500Y-3027000D02*
G75*
G03*
X20115500Y-2900000I-127000J0D01*
G01*
D10*
X6927100Y-11576300D02*
X5716800Y-11576300D01*
D12*
D13*
X4222100Y-4671000D02*
X4262100Y-4711000D01*
X4262100Y-4671000D02*
X4222100Y-4711000D01*
X4476100Y-4927000D02*
X4516100Y-4967000D01*
X4516100Y-4927000D02*
X4476100Y-4967000D01*
X4483000Y-3141000D02*
X4523000Y-3181000D01*
X4523000Y-3141000D02*
X4483000Y-3181000D01*
X4984100Y-4598550D02*
X5024100Y-4638550D01*
X5024100Y-4598550D02*
X4984100Y-4638550D01*
X5165650Y-5796000D02*
X5205650Y-5836000D01*
X5205650Y-5796000D02*
X5165650Y-5836000D01*
X5618000Y-5796000D02*
X5658000Y-5836000D01*
X5658000Y-5796000D02*
X5618000Y-5836000D01*
X5746100Y-4526000D02*
X5786100Y-4566000D01*
X5786100Y-4526000D02*
X5746100Y-4566000D01*
X5754000Y-8519000D02*
X5794000Y-8559000D01*
X5794000Y-8519000D02*
X5754000Y-8559000D01*
X5920750Y-8314300D02*
X5960750Y-8354300D01*
X5960750Y-8314300D02*
X5920750Y-8354300D01*
X5952000Y-10357000D02*
X5992000Y-10397000D01*
X5992000Y-10357000D02*
X5952000Y-10397000D01*
X6000100Y-4334000D02*
X6040100Y-4374000D01*
X6040100Y-4334000D02*
X6000100Y-4374000D01*
X6047000Y-10430000D02*
X6087000Y-10470000D01*
X6087000Y-10430000D02*
X6047000Y-10470000D01*
X6174750Y-8314300D02*
X6214750Y-8354300D01*
X6214750Y-8314300D02*
X6174750Y-8354300D01*
X6254100Y-4746000D02*
X6294100Y-4786000D01*
X6294100Y-4746000D02*
X6254100Y-4786000D01*
X6302000Y-8391000D02*
X6342000Y-8431000D01*
X6342000Y-8391000D02*
X6302000Y-8431000D01*
X6348000Y-8167000D02*
X6388000Y-8207000D01*
X6388000Y-8167000D02*
X6348000Y-8207000D01*
X6381000Y-5053000D02*
X6421000Y-5093000D01*
X6421000Y-5053000D02*
X6381000Y-5093000D01*
X6508100Y-4744000D02*
X6548100Y-4784000D01*
X6548100Y-4744000D02*
X6508100Y-4784000D01*
X6556000Y-10431000D02*
X6596000Y-10471000D01*
X6596000Y-10431000D02*
X6556000Y-10471000D01*
X6634000Y-4934000D02*
X6674000Y-4974000D01*
X6674000Y-4934000D02*
X6634000Y-4974000D01*
X6762100Y-4934000D02*
X6802100Y-4974000D01*
X6802100Y-4934000D02*
X6762100Y-4974000D01*
X6889000Y-4525000D02*
X6929000Y-4565000D01*
X6929000Y-4525000D02*
X6889000Y-4565000D01*
X7001800Y-10792500D02*
X7041800Y-10832500D01*
X7041800Y-10792500D02*
X7001800Y-10832500D01*
X7015000Y-5921000D02*
X7055000Y-5961000D01*
X7055000Y-5921000D02*
X7015000Y-5961000D01*
X7016100Y-4934000D02*
X7056100Y-4974000D01*
X7056100Y-4934000D02*
X7016100Y-4974000D01*
X7289000Y-3542000D02*
X7329000Y-3582000D01*
X7329000Y-3542000D02*
X7289000Y-3582000D01*
X7471000Y-4400000D02*
X7511000Y-4440000D01*
X7511000Y-4400000D02*
X7471000Y-4440000D01*
X7471000Y-4530000D02*
X7511000Y-4570000D01*
X7511000Y-4530000D02*
X7471000Y-4570000D01*
X7542100Y-10792500D02*
X7582100Y-10832500D01*
X7582100Y-10792500D02*
X7542100Y-10832500D01*
X7801400Y-4671000D02*
X7841400Y-4711000D01*
X7841400Y-4671000D02*
X7801400Y-4711000D01*
X8456543Y-5144324D02*
X8496543Y-5184324D01*
X8496543Y-5144324D02*
X8456543Y-5184324D01*
X8483000Y-4933950D02*
X8523000Y-4973950D01*
X8523000Y-4933950D02*
X8483000Y-4973950D01*
X8501795Y-5055205D02*
X8541795Y-5095205D01*
X8541795Y-5055205D02*
X8501795Y-5095205D01*
X8571500Y-6668000D02*
X8611500Y-6708000D01*
X8611500Y-6668000D02*
X8571500Y-6708000D01*
X8582000Y-4913000D02*
X8622000Y-4953000D01*
X8622000Y-4913000D02*
X8582000Y-4953000D01*
X8615810Y-4816450D02*
X8655810Y-4856450D01*
X8655810Y-4816450D02*
X8615810Y-4856450D01*
X8644000Y-6592000D02*
X8684000Y-6632000D01*
X8684000Y-6592000D02*
X8644000Y-6632000D01*
X8644000Y-8497000D02*
X8684000Y-8537000D01*
X8684000Y-8497000D02*
X8644000Y-8537000D01*
X8725500Y-8379500D02*
X8765500Y-8419500D01*
X8765500Y-8379500D02*
X8725500Y-8419500D01*
X8727000Y-8613000D02*
X8767000Y-8653000D01*
X8767000Y-8613000D02*
X8727000Y-8653000D01*
X8728000Y-4825920D02*
X8768000Y-4865920D01*
X8768000Y-4825920D02*
X8728000Y-4865920D01*
X8728000Y-6488000D02*
X8768000Y-6528000D01*
X8768000Y-6488000D02*
X8728000Y-6528000D01*
X9075000Y-3100000D02*
X9115000Y-3140000D01*
X9115000Y-3100000D02*
X9075000Y-3140000D01*
X9075000Y-5005000D02*
X9115000Y-5045000D01*
X9115000Y-5005000D02*
X9075000Y-5045000D01*
X9075000Y-6910000D02*
X9115000Y-6950000D01*
X9115000Y-6910000D02*
X9075000Y-6950000D01*
X9075000Y-8815000D02*
X9115000Y-8855000D01*
X9115000Y-8815000D02*
X9075000Y-8855000D01*
X9075000Y-10720000D02*
X9115000Y-10760000D01*
X9115000Y-10720000D02*
X9075000Y-10760000D01*
X9510000Y-2980000D02*
X9550000Y-3020000D01*
X9550000Y-2980000D02*
X9510000Y-3020000D01*
X9510000Y-4885000D02*
X9550000Y-4925000D01*
X9550000Y-4885000D02*
X9510000Y-4925000D01*
X9510000Y-6790000D02*
X9550000Y-6830000D01*
X9550000Y-6790000D02*
X9510000Y-6830000D01*
X9510000Y-8695000D02*
X9550000Y-8735000D01*
X9550000Y-8695000D02*
X9510000Y-8735000D01*
X9510000Y-10600000D02*
X9550000Y-10640000D01*
X9550000Y-10600000D02*
X9510000Y-10640000D01*
X10980000Y-3100000D02*
X11020000Y-3140000D01*
X11020000Y-3100000D02*
X10980000Y-3140000D01*
X10980000Y-5005000D02*
X11020000Y-5045000D01*
X11020000Y-5005000D02*
X10980000Y-5045000D01*
X10980000Y-6910000D02*
X11020000Y-6950000D01*
X11020000Y-6910000D02*
X10980000Y-6950000D01*
X10980000Y-8815000D02*
X11020000Y-8855000D01*
X11020000Y-8815000D02*
X10980000Y-8855000D01*
X10980000Y-10720000D02*
X11020000Y-10760000D01*
X11020000Y-10720000D02*
X10980000Y-10760000D01*
X11415000Y-2980000D02*
X11455000Y-3020000D01*
X11455000Y-2980000D02*
X11415000Y-3020000D01*
X11415000Y-4885000D02*
X11455000Y-4925000D01*
X11455000Y-4885000D02*
X11415000Y-4925000D01*
X11415000Y-6790000D02*
X11455000Y-6830000D01*
X11455000Y-6790000D02*
X11415000Y-6830000D01*
X11415000Y-8695000D02*
X11455000Y-8735000D01*
X11455000Y-8695000D02*
X11415000Y-8735000D01*
X11415000Y-10600000D02*
X11455000Y-10640000D01*
X11455000Y-10600000D02*
X11415000Y-10640000D01*
X12885000Y-3101000D02*
X12925000Y-3141000D01*
X12925000Y-3101000D02*
X12885000Y-3141000D01*
X12885000Y-5005000D02*
X12925000Y-5045000D01*
X12925000Y-5005000D02*
X12885000Y-5045000D01*
X12885000Y-6910000D02*
X12925000Y-6950000D01*
X12925000Y-6910000D02*
X12885000Y-6950000D01*
X12885000Y-8815000D02*
X12925000Y-8855000D01*
X12925000Y-8815000D02*
X12885000Y-8855000D01*
X12885000Y-10720000D02*
X12925000Y-10760000D01*
X12925000Y-10720000D02*
X12885000Y-10760000D01*
X13320000Y-2980000D02*
X13360000Y-3020000D01*
X13360000Y-2980000D02*
X13320000Y-3020000D01*
X13320000Y-4885000D02*
X13360000Y-4925000D01*
X13360000Y-4885000D02*
X13320000Y-4925000D01*
X13320000Y-6790000D02*
X13360000Y-6830000D01*
X13360000Y-6790000D02*
X13320000Y-6830000D01*
X13320000Y-8695000D02*
X13360000Y-8735000D01*
X13360000Y-8695000D02*
X13320000Y-8735000D01*
X13320000Y-10600000D02*
X13360000Y-10640000D01*
X13360000Y-10600000D02*
X13320000Y-10640000D01*
X14789000Y-5005000D02*
X14829000Y-5045000D01*
X14829000Y-5005000D02*
X14789000Y-5045000D01*
X14790000Y-3100000D02*
X14830000Y-3140000D01*
X14830000Y-3100000D02*
X14790000Y-3140000D01*
X14790000Y-6910000D02*
X14830000Y-6950000D01*
X14830000Y-6910000D02*
X14790000Y-6950000D01*
X14790000Y-8815000D02*
X14830000Y-8855000D01*
X14830000Y-8815000D02*
X14790000Y-8855000D01*
X14790000Y-10720000D02*
X14830000Y-10760000D01*
X14830000Y-10720000D02*
X14790000Y-10760000D01*
X15225000Y-2980000D02*
X15265000Y-3020000D01*
X15265000Y-2980000D02*
X15225000Y-3020000D01*
X15225000Y-4885000D02*
X15265000Y-4925000D01*
X15265000Y-4885000D02*
X15225000Y-4925000D01*
X15225000Y-6790000D02*
X15265000Y-6830000D01*
X15265000Y-6790000D02*
X15225000Y-6830000D01*
X15225000Y-8695000D02*
X15265000Y-8735000D01*
X15265000Y-8695000D02*
X15225000Y-8735000D01*
X15225000Y-10600000D02*
X15265000Y-10640000D01*
X15265000Y-10600000D02*
X15225000Y-10640000D01*
X16695000Y-3100000D02*
X16735000Y-3140000D01*
X16735000Y-3100000D02*
X16695000Y-3140000D01*
X16695000Y-5005000D02*
X16735000Y-5045000D01*
X16735000Y-5005000D02*
X16695000Y-5045000D01*
X16695000Y-10740000D02*
X16735000Y-10780000D01*
X16735000Y-10740000D02*
X16695000Y-10780000D01*
X16708000Y-6910000D02*
X16748000Y-6950000D01*
X16748000Y-6910000D02*
X16708000Y-6950000D01*
X16708000Y-8815000D02*
X16748000Y-8855000D01*
X16748000Y-8815000D02*
X16708000Y-8855000D01*
X17130000Y-2980000D02*
X17170000Y-3020000D01*
X17170000Y-2980000D02*
X17130000Y-3020000D01*
X17130000Y-4885000D02*
X17170000Y-4925000D01*
X17170000Y-4885000D02*
X17130000Y-4925000D01*
X17130000Y-10600000D02*
X17170000Y-10640000D01*
X17170000Y-10600000D02*
X17130000Y-10640000D01*
X17143000Y-6790000D02*
X17183000Y-6830000D01*
X17183000Y-6790000D02*
X17143000Y-6830000D01*
X17143000Y-8695000D02*
X17183000Y-8735000D01*
X17183000Y-8695000D02*
X17143000Y-8735000D01*
X18600000Y-3100000D02*
X18640000Y-3140000D01*
X18640000Y-3100000D02*
X18600000Y-3140000D01*
X18600000Y-5005000D02*
X18640000Y-5045000D01*
X18640000Y-5005000D02*
X18600000Y-5045000D01*
X18600000Y-6910000D02*
X18640000Y-6950000D01*
X18640000Y-6910000D02*
X18600000Y-6950000D01*
X18600000Y-8815000D02*
X18640000Y-8855000D01*
X18640000Y-8815000D02*
X18600000Y-8855000D01*
X18600000Y-10720000D02*
X18640000Y-10760000D01*
X18640000Y-10720000D02*
X18600000Y-10760000D01*
X19035000Y-2980000D02*
X19075000Y-3020000D01*
X19075000Y-2980000D02*
X19035000Y-3020000D01*
X19035000Y-4885000D02*
X19075000Y-4925000D01*
X19075000Y-4885000D02*
X19035000Y-4925000D01*
X19035000Y-6790000D02*
X19075000Y-6830000D01*
X19075000Y-6790000D02*
X19035000Y-6830000D01*
X19035000Y-8695000D02*
X19075000Y-8735000D01*
X19075000Y-8695000D02*
X19035000Y-8735000D01*
X19035000Y-10600000D02*
X19075000Y-10640000D01*
X19075000Y-10600000D02*
X19035000Y-10640000D01*
X20044000Y-6868000D02*
X20084000Y-6908000D01*
X20084000Y-6868000D02*
X20044000Y-6908000D01*
X20045000Y-3058000D02*
X20085000Y-3098000D01*
X20085000Y-3058000D02*
X20045000Y-3098000D01*
X20045000Y-4963000D02*
X20085000Y-5003000D01*
X20085000Y-4963000D02*
X20045000Y-5003000D01*
X20045000Y-10678000D02*
X20085000Y-10718000D01*
X20085000Y-10678000D02*
X20045000Y-10718000D01*
X20046000Y-8772000D02*
X20086000Y-8812000D01*
X20086000Y-8772000D02*
X20046000Y-8812000D01*
D14*
X4770100Y-8080300D02*
G75*
G03*
X4770100Y-8080300I-35000J0D01*
G01*
X4770100Y-8334300D02*
G75*
G03*
X4770100Y-8334300I-35000J0D01*
G01*
X5532100Y-8080300D02*
G75*
G03*
X5532100Y-8080300I-35000J0D01*
G01*
X5532100Y-8334300D02*
G75*
G03*
X5532100Y-8334300I-35000J0D01*
G01*
D15*
X4176300Y-6018750D02*
X4176300Y-6108750D01*
X4131300Y-6063750D02*
X4221300Y-6063750D01*
D12*
X4156300Y-6108750D02*
X4196300Y-6108750D01*
X4196300Y-6108750D02*
G75*
G03*
X4196300Y-6018750I0J45000D01*
G01*
X4196300Y-6018750D02*
X4156300Y-6018750D01*
X4156300Y-6018750D02*
G75*
G03*
X4156300Y-6108750I0J-45000D01*
G01*
D15*
X4176300Y-6678750D02*
X4176300Y-6768750D01*
X4131300Y-6723750D02*
X4221300Y-6723750D01*
D12*
X4156300Y-6768750D02*
X4196300Y-6768750D01*
X4196300Y-6768750D02*
G75*
G03*
X4196300Y-6678750I0J45000D01*
G01*
X4196300Y-6678750D02*
X4156300Y-6678750D01*
X4156300Y-6678750D02*
G75*
G03*
X4156300Y-6768750I0J-45000D01*
G01*
D15*
X4481100Y-6018750D02*
X4481100Y-6108750D01*
X4436100Y-6063750D02*
X4526100Y-6063750D01*
D12*
X4461100Y-6108750D02*
X4501100Y-6108750D01*
X4501100Y-6108750D02*
G75*
G03*
X4501100Y-6018750I0J45000D01*
G01*
X4501100Y-6018750D02*
X4461100Y-6018750D01*
X4461100Y-6018750D02*
G75*
G03*
X4461100Y-6108750I0J-45000D01*
G01*
D15*
X4481100Y-6678750D02*
X4481100Y-6768750D01*
X4436100Y-6723750D02*
X4526100Y-6723750D01*
D12*
X4461100Y-6768750D02*
X4501100Y-6768750D01*
X4501100Y-6768750D02*
G75*
G03*
X4501100Y-6678750I0J45000D01*
G01*
X4501100Y-6678750D02*
X4461100Y-6678750D01*
X4461100Y-6678750D02*
G75*
G03*
X4461100Y-6768750I0J-45000D01*
G01*
D15*
X4881100Y-6018750D02*
X4881100Y-6108750D01*
X4836100Y-6063750D02*
X4926100Y-6063750D01*
D12*
X4861100Y-6108750D02*
X4901100Y-6108750D01*
X4901100Y-6108750D02*
G75*
G03*
X4901100Y-6018750I0J45000D01*
G01*
X4901100Y-6018750D02*
X4861100Y-6018750D01*
X4861100Y-6018750D02*
G75*
G03*
X4861100Y-6108750I0J-45000D01*
G01*
D15*
X4881100Y-6678750D02*
X4881100Y-6768750D01*
X4836100Y-6723750D02*
X4926100Y-6723750D01*
D12*
X4861100Y-6768750D02*
X4901100Y-6768750D01*
X4901100Y-6768750D02*
G75*
G03*
X4901100Y-6678750I0J45000D01*
G01*
X4901100Y-6678750D02*
X4861100Y-6678750D01*
X4861100Y-6678750D02*
G75*
G03*
X4861100Y-6768750I0J-45000D01*
G01*
D15*
X4991100Y-6218750D02*
X4991100Y-6308750D01*
X4946100Y-6263750D02*
X5036100Y-6263750D01*
D12*
X4971100Y-6308750D02*
X5011100Y-6308750D01*
X5011100Y-6308750D02*
G75*
G03*
X5011100Y-6218750I0J45000D01*
G01*
X5011100Y-6218750D02*
X4971100Y-6218750D01*
X4971100Y-6218750D02*
G75*
G03*
X4971100Y-6308750I0J-45000D01*
G01*
D15*
X4991100Y-6478750D02*
X4991100Y-6568750D01*
X4946100Y-6523750D02*
X5036100Y-6523750D01*
D12*
X4971100Y-6568750D02*
X5011100Y-6568750D01*
X5011100Y-6568750D02*
G75*
G03*
X5011100Y-6478750I0J45000D01*
G01*
X5011100Y-6478750D02*
X4971100Y-6478750D01*
X4971100Y-6478750D02*
G75*
G03*
X4971100Y-6568750I0J-45000D01*
G01*
D15*
X7491400Y-3185200D02*
X7491400Y-3275200D01*
X7446400Y-3230200D02*
X7536400Y-3230200D01*
D12*
X7446400Y-3210200D02*
X7446400Y-3250200D01*
X7446400Y-3250200D02*
G75*
G03*
X7536400Y-3250200I45000J0D01*
G01*
X7536400Y-3250200D02*
X7536400Y-3210200D01*
X7536400Y-3210200D02*
G75*
G03*
X7446400Y-3210200I-45000J0D01*
G01*
D15*
X7491400Y-3490000D02*
X7491400Y-3580000D01*
X7446400Y-3535000D02*
X7536400Y-3535000D01*
D12*
X7446400Y-3515000D02*
X7446400Y-3555000D01*
X7446400Y-3555000D02*
G75*
G03*
X7536400Y-3555000I45000J0D01*
G01*
X7536400Y-3555000D02*
X7536400Y-3515000D01*
X7536400Y-3515000D02*
G75*
G03*
X7446400Y-3515000I-45000J0D01*
G01*
D15*
X7491400Y-3890000D02*
X7491400Y-3980000D01*
X7446400Y-3935000D02*
X7536400Y-3935000D01*
D12*
X7446400Y-3915000D02*
X7446400Y-3955000D01*
X7446400Y-3955000D02*
G75*
G03*
X7536400Y-3955000I45000J0D01*
G01*
X7536400Y-3955000D02*
X7536400Y-3915000D01*
X7536400Y-3915000D02*
G75*
G03*
X7446400Y-3915000I-45000J0D01*
G01*
D15*
X7691400Y-4000000D02*
X7691400Y-4090000D01*
X7646400Y-4045000D02*
X7736400Y-4045000D01*
D12*
X7646400Y-4025000D02*
X7646400Y-4065000D01*
X7646400Y-4065000D02*
G75*
G03*
X7736400Y-4065000I45000J0D01*
G01*
X7736400Y-4065000D02*
X7736400Y-4025000D01*
X7736400Y-4025000D02*
G75*
G03*
X7646400Y-4025000I-45000J0D01*
G01*
D15*
X7951400Y-4000000D02*
X7951400Y-4090000D01*
X7906400Y-4045000D02*
X7996400Y-4045000D01*
D12*
X7906400Y-4025000D02*
X7906400Y-4065000D01*
X7906400Y-4065000D02*
G75*
G03*
X7996400Y-4065000I45000J0D01*
G01*
X7996400Y-4065000D02*
X7996400Y-4025000D01*
X7996400Y-4025000D02*
G75*
G03*
X7906400Y-4025000I-45000J0D01*
G01*
D15*
X8151400Y-3185200D02*
X8151400Y-3275200D01*
X8106400Y-3230200D02*
X8196400Y-3230200D01*
D12*
X8106400Y-3210200D02*
X8106400Y-3250200D01*
X8106400Y-3250200D02*
G75*
G03*
X8196400Y-3250200I45000J0D01*
G01*
X8196400Y-3250200D02*
X8196400Y-3210200D01*
X8196400Y-3210200D02*
G75*
G03*
X8106400Y-3210200I-45000J0D01*
G01*
D15*
X8151400Y-3490000D02*
X8151400Y-3580000D01*
X8106400Y-3535000D02*
X8196400Y-3535000D01*
D12*
X8106400Y-3515000D02*
X8106400Y-3555000D01*
X8106400Y-3555000D02*
G75*
G03*
X8196400Y-3555000I45000J0D01*
G01*
X8196400Y-3555000D02*
X8196400Y-3515000D01*
X8196400Y-3515000D02*
G75*
G03*
X8106400Y-3515000I-45000J0D01*
G01*
D15*
X8151400Y-3890000D02*
X8151400Y-3980000D01*
X8106400Y-3935000D02*
X8196400Y-3935000D01*
D12*
X8106400Y-3915000D02*
X8106400Y-3955000D01*
X8106400Y-3955000D02*
G75*
G03*
X8196400Y-3955000I45000J0D01*
G01*
X8196400Y-3955000D02*
X8196400Y-3915000D01*
X8196400Y-3915000D02*
G75*
G03*
X8106400Y-3915000I-45000J0D01*
G01*
D10*
X5607156Y-9734656D02*
X5607156Y-9663944D01*
X5536444Y-9663944D01*
X5536444Y-9734656D01*
X5607156Y-9734656D01*
X5607156Y-9984656D02*
X5607156Y-9913944D01*
X5536444Y-9913944D01*
X5536444Y-9984656D01*
X5607156Y-9984656D01*
X5607156Y-10234656D02*
X5607156Y-10163944D01*
X5536444Y-10163944D01*
X5536444Y-10234656D01*
X5607156Y-10234656D01*
X5976106Y-9147656D02*
X5976106Y-9076944D01*
X5905394Y-9076944D01*
X5905394Y-9147656D01*
X5976106Y-9147656D01*
X6230106Y-9147656D02*
X6230106Y-9076944D01*
X6159394Y-9076944D01*
X6159394Y-9147656D01*
X6230106Y-9147656D01*
X6484106Y-9147656D02*
X6484106Y-9076944D01*
X6413394Y-9076944D01*
X6413394Y-9147656D01*
X6484106Y-9147656D01*
X6738106Y-9147656D02*
X6738106Y-9076944D01*
X6667394Y-9076944D01*
X6667394Y-9147656D01*
X6738106Y-9147656D01*
X7057156Y-9734656D02*
X7057156Y-9663944D01*
X6986444Y-9663944D01*
X6986444Y-9734656D01*
X7057156Y-9734656D01*
X7057156Y-10234656D02*
X7057156Y-10163944D01*
X6986444Y-10163944D01*
X6986444Y-10234656D01*
X7057156Y-10234656D01*
D16*
X3988100Y-3899560D02*
X4042710Y-3844950D01*
X3988100Y-3790340D01*
X3933490Y-3844950D01*
X3988100Y-3899560D01*
X3988100Y-4153560D02*
X4042710Y-4098950D01*
X3988100Y-4044340D01*
X3933490Y-4098950D01*
X3988100Y-4153560D01*
X3988100Y-5423560D02*
X4042710Y-5368950D01*
X3988100Y-5314340D01*
X3933490Y-5368950D01*
X3988100Y-5423560D01*
X3988100Y-5677560D02*
X4042710Y-5622950D01*
X3988100Y-5568340D01*
X3933490Y-5622950D01*
X3988100Y-5677560D01*
X4242100Y-3899560D02*
X4296710Y-3844950D01*
X4242100Y-3790340D01*
X4187490Y-3844950D01*
X4242100Y-3899560D01*
X4242100Y-4153560D02*
X4296710Y-4098950D01*
X4242100Y-4044340D01*
X4187490Y-4098950D01*
X4242100Y-4153560D01*
X4242100Y-5423560D02*
X4296710Y-5368950D01*
X4242100Y-5314340D01*
X4187490Y-5368950D01*
X4242100Y-5423560D01*
X4242100Y-5677560D02*
X4296710Y-5622950D01*
X4242100Y-5568340D01*
X4187490Y-5622950D01*
X4242100Y-5677560D01*
X4496100Y-3899560D02*
X4550710Y-3844950D01*
X4496100Y-3790340D01*
X4441490Y-3844950D01*
X4496100Y-3899560D01*
X4496100Y-4153560D02*
X4550710Y-4098950D01*
X4496100Y-4044340D01*
X4441490Y-4098950D01*
X4496100Y-4153560D01*
X4496100Y-5423560D02*
X4550710Y-5368950D01*
X4496100Y-5314340D01*
X4441490Y-5368950D01*
X4496100Y-5423560D01*
X4496100Y-5677560D02*
X4550710Y-5622950D01*
X4496100Y-5568340D01*
X4441490Y-5622950D01*
X4496100Y-5677560D01*
X4750100Y-3899560D02*
X4804710Y-3844950D01*
X4750100Y-3790340D01*
X4695490Y-3844950D01*
X4750100Y-3899560D01*
X4750100Y-4153560D02*
X4804710Y-4098950D01*
X4750100Y-4044340D01*
X4695490Y-4098950D01*
X4750100Y-4153560D01*
X4750100Y-5423560D02*
X4804710Y-5368950D01*
X4750100Y-5314340D01*
X4695490Y-5368950D01*
X4750100Y-5423560D01*
X4750100Y-5677560D02*
X4804710Y-5622950D01*
X4750100Y-5568340D01*
X4695490Y-5622950D01*
X4750100Y-5677560D01*
X5004100Y-3899560D02*
X5058710Y-3844950D01*
X5004100Y-3790340D01*
X4949490Y-3844950D01*
X5004100Y-3899560D01*
X5004100Y-4153560D02*
X5058710Y-4098950D01*
X5004100Y-4044340D01*
X4949490Y-4098950D01*
X5004100Y-4153560D01*
X5004100Y-5423560D02*
X5058710Y-5368950D01*
X5004100Y-5314340D01*
X4949490Y-5368950D01*
X5004100Y-5423560D01*
X5004100Y-5677560D02*
X5058710Y-5622950D01*
X5004100Y-5568340D01*
X4949490Y-5622950D01*
X5004100Y-5677560D01*
X5258100Y-3899560D02*
X5312710Y-3844950D01*
X5258100Y-3790340D01*
X5203490Y-3844950D01*
X5258100Y-3899560D01*
X5258100Y-4153560D02*
X5312710Y-4098950D01*
X5258100Y-4044340D01*
X5203490Y-4098950D01*
X5258100Y-4153560D01*
X5258100Y-5423560D02*
X5312710Y-5368950D01*
X5258100Y-5314340D01*
X5203490Y-5368950D01*
X5258100Y-5423560D01*
X5258100Y-5677560D02*
X5312710Y-5622950D01*
X5258100Y-5568340D01*
X5203490Y-5622950D01*
X5258100Y-5677560D01*
X5512100Y-3899560D02*
X5566710Y-3844950D01*
X5512100Y-3790340D01*
X5457490Y-3844950D01*
X5512100Y-3899560D01*
X5512100Y-4153560D02*
X5566710Y-4098950D01*
X5512100Y-4044340D01*
X5457490Y-4098950D01*
X5512100Y-4153560D01*
X5512100Y-5423560D02*
X5566710Y-5368950D01*
X5512100Y-5314340D01*
X5457490Y-5368950D01*
X5512100Y-5423560D01*
X5512100Y-5677560D02*
X5566710Y-5622950D01*
X5512100Y-5568340D01*
X5457490Y-5622950D01*
X5512100Y-5677560D01*
X5766100Y-3899560D02*
X5820710Y-3844950D01*
X5766100Y-3790340D01*
X5711490Y-3844950D01*
X5766100Y-3899560D01*
X5766100Y-4153560D02*
X5820710Y-4098950D01*
X5766100Y-4044340D01*
X5711490Y-4098950D01*
X5766100Y-4153560D01*
X5766100Y-5423560D02*
X5820710Y-5368950D01*
X5766100Y-5314340D01*
X5711490Y-5368950D01*
X5766100Y-5423560D01*
X5766100Y-5677560D02*
X5820710Y-5622950D01*
X5766100Y-5568340D01*
X5711490Y-5622950D01*
X5766100Y-5677560D01*
X6020100Y-3899560D02*
X6074710Y-3844950D01*
X6020100Y-3790340D01*
X5965490Y-3844950D01*
X6020100Y-3899560D01*
X6020100Y-4153560D02*
X6074710Y-4098950D01*
X6020100Y-4044340D01*
X5965490Y-4098950D01*
X6020100Y-4153560D01*
X6020100Y-5423560D02*
X6074710Y-5368950D01*
X6020100Y-5314340D01*
X5965490Y-5368950D01*
X6020100Y-5423560D01*
X6020100Y-5677560D02*
X6074710Y-5622950D01*
X6020100Y-5568340D01*
X5965490Y-5622950D01*
X6020100Y-5677560D01*
X6274100Y-3899560D02*
X6328710Y-3844950D01*
X6274100Y-3790340D01*
X6219490Y-3844950D01*
X6274100Y-3899560D01*
X6274100Y-4153560D02*
X6328710Y-4098950D01*
X6274100Y-4044340D01*
X6219490Y-4098950D01*
X6274100Y-4153560D01*
X6274100Y-5423560D02*
X6328710Y-5368950D01*
X6274100Y-5314340D01*
X6219490Y-5368950D01*
X6274100Y-5423560D01*
X6274100Y-5677560D02*
X6328710Y-5622950D01*
X6274100Y-5568340D01*
X6219490Y-5622950D01*
X6274100Y-5677560D01*
X6528100Y-3899560D02*
X6582710Y-3844950D01*
X6528100Y-3790340D01*
X6473490Y-3844950D01*
X6528100Y-3899560D01*
X6528100Y-4153560D02*
X6582710Y-4098950D01*
X6528100Y-4044340D01*
X6473490Y-4098950D01*
X6528100Y-4153560D01*
X6528100Y-5423560D02*
X6582710Y-5368950D01*
X6528100Y-5314340D01*
X6473490Y-5368950D01*
X6528100Y-5423560D01*
X6528100Y-5677560D02*
X6582710Y-5622950D01*
X6528100Y-5568340D01*
X6473490Y-5622950D01*
X6528100Y-5677560D01*
X6782100Y-3899560D02*
X6836710Y-3844950D01*
X6782100Y-3790340D01*
X6727490Y-3844950D01*
X6782100Y-3899560D01*
X6782100Y-4153560D02*
X6836710Y-4098950D01*
X6782100Y-4044340D01*
X6727490Y-4098950D01*
X6782100Y-4153560D01*
X6782100Y-5423560D02*
X6836710Y-5368950D01*
X6782100Y-5314340D01*
X6727490Y-5368950D01*
X6782100Y-5423560D01*
X6782100Y-5677560D02*
X6836710Y-5622950D01*
X6782100Y-5568340D01*
X6727490Y-5622950D01*
X6782100Y-5677560D01*
X7036100Y-3899560D02*
X7090710Y-3844950D01*
X7036100Y-3790340D01*
X6981490Y-3844950D01*
X7036100Y-3899560D01*
X7036100Y-4153560D02*
X7090710Y-4098950D01*
X7036100Y-4044340D01*
X6981490Y-4098950D01*
X7036100Y-4153560D01*
X7036100Y-5423560D02*
X7090710Y-5368950D01*
X7036100Y-5314340D01*
X6981490Y-5368950D01*
X7036100Y-5423560D01*
X7036100Y-5677560D02*
X7090710Y-5622950D01*
X7036100Y-5568340D01*
X6981490Y-5622950D01*
X7036100Y-5677560D01*
D17*
X4670100Y-3017300D02*
X4800100Y-3147300D01*
X4800100Y-3017300D02*
X4670100Y-3147300D01*
X4800100Y-3082300D02*
G75*
G03*
X4800100Y-3082300I-65000J0D01*
G01*
X5320100Y-3017300D02*
X5450100Y-3147300D01*
X5450100Y-3017300D02*
X5320100Y-3147300D01*
X5450100Y-3082300D02*
G75*
G03*
X5450100Y-3082300I-65000J0D01*
G01*
D18*
X6246800Y-9314300D02*
X6396800Y-9464300D01*
X6396800Y-9314300D02*
X6246800Y-9464300D01*
X6321800Y-9314300D02*
X6321800Y-9464300D01*
X6246800Y-9389300D02*
X6396800Y-9389300D01*
D12*
X6266800Y-9464300D02*
X6376800Y-9464300D01*
X6376800Y-9464300D02*
G75*
G03*
X6376800Y-9314300I0J75000D01*
G01*
X6376800Y-9314300D02*
X6266800Y-9314300D01*
X6266800Y-9314300D02*
G75*
G03*
X6266800Y-9464300I0J-75000D01*
G01*
D18*
X6246800Y-10434300D02*
X6396800Y-10584300D01*
X6396800Y-10434300D02*
X6246800Y-10584300D01*
X6321800Y-10434300D02*
X6321800Y-10584300D01*
X6246800Y-10509300D02*
X6396800Y-10509300D01*
D12*
X6266800Y-10584300D02*
X6376800Y-10584300D01*
X6376800Y-10584300D02*
G75*
G03*
X6376800Y-10434300I0J75000D01*
G01*
X6376800Y-10434300D02*
X6266800Y-10434300D01*
X6266800Y-10434300D02*
G75*
G03*
X6266800Y-10584300I0J-75000D01*
G01*
D19*
X9112500Y-3320000D02*
X9417500Y-3625000D01*
X9417500Y-3320000D02*
X9112500Y-3625000D01*
X9372835Y-3580335D02*
X9372835Y-3364665D01*
X9157165Y-3364665D01*
X9157165Y-3580335D01*
X9372835Y-3580335D01*
X9112500Y-5225000D02*
X9417500Y-5530000D01*
X9417500Y-5225000D02*
X9112500Y-5530000D01*
X9372835Y-5485335D02*
X9372835Y-5269665D01*
X9157165Y-5269665D01*
X9157165Y-5485335D01*
X9372835Y-5485335D01*
X9112500Y-7130000D02*
X9417500Y-7435000D01*
X9417500Y-7130000D02*
X9112500Y-7435000D01*
X9372835Y-7390335D02*
X9372835Y-7174665D01*
X9157165Y-7174665D01*
X9157165Y-7390335D01*
X9372835Y-7390335D01*
X9112500Y-9035000D02*
X9417500Y-9340000D01*
X9417500Y-9035000D02*
X9112500Y-9340000D01*
X9372835Y-9295335D02*
X9372835Y-9079665D01*
X9157165Y-9079665D01*
X9157165Y-9295335D01*
X9372835Y-9295335D01*
X9112500Y-10940000D02*
X9417500Y-11245000D01*
X9417500Y-10940000D02*
X9112500Y-11245000D01*
X9372835Y-11200335D02*
X9372835Y-10984665D01*
X9157165Y-10984665D01*
X9157165Y-11200335D01*
X9372835Y-11200335D01*
X9172500Y-4170000D02*
X9477500Y-4475000D01*
X9477500Y-4170000D02*
X9172500Y-4475000D01*
X9432835Y-4430335D02*
X9432835Y-4214665D01*
X9217165Y-4214665D01*
X9217165Y-4430335D01*
X9432835Y-4430335D01*
X9172500Y-6075000D02*
X9477500Y-6380000D01*
X9477500Y-6075000D02*
X9172500Y-6380000D01*
X9432835Y-6335335D02*
X9432835Y-6119665D01*
X9217165Y-6119665D01*
X9217165Y-6335335D01*
X9432835Y-6335335D01*
X9172500Y-7980000D02*
X9477500Y-8285000D01*
X9477500Y-7980000D02*
X9172500Y-8285000D01*
X9432835Y-8240335D02*
X9432835Y-8024665D01*
X9217165Y-8024665D01*
X9217165Y-8240335D01*
X9432835Y-8240335D01*
X9172500Y-9885000D02*
X9477500Y-10190000D01*
X9477500Y-9885000D02*
X9172500Y-10190000D01*
X9432835Y-10145335D02*
X9432835Y-9929665D01*
X9217165Y-9929665D01*
X9217165Y-10145335D01*
X9432835Y-10145335D01*
X9172500Y-11790000D02*
X9477500Y-12095000D01*
X9477500Y-11790000D02*
X9172500Y-12095000D01*
X9432835Y-12050335D02*
X9432835Y-11834665D01*
X9217165Y-11834665D01*
X9217165Y-12050335D01*
X9432835Y-12050335D01*
X9352500Y-4275000D02*
X9657500Y-4580000D01*
X9657500Y-4275000D02*
X9352500Y-4580000D01*
X9612835Y-4535335D02*
X9612835Y-4319665D01*
X9397165Y-4319665D01*
X9397165Y-4535335D01*
X9612835Y-4535335D01*
X9352500Y-6180000D02*
X9657500Y-6485000D01*
X9657500Y-6180000D02*
X9352500Y-6485000D01*
X9612835Y-6440335D02*
X9612835Y-6224665D01*
X9397165Y-6224665D01*
X9397165Y-6440335D01*
X9612835Y-6440335D01*
X9352500Y-8085000D02*
X9657500Y-8390000D01*
X9657500Y-8085000D02*
X9352500Y-8390000D01*
X9612835Y-8345335D02*
X9612835Y-8129665D01*
X9397165Y-8129665D01*
X9397165Y-8345335D01*
X9612835Y-8345335D01*
X9352500Y-9990000D02*
X9657500Y-10295000D01*
X9657500Y-9990000D02*
X9352500Y-10295000D01*
X9612835Y-10250335D02*
X9612835Y-10034665D01*
X9397165Y-10034665D01*
X9397165Y-10250335D01*
X9612835Y-10250335D01*
X9352500Y-11895000D02*
X9657500Y-12200000D01*
X9657500Y-11895000D02*
X9352500Y-12200000D01*
X9612835Y-12155335D02*
X9612835Y-11939665D01*
X9397165Y-11939665D01*
X9397165Y-12155335D01*
X9612835Y-12155335D01*
X9872500Y-4275000D02*
X10177500Y-4580000D01*
X10177500Y-4275000D02*
X9872500Y-4580000D01*
X10132835Y-4535335D02*
X10132835Y-4319665D01*
X9917165Y-4319665D01*
X9917165Y-4535335D01*
X10132835Y-4535335D01*
X9872500Y-6180000D02*
X10177500Y-6485000D01*
X10177500Y-6180000D02*
X9872500Y-6485000D01*
X10132835Y-6440335D02*
X10132835Y-6224665D01*
X9917165Y-6224665D01*
X9917165Y-6440335D01*
X10132835Y-6440335D01*
X9872500Y-8085000D02*
X10177500Y-8390000D01*
X10177500Y-8085000D02*
X9872500Y-8390000D01*
X10132835Y-8345335D02*
X10132835Y-8129665D01*
X9917165Y-8129665D01*
X9917165Y-8345335D01*
X10132835Y-8345335D01*
X9872500Y-9990000D02*
X10177500Y-10295000D01*
X10177500Y-9990000D02*
X9872500Y-10295000D01*
X10132835Y-10250335D02*
X10132835Y-10034665D01*
X9917165Y-10034665D01*
X9917165Y-10250335D01*
X10132835Y-10250335D01*
X9872500Y-11895000D02*
X10177500Y-12200000D01*
X10177500Y-11895000D02*
X9872500Y-12200000D01*
X10132835Y-12155335D02*
X10132835Y-11939665D01*
X9917165Y-11939665D01*
X9917165Y-12155335D01*
X10132835Y-12155335D01*
X10052500Y-4170000D02*
X10357500Y-4475000D01*
X10357500Y-4170000D02*
X10052500Y-4475000D01*
X10312835Y-4430335D02*
X10312835Y-4214665D01*
X10097165Y-4214665D01*
X10097165Y-4430335D01*
X10312835Y-4430335D01*
X10052500Y-6075000D02*
X10357500Y-6380000D01*
X10357500Y-6075000D02*
X10052500Y-6380000D01*
X10312835Y-6335335D02*
X10312835Y-6119665D01*
X10097165Y-6119665D01*
X10097165Y-6335335D01*
X10312835Y-6335335D01*
X10052500Y-7980000D02*
X10357500Y-8285000D01*
X10357500Y-7980000D02*
X10052500Y-8285000D01*
X10312835Y-8240335D02*
X10312835Y-8024665D01*
X10097165Y-8024665D01*
X10097165Y-8240335D01*
X10312835Y-8240335D01*
X10052500Y-9885000D02*
X10357500Y-10190000D01*
X10357500Y-9885000D02*
X10052500Y-10190000D01*
X10312835Y-10145335D02*
X10312835Y-9929665D01*
X10097165Y-9929665D01*
X10097165Y-10145335D01*
X10312835Y-10145335D01*
X10052500Y-11790000D02*
X10357500Y-12095000D01*
X10357500Y-11790000D02*
X10052500Y-12095000D01*
X10312835Y-12050335D02*
X10312835Y-11834665D01*
X10097165Y-11834665D01*
X10097165Y-12050335D01*
X10312835Y-12050335D01*
X10112500Y-3320000D02*
X10417500Y-3625000D01*
X10417500Y-3320000D02*
X10112500Y-3625000D01*
X10372835Y-3580335D02*
X10372835Y-3364665D01*
X10157165Y-3364665D01*
X10157165Y-3580335D01*
X10372835Y-3580335D01*
X10112500Y-5225000D02*
X10417500Y-5530000D01*
X10417500Y-5225000D02*
X10112500Y-5530000D01*
X10372835Y-5485335D02*
X10372835Y-5269665D01*
X10157165Y-5269665D01*
X10157165Y-5485335D01*
X10372835Y-5485335D01*
X10112500Y-7130000D02*
X10417500Y-7435000D01*
X10417500Y-7130000D02*
X10112500Y-7435000D01*
X10372835Y-7390335D02*
X10372835Y-7174665D01*
X10157165Y-7174665D01*
X10157165Y-7390335D01*
X10372835Y-7390335D01*
X10112500Y-9035000D02*
X10417500Y-9340000D01*
X10417500Y-9035000D02*
X10112500Y-9340000D01*
X10372835Y-9295335D02*
X10372835Y-9079665D01*
X10157165Y-9079665D01*
X10157165Y-9295335D01*
X10372835Y-9295335D01*
X10112500Y-10940000D02*
X10417500Y-11245000D01*
X10417500Y-10940000D02*
X10112500Y-11245000D01*
X10372835Y-11200335D02*
X10372835Y-10984665D01*
X10157165Y-10984665D01*
X10157165Y-11200335D01*
X10372835Y-11200335D01*
X11017500Y-3320000D02*
X11322500Y-3625000D01*
X11322500Y-3320000D02*
X11017500Y-3625000D01*
X11277835Y-3580335D02*
X11277835Y-3364665D01*
X11062165Y-3364665D01*
X11062165Y-3580335D01*
X11277835Y-3580335D01*
X11017500Y-5225000D02*
X11322500Y-5530000D01*
X11322500Y-5225000D02*
X11017500Y-5530000D01*
X11277835Y-5485335D02*
X11277835Y-5269665D01*
X11062165Y-5269665D01*
X11062165Y-5485335D01*
X11277835Y-5485335D01*
X11017500Y-7130000D02*
X11322500Y-7435000D01*
X11322500Y-7130000D02*
X11017500Y-7435000D01*
X11277835Y-7390335D02*
X11277835Y-7174665D01*
X11062165Y-7174665D01*
X11062165Y-7390335D01*
X11277835Y-7390335D01*
X11017500Y-9035000D02*
X11322500Y-9340000D01*
X11322500Y-9035000D02*
X11017500Y-9340000D01*
X11277835Y-9295335D02*
X11277835Y-9079665D01*
X11062165Y-9079665D01*
X11062165Y-9295335D01*
X11277835Y-9295335D01*
X11017500Y-10940000D02*
X11322500Y-11245000D01*
X11322500Y-10940000D02*
X11017500Y-11245000D01*
X11277835Y-11200335D02*
X11277835Y-10984665D01*
X11062165Y-10984665D01*
X11062165Y-11200335D01*
X11277835Y-11200335D01*
X11077500Y-4170000D02*
X11382500Y-4475000D01*
X11382500Y-4170000D02*
X11077500Y-4475000D01*
X11337835Y-4430335D02*
X11337835Y-4214665D01*
X11122165Y-4214665D01*
X11122165Y-4430335D01*
X11337835Y-4430335D01*
X11077500Y-6075000D02*
X11382500Y-6380000D01*
X11382500Y-6075000D02*
X11077500Y-6380000D01*
X11337835Y-6335335D02*
X11337835Y-6119665D01*
X11122165Y-6119665D01*
X11122165Y-6335335D01*
X11337835Y-6335335D01*
X11077500Y-7980000D02*
X11382500Y-8285000D01*
X11382500Y-7980000D02*
X11077500Y-8285000D01*
X11337835Y-8240335D02*
X11337835Y-8024665D01*
X11122165Y-8024665D01*
X11122165Y-8240335D01*
X11337835Y-8240335D01*
X11077500Y-9885000D02*
X11382500Y-10190000D01*
X11382500Y-9885000D02*
X11077500Y-10190000D01*
X11337835Y-10145335D02*
X11337835Y-9929665D01*
X11122165Y-9929665D01*
X11122165Y-10145335D01*
X11337835Y-10145335D01*
X11077500Y-11790000D02*
X11382500Y-12095000D01*
X11382500Y-11790000D02*
X11077500Y-12095000D01*
X11337835Y-12050335D02*
X11337835Y-11834665D01*
X11122165Y-11834665D01*
X11122165Y-12050335D01*
X11337835Y-12050335D01*
X11257500Y-4275000D02*
X11562500Y-4580000D01*
X11562500Y-4275000D02*
X11257500Y-4580000D01*
X11517835Y-4535335D02*
X11517835Y-4319665D01*
X11302165Y-4319665D01*
X11302165Y-4535335D01*
X11517835Y-4535335D01*
X11257500Y-6180000D02*
X11562500Y-6485000D01*
X11562500Y-6180000D02*
X11257500Y-6485000D01*
X11517835Y-6440335D02*
X11517835Y-6224665D01*
X11302165Y-6224665D01*
X11302165Y-6440335D01*
X11517835Y-6440335D01*
X11257500Y-8085000D02*
X11562500Y-8390000D01*
X11562500Y-8085000D02*
X11257500Y-8390000D01*
X11517835Y-8345335D02*
X11517835Y-8129665D01*
X11302165Y-8129665D01*
X11302165Y-8345335D01*
X11517835Y-8345335D01*
X11257500Y-9990000D02*
X11562500Y-10295000D01*
X11562500Y-9990000D02*
X11257500Y-10295000D01*
X11517835Y-10250335D02*
X11517835Y-10034665D01*
X11302165Y-10034665D01*
X11302165Y-10250335D01*
X11517835Y-10250335D01*
X11257500Y-11895000D02*
X11562500Y-12200000D01*
X11562500Y-11895000D02*
X11257500Y-12200000D01*
X11517835Y-12155335D02*
X11517835Y-11939665D01*
X11302165Y-11939665D01*
X11302165Y-12155335D01*
X11517835Y-12155335D01*
X11777500Y-4275000D02*
X12082500Y-4580000D01*
X12082500Y-4275000D02*
X11777500Y-4580000D01*
X12037835Y-4535335D02*
X12037835Y-4319665D01*
X11822165Y-4319665D01*
X11822165Y-4535335D01*
X12037835Y-4535335D01*
X11777500Y-6180000D02*
X12082500Y-6485000D01*
X12082500Y-6180000D02*
X11777500Y-6485000D01*
X12037835Y-6440335D02*
X12037835Y-6224665D01*
X11822165Y-6224665D01*
X11822165Y-6440335D01*
X12037835Y-6440335D01*
X11777500Y-8085000D02*
X12082500Y-8390000D01*
X12082500Y-8085000D02*
X11777500Y-8390000D01*
X12037835Y-8345335D02*
X12037835Y-8129665D01*
X11822165Y-8129665D01*
X11822165Y-8345335D01*
X12037835Y-8345335D01*
X11777500Y-9990000D02*
X12082500Y-10295000D01*
X12082500Y-9990000D02*
X11777500Y-10295000D01*
X12037835Y-10250335D02*
X12037835Y-10034665D01*
X11822165Y-10034665D01*
X11822165Y-10250335D01*
X12037835Y-10250335D01*
X11777500Y-11895000D02*
X12082500Y-12200000D01*
X12082500Y-11895000D02*
X11777500Y-12200000D01*
X12037835Y-12155335D02*
X12037835Y-11939665D01*
X11822165Y-11939665D01*
X11822165Y-12155335D01*
X12037835Y-12155335D01*
X11957500Y-4170000D02*
X12262500Y-4475000D01*
X12262500Y-4170000D02*
X11957500Y-4475000D01*
X12217835Y-4430335D02*
X12217835Y-4214665D01*
X12002165Y-4214665D01*
X12002165Y-4430335D01*
X12217835Y-4430335D01*
X11957500Y-6075000D02*
X12262500Y-6380000D01*
X12262500Y-6075000D02*
X11957500Y-6380000D01*
X12217835Y-6335335D02*
X12217835Y-6119665D01*
X12002165Y-6119665D01*
X12002165Y-6335335D01*
X12217835Y-6335335D01*
X11957500Y-7980000D02*
X12262500Y-8285000D01*
X12262500Y-7980000D02*
X11957500Y-8285000D01*
X12217835Y-8240335D02*
X12217835Y-8024665D01*
X12002165Y-8024665D01*
X12002165Y-8240335D01*
X12217835Y-8240335D01*
X11957500Y-9885000D02*
X12262500Y-10190000D01*
X12262500Y-9885000D02*
X11957500Y-10190000D01*
X12217835Y-10145335D02*
X12217835Y-9929665D01*
X12002165Y-9929665D01*
X12002165Y-10145335D01*
X12217835Y-10145335D01*
X11957500Y-11790000D02*
X12262500Y-12095000D01*
X12262500Y-11790000D02*
X11957500Y-12095000D01*
X12217835Y-12050335D02*
X12217835Y-11834665D01*
X12002165Y-11834665D01*
X12002165Y-12050335D01*
X12217835Y-12050335D01*
X12017500Y-3320000D02*
X12322500Y-3625000D01*
X12322500Y-3320000D02*
X12017500Y-3625000D01*
X12277835Y-3580335D02*
X12277835Y-3364665D01*
X12062165Y-3364665D01*
X12062165Y-3580335D01*
X12277835Y-3580335D01*
X12017500Y-5225000D02*
X12322500Y-5530000D01*
X12322500Y-5225000D02*
X12017500Y-5530000D01*
X12277835Y-5485335D02*
X12277835Y-5269665D01*
X12062165Y-5269665D01*
X12062165Y-5485335D01*
X12277835Y-5485335D01*
X12017500Y-7130000D02*
X12322500Y-7435000D01*
X12322500Y-7130000D02*
X12017500Y-7435000D01*
X12277835Y-7390335D02*
X12277835Y-7174665D01*
X12062165Y-7174665D01*
X12062165Y-7390335D01*
X12277835Y-7390335D01*
X12017500Y-9035000D02*
X12322500Y-9340000D01*
X12322500Y-9035000D02*
X12017500Y-9340000D01*
X12277835Y-9295335D02*
X12277835Y-9079665D01*
X12062165Y-9079665D01*
X12062165Y-9295335D01*
X12277835Y-9295335D01*
X12017500Y-10940000D02*
X12322500Y-11245000D01*
X12322500Y-10940000D02*
X12017500Y-11245000D01*
X12277835Y-11200335D02*
X12277835Y-10984665D01*
X12062165Y-10984665D01*
X12062165Y-11200335D01*
X12277835Y-11200335D01*
X12922500Y-3320000D02*
X13227500Y-3625000D01*
X13227500Y-3320000D02*
X12922500Y-3625000D01*
X13182835Y-3580335D02*
X13182835Y-3364665D01*
X12967165Y-3364665D01*
X12967165Y-3580335D01*
X13182835Y-3580335D01*
X12922500Y-5225000D02*
X13227500Y-5530000D01*
X13227500Y-5225000D02*
X12922500Y-5530000D01*
X13182835Y-5485335D02*
X13182835Y-5269665D01*
X12967165Y-5269665D01*
X12967165Y-5485335D01*
X13182835Y-5485335D01*
X12922500Y-7130000D02*
X13227500Y-7435000D01*
X13227500Y-7130000D02*
X12922500Y-7435000D01*
X13182835Y-7390335D02*
X13182835Y-7174665D01*
X12967165Y-7174665D01*
X12967165Y-7390335D01*
X13182835Y-7390335D01*
X12922500Y-9035000D02*
X13227500Y-9340000D01*
X13227500Y-9035000D02*
X12922500Y-9340000D01*
X13182835Y-9295335D02*
X13182835Y-9079665D01*
X12967165Y-9079665D01*
X12967165Y-9295335D01*
X13182835Y-9295335D01*
X12922500Y-10940000D02*
X13227500Y-11245000D01*
X13227500Y-10940000D02*
X12922500Y-11245000D01*
X13182835Y-11200335D02*
X13182835Y-10984665D01*
X12967165Y-10984665D01*
X12967165Y-11200335D01*
X13182835Y-11200335D01*
X12982500Y-4170000D02*
X13287500Y-4475000D01*
X13287500Y-4170000D02*
X12982500Y-4475000D01*
X13242835Y-4430335D02*
X13242835Y-4214665D01*
X13027165Y-4214665D01*
X13027165Y-4430335D01*
X13242835Y-4430335D01*
X12982500Y-6075000D02*
X13287500Y-6380000D01*
X13287500Y-6075000D02*
X12982500Y-6380000D01*
X13242835Y-6335335D02*
X13242835Y-6119665D01*
X13027165Y-6119665D01*
X13027165Y-6335335D01*
X13242835Y-6335335D01*
X12982500Y-7980000D02*
X13287500Y-8285000D01*
X13287500Y-7980000D02*
X12982500Y-8285000D01*
X13242835Y-8240335D02*
X13242835Y-8024665D01*
X13027165Y-8024665D01*
X13027165Y-8240335D01*
X13242835Y-8240335D01*
X12982500Y-9885000D02*
X13287500Y-10190000D01*
X13287500Y-9885000D02*
X12982500Y-10190000D01*
X13242835Y-10145335D02*
X13242835Y-9929665D01*
X13027165Y-9929665D01*
X13027165Y-10145335D01*
X13242835Y-10145335D01*
X12982500Y-11790000D02*
X13287500Y-12095000D01*
X13287500Y-11790000D02*
X12982500Y-12095000D01*
X13242835Y-12050335D02*
X13242835Y-11834665D01*
X13027165Y-11834665D01*
X13027165Y-12050335D01*
X13242835Y-12050335D01*
X13162500Y-4275000D02*
X13467500Y-4580000D01*
X13467500Y-4275000D02*
X13162500Y-4580000D01*
X13422835Y-4535335D02*
X13422835Y-4319665D01*
X13207165Y-4319665D01*
X13207165Y-4535335D01*
X13422835Y-4535335D01*
X13162500Y-6180000D02*
X13467500Y-6485000D01*
X13467500Y-6180000D02*
X13162500Y-6485000D01*
X13422835Y-6440335D02*
X13422835Y-6224665D01*
X13207165Y-6224665D01*
X13207165Y-6440335D01*
X13422835Y-6440335D01*
X13162500Y-8085000D02*
X13467500Y-8390000D01*
X13467500Y-8085000D02*
X13162500Y-8390000D01*
X13422835Y-8345335D02*
X13422835Y-8129665D01*
X13207165Y-8129665D01*
X13207165Y-8345335D01*
X13422835Y-8345335D01*
X13162500Y-9990000D02*
X13467500Y-10295000D01*
X13467500Y-9990000D02*
X13162500Y-10295000D01*
X13422835Y-10250335D02*
X13422835Y-10034665D01*
X13207165Y-10034665D01*
X13207165Y-10250335D01*
X13422835Y-10250335D01*
X13162500Y-11895000D02*
X13467500Y-12200000D01*
X13467500Y-11895000D02*
X13162500Y-12200000D01*
X13422835Y-12155335D02*
X13422835Y-11939665D01*
X13207165Y-11939665D01*
X13207165Y-12155335D01*
X13422835Y-12155335D01*
X13682500Y-4275000D02*
X13987500Y-4580000D01*
X13987500Y-4275000D02*
X13682500Y-4580000D01*
X13942835Y-4535335D02*
X13942835Y-4319665D01*
X13727165Y-4319665D01*
X13727165Y-4535335D01*
X13942835Y-4535335D01*
X13682500Y-6180000D02*
X13987500Y-6485000D01*
X13987500Y-6180000D02*
X13682500Y-6485000D01*
X13942835Y-6440335D02*
X13942835Y-6224665D01*
X13727165Y-6224665D01*
X13727165Y-6440335D01*
X13942835Y-6440335D01*
X13682500Y-8085000D02*
X13987500Y-8390000D01*
X13987500Y-8085000D02*
X13682500Y-8390000D01*
X13942835Y-8345335D02*
X13942835Y-8129665D01*
X13727165Y-8129665D01*
X13727165Y-8345335D01*
X13942835Y-8345335D01*
X13682500Y-9990000D02*
X13987500Y-10295000D01*
X13987500Y-9990000D02*
X13682500Y-10295000D01*
X13942835Y-10250335D02*
X13942835Y-10034665D01*
X13727165Y-10034665D01*
X13727165Y-10250335D01*
X13942835Y-10250335D01*
X13682500Y-11895000D02*
X13987500Y-12200000D01*
X13987500Y-11895000D02*
X13682500Y-12200000D01*
X13942835Y-12155335D02*
X13942835Y-11939665D01*
X13727165Y-11939665D01*
X13727165Y-12155335D01*
X13942835Y-12155335D01*
X13862500Y-4170000D02*
X14167500Y-4475000D01*
X14167500Y-4170000D02*
X13862500Y-4475000D01*
X14122835Y-4430335D02*
X14122835Y-4214665D01*
X13907165Y-4214665D01*
X13907165Y-4430335D01*
X14122835Y-4430335D01*
X13862500Y-6075000D02*
X14167500Y-6380000D01*
X14167500Y-6075000D02*
X13862500Y-6380000D01*
X14122835Y-6335335D02*
X14122835Y-6119665D01*
X13907165Y-6119665D01*
X13907165Y-6335335D01*
X14122835Y-6335335D01*
X13862500Y-7980000D02*
X14167500Y-8285000D01*
X14167500Y-7980000D02*
X13862500Y-8285000D01*
X14122835Y-8240335D02*
X14122835Y-8024665D01*
X13907165Y-8024665D01*
X13907165Y-8240335D01*
X14122835Y-8240335D01*
X13862500Y-9885000D02*
X14167500Y-10190000D01*
X14167500Y-9885000D02*
X13862500Y-10190000D01*
X14122835Y-10145335D02*
X14122835Y-9929665D01*
X13907165Y-9929665D01*
X13907165Y-10145335D01*
X14122835Y-10145335D01*
X13862500Y-11790000D02*
X14167500Y-12095000D01*
X14167500Y-11790000D02*
X13862500Y-12095000D01*
X14122835Y-12050335D02*
X14122835Y-11834665D01*
X13907165Y-11834665D01*
X13907165Y-12050335D01*
X14122835Y-12050335D01*
X13922500Y-3320000D02*
X14227500Y-3625000D01*
X14227500Y-3320000D02*
X13922500Y-3625000D01*
X14182835Y-3580335D02*
X14182835Y-3364665D01*
X13967165Y-3364665D01*
X13967165Y-3580335D01*
X14182835Y-3580335D01*
X13922500Y-5225000D02*
X14227500Y-5530000D01*
X14227500Y-5225000D02*
X13922500Y-5530000D01*
X14182835Y-5485335D02*
X14182835Y-5269665D01*
X13967165Y-5269665D01*
X13967165Y-5485335D01*
X14182835Y-5485335D01*
X13922500Y-7130000D02*
X14227500Y-7435000D01*
X14227500Y-7130000D02*
X13922500Y-7435000D01*
X14182835Y-7390335D02*
X14182835Y-7174665D01*
X13967165Y-7174665D01*
X13967165Y-7390335D01*
X14182835Y-7390335D01*
X13922500Y-9035000D02*
X14227500Y-9340000D01*
X14227500Y-9035000D02*
X13922500Y-9340000D01*
X14182835Y-9295335D02*
X14182835Y-9079665D01*
X13967165Y-9079665D01*
X13967165Y-9295335D01*
X14182835Y-9295335D01*
X13922500Y-10940000D02*
X14227500Y-11245000D01*
X14227500Y-10940000D02*
X13922500Y-11245000D01*
X14182835Y-11200335D02*
X14182835Y-10984665D01*
X13967165Y-10984665D01*
X13967165Y-11200335D01*
X14182835Y-11200335D01*
X14827500Y-3320000D02*
X15132500Y-3625000D01*
X15132500Y-3320000D02*
X14827500Y-3625000D01*
X15087835Y-3580335D02*
X15087835Y-3364665D01*
X14872165Y-3364665D01*
X14872165Y-3580335D01*
X15087835Y-3580335D01*
X14827500Y-5225000D02*
X15132500Y-5530000D01*
X15132500Y-5225000D02*
X14827500Y-5530000D01*
X15087835Y-5485335D02*
X15087835Y-5269665D01*
X14872165Y-5269665D01*
X14872165Y-5485335D01*
X15087835Y-5485335D01*
X14827500Y-7130000D02*
X15132500Y-7435000D01*
X15132500Y-7130000D02*
X14827500Y-7435000D01*
X15087835Y-7390335D02*
X15087835Y-7174665D01*
X14872165Y-7174665D01*
X14872165Y-7390335D01*
X15087835Y-7390335D01*
X14827500Y-9035000D02*
X15132500Y-9340000D01*
X15132500Y-9035000D02*
X14827500Y-9340000D01*
X15087835Y-9295335D02*
X15087835Y-9079665D01*
X14872165Y-9079665D01*
X14872165Y-9295335D01*
X15087835Y-9295335D01*
X14827500Y-10940000D02*
X15132500Y-11245000D01*
X15132500Y-10940000D02*
X14827500Y-11245000D01*
X15087835Y-11200335D02*
X15087835Y-10984665D01*
X14872165Y-10984665D01*
X14872165Y-11200335D01*
X15087835Y-11200335D01*
X14887500Y-4170000D02*
X15192500Y-4475000D01*
X15192500Y-4170000D02*
X14887500Y-4475000D01*
X15147835Y-4430335D02*
X15147835Y-4214665D01*
X14932165Y-4214665D01*
X14932165Y-4430335D01*
X15147835Y-4430335D01*
X14887500Y-6075000D02*
X15192500Y-6380000D01*
X15192500Y-6075000D02*
X14887500Y-6380000D01*
X15147835Y-6335335D02*
X15147835Y-6119665D01*
X14932165Y-6119665D01*
X14932165Y-6335335D01*
X15147835Y-6335335D01*
X14887500Y-7980000D02*
X15192500Y-8285000D01*
X15192500Y-7980000D02*
X14887500Y-8285000D01*
X15147835Y-8240335D02*
X15147835Y-8024665D01*
X14932165Y-8024665D01*
X14932165Y-8240335D01*
X15147835Y-8240335D01*
X14887500Y-9885000D02*
X15192500Y-10190000D01*
X15192500Y-9885000D02*
X14887500Y-10190000D01*
X15147835Y-10145335D02*
X15147835Y-9929665D01*
X14932165Y-9929665D01*
X14932165Y-10145335D01*
X15147835Y-10145335D01*
X14887500Y-11790000D02*
X15192500Y-12095000D01*
X15192500Y-11790000D02*
X14887500Y-12095000D01*
X15147835Y-12050335D02*
X15147835Y-11834665D01*
X14932165Y-11834665D01*
X14932165Y-12050335D01*
X15147835Y-12050335D01*
X15067500Y-4275000D02*
X15372500Y-4580000D01*
X15372500Y-4275000D02*
X15067500Y-4580000D01*
X15327835Y-4535335D02*
X15327835Y-4319665D01*
X15112165Y-4319665D01*
X15112165Y-4535335D01*
X15327835Y-4535335D01*
X15067500Y-6180000D02*
X15372500Y-6485000D01*
X15372500Y-6180000D02*
X15067500Y-6485000D01*
X15327835Y-6440335D02*
X15327835Y-6224665D01*
X15112165Y-6224665D01*
X15112165Y-6440335D01*
X15327835Y-6440335D01*
X15067500Y-8085000D02*
X15372500Y-8390000D01*
X15372500Y-8085000D02*
X15067500Y-8390000D01*
X15327835Y-8345335D02*
X15327835Y-8129665D01*
X15112165Y-8129665D01*
X15112165Y-8345335D01*
X15327835Y-8345335D01*
X15067500Y-9990000D02*
X15372500Y-10295000D01*
X15372500Y-9990000D02*
X15067500Y-10295000D01*
X15327835Y-10250335D02*
X15327835Y-10034665D01*
X15112165Y-10034665D01*
X15112165Y-10250335D01*
X15327835Y-10250335D01*
X15067500Y-11895000D02*
X15372500Y-12200000D01*
X15372500Y-11895000D02*
X15067500Y-12200000D01*
X15327835Y-12155335D02*
X15327835Y-11939665D01*
X15112165Y-11939665D01*
X15112165Y-12155335D01*
X15327835Y-12155335D01*
X15587500Y-4275000D02*
X15892500Y-4580000D01*
X15892500Y-4275000D02*
X15587500Y-4580000D01*
X15847835Y-4535335D02*
X15847835Y-4319665D01*
X15632165Y-4319665D01*
X15632165Y-4535335D01*
X15847835Y-4535335D01*
X15587500Y-6180000D02*
X15892500Y-6485000D01*
X15892500Y-6180000D02*
X15587500Y-6485000D01*
X15847835Y-6440335D02*
X15847835Y-6224665D01*
X15632165Y-6224665D01*
X15632165Y-6440335D01*
X15847835Y-6440335D01*
X15587500Y-8085000D02*
X15892500Y-8390000D01*
X15892500Y-8085000D02*
X15587500Y-8390000D01*
X15847835Y-8345335D02*
X15847835Y-8129665D01*
X15632165Y-8129665D01*
X15632165Y-8345335D01*
X15847835Y-8345335D01*
X15587500Y-9990000D02*
X15892500Y-10295000D01*
X15892500Y-9990000D02*
X15587500Y-10295000D01*
X15847835Y-10250335D02*
X15847835Y-10034665D01*
X15632165Y-10034665D01*
X15632165Y-10250335D01*
X15847835Y-10250335D01*
X15587500Y-11895000D02*
X15892500Y-12200000D01*
X15892500Y-11895000D02*
X15587500Y-12200000D01*
X15847835Y-12155335D02*
X15847835Y-11939665D01*
X15632165Y-11939665D01*
X15632165Y-12155335D01*
X15847835Y-12155335D01*
X15767500Y-4170000D02*
X16072500Y-4475000D01*
X16072500Y-4170000D02*
X15767500Y-4475000D01*
X16027835Y-4430335D02*
X16027835Y-4214665D01*
X15812165Y-4214665D01*
X15812165Y-4430335D01*
X16027835Y-4430335D01*
X15767500Y-6075000D02*
X16072500Y-6380000D01*
X16072500Y-6075000D02*
X15767500Y-6380000D01*
X16027835Y-6335335D02*
X16027835Y-6119665D01*
X15812165Y-6119665D01*
X15812165Y-6335335D01*
X16027835Y-6335335D01*
X15767500Y-7980000D02*
X16072500Y-8285000D01*
X16072500Y-7980000D02*
X15767500Y-8285000D01*
X16027835Y-8240335D02*
X16027835Y-8024665D01*
X15812165Y-8024665D01*
X15812165Y-8240335D01*
X16027835Y-8240335D01*
X15767500Y-9885000D02*
X16072500Y-10190000D01*
X16072500Y-9885000D02*
X15767500Y-10190000D01*
X16027835Y-10145335D02*
X16027835Y-9929665D01*
X15812165Y-9929665D01*
X15812165Y-10145335D01*
X16027835Y-10145335D01*
X15767500Y-11790000D02*
X16072500Y-12095000D01*
X16072500Y-11790000D02*
X15767500Y-12095000D01*
X16027835Y-12050335D02*
X16027835Y-11834665D01*
X15812165Y-11834665D01*
X15812165Y-12050335D01*
X16027835Y-12050335D01*
X15827500Y-3320000D02*
X16132500Y-3625000D01*
X16132500Y-3320000D02*
X15827500Y-3625000D01*
X16087835Y-3580335D02*
X16087835Y-3364665D01*
X15872165Y-3364665D01*
X15872165Y-3580335D01*
X16087835Y-3580335D01*
X15827500Y-5225000D02*
X16132500Y-5530000D01*
X16132500Y-5225000D02*
X15827500Y-5530000D01*
X16087835Y-5485335D02*
X16087835Y-5269665D01*
X15872165Y-5269665D01*
X15872165Y-5485335D01*
X16087835Y-5485335D01*
X15827500Y-7130000D02*
X16132500Y-7435000D01*
X16132500Y-7130000D02*
X15827500Y-7435000D01*
X16087835Y-7390335D02*
X16087835Y-7174665D01*
X15872165Y-7174665D01*
X15872165Y-7390335D01*
X16087835Y-7390335D01*
X15827500Y-9035000D02*
X16132500Y-9340000D01*
X16132500Y-9035000D02*
X15827500Y-9340000D01*
X16087835Y-9295335D02*
X16087835Y-9079665D01*
X15872165Y-9079665D01*
X15872165Y-9295335D01*
X16087835Y-9295335D01*
X15827500Y-10940000D02*
X16132500Y-11245000D01*
X16132500Y-10940000D02*
X15827500Y-11245000D01*
X16087835Y-11200335D02*
X16087835Y-10984665D01*
X15872165Y-10984665D01*
X15872165Y-11200335D01*
X16087835Y-11200335D01*
X16732500Y-3320000D02*
X17037500Y-3625000D01*
X17037500Y-3320000D02*
X16732500Y-3625000D01*
X16992835Y-3580335D02*
X16992835Y-3364665D01*
X16777165Y-3364665D01*
X16777165Y-3580335D01*
X16992835Y-3580335D01*
X16732500Y-5225000D02*
X17037500Y-5530000D01*
X17037500Y-5225000D02*
X16732500Y-5530000D01*
X16992835Y-5485335D02*
X16992835Y-5269665D01*
X16777165Y-5269665D01*
X16777165Y-5485335D01*
X16992835Y-5485335D01*
X16732500Y-7130000D02*
X17037500Y-7435000D01*
X17037500Y-7130000D02*
X16732500Y-7435000D01*
X16992835Y-7390335D02*
X16992835Y-7174665D01*
X16777165Y-7174665D01*
X16777165Y-7390335D01*
X16992835Y-7390335D01*
X16732500Y-9035000D02*
X17037500Y-9340000D01*
X17037500Y-9035000D02*
X16732500Y-9340000D01*
X16992835Y-9295335D02*
X16992835Y-9079665D01*
X16777165Y-9079665D01*
X16777165Y-9295335D01*
X16992835Y-9295335D01*
X16732500Y-10940000D02*
X17037500Y-11245000D01*
X17037500Y-10940000D02*
X16732500Y-11245000D01*
X16992835Y-11200335D02*
X16992835Y-10984665D01*
X16777165Y-10984665D01*
X16777165Y-11200335D01*
X16992835Y-11200335D01*
X16792500Y-4170000D02*
X17097500Y-4475000D01*
X17097500Y-4170000D02*
X16792500Y-4475000D01*
X17052835Y-4430335D02*
X17052835Y-4214665D01*
X16837165Y-4214665D01*
X16837165Y-4430335D01*
X17052835Y-4430335D01*
X16792500Y-6075000D02*
X17097500Y-6380000D01*
X17097500Y-6075000D02*
X16792500Y-6380000D01*
X17052835Y-6335335D02*
X17052835Y-6119665D01*
X16837165Y-6119665D01*
X16837165Y-6335335D01*
X17052835Y-6335335D01*
X16792500Y-7980000D02*
X17097500Y-8285000D01*
X17097500Y-7980000D02*
X16792500Y-8285000D01*
X17052835Y-8240335D02*
X17052835Y-8024665D01*
X16837165Y-8024665D01*
X16837165Y-8240335D01*
X17052835Y-8240335D01*
X16792500Y-9885000D02*
X17097500Y-10190000D01*
X17097500Y-9885000D02*
X16792500Y-10190000D01*
X17052835Y-10145335D02*
X17052835Y-9929665D01*
X16837165Y-9929665D01*
X16837165Y-10145335D01*
X17052835Y-10145335D01*
X16792500Y-11790000D02*
X17097500Y-12095000D01*
X17097500Y-11790000D02*
X16792500Y-12095000D01*
X17052835Y-12050335D02*
X17052835Y-11834665D01*
X16837165Y-11834665D01*
X16837165Y-12050335D01*
X17052835Y-12050335D01*
X16972500Y-4275000D02*
X17277500Y-4580000D01*
X17277500Y-4275000D02*
X16972500Y-4580000D01*
X17232835Y-4535335D02*
X17232835Y-4319665D01*
X17017165Y-4319665D01*
X17017165Y-4535335D01*
X17232835Y-4535335D01*
X16972500Y-6180000D02*
X17277500Y-6485000D01*
X17277500Y-6180000D02*
X16972500Y-6485000D01*
X17232835Y-6440335D02*
X17232835Y-6224665D01*
X17017165Y-6224665D01*
X17017165Y-6440335D01*
X17232835Y-6440335D01*
X16972500Y-8085000D02*
X17277500Y-8390000D01*
X17277500Y-8085000D02*
X16972500Y-8390000D01*
X17232835Y-8345335D02*
X17232835Y-8129665D01*
X17017165Y-8129665D01*
X17017165Y-8345335D01*
X17232835Y-8345335D01*
X16972500Y-9990000D02*
X17277500Y-10295000D01*
X17277500Y-9990000D02*
X16972500Y-10295000D01*
X17232835Y-10250335D02*
X17232835Y-10034665D01*
X17017165Y-10034665D01*
X17017165Y-10250335D01*
X17232835Y-10250335D01*
X16972500Y-11895000D02*
X17277500Y-12200000D01*
X17277500Y-11895000D02*
X16972500Y-12200000D01*
X17232835Y-12155335D02*
X17232835Y-11939665D01*
X17017165Y-11939665D01*
X17017165Y-12155335D01*
X17232835Y-12155335D01*
X17492500Y-4275000D02*
X17797500Y-4580000D01*
X17797500Y-4275000D02*
X17492500Y-4580000D01*
X17752835Y-4535335D02*
X17752835Y-4319665D01*
X17537165Y-4319665D01*
X17537165Y-4535335D01*
X17752835Y-4535335D01*
X17492500Y-6180000D02*
X17797500Y-6485000D01*
X17797500Y-6180000D02*
X17492500Y-6485000D01*
X17752835Y-6440335D02*
X17752835Y-6224665D01*
X17537165Y-6224665D01*
X17537165Y-6440335D01*
X17752835Y-6440335D01*
X17492500Y-8085000D02*
X17797500Y-8390000D01*
X17797500Y-8085000D02*
X17492500Y-8390000D01*
X17752835Y-8345335D02*
X17752835Y-8129665D01*
X17537165Y-8129665D01*
X17537165Y-8345335D01*
X17752835Y-8345335D01*
X17492500Y-9990000D02*
X17797500Y-10295000D01*
X17797500Y-9990000D02*
X17492500Y-10295000D01*
X17752835Y-10250335D02*
X17752835Y-10034665D01*
X17537165Y-10034665D01*
X17537165Y-10250335D01*
X17752835Y-10250335D01*
X17492500Y-11895000D02*
X17797500Y-12200000D01*
X17797500Y-11895000D02*
X17492500Y-12200000D01*
X17752835Y-12155335D02*
X17752835Y-11939665D01*
X17537165Y-11939665D01*
X17537165Y-12155335D01*
X17752835Y-12155335D01*
X17672500Y-4170000D02*
X17977500Y-4475000D01*
X17977500Y-4170000D02*
X17672500Y-4475000D01*
X17932835Y-4430335D02*
X17932835Y-4214665D01*
X17717165Y-4214665D01*
X17717165Y-4430335D01*
X17932835Y-4430335D01*
X17672500Y-6075000D02*
X17977500Y-6380000D01*
X17977500Y-6075000D02*
X17672500Y-6380000D01*
X17932835Y-6335335D02*
X17932835Y-6119665D01*
X17717165Y-6119665D01*
X17717165Y-6335335D01*
X17932835Y-6335335D01*
X17672500Y-7980000D02*
X17977500Y-8285000D01*
X17977500Y-7980000D02*
X17672500Y-8285000D01*
X17932835Y-8240335D02*
X17932835Y-8024665D01*
X17717165Y-8024665D01*
X17717165Y-8240335D01*
X17932835Y-8240335D01*
X17672500Y-9885000D02*
X17977500Y-10190000D01*
X17977500Y-9885000D02*
X17672500Y-10190000D01*
X17932835Y-10145335D02*
X17932835Y-9929665D01*
X17717165Y-9929665D01*
X17717165Y-10145335D01*
X17932835Y-10145335D01*
X17672500Y-11790000D02*
X17977500Y-12095000D01*
X17977500Y-11790000D02*
X17672500Y-12095000D01*
X17932835Y-12050335D02*
X17932835Y-11834665D01*
X17717165Y-11834665D01*
X17717165Y-12050335D01*
X17932835Y-12050335D01*
X17732500Y-3320000D02*
X18037500Y-3625000D01*
X18037500Y-3320000D02*
X17732500Y-3625000D01*
X17992835Y-3580335D02*
X17992835Y-3364665D01*
X17777165Y-3364665D01*
X17777165Y-3580335D01*
X17992835Y-3580335D01*
X17732500Y-5225000D02*
X18037500Y-5530000D01*
X18037500Y-5225000D02*
X17732500Y-5530000D01*
X17992835Y-5485335D02*
X17992835Y-5269665D01*
X17777165Y-5269665D01*
X17777165Y-5485335D01*
X17992835Y-5485335D01*
X17732500Y-7130000D02*
X18037500Y-7435000D01*
X18037500Y-7130000D02*
X17732500Y-7435000D01*
X17992835Y-7390335D02*
X17992835Y-7174665D01*
X17777165Y-7174665D01*
X17777165Y-7390335D01*
X17992835Y-7390335D01*
X17732500Y-9035000D02*
X18037500Y-9340000D01*
X18037500Y-9035000D02*
X17732500Y-9340000D01*
X17992835Y-9295335D02*
X17992835Y-9079665D01*
X17777165Y-9079665D01*
X17777165Y-9295335D01*
X17992835Y-9295335D01*
X17732500Y-10940000D02*
X18037500Y-11245000D01*
X18037500Y-10940000D02*
X17732500Y-11245000D01*
X17992835Y-11200335D02*
X17992835Y-10984665D01*
X17777165Y-10984665D01*
X17777165Y-11200335D01*
X17992835Y-11200335D01*
X18637500Y-3320000D02*
X18942500Y-3625000D01*
X18942500Y-3320000D02*
X18637500Y-3625000D01*
X18897835Y-3580335D02*
X18897835Y-3364665D01*
X18682165Y-3364665D01*
X18682165Y-3580335D01*
X18897835Y-3580335D01*
X18637500Y-5225000D02*
X18942500Y-5530000D01*
X18942500Y-5225000D02*
X18637500Y-5530000D01*
X18897835Y-5485335D02*
X18897835Y-5269665D01*
X18682165Y-5269665D01*
X18682165Y-5485335D01*
X18897835Y-5485335D01*
X18637500Y-7130000D02*
X18942500Y-7435000D01*
X18942500Y-7130000D02*
X18637500Y-7435000D01*
X18897835Y-7390335D02*
X18897835Y-7174665D01*
X18682165Y-7174665D01*
X18682165Y-7390335D01*
X18897835Y-7390335D01*
X18637500Y-9035000D02*
X18942500Y-9340000D01*
X18942500Y-9035000D02*
X18637500Y-9340000D01*
X18897835Y-9295335D02*
X18897835Y-9079665D01*
X18682165Y-9079665D01*
X18682165Y-9295335D01*
X18897835Y-9295335D01*
X18637500Y-10940000D02*
X18942500Y-11245000D01*
X18942500Y-10940000D02*
X18637500Y-11245000D01*
X18897835Y-11200335D02*
X18897835Y-10984665D01*
X18682165Y-10984665D01*
X18682165Y-11200335D01*
X18897835Y-11200335D01*
X18697500Y-4170000D02*
X19002500Y-4475000D01*
X19002500Y-4170000D02*
X18697500Y-4475000D01*
X18957835Y-4430335D02*
X18957835Y-4214665D01*
X18742165Y-4214665D01*
X18742165Y-4430335D01*
X18957835Y-4430335D01*
X18697500Y-6075000D02*
X19002500Y-6380000D01*
X19002500Y-6075000D02*
X18697500Y-6380000D01*
X18957835Y-6335335D02*
X18957835Y-6119665D01*
X18742165Y-6119665D01*
X18742165Y-6335335D01*
X18957835Y-6335335D01*
X18697500Y-7980000D02*
X19002500Y-8285000D01*
X19002500Y-7980000D02*
X18697500Y-8285000D01*
X18957835Y-8240335D02*
X18957835Y-8024665D01*
X18742165Y-8024665D01*
X18742165Y-8240335D01*
X18957835Y-8240335D01*
X18697500Y-9885000D02*
X19002500Y-10190000D01*
X19002500Y-9885000D02*
X18697500Y-10190000D01*
X18957835Y-10145335D02*
X18957835Y-9929665D01*
X18742165Y-9929665D01*
X18742165Y-10145335D01*
X18957835Y-10145335D01*
X18697500Y-11790000D02*
X19002500Y-12095000D01*
X19002500Y-11790000D02*
X18697500Y-12095000D01*
X18957835Y-12050335D02*
X18957835Y-11834665D01*
X18742165Y-11834665D01*
X18742165Y-12050335D01*
X18957835Y-12050335D01*
X18877500Y-4275000D02*
X19182500Y-4580000D01*
X19182500Y-4275000D02*
X18877500Y-4580000D01*
X19137835Y-4535335D02*
X19137835Y-4319665D01*
X18922165Y-4319665D01*
X18922165Y-4535335D01*
X19137835Y-4535335D01*
X18877500Y-6180000D02*
X19182500Y-6485000D01*
X19182500Y-6180000D02*
X18877500Y-6485000D01*
X19137835Y-6440335D02*
X19137835Y-6224665D01*
X18922165Y-6224665D01*
X18922165Y-6440335D01*
X19137835Y-6440335D01*
X18877500Y-8085000D02*
X19182500Y-8390000D01*
X19182500Y-8085000D02*
X18877500Y-8390000D01*
X19137835Y-8345335D02*
X19137835Y-8129665D01*
X18922165Y-8129665D01*
X18922165Y-8345335D01*
X19137835Y-8345335D01*
X18877500Y-9990000D02*
X19182500Y-10295000D01*
X19182500Y-9990000D02*
X18877500Y-10295000D01*
X19137835Y-10250335D02*
X19137835Y-10034665D01*
X18922165Y-10034665D01*
X18922165Y-10250335D01*
X19137835Y-10250335D01*
X18877500Y-11895000D02*
X19182500Y-12200000D01*
X19182500Y-11895000D02*
X18877500Y-12200000D01*
X19137835Y-12155335D02*
X19137835Y-11939665D01*
X18922165Y-11939665D01*
X18922165Y-12155335D01*
X19137835Y-12155335D01*
X19397500Y-4275000D02*
X19702500Y-4580000D01*
X19702500Y-4275000D02*
X19397500Y-4580000D01*
X19657835Y-4535335D02*
X19657835Y-4319665D01*
X19442165Y-4319665D01*
X19442165Y-4535335D01*
X19657835Y-4535335D01*
X19397500Y-6180000D02*
X19702500Y-6485000D01*
X19702500Y-6180000D02*
X19397500Y-6485000D01*
X19657835Y-6440335D02*
X19657835Y-6224665D01*
X19442165Y-6224665D01*
X19442165Y-6440335D01*
X19657835Y-6440335D01*
X19397500Y-8085000D02*
X19702500Y-8390000D01*
X19702500Y-8085000D02*
X19397500Y-8390000D01*
X19657835Y-8345335D02*
X19657835Y-8129665D01*
X19442165Y-8129665D01*
X19442165Y-8345335D01*
X19657835Y-8345335D01*
X19397500Y-9990000D02*
X19702500Y-10295000D01*
X19702500Y-9990000D02*
X19397500Y-10295000D01*
X19657835Y-10250335D02*
X19657835Y-10034665D01*
X19442165Y-10034665D01*
X19442165Y-10250335D01*
X19657835Y-10250335D01*
X19397500Y-11895000D02*
X19702500Y-12200000D01*
X19702500Y-11895000D02*
X19397500Y-12200000D01*
X19657835Y-12155335D02*
X19657835Y-11939665D01*
X19442165Y-11939665D01*
X19442165Y-12155335D01*
X19657835Y-12155335D01*
X19577500Y-4170000D02*
X19882500Y-4475000D01*
X19882500Y-4170000D02*
X19577500Y-4475000D01*
X19837835Y-4430335D02*
X19837835Y-4214665D01*
X19622165Y-4214665D01*
X19622165Y-4430335D01*
X19837835Y-4430335D01*
X19577500Y-6075000D02*
X19882500Y-6380000D01*
X19882500Y-6075000D02*
X19577500Y-6380000D01*
X19837835Y-6335335D02*
X19837835Y-6119665D01*
X19622165Y-6119665D01*
X19622165Y-6335335D01*
X19837835Y-6335335D01*
X19577500Y-7980000D02*
X19882500Y-8285000D01*
X19882500Y-7980000D02*
X19577500Y-8285000D01*
X19837835Y-8240335D02*
X19837835Y-8024665D01*
X19622165Y-8024665D01*
X19622165Y-8240335D01*
X19837835Y-8240335D01*
X19577500Y-9885000D02*
X19882500Y-10190000D01*
X19882500Y-9885000D02*
X19577500Y-10190000D01*
X19837835Y-10145335D02*
X19837835Y-9929665D01*
X19622165Y-9929665D01*
X19622165Y-10145335D01*
X19837835Y-10145335D01*
X19577500Y-11790000D02*
X19882500Y-12095000D01*
X19882500Y-11790000D02*
X19577500Y-12095000D01*
X19837835Y-12050335D02*
X19837835Y-11834665D01*
X19622165Y-11834665D01*
X19622165Y-12050335D01*
X19837835Y-12050335D01*
X19637500Y-3320000D02*
X19942500Y-3625000D01*
X19942500Y-3320000D02*
X19637500Y-3625000D01*
X19897835Y-3580335D02*
X19897835Y-3364665D01*
X19682165Y-3364665D01*
X19682165Y-3580335D01*
X19897835Y-3580335D01*
X19637500Y-5225000D02*
X19942500Y-5530000D01*
X19942500Y-5225000D02*
X19637500Y-5530000D01*
X19897835Y-5485335D02*
X19897835Y-5269665D01*
X19682165Y-5269665D01*
X19682165Y-5485335D01*
X19897835Y-5485335D01*
X19637500Y-7130000D02*
X19942500Y-7435000D01*
X19942500Y-7130000D02*
X19637500Y-7435000D01*
X19897835Y-7390335D02*
X19897835Y-7174665D01*
X19682165Y-7174665D01*
X19682165Y-7390335D01*
X19897835Y-7390335D01*
X19637500Y-9035000D02*
X19942500Y-9340000D01*
X19942500Y-9035000D02*
X19637500Y-9340000D01*
X19897835Y-9295335D02*
X19897835Y-9079665D01*
X19682165Y-9079665D01*
X19682165Y-9295335D01*
X19897835Y-9295335D01*
X19637500Y-10940000D02*
X19942500Y-11245000D01*
X19942500Y-10940000D02*
X19637500Y-11245000D01*
X19897835Y-11200335D02*
X19897835Y-10984665D01*
X19682165Y-10984665D01*
X19682165Y-11200335D01*
X19897835Y-11200335D01*
D12*
X4100877Y-12742484D02*
X4100877Y-12542484D01*
X4100877Y-12542484D02*
X4148496Y-12542484D01*
X4148496Y-12542484D02*
X4177067Y-12552008D01*
X4177067Y-12552008D02*
X4196115Y-12571055D01*
X4196115Y-12571055D02*
X4205639Y-12590103D01*
X4205639Y-12590103D02*
X4215163Y-12628198D01*
X4215163Y-12628198D02*
X4215163Y-12656769D01*
X4215163Y-12656769D02*
X4205639Y-12694865D01*
X4205639Y-12694865D02*
X4196115Y-12713912D01*
X4196115Y-12713912D02*
X4177067Y-12732960D01*
X4177067Y-12732960D02*
X4148496Y-12742484D01*
X4148496Y-12742484D02*
X4100877Y-12742484D01*
X4300877Y-12742484D02*
X4300877Y-12609150D01*
X4300877Y-12647246D02*
X4310401Y-12628198D01*
X4310401Y-12628198D02*
X4319924Y-12618674D01*
X4319924Y-12618674D02*
X4338972Y-12609150D01*
X4338972Y-12609150D02*
X4358020Y-12609150D01*
X4424686Y-12742484D02*
X4424686Y-12609150D01*
X4424686Y-12542484D02*
X4415163Y-12552008D01*
X4415163Y-12552008D02*
X4424686Y-12561531D01*
X4424686Y-12561531D02*
X4434210Y-12552008D01*
X4434210Y-12552008D02*
X4424686Y-12542484D01*
X4424686Y-12542484D02*
X4424686Y-12561531D01*
X4548496Y-12742484D02*
X4529448Y-12732960D01*
X4529448Y-12732960D02*
X4519924Y-12713912D01*
X4519924Y-12713912D02*
X4519924Y-12542484D01*
X4653258Y-12742484D02*
X4634210Y-12732960D01*
X4634210Y-12732960D02*
X4624686Y-12713912D01*
X4624686Y-12713912D02*
X4624686Y-12542484D01*
X4881829Y-12742484D02*
X4881829Y-12542484D01*
X4881829Y-12542484D02*
X4948496Y-12685341D01*
X4948496Y-12685341D02*
X5015163Y-12542484D01*
X5015163Y-12542484D02*
X5015163Y-12742484D01*
X5196115Y-12742484D02*
X5196115Y-12637722D01*
X5196115Y-12637722D02*
X5186591Y-12618674D01*
X5186591Y-12618674D02*
X5167544Y-12609150D01*
X5167544Y-12609150D02*
X5129448Y-12609150D01*
X5129448Y-12609150D02*
X5110401Y-12618674D01*
X5196115Y-12732960D02*
X5177067Y-12742484D01*
X5177067Y-12742484D02*
X5129448Y-12742484D01*
X5129448Y-12742484D02*
X5110401Y-12732960D01*
X5110401Y-12732960D02*
X5100877Y-12713912D01*
X5100877Y-12713912D02*
X5100877Y-12694865D01*
X5100877Y-12694865D02*
X5110401Y-12675817D01*
X5110401Y-12675817D02*
X5129448Y-12666293D01*
X5129448Y-12666293D02*
X5177067Y-12666293D01*
X5177067Y-12666293D02*
X5196115Y-12656769D01*
X5291353Y-12609150D02*
X5291353Y-12809150D01*
X5291353Y-12618674D02*
X5310401Y-12609150D01*
X5310401Y-12609150D02*
X5348496Y-12609150D01*
X5348496Y-12609150D02*
X5367544Y-12618674D01*
X5367544Y-12618674D02*
X5377067Y-12628198D01*
X5377067Y-12628198D02*
X5386591Y-12647246D01*
X5386591Y-12647246D02*
X5386591Y-12704388D01*
X5386591Y-12704388D02*
X5377067Y-12723436D01*
X5377067Y-12723436D02*
X5367544Y-12732960D01*
X5367544Y-12732960D02*
X5348496Y-12742484D01*
X5348496Y-12742484D02*
X5310401Y-12742484D01*
X5310401Y-12742484D02*
X5291353Y-12732960D01*
X5472305Y-12723436D02*
X5481829Y-12732960D01*
X5481829Y-12732960D02*
X5472305Y-12742484D01*
X5472305Y-12742484D02*
X5462782Y-12732960D01*
X5462782Y-12732960D02*
X5472305Y-12723436D01*
X5472305Y-12723436D02*
X5472305Y-12742484D01*
X5472305Y-12618674D02*
X5481829Y-12628198D01*
X5481829Y-12628198D02*
X5472305Y-12637722D01*
X5472305Y-12637722D02*
X5462782Y-12628198D01*
X5462782Y-12628198D02*
X5472305Y-12618674D01*
X5472305Y-12618674D02*
X5472305Y-12637722D01*
D13*
X3800100Y-13051000D02*
X3840100Y-13091000D01*
X3840100Y-13051000D02*
X3800100Y-13091000D01*
D12*
X4138972Y-12962484D02*
X4158020Y-12962484D01*
X4158020Y-12962484D02*
X4177067Y-12972008D01*
X4177067Y-12972008D02*
X4186591Y-12981531D01*
X4186591Y-12981531D02*
X4196115Y-13000579D01*
X4196115Y-13000579D02*
X4205639Y-13038674D01*
X4205639Y-13038674D02*
X4205639Y-13086293D01*
X4205639Y-13086293D02*
X4196115Y-13124388D01*
X4196115Y-13124388D02*
X4186591Y-13143436D01*
X4186591Y-13143436D02*
X4177067Y-13152960D01*
X4177067Y-13152960D02*
X4158020Y-13162484D01*
X4158020Y-13162484D02*
X4138972Y-13162484D01*
X4138972Y-13162484D02*
X4119924Y-13152960D01*
X4119924Y-13152960D02*
X4110401Y-13143436D01*
X4110401Y-13143436D02*
X4100877Y-13124388D01*
X4100877Y-13124388D02*
X4091353Y-13086293D01*
X4091353Y-13086293D02*
X4091353Y-13038674D01*
X4091353Y-13038674D02*
X4100877Y-13000579D01*
X4100877Y-13000579D02*
X4110401Y-12981531D01*
X4110401Y-12981531D02*
X4119924Y-12972008D01*
X4119924Y-12972008D02*
X4138972Y-12962484D01*
X4291353Y-13143436D02*
X4300877Y-13152960D01*
X4300877Y-13152960D02*
X4291353Y-13162484D01*
X4291353Y-13162484D02*
X4281829Y-13152960D01*
X4281829Y-13152960D02*
X4291353Y-13143436D01*
X4291353Y-13143436D02*
X4291353Y-13162484D01*
X4472305Y-13029150D02*
X4472305Y-13162484D01*
X4424686Y-12952960D02*
X4377067Y-13095817D01*
X4377067Y-13095817D02*
X4500877Y-13095817D01*
X4615163Y-12962484D02*
X4634210Y-12962484D01*
X4634210Y-12962484D02*
X4653258Y-12972008D01*
X4653258Y-12972008D02*
X4662782Y-12981531D01*
X4662782Y-12981531D02*
X4672305Y-13000579D01*
X4672305Y-13000579D02*
X4681829Y-13038674D01*
X4681829Y-13038674D02*
X4681829Y-13086293D01*
X4681829Y-13086293D02*
X4672305Y-13124388D01*
X4672305Y-13124388D02*
X4662782Y-13143436D01*
X4662782Y-13143436D02*
X4653258Y-13152960D01*
X4653258Y-13152960D02*
X4634210Y-13162484D01*
X4634210Y-13162484D02*
X4615163Y-13162484D01*
X4615163Y-13162484D02*
X4596115Y-13152960D01*
X4596115Y-13152960D02*
X4586591Y-13143436D01*
X4586591Y-13143436D02*
X4577067Y-13124388D01*
X4577067Y-13124388D02*
X4567544Y-13086293D01*
X4567544Y-13086293D02*
X4567544Y-13038674D01*
X4567544Y-13038674D02*
X4577067Y-13000579D01*
X4577067Y-13000579D02*
X4586591Y-12981531D01*
X4586591Y-12981531D02*
X4596115Y-12972008D01*
X4596115Y-12972008D02*
X4615163Y-12962484D01*
X4805639Y-12962484D02*
X4824686Y-12962484D01*
X4824686Y-12962484D02*
X4843734Y-12972008D01*
X4843734Y-12972008D02*
X4853258Y-12981531D01*
X4853258Y-12981531D02*
X4862782Y-13000579D01*
X4862782Y-13000579D02*
X4872305Y-13038674D01*
X4872305Y-13038674D02*
X4872305Y-13086293D01*
X4872305Y-13086293D02*
X4862782Y-13124388D01*
X4862782Y-13124388D02*
X4853258Y-13143436D01*
X4853258Y-13143436D02*
X4843734Y-13152960D01*
X4843734Y-13152960D02*
X4824686Y-13162484D01*
X4824686Y-13162484D02*
X4805639Y-13162484D01*
X4805639Y-13162484D02*
X4786591Y-13152960D01*
X4786591Y-13152960D02*
X4777067Y-13143436D01*
X4777067Y-13143436D02*
X4767544Y-13124388D01*
X4767544Y-13124388D02*
X4758020Y-13086293D01*
X4758020Y-13086293D02*
X4758020Y-13038674D01*
X4758020Y-13038674D02*
X4767544Y-13000579D01*
X4767544Y-13000579D02*
X4777067Y-12981531D01*
X4777067Y-12981531D02*
X4786591Y-12972008D01*
X4786591Y-12972008D02*
X4805639Y-12962484D01*
X4958020Y-13162484D02*
X4958020Y-13029150D01*
X4958020Y-13048198D02*
X4967544Y-13038674D01*
X4967544Y-13038674D02*
X4986591Y-13029150D01*
X4986591Y-13029150D02*
X5015163Y-13029150D01*
X5015163Y-13029150D02*
X5034210Y-13038674D01*
X5034210Y-13038674D02*
X5043734Y-13057722D01*
X5043734Y-13057722D02*
X5043734Y-13162484D01*
X5043734Y-13057722D02*
X5053258Y-13038674D01*
X5053258Y-13038674D02*
X5072305Y-13029150D01*
X5072305Y-13029150D02*
X5100877Y-13029150D01*
X5100877Y-13029150D02*
X5119925Y-13038674D01*
X5119925Y-13038674D02*
X5129448Y-13057722D01*
X5129448Y-13057722D02*
X5129448Y-13162484D01*
X5224686Y-13162484D02*
X5224686Y-13029150D01*
X5224686Y-13048198D02*
X5234210Y-13038674D01*
X5234210Y-13038674D02*
X5253258Y-13029150D01*
X5253258Y-13029150D02*
X5281829Y-13029150D01*
X5281829Y-13029150D02*
X5300877Y-13038674D01*
X5300877Y-13038674D02*
X5310401Y-13057722D01*
X5310401Y-13057722D02*
X5310401Y-13162484D01*
X5310401Y-13057722D02*
X5319925Y-13038674D01*
X5319925Y-13038674D02*
X5338972Y-13029150D01*
X5338972Y-13029150D02*
X5367544Y-13029150D01*
X5367544Y-13029150D02*
X5386591Y-13038674D01*
X5386591Y-13038674D02*
X5396115Y-13057722D01*
X5396115Y-13057722D02*
X5396115Y-13162484D01*
X5786591Y-12952960D02*
X5615163Y-13210103D01*
X6043734Y-12962484D02*
X6062782Y-12962484D01*
X6062782Y-12962484D02*
X6081829Y-12972008D01*
X6081829Y-12972008D02*
X6091353Y-12981531D01*
X6091353Y-12981531D02*
X6100877Y-13000579D01*
X6100877Y-13000579D02*
X6110401Y-13038674D01*
X6110401Y-13038674D02*
X6110401Y-13086293D01*
X6110401Y-13086293D02*
X6100877Y-13124388D01*
X6100877Y-13124388D02*
X6091353Y-13143436D01*
X6091353Y-13143436D02*
X6081829Y-13152960D01*
X6081829Y-13152960D02*
X6062782Y-13162484D01*
X6062782Y-13162484D02*
X6043734Y-13162484D01*
X6043734Y-13162484D02*
X6024686Y-13152960D01*
X6024686Y-13152960D02*
X6015163Y-13143436D01*
X6015163Y-13143436D02*
X6005639Y-13124388D01*
X6005639Y-13124388D02*
X5996115Y-13086293D01*
X5996115Y-13086293D02*
X5996115Y-13038674D01*
X5996115Y-13038674D02*
X6005639Y-13000579D01*
X6005639Y-13000579D02*
X6015163Y-12981531D01*
X6015163Y-12981531D02*
X6024686Y-12972008D01*
X6024686Y-12972008D02*
X6043734Y-12962484D01*
X6196115Y-13143436D02*
X6205639Y-13152960D01*
X6205639Y-13152960D02*
X6196115Y-13162484D01*
X6196115Y-13162484D02*
X6186591Y-13152960D01*
X6186591Y-13152960D02*
X6196115Y-13143436D01*
X6196115Y-13143436D02*
X6196115Y-13162484D01*
X6329448Y-12962484D02*
X6348496Y-12962484D01*
X6348496Y-12962484D02*
X6367544Y-12972008D01*
X6367544Y-12972008D02*
X6377067Y-12981531D01*
X6377067Y-12981531D02*
X6386591Y-13000579D01*
X6386591Y-13000579D02*
X6396115Y-13038674D01*
X6396115Y-13038674D02*
X6396115Y-13086293D01*
X6396115Y-13086293D02*
X6386591Y-13124388D01*
X6386591Y-13124388D02*
X6377067Y-13143436D01*
X6377067Y-13143436D02*
X6367544Y-13152960D01*
X6367544Y-13152960D02*
X6348496Y-13162484D01*
X6348496Y-13162484D02*
X6329448Y-13162484D01*
X6329448Y-13162484D02*
X6310401Y-13152960D01*
X6310401Y-13152960D02*
X6300877Y-13143436D01*
X6300877Y-13143436D02*
X6291353Y-13124388D01*
X6291353Y-13124388D02*
X6281829Y-13086293D01*
X6281829Y-13086293D02*
X6281829Y-13038674D01*
X6281829Y-13038674D02*
X6291353Y-13000579D01*
X6291353Y-13000579D02*
X6300877Y-12981531D01*
X6300877Y-12981531D02*
X6310401Y-12972008D01*
X6310401Y-12972008D02*
X6329448Y-12962484D01*
X6586591Y-13162484D02*
X6472306Y-13162484D01*
X6529448Y-13162484D02*
X6529448Y-12962484D01*
X6529448Y-12962484D02*
X6510401Y-12991055D01*
X6510401Y-12991055D02*
X6491353Y-13010103D01*
X6491353Y-13010103D02*
X6472306Y-13019627D01*
X6767544Y-12962484D02*
X6672306Y-12962484D01*
X6672306Y-12962484D02*
X6662782Y-13057722D01*
X6662782Y-13057722D02*
X6672306Y-13048198D01*
X6672306Y-13048198D02*
X6691353Y-13038674D01*
X6691353Y-13038674D02*
X6738972Y-13038674D01*
X6738972Y-13038674D02*
X6758020Y-13048198D01*
X6758020Y-13048198D02*
X6767544Y-13057722D01*
X6767544Y-13057722D02*
X6777067Y-13076769D01*
X6777067Y-13076769D02*
X6777067Y-13124388D01*
X6777067Y-13124388D02*
X6767544Y-13143436D01*
X6767544Y-13143436D02*
X6758020Y-13152960D01*
X6758020Y-13152960D02*
X6738972Y-13162484D01*
X6738972Y-13162484D02*
X6691353Y-13162484D01*
X6691353Y-13162484D02*
X6672306Y-13152960D01*
X6672306Y-13152960D02*
X6662782Y-13143436D01*
X6843734Y-12962484D02*
X6977067Y-12962484D01*
X6977067Y-12962484D02*
X6891353Y-13162484D01*
X7043734Y-12962484D02*
X7043734Y-13000579D01*
X7119925Y-12962484D02*
X7119925Y-13000579D01*
X7415163Y-13238674D02*
X7405639Y-13229150D01*
X7405639Y-13229150D02*
X7386591Y-13200579D01*
X7386591Y-13200579D02*
X7377068Y-13181531D01*
X7377068Y-13181531D02*
X7367544Y-13152960D01*
X7367544Y-13152960D02*
X7358020Y-13105341D01*
X7358020Y-13105341D02*
X7358020Y-13067246D01*
X7358020Y-13067246D02*
X7367544Y-13019627D01*
X7367544Y-13019627D02*
X7377068Y-12991055D01*
X7377068Y-12991055D02*
X7386591Y-12972008D01*
X7386591Y-12972008D02*
X7405639Y-12943436D01*
X7405639Y-12943436D02*
X7415163Y-12933912D01*
X7596115Y-13162484D02*
X7481829Y-13162484D01*
X7538972Y-13162484D02*
X7538972Y-12962484D01*
X7538972Y-12962484D02*
X7519925Y-12991055D01*
X7519925Y-12991055D02*
X7500877Y-13010103D01*
X7500877Y-13010103D02*
X7481829Y-13019627D01*
X7719925Y-12962484D02*
X7738972Y-12962484D01*
X7738972Y-12962484D02*
X7758020Y-12972008D01*
X7758020Y-12972008D02*
X7767544Y-12981531D01*
X7767544Y-12981531D02*
X7777068Y-13000579D01*
X7777068Y-13000579D02*
X7786591Y-13038674D01*
X7786591Y-13038674D02*
X7786591Y-13086293D01*
X7786591Y-13086293D02*
X7777068Y-13124388D01*
X7777068Y-13124388D02*
X7767544Y-13143436D01*
X7767544Y-13143436D02*
X7758020Y-13152960D01*
X7758020Y-13152960D02*
X7738972Y-13162484D01*
X7738972Y-13162484D02*
X7719925Y-13162484D01*
X7719925Y-13162484D02*
X7700877Y-13152960D01*
X7700877Y-13152960D02*
X7691353Y-13143436D01*
X7691353Y-13143436D02*
X7681829Y-13124388D01*
X7681829Y-13124388D02*
X7672306Y-13086293D01*
X7672306Y-13086293D02*
X7672306Y-13038674D01*
X7672306Y-13038674D02*
X7681829Y-13000579D01*
X7681829Y-13000579D02*
X7691353Y-12981531D01*
X7691353Y-12981531D02*
X7700877Y-12972008D01*
X7700877Y-12972008D02*
X7719925Y-12962484D01*
X7853258Y-12962484D02*
X7986591Y-12962484D01*
X7986591Y-12962484D02*
X7900877Y-13162484D01*
X8215163Y-13162484D02*
X8215163Y-12962484D01*
X8300877Y-13162484D02*
X8300877Y-13057722D01*
X8300877Y-13057722D02*
X8291353Y-13038674D01*
X8291353Y-13038674D02*
X8272306Y-13029150D01*
X8272306Y-13029150D02*
X8243734Y-13029150D01*
X8243734Y-13029150D02*
X8224687Y-13038674D01*
X8224687Y-13038674D02*
X8215163Y-13048198D01*
X8424687Y-13162484D02*
X8405639Y-13152960D01*
X8405639Y-13152960D02*
X8396115Y-13143436D01*
X8396115Y-13143436D02*
X8386591Y-13124388D01*
X8386591Y-13124388D02*
X8386591Y-13067246D01*
X8386591Y-13067246D02*
X8396115Y-13048198D01*
X8396115Y-13048198D02*
X8405639Y-13038674D01*
X8405639Y-13038674D02*
X8424687Y-13029150D01*
X8424687Y-13029150D02*
X8453258Y-13029150D01*
X8453258Y-13029150D02*
X8472306Y-13038674D01*
X8472306Y-13038674D02*
X8481830Y-13048198D01*
X8481830Y-13048198D02*
X8491353Y-13067246D01*
X8491353Y-13067246D02*
X8491353Y-13124388D01*
X8491353Y-13124388D02*
X8481830Y-13143436D01*
X8481830Y-13143436D02*
X8472306Y-13152960D01*
X8472306Y-13152960D02*
X8453258Y-13162484D01*
X8453258Y-13162484D02*
X8424687Y-13162484D01*
X8605639Y-13162484D02*
X8586592Y-13152960D01*
X8586592Y-13152960D02*
X8577068Y-13133912D01*
X8577068Y-13133912D02*
X8577068Y-12962484D01*
X8758020Y-13152960D02*
X8738973Y-13162484D01*
X8738973Y-13162484D02*
X8700877Y-13162484D01*
X8700877Y-13162484D02*
X8681830Y-13152960D01*
X8681830Y-13152960D02*
X8672306Y-13133912D01*
X8672306Y-13133912D02*
X8672306Y-13057722D01*
X8672306Y-13057722D02*
X8681830Y-13038674D01*
X8681830Y-13038674D02*
X8700877Y-13029150D01*
X8700877Y-13029150D02*
X8738973Y-13029150D01*
X8738973Y-13029150D02*
X8758020Y-13038674D01*
X8758020Y-13038674D02*
X8767544Y-13057722D01*
X8767544Y-13057722D02*
X8767544Y-13076769D01*
X8767544Y-13076769D02*
X8672306Y-13095817D01*
X8843734Y-13152960D02*
X8862782Y-13162484D01*
X8862782Y-13162484D02*
X8900877Y-13162484D01*
X8900877Y-13162484D02*
X8919925Y-13152960D01*
X8919925Y-13152960D02*
X8929449Y-13133912D01*
X8929449Y-13133912D02*
X8929449Y-13124388D01*
X8929449Y-13124388D02*
X8919925Y-13105341D01*
X8919925Y-13105341D02*
X8900877Y-13095817D01*
X8900877Y-13095817D02*
X8872306Y-13095817D01*
X8872306Y-13095817D02*
X8853258Y-13086293D01*
X8853258Y-13086293D02*
X8843734Y-13067246D01*
X8843734Y-13067246D02*
X8843734Y-13057722D01*
X8843734Y-13057722D02*
X8853258Y-13038674D01*
X8853258Y-13038674D02*
X8872306Y-13029150D01*
X8872306Y-13029150D02*
X8900877Y-13029150D01*
X8900877Y-13029150D02*
X8919925Y-13038674D01*
X8996115Y-13238674D02*
X9005639Y-13229150D01*
X9005639Y-13229150D02*
X9024687Y-13200579D01*
X9024687Y-13200579D02*
X9034211Y-13181531D01*
X9034211Y-13181531D02*
X9043734Y-13152960D01*
X9043734Y-13152960D02*
X9053258Y-13105341D01*
X9053258Y-13105341D02*
X9053258Y-13067246D01*
X9053258Y-13067246D02*
X9043734Y-13019627D01*
X9043734Y-13019627D02*
X9034211Y-12991055D01*
X9034211Y-12991055D02*
X9024687Y-12972008D01*
X9024687Y-12972008D02*
X9005639Y-12943436D01*
X9005639Y-12943436D02*
X8996115Y-12933912D01*
D14*
X3840100Y-13335000D02*
G75*
G03*
X3840100Y-13335000I-35000J0D01*
G01*
D12*
X4138972Y-13226484D02*
X4158020Y-13226484D01*
X4158020Y-13226484D02*
X4177067Y-13236008D01*
X4177067Y-13236008D02*
X4186591Y-13245531D01*
X4186591Y-13245531D02*
X4196115Y-13264579D01*
X4196115Y-13264579D02*
X4205639Y-13302674D01*
X4205639Y-13302674D02*
X4205639Y-13350293D01*
X4205639Y-13350293D02*
X4196115Y-13388388D01*
X4196115Y-13388388D02*
X4186591Y-13407436D01*
X4186591Y-13407436D02*
X4177067Y-13416960D01*
X4177067Y-13416960D02*
X4158020Y-13426484D01*
X4158020Y-13426484D02*
X4138972Y-13426484D01*
X4138972Y-13426484D02*
X4119924Y-13416960D01*
X4119924Y-13416960D02*
X4110401Y-13407436D01*
X4110401Y-13407436D02*
X4100877Y-13388388D01*
X4100877Y-13388388D02*
X4091353Y-13350293D01*
X4091353Y-13350293D02*
X4091353Y-13302674D01*
X4091353Y-13302674D02*
X4100877Y-13264579D01*
X4100877Y-13264579D02*
X4110401Y-13245531D01*
X4110401Y-13245531D02*
X4119924Y-13236008D01*
X4119924Y-13236008D02*
X4138972Y-13226484D01*
X4291353Y-13407436D02*
X4300877Y-13416960D01*
X4300877Y-13416960D02*
X4291353Y-13426484D01*
X4291353Y-13426484D02*
X4281829Y-13416960D01*
X4281829Y-13416960D02*
X4291353Y-13407436D01*
X4291353Y-13407436D02*
X4291353Y-13426484D01*
X4367544Y-13226484D02*
X4500877Y-13226484D01*
X4500877Y-13226484D02*
X4415163Y-13426484D01*
X4615163Y-13226484D02*
X4634210Y-13226484D01*
X4634210Y-13226484D02*
X4653258Y-13236008D01*
X4653258Y-13236008D02*
X4662782Y-13245531D01*
X4662782Y-13245531D02*
X4672305Y-13264579D01*
X4672305Y-13264579D02*
X4681829Y-13302674D01*
X4681829Y-13302674D02*
X4681829Y-13350293D01*
X4681829Y-13350293D02*
X4672305Y-13388388D01*
X4672305Y-13388388D02*
X4662782Y-13407436D01*
X4662782Y-13407436D02*
X4653258Y-13416960D01*
X4653258Y-13416960D02*
X4634210Y-13426484D01*
X4634210Y-13426484D02*
X4615163Y-13426484D01*
X4615163Y-13426484D02*
X4596115Y-13416960D01*
X4596115Y-13416960D02*
X4586591Y-13407436D01*
X4586591Y-13407436D02*
X4577067Y-13388388D01*
X4577067Y-13388388D02*
X4567544Y-13350293D01*
X4567544Y-13350293D02*
X4567544Y-13302674D01*
X4567544Y-13302674D02*
X4577067Y-13264579D01*
X4577067Y-13264579D02*
X4586591Y-13245531D01*
X4586591Y-13245531D02*
X4596115Y-13236008D01*
X4596115Y-13236008D02*
X4615163Y-13226484D01*
X4805639Y-13226484D02*
X4824686Y-13226484D01*
X4824686Y-13226484D02*
X4843734Y-13236008D01*
X4843734Y-13236008D02*
X4853258Y-13245531D01*
X4853258Y-13245531D02*
X4862782Y-13264579D01*
X4862782Y-13264579D02*
X4872305Y-13302674D01*
X4872305Y-13302674D02*
X4872305Y-13350293D01*
X4872305Y-13350293D02*
X4862782Y-13388388D01*
X4862782Y-13388388D02*
X4853258Y-13407436D01*
X4853258Y-13407436D02*
X4843734Y-13416960D01*
X4843734Y-13416960D02*
X4824686Y-13426484D01*
X4824686Y-13426484D02*
X4805639Y-13426484D01*
X4805639Y-13426484D02*
X4786591Y-13416960D01*
X4786591Y-13416960D02*
X4777067Y-13407436D01*
X4777067Y-13407436D02*
X4767544Y-13388388D01*
X4767544Y-13388388D02*
X4758020Y-13350293D01*
X4758020Y-13350293D02*
X4758020Y-13302674D01*
X4758020Y-13302674D02*
X4767544Y-13264579D01*
X4767544Y-13264579D02*
X4777067Y-13245531D01*
X4777067Y-13245531D02*
X4786591Y-13236008D01*
X4786591Y-13236008D02*
X4805639Y-13226484D01*
X4958020Y-13426484D02*
X4958020Y-13293150D01*
X4958020Y-13312198D02*
X4967544Y-13302674D01*
X4967544Y-13302674D02*
X4986591Y-13293150D01*
X4986591Y-13293150D02*
X5015163Y-13293150D01*
X5015163Y-13293150D02*
X5034210Y-13302674D01*
X5034210Y-13302674D02*
X5043734Y-13321722D01*
X5043734Y-13321722D02*
X5043734Y-13426484D01*
X5043734Y-13321722D02*
X5053258Y-13302674D01*
X5053258Y-13302674D02*
X5072305Y-13293150D01*
X5072305Y-13293150D02*
X5100877Y-13293150D01*
X5100877Y-13293150D02*
X5119925Y-13302674D01*
X5119925Y-13302674D02*
X5129448Y-13321722D01*
X5129448Y-13321722D02*
X5129448Y-13426484D01*
X5224686Y-13426484D02*
X5224686Y-13293150D01*
X5224686Y-13312198D02*
X5234210Y-13302674D01*
X5234210Y-13302674D02*
X5253258Y-13293150D01*
X5253258Y-13293150D02*
X5281829Y-13293150D01*
X5281829Y-13293150D02*
X5300877Y-13302674D01*
X5300877Y-13302674D02*
X5310401Y-13321722D01*
X5310401Y-13321722D02*
X5310401Y-13426484D01*
X5310401Y-13321722D02*
X5319925Y-13302674D01*
X5319925Y-13302674D02*
X5338972Y-13293150D01*
X5338972Y-13293150D02*
X5367544Y-13293150D01*
X5367544Y-13293150D02*
X5386591Y-13302674D01*
X5386591Y-13302674D02*
X5396115Y-13321722D01*
X5396115Y-13321722D02*
X5396115Y-13426484D01*
X5786591Y-13216960D02*
X5615163Y-13474103D01*
X6043734Y-13226484D02*
X6062782Y-13226484D01*
X6062782Y-13226484D02*
X6081829Y-13236008D01*
X6081829Y-13236008D02*
X6091353Y-13245531D01*
X6091353Y-13245531D02*
X6100877Y-13264579D01*
X6100877Y-13264579D02*
X6110401Y-13302674D01*
X6110401Y-13302674D02*
X6110401Y-13350293D01*
X6110401Y-13350293D02*
X6100877Y-13388388D01*
X6100877Y-13388388D02*
X6091353Y-13407436D01*
X6091353Y-13407436D02*
X6081829Y-13416960D01*
X6081829Y-13416960D02*
X6062782Y-13426484D01*
X6062782Y-13426484D02*
X6043734Y-13426484D01*
X6043734Y-13426484D02*
X6024686Y-13416960D01*
X6024686Y-13416960D02*
X6015163Y-13407436D01*
X6015163Y-13407436D02*
X6005639Y-13388388D01*
X6005639Y-13388388D02*
X5996115Y-13350293D01*
X5996115Y-13350293D02*
X5996115Y-13302674D01*
X5996115Y-13302674D02*
X6005639Y-13264579D01*
X6005639Y-13264579D02*
X6015163Y-13245531D01*
X6015163Y-13245531D02*
X6024686Y-13236008D01*
X6024686Y-13236008D02*
X6043734Y-13226484D01*
X6196115Y-13407436D02*
X6205639Y-13416960D01*
X6205639Y-13416960D02*
X6196115Y-13426484D01*
X6196115Y-13426484D02*
X6186591Y-13416960D01*
X6186591Y-13416960D02*
X6196115Y-13407436D01*
X6196115Y-13407436D02*
X6196115Y-13426484D01*
X6329448Y-13226484D02*
X6348496Y-13226484D01*
X6348496Y-13226484D02*
X6367544Y-13236008D01*
X6367544Y-13236008D02*
X6377067Y-13245531D01*
X6377067Y-13245531D02*
X6386591Y-13264579D01*
X6386591Y-13264579D02*
X6396115Y-13302674D01*
X6396115Y-13302674D02*
X6396115Y-13350293D01*
X6396115Y-13350293D02*
X6386591Y-13388388D01*
X6386591Y-13388388D02*
X6377067Y-13407436D01*
X6377067Y-13407436D02*
X6367544Y-13416960D01*
X6367544Y-13416960D02*
X6348496Y-13426484D01*
X6348496Y-13426484D02*
X6329448Y-13426484D01*
X6329448Y-13426484D02*
X6310401Y-13416960D01*
X6310401Y-13416960D02*
X6300877Y-13407436D01*
X6300877Y-13407436D02*
X6291353Y-13388388D01*
X6291353Y-13388388D02*
X6281829Y-13350293D01*
X6281829Y-13350293D02*
X6281829Y-13302674D01*
X6281829Y-13302674D02*
X6291353Y-13264579D01*
X6291353Y-13264579D02*
X6300877Y-13245531D01*
X6300877Y-13245531D02*
X6310401Y-13236008D01*
X6310401Y-13236008D02*
X6329448Y-13226484D01*
X6472306Y-13245531D02*
X6481829Y-13236008D01*
X6481829Y-13236008D02*
X6500877Y-13226484D01*
X6500877Y-13226484D02*
X6548496Y-13226484D01*
X6548496Y-13226484D02*
X6567544Y-13236008D01*
X6567544Y-13236008D02*
X6577067Y-13245531D01*
X6577067Y-13245531D02*
X6586591Y-13264579D01*
X6586591Y-13264579D02*
X6586591Y-13283627D01*
X6586591Y-13283627D02*
X6577067Y-13312198D01*
X6577067Y-13312198D02*
X6462782Y-13426484D01*
X6462782Y-13426484D02*
X6586591Y-13426484D01*
X6653258Y-13226484D02*
X6786591Y-13226484D01*
X6786591Y-13226484D02*
X6700877Y-13426484D01*
X6948496Y-13226484D02*
X6910401Y-13226484D01*
X6910401Y-13226484D02*
X6891353Y-13236008D01*
X6891353Y-13236008D02*
X6881829Y-13245531D01*
X6881829Y-13245531D02*
X6862782Y-13274103D01*
X6862782Y-13274103D02*
X6853258Y-13312198D01*
X6853258Y-13312198D02*
X6853258Y-13388388D01*
X6853258Y-13388388D02*
X6862782Y-13407436D01*
X6862782Y-13407436D02*
X6872306Y-13416960D01*
X6872306Y-13416960D02*
X6891353Y-13426484D01*
X6891353Y-13426484D02*
X6929448Y-13426484D01*
X6929448Y-13426484D02*
X6948496Y-13416960D01*
X6948496Y-13416960D02*
X6958020Y-13407436D01*
X6958020Y-13407436D02*
X6967544Y-13388388D01*
X6967544Y-13388388D02*
X6967544Y-13340769D01*
X6967544Y-13340769D02*
X6958020Y-13321722D01*
X6958020Y-13321722D02*
X6948496Y-13312198D01*
X6948496Y-13312198D02*
X6929448Y-13302674D01*
X6929448Y-13302674D02*
X6891353Y-13302674D01*
X6891353Y-13302674D02*
X6872306Y-13312198D01*
X6872306Y-13312198D02*
X6862782Y-13321722D01*
X6862782Y-13321722D02*
X6853258Y-13340769D01*
X7043734Y-13226484D02*
X7043734Y-13264579D01*
X7119925Y-13226484D02*
X7119925Y-13264579D01*
X7415163Y-13502674D02*
X7405639Y-13493150D01*
X7405639Y-13493150D02*
X7386591Y-13464579D01*
X7386591Y-13464579D02*
X7377068Y-13445531D01*
X7377068Y-13445531D02*
X7367544Y-13416960D01*
X7367544Y-13416960D02*
X7358020Y-13369341D01*
X7358020Y-13369341D02*
X7358020Y-13331246D01*
X7358020Y-13331246D02*
X7367544Y-13283627D01*
X7367544Y-13283627D02*
X7377068Y-13255055D01*
X7377068Y-13255055D02*
X7386591Y-13236008D01*
X7386591Y-13236008D02*
X7405639Y-13207436D01*
X7405639Y-13207436D02*
X7415163Y-13197912D01*
X7577068Y-13293150D02*
X7577068Y-13426484D01*
X7529448Y-13216960D02*
X7481829Y-13359817D01*
X7481829Y-13359817D02*
X7605639Y-13359817D01*
X7834210Y-13426484D02*
X7834210Y-13226484D01*
X7919925Y-13426484D02*
X7919925Y-13321722D01*
X7919925Y-13321722D02*
X7910401Y-13302674D01*
X7910401Y-13302674D02*
X7891353Y-13293150D01*
X7891353Y-13293150D02*
X7862782Y-13293150D01*
X7862782Y-13293150D02*
X7843734Y-13302674D01*
X7843734Y-13302674D02*
X7834210Y-13312198D01*
X8043734Y-13426484D02*
X8024687Y-13416960D01*
X8024687Y-13416960D02*
X8015163Y-13407436D01*
X8015163Y-13407436D02*
X8005639Y-13388388D01*
X8005639Y-13388388D02*
X8005639Y-13331246D01*
X8005639Y-13331246D02*
X8015163Y-13312198D01*
X8015163Y-13312198D02*
X8024687Y-13302674D01*
X8024687Y-13302674D02*
X8043734Y-13293150D01*
X8043734Y-13293150D02*
X8072306Y-13293150D01*
X8072306Y-13293150D02*
X8091353Y-13302674D01*
X8091353Y-13302674D02*
X8100877Y-13312198D01*
X8100877Y-13312198D02*
X8110401Y-13331246D01*
X8110401Y-13331246D02*
X8110401Y-13388388D01*
X8110401Y-13388388D02*
X8100877Y-13407436D01*
X8100877Y-13407436D02*
X8091353Y-13416960D01*
X8091353Y-13416960D02*
X8072306Y-13426484D01*
X8072306Y-13426484D02*
X8043734Y-13426484D01*
X8224687Y-13426484D02*
X8205639Y-13416960D01*
X8205639Y-13416960D02*
X8196115Y-13397912D01*
X8196115Y-13397912D02*
X8196115Y-13226484D01*
X8377068Y-13416960D02*
X8358020Y-13426484D01*
X8358020Y-13426484D02*
X8319925Y-13426484D01*
X8319925Y-13426484D02*
X8300877Y-13416960D01*
X8300877Y-13416960D02*
X8291353Y-13397912D01*
X8291353Y-13397912D02*
X8291353Y-13321722D01*
X8291353Y-13321722D02*
X8300877Y-13302674D01*
X8300877Y-13302674D02*
X8319925Y-13293150D01*
X8319925Y-13293150D02*
X8358020Y-13293150D01*
X8358020Y-13293150D02*
X8377068Y-13302674D01*
X8377068Y-13302674D02*
X8386591Y-13321722D01*
X8386591Y-13321722D02*
X8386591Y-13340769D01*
X8386591Y-13340769D02*
X8291353Y-13359817D01*
X8462782Y-13416960D02*
X8481830Y-13426484D01*
X8481830Y-13426484D02*
X8519925Y-13426484D01*
X8519925Y-13426484D02*
X8538973Y-13416960D01*
X8538973Y-13416960D02*
X8548496Y-13397912D01*
X8548496Y-13397912D02*
X8548496Y-13388388D01*
X8548496Y-13388388D02*
X8538973Y-13369341D01*
X8538973Y-13369341D02*
X8519925Y-13359817D01*
X8519925Y-13359817D02*
X8491353Y-13359817D01*
X8491353Y-13359817D02*
X8472306Y-13350293D01*
X8472306Y-13350293D02*
X8462782Y-13331246D01*
X8462782Y-13331246D02*
X8462782Y-13321722D01*
X8462782Y-13321722D02*
X8472306Y-13302674D01*
X8472306Y-13302674D02*
X8491353Y-13293150D01*
X8491353Y-13293150D02*
X8519925Y-13293150D01*
X8519925Y-13293150D02*
X8538973Y-13302674D01*
X8615163Y-13502674D02*
X8624687Y-13493150D01*
X8624687Y-13493150D02*
X8643734Y-13464579D01*
X8643734Y-13464579D02*
X8653258Y-13445531D01*
X8653258Y-13445531D02*
X8662782Y-13416960D01*
X8662782Y-13416960D02*
X8672306Y-13369341D01*
X8672306Y-13369341D02*
X8672306Y-13331246D01*
X8672306Y-13331246D02*
X8662782Y-13283627D01*
X8662782Y-13283627D02*
X8653258Y-13255055D01*
X8653258Y-13255055D02*
X8643734Y-13236008D01*
X8643734Y-13236008D02*
X8624687Y-13207436D01*
X8624687Y-13207436D02*
X8615163Y-13197912D01*
D15*
X3795100Y-13554000D02*
X3795100Y-13644000D01*
X3750100Y-13599000D02*
X3840100Y-13599000D01*
D12*
X4138972Y-13490484D02*
X4158020Y-13490484D01*
X4158020Y-13490484D02*
X4177067Y-13500008D01*
X4177067Y-13500008D02*
X4186591Y-13509531D01*
X4186591Y-13509531D02*
X4196115Y-13528579D01*
X4196115Y-13528579D02*
X4205639Y-13566674D01*
X4205639Y-13566674D02*
X4205639Y-13614293D01*
X4205639Y-13614293D02*
X4196115Y-13652388D01*
X4196115Y-13652388D02*
X4186591Y-13671436D01*
X4186591Y-13671436D02*
X4177067Y-13680960D01*
X4177067Y-13680960D02*
X4158020Y-13690484D01*
X4158020Y-13690484D02*
X4138972Y-13690484D01*
X4138972Y-13690484D02*
X4119924Y-13680960D01*
X4119924Y-13680960D02*
X4110401Y-13671436D01*
X4110401Y-13671436D02*
X4100877Y-13652388D01*
X4100877Y-13652388D02*
X4091353Y-13614293D01*
X4091353Y-13614293D02*
X4091353Y-13566674D01*
X4091353Y-13566674D02*
X4100877Y-13528579D01*
X4100877Y-13528579D02*
X4110401Y-13509531D01*
X4110401Y-13509531D02*
X4119924Y-13500008D01*
X4119924Y-13500008D02*
X4138972Y-13490484D01*
X4291353Y-13671436D02*
X4300877Y-13680960D01*
X4300877Y-13680960D02*
X4291353Y-13690484D01*
X4291353Y-13690484D02*
X4281829Y-13680960D01*
X4281829Y-13680960D02*
X4291353Y-13671436D01*
X4291353Y-13671436D02*
X4291353Y-13690484D01*
X4396115Y-13690484D02*
X4434210Y-13690484D01*
X4434210Y-13690484D02*
X4453258Y-13680960D01*
X4453258Y-13680960D02*
X4462782Y-13671436D01*
X4462782Y-13671436D02*
X4481829Y-13642865D01*
X4481829Y-13642865D02*
X4491353Y-13604769D01*
X4491353Y-13604769D02*
X4491353Y-13528579D01*
X4491353Y-13528579D02*
X4481829Y-13509531D01*
X4481829Y-13509531D02*
X4472305Y-13500008D01*
X4472305Y-13500008D02*
X4453258Y-13490484D01*
X4453258Y-13490484D02*
X4415163Y-13490484D01*
X4415163Y-13490484D02*
X4396115Y-13500008D01*
X4396115Y-13500008D02*
X4386591Y-13509531D01*
X4386591Y-13509531D02*
X4377067Y-13528579D01*
X4377067Y-13528579D02*
X4377067Y-13576198D01*
X4377067Y-13576198D02*
X4386591Y-13595246D01*
X4386591Y-13595246D02*
X4396115Y-13604769D01*
X4396115Y-13604769D02*
X4415163Y-13614293D01*
X4415163Y-13614293D02*
X4453258Y-13614293D01*
X4453258Y-13614293D02*
X4472305Y-13604769D01*
X4472305Y-13604769D02*
X4481829Y-13595246D01*
X4481829Y-13595246D02*
X4491353Y-13576198D01*
X4615163Y-13490484D02*
X4634210Y-13490484D01*
X4634210Y-13490484D02*
X4653258Y-13500008D01*
X4653258Y-13500008D02*
X4662782Y-13509531D01*
X4662782Y-13509531D02*
X4672305Y-13528579D01*
X4672305Y-13528579D02*
X4681829Y-13566674D01*
X4681829Y-13566674D02*
X4681829Y-13614293D01*
X4681829Y-13614293D02*
X4672305Y-13652388D01*
X4672305Y-13652388D02*
X4662782Y-13671436D01*
X4662782Y-13671436D02*
X4653258Y-13680960D01*
X4653258Y-13680960D02*
X4634210Y-13690484D01*
X4634210Y-13690484D02*
X4615163Y-13690484D01*
X4615163Y-13690484D02*
X4596115Y-13680960D01*
X4596115Y-13680960D02*
X4586591Y-13671436D01*
X4586591Y-13671436D02*
X4577067Y-13652388D01*
X4577067Y-13652388D02*
X4567544Y-13614293D01*
X4567544Y-13614293D02*
X4567544Y-13566674D01*
X4567544Y-13566674D02*
X4577067Y-13528579D01*
X4577067Y-13528579D02*
X4586591Y-13509531D01*
X4586591Y-13509531D02*
X4596115Y-13500008D01*
X4596115Y-13500008D02*
X4615163Y-13490484D01*
X4805639Y-13490484D02*
X4824686Y-13490484D01*
X4824686Y-13490484D02*
X4843734Y-13500008D01*
X4843734Y-13500008D02*
X4853258Y-13509531D01*
X4853258Y-13509531D02*
X4862782Y-13528579D01*
X4862782Y-13528579D02*
X4872305Y-13566674D01*
X4872305Y-13566674D02*
X4872305Y-13614293D01*
X4872305Y-13614293D02*
X4862782Y-13652388D01*
X4862782Y-13652388D02*
X4853258Y-13671436D01*
X4853258Y-13671436D02*
X4843734Y-13680960D01*
X4843734Y-13680960D02*
X4824686Y-13690484D01*
X4824686Y-13690484D02*
X4805639Y-13690484D01*
X4805639Y-13690484D02*
X4786591Y-13680960D01*
X4786591Y-13680960D02*
X4777067Y-13671436D01*
X4777067Y-13671436D02*
X4767544Y-13652388D01*
X4767544Y-13652388D02*
X4758020Y-13614293D01*
X4758020Y-13614293D02*
X4758020Y-13566674D01*
X4758020Y-13566674D02*
X4767544Y-13528579D01*
X4767544Y-13528579D02*
X4777067Y-13509531D01*
X4777067Y-13509531D02*
X4786591Y-13500008D01*
X4786591Y-13500008D02*
X4805639Y-13490484D01*
X4958020Y-13690484D02*
X4958020Y-13557150D01*
X4958020Y-13576198D02*
X4967544Y-13566674D01*
X4967544Y-13566674D02*
X4986591Y-13557150D01*
X4986591Y-13557150D02*
X5015163Y-13557150D01*
X5015163Y-13557150D02*
X5034210Y-13566674D01*
X5034210Y-13566674D02*
X5043734Y-13585722D01*
X5043734Y-13585722D02*
X5043734Y-13690484D01*
X5043734Y-13585722D02*
X5053258Y-13566674D01*
X5053258Y-13566674D02*
X5072305Y-13557150D01*
X5072305Y-13557150D02*
X5100877Y-13557150D01*
X5100877Y-13557150D02*
X5119925Y-13566674D01*
X5119925Y-13566674D02*
X5129448Y-13585722D01*
X5129448Y-13585722D02*
X5129448Y-13690484D01*
X5224686Y-13690484D02*
X5224686Y-13557150D01*
X5224686Y-13576198D02*
X5234210Y-13566674D01*
X5234210Y-13566674D02*
X5253258Y-13557150D01*
X5253258Y-13557150D02*
X5281829Y-13557150D01*
X5281829Y-13557150D02*
X5300877Y-13566674D01*
X5300877Y-13566674D02*
X5310401Y-13585722D01*
X5310401Y-13585722D02*
X5310401Y-13690484D01*
X5310401Y-13585722D02*
X5319925Y-13566674D01*
X5319925Y-13566674D02*
X5338972Y-13557150D01*
X5338972Y-13557150D02*
X5367544Y-13557150D01*
X5367544Y-13557150D02*
X5386591Y-13566674D01*
X5386591Y-13566674D02*
X5396115Y-13585722D01*
X5396115Y-13585722D02*
X5396115Y-13690484D01*
X5786591Y-13480960D02*
X5615163Y-13738103D01*
X6043734Y-13490484D02*
X6062782Y-13490484D01*
X6062782Y-13490484D02*
X6081829Y-13500008D01*
X6081829Y-13500008D02*
X6091353Y-13509531D01*
X6091353Y-13509531D02*
X6100877Y-13528579D01*
X6100877Y-13528579D02*
X6110401Y-13566674D01*
X6110401Y-13566674D02*
X6110401Y-13614293D01*
X6110401Y-13614293D02*
X6100877Y-13652388D01*
X6100877Y-13652388D02*
X6091353Y-13671436D01*
X6091353Y-13671436D02*
X6081829Y-13680960D01*
X6081829Y-13680960D02*
X6062782Y-13690484D01*
X6062782Y-13690484D02*
X6043734Y-13690484D01*
X6043734Y-13690484D02*
X6024686Y-13680960D01*
X6024686Y-13680960D02*
X6015163Y-13671436D01*
X6015163Y-13671436D02*
X6005639Y-13652388D01*
X6005639Y-13652388D02*
X5996115Y-13614293D01*
X5996115Y-13614293D02*
X5996115Y-13566674D01*
X5996115Y-13566674D02*
X6005639Y-13528579D01*
X6005639Y-13528579D02*
X6015163Y-13509531D01*
X6015163Y-13509531D02*
X6024686Y-13500008D01*
X6024686Y-13500008D02*
X6043734Y-13490484D01*
X6196115Y-13671436D02*
X6205639Y-13680960D01*
X6205639Y-13680960D02*
X6196115Y-13690484D01*
X6196115Y-13690484D02*
X6186591Y-13680960D01*
X6186591Y-13680960D02*
X6196115Y-13671436D01*
X6196115Y-13671436D02*
X6196115Y-13690484D01*
X6329448Y-13490484D02*
X6348496Y-13490484D01*
X6348496Y-13490484D02*
X6367544Y-13500008D01*
X6367544Y-13500008D02*
X6377067Y-13509531D01*
X6377067Y-13509531D02*
X6386591Y-13528579D01*
X6386591Y-13528579D02*
X6396115Y-13566674D01*
X6396115Y-13566674D02*
X6396115Y-13614293D01*
X6396115Y-13614293D02*
X6386591Y-13652388D01*
X6386591Y-13652388D02*
X6377067Y-13671436D01*
X6377067Y-13671436D02*
X6367544Y-13680960D01*
X6367544Y-13680960D02*
X6348496Y-13690484D01*
X6348496Y-13690484D02*
X6329448Y-13690484D01*
X6329448Y-13690484D02*
X6310401Y-13680960D01*
X6310401Y-13680960D02*
X6300877Y-13671436D01*
X6300877Y-13671436D02*
X6291353Y-13652388D01*
X6291353Y-13652388D02*
X6281829Y-13614293D01*
X6281829Y-13614293D02*
X6281829Y-13566674D01*
X6281829Y-13566674D02*
X6291353Y-13528579D01*
X6291353Y-13528579D02*
X6300877Y-13509531D01*
X6300877Y-13509531D02*
X6310401Y-13500008D01*
X6310401Y-13500008D02*
X6329448Y-13490484D01*
X6462782Y-13490484D02*
X6586591Y-13490484D01*
X6586591Y-13490484D02*
X6519925Y-13566674D01*
X6519925Y-13566674D02*
X6548496Y-13566674D01*
X6548496Y-13566674D02*
X6567544Y-13576198D01*
X6567544Y-13576198D02*
X6577067Y-13585722D01*
X6577067Y-13585722D02*
X6586591Y-13604769D01*
X6586591Y-13604769D02*
X6586591Y-13652388D01*
X6586591Y-13652388D02*
X6577067Y-13671436D01*
X6577067Y-13671436D02*
X6567544Y-13680960D01*
X6567544Y-13680960D02*
X6548496Y-13690484D01*
X6548496Y-13690484D02*
X6491353Y-13690484D01*
X6491353Y-13690484D02*
X6472306Y-13680960D01*
X6472306Y-13680960D02*
X6462782Y-13671436D01*
X6767544Y-13490484D02*
X6672306Y-13490484D01*
X6672306Y-13490484D02*
X6662782Y-13585722D01*
X6662782Y-13585722D02*
X6672306Y-13576198D01*
X6672306Y-13576198D02*
X6691353Y-13566674D01*
X6691353Y-13566674D02*
X6738972Y-13566674D01*
X6738972Y-13566674D02*
X6758020Y-13576198D01*
X6758020Y-13576198D02*
X6767544Y-13585722D01*
X6767544Y-13585722D02*
X6777067Y-13604769D01*
X6777067Y-13604769D02*
X6777067Y-13652388D01*
X6777067Y-13652388D02*
X6767544Y-13671436D01*
X6767544Y-13671436D02*
X6758020Y-13680960D01*
X6758020Y-13680960D02*
X6738972Y-13690484D01*
X6738972Y-13690484D02*
X6691353Y-13690484D01*
X6691353Y-13690484D02*
X6672306Y-13680960D01*
X6672306Y-13680960D02*
X6662782Y-13671436D01*
X6948496Y-13557150D02*
X6948496Y-13690484D01*
X6900877Y-13480960D02*
X6853258Y-13623817D01*
X6853258Y-13623817D02*
X6977067Y-13623817D01*
X7043734Y-13490484D02*
X7043734Y-13528579D01*
X7119925Y-13490484D02*
X7119925Y-13528579D01*
X7415163Y-13766674D02*
X7405639Y-13757150D01*
X7405639Y-13757150D02*
X7386591Y-13728579D01*
X7386591Y-13728579D02*
X7377068Y-13709531D01*
X7377068Y-13709531D02*
X7367544Y-13680960D01*
X7367544Y-13680960D02*
X7358020Y-13633341D01*
X7358020Y-13633341D02*
X7358020Y-13595246D01*
X7358020Y-13595246D02*
X7367544Y-13547627D01*
X7367544Y-13547627D02*
X7377068Y-13519055D01*
X7377068Y-13519055D02*
X7386591Y-13500008D01*
X7386591Y-13500008D02*
X7405639Y-13471436D01*
X7405639Y-13471436D02*
X7415163Y-13461912D01*
X7529448Y-13490484D02*
X7548496Y-13490484D01*
X7548496Y-13490484D02*
X7567544Y-13500008D01*
X7567544Y-13500008D02*
X7577068Y-13509531D01*
X7577068Y-13509531D02*
X7586591Y-13528579D01*
X7586591Y-13528579D02*
X7596115Y-13566674D01*
X7596115Y-13566674D02*
X7596115Y-13614293D01*
X7596115Y-13614293D02*
X7586591Y-13652388D01*
X7586591Y-13652388D02*
X7577068Y-13671436D01*
X7577068Y-13671436D02*
X7567544Y-13680960D01*
X7567544Y-13680960D02*
X7548496Y-13690484D01*
X7548496Y-13690484D02*
X7529448Y-13690484D01*
X7529448Y-13690484D02*
X7510401Y-13680960D01*
X7510401Y-13680960D02*
X7500877Y-13671436D01*
X7500877Y-13671436D02*
X7491353Y-13652388D01*
X7491353Y-13652388D02*
X7481829Y-13614293D01*
X7481829Y-13614293D02*
X7481829Y-13566674D01*
X7481829Y-13566674D02*
X7491353Y-13528579D01*
X7491353Y-13528579D02*
X7500877Y-13509531D01*
X7500877Y-13509531D02*
X7510401Y-13500008D01*
X7510401Y-13500008D02*
X7529448Y-13490484D01*
X7834210Y-13690484D02*
X7834210Y-13490484D01*
X7919925Y-13690484D02*
X7919925Y-13585722D01*
X7919925Y-13585722D02*
X7910401Y-13566674D01*
X7910401Y-13566674D02*
X7891353Y-13557150D01*
X7891353Y-13557150D02*
X7862782Y-13557150D01*
X7862782Y-13557150D02*
X7843734Y-13566674D01*
X7843734Y-13566674D02*
X7834210Y-13576198D01*
X8043734Y-13690484D02*
X8024687Y-13680960D01*
X8024687Y-13680960D02*
X8015163Y-13671436D01*
X8015163Y-13671436D02*
X8005639Y-13652388D01*
X8005639Y-13652388D02*
X8005639Y-13595246D01*
X8005639Y-13595246D02*
X8015163Y-13576198D01*
X8015163Y-13576198D02*
X8024687Y-13566674D01*
X8024687Y-13566674D02*
X8043734Y-13557150D01*
X8043734Y-13557150D02*
X8072306Y-13557150D01*
X8072306Y-13557150D02*
X8091353Y-13566674D01*
X8091353Y-13566674D02*
X8100877Y-13576198D01*
X8100877Y-13576198D02*
X8110401Y-13595246D01*
X8110401Y-13595246D02*
X8110401Y-13652388D01*
X8110401Y-13652388D02*
X8100877Y-13671436D01*
X8100877Y-13671436D02*
X8091353Y-13680960D01*
X8091353Y-13680960D02*
X8072306Y-13690484D01*
X8072306Y-13690484D02*
X8043734Y-13690484D01*
X8224687Y-13690484D02*
X8205639Y-13680960D01*
X8205639Y-13680960D02*
X8196115Y-13661912D01*
X8196115Y-13661912D02*
X8196115Y-13490484D01*
X8377068Y-13680960D02*
X8358020Y-13690484D01*
X8358020Y-13690484D02*
X8319925Y-13690484D01*
X8319925Y-13690484D02*
X8300877Y-13680960D01*
X8300877Y-13680960D02*
X8291353Y-13661912D01*
X8291353Y-13661912D02*
X8291353Y-13585722D01*
X8291353Y-13585722D02*
X8300877Y-13566674D01*
X8300877Y-13566674D02*
X8319925Y-13557150D01*
X8319925Y-13557150D02*
X8358020Y-13557150D01*
X8358020Y-13557150D02*
X8377068Y-13566674D01*
X8377068Y-13566674D02*
X8386591Y-13585722D01*
X8386591Y-13585722D02*
X8386591Y-13604769D01*
X8386591Y-13604769D02*
X8291353Y-13623817D01*
X8462782Y-13680960D02*
X8481830Y-13690484D01*
X8481830Y-13690484D02*
X8519925Y-13690484D01*
X8519925Y-13690484D02*
X8538973Y-13680960D01*
X8538973Y-13680960D02*
X8548496Y-13661912D01*
X8548496Y-13661912D02*
X8548496Y-13652388D01*
X8548496Y-13652388D02*
X8538973Y-13633341D01*
X8538973Y-13633341D02*
X8519925Y-13623817D01*
X8519925Y-13623817D02*
X8491353Y-13623817D01*
X8491353Y-13623817D02*
X8472306Y-13614293D01*
X8472306Y-13614293D02*
X8462782Y-13595246D01*
X8462782Y-13595246D02*
X8462782Y-13585722D01*
X8462782Y-13585722D02*
X8472306Y-13566674D01*
X8472306Y-13566674D02*
X8491353Y-13557150D01*
X8491353Y-13557150D02*
X8519925Y-13557150D01*
X8519925Y-13557150D02*
X8538973Y-13566674D01*
X8786592Y-13614293D02*
X8938973Y-13614293D01*
X8862782Y-13690484D02*
X8862782Y-13538103D01*
X9291354Y-13690484D02*
X9177068Y-13690484D01*
X9234211Y-13690484D02*
X9234211Y-13490484D01*
X9234211Y-13490484D02*
X9215163Y-13519055D01*
X9215163Y-13519055D02*
X9196115Y-13538103D01*
X9196115Y-13538103D02*
X9177068Y-13547627D01*
X9462782Y-13490484D02*
X9424687Y-13490484D01*
X9424687Y-13490484D02*
X9405639Y-13500008D01*
X9405639Y-13500008D02*
X9396115Y-13509531D01*
X9396115Y-13509531D02*
X9377068Y-13538103D01*
X9377068Y-13538103D02*
X9367544Y-13576198D01*
X9367544Y-13576198D02*
X9367544Y-13652388D01*
X9367544Y-13652388D02*
X9377068Y-13671436D01*
X9377068Y-13671436D02*
X9386592Y-13680960D01*
X9386592Y-13680960D02*
X9405639Y-13690484D01*
X9405639Y-13690484D02*
X9443735Y-13690484D01*
X9443735Y-13690484D02*
X9462782Y-13680960D01*
X9462782Y-13680960D02*
X9472306Y-13671436D01*
X9472306Y-13671436D02*
X9481830Y-13652388D01*
X9481830Y-13652388D02*
X9481830Y-13604769D01*
X9481830Y-13604769D02*
X9472306Y-13585722D01*
X9472306Y-13585722D02*
X9462782Y-13576198D01*
X9462782Y-13576198D02*
X9443735Y-13566674D01*
X9443735Y-13566674D02*
X9405639Y-13566674D01*
X9405639Y-13566674D02*
X9386592Y-13576198D01*
X9386592Y-13576198D02*
X9377068Y-13585722D01*
X9377068Y-13585722D02*
X9367544Y-13604769D01*
X9710401Y-13680960D02*
X9729449Y-13690484D01*
X9729449Y-13690484D02*
X9767544Y-13690484D01*
X9767544Y-13690484D02*
X9786592Y-13680960D01*
X9786592Y-13680960D02*
X9796116Y-13661912D01*
X9796116Y-13661912D02*
X9796116Y-13652388D01*
X9796116Y-13652388D02*
X9786592Y-13633341D01*
X9786592Y-13633341D02*
X9767544Y-13623817D01*
X9767544Y-13623817D02*
X9738973Y-13623817D01*
X9738973Y-13623817D02*
X9719925Y-13614293D01*
X9719925Y-13614293D02*
X9710401Y-13595246D01*
X9710401Y-13595246D02*
X9710401Y-13585722D01*
X9710401Y-13585722D02*
X9719925Y-13566674D01*
X9719925Y-13566674D02*
X9738973Y-13557150D01*
X9738973Y-13557150D02*
X9767544Y-13557150D01*
X9767544Y-13557150D02*
X9786592Y-13566674D01*
X9910401Y-13690484D02*
X9891354Y-13680960D01*
X9891354Y-13680960D02*
X9881830Y-13661912D01*
X9881830Y-13661912D02*
X9881830Y-13490484D01*
X10015163Y-13690484D02*
X9996116Y-13680960D01*
X9996116Y-13680960D02*
X9986592Y-13671436D01*
X9986592Y-13671436D02*
X9977068Y-13652388D01*
X9977068Y-13652388D02*
X9977068Y-13595246D01*
X9977068Y-13595246D02*
X9986592Y-13576198D01*
X9986592Y-13576198D02*
X9996116Y-13566674D01*
X9996116Y-13566674D02*
X10015163Y-13557150D01*
X10015163Y-13557150D02*
X10043735Y-13557150D01*
X10043735Y-13557150D02*
X10062782Y-13566674D01*
X10062782Y-13566674D02*
X10072306Y-13576198D01*
X10072306Y-13576198D02*
X10081830Y-13595246D01*
X10081830Y-13595246D02*
X10081830Y-13652388D01*
X10081830Y-13652388D02*
X10072306Y-13671436D01*
X10072306Y-13671436D02*
X10062782Y-13680960D01*
X10062782Y-13680960D02*
X10043735Y-13690484D01*
X10043735Y-13690484D02*
X10015163Y-13690484D01*
X10138973Y-13557150D02*
X10215163Y-13557150D01*
X10167544Y-13490484D02*
X10167544Y-13661912D01*
X10167544Y-13661912D02*
X10177068Y-13680960D01*
X10177068Y-13680960D02*
X10196116Y-13690484D01*
X10196116Y-13690484D02*
X10215163Y-13690484D01*
X10272306Y-13680960D02*
X10291354Y-13690484D01*
X10291354Y-13690484D02*
X10329449Y-13690484D01*
X10329449Y-13690484D02*
X10348497Y-13680960D01*
X10348497Y-13680960D02*
X10358020Y-13661912D01*
X10358020Y-13661912D02*
X10358020Y-13652388D01*
X10358020Y-13652388D02*
X10348497Y-13633341D01*
X10348497Y-13633341D02*
X10329449Y-13623817D01*
X10329449Y-13623817D02*
X10300877Y-13623817D01*
X10300877Y-13623817D02*
X10281830Y-13614293D01*
X10281830Y-13614293D02*
X10272306Y-13595246D01*
X10272306Y-13595246D02*
X10272306Y-13585722D01*
X10272306Y-13585722D02*
X10281830Y-13566674D01*
X10281830Y-13566674D02*
X10300877Y-13557150D01*
X10300877Y-13557150D02*
X10329449Y-13557150D01*
X10329449Y-13557150D02*
X10348497Y-13566674D01*
X10424687Y-13766674D02*
X10434211Y-13757150D01*
X10434211Y-13757150D02*
X10453258Y-13728579D01*
X10453258Y-13728579D02*
X10462782Y-13709531D01*
X10462782Y-13709531D02*
X10472306Y-13680960D01*
X10472306Y-13680960D02*
X10481830Y-13633341D01*
X10481830Y-13633341D02*
X10481830Y-13595246D01*
X10481830Y-13595246D02*
X10472306Y-13547627D01*
X10472306Y-13547627D02*
X10462782Y-13519055D01*
X10462782Y-13519055D02*
X10453258Y-13500008D01*
X10453258Y-13500008D02*
X10434211Y-13471436D01*
X10434211Y-13471436D02*
X10424687Y-13461912D01*
D10*
X3825456Y-13898356D02*
X3825456Y-13827644D01*
X3754744Y-13827644D01*
X3754744Y-13898356D01*
X3825456Y-13898356D01*
D12*
X4205639Y-13954484D02*
X4091353Y-13954484D01*
X4148496Y-13954484D02*
X4148496Y-13754484D01*
X4148496Y-13754484D02*
X4129448Y-13783055D01*
X4129448Y-13783055D02*
X4110401Y-13802103D01*
X4110401Y-13802103D02*
X4091353Y-13811627D01*
X4291353Y-13935436D02*
X4300877Y-13944960D01*
X4300877Y-13944960D02*
X4291353Y-13954484D01*
X4291353Y-13954484D02*
X4281829Y-13944960D01*
X4281829Y-13944960D02*
X4291353Y-13935436D01*
X4291353Y-13935436D02*
X4291353Y-13954484D01*
X4424686Y-13754484D02*
X4443734Y-13754484D01*
X4443734Y-13754484D02*
X4462782Y-13764008D01*
X4462782Y-13764008D02*
X4472305Y-13773531D01*
X4472305Y-13773531D02*
X4481829Y-13792579D01*
X4481829Y-13792579D02*
X4491353Y-13830674D01*
X4491353Y-13830674D02*
X4491353Y-13878293D01*
X4491353Y-13878293D02*
X4481829Y-13916388D01*
X4481829Y-13916388D02*
X4472305Y-13935436D01*
X4472305Y-13935436D02*
X4462782Y-13944960D01*
X4462782Y-13944960D02*
X4443734Y-13954484D01*
X4443734Y-13954484D02*
X4424686Y-13954484D01*
X4424686Y-13954484D02*
X4405639Y-13944960D01*
X4405639Y-13944960D02*
X4396115Y-13935436D01*
X4396115Y-13935436D02*
X4386591Y-13916388D01*
X4386591Y-13916388D02*
X4377067Y-13878293D01*
X4377067Y-13878293D02*
X4377067Y-13830674D01*
X4377067Y-13830674D02*
X4386591Y-13792579D01*
X4386591Y-13792579D02*
X4396115Y-13773531D01*
X4396115Y-13773531D02*
X4405639Y-13764008D01*
X4405639Y-13764008D02*
X4424686Y-13754484D01*
X4615163Y-13754484D02*
X4634210Y-13754484D01*
X4634210Y-13754484D02*
X4653258Y-13764008D01*
X4653258Y-13764008D02*
X4662782Y-13773531D01*
X4662782Y-13773531D02*
X4672305Y-13792579D01*
X4672305Y-13792579D02*
X4681829Y-13830674D01*
X4681829Y-13830674D02*
X4681829Y-13878293D01*
X4681829Y-13878293D02*
X4672305Y-13916388D01*
X4672305Y-13916388D02*
X4662782Y-13935436D01*
X4662782Y-13935436D02*
X4653258Y-13944960D01*
X4653258Y-13944960D02*
X4634210Y-13954484D01*
X4634210Y-13954484D02*
X4615163Y-13954484D01*
X4615163Y-13954484D02*
X4596115Y-13944960D01*
X4596115Y-13944960D02*
X4586591Y-13935436D01*
X4586591Y-13935436D02*
X4577067Y-13916388D01*
X4577067Y-13916388D02*
X4567544Y-13878293D01*
X4567544Y-13878293D02*
X4567544Y-13830674D01*
X4567544Y-13830674D02*
X4577067Y-13792579D01*
X4577067Y-13792579D02*
X4586591Y-13773531D01*
X4586591Y-13773531D02*
X4596115Y-13764008D01*
X4596115Y-13764008D02*
X4615163Y-13754484D01*
X4805639Y-13754484D02*
X4824686Y-13754484D01*
X4824686Y-13754484D02*
X4843734Y-13764008D01*
X4843734Y-13764008D02*
X4853258Y-13773531D01*
X4853258Y-13773531D02*
X4862782Y-13792579D01*
X4862782Y-13792579D02*
X4872305Y-13830674D01*
X4872305Y-13830674D02*
X4872305Y-13878293D01*
X4872305Y-13878293D02*
X4862782Y-13916388D01*
X4862782Y-13916388D02*
X4853258Y-13935436D01*
X4853258Y-13935436D02*
X4843734Y-13944960D01*
X4843734Y-13944960D02*
X4824686Y-13954484D01*
X4824686Y-13954484D02*
X4805639Y-13954484D01*
X4805639Y-13954484D02*
X4786591Y-13944960D01*
X4786591Y-13944960D02*
X4777067Y-13935436D01*
X4777067Y-13935436D02*
X4767544Y-13916388D01*
X4767544Y-13916388D02*
X4758020Y-13878293D01*
X4758020Y-13878293D02*
X4758020Y-13830674D01*
X4758020Y-13830674D02*
X4767544Y-13792579D01*
X4767544Y-13792579D02*
X4777067Y-13773531D01*
X4777067Y-13773531D02*
X4786591Y-13764008D01*
X4786591Y-13764008D02*
X4805639Y-13754484D01*
X4958020Y-13954484D02*
X4958020Y-13821150D01*
X4958020Y-13840198D02*
X4967544Y-13830674D01*
X4967544Y-13830674D02*
X4986591Y-13821150D01*
X4986591Y-13821150D02*
X5015163Y-13821150D01*
X5015163Y-13821150D02*
X5034210Y-13830674D01*
X5034210Y-13830674D02*
X5043734Y-13849722D01*
X5043734Y-13849722D02*
X5043734Y-13954484D01*
X5043734Y-13849722D02*
X5053258Y-13830674D01*
X5053258Y-13830674D02*
X5072305Y-13821150D01*
X5072305Y-13821150D02*
X5100877Y-13821150D01*
X5100877Y-13821150D02*
X5119925Y-13830674D01*
X5119925Y-13830674D02*
X5129448Y-13849722D01*
X5129448Y-13849722D02*
X5129448Y-13954484D01*
X5224686Y-13954484D02*
X5224686Y-13821150D01*
X5224686Y-13840198D02*
X5234210Y-13830674D01*
X5234210Y-13830674D02*
X5253258Y-13821150D01*
X5253258Y-13821150D02*
X5281829Y-13821150D01*
X5281829Y-13821150D02*
X5300877Y-13830674D01*
X5300877Y-13830674D02*
X5310401Y-13849722D01*
X5310401Y-13849722D02*
X5310401Y-13954484D01*
X5310401Y-13849722D02*
X5319925Y-13830674D01*
X5319925Y-13830674D02*
X5338972Y-13821150D01*
X5338972Y-13821150D02*
X5367544Y-13821150D01*
X5367544Y-13821150D02*
X5386591Y-13830674D01*
X5386591Y-13830674D02*
X5396115Y-13849722D01*
X5396115Y-13849722D02*
X5396115Y-13954484D01*
X5786591Y-13744960D02*
X5615163Y-14002103D01*
X6043734Y-13754484D02*
X6062782Y-13754484D01*
X6062782Y-13754484D02*
X6081829Y-13764008D01*
X6081829Y-13764008D02*
X6091353Y-13773531D01*
X6091353Y-13773531D02*
X6100877Y-13792579D01*
X6100877Y-13792579D02*
X6110401Y-13830674D01*
X6110401Y-13830674D02*
X6110401Y-13878293D01*
X6110401Y-13878293D02*
X6100877Y-13916388D01*
X6100877Y-13916388D02*
X6091353Y-13935436D01*
X6091353Y-13935436D02*
X6081829Y-13944960D01*
X6081829Y-13944960D02*
X6062782Y-13954484D01*
X6062782Y-13954484D02*
X6043734Y-13954484D01*
X6043734Y-13954484D02*
X6024686Y-13944960D01*
X6024686Y-13944960D02*
X6015163Y-13935436D01*
X6015163Y-13935436D02*
X6005639Y-13916388D01*
X6005639Y-13916388D02*
X5996115Y-13878293D01*
X5996115Y-13878293D02*
X5996115Y-13830674D01*
X5996115Y-13830674D02*
X6005639Y-13792579D01*
X6005639Y-13792579D02*
X6015163Y-13773531D01*
X6015163Y-13773531D02*
X6024686Y-13764008D01*
X6024686Y-13764008D02*
X6043734Y-13754484D01*
X6196115Y-13935436D02*
X6205639Y-13944960D01*
X6205639Y-13944960D02*
X6196115Y-13954484D01*
X6196115Y-13954484D02*
X6186591Y-13944960D01*
X6186591Y-13944960D02*
X6196115Y-13935436D01*
X6196115Y-13935436D02*
X6196115Y-13954484D01*
X6329448Y-13754484D02*
X6348496Y-13754484D01*
X6348496Y-13754484D02*
X6367544Y-13764008D01*
X6367544Y-13764008D02*
X6377067Y-13773531D01*
X6377067Y-13773531D02*
X6386591Y-13792579D01*
X6386591Y-13792579D02*
X6396115Y-13830674D01*
X6396115Y-13830674D02*
X6396115Y-13878293D01*
X6396115Y-13878293D02*
X6386591Y-13916388D01*
X6386591Y-13916388D02*
X6377067Y-13935436D01*
X6377067Y-13935436D02*
X6367544Y-13944960D01*
X6367544Y-13944960D02*
X6348496Y-13954484D01*
X6348496Y-13954484D02*
X6329448Y-13954484D01*
X6329448Y-13954484D02*
X6310401Y-13944960D01*
X6310401Y-13944960D02*
X6300877Y-13935436D01*
X6300877Y-13935436D02*
X6291353Y-13916388D01*
X6291353Y-13916388D02*
X6281829Y-13878293D01*
X6281829Y-13878293D02*
X6281829Y-13830674D01*
X6281829Y-13830674D02*
X6291353Y-13792579D01*
X6291353Y-13792579D02*
X6300877Y-13773531D01*
X6300877Y-13773531D02*
X6310401Y-13764008D01*
X6310401Y-13764008D02*
X6329448Y-13754484D01*
X6462782Y-13754484D02*
X6586591Y-13754484D01*
X6586591Y-13754484D02*
X6519925Y-13830674D01*
X6519925Y-13830674D02*
X6548496Y-13830674D01*
X6548496Y-13830674D02*
X6567544Y-13840198D01*
X6567544Y-13840198D02*
X6577067Y-13849722D01*
X6577067Y-13849722D02*
X6586591Y-13868769D01*
X6586591Y-13868769D02*
X6586591Y-13916388D01*
X6586591Y-13916388D02*
X6577067Y-13935436D01*
X6577067Y-13935436D02*
X6567544Y-13944960D01*
X6567544Y-13944960D02*
X6548496Y-13954484D01*
X6548496Y-13954484D02*
X6491353Y-13954484D01*
X6491353Y-13954484D02*
X6472306Y-13944960D01*
X6472306Y-13944960D02*
X6462782Y-13935436D01*
X6681829Y-13954484D02*
X6719925Y-13954484D01*
X6719925Y-13954484D02*
X6738972Y-13944960D01*
X6738972Y-13944960D02*
X6748496Y-13935436D01*
X6748496Y-13935436D02*
X6767544Y-13906865D01*
X6767544Y-13906865D02*
X6777067Y-13868769D01*
X6777067Y-13868769D02*
X6777067Y-13792579D01*
X6777067Y-13792579D02*
X6767544Y-13773531D01*
X6767544Y-13773531D02*
X6758020Y-13764008D01*
X6758020Y-13764008D02*
X6738972Y-13754484D01*
X6738972Y-13754484D02*
X6700877Y-13754484D01*
X6700877Y-13754484D02*
X6681829Y-13764008D01*
X6681829Y-13764008D02*
X6672306Y-13773531D01*
X6672306Y-13773531D02*
X6662782Y-13792579D01*
X6662782Y-13792579D02*
X6662782Y-13840198D01*
X6662782Y-13840198D02*
X6672306Y-13859246D01*
X6672306Y-13859246D02*
X6681829Y-13868769D01*
X6681829Y-13868769D02*
X6700877Y-13878293D01*
X6700877Y-13878293D02*
X6738972Y-13878293D01*
X6738972Y-13878293D02*
X6758020Y-13868769D01*
X6758020Y-13868769D02*
X6767544Y-13859246D01*
X6767544Y-13859246D02*
X6777067Y-13840198D01*
X6948496Y-13821150D02*
X6948496Y-13954484D01*
X6900877Y-13744960D02*
X6853258Y-13887817D01*
X6853258Y-13887817D02*
X6977067Y-13887817D01*
X7043734Y-13754484D02*
X7043734Y-13792579D01*
X7119925Y-13754484D02*
X7119925Y-13792579D01*
X7415163Y-14030674D02*
X7405639Y-14021150D01*
X7405639Y-14021150D02*
X7386591Y-13992579D01*
X7386591Y-13992579D02*
X7377068Y-13973531D01*
X7377068Y-13973531D02*
X7367544Y-13944960D01*
X7367544Y-13944960D02*
X7358020Y-13897341D01*
X7358020Y-13897341D02*
X7358020Y-13859246D01*
X7358020Y-13859246D02*
X7367544Y-13811627D01*
X7367544Y-13811627D02*
X7377068Y-13783055D01*
X7377068Y-13783055D02*
X7386591Y-13764008D01*
X7386591Y-13764008D02*
X7405639Y-13735436D01*
X7405639Y-13735436D02*
X7415163Y-13725912D01*
X7500877Y-13954484D02*
X7538972Y-13954484D01*
X7538972Y-13954484D02*
X7558020Y-13944960D01*
X7558020Y-13944960D02*
X7567544Y-13935436D01*
X7567544Y-13935436D02*
X7586591Y-13906865D01*
X7586591Y-13906865D02*
X7596115Y-13868769D01*
X7596115Y-13868769D02*
X7596115Y-13792579D01*
X7596115Y-13792579D02*
X7586591Y-13773531D01*
X7586591Y-13773531D02*
X7577068Y-13764008D01*
X7577068Y-13764008D02*
X7558020Y-13754484D01*
X7558020Y-13754484D02*
X7519925Y-13754484D01*
X7519925Y-13754484D02*
X7500877Y-13764008D01*
X7500877Y-13764008D02*
X7491353Y-13773531D01*
X7491353Y-13773531D02*
X7481829Y-13792579D01*
X7481829Y-13792579D02*
X7481829Y-13840198D01*
X7481829Y-13840198D02*
X7491353Y-13859246D01*
X7491353Y-13859246D02*
X7500877Y-13868769D01*
X7500877Y-13868769D02*
X7519925Y-13878293D01*
X7519925Y-13878293D02*
X7558020Y-13878293D01*
X7558020Y-13878293D02*
X7577068Y-13868769D01*
X7577068Y-13868769D02*
X7586591Y-13859246D01*
X7586591Y-13859246D02*
X7596115Y-13840198D01*
X7834210Y-13954484D02*
X7834210Y-13754484D01*
X7919925Y-13954484D02*
X7919925Y-13849722D01*
X7919925Y-13849722D02*
X7910401Y-13830674D01*
X7910401Y-13830674D02*
X7891353Y-13821150D01*
X7891353Y-13821150D02*
X7862782Y-13821150D01*
X7862782Y-13821150D02*
X7843734Y-13830674D01*
X7843734Y-13830674D02*
X7834210Y-13840198D01*
X8043734Y-13954484D02*
X8024687Y-13944960D01*
X8024687Y-13944960D02*
X8015163Y-13935436D01*
X8015163Y-13935436D02*
X8005639Y-13916388D01*
X8005639Y-13916388D02*
X8005639Y-13859246D01*
X8005639Y-13859246D02*
X8015163Y-13840198D01*
X8015163Y-13840198D02*
X8024687Y-13830674D01*
X8024687Y-13830674D02*
X8043734Y-13821150D01*
X8043734Y-13821150D02*
X8072306Y-13821150D01*
X8072306Y-13821150D02*
X8091353Y-13830674D01*
X8091353Y-13830674D02*
X8100877Y-13840198D01*
X8100877Y-13840198D02*
X8110401Y-13859246D01*
X8110401Y-13859246D02*
X8110401Y-13916388D01*
X8110401Y-13916388D02*
X8100877Y-13935436D01*
X8100877Y-13935436D02*
X8091353Y-13944960D01*
X8091353Y-13944960D02*
X8072306Y-13954484D01*
X8072306Y-13954484D02*
X8043734Y-13954484D01*
X8224687Y-13954484D02*
X8205639Y-13944960D01*
X8205639Y-13944960D02*
X8196115Y-13925912D01*
X8196115Y-13925912D02*
X8196115Y-13754484D01*
X8377068Y-13944960D02*
X8358020Y-13954484D01*
X8358020Y-13954484D02*
X8319925Y-13954484D01*
X8319925Y-13954484D02*
X8300877Y-13944960D01*
X8300877Y-13944960D02*
X8291353Y-13925912D01*
X8291353Y-13925912D02*
X8291353Y-13849722D01*
X8291353Y-13849722D02*
X8300877Y-13830674D01*
X8300877Y-13830674D02*
X8319925Y-13821150D01*
X8319925Y-13821150D02*
X8358020Y-13821150D01*
X8358020Y-13821150D02*
X8377068Y-13830674D01*
X8377068Y-13830674D02*
X8386591Y-13849722D01*
X8386591Y-13849722D02*
X8386591Y-13868769D01*
X8386591Y-13868769D02*
X8291353Y-13887817D01*
X8462782Y-13944960D02*
X8481830Y-13954484D01*
X8481830Y-13954484D02*
X8519925Y-13954484D01*
X8519925Y-13954484D02*
X8538973Y-13944960D01*
X8538973Y-13944960D02*
X8548496Y-13925912D01*
X8548496Y-13925912D02*
X8548496Y-13916388D01*
X8548496Y-13916388D02*
X8538973Y-13897341D01*
X8538973Y-13897341D02*
X8519925Y-13887817D01*
X8519925Y-13887817D02*
X8491353Y-13887817D01*
X8491353Y-13887817D02*
X8472306Y-13878293D01*
X8472306Y-13878293D02*
X8462782Y-13859246D01*
X8462782Y-13859246D02*
X8462782Y-13849722D01*
X8462782Y-13849722D02*
X8472306Y-13830674D01*
X8472306Y-13830674D02*
X8491353Y-13821150D01*
X8491353Y-13821150D02*
X8519925Y-13821150D01*
X8519925Y-13821150D02*
X8538973Y-13830674D01*
X8615163Y-14030674D02*
X8624687Y-14021150D01*
X8624687Y-14021150D02*
X8643734Y-13992579D01*
X8643734Y-13992579D02*
X8653258Y-13973531D01*
X8653258Y-13973531D02*
X8662782Y-13944960D01*
X8662782Y-13944960D02*
X8672306Y-13897341D01*
X8672306Y-13897341D02*
X8672306Y-13859246D01*
X8672306Y-13859246D02*
X8662782Y-13811627D01*
X8662782Y-13811627D02*
X8653258Y-13783055D01*
X8653258Y-13783055D02*
X8643734Y-13764008D01*
X8643734Y-13764008D02*
X8624687Y-13735436D01*
X8624687Y-13735436D02*
X8615163Y-13725912D01*
D16*
X3785490Y-14181610D02*
X3840100Y-14127000D01*
X3785490Y-14072390D01*
X3730880Y-14127000D01*
X3785490Y-14181610D01*
D12*
X4205639Y-14218484D02*
X4091353Y-14218484D01*
X4148496Y-14218484D02*
X4148496Y-14018484D01*
X4148496Y-14018484D02*
X4129448Y-14047055D01*
X4129448Y-14047055D02*
X4110401Y-14066103D01*
X4110401Y-14066103D02*
X4091353Y-14075627D01*
X4291353Y-14199436D02*
X4300877Y-14208960D01*
X4300877Y-14208960D02*
X4291353Y-14218484D01*
X4291353Y-14218484D02*
X4281829Y-14208960D01*
X4281829Y-14208960D02*
X4291353Y-14199436D01*
X4291353Y-14199436D02*
X4291353Y-14218484D01*
X4424686Y-14018484D02*
X4443734Y-14018484D01*
X4443734Y-14018484D02*
X4462782Y-14028008D01*
X4462782Y-14028008D02*
X4472305Y-14037531D01*
X4472305Y-14037531D02*
X4481829Y-14056579D01*
X4481829Y-14056579D02*
X4491353Y-14094674D01*
X4491353Y-14094674D02*
X4491353Y-14142293D01*
X4491353Y-14142293D02*
X4481829Y-14180388D01*
X4481829Y-14180388D02*
X4472305Y-14199436D01*
X4472305Y-14199436D02*
X4462782Y-14208960D01*
X4462782Y-14208960D02*
X4443734Y-14218484D01*
X4443734Y-14218484D02*
X4424686Y-14218484D01*
X4424686Y-14218484D02*
X4405639Y-14208960D01*
X4405639Y-14208960D02*
X4396115Y-14199436D01*
X4396115Y-14199436D02*
X4386591Y-14180388D01*
X4386591Y-14180388D02*
X4377067Y-14142293D01*
X4377067Y-14142293D02*
X4377067Y-14094674D01*
X4377067Y-14094674D02*
X4386591Y-14056579D01*
X4386591Y-14056579D02*
X4396115Y-14037531D01*
X4396115Y-14037531D02*
X4405639Y-14028008D01*
X4405639Y-14028008D02*
X4424686Y-14018484D01*
X4586591Y-14218484D02*
X4624686Y-14218484D01*
X4624686Y-14218484D02*
X4643734Y-14208960D01*
X4643734Y-14208960D02*
X4653258Y-14199436D01*
X4653258Y-14199436D02*
X4672305Y-14170865D01*
X4672305Y-14170865D02*
X4681829Y-14132769D01*
X4681829Y-14132769D02*
X4681829Y-14056579D01*
X4681829Y-14056579D02*
X4672305Y-14037531D01*
X4672305Y-14037531D02*
X4662782Y-14028008D01*
X4662782Y-14028008D02*
X4643734Y-14018484D01*
X4643734Y-14018484D02*
X4605639Y-14018484D01*
X4605639Y-14018484D02*
X4586591Y-14028008D01*
X4586591Y-14028008D02*
X4577067Y-14037531D01*
X4577067Y-14037531D02*
X4567544Y-14056579D01*
X4567544Y-14056579D02*
X4567544Y-14104198D01*
X4567544Y-14104198D02*
X4577067Y-14123246D01*
X4577067Y-14123246D02*
X4586591Y-14132769D01*
X4586591Y-14132769D02*
X4605639Y-14142293D01*
X4605639Y-14142293D02*
X4643734Y-14142293D01*
X4643734Y-14142293D02*
X4662782Y-14132769D01*
X4662782Y-14132769D02*
X4672305Y-14123246D01*
X4672305Y-14123246D02*
X4681829Y-14104198D01*
X4758020Y-14037531D02*
X4767544Y-14028008D01*
X4767544Y-14028008D02*
X4786591Y-14018484D01*
X4786591Y-14018484D02*
X4834210Y-14018484D01*
X4834210Y-14018484D02*
X4853258Y-14028008D01*
X4853258Y-14028008D02*
X4862782Y-14037531D01*
X4862782Y-14037531D02*
X4872305Y-14056579D01*
X4872305Y-14056579D02*
X4872305Y-14075627D01*
X4872305Y-14075627D02*
X4862782Y-14104198D01*
X4862782Y-14104198D02*
X4748496Y-14218484D01*
X4748496Y-14218484D02*
X4872305Y-14218484D01*
X4958020Y-14218484D02*
X4958020Y-14085150D01*
X4958020Y-14104198D02*
X4967544Y-14094674D01*
X4967544Y-14094674D02*
X4986591Y-14085150D01*
X4986591Y-14085150D02*
X5015163Y-14085150D01*
X5015163Y-14085150D02*
X5034210Y-14094674D01*
X5034210Y-14094674D02*
X5043734Y-14113722D01*
X5043734Y-14113722D02*
X5043734Y-14218484D01*
X5043734Y-14113722D02*
X5053258Y-14094674D01*
X5053258Y-14094674D02*
X5072305Y-14085150D01*
X5072305Y-14085150D02*
X5100877Y-14085150D01*
X5100877Y-14085150D02*
X5119925Y-14094674D01*
X5119925Y-14094674D02*
X5129448Y-14113722D01*
X5129448Y-14113722D02*
X5129448Y-14218484D01*
X5224686Y-14218484D02*
X5224686Y-14085150D01*
X5224686Y-14104198D02*
X5234210Y-14094674D01*
X5234210Y-14094674D02*
X5253258Y-14085150D01*
X5253258Y-14085150D02*
X5281829Y-14085150D01*
X5281829Y-14085150D02*
X5300877Y-14094674D01*
X5300877Y-14094674D02*
X5310401Y-14113722D01*
X5310401Y-14113722D02*
X5310401Y-14218484D01*
X5310401Y-14113722D02*
X5319925Y-14094674D01*
X5319925Y-14094674D02*
X5338972Y-14085150D01*
X5338972Y-14085150D02*
X5367544Y-14085150D01*
X5367544Y-14085150D02*
X5386591Y-14094674D01*
X5386591Y-14094674D02*
X5396115Y-14113722D01*
X5396115Y-14113722D02*
X5396115Y-14218484D01*
X5786591Y-14008960D02*
X5615163Y-14266103D01*
X6043734Y-14018484D02*
X6062782Y-14018484D01*
X6062782Y-14018484D02*
X6081829Y-14028008D01*
X6081829Y-14028008D02*
X6091353Y-14037531D01*
X6091353Y-14037531D02*
X6100877Y-14056579D01*
X6100877Y-14056579D02*
X6110401Y-14094674D01*
X6110401Y-14094674D02*
X6110401Y-14142293D01*
X6110401Y-14142293D02*
X6100877Y-14180388D01*
X6100877Y-14180388D02*
X6091353Y-14199436D01*
X6091353Y-14199436D02*
X6081829Y-14208960D01*
X6081829Y-14208960D02*
X6062782Y-14218484D01*
X6062782Y-14218484D02*
X6043734Y-14218484D01*
X6043734Y-14218484D02*
X6024686Y-14208960D01*
X6024686Y-14208960D02*
X6015163Y-14199436D01*
X6015163Y-14199436D02*
X6005639Y-14180388D01*
X6005639Y-14180388D02*
X5996115Y-14142293D01*
X5996115Y-14142293D02*
X5996115Y-14094674D01*
X5996115Y-14094674D02*
X6005639Y-14056579D01*
X6005639Y-14056579D02*
X6015163Y-14037531D01*
X6015163Y-14037531D02*
X6024686Y-14028008D01*
X6024686Y-14028008D02*
X6043734Y-14018484D01*
X6196115Y-14199436D02*
X6205639Y-14208960D01*
X6205639Y-14208960D02*
X6196115Y-14218484D01*
X6196115Y-14218484D02*
X6186591Y-14208960D01*
X6186591Y-14208960D02*
X6196115Y-14199436D01*
X6196115Y-14199436D02*
X6196115Y-14218484D01*
X6329448Y-14018484D02*
X6348496Y-14018484D01*
X6348496Y-14018484D02*
X6367544Y-14028008D01*
X6367544Y-14028008D02*
X6377067Y-14037531D01*
X6377067Y-14037531D02*
X6386591Y-14056579D01*
X6386591Y-14056579D02*
X6396115Y-14094674D01*
X6396115Y-14094674D02*
X6396115Y-14142293D01*
X6396115Y-14142293D02*
X6386591Y-14180388D01*
X6386591Y-14180388D02*
X6377067Y-14199436D01*
X6377067Y-14199436D02*
X6367544Y-14208960D01*
X6367544Y-14208960D02*
X6348496Y-14218484D01*
X6348496Y-14218484D02*
X6329448Y-14218484D01*
X6329448Y-14218484D02*
X6310401Y-14208960D01*
X6310401Y-14208960D02*
X6300877Y-14199436D01*
X6300877Y-14199436D02*
X6291353Y-14180388D01*
X6291353Y-14180388D02*
X6281829Y-14142293D01*
X6281829Y-14142293D02*
X6281829Y-14094674D01*
X6281829Y-14094674D02*
X6291353Y-14056579D01*
X6291353Y-14056579D02*
X6300877Y-14037531D01*
X6300877Y-14037531D02*
X6310401Y-14028008D01*
X6310401Y-14028008D02*
X6329448Y-14018484D01*
X6567544Y-14085150D02*
X6567544Y-14218484D01*
X6519925Y-14008960D02*
X6472306Y-14151817D01*
X6472306Y-14151817D02*
X6596115Y-14151817D01*
X6653258Y-14018484D02*
X6777067Y-14018484D01*
X6777067Y-14018484D02*
X6710401Y-14094674D01*
X6710401Y-14094674D02*
X6738972Y-14094674D01*
X6738972Y-14094674D02*
X6758020Y-14104198D01*
X6758020Y-14104198D02*
X6767544Y-14113722D01*
X6767544Y-14113722D02*
X6777067Y-14132769D01*
X6777067Y-14132769D02*
X6777067Y-14180388D01*
X6777067Y-14180388D02*
X6767544Y-14199436D01*
X6767544Y-14199436D02*
X6758020Y-14208960D01*
X6758020Y-14208960D02*
X6738972Y-14218484D01*
X6738972Y-14218484D02*
X6681829Y-14218484D01*
X6681829Y-14218484D02*
X6662782Y-14208960D01*
X6662782Y-14208960D02*
X6653258Y-14199436D01*
X6900877Y-14018484D02*
X6919925Y-14018484D01*
X6919925Y-14018484D02*
X6938972Y-14028008D01*
X6938972Y-14028008D02*
X6948496Y-14037531D01*
X6948496Y-14037531D02*
X6958020Y-14056579D01*
X6958020Y-14056579D02*
X6967544Y-14094674D01*
X6967544Y-14094674D02*
X6967544Y-14142293D01*
X6967544Y-14142293D02*
X6958020Y-14180388D01*
X6958020Y-14180388D02*
X6948496Y-14199436D01*
X6948496Y-14199436D02*
X6938972Y-14208960D01*
X6938972Y-14208960D02*
X6919925Y-14218484D01*
X6919925Y-14218484D02*
X6900877Y-14218484D01*
X6900877Y-14218484D02*
X6881829Y-14208960D01*
X6881829Y-14208960D02*
X6872306Y-14199436D01*
X6872306Y-14199436D02*
X6862782Y-14180388D01*
X6862782Y-14180388D02*
X6853258Y-14142293D01*
X6853258Y-14142293D02*
X6853258Y-14094674D01*
X6853258Y-14094674D02*
X6862782Y-14056579D01*
X6862782Y-14056579D02*
X6872306Y-14037531D01*
X6872306Y-14037531D02*
X6881829Y-14028008D01*
X6881829Y-14028008D02*
X6900877Y-14018484D01*
X7043734Y-14018484D02*
X7043734Y-14056579D01*
X7119925Y-14018484D02*
X7119925Y-14056579D01*
X7415163Y-14294674D02*
X7405639Y-14285150D01*
X7405639Y-14285150D02*
X7386591Y-14256579D01*
X7386591Y-14256579D02*
X7377068Y-14237531D01*
X7377068Y-14237531D02*
X7367544Y-14208960D01*
X7367544Y-14208960D02*
X7358020Y-14161341D01*
X7358020Y-14161341D02*
X7358020Y-14123246D01*
X7358020Y-14123246D02*
X7367544Y-14075627D01*
X7367544Y-14075627D02*
X7377068Y-14047055D01*
X7377068Y-14047055D02*
X7386591Y-14028008D01*
X7386591Y-14028008D02*
X7405639Y-13999436D01*
X7405639Y-13999436D02*
X7415163Y-13989912D01*
X7586591Y-14018484D02*
X7491353Y-14018484D01*
X7491353Y-14018484D02*
X7481829Y-14113722D01*
X7481829Y-14113722D02*
X7491353Y-14104198D01*
X7491353Y-14104198D02*
X7510401Y-14094674D01*
X7510401Y-14094674D02*
X7558020Y-14094674D01*
X7558020Y-14094674D02*
X7577068Y-14104198D01*
X7577068Y-14104198D02*
X7586591Y-14113722D01*
X7586591Y-14113722D02*
X7596115Y-14132769D01*
X7596115Y-14132769D02*
X7596115Y-14180388D01*
X7596115Y-14180388D02*
X7586591Y-14199436D01*
X7586591Y-14199436D02*
X7577068Y-14208960D01*
X7577068Y-14208960D02*
X7558020Y-14218484D01*
X7558020Y-14218484D02*
X7510401Y-14218484D01*
X7510401Y-14218484D02*
X7491353Y-14208960D01*
X7491353Y-14208960D02*
X7481829Y-14199436D01*
X7672306Y-14037531D02*
X7681829Y-14028008D01*
X7681829Y-14028008D02*
X7700877Y-14018484D01*
X7700877Y-14018484D02*
X7748496Y-14018484D01*
X7748496Y-14018484D02*
X7767544Y-14028008D01*
X7767544Y-14028008D02*
X7777068Y-14037531D01*
X7777068Y-14037531D02*
X7786591Y-14056579D01*
X7786591Y-14056579D02*
X7786591Y-14075627D01*
X7786591Y-14075627D02*
X7777068Y-14104198D01*
X7777068Y-14104198D02*
X7662782Y-14218484D01*
X7662782Y-14218484D02*
X7786591Y-14218484D01*
X8024687Y-14218484D02*
X8024687Y-14018484D01*
X8110401Y-14218484D02*
X8110401Y-14113722D01*
X8110401Y-14113722D02*
X8100877Y-14094674D01*
X8100877Y-14094674D02*
X8081830Y-14085150D01*
X8081830Y-14085150D02*
X8053258Y-14085150D01*
X8053258Y-14085150D02*
X8034210Y-14094674D01*
X8034210Y-14094674D02*
X8024687Y-14104198D01*
X8234210Y-14218484D02*
X8215163Y-14208960D01*
X8215163Y-14208960D02*
X8205639Y-14199436D01*
X8205639Y-14199436D02*
X8196115Y-14180388D01*
X8196115Y-14180388D02*
X8196115Y-14123246D01*
X8196115Y-14123246D02*
X8205639Y-14104198D01*
X8205639Y-14104198D02*
X8215163Y-14094674D01*
X8215163Y-14094674D02*
X8234210Y-14085150D01*
X8234210Y-14085150D02*
X8262782Y-14085150D01*
X8262782Y-14085150D02*
X8281830Y-14094674D01*
X8281830Y-14094674D02*
X8291353Y-14104198D01*
X8291353Y-14104198D02*
X8300877Y-14123246D01*
X8300877Y-14123246D02*
X8300877Y-14180388D01*
X8300877Y-14180388D02*
X8291353Y-14199436D01*
X8291353Y-14199436D02*
X8281830Y-14208960D01*
X8281830Y-14208960D02*
X8262782Y-14218484D01*
X8262782Y-14218484D02*
X8234210Y-14218484D01*
X8415163Y-14218484D02*
X8396115Y-14208960D01*
X8396115Y-14208960D02*
X8386591Y-14189912D01*
X8386591Y-14189912D02*
X8386591Y-14018484D01*
X8567544Y-14208960D02*
X8548496Y-14218484D01*
X8548496Y-14218484D02*
X8510401Y-14218484D01*
X8510401Y-14218484D02*
X8491353Y-14208960D01*
X8491353Y-14208960D02*
X8481830Y-14189912D01*
X8481830Y-14189912D02*
X8481830Y-14113722D01*
X8481830Y-14113722D02*
X8491353Y-14094674D01*
X8491353Y-14094674D02*
X8510401Y-14085150D01*
X8510401Y-14085150D02*
X8548496Y-14085150D01*
X8548496Y-14085150D02*
X8567544Y-14094674D01*
X8567544Y-14094674D02*
X8577068Y-14113722D01*
X8577068Y-14113722D02*
X8577068Y-14132769D01*
X8577068Y-14132769D02*
X8481830Y-14151817D01*
X8653258Y-14208960D02*
X8672306Y-14218484D01*
X8672306Y-14218484D02*
X8710401Y-14218484D01*
X8710401Y-14218484D02*
X8729449Y-14208960D01*
X8729449Y-14208960D02*
X8738973Y-14189912D01*
X8738973Y-14189912D02*
X8738973Y-14180388D01*
X8738973Y-14180388D02*
X8729449Y-14161341D01*
X8729449Y-14161341D02*
X8710401Y-14151817D01*
X8710401Y-14151817D02*
X8681830Y-14151817D01*
X8681830Y-14151817D02*
X8662782Y-14142293D01*
X8662782Y-14142293D02*
X8653258Y-14123246D01*
X8653258Y-14123246D02*
X8653258Y-14113722D01*
X8653258Y-14113722D02*
X8662782Y-14094674D01*
X8662782Y-14094674D02*
X8681830Y-14085150D01*
X8681830Y-14085150D02*
X8710401Y-14085150D01*
X8710401Y-14085150D02*
X8729449Y-14094674D01*
X8805639Y-14294674D02*
X8815163Y-14285150D01*
X8815163Y-14285150D02*
X8834211Y-14256579D01*
X8834211Y-14256579D02*
X8843734Y-14237531D01*
X8843734Y-14237531D02*
X8853258Y-14208960D01*
X8853258Y-14208960D02*
X8862782Y-14161341D01*
X8862782Y-14161341D02*
X8862782Y-14123246D01*
X8862782Y-14123246D02*
X8853258Y-14075627D01*
X8853258Y-14075627D02*
X8843734Y-14047055D01*
X8843734Y-14047055D02*
X8834211Y-14028008D01*
X8834211Y-14028008D02*
X8815163Y-13999436D01*
X8815163Y-13999436D02*
X8805639Y-13989912D01*
D17*
X3710100Y-14326000D02*
X3840100Y-14456000D01*
X3840100Y-14326000D02*
X3710100Y-14456000D01*
X3840100Y-14391000D02*
G75*
G03*
X3840100Y-14391000I-65000J0D01*
G01*
D12*
X4205639Y-14482484D02*
X4091353Y-14482484D01*
X4148496Y-14482484D02*
X4148496Y-14282484D01*
X4148496Y-14282484D02*
X4129448Y-14311055D01*
X4129448Y-14311055D02*
X4110401Y-14330103D01*
X4110401Y-14330103D02*
X4091353Y-14339627D01*
X4291353Y-14463436D02*
X4300877Y-14472960D01*
X4300877Y-14472960D02*
X4291353Y-14482484D01*
X4291353Y-14482484D02*
X4281829Y-14472960D01*
X4281829Y-14472960D02*
X4291353Y-14463436D01*
X4291353Y-14463436D02*
X4291353Y-14482484D01*
X4367544Y-14282484D02*
X4491353Y-14282484D01*
X4491353Y-14282484D02*
X4424686Y-14358674D01*
X4424686Y-14358674D02*
X4453258Y-14358674D01*
X4453258Y-14358674D02*
X4472305Y-14368198D01*
X4472305Y-14368198D02*
X4481829Y-14377722D01*
X4481829Y-14377722D02*
X4491353Y-14396769D01*
X4491353Y-14396769D02*
X4491353Y-14444388D01*
X4491353Y-14444388D02*
X4481829Y-14463436D01*
X4481829Y-14463436D02*
X4472305Y-14472960D01*
X4472305Y-14472960D02*
X4453258Y-14482484D01*
X4453258Y-14482484D02*
X4396115Y-14482484D01*
X4396115Y-14482484D02*
X4377067Y-14472960D01*
X4377067Y-14472960D02*
X4367544Y-14463436D01*
X4615163Y-14282484D02*
X4634210Y-14282484D01*
X4634210Y-14282484D02*
X4653258Y-14292008D01*
X4653258Y-14292008D02*
X4662782Y-14301531D01*
X4662782Y-14301531D02*
X4672305Y-14320579D01*
X4672305Y-14320579D02*
X4681829Y-14358674D01*
X4681829Y-14358674D02*
X4681829Y-14406293D01*
X4681829Y-14406293D02*
X4672305Y-14444388D01*
X4672305Y-14444388D02*
X4662782Y-14463436D01*
X4662782Y-14463436D02*
X4653258Y-14472960D01*
X4653258Y-14472960D02*
X4634210Y-14482484D01*
X4634210Y-14482484D02*
X4615163Y-14482484D01*
X4615163Y-14482484D02*
X4596115Y-14472960D01*
X4596115Y-14472960D02*
X4586591Y-14463436D01*
X4586591Y-14463436D02*
X4577067Y-14444388D01*
X4577067Y-14444388D02*
X4567544Y-14406293D01*
X4567544Y-14406293D02*
X4567544Y-14358674D01*
X4567544Y-14358674D02*
X4577067Y-14320579D01*
X4577067Y-14320579D02*
X4586591Y-14301531D01*
X4586591Y-14301531D02*
X4596115Y-14292008D01*
X4596115Y-14292008D02*
X4615163Y-14282484D01*
X4805639Y-14282484D02*
X4824686Y-14282484D01*
X4824686Y-14282484D02*
X4843734Y-14292008D01*
X4843734Y-14292008D02*
X4853258Y-14301531D01*
X4853258Y-14301531D02*
X4862782Y-14320579D01*
X4862782Y-14320579D02*
X4872305Y-14358674D01*
X4872305Y-14358674D02*
X4872305Y-14406293D01*
X4872305Y-14406293D02*
X4862782Y-14444388D01*
X4862782Y-14444388D02*
X4853258Y-14463436D01*
X4853258Y-14463436D02*
X4843734Y-14472960D01*
X4843734Y-14472960D02*
X4824686Y-14482484D01*
X4824686Y-14482484D02*
X4805639Y-14482484D01*
X4805639Y-14482484D02*
X4786591Y-14472960D01*
X4786591Y-14472960D02*
X4777067Y-14463436D01*
X4777067Y-14463436D02*
X4767544Y-14444388D01*
X4767544Y-14444388D02*
X4758020Y-14406293D01*
X4758020Y-14406293D02*
X4758020Y-14358674D01*
X4758020Y-14358674D02*
X4767544Y-14320579D01*
X4767544Y-14320579D02*
X4777067Y-14301531D01*
X4777067Y-14301531D02*
X4786591Y-14292008D01*
X4786591Y-14292008D02*
X4805639Y-14282484D01*
X4958020Y-14482484D02*
X4958020Y-14349150D01*
X4958020Y-14368198D02*
X4967544Y-14358674D01*
X4967544Y-14358674D02*
X4986591Y-14349150D01*
X4986591Y-14349150D02*
X5015163Y-14349150D01*
X5015163Y-14349150D02*
X5034210Y-14358674D01*
X5034210Y-14358674D02*
X5043734Y-14377722D01*
X5043734Y-14377722D02*
X5043734Y-14482484D01*
X5043734Y-14377722D02*
X5053258Y-14358674D01*
X5053258Y-14358674D02*
X5072305Y-14349150D01*
X5072305Y-14349150D02*
X5100877Y-14349150D01*
X5100877Y-14349150D02*
X5119925Y-14358674D01*
X5119925Y-14358674D02*
X5129448Y-14377722D01*
X5129448Y-14377722D02*
X5129448Y-14482484D01*
X5224686Y-14482484D02*
X5224686Y-14349150D01*
X5224686Y-14368198D02*
X5234210Y-14358674D01*
X5234210Y-14358674D02*
X5253258Y-14349150D01*
X5253258Y-14349150D02*
X5281829Y-14349150D01*
X5281829Y-14349150D02*
X5300877Y-14358674D01*
X5300877Y-14358674D02*
X5310401Y-14377722D01*
X5310401Y-14377722D02*
X5310401Y-14482484D01*
X5310401Y-14377722D02*
X5319925Y-14358674D01*
X5319925Y-14358674D02*
X5338972Y-14349150D01*
X5338972Y-14349150D02*
X5367544Y-14349150D01*
X5367544Y-14349150D02*
X5386591Y-14358674D01*
X5386591Y-14358674D02*
X5396115Y-14377722D01*
X5396115Y-14377722D02*
X5396115Y-14482484D01*
X5786591Y-14272960D02*
X5615163Y-14530103D01*
X6043734Y-14282484D02*
X6062782Y-14282484D01*
X6062782Y-14282484D02*
X6081829Y-14292008D01*
X6081829Y-14292008D02*
X6091353Y-14301531D01*
X6091353Y-14301531D02*
X6100877Y-14320579D01*
X6100877Y-14320579D02*
X6110401Y-14358674D01*
X6110401Y-14358674D02*
X6110401Y-14406293D01*
X6110401Y-14406293D02*
X6100877Y-14444388D01*
X6100877Y-14444388D02*
X6091353Y-14463436D01*
X6091353Y-14463436D02*
X6081829Y-14472960D01*
X6081829Y-14472960D02*
X6062782Y-14482484D01*
X6062782Y-14482484D02*
X6043734Y-14482484D01*
X6043734Y-14482484D02*
X6024686Y-14472960D01*
X6024686Y-14472960D02*
X6015163Y-14463436D01*
X6015163Y-14463436D02*
X6005639Y-14444388D01*
X6005639Y-14444388D02*
X5996115Y-14406293D01*
X5996115Y-14406293D02*
X5996115Y-14358674D01*
X5996115Y-14358674D02*
X6005639Y-14320579D01*
X6005639Y-14320579D02*
X6015163Y-14301531D01*
X6015163Y-14301531D02*
X6024686Y-14292008D01*
X6024686Y-14292008D02*
X6043734Y-14282484D01*
X6196115Y-14463436D02*
X6205639Y-14472960D01*
X6205639Y-14472960D02*
X6196115Y-14482484D01*
X6196115Y-14482484D02*
X6186591Y-14472960D01*
X6186591Y-14472960D02*
X6196115Y-14463436D01*
X6196115Y-14463436D02*
X6196115Y-14482484D01*
X6329448Y-14282484D02*
X6348496Y-14282484D01*
X6348496Y-14282484D02*
X6367544Y-14292008D01*
X6367544Y-14292008D02*
X6377067Y-14301531D01*
X6377067Y-14301531D02*
X6386591Y-14320579D01*
X6386591Y-14320579D02*
X6396115Y-14358674D01*
X6396115Y-14358674D02*
X6396115Y-14406293D01*
X6396115Y-14406293D02*
X6386591Y-14444388D01*
X6386591Y-14444388D02*
X6377067Y-14463436D01*
X6377067Y-14463436D02*
X6367544Y-14472960D01*
X6367544Y-14472960D02*
X6348496Y-14482484D01*
X6348496Y-14482484D02*
X6329448Y-14482484D01*
X6329448Y-14482484D02*
X6310401Y-14472960D01*
X6310401Y-14472960D02*
X6300877Y-14463436D01*
X6300877Y-14463436D02*
X6291353Y-14444388D01*
X6291353Y-14444388D02*
X6281829Y-14406293D01*
X6281829Y-14406293D02*
X6281829Y-14358674D01*
X6281829Y-14358674D02*
X6291353Y-14320579D01*
X6291353Y-14320579D02*
X6300877Y-14301531D01*
X6300877Y-14301531D02*
X6310401Y-14292008D01*
X6310401Y-14292008D02*
X6329448Y-14282484D01*
X6577067Y-14282484D02*
X6481829Y-14282484D01*
X6481829Y-14282484D02*
X6472306Y-14377722D01*
X6472306Y-14377722D02*
X6481829Y-14368198D01*
X6481829Y-14368198D02*
X6500877Y-14358674D01*
X6500877Y-14358674D02*
X6548496Y-14358674D01*
X6548496Y-14358674D02*
X6567544Y-14368198D01*
X6567544Y-14368198D02*
X6577067Y-14377722D01*
X6577067Y-14377722D02*
X6586591Y-14396769D01*
X6586591Y-14396769D02*
X6586591Y-14444388D01*
X6586591Y-14444388D02*
X6577067Y-14463436D01*
X6577067Y-14463436D02*
X6567544Y-14472960D01*
X6567544Y-14472960D02*
X6548496Y-14482484D01*
X6548496Y-14482484D02*
X6500877Y-14482484D01*
X6500877Y-14482484D02*
X6481829Y-14472960D01*
X6481829Y-14472960D02*
X6472306Y-14463436D01*
X6777067Y-14482484D02*
X6662782Y-14482484D01*
X6719925Y-14482484D02*
X6719925Y-14282484D01*
X6719925Y-14282484D02*
X6700877Y-14311055D01*
X6700877Y-14311055D02*
X6681829Y-14330103D01*
X6681829Y-14330103D02*
X6662782Y-14339627D01*
X6853258Y-14301531D02*
X6862782Y-14292008D01*
X6862782Y-14292008D02*
X6881829Y-14282484D01*
X6881829Y-14282484D02*
X6929448Y-14282484D01*
X6929448Y-14282484D02*
X6948496Y-14292008D01*
X6948496Y-14292008D02*
X6958020Y-14301531D01*
X6958020Y-14301531D02*
X6967544Y-14320579D01*
X6967544Y-14320579D02*
X6967544Y-14339627D01*
X6967544Y-14339627D02*
X6958020Y-14368198D01*
X6958020Y-14368198D02*
X6843734Y-14482484D01*
X6843734Y-14482484D02*
X6967544Y-14482484D01*
X7043734Y-14282484D02*
X7043734Y-14320579D01*
X7119925Y-14282484D02*
X7119925Y-14320579D01*
X7415163Y-14558674D02*
X7405639Y-14549150D01*
X7405639Y-14549150D02*
X7386591Y-14520579D01*
X7386591Y-14520579D02*
X7377068Y-14501531D01*
X7377068Y-14501531D02*
X7367544Y-14472960D01*
X7367544Y-14472960D02*
X7358020Y-14425341D01*
X7358020Y-14425341D02*
X7358020Y-14387246D01*
X7358020Y-14387246D02*
X7367544Y-14339627D01*
X7367544Y-14339627D02*
X7377068Y-14311055D01*
X7377068Y-14311055D02*
X7386591Y-14292008D01*
X7386591Y-14292008D02*
X7405639Y-14263436D01*
X7405639Y-14263436D02*
X7415163Y-14253912D01*
X7481829Y-14301531D02*
X7491353Y-14292008D01*
X7491353Y-14292008D02*
X7510401Y-14282484D01*
X7510401Y-14282484D02*
X7558020Y-14282484D01*
X7558020Y-14282484D02*
X7577068Y-14292008D01*
X7577068Y-14292008D02*
X7586591Y-14301531D01*
X7586591Y-14301531D02*
X7596115Y-14320579D01*
X7596115Y-14320579D02*
X7596115Y-14339627D01*
X7596115Y-14339627D02*
X7586591Y-14368198D01*
X7586591Y-14368198D02*
X7472306Y-14482484D01*
X7472306Y-14482484D02*
X7596115Y-14482484D01*
X7834210Y-14482484D02*
X7834210Y-14282484D01*
X7919925Y-14482484D02*
X7919925Y-14377722D01*
X7919925Y-14377722D02*
X7910401Y-14358674D01*
X7910401Y-14358674D02*
X7891353Y-14349150D01*
X7891353Y-14349150D02*
X7862782Y-14349150D01*
X7862782Y-14349150D02*
X7843734Y-14358674D01*
X7843734Y-14358674D02*
X7834210Y-14368198D01*
X8043734Y-14482484D02*
X8024687Y-14472960D01*
X8024687Y-14472960D02*
X8015163Y-14463436D01*
X8015163Y-14463436D02*
X8005639Y-14444388D01*
X8005639Y-14444388D02*
X8005639Y-14387246D01*
X8005639Y-14387246D02*
X8015163Y-14368198D01*
X8015163Y-14368198D02*
X8024687Y-14358674D01*
X8024687Y-14358674D02*
X8043734Y-14349150D01*
X8043734Y-14349150D02*
X8072306Y-14349150D01*
X8072306Y-14349150D02*
X8091353Y-14358674D01*
X8091353Y-14358674D02*
X8100877Y-14368198D01*
X8100877Y-14368198D02*
X8110401Y-14387246D01*
X8110401Y-14387246D02*
X8110401Y-14444388D01*
X8110401Y-14444388D02*
X8100877Y-14463436D01*
X8100877Y-14463436D02*
X8091353Y-14472960D01*
X8091353Y-14472960D02*
X8072306Y-14482484D01*
X8072306Y-14482484D02*
X8043734Y-14482484D01*
X8224687Y-14482484D02*
X8205639Y-14472960D01*
X8205639Y-14472960D02*
X8196115Y-14453912D01*
X8196115Y-14453912D02*
X8196115Y-14282484D01*
X8377068Y-14472960D02*
X8358020Y-14482484D01*
X8358020Y-14482484D02*
X8319925Y-14482484D01*
X8319925Y-14482484D02*
X8300877Y-14472960D01*
X8300877Y-14472960D02*
X8291353Y-14453912D01*
X8291353Y-14453912D02*
X8291353Y-14377722D01*
X8291353Y-14377722D02*
X8300877Y-14358674D01*
X8300877Y-14358674D02*
X8319925Y-14349150D01*
X8319925Y-14349150D02*
X8358020Y-14349150D01*
X8358020Y-14349150D02*
X8377068Y-14358674D01*
X8377068Y-14358674D02*
X8386591Y-14377722D01*
X8386591Y-14377722D02*
X8386591Y-14396769D01*
X8386591Y-14396769D02*
X8291353Y-14415817D01*
X8462782Y-14472960D02*
X8481830Y-14482484D01*
X8481830Y-14482484D02*
X8519925Y-14482484D01*
X8519925Y-14482484D02*
X8538973Y-14472960D01*
X8538973Y-14472960D02*
X8548496Y-14453912D01*
X8548496Y-14453912D02*
X8548496Y-14444388D01*
X8548496Y-14444388D02*
X8538973Y-14425341D01*
X8538973Y-14425341D02*
X8519925Y-14415817D01*
X8519925Y-14415817D02*
X8491353Y-14415817D01*
X8491353Y-14415817D02*
X8472306Y-14406293D01*
X8472306Y-14406293D02*
X8462782Y-14387246D01*
X8462782Y-14387246D02*
X8462782Y-14377722D01*
X8462782Y-14377722D02*
X8472306Y-14358674D01*
X8472306Y-14358674D02*
X8491353Y-14349150D01*
X8491353Y-14349150D02*
X8519925Y-14349150D01*
X8519925Y-14349150D02*
X8538973Y-14358674D01*
X8615163Y-14558674D02*
X8624687Y-14549150D01*
X8624687Y-14549150D02*
X8643734Y-14520579D01*
X8643734Y-14520579D02*
X8653258Y-14501531D01*
X8653258Y-14501531D02*
X8662782Y-14472960D01*
X8662782Y-14472960D02*
X8672306Y-14425341D01*
X8672306Y-14425341D02*
X8672306Y-14387246D01*
X8672306Y-14387246D02*
X8662782Y-14339627D01*
X8662782Y-14339627D02*
X8653258Y-14311055D01*
X8653258Y-14311055D02*
X8643734Y-14292008D01*
X8643734Y-14292008D02*
X8624687Y-14263436D01*
X8624687Y-14263436D02*
X8615163Y-14253912D01*
D18*
X3690100Y-14580000D02*
X3840100Y-14730000D01*
X3840100Y-14580000D02*
X3690100Y-14730000D01*
X3765100Y-14580000D02*
X3765100Y-14730000D01*
X3690100Y-14655000D02*
X3840100Y-14655000D01*
D12*
X4205639Y-14746484D02*
X4091353Y-14746484D01*
X4148496Y-14746484D02*
X4148496Y-14546484D01*
X4148496Y-14546484D02*
X4129448Y-14575055D01*
X4129448Y-14575055D02*
X4110401Y-14594103D01*
X4110401Y-14594103D02*
X4091353Y-14603627D01*
X4291353Y-14727436D02*
X4300877Y-14736960D01*
X4300877Y-14736960D02*
X4291353Y-14746484D01*
X4291353Y-14746484D02*
X4281829Y-14736960D01*
X4281829Y-14736960D02*
X4291353Y-14727436D01*
X4291353Y-14727436D02*
X4291353Y-14746484D01*
X4481829Y-14546484D02*
X4386591Y-14546484D01*
X4386591Y-14546484D02*
X4377067Y-14641722D01*
X4377067Y-14641722D02*
X4386591Y-14632198D01*
X4386591Y-14632198D02*
X4405639Y-14622674D01*
X4405639Y-14622674D02*
X4453258Y-14622674D01*
X4453258Y-14622674D02*
X4472305Y-14632198D01*
X4472305Y-14632198D02*
X4481829Y-14641722D01*
X4481829Y-14641722D02*
X4491353Y-14660769D01*
X4491353Y-14660769D02*
X4491353Y-14708388D01*
X4491353Y-14708388D02*
X4481829Y-14727436D01*
X4481829Y-14727436D02*
X4472305Y-14736960D01*
X4472305Y-14736960D02*
X4453258Y-14746484D01*
X4453258Y-14746484D02*
X4405639Y-14746484D01*
X4405639Y-14746484D02*
X4386591Y-14736960D01*
X4386591Y-14736960D02*
X4377067Y-14727436D01*
X4615163Y-14546484D02*
X4634210Y-14546484D01*
X4634210Y-14546484D02*
X4653258Y-14556008D01*
X4653258Y-14556008D02*
X4662782Y-14565531D01*
X4662782Y-14565531D02*
X4672305Y-14584579D01*
X4672305Y-14584579D02*
X4681829Y-14622674D01*
X4681829Y-14622674D02*
X4681829Y-14670293D01*
X4681829Y-14670293D02*
X4672305Y-14708388D01*
X4672305Y-14708388D02*
X4662782Y-14727436D01*
X4662782Y-14727436D02*
X4653258Y-14736960D01*
X4653258Y-14736960D02*
X4634210Y-14746484D01*
X4634210Y-14746484D02*
X4615163Y-14746484D01*
X4615163Y-14746484D02*
X4596115Y-14736960D01*
X4596115Y-14736960D02*
X4586591Y-14727436D01*
X4586591Y-14727436D02*
X4577067Y-14708388D01*
X4577067Y-14708388D02*
X4567544Y-14670293D01*
X4567544Y-14670293D02*
X4567544Y-14622674D01*
X4567544Y-14622674D02*
X4577067Y-14584579D01*
X4577067Y-14584579D02*
X4586591Y-14565531D01*
X4586591Y-14565531D02*
X4596115Y-14556008D01*
X4596115Y-14556008D02*
X4615163Y-14546484D01*
X4805639Y-14546484D02*
X4824686Y-14546484D01*
X4824686Y-14546484D02*
X4843734Y-14556008D01*
X4843734Y-14556008D02*
X4853258Y-14565531D01*
X4853258Y-14565531D02*
X4862782Y-14584579D01*
X4862782Y-14584579D02*
X4872305Y-14622674D01*
X4872305Y-14622674D02*
X4872305Y-14670293D01*
X4872305Y-14670293D02*
X4862782Y-14708388D01*
X4862782Y-14708388D02*
X4853258Y-14727436D01*
X4853258Y-14727436D02*
X4843734Y-14736960D01*
X4843734Y-14736960D02*
X4824686Y-14746484D01*
X4824686Y-14746484D02*
X4805639Y-14746484D01*
X4805639Y-14746484D02*
X4786591Y-14736960D01*
X4786591Y-14736960D02*
X4777067Y-14727436D01*
X4777067Y-14727436D02*
X4767544Y-14708388D01*
X4767544Y-14708388D02*
X4758020Y-14670293D01*
X4758020Y-14670293D02*
X4758020Y-14622674D01*
X4758020Y-14622674D02*
X4767544Y-14584579D01*
X4767544Y-14584579D02*
X4777067Y-14565531D01*
X4777067Y-14565531D02*
X4786591Y-14556008D01*
X4786591Y-14556008D02*
X4805639Y-14546484D01*
X4958020Y-14746484D02*
X4958020Y-14613150D01*
X4958020Y-14632198D02*
X4967544Y-14622674D01*
X4967544Y-14622674D02*
X4986591Y-14613150D01*
X4986591Y-14613150D02*
X5015163Y-14613150D01*
X5015163Y-14613150D02*
X5034210Y-14622674D01*
X5034210Y-14622674D02*
X5043734Y-14641722D01*
X5043734Y-14641722D02*
X5043734Y-14746484D01*
X5043734Y-14641722D02*
X5053258Y-14622674D01*
X5053258Y-14622674D02*
X5072305Y-14613150D01*
X5072305Y-14613150D02*
X5100877Y-14613150D01*
X5100877Y-14613150D02*
X5119925Y-14622674D01*
X5119925Y-14622674D02*
X5129448Y-14641722D01*
X5129448Y-14641722D02*
X5129448Y-14746484D01*
X5224686Y-14746484D02*
X5224686Y-14613150D01*
X5224686Y-14632198D02*
X5234210Y-14622674D01*
X5234210Y-14622674D02*
X5253258Y-14613150D01*
X5253258Y-14613150D02*
X5281829Y-14613150D01*
X5281829Y-14613150D02*
X5300877Y-14622674D01*
X5300877Y-14622674D02*
X5310401Y-14641722D01*
X5310401Y-14641722D02*
X5310401Y-14746484D01*
X5310401Y-14641722D02*
X5319925Y-14622674D01*
X5319925Y-14622674D02*
X5338972Y-14613150D01*
X5338972Y-14613150D02*
X5367544Y-14613150D01*
X5367544Y-14613150D02*
X5386591Y-14622674D01*
X5386591Y-14622674D02*
X5396115Y-14641722D01*
X5396115Y-14641722D02*
X5396115Y-14746484D01*
X5786591Y-14536960D02*
X5615163Y-14794103D01*
X6043734Y-14546484D02*
X6062782Y-14546484D01*
X6062782Y-14546484D02*
X6081829Y-14556008D01*
X6081829Y-14556008D02*
X6091353Y-14565531D01*
X6091353Y-14565531D02*
X6100877Y-14584579D01*
X6100877Y-14584579D02*
X6110401Y-14622674D01*
X6110401Y-14622674D02*
X6110401Y-14670293D01*
X6110401Y-14670293D02*
X6100877Y-14708388D01*
X6100877Y-14708388D02*
X6091353Y-14727436D01*
X6091353Y-14727436D02*
X6081829Y-14736960D01*
X6081829Y-14736960D02*
X6062782Y-14746484D01*
X6062782Y-14746484D02*
X6043734Y-14746484D01*
X6043734Y-14746484D02*
X6024686Y-14736960D01*
X6024686Y-14736960D02*
X6015163Y-14727436D01*
X6015163Y-14727436D02*
X6005639Y-14708388D01*
X6005639Y-14708388D02*
X5996115Y-14670293D01*
X5996115Y-14670293D02*
X5996115Y-14622674D01*
X5996115Y-14622674D02*
X6005639Y-14584579D01*
X6005639Y-14584579D02*
X6015163Y-14565531D01*
X6015163Y-14565531D02*
X6024686Y-14556008D01*
X6024686Y-14556008D02*
X6043734Y-14546484D01*
X6196115Y-14727436D02*
X6205639Y-14736960D01*
X6205639Y-14736960D02*
X6196115Y-14746484D01*
X6196115Y-14746484D02*
X6186591Y-14736960D01*
X6186591Y-14736960D02*
X6196115Y-14727436D01*
X6196115Y-14727436D02*
X6196115Y-14746484D01*
X6329448Y-14546484D02*
X6348496Y-14546484D01*
X6348496Y-14546484D02*
X6367544Y-14556008D01*
X6367544Y-14556008D02*
X6377067Y-14565531D01*
X6377067Y-14565531D02*
X6386591Y-14584579D01*
X6386591Y-14584579D02*
X6396115Y-14622674D01*
X6396115Y-14622674D02*
X6396115Y-14670293D01*
X6396115Y-14670293D02*
X6386591Y-14708388D01*
X6386591Y-14708388D02*
X6377067Y-14727436D01*
X6377067Y-14727436D02*
X6367544Y-14736960D01*
X6367544Y-14736960D02*
X6348496Y-14746484D01*
X6348496Y-14746484D02*
X6329448Y-14746484D01*
X6329448Y-14746484D02*
X6310401Y-14736960D01*
X6310401Y-14736960D02*
X6300877Y-14727436D01*
X6300877Y-14727436D02*
X6291353Y-14708388D01*
X6291353Y-14708388D02*
X6281829Y-14670293D01*
X6281829Y-14670293D02*
X6281829Y-14622674D01*
X6281829Y-14622674D02*
X6291353Y-14584579D01*
X6291353Y-14584579D02*
X6300877Y-14565531D01*
X6300877Y-14565531D02*
X6310401Y-14556008D01*
X6310401Y-14556008D02*
X6329448Y-14546484D01*
X6577067Y-14546484D02*
X6481829Y-14546484D01*
X6481829Y-14546484D02*
X6472306Y-14641722D01*
X6472306Y-14641722D02*
X6481829Y-14632198D01*
X6481829Y-14632198D02*
X6500877Y-14622674D01*
X6500877Y-14622674D02*
X6548496Y-14622674D01*
X6548496Y-14622674D02*
X6567544Y-14632198D01*
X6567544Y-14632198D02*
X6577067Y-14641722D01*
X6577067Y-14641722D02*
X6586591Y-14660769D01*
X6586591Y-14660769D02*
X6586591Y-14708388D01*
X6586591Y-14708388D02*
X6577067Y-14727436D01*
X6577067Y-14727436D02*
X6567544Y-14736960D01*
X6567544Y-14736960D02*
X6548496Y-14746484D01*
X6548496Y-14746484D02*
X6500877Y-14746484D01*
X6500877Y-14746484D02*
X6481829Y-14736960D01*
X6481829Y-14736960D02*
X6472306Y-14727436D01*
X6681829Y-14746484D02*
X6719925Y-14746484D01*
X6719925Y-14746484D02*
X6738972Y-14736960D01*
X6738972Y-14736960D02*
X6748496Y-14727436D01*
X6748496Y-14727436D02*
X6767544Y-14698865D01*
X6767544Y-14698865D02*
X6777067Y-14660769D01*
X6777067Y-14660769D02*
X6777067Y-14584579D01*
X6777067Y-14584579D02*
X6767544Y-14565531D01*
X6767544Y-14565531D02*
X6758020Y-14556008D01*
X6758020Y-14556008D02*
X6738972Y-14546484D01*
X6738972Y-14546484D02*
X6700877Y-14546484D01*
X6700877Y-14546484D02*
X6681829Y-14556008D01*
X6681829Y-14556008D02*
X6672306Y-14565531D01*
X6672306Y-14565531D02*
X6662782Y-14584579D01*
X6662782Y-14584579D02*
X6662782Y-14632198D01*
X6662782Y-14632198D02*
X6672306Y-14651246D01*
X6672306Y-14651246D02*
X6681829Y-14660769D01*
X6681829Y-14660769D02*
X6700877Y-14670293D01*
X6700877Y-14670293D02*
X6738972Y-14670293D01*
X6738972Y-14670293D02*
X6758020Y-14660769D01*
X6758020Y-14660769D02*
X6767544Y-14651246D01*
X6767544Y-14651246D02*
X6777067Y-14632198D01*
X6967544Y-14746484D02*
X6853258Y-14746484D01*
X6910401Y-14746484D02*
X6910401Y-14546484D01*
X6910401Y-14546484D02*
X6891353Y-14575055D01*
X6891353Y-14575055D02*
X6872306Y-14594103D01*
X6872306Y-14594103D02*
X6853258Y-14603627D01*
X7043734Y-14546484D02*
X7043734Y-14584579D01*
X7119925Y-14546484D02*
X7119925Y-14584579D01*
X7415163Y-14822674D02*
X7405639Y-14813150D01*
X7405639Y-14813150D02*
X7386591Y-14784579D01*
X7386591Y-14784579D02*
X7377068Y-14765531D01*
X7377068Y-14765531D02*
X7367544Y-14736960D01*
X7367544Y-14736960D02*
X7358020Y-14689341D01*
X7358020Y-14689341D02*
X7358020Y-14651246D01*
X7358020Y-14651246D02*
X7367544Y-14603627D01*
X7367544Y-14603627D02*
X7377068Y-14575055D01*
X7377068Y-14575055D02*
X7386591Y-14556008D01*
X7386591Y-14556008D02*
X7405639Y-14527436D01*
X7405639Y-14527436D02*
X7415163Y-14517912D01*
X7529448Y-14546484D02*
X7548496Y-14546484D01*
X7548496Y-14546484D02*
X7567544Y-14556008D01*
X7567544Y-14556008D02*
X7577068Y-14565531D01*
X7577068Y-14565531D02*
X7586591Y-14584579D01*
X7586591Y-14584579D02*
X7596115Y-14622674D01*
X7596115Y-14622674D02*
X7596115Y-14670293D01*
X7596115Y-14670293D02*
X7586591Y-14708388D01*
X7586591Y-14708388D02*
X7577068Y-14727436D01*
X7577068Y-14727436D02*
X7567544Y-14736960D01*
X7567544Y-14736960D02*
X7548496Y-14746484D01*
X7548496Y-14746484D02*
X7529448Y-14746484D01*
X7529448Y-14746484D02*
X7510401Y-14736960D01*
X7510401Y-14736960D02*
X7500877Y-14727436D01*
X7500877Y-14727436D02*
X7491353Y-14708388D01*
X7491353Y-14708388D02*
X7481829Y-14670293D01*
X7481829Y-14670293D02*
X7481829Y-14622674D01*
X7481829Y-14622674D02*
X7491353Y-14584579D01*
X7491353Y-14584579D02*
X7500877Y-14565531D01*
X7500877Y-14565531D02*
X7510401Y-14556008D01*
X7510401Y-14556008D02*
X7529448Y-14546484D01*
X7834210Y-14746484D02*
X7834210Y-14546484D01*
X7919925Y-14746484D02*
X7919925Y-14641722D01*
X7919925Y-14641722D02*
X7910401Y-14622674D01*
X7910401Y-14622674D02*
X7891353Y-14613150D01*
X7891353Y-14613150D02*
X7862782Y-14613150D01*
X7862782Y-14613150D02*
X7843734Y-14622674D01*
X7843734Y-14622674D02*
X7834210Y-14632198D01*
X8043734Y-14746484D02*
X8024687Y-14736960D01*
X8024687Y-14736960D02*
X8015163Y-14727436D01*
X8015163Y-14727436D02*
X8005639Y-14708388D01*
X8005639Y-14708388D02*
X8005639Y-14651246D01*
X8005639Y-14651246D02*
X8015163Y-14632198D01*
X8015163Y-14632198D02*
X8024687Y-14622674D01*
X8024687Y-14622674D02*
X8043734Y-14613150D01*
X8043734Y-14613150D02*
X8072306Y-14613150D01*
X8072306Y-14613150D02*
X8091353Y-14622674D01*
X8091353Y-14622674D02*
X8100877Y-14632198D01*
X8100877Y-14632198D02*
X8110401Y-14651246D01*
X8110401Y-14651246D02*
X8110401Y-14708388D01*
X8110401Y-14708388D02*
X8100877Y-14727436D01*
X8100877Y-14727436D02*
X8091353Y-14736960D01*
X8091353Y-14736960D02*
X8072306Y-14746484D01*
X8072306Y-14746484D02*
X8043734Y-14746484D01*
X8224687Y-14746484D02*
X8205639Y-14736960D01*
X8205639Y-14736960D02*
X8196115Y-14717912D01*
X8196115Y-14717912D02*
X8196115Y-14546484D01*
X8377068Y-14736960D02*
X8358020Y-14746484D01*
X8358020Y-14746484D02*
X8319925Y-14746484D01*
X8319925Y-14746484D02*
X8300877Y-14736960D01*
X8300877Y-14736960D02*
X8291353Y-14717912D01*
X8291353Y-14717912D02*
X8291353Y-14641722D01*
X8291353Y-14641722D02*
X8300877Y-14622674D01*
X8300877Y-14622674D02*
X8319925Y-14613150D01*
X8319925Y-14613150D02*
X8358020Y-14613150D01*
X8358020Y-14613150D02*
X8377068Y-14622674D01*
X8377068Y-14622674D02*
X8386591Y-14641722D01*
X8386591Y-14641722D02*
X8386591Y-14660769D01*
X8386591Y-14660769D02*
X8291353Y-14679817D01*
X8462782Y-14736960D02*
X8481830Y-14746484D01*
X8481830Y-14746484D02*
X8519925Y-14746484D01*
X8519925Y-14746484D02*
X8538973Y-14736960D01*
X8538973Y-14736960D02*
X8548496Y-14717912D01*
X8548496Y-14717912D02*
X8548496Y-14708388D01*
X8548496Y-14708388D02*
X8538973Y-14689341D01*
X8538973Y-14689341D02*
X8519925Y-14679817D01*
X8519925Y-14679817D02*
X8491353Y-14679817D01*
X8491353Y-14679817D02*
X8472306Y-14670293D01*
X8472306Y-14670293D02*
X8462782Y-14651246D01*
X8462782Y-14651246D02*
X8462782Y-14641722D01*
X8462782Y-14641722D02*
X8472306Y-14622674D01*
X8472306Y-14622674D02*
X8491353Y-14613150D01*
X8491353Y-14613150D02*
X8519925Y-14613150D01*
X8519925Y-14613150D02*
X8538973Y-14622674D01*
X8786592Y-14670293D02*
X8938973Y-14670293D01*
X8862782Y-14746484D02*
X8862782Y-14594103D01*
X9177068Y-14565531D02*
X9186592Y-14556008D01*
X9186592Y-14556008D02*
X9205639Y-14546484D01*
X9205639Y-14546484D02*
X9253258Y-14546484D01*
X9253258Y-14546484D02*
X9272306Y-14556008D01*
X9272306Y-14556008D02*
X9281830Y-14565531D01*
X9281830Y-14565531D02*
X9291354Y-14584579D01*
X9291354Y-14584579D02*
X9291354Y-14603627D01*
X9291354Y-14603627D02*
X9281830Y-14632198D01*
X9281830Y-14632198D02*
X9167544Y-14746484D01*
X9167544Y-14746484D02*
X9291354Y-14746484D01*
X9519925Y-14736960D02*
X9538973Y-14746484D01*
X9538973Y-14746484D02*
X9577068Y-14746484D01*
X9577068Y-14746484D02*
X9596116Y-14736960D01*
X9596116Y-14736960D02*
X9605639Y-14717912D01*
X9605639Y-14717912D02*
X9605639Y-14708388D01*
X9605639Y-14708388D02*
X9596116Y-14689341D01*
X9596116Y-14689341D02*
X9577068Y-14679817D01*
X9577068Y-14679817D02*
X9548496Y-14679817D01*
X9548496Y-14679817D02*
X9529449Y-14670293D01*
X9529449Y-14670293D02*
X9519925Y-14651246D01*
X9519925Y-14651246D02*
X9519925Y-14641722D01*
X9519925Y-14641722D02*
X9529449Y-14622674D01*
X9529449Y-14622674D02*
X9548496Y-14613150D01*
X9548496Y-14613150D02*
X9577068Y-14613150D01*
X9577068Y-14613150D02*
X9596116Y-14622674D01*
X9719925Y-14746484D02*
X9700877Y-14736960D01*
X9700877Y-14736960D02*
X9691354Y-14717912D01*
X9691354Y-14717912D02*
X9691354Y-14546484D01*
X9824687Y-14746484D02*
X9805639Y-14736960D01*
X9805639Y-14736960D02*
X9796116Y-14727436D01*
X9796116Y-14727436D02*
X9786592Y-14708388D01*
X9786592Y-14708388D02*
X9786592Y-14651246D01*
X9786592Y-14651246D02*
X9796116Y-14632198D01*
X9796116Y-14632198D02*
X9805639Y-14622674D01*
X9805639Y-14622674D02*
X9824687Y-14613150D01*
X9824687Y-14613150D02*
X9853258Y-14613150D01*
X9853258Y-14613150D02*
X9872306Y-14622674D01*
X9872306Y-14622674D02*
X9881830Y-14632198D01*
X9881830Y-14632198D02*
X9891354Y-14651246D01*
X9891354Y-14651246D02*
X9891354Y-14708388D01*
X9891354Y-14708388D02*
X9881830Y-14727436D01*
X9881830Y-14727436D02*
X9872306Y-14736960D01*
X9872306Y-14736960D02*
X9853258Y-14746484D01*
X9853258Y-14746484D02*
X9824687Y-14746484D01*
X9948497Y-14613150D02*
X10024687Y-14613150D01*
X9977068Y-14546484D02*
X9977068Y-14717912D01*
X9977068Y-14717912D02*
X9986592Y-14736960D01*
X9986592Y-14736960D02*
X10005639Y-14746484D01*
X10005639Y-14746484D02*
X10024687Y-14746484D01*
X10081830Y-14736960D02*
X10100877Y-14746484D01*
X10100877Y-14746484D02*
X10138973Y-14746484D01*
X10138973Y-14746484D02*
X10158020Y-14736960D01*
X10158020Y-14736960D02*
X10167544Y-14717912D01*
X10167544Y-14717912D02*
X10167544Y-14708388D01*
X10167544Y-14708388D02*
X10158020Y-14689341D01*
X10158020Y-14689341D02*
X10138973Y-14679817D01*
X10138973Y-14679817D02*
X10110401Y-14679817D01*
X10110401Y-14679817D02*
X10091354Y-14670293D01*
X10091354Y-14670293D02*
X10081830Y-14651246D01*
X10081830Y-14651246D02*
X10081830Y-14641722D01*
X10081830Y-14641722D02*
X10091354Y-14622674D01*
X10091354Y-14622674D02*
X10110401Y-14613150D01*
X10110401Y-14613150D02*
X10138973Y-14613150D01*
X10138973Y-14613150D02*
X10158020Y-14622674D01*
X10234211Y-14822674D02*
X10243735Y-14813150D01*
X10243735Y-14813150D02*
X10262782Y-14784579D01*
X10262782Y-14784579D02*
X10272306Y-14765531D01*
X10272306Y-14765531D02*
X10281830Y-14736960D01*
X10281830Y-14736960D02*
X10291354Y-14689341D01*
X10291354Y-14689341D02*
X10291354Y-14651246D01*
X10291354Y-14651246D02*
X10281830Y-14603627D01*
X10281830Y-14603627D02*
X10272306Y-14575055D01*
X10272306Y-14575055D02*
X10262782Y-14556008D01*
X10262782Y-14556008D02*
X10243735Y-14527436D01*
X10243735Y-14527436D02*
X10234211Y-14517912D01*
X3640100Y-14825000D02*
X3840100Y-15025000D01*
X3840100Y-14825000D02*
X3640100Y-15025000D01*
X3810811Y-14995711D02*
X3810811Y-14854289D01*
X3669389Y-14854289D01*
X3669389Y-14995711D01*
X3810811Y-14995711D01*
X4081829Y-14816484D02*
X4205639Y-14816484D01*
X4205639Y-14816484D02*
X4138972Y-14892674D01*
X4138972Y-14892674D02*
X4167543Y-14892674D01*
X4167543Y-14892674D02*
X4186591Y-14902198D01*
X4186591Y-14902198D02*
X4196115Y-14911722D01*
X4196115Y-14911722D02*
X4205639Y-14930769D01*
X4205639Y-14930769D02*
X4205639Y-14978388D01*
X4205639Y-14978388D02*
X4196115Y-14997436D01*
X4196115Y-14997436D02*
X4186591Y-15006960D01*
X4186591Y-15006960D02*
X4167543Y-15016484D01*
X4167543Y-15016484D02*
X4110401Y-15016484D01*
X4110401Y-15016484D02*
X4091353Y-15006960D01*
X4091353Y-15006960D02*
X4081829Y-14997436D01*
X4291353Y-14997436D02*
X4300877Y-15006960D01*
X4300877Y-15006960D02*
X4291353Y-15016484D01*
X4291353Y-15016484D02*
X4281829Y-15006960D01*
X4281829Y-15006960D02*
X4291353Y-14997436D01*
X4291353Y-14997436D02*
X4291353Y-15016484D01*
X4424686Y-14816484D02*
X4443734Y-14816484D01*
X4443734Y-14816484D02*
X4462782Y-14826008D01*
X4462782Y-14826008D02*
X4472305Y-14835531D01*
X4472305Y-14835531D02*
X4481829Y-14854579D01*
X4481829Y-14854579D02*
X4491353Y-14892674D01*
X4491353Y-14892674D02*
X4491353Y-14940293D01*
X4491353Y-14940293D02*
X4481829Y-14978388D01*
X4481829Y-14978388D02*
X4472305Y-14997436D01*
X4472305Y-14997436D02*
X4462782Y-15006960D01*
X4462782Y-15006960D02*
X4443734Y-15016484D01*
X4443734Y-15016484D02*
X4424686Y-15016484D01*
X4424686Y-15016484D02*
X4405639Y-15006960D01*
X4405639Y-15006960D02*
X4396115Y-14997436D01*
X4396115Y-14997436D02*
X4386591Y-14978388D01*
X4386591Y-14978388D02*
X4377067Y-14940293D01*
X4377067Y-14940293D02*
X4377067Y-14892674D01*
X4377067Y-14892674D02*
X4386591Y-14854579D01*
X4386591Y-14854579D02*
X4396115Y-14835531D01*
X4396115Y-14835531D02*
X4405639Y-14826008D01*
X4405639Y-14826008D02*
X4424686Y-14816484D01*
X4672305Y-14816484D02*
X4577067Y-14816484D01*
X4577067Y-14816484D02*
X4567544Y-14911722D01*
X4567544Y-14911722D02*
X4577067Y-14902198D01*
X4577067Y-14902198D02*
X4596115Y-14892674D01*
X4596115Y-14892674D02*
X4643734Y-14892674D01*
X4643734Y-14892674D02*
X4662782Y-14902198D01*
X4662782Y-14902198D02*
X4672305Y-14911722D01*
X4672305Y-14911722D02*
X4681829Y-14930769D01*
X4681829Y-14930769D02*
X4681829Y-14978388D01*
X4681829Y-14978388D02*
X4672305Y-14997436D01*
X4672305Y-14997436D02*
X4662782Y-15006960D01*
X4662782Y-15006960D02*
X4643734Y-15016484D01*
X4643734Y-15016484D02*
X4596115Y-15016484D01*
X4596115Y-15016484D02*
X4577067Y-15006960D01*
X4577067Y-15006960D02*
X4567544Y-14997436D01*
X4805639Y-14816484D02*
X4824686Y-14816484D01*
X4824686Y-14816484D02*
X4843734Y-14826008D01*
X4843734Y-14826008D02*
X4853258Y-14835531D01*
X4853258Y-14835531D02*
X4862782Y-14854579D01*
X4862782Y-14854579D02*
X4872305Y-14892674D01*
X4872305Y-14892674D02*
X4872305Y-14940293D01*
X4872305Y-14940293D02*
X4862782Y-14978388D01*
X4862782Y-14978388D02*
X4853258Y-14997436D01*
X4853258Y-14997436D02*
X4843734Y-15006960D01*
X4843734Y-15006960D02*
X4824686Y-15016484D01*
X4824686Y-15016484D02*
X4805639Y-15016484D01*
X4805639Y-15016484D02*
X4786591Y-15006960D01*
X4786591Y-15006960D02*
X4777067Y-14997436D01*
X4777067Y-14997436D02*
X4767544Y-14978388D01*
X4767544Y-14978388D02*
X4758020Y-14940293D01*
X4758020Y-14940293D02*
X4758020Y-14892674D01*
X4758020Y-14892674D02*
X4767544Y-14854579D01*
X4767544Y-14854579D02*
X4777067Y-14835531D01*
X4777067Y-14835531D02*
X4786591Y-14826008D01*
X4786591Y-14826008D02*
X4805639Y-14816484D01*
X4958020Y-15016484D02*
X4958020Y-14883150D01*
X4958020Y-14902198D02*
X4967544Y-14892674D01*
X4967544Y-14892674D02*
X4986591Y-14883150D01*
X4986591Y-14883150D02*
X5015163Y-14883150D01*
X5015163Y-14883150D02*
X5034210Y-14892674D01*
X5034210Y-14892674D02*
X5043734Y-14911722D01*
X5043734Y-14911722D02*
X5043734Y-15016484D01*
X5043734Y-14911722D02*
X5053258Y-14892674D01*
X5053258Y-14892674D02*
X5072305Y-14883150D01*
X5072305Y-14883150D02*
X5100877Y-14883150D01*
X5100877Y-14883150D02*
X5119925Y-14892674D01*
X5119925Y-14892674D02*
X5129448Y-14911722D01*
X5129448Y-14911722D02*
X5129448Y-15016484D01*
X5224686Y-15016484D02*
X5224686Y-14883150D01*
X5224686Y-14902198D02*
X5234210Y-14892674D01*
X5234210Y-14892674D02*
X5253258Y-14883150D01*
X5253258Y-14883150D02*
X5281829Y-14883150D01*
X5281829Y-14883150D02*
X5300877Y-14892674D01*
X5300877Y-14892674D02*
X5310401Y-14911722D01*
X5310401Y-14911722D02*
X5310401Y-15016484D01*
X5310401Y-14911722D02*
X5319925Y-14892674D01*
X5319925Y-14892674D02*
X5338972Y-14883150D01*
X5338972Y-14883150D02*
X5367544Y-14883150D01*
X5367544Y-14883150D02*
X5386591Y-14892674D01*
X5386591Y-14892674D02*
X5396115Y-14911722D01*
X5396115Y-14911722D02*
X5396115Y-15016484D01*
X5786591Y-14806960D02*
X5615163Y-15064103D01*
X6043734Y-14816484D02*
X6062782Y-14816484D01*
X6062782Y-14816484D02*
X6081829Y-14826008D01*
X6081829Y-14826008D02*
X6091353Y-14835531D01*
X6091353Y-14835531D02*
X6100877Y-14854579D01*
X6100877Y-14854579D02*
X6110401Y-14892674D01*
X6110401Y-14892674D02*
X6110401Y-14940293D01*
X6110401Y-14940293D02*
X6100877Y-14978388D01*
X6100877Y-14978388D02*
X6091353Y-14997436D01*
X6091353Y-14997436D02*
X6081829Y-15006960D01*
X6081829Y-15006960D02*
X6062782Y-15016484D01*
X6062782Y-15016484D02*
X6043734Y-15016484D01*
X6043734Y-15016484D02*
X6024686Y-15006960D01*
X6024686Y-15006960D02*
X6015163Y-14997436D01*
X6015163Y-14997436D02*
X6005639Y-14978388D01*
X6005639Y-14978388D02*
X5996115Y-14940293D01*
X5996115Y-14940293D02*
X5996115Y-14892674D01*
X5996115Y-14892674D02*
X6005639Y-14854579D01*
X6005639Y-14854579D02*
X6015163Y-14835531D01*
X6015163Y-14835531D02*
X6024686Y-14826008D01*
X6024686Y-14826008D02*
X6043734Y-14816484D01*
X6196115Y-14997436D02*
X6205639Y-15006960D01*
X6205639Y-15006960D02*
X6196115Y-15016484D01*
X6196115Y-15016484D02*
X6186591Y-15006960D01*
X6186591Y-15006960D02*
X6196115Y-14997436D01*
X6196115Y-14997436D02*
X6196115Y-15016484D01*
X6396115Y-15016484D02*
X6281829Y-15016484D01*
X6338972Y-15016484D02*
X6338972Y-14816484D01*
X6338972Y-14816484D02*
X6319925Y-14845055D01*
X6319925Y-14845055D02*
X6300877Y-14864103D01*
X6300877Y-14864103D02*
X6281829Y-14873627D01*
X6472306Y-14835531D02*
X6481829Y-14826008D01*
X6481829Y-14826008D02*
X6500877Y-14816484D01*
X6500877Y-14816484D02*
X6548496Y-14816484D01*
X6548496Y-14816484D02*
X6567544Y-14826008D01*
X6567544Y-14826008D02*
X6577067Y-14835531D01*
X6577067Y-14835531D02*
X6586591Y-14854579D01*
X6586591Y-14854579D02*
X6586591Y-14873627D01*
X6586591Y-14873627D02*
X6577067Y-14902198D01*
X6577067Y-14902198D02*
X6462782Y-15016484D01*
X6462782Y-15016484D02*
X6586591Y-15016484D01*
X6710401Y-14816484D02*
X6729448Y-14816484D01*
X6729448Y-14816484D02*
X6748496Y-14826008D01*
X6748496Y-14826008D02*
X6758020Y-14835531D01*
X6758020Y-14835531D02*
X6767544Y-14854579D01*
X6767544Y-14854579D02*
X6777067Y-14892674D01*
X6777067Y-14892674D02*
X6777067Y-14940293D01*
X6777067Y-14940293D02*
X6767544Y-14978388D01*
X6767544Y-14978388D02*
X6758020Y-14997436D01*
X6758020Y-14997436D02*
X6748496Y-15006960D01*
X6748496Y-15006960D02*
X6729448Y-15016484D01*
X6729448Y-15016484D02*
X6710401Y-15016484D01*
X6710401Y-15016484D02*
X6691353Y-15006960D01*
X6691353Y-15006960D02*
X6681829Y-14997436D01*
X6681829Y-14997436D02*
X6672306Y-14978388D01*
X6672306Y-14978388D02*
X6662782Y-14940293D01*
X6662782Y-14940293D02*
X6662782Y-14892674D01*
X6662782Y-14892674D02*
X6672306Y-14854579D01*
X6672306Y-14854579D02*
X6681829Y-14835531D01*
X6681829Y-14835531D02*
X6691353Y-14826008D01*
X6691353Y-14826008D02*
X6710401Y-14816484D01*
X6967544Y-15016484D02*
X6853258Y-15016484D01*
X6910401Y-15016484D02*
X6910401Y-14816484D01*
X6910401Y-14816484D02*
X6891353Y-14845055D01*
X6891353Y-14845055D02*
X6872306Y-14864103D01*
X6872306Y-14864103D02*
X6853258Y-14873627D01*
X7043734Y-14816484D02*
X7043734Y-14854579D01*
X7119925Y-14816484D02*
X7119925Y-14854579D01*
X7415163Y-15092674D02*
X7405639Y-15083150D01*
X7405639Y-15083150D02*
X7386591Y-15054579D01*
X7386591Y-15054579D02*
X7377068Y-15035531D01*
X7377068Y-15035531D02*
X7367544Y-15006960D01*
X7367544Y-15006960D02*
X7358020Y-14959341D01*
X7358020Y-14959341D02*
X7358020Y-14921246D01*
X7358020Y-14921246D02*
X7367544Y-14873627D01*
X7367544Y-14873627D02*
X7377068Y-14845055D01*
X7377068Y-14845055D02*
X7386591Y-14826008D01*
X7386591Y-14826008D02*
X7405639Y-14797436D01*
X7405639Y-14797436D02*
X7415163Y-14787912D01*
X7596115Y-15016484D02*
X7481829Y-15016484D01*
X7538972Y-15016484D02*
X7538972Y-14816484D01*
X7538972Y-14816484D02*
X7519925Y-14845055D01*
X7519925Y-14845055D02*
X7500877Y-14864103D01*
X7500877Y-14864103D02*
X7481829Y-14873627D01*
X7710401Y-14902198D02*
X7691353Y-14892674D01*
X7691353Y-14892674D02*
X7681829Y-14883150D01*
X7681829Y-14883150D02*
X7672306Y-14864103D01*
X7672306Y-14864103D02*
X7672306Y-14854579D01*
X7672306Y-14854579D02*
X7681829Y-14835531D01*
X7681829Y-14835531D02*
X7691353Y-14826008D01*
X7691353Y-14826008D02*
X7710401Y-14816484D01*
X7710401Y-14816484D02*
X7748496Y-14816484D01*
X7748496Y-14816484D02*
X7767544Y-14826008D01*
X7767544Y-14826008D02*
X7777068Y-14835531D01*
X7777068Y-14835531D02*
X7786591Y-14854579D01*
X7786591Y-14854579D02*
X7786591Y-14864103D01*
X7786591Y-14864103D02*
X7777068Y-14883150D01*
X7777068Y-14883150D02*
X7767544Y-14892674D01*
X7767544Y-14892674D02*
X7748496Y-14902198D01*
X7748496Y-14902198D02*
X7710401Y-14902198D01*
X7710401Y-14902198D02*
X7691353Y-14911722D01*
X7691353Y-14911722D02*
X7681829Y-14921246D01*
X7681829Y-14921246D02*
X7672306Y-14940293D01*
X7672306Y-14940293D02*
X7672306Y-14978388D01*
X7672306Y-14978388D02*
X7681829Y-14997436D01*
X7681829Y-14997436D02*
X7691353Y-15006960D01*
X7691353Y-15006960D02*
X7710401Y-15016484D01*
X7710401Y-15016484D02*
X7748496Y-15016484D01*
X7748496Y-15016484D02*
X7767544Y-15006960D01*
X7767544Y-15006960D02*
X7777068Y-14997436D01*
X7777068Y-14997436D02*
X7786591Y-14978388D01*
X7786591Y-14978388D02*
X7786591Y-14940293D01*
X7786591Y-14940293D02*
X7777068Y-14921246D01*
X7777068Y-14921246D02*
X7767544Y-14911722D01*
X7767544Y-14911722D02*
X7748496Y-14902198D01*
X7910401Y-14816484D02*
X7929449Y-14816484D01*
X7929449Y-14816484D02*
X7948496Y-14826008D01*
X7948496Y-14826008D02*
X7958020Y-14835531D01*
X7958020Y-14835531D02*
X7967544Y-14854579D01*
X7967544Y-14854579D02*
X7977068Y-14892674D01*
X7977068Y-14892674D02*
X7977068Y-14940293D01*
X7977068Y-14940293D02*
X7967544Y-14978388D01*
X7967544Y-14978388D02*
X7958020Y-14997436D01*
X7958020Y-14997436D02*
X7948496Y-15006960D01*
X7948496Y-15006960D02*
X7929449Y-15016484D01*
X7929449Y-15016484D02*
X7910401Y-15016484D01*
X7910401Y-15016484D02*
X7891353Y-15006960D01*
X7891353Y-15006960D02*
X7881829Y-14997436D01*
X7881829Y-14997436D02*
X7872306Y-14978388D01*
X7872306Y-14978388D02*
X7862782Y-14940293D01*
X7862782Y-14940293D02*
X7862782Y-14892674D01*
X7862782Y-14892674D02*
X7872306Y-14854579D01*
X7872306Y-14854579D02*
X7881829Y-14835531D01*
X7881829Y-14835531D02*
X7891353Y-14826008D01*
X7891353Y-14826008D02*
X7910401Y-14816484D01*
X8215163Y-15016484D02*
X8215163Y-14816484D01*
X8300877Y-15016484D02*
X8300877Y-14911722D01*
X8300877Y-14911722D02*
X8291353Y-14892674D01*
X8291353Y-14892674D02*
X8272306Y-14883150D01*
X8272306Y-14883150D02*
X8243734Y-14883150D01*
X8243734Y-14883150D02*
X8224687Y-14892674D01*
X8224687Y-14892674D02*
X8215163Y-14902198D01*
X8424687Y-15016484D02*
X8405639Y-15006960D01*
X8405639Y-15006960D02*
X8396115Y-14997436D01*
X8396115Y-14997436D02*
X8386591Y-14978388D01*
X8386591Y-14978388D02*
X8386591Y-14921246D01*
X8386591Y-14921246D02*
X8396115Y-14902198D01*
X8396115Y-14902198D02*
X8405639Y-14892674D01*
X8405639Y-14892674D02*
X8424687Y-14883150D01*
X8424687Y-14883150D02*
X8453258Y-14883150D01*
X8453258Y-14883150D02*
X8472306Y-14892674D01*
X8472306Y-14892674D02*
X8481830Y-14902198D01*
X8481830Y-14902198D02*
X8491353Y-14921246D01*
X8491353Y-14921246D02*
X8491353Y-14978388D01*
X8491353Y-14978388D02*
X8481830Y-14997436D01*
X8481830Y-14997436D02*
X8472306Y-15006960D01*
X8472306Y-15006960D02*
X8453258Y-15016484D01*
X8453258Y-15016484D02*
X8424687Y-15016484D01*
X8605639Y-15016484D02*
X8586592Y-15006960D01*
X8586592Y-15006960D02*
X8577068Y-14987912D01*
X8577068Y-14987912D02*
X8577068Y-14816484D01*
X8758020Y-15006960D02*
X8738973Y-15016484D01*
X8738973Y-15016484D02*
X8700877Y-15016484D01*
X8700877Y-15016484D02*
X8681830Y-15006960D01*
X8681830Y-15006960D02*
X8672306Y-14987912D01*
X8672306Y-14987912D02*
X8672306Y-14911722D01*
X8672306Y-14911722D02*
X8681830Y-14892674D01*
X8681830Y-14892674D02*
X8700877Y-14883150D01*
X8700877Y-14883150D02*
X8738973Y-14883150D01*
X8738973Y-14883150D02*
X8758020Y-14892674D01*
X8758020Y-14892674D02*
X8767544Y-14911722D01*
X8767544Y-14911722D02*
X8767544Y-14930769D01*
X8767544Y-14930769D02*
X8672306Y-14949817D01*
X8843734Y-15006960D02*
X8862782Y-15016484D01*
X8862782Y-15016484D02*
X8900877Y-15016484D01*
X8900877Y-15016484D02*
X8919925Y-15006960D01*
X8919925Y-15006960D02*
X8929449Y-14987912D01*
X8929449Y-14987912D02*
X8929449Y-14978388D01*
X8929449Y-14978388D02*
X8919925Y-14959341D01*
X8919925Y-14959341D02*
X8900877Y-14949817D01*
X8900877Y-14949817D02*
X8872306Y-14949817D01*
X8872306Y-14949817D02*
X8853258Y-14940293D01*
X8853258Y-14940293D02*
X8843734Y-14921246D01*
X8843734Y-14921246D02*
X8843734Y-14911722D01*
X8843734Y-14911722D02*
X8853258Y-14892674D01*
X8853258Y-14892674D02*
X8872306Y-14883150D01*
X8872306Y-14883150D02*
X8900877Y-14883150D01*
X8900877Y-14883150D02*
X8919925Y-14892674D01*
X8996115Y-15092674D02*
X9005639Y-15083150D01*
X9005639Y-15083150D02*
X9024687Y-15054579D01*
X9024687Y-15054579D02*
X9034211Y-15035531D01*
X9034211Y-15035531D02*
X9043734Y-15006960D01*
X9043734Y-15006960D02*
X9053258Y-14959341D01*
X9053258Y-14959341D02*
X9053258Y-14921246D01*
X9053258Y-14921246D02*
X9043734Y-14873627D01*
X9043734Y-14873627D02*
X9034211Y-14845055D01*
X9034211Y-14845055D02*
X9024687Y-14826008D01*
X9024687Y-14826008D02*
X9005639Y-14797436D01*
X9005639Y-14797436D02*
X8996115Y-14787912D01*
M02*
