%TF.GenerationSoftware,KiCad,Pcbnew,7.0.5*%
%TF.CreationDate,2024-09-25T00:12:03+08:00*%
%TF.ProjectId,TPS,5450532e-6b69-4636-9164-5f7063625858,rev?*%
%TF.SameCoordinates,Original*%
%TF.FileFunction,Soldermask,Bot*%
%TF.FilePolarity,Negative*%
%FSLAX46Y46*%
G04 Gerber Fmt 4.6, Leading zero omitted, Abs format (unit mm)*
G04 Created by KiCad (PCBNEW 7.0.5) date 2024-09-25 00:12:03*
%MOMM*%
%LPD*%
G01*
G04 APERTURE LIST*
G04 Aperture macros list*
%AMRoundRect*
0 Rectangle with rounded corners*
0 $1 Rounding radius*
0 $2 $3 $4 $5 $6 $7 $8 $9 X,Y pos of 4 corners*
0 Add a 4 corners polygon primitive as box body*
4,1,4,$2,$3,$4,$5,$6,$7,$8,$9,$2,$3,0*
0 Add four circle primitives for the rounded corners*
1,1,$1+$1,$2,$3*
1,1,$1+$1,$4,$5*
1,1,$1+$1,$6,$7*
1,1,$1+$1,$8,$9*
0 Add four rect primitives between the rounded corners*
20,1,$1+$1,$2,$3,$4,$5,0*
20,1,$1+$1,$4,$5,$6,$7,0*
20,1,$1+$1,$6,$7,$8,$9,0*
20,1,$1+$1,$8,$9,$2,$3,0*%
%AMHorizOval*
0 Thick line with rounded ends*
0 $1 width*
0 $2 $3 position (X,Y) of the first rounded end (center of the circle)*
0 $4 $5 position (X,Y) of the second rounded end (center of the circle)*
0 Add line between two ends*
20,1,$1,$2,$3,$4,$5,0*
0 Add two circle primitives to create the rounded ends*
1,1,$1,$2,$3*
1,1,$1,$4,$5*%
%AMOutline4P*
0 Free polygon, 4 corners , with rotation*
0 The origin of the aperture is its center*
0 number of corners: always 4*
0 $1 to $8 corner X, Y*
0 $9 Rotation angle, in degrees counterclockwise*
0 create outline with 4 corners*
4,1,4,$1,$2,$3,$4,$5,$6,$7,$8,$1,$2,$9*%
%AMFreePoly0*
4,1,19,0.500000,-0.750000,0.000000,-0.750000,0.000000,-0.744911,-0.071157,-0.744911,-0.207708,-0.704816,-0.327430,-0.627875,-0.420627,-0.520320,-0.479746,-0.390866,-0.500000,-0.250000,-0.500000,0.250000,-0.479746,0.390866,-0.420627,0.520320,-0.327430,0.627875,-0.207708,0.704816,-0.071157,0.744911,0.000000,0.744911,0.000000,0.750000,0.500000,0.750000,0.500000,-0.750000,0.500000,-0.750000,
$1*%
%AMFreePoly1*
4,1,19,0.000000,0.744911,0.071157,0.744911,0.207708,0.704816,0.327430,0.627875,0.420627,0.520320,0.479746,0.390866,0.500000,0.250000,0.500000,-0.250000,0.479746,-0.390866,0.420627,-0.520320,0.327430,-0.627875,0.207708,-0.704816,0.071157,-0.744911,0.000000,-0.744911,0.000000,-0.750000,-0.500000,-0.750000,-0.500000,0.750000,0.000000,0.750000,0.000000,0.744911,0.000000,0.744911,
$1*%
G04 Aperture macros list end*
%ADD10C,0.800000*%
%ADD11O,1.900000X1.500000*%
%ADD12O,1.800000X1.500000*%
%ADD13O,1.500000X1.900000*%
%ADD14O,1.500000X1.800000*%
%ADD15C,2.200000*%
%ADD16C,3.500000*%
%ADD17RoundRect,0.225000X-0.225000X-0.375000X0.225000X-0.375000X0.225000X0.375000X-0.225000X0.375000X0*%
%ADD18HorizOval,2.200000X0.989949X0.989949X-0.989949X-0.989949X0*%
%ADD19C,1.900000*%
%ADD20C,3.050000*%
%ADD21C,5.100000*%
%ADD22C,3.600000*%
%ADD23RoundRect,0.250000X-1.000000X-1.000000X1.000000X-1.000000X1.000000X1.000000X-1.000000X1.000000X0*%
%ADD24O,3.200000X2.000000*%
%ADD25C,2.000000*%
%ADD26C,1.400000*%
%ADD27O,1.400000X1.400000*%
%ADD28HorizOval,2.200000X-0.989949X-0.989949X0.989949X0.989949X0*%
%ADD29HorizOval,2.200000X-0.989949X0.989949X0.989949X-0.989949X0*%
%ADD30C,1.700000*%
%ADD31O,1.700000X1.700000*%
%ADD32FreePoly0,90.000000*%
%ADD33FreePoly1,90.000000*%
%ADD34R,1.500000X1.000000*%
%ADD35R,1.800000X2.200000*%
%ADD36R,0.300000X1.300000*%
%ADD37C,1.752600*%
%ADD38RoundRect,0.438150X-0.438150X-0.438150X0.438150X-0.438150X0.438150X0.438150X-0.438150X0.438150X0*%
%ADD39Outline4P,-0.876300X-0.876300X0.876300X-0.876300X0.876300X0.876300X-0.876300X0.876300X0.000000*%
G04 APERTURE END LIST*
D10*
%TO.C,T2*%
X40211000Y-64937500D03*
X47211000Y-64937500D03*
X40211000Y-62937500D03*
X47211000Y-62937500D03*
D11*
X48811000Y-60637500D03*
D12*
X41763000Y-60637500D03*
D11*
X44811000Y-60637500D03*
X49911000Y-65237500D03*
%TD*%
D10*
%TO.C,T1*%
X77214000Y-30750000D03*
X77214000Y-37750000D03*
X79214000Y-30750000D03*
X79214000Y-37750000D03*
D13*
X81514000Y-39350000D03*
D14*
X81514000Y-32302000D03*
D13*
X81514000Y-35350000D03*
X76914000Y-40450000D03*
%TD*%
D15*
%TO.C,H13*%
X85775000Y-72386000D03*
%TD*%
%TO.C,H12*%
X40661000Y-72386000D03*
%TD*%
D16*
%TO.C,H4*%
X183375000Y-105200000D03*
%TD*%
D17*
%TO.C,D16*%
X151400000Y-30000000D03*
X148100000Y-30000000D03*
%TD*%
D18*
%TO.C,H10*%
X84775000Y-77936000D03*
%TD*%
D17*
%TO.C,D24*%
X170580000Y-87150000D03*
X167280000Y-87150000D03*
%TD*%
D19*
%TO.C,SW19*%
X149300000Y-95675000D03*
D20*
X154800000Y-89775000D03*
D21*
X154800000Y-95675000D03*
D19*
X160300000Y-95675000D03*
D22*
X157400000Y-101425000D03*
X159200000Y-100375000D03*
X159800000Y-91875000D03*
D23*
X161075000Y-101425000D03*
X162900000Y-91875000D03*
X146760000Y-100375000D03*
D22*
X149800000Y-91875000D03*
X150400000Y-100375000D03*
D23*
X151500000Y-89675000D03*
D22*
X152200000Y-101425000D03*
%TD*%
D15*
%TO.C,H7*%
X85775000Y-31200000D03*
%TD*%
D17*
%TO.C,D20*%
X151400000Y-106200000D03*
X148100000Y-106200000D03*
%TD*%
%TO.C,D1*%
X94250000Y-30000000D03*
X90950000Y-30000000D03*
%TD*%
D16*
%TO.C,H1*%
X107175000Y-48050000D03*
%TD*%
D17*
%TO.C,D22*%
X170450000Y-49050000D03*
X167150000Y-49050000D03*
%TD*%
D19*
%TO.C,SW3*%
X92150000Y-76625000D03*
D20*
X97650000Y-70725000D03*
D21*
X97650000Y-76625000D03*
D19*
X103150000Y-76625000D03*
D22*
X100250000Y-82375000D03*
X102050000Y-81325000D03*
X102650000Y-72825000D03*
D23*
X103925000Y-82375000D03*
X105750000Y-72825000D03*
X89610000Y-81325000D03*
D22*
X92650000Y-72825000D03*
X93250000Y-81325000D03*
D23*
X94350000Y-70625000D03*
D22*
X95050000Y-82375000D03*
%TD*%
D19*
%TO.C,SW4*%
X92150000Y-95675000D03*
D20*
X97650000Y-89775000D03*
D21*
X97650000Y-95675000D03*
D19*
X103150000Y-95675000D03*
D22*
X100250000Y-101425000D03*
X102050000Y-100375000D03*
X102650000Y-91875000D03*
D23*
X103925000Y-101425000D03*
X105750000Y-91875000D03*
X89610000Y-100375000D03*
D22*
X92650000Y-91875000D03*
X93250000Y-100375000D03*
D23*
X94350000Y-89675000D03*
D22*
X95050000Y-101425000D03*
%TD*%
D17*
%TO.C,D27*%
X189500000Y-49050000D03*
X186200000Y-49050000D03*
%TD*%
D19*
%TO.C,SW1*%
X92150000Y-38525000D03*
D20*
X97650000Y-32625000D03*
D21*
X97650000Y-38525000D03*
D19*
X103150000Y-38525000D03*
D22*
X100250000Y-44275000D03*
X102050000Y-43225000D03*
X102650000Y-34725000D03*
D23*
X103925000Y-44275000D03*
X105750000Y-34725000D03*
X89610000Y-43225000D03*
D22*
X92650000Y-34725000D03*
X93250000Y-43225000D03*
D23*
X94350000Y-32525000D03*
D22*
X95050000Y-44275000D03*
%TD*%
D17*
%TO.C,D7*%
X113300000Y-49050000D03*
X110000000Y-49050000D03*
%TD*%
D19*
%TO.C,SW8*%
X111200000Y-76625000D03*
D20*
X116700000Y-70725000D03*
D21*
X116700000Y-76625000D03*
D19*
X122200000Y-76625000D03*
D22*
X119300000Y-82375000D03*
X121100000Y-81325000D03*
X121700000Y-72825000D03*
D23*
X122975000Y-82375000D03*
X124800000Y-72825000D03*
X108660000Y-81325000D03*
D22*
X111700000Y-72825000D03*
X112300000Y-81325000D03*
D23*
X113400000Y-70625000D03*
D22*
X114100000Y-82375000D03*
%TD*%
D19*
%TO.C,SW5*%
X92150000Y-114725000D03*
D20*
X97650000Y-108825000D03*
D21*
X97650000Y-114725000D03*
D19*
X103150000Y-114725000D03*
D22*
X100250000Y-120475000D03*
X102050000Y-119425000D03*
X102650000Y-110925000D03*
D23*
X103925000Y-120475000D03*
X105750000Y-110925000D03*
X89610000Y-119425000D03*
D22*
X92650000Y-110925000D03*
X93250000Y-119425000D03*
D23*
X94350000Y-108725000D03*
D22*
X95050000Y-120475000D03*
%TD*%
D16*
%TO.C,H2*%
X107175000Y-105200000D03*
%TD*%
D19*
%TO.C,SW11*%
X130250000Y-38525000D03*
D20*
X135750000Y-32625000D03*
D21*
X135750000Y-38525000D03*
D19*
X141250000Y-38525000D03*
D22*
X138350000Y-44275000D03*
X140150000Y-43225000D03*
X140750000Y-34725000D03*
D23*
X142025000Y-44275000D03*
X143850000Y-34725000D03*
X127710000Y-43225000D03*
D22*
X130750000Y-34725000D03*
X131350000Y-43225000D03*
D23*
X132450000Y-32525000D03*
D22*
X133150000Y-44275000D03*
%TD*%
D17*
%TO.C,D2*%
X94250000Y-49050000D03*
X90950000Y-49050000D03*
%TD*%
%TO.C,D30*%
X189500000Y-106200000D03*
X186200000Y-106200000D03*
%TD*%
D19*
%TO.C,SW30*%
X187400000Y-114725000D03*
D20*
X192900000Y-108825000D03*
D21*
X192900000Y-114725000D03*
D19*
X198400000Y-114725000D03*
D22*
X195500000Y-120475000D03*
X197300000Y-119425000D03*
X197900000Y-110925000D03*
D23*
X199175000Y-120475000D03*
X201000000Y-110925000D03*
X184860000Y-119425000D03*
D22*
X187900000Y-110925000D03*
X188500000Y-119425000D03*
D23*
X189600000Y-108725000D03*
D22*
X190300000Y-120475000D03*
%TD*%
D17*
%TO.C,D8*%
X113300000Y-68100000D03*
X110000000Y-68100000D03*
%TD*%
D19*
%TO.C,SW21*%
X168350000Y-38525000D03*
D20*
X173850000Y-32625000D03*
D21*
X173850000Y-38525000D03*
D19*
X179350000Y-38525000D03*
D22*
X176450000Y-44275000D03*
X178250000Y-43225000D03*
X178850000Y-34725000D03*
D23*
X180125000Y-44275000D03*
X181950000Y-34725000D03*
X165810000Y-43225000D03*
D22*
X168850000Y-34725000D03*
X169450000Y-43225000D03*
D23*
X170550000Y-32525000D03*
D22*
X171250000Y-44275000D03*
%TD*%
D19*
%TO.C,SW27*%
X187400000Y-57575000D03*
D20*
X192900000Y-51675000D03*
D21*
X192900000Y-57575000D03*
D19*
X198400000Y-57575000D03*
D22*
X195500000Y-63325000D03*
X197300000Y-62275000D03*
X197900000Y-53775000D03*
D23*
X199175000Y-63325000D03*
X201000000Y-53775000D03*
X184860000Y-62275000D03*
D22*
X187900000Y-53775000D03*
X188500000Y-62275000D03*
D23*
X189600000Y-51575000D03*
D22*
X190300000Y-63325000D03*
%TD*%
D19*
%TO.C,SW10*%
X111200000Y-114725000D03*
D20*
X116700000Y-108825000D03*
D21*
X116700000Y-114725000D03*
D19*
X122200000Y-114725000D03*
D22*
X119300000Y-120475000D03*
X121100000Y-119425000D03*
X121700000Y-110925000D03*
D23*
X122975000Y-120475000D03*
X124800000Y-110925000D03*
X108660000Y-119425000D03*
D22*
X111700000Y-110925000D03*
X112300000Y-119425000D03*
D23*
X113400000Y-108725000D03*
D22*
X114100000Y-120475000D03*
%TD*%
D15*
%TO.C,H6*%
X40661000Y-31200000D03*
%TD*%
D19*
%TO.C,SW26*%
X187400000Y-38525000D03*
D20*
X192900000Y-32625000D03*
D21*
X192900000Y-38525000D03*
D19*
X198400000Y-38525000D03*
D22*
X195500000Y-44275000D03*
X197300000Y-43225000D03*
X197900000Y-34725000D03*
D23*
X199175000Y-44275000D03*
X201000000Y-34725000D03*
X184860000Y-43225000D03*
D22*
X187900000Y-34725000D03*
X188500000Y-43225000D03*
D23*
X189600000Y-32525000D03*
D22*
X190300000Y-44275000D03*
%TD*%
D17*
%TO.C,D23*%
X170580000Y-68100000D03*
X167280000Y-68100000D03*
%TD*%
D16*
%TO.C,H3*%
X183375000Y-48050000D03*
%TD*%
D19*
%TO.C,SW28*%
X187400000Y-76625000D03*
D20*
X192900000Y-70725000D03*
D21*
X192900000Y-76625000D03*
D19*
X198400000Y-76625000D03*
D22*
X195500000Y-82375000D03*
X197300000Y-81325000D03*
X197900000Y-72825000D03*
D23*
X199175000Y-82375000D03*
X201000000Y-72825000D03*
X184860000Y-81325000D03*
D22*
X187900000Y-72825000D03*
X188500000Y-81325000D03*
D23*
X189600000Y-70625000D03*
D22*
X190300000Y-82375000D03*
%TD*%
D17*
%TO.C,D14*%
X132350000Y-87150000D03*
X129050000Y-87150000D03*
%TD*%
%TO.C,D31*%
X74571000Y-108125000D03*
X71271000Y-108125000D03*
%TD*%
D19*
%TO.C,SW22*%
X168350000Y-57575000D03*
D20*
X173850000Y-51675000D03*
D21*
X173850000Y-57575000D03*
D19*
X179350000Y-57575000D03*
D22*
X176450000Y-63325000D03*
X178250000Y-62275000D03*
X178850000Y-53775000D03*
D23*
X180125000Y-63325000D03*
X181950000Y-53775000D03*
X165810000Y-62275000D03*
D22*
X168850000Y-53775000D03*
X169450000Y-62275000D03*
D23*
X170550000Y-51575000D03*
D22*
X171250000Y-63325000D03*
%TD*%
D17*
%TO.C,D4*%
X94250000Y-87150000D03*
X90950000Y-87150000D03*
%TD*%
%TO.C,D17*%
X151400000Y-49050000D03*
X148100000Y-49050000D03*
%TD*%
%TO.C,D13*%
X132350000Y-68100000D03*
X129050000Y-68100000D03*
%TD*%
%TO.C,D12*%
X132350000Y-49050000D03*
X129050000Y-49050000D03*
%TD*%
D24*
%TO.C,SW31*%
X63218000Y-93893000D03*
X63218000Y-105093000D03*
D25*
X55718000Y-96993000D03*
X55718000Y-101993000D03*
X55718000Y-99493000D03*
X70218000Y-96993000D03*
X70218000Y-101993000D03*
%TD*%
D19*
%TO.C,SW16*%
X149300000Y-38525000D03*
D20*
X154800000Y-32625000D03*
D21*
X154800000Y-38525000D03*
D19*
X160300000Y-38525000D03*
D22*
X157400000Y-44275000D03*
X159200000Y-43225000D03*
X159800000Y-34725000D03*
D23*
X161075000Y-44275000D03*
X162900000Y-34725000D03*
X146760000Y-43225000D03*
D22*
X149800000Y-34725000D03*
X150400000Y-43225000D03*
D23*
X151500000Y-32525000D03*
D22*
X152200000Y-44275000D03*
%TD*%
D26*
%TO.C,R1*%
X47351000Y-83343000D03*
D27*
X54971000Y-83343000D03*
%TD*%
D19*
%TO.C,SW15*%
X130250000Y-114725000D03*
D20*
X135750000Y-108825000D03*
D21*
X135750000Y-114725000D03*
D19*
X141250000Y-114725000D03*
D22*
X138350000Y-120475000D03*
X140150000Y-119425000D03*
X140750000Y-110925000D03*
D23*
X142025000Y-120475000D03*
X143850000Y-110925000D03*
X127710000Y-119425000D03*
D22*
X130750000Y-110925000D03*
X131350000Y-119425000D03*
D23*
X132450000Y-108725000D03*
D22*
X133150000Y-120475000D03*
%TD*%
D28*
%TO.C,H9*%
X41661000Y-121050000D03*
%TD*%
D19*
%TO.C,SW14*%
X130250000Y-95675000D03*
D20*
X135750000Y-89775000D03*
D21*
X135750000Y-95675000D03*
D19*
X141250000Y-95675000D03*
D22*
X138350000Y-101425000D03*
X140150000Y-100375000D03*
X140750000Y-91875000D03*
D23*
X142025000Y-101425000D03*
X143850000Y-91875000D03*
X127710000Y-100375000D03*
D22*
X130750000Y-91875000D03*
X131350000Y-100375000D03*
D23*
X132450000Y-89675000D03*
D22*
X133150000Y-101425000D03*
%TD*%
D17*
%TO.C,D19*%
X151400000Y-87150000D03*
X148100000Y-87150000D03*
%TD*%
%TO.C,D21*%
X170450000Y-30000000D03*
X167150000Y-30000000D03*
%TD*%
D19*
%TO.C,SW20*%
X149300000Y-114725000D03*
D20*
X154800000Y-108825000D03*
D21*
X154800000Y-114725000D03*
D19*
X160300000Y-114725000D03*
D22*
X157400000Y-120475000D03*
X159200000Y-119425000D03*
X159800000Y-110925000D03*
D23*
X161075000Y-120475000D03*
X162900000Y-110925000D03*
X146760000Y-119425000D03*
D22*
X149800000Y-110925000D03*
X150400000Y-119425000D03*
D23*
X151500000Y-108725000D03*
D22*
X152200000Y-120475000D03*
%TD*%
D19*
%TO.C,RST1*%
X53851000Y-30823000D03*
X47351000Y-30823000D03*
%TD*%
%TO.C,SW17*%
X149300000Y-57575000D03*
D20*
X154800000Y-51675000D03*
D21*
X154800000Y-57575000D03*
D19*
X160300000Y-57575000D03*
D22*
X157400000Y-63325000D03*
X159200000Y-62275000D03*
X159800000Y-53775000D03*
D23*
X161075000Y-63325000D03*
X162900000Y-53775000D03*
X146760000Y-62275000D03*
D22*
X149800000Y-53775000D03*
X150400000Y-62275000D03*
D23*
X151500000Y-51575000D03*
D22*
X152200000Y-63325000D03*
%TD*%
D17*
%TO.C,D3*%
X94250000Y-68100000D03*
X90950000Y-68100000D03*
%TD*%
D19*
%TO.C,SW6*%
X111200000Y-38525000D03*
D20*
X116700000Y-32625000D03*
D21*
X116700000Y-38525000D03*
D19*
X122200000Y-38525000D03*
D22*
X119300000Y-44275000D03*
X121100000Y-43225000D03*
X121700000Y-34725000D03*
D23*
X122975000Y-44275000D03*
X124800000Y-34725000D03*
X108660000Y-43225000D03*
D22*
X111700000Y-34725000D03*
X112300000Y-43225000D03*
D23*
X113400000Y-32525000D03*
D22*
X114100000Y-44275000D03*
%TD*%
D19*
%TO.C,SW13*%
X130250000Y-76625000D03*
D20*
X135750000Y-70725000D03*
D21*
X135750000Y-76625000D03*
D19*
X141250000Y-76625000D03*
D22*
X138350000Y-82375000D03*
X140150000Y-81325000D03*
X140750000Y-72825000D03*
D23*
X142025000Y-82375000D03*
X143850000Y-72825000D03*
X127710000Y-81325000D03*
D22*
X130750000Y-72825000D03*
X131350000Y-81325000D03*
D23*
X132450000Y-70625000D03*
D22*
X133150000Y-82375000D03*
%TD*%
D17*
%TO.C,D18*%
X151400000Y-68100000D03*
X148100000Y-68100000D03*
%TD*%
D19*
%TO.C,SW24*%
X168350000Y-95675000D03*
D20*
X173850000Y-89775000D03*
D21*
X173850000Y-95675000D03*
D19*
X179350000Y-95675000D03*
D22*
X176450000Y-101425000D03*
X178250000Y-100375000D03*
X178850000Y-91875000D03*
D23*
X180125000Y-101425000D03*
X181950000Y-91875000D03*
X165810000Y-100375000D03*
D22*
X168850000Y-91875000D03*
X169450000Y-100375000D03*
D23*
X170550000Y-89675000D03*
D22*
X171250000Y-101425000D03*
%TD*%
D19*
%TO.C,SW18*%
X149300000Y-76625000D03*
D20*
X154800000Y-70725000D03*
D21*
X154800000Y-76625000D03*
D19*
X160300000Y-76625000D03*
D22*
X157400000Y-82375000D03*
X159200000Y-81325000D03*
X159800000Y-72825000D03*
D23*
X161075000Y-82375000D03*
X162900000Y-72825000D03*
X146760000Y-81325000D03*
D22*
X149800000Y-72825000D03*
X150400000Y-81325000D03*
D23*
X151500000Y-70625000D03*
D22*
X152200000Y-82375000D03*
%TD*%
D29*
%TO.C,H8*%
X41661000Y-77936000D03*
%TD*%
D17*
%TO.C,D9*%
X113300000Y-87150000D03*
X110000000Y-87150000D03*
%TD*%
D19*
%TO.C,SW12*%
X130250000Y-57575000D03*
D20*
X135750000Y-51675000D03*
D21*
X135750000Y-57575000D03*
D19*
X141250000Y-57575000D03*
D22*
X138350000Y-63325000D03*
X140150000Y-62275000D03*
X140750000Y-53775000D03*
D23*
X142025000Y-63325000D03*
X143850000Y-53775000D03*
X127710000Y-62275000D03*
D22*
X130750000Y-53775000D03*
X131350000Y-62275000D03*
D23*
X132450000Y-51575000D03*
D22*
X133150000Y-63325000D03*
%TD*%
D17*
%TO.C,D10*%
X113300000Y-106200000D03*
X110000000Y-106200000D03*
%TD*%
%TO.C,D11*%
X132350000Y-30000000D03*
X129050000Y-30000000D03*
%TD*%
%TO.C,D29*%
X189500000Y-87150000D03*
X186200000Y-87150000D03*
%TD*%
D30*
%TO.C,J1*%
X67027500Y-91123000D03*
D31*
X64487500Y-91123000D03*
X61947500Y-91123000D03*
X59407500Y-91123000D03*
%TD*%
D19*
%TO.C,SW7*%
X111200000Y-57575000D03*
D20*
X116700000Y-51675000D03*
D21*
X116700000Y-57575000D03*
D19*
X122200000Y-57575000D03*
D22*
X119300000Y-63325000D03*
X121100000Y-62275000D03*
X121700000Y-53775000D03*
D23*
X122975000Y-63325000D03*
X124800000Y-53775000D03*
X108660000Y-62275000D03*
D22*
X111700000Y-53775000D03*
X112300000Y-62275000D03*
D23*
X113400000Y-51575000D03*
D22*
X114100000Y-63325000D03*
%TD*%
D29*
%TO.C,H11*%
X84775000Y-121050000D03*
%TD*%
D17*
%TO.C,D5*%
X94250000Y-106200000D03*
X90950000Y-106200000D03*
%TD*%
D26*
%TO.C,R2*%
X47351000Y-80803000D03*
D27*
X54971000Y-80803000D03*
%TD*%
D17*
%TO.C,D26*%
X189500000Y-30000000D03*
X186200000Y-30000000D03*
%TD*%
D19*
%TO.C,SW25*%
X168350000Y-114725000D03*
D20*
X173850000Y-108825000D03*
D21*
X173850000Y-114725000D03*
D19*
X179350000Y-114725000D03*
D22*
X176450000Y-120475000D03*
X178250000Y-119425000D03*
X178850000Y-110925000D03*
D23*
X180125000Y-120475000D03*
X181950000Y-110925000D03*
X165810000Y-119425000D03*
D22*
X168850000Y-110925000D03*
X169450000Y-119425000D03*
D23*
X170550000Y-108725000D03*
D22*
X171250000Y-120475000D03*
%TD*%
D17*
%TO.C,D6*%
X113300000Y-30000000D03*
X110000000Y-30000000D03*
%TD*%
D19*
%TO.C,SW2*%
X92150000Y-57575000D03*
D20*
X97650000Y-51675000D03*
D21*
X97650000Y-57575000D03*
D19*
X103150000Y-57575000D03*
D22*
X100250000Y-63325000D03*
X102050000Y-62275000D03*
X102650000Y-53775000D03*
D23*
X103925000Y-63325000D03*
X105750000Y-53775000D03*
X89610000Y-62275000D03*
D22*
X92650000Y-53775000D03*
X93250000Y-62275000D03*
D23*
X94350000Y-51575000D03*
D22*
X95050000Y-63325000D03*
%TD*%
D17*
%TO.C,D28*%
X189500000Y-68100000D03*
X186200000Y-68100000D03*
%TD*%
D19*
%TO.C,SW29*%
X187400000Y-95675000D03*
D20*
X192900000Y-89775000D03*
D21*
X192900000Y-95675000D03*
D19*
X198400000Y-95675000D03*
D22*
X195500000Y-101425000D03*
X197300000Y-100375000D03*
X197900000Y-91875000D03*
D23*
X199175000Y-101425000D03*
X201000000Y-91875000D03*
X184860000Y-100375000D03*
D22*
X187900000Y-91875000D03*
X188500000Y-100375000D03*
D23*
X189600000Y-89675000D03*
D22*
X190300000Y-101425000D03*
%TD*%
D19*
%TO.C,SW9*%
X111200000Y-95675000D03*
D20*
X116700000Y-89775000D03*
D21*
X116700000Y-95675000D03*
D19*
X122200000Y-95675000D03*
D22*
X119300000Y-101425000D03*
X121100000Y-100375000D03*
X121700000Y-91875000D03*
D23*
X122975000Y-101425000D03*
X124800000Y-91875000D03*
X108660000Y-100375000D03*
D22*
X111700000Y-91875000D03*
X112300000Y-100375000D03*
D23*
X113400000Y-89675000D03*
D22*
X114100000Y-101425000D03*
%TD*%
D17*
%TO.C,D15*%
X132350000Y-106200000D03*
X129050000Y-106200000D03*
%TD*%
%TO.C,D25*%
X170450000Y-106200000D03*
X167150000Y-106200000D03*
%TD*%
D19*
%TO.C,SW23*%
X168350000Y-76625000D03*
D20*
X173850000Y-70725000D03*
D21*
X173850000Y-76625000D03*
D19*
X179350000Y-76625000D03*
D22*
X176450000Y-82375000D03*
X178250000Y-81325000D03*
X178850000Y-72825000D03*
D23*
X180125000Y-82375000D03*
X181950000Y-72825000D03*
X165810000Y-81325000D03*
D22*
X168850000Y-72825000D03*
X169450000Y-81325000D03*
D23*
X170550000Y-70625000D03*
D22*
X171250000Y-82375000D03*
%TD*%
D32*
%TO.C,JP9*%
X67027500Y-86693000D03*
D33*
X67027500Y-85393000D03*
%TD*%
D32*
%TO.C,JP12*%
X59407500Y-86693000D03*
D33*
X59407500Y-85393000D03*
%TD*%
D34*
%TO.C,JP3*%
X76944000Y-45500000D03*
X76944000Y-44200000D03*
%TD*%
D32*
%TO.C,JP11*%
X61947500Y-86693000D03*
D33*
X61947500Y-85393000D03*
%TD*%
D32*
%TO.C,JP10*%
X64487500Y-86693000D03*
D33*
X64487500Y-85393000D03*
%TD*%
D34*
%TO.C,JP4*%
X79484000Y-45500000D03*
X79484000Y-44200000D03*
%TD*%
D35*
%TO.C,J3*%
X67868000Y-111493000D03*
X58568000Y-111493000D03*
D36*
X65968000Y-108243000D03*
X65468000Y-108243000D03*
X64968000Y-108243000D03*
X64468000Y-108243000D03*
X63968000Y-108243000D03*
X63468000Y-108243000D03*
X62968000Y-108243000D03*
X62468000Y-108243000D03*
X61968000Y-108243000D03*
X61468000Y-108243000D03*
X60968000Y-108243000D03*
X60468000Y-108243000D03*
%TD*%
D37*
%TO.C,U1*%
X39881000Y-38449500D03*
X42421000Y-38449500D03*
X44961000Y-38449500D03*
D38*
X47501000Y-38449500D03*
X50041000Y-38449500D03*
D37*
X52581000Y-38449500D03*
X55121000Y-38449500D03*
X57661000Y-38449500D03*
X60201000Y-38449500D03*
X62741000Y-38449500D03*
X65281000Y-38449500D03*
X67821000Y-38449500D03*
X70361000Y-38449500D03*
X70361000Y-53689500D03*
X67821000Y-53689500D03*
X65281000Y-53689500D03*
X62741000Y-53689500D03*
X60201000Y-53689500D03*
X57661000Y-53689500D03*
X55121000Y-53689500D03*
X52581000Y-53689500D03*
D39*
X50041000Y-53689500D03*
D37*
X47501000Y-53689500D03*
D38*
X44961000Y-53689500D03*
D37*
X42421000Y-53689500D03*
X39881000Y-53689500D03*
%TD*%
M02*
