%TF.GenerationSoftware,KiCad,Pcbnew,9.0.6-9.0.6~ubuntu24.04.1*%
%TF.CreationDate,2025-12-15T01:59:57+08:00*%
%TF.ProjectId,TPS,5450532e-6b69-4636-9164-5f7063625858,rev?*%
%TF.SameCoordinates,Original*%
%TF.FileFunction,Profile,NP*%
%FSLAX46Y46*%
G04 Gerber Fmt 4.6, Leading zero omitted, Abs format (unit mm)*
G04 Created by KiCad (PCBNEW 9.0.6-9.0.6~ubuntu24.04.1) date 2025-12-15 01:59:57*
%MOMM*%
%LPD*%
G01*
G04 APERTURE LIST*
%TA.AperFunction,Profile*%
%ADD10C,0.100000*%
%TD*%
G04 APERTURE END LIST*
D10*
X202425000Y-31200000D02*
X202425000Y-122050000D01*
X58568000Y-117272000D02*
X67871000Y-117272000D01*
X183775000Y-120370000D02*
X183775000Y-122050000D01*
X182975000Y-109600000D02*
G75*
G02*
X183775000Y-109600000I400000J0D01*
G01*
X38461000Y-122050000D02*
G75*
G02*
X38755349Y-120950684I2200000J0D01*
G01*
X85800000Y-124250000D02*
G75*
G02*
X84700684Y-123955651I0J2200000D01*
G01*
X41760316Y-123955651D02*
G75*
G02*
X40661000Y-124250000I-1099316J1905651D01*
G01*
X182975000Y-53830000D02*
X182975000Y-59530000D01*
X38755579Y-78010183D02*
G75*
G02*
X39264000Y-79909000I-3291579J-1898817D01*
G01*
X41760183Y-123955421D02*
G75*
G02*
X43659000Y-123447000I1898817J-3291579D01*
G01*
X183775000Y-67100000D02*
G75*
G02*
X182975000Y-67100000I-400000J0D01*
G01*
X185875000Y-48050000D02*
G75*
G02*
X180875000Y-48050000I-2500000J0D01*
G01*
X180875000Y-48050000D02*
G75*
G02*
X185875000Y-48050000I2500000J0D01*
G01*
X200225000Y-124250000D02*
X185975000Y-124250000D01*
X185975000Y-124250000D02*
G75*
G02*
X183775000Y-122050000I0J2200000D01*
G01*
X200225000Y-29000000D02*
G75*
G02*
X202425000Y-31200000I0J-2200000D01*
G01*
X109675000Y-48050000D02*
G75*
G02*
X104675000Y-48050000I-2500000J0D01*
G01*
X104675000Y-48050000D02*
G75*
G02*
X109675000Y-48050000I2500000J0D01*
G01*
X82802000Y-123447000D02*
X43659000Y-123447000D01*
X87997114Y-79934300D02*
X87997114Y-119051667D01*
X38461000Y-31200000D02*
G75*
G02*
X40661000Y-29000000I2200000J0D01*
G01*
X87997114Y-79934333D02*
G75*
G02*
X88398544Y-78435159I2999986J33D01*
G01*
X182975000Y-82270000D02*
G75*
G02*
X183775000Y-82270000I400000J0D01*
G01*
X109675000Y-105200000D02*
G75*
G02*
X104675000Y-105200000I-2500000J0D01*
G01*
X104675000Y-105200000D02*
G75*
G02*
X109675000Y-105200000I2500000J0D01*
G01*
X38755349Y-78010316D02*
G75*
G02*
X38461000Y-76911000I1905651J1099316D01*
G01*
X85775000Y-29000000D02*
X40661000Y-29000000D01*
X88398557Y-120550834D02*
G75*
G02*
X87997129Y-119051667I2598543J1499134D01*
G01*
X183775000Y-78580000D02*
G75*
G02*
X182975000Y-78580000I-400000J0D01*
G01*
X88775000Y-31200000D02*
G75*
G02*
X90975000Y-29000000I2200000J0D01*
G01*
X182975000Y-69000000D02*
G75*
G02*
X183775000Y-69000000I400000J0D01*
G01*
X182975000Y-69000000D02*
X182975000Y-78580000D01*
X85775000Y-29000000D02*
G75*
G02*
X87975000Y-31200000I0J-2200000D01*
G01*
X183775000Y-32880000D02*
G75*
G02*
X182975000Y-32880000I-400000J0D01*
G01*
X183775000Y-109600000D02*
X183775000Y-116680000D01*
X182975000Y-120370000D02*
X182975000Y-122050000D01*
X183775000Y-31200000D02*
G75*
G02*
X185975000Y-29000000I2200000J0D01*
G01*
X183775000Y-59530000D02*
G75*
G02*
X182975000Y-59530000I-400000J0D01*
G01*
X88800000Y-75136000D02*
X88800000Y-76936000D01*
X183775000Y-63220000D02*
X183775000Y-67100000D01*
X166825000Y-48050000D02*
G75*
G02*
X161825000Y-48050000I-2500000J0D01*
G01*
X161825000Y-48050000D02*
G75*
G02*
X166825000Y-48050000I2500000J0D01*
G01*
X87705651Y-120950684D02*
G75*
G02*
X88000000Y-122050000I-1905651J-1099316D01*
G01*
X182975000Y-88050000D02*
G75*
G02*
X183775000Y-88050000I400000J0D01*
G01*
X183775000Y-34780000D02*
X183775000Y-40480000D01*
X88398557Y-120550833D02*
G75*
G02*
X88800000Y-122050000I-2598557J-1499167D01*
G01*
X39264000Y-119052000D02*
X39264000Y-79909000D01*
X88000000Y-122050000D02*
G75*
G02*
X85800000Y-124250000I-2200000J0D01*
G01*
X182975000Y-88050000D02*
X182975000Y-97630000D01*
X40661000Y-124250000D02*
G75*
G02*
X38461000Y-122050000I0J2200000D01*
G01*
X88000000Y-76936000D02*
G75*
G02*
X87705651Y-78035316I-2200000J0D01*
G01*
X91000000Y-124250000D02*
G75*
G02*
X88800000Y-122050000I0J2200000D01*
G01*
X185875000Y-105200000D02*
G75*
G02*
X180875000Y-105200000I-2500000J0D01*
G01*
X180875000Y-105200000D02*
G75*
G02*
X185875000Y-105200000I2500000J0D01*
G01*
X67871000Y-117272000D02*
G75*
G02*
X67871000Y-119772000I0J-1250000D01*
G01*
X182975000Y-34780000D02*
G75*
G02*
X183775000Y-34780000I400000J0D01*
G01*
X88000000Y-75136000D02*
X88000000Y-76936000D01*
X88000000Y-75136000D02*
G75*
G02*
X88800000Y-75136000I400000J0D01*
G01*
X67871000Y-119772000D02*
X58568000Y-119772000D01*
X182975000Y-82270000D02*
X182975000Y-86150000D01*
X202425000Y-122050000D02*
G75*
G02*
X200225000Y-124250000I-2200000J0D01*
G01*
X183775000Y-53830000D02*
X183775000Y-59530000D01*
X183775000Y-40480000D02*
G75*
G02*
X182975000Y-40480000I-400000J0D01*
G01*
X183775000Y-86150000D02*
G75*
G02*
X182975000Y-86150000I-400000J0D01*
G01*
X183775000Y-82270000D02*
X183775000Y-86150000D01*
X82802000Y-123447000D02*
G75*
G02*
X84700817Y-123955421I0J-3800000D01*
G01*
X38461000Y-31200000D02*
X38461000Y-76911000D01*
X183775000Y-69000000D02*
X183775000Y-78580000D01*
X58568000Y-119772000D02*
G75*
G02*
X58568000Y-117272000I0J1250000D01*
G01*
X87197000Y-119052000D02*
X87197000Y-79934000D01*
X182975000Y-32880000D02*
X182975000Y-31200000D01*
X180775000Y-29000000D02*
G75*
G02*
X182975000Y-31200000I0J-2200000D01*
G01*
X182975000Y-53830000D02*
G75*
G02*
X183775000Y-53830000I400000J0D01*
G01*
X182975000Y-63220000D02*
G75*
G02*
X183775000Y-63220000I400000J0D01*
G01*
X87705421Y-120950817D02*
G75*
G02*
X87197000Y-119052000I3291579J1898817D01*
G01*
X183775000Y-116680000D02*
G75*
G02*
X182975000Y-116680000I-400000J0D01*
G01*
X182975000Y-34780000D02*
X182975000Y-40480000D01*
X88800000Y-76936000D02*
G75*
G02*
X88398557Y-78435167I-3000000J0D01*
G01*
X200225000Y-29000000D02*
X185975000Y-29000000D01*
X39264000Y-119052000D02*
G75*
G02*
X38755579Y-120950817I-3800000J0D01*
G01*
X88775000Y-31200000D02*
G75*
G02*
X87975000Y-31200000I-400000J0D01*
G01*
X183775000Y-97630000D02*
G75*
G02*
X182975000Y-97630000I-400000J0D01*
G01*
X182975000Y-120370000D02*
G75*
G02*
X183775000Y-120370000I400000J0D01*
G01*
X180775000Y-29000000D02*
X90975000Y-29000000D01*
X87197000Y-79934000D02*
G75*
G02*
X87705421Y-78035183I3800000J0D01*
G01*
X183775000Y-32880000D02*
X183775000Y-31200000D01*
X182975000Y-63220000D02*
X182975000Y-67100000D01*
X182975000Y-122050000D02*
G75*
G02*
X180775000Y-124250000I-2200000J0D01*
G01*
X182975000Y-109600000D02*
X182975000Y-116680000D01*
X183775000Y-88050000D02*
X183775000Y-97630000D01*
X166825000Y-105200000D02*
G75*
G02*
X161825000Y-105200000I-2500000J0D01*
G01*
X161825000Y-105200000D02*
G75*
G02*
X166825000Y-105200000I2500000J0D01*
G01*
X180775000Y-124250000D02*
X91000000Y-124250000D01*
M02*
