%TF.GenerationSoftware,KiCad,Pcbnew,9.0.5-9.0.5~ubuntu24.04.1*%
%TF.CreationDate,2025-11-20T23:24:54+08:00*%
%TF.ProjectId,TPS,5450532e-6b69-4636-9164-5f7063625858,rev?*%
%TF.SameCoordinates,Original*%
%TF.FileFunction,Paste,Top*%
%TF.FilePolarity,Positive*%
%FSLAX46Y46*%
G04 Gerber Fmt 4.6, Leading zero omitted, Abs format (unit mm)*
G04 Created by KiCad (PCBNEW 9.0.5-9.0.5~ubuntu24.04.1) date 2025-11-20 23:24:54*
%MOMM*%
%LPD*%
G01*
G04 APERTURE LIST*
G04 Aperture macros list*
%AMRoundRect*
0 Rectangle with rounded corners*
0 $1 Rounding radius*
0 $2 $3 $4 $5 $6 $7 $8 $9 X,Y pos of 4 corners*
0 Add a 4 corners polygon primitive as box body*
4,1,4,$2,$3,$4,$5,$6,$7,$8,$9,$2,$3,0*
0 Add four circle primitives for the rounded corners*
1,1,$1+$1,$2,$3*
1,1,$1+$1,$4,$5*
1,1,$1+$1,$6,$7*
1,1,$1+$1,$8,$9*
0 Add four rect primitives between the rounded corners*
20,1,$1+$1,$2,$3,$4,$5,0*
20,1,$1+$1,$4,$5,$6,$7,0*
20,1,$1+$1,$6,$7,$8,$9,0*
20,1,$1+$1,$8,$9,$2,$3,0*%
%AMRotRect*
0 Rectangle, with rotation*
0 The origin of the aperture is its center*
0 $1 length*
0 $2 width*
0 $3 Rotation angle, in degrees counterclockwise*
0 Add horizontal line*
21,1,$1,$2,0,0,$3*%
%AMOutline4P*
0 Free polygon, 4 corners , with rotation*
0 The origin of the aperture is its center*
0 number of corners: always 4*
0 $1 to $8 corner X, Y*
0 $9 Rotation angle, in degrees counterclockwise*
0 create outline with 4 corners*
4,1,4,$1,$2,$3,$4,$5,$6,$7,$8,$1,$2,$9*%
G04 Aperture macros list end*
%ADD10RoundRect,0.250000X-0.450000X-0.250000X0.450000X-0.250000X0.450000X0.250000X-0.450000X0.250000X0*%
%ADD11Outline4P,-1.079500X-1.250000X1.079500X-1.250000X1.079500X1.250000X-1.079500X1.250000X180.000000*%
%ADD12RoundRect,0.250000X-0.250000X0.450000X-0.250000X-0.450000X0.250000X-0.450000X0.250000X0.450000X0*%
%ADD13RotRect,0.300000X1.300000X45.000000*%
%ADD14RotRect,1.800000X2.200000X45.000000*%
%ADD15RoundRect,0.243750X0.456250X-0.243750X0.456250X0.243750X-0.456250X0.243750X-0.456250X-0.243750X0*%
%ADD16Outline4P,-0.600000X-1.250000X0.600000X-1.250000X0.600000X1.250000X-0.600000X1.250000X270.000000*%
%ADD17R,0.300000X1.300000*%
%ADD18R,1.800000X2.200000*%
%ADD19Outline4P,-0.600000X-1.250000X0.600000X-1.250000X0.600000X1.250000X-0.600000X1.250000X0.000000*%
G04 APERTURE END LIST*
D10*
%TO.C,D17*%
X153025000Y-49050000D03*
X156575000Y-49050000D03*
%TD*%
%TO.C,D26*%
X172205000Y-106200000D03*
X175755000Y-106200000D03*
%TD*%
D11*
%TO.C,K20*%
X149004000Y-109645000D03*
X151419000Y-120725000D03*
X161797000Y-112185000D03*
X162971000Y-118525000D03*
%TD*%
%TO.C,K21*%
X168054000Y-33445000D03*
X170469000Y-44525000D03*
X180847000Y-35985000D03*
X182021000Y-42325000D03*
%TD*%
D10*
%TO.C,D2*%
X95875000Y-49050000D03*
X99425000Y-49050000D03*
%TD*%
%TO.C,D16*%
X153025000Y-30000000D03*
X156575000Y-30000000D03*
%TD*%
%TO.C,D23*%
X172075000Y-68100000D03*
X175625000Y-68100000D03*
%TD*%
D11*
%TO.C,K4*%
X91854000Y-90595000D03*
X94269000Y-101675000D03*
X104647000Y-93135000D03*
X105821000Y-99475000D03*
%TD*%
%TO.C,K5*%
X91854000Y-109645000D03*
X94269000Y-120725000D03*
X104647000Y-112185000D03*
X105821000Y-118525000D03*
%TD*%
D10*
%TO.C,D29*%
X191125000Y-68100000D03*
X194675000Y-68100000D03*
%TD*%
D11*
%TO.C,K2*%
X91854000Y-52495000D03*
X94269000Y-63575000D03*
X104647000Y-55035000D03*
X105821000Y-61375000D03*
%TD*%
D10*
%TO.C,D8*%
X114925000Y-68100000D03*
X118475000Y-68100000D03*
%TD*%
D11*
%TO.C,K9*%
X110904000Y-90595000D03*
X113319000Y-101675000D03*
X123697000Y-93135000D03*
X124871000Y-99475000D03*
%TD*%
%TO.C,K12*%
X129954000Y-52495000D03*
X132369000Y-63575000D03*
X142747000Y-55035000D03*
X143921000Y-61375000D03*
%TD*%
D10*
%TO.C,D3*%
X95875000Y-68100000D03*
X99425000Y-68100000D03*
%TD*%
D11*
%TO.C,K27*%
X187104000Y-33445000D03*
X189519000Y-44525000D03*
X199897000Y-35985000D03*
X201071000Y-42325000D03*
%TD*%
D10*
%TO.C,D1*%
X95875000Y-30000000D03*
X99425000Y-30000000D03*
%TD*%
%TO.C,D9*%
X114925000Y-87150000D03*
X118475000Y-87150000D03*
%TD*%
D11*
%TO.C,K1*%
X91854000Y-33445000D03*
X94269000Y-44525000D03*
X104647000Y-35985000D03*
X105821000Y-42325000D03*
%TD*%
%TO.C,K22*%
X168054000Y-52495000D03*
X170469000Y-63575000D03*
X180847000Y-55035000D03*
X182021000Y-61375000D03*
%TD*%
%TO.C,K11*%
X129954000Y-33445000D03*
X132369000Y-44525000D03*
X142747000Y-35985000D03*
X143921000Y-42325000D03*
%TD*%
%TO.C,K29*%
X187104000Y-71545000D03*
X189519000Y-82625000D03*
X199897000Y-74085000D03*
X201071000Y-80425000D03*
%TD*%
%TO.C,K28*%
X187104000Y-52495000D03*
X189519000Y-63575000D03*
X199897000Y-55035000D03*
X201071000Y-61375000D03*
%TD*%
D10*
%TO.C,D24*%
X172205000Y-87150000D03*
X175755000Y-87150000D03*
%TD*%
D11*
%TO.C,K30*%
X187104000Y-90595000D03*
X189519000Y-101675000D03*
X199897000Y-93135000D03*
X201071000Y-99475000D03*
%TD*%
D10*
%TO.C,D15*%
X133975000Y-106200000D03*
X137525000Y-106200000D03*
%TD*%
%TO.C,D11*%
X133975000Y-30000000D03*
X137525000Y-30000000D03*
%TD*%
D12*
%TO.C,D25*%
X74638000Y-97718000D03*
X74638000Y-101268000D03*
%TD*%
D11*
%TO.C,K23*%
X168054000Y-71545000D03*
X170469000Y-82625000D03*
X180847000Y-74085000D03*
X182021000Y-80425000D03*
%TD*%
D10*
%TO.C,D5*%
X95875000Y-106200000D03*
X99425000Y-106200000D03*
%TD*%
D11*
%TO.C,K6*%
X110904000Y-33445000D03*
X113319000Y-44525000D03*
X123697000Y-35985000D03*
X124871000Y-42325000D03*
%TD*%
D10*
%TO.C,D18*%
X153025000Y-68100000D03*
X156575000Y-68100000D03*
%TD*%
%TO.C,D14*%
X133975000Y-87150000D03*
X137525000Y-87150000D03*
%TD*%
%TO.C,D13*%
X133975000Y-68100000D03*
X137525000Y-68100000D03*
%TD*%
%TO.C,D27*%
X191125000Y-30000000D03*
X194675000Y-30000000D03*
%TD*%
D11*
%TO.C,K17*%
X149004000Y-52495000D03*
X151419000Y-63575000D03*
X161797000Y-55035000D03*
X162971000Y-61375000D03*
%TD*%
D13*
%TO.C,J5*%
X49025969Y-87068736D03*
X49379522Y-86715183D03*
X49733076Y-86361629D03*
X50086629Y-86008076D03*
X50440183Y-85654522D03*
X50793736Y-85300969D03*
D14*
X49980563Y-90710336D03*
X54435336Y-86255563D03*
%TD*%
D10*
%TO.C,D6*%
X114925000Y-30000000D03*
X118475000Y-30000000D03*
%TD*%
D11*
%TO.C,K15*%
X129954000Y-109645000D03*
X132369000Y-120725000D03*
X142747000Y-112185000D03*
X143921000Y-118525000D03*
%TD*%
D15*
%TO.C,F2*%
X84060000Y-41217500D03*
X84060000Y-39342500D03*
%TD*%
D10*
%TO.C,D20*%
X153025000Y-106200000D03*
X156575000Y-106200000D03*
%TD*%
%TO.C,D22*%
X172075000Y-49050000D03*
X175625000Y-49050000D03*
%TD*%
D16*
%TO.C,SW2*%
X43964000Y-84900000D03*
X43964000Y-87400000D03*
X43964000Y-89900000D03*
%TD*%
D11*
%TO.C,K18*%
X149004000Y-71545000D03*
X151419000Y-82625000D03*
X161797000Y-74085000D03*
X162971000Y-80425000D03*
%TD*%
D10*
%TO.C,D4*%
X95875000Y-87150000D03*
X99425000Y-87150000D03*
%TD*%
D11*
%TO.C,K7*%
X110904000Y-52495000D03*
X113319000Y-63575000D03*
X123697000Y-55035000D03*
X124871000Y-61375000D03*
%TD*%
%TO.C,K14*%
X129954000Y-90595000D03*
X132369000Y-101675000D03*
X142747000Y-93135000D03*
X143921000Y-99475000D03*
%TD*%
D10*
%TO.C,D19*%
X153025000Y-87150000D03*
X156575000Y-87150000D03*
%TD*%
D11*
%TO.C,K26*%
X168054000Y-109645000D03*
X170469000Y-120725000D03*
X180847000Y-112185000D03*
X182021000Y-118525000D03*
%TD*%
%TO.C,K19*%
X149004000Y-90595000D03*
X151419000Y-101675000D03*
X161797000Y-93135000D03*
X162971000Y-99475000D03*
%TD*%
D10*
%TO.C,D10*%
X114925000Y-106200000D03*
X118475000Y-106200000D03*
%TD*%
D11*
%TO.C,K13*%
X129954000Y-71545000D03*
X132369000Y-82625000D03*
X142747000Y-74085000D03*
X143921000Y-80425000D03*
%TD*%
D10*
%TO.C,D12*%
X133975000Y-49050000D03*
X137525000Y-49050000D03*
%TD*%
%TO.C,D31*%
X191125000Y-106200000D03*
X194675000Y-106200000D03*
%TD*%
D11*
%TO.C,K8*%
X110904000Y-71545000D03*
X113319000Y-82625000D03*
X123697000Y-74085000D03*
X124871000Y-80425000D03*
%TD*%
D17*
%TO.C,J2*%
X60471000Y-109752000D03*
X60971000Y-109752000D03*
X61471000Y-109752000D03*
X61971000Y-109752000D03*
X62471000Y-109752000D03*
X62971000Y-109752000D03*
X63471000Y-109752000D03*
X63971000Y-109752000D03*
X64471000Y-109752000D03*
X64971000Y-109752000D03*
X65471000Y-109752000D03*
X65971000Y-109752000D03*
D18*
X58571000Y-113002000D03*
X67871000Y-113002000D03*
%TD*%
D10*
%TO.C,D28*%
X191125000Y-49050000D03*
X194675000Y-49050000D03*
%TD*%
%TO.C,D7*%
X114925000Y-49050000D03*
X118475000Y-49050000D03*
%TD*%
D11*
%TO.C,K3*%
X91854000Y-71545000D03*
X94269000Y-82625000D03*
X104647000Y-74085000D03*
X105821000Y-80425000D03*
%TD*%
D19*
%TO.C,SW3*%
X73352000Y-118747000D03*
X75852000Y-118747000D03*
X78352000Y-118747000D03*
%TD*%
D11*
%TO.C,K16*%
X149004000Y-33445000D03*
X151419000Y-44525000D03*
X161797000Y-35985000D03*
X162971000Y-42325000D03*
%TD*%
D10*
%TO.C,D30*%
X191125000Y-87150000D03*
X194675000Y-87150000D03*
%TD*%
D11*
%TO.C,K31*%
X187104000Y-109645000D03*
X189519000Y-120725000D03*
X199897000Y-112185000D03*
X201071000Y-118525000D03*
%TD*%
%TO.C,K10*%
X110904000Y-109645000D03*
X113319000Y-120725000D03*
X123697000Y-112185000D03*
X124871000Y-118525000D03*
%TD*%
%TO.C,K24*%
X168054000Y-90595000D03*
X170469000Y-101675000D03*
X180847000Y-93135000D03*
X182021000Y-99475000D03*
%TD*%
D10*
%TO.C,D21*%
X172075000Y-30000000D03*
X175625000Y-30000000D03*
%TD*%
M02*
