M48
; DRILL file {KiCad 9.0.5-9.0.5~ubuntu24.04.1} date 2025-11-05T00:35:38+0800
; FORMAT={-:-/ absolute / metric / decimal}
; #@! TF.CreationDate,2025-11-05T00:35:38+08:00
; #@! TF.GenerationSoftware,Kicad,Pcbnew,9.0.5-9.0.5~ubuntu24.04.1
; #@! TF.FileFunction,Plated,1,2,PTH
FMAT,2
METRIC
; #@! TA.AperFunction,Plated,PTH,ViaDrill
T1C0.400
; #@! TA.AperFunction,Plated,PTH,ComponentDrill
T2C0.700
; #@! TA.AperFunction,Plated,PTH,ComponentDrill
T3C0.750
; #@! TA.AperFunction,Plated,PTH,ComponentDrill
T4C0.900
; #@! TA.AperFunction,Plated,PTH,ComponentDrill
T5C1.000
; #@! TA.AperFunction,Plated,PTH,ComponentDrill
T6C1.092
; #@! TA.AperFunction,Plated,PTH,ComponentDrill
T7C1.300
; #@! TA.AperFunction,Plated,PTH,ComponentDrill
T8C1.500
; #@! TA.AperFunction,Plated,PTH,ComponentDrill
T9C2.200
; #@! TA.AperFunction,Plated,PTH,ComponentDrill
T10C3.000
; #@! TA.AperFunction,Plated,PTH,ComponentDrill
T11C3.050
%
G90
G05
T1
X39.881Y-49.489
X41.15Y-48.639
X42.11Y-84.9
X42.11Y-87.4
X42.11Y-89.9
X42.421Y-44.443
X44.961Y-46.029
X46.69Y-31.77
X47.63Y-78.54
X50.041Y-44.443
X50.52Y-105.66
X51.139Y-87.061
X52.39Y-94.4
X52.58Y-81.83
X53.12Y-95.683
X55.12Y-82.86
X57.661Y-46.773
X57.661Y-81.1
X60.201Y-46.043
X60.971Y-111.24
X62.741Y-45.313
X62.741Y-80.36
X63.22Y-81.83
X63.22Y-82.86
X63.22Y-83.92
X64.02Y-48.98
X65.281Y-48.25
X65.468Y-111.24
X68.409Y-33.759
X69.09Y-47.51
X70.361Y-48.24
X71.43Y-83.92
X72.02Y-65.59
X72.02Y-67.98
X72.065Y-32.501
X72.88Y-53.11
X73.352Y-120.6
X73.45Y-93.77
X74.638Y-96.413
X74.638Y-102.583
X75.284Y-87.074
X75.852Y-120.6
X76.44Y-43.263
X76.454Y-45.803
X78.352Y-120.6
X80.134Y-44.533
X85.36Y-65.59
X86.0Y-67.98
X89.06Y-67.238
X89.61Y-50.43
X90.4Y-49.64
X90.41Y-87.14
X90.42Y-106.2
X90.95Y-65.6
X91.54Y-31.13
X94.56Y-30.0
X94.56Y-49.05
X94.56Y-68.1
X94.56Y-87.15
X94.56Y-106.2
X100.73Y-30.0
X100.73Y-49.05
X100.73Y-68.1
X100.73Y-87.15
X100.73Y-106.2
X107.19Y-38.51
X113.07Y-49.05
X113.61Y-30.0
X113.61Y-68.1
X113.61Y-87.15
X113.61Y-106.2
X119.78Y-30.0
X119.78Y-49.05
X119.78Y-68.1
X119.78Y-87.15
X119.78Y-106.2
X126.24Y-38.51
X132.12Y-49.05
X132.66Y-30.0
X132.66Y-68.1
X132.66Y-87.15
X132.66Y-106.2
X138.83Y-30.0
X138.83Y-49.05
X138.83Y-68.1
X138.83Y-87.15
X138.83Y-106.2
X145.29Y-38.51
X151.17Y-49.05
X151.71Y-30.0
X151.71Y-68.1
X151.71Y-87.15
X151.71Y-106.2
X157.88Y-30.0
X157.88Y-49.05
X157.88Y-68.1
X157.88Y-87.15
X157.88Y-106.2
X164.34Y-38.51
X170.22Y-49.05
X170.76Y-30.0
X170.76Y-68.1
X170.76Y-87.15
X170.76Y-106.2
X176.93Y-30.0
X176.93Y-49.05
X176.93Y-68.1
X176.93Y-87.15
X176.93Y-106.2
X181.78Y-38.52
X181.78Y-76.62
X181.78Y-95.67
X181.78Y-114.72
X189.81Y-30.0
X189.81Y-49.05
X189.81Y-68.1
X189.81Y-87.15
X189.81Y-106.2
X195.98Y-30.0
X195.98Y-49.05
X195.98Y-68.1
X195.98Y-87.15
X195.98Y-106.2
X200.34Y-31.15
X200.53Y-48.04
X200.53Y-67.09
X200.53Y-86.14
X200.53Y-105.19
T2
X46.11Y-95.683
X46.11Y-103.303
X48.65Y-95.683
X48.65Y-103.303
T3
X74.731Y-53.105
X74.731Y-55.105
T5
X48.439Y-111.732
X48.439Y-114.272
X50.979Y-111.732
X50.979Y-114.272
X55.718Y-96.993
X55.718Y-99.493
X55.718Y-101.993
X59.407Y-91.123
X61.947Y-91.123
X64.487Y-91.123
X67.028Y-91.123
X70.218Y-96.993
X70.218Y-101.993
T6
X39.881Y-37.55
X39.881Y-40.09
X39.881Y-52.79
X39.881Y-55.33
X42.421Y-37.55
X42.421Y-40.09
X42.421Y-52.79
X42.421Y-55.33
X44.961Y-37.55
X44.961Y-40.09
X44.961Y-52.79
X44.961Y-55.33
X47.501Y-37.55
X47.501Y-40.09
X47.501Y-52.79
X47.501Y-55.33
X50.041Y-37.55
X50.041Y-40.09
X50.041Y-52.79
X50.041Y-55.33
X52.581Y-37.55
X52.581Y-40.09
X52.581Y-52.79
X52.581Y-55.33
X55.121Y-37.55
X55.121Y-40.09
X55.121Y-52.79
X55.121Y-55.33
X57.661Y-37.55
X57.661Y-40.09
X57.661Y-52.79
X57.661Y-55.33
X60.201Y-37.55
X60.201Y-40.09
X60.201Y-52.79
X60.201Y-55.33
X62.741Y-37.55
X62.741Y-40.09
X62.741Y-52.79
X62.741Y-55.33
X65.281Y-37.55
X65.281Y-40.09
X65.281Y-52.79
X65.281Y-55.33
X67.821Y-37.55
X67.821Y-40.09
X67.821Y-52.79
X67.821Y-55.33
X70.361Y-37.55
X70.361Y-40.09
X70.361Y-52.79
X70.361Y-55.33
T7
X48.771Y-30.823
X55.271Y-30.823
T10
X92.65Y-42.325
X92.65Y-61.375
X92.65Y-80.425
X92.65Y-99.475
X92.65Y-118.525
X102.65Y-42.325
X102.65Y-61.375
X102.65Y-80.425
X102.65Y-99.475
X102.65Y-118.525
X111.7Y-42.325
X111.7Y-61.375
X111.7Y-80.425
X111.7Y-99.475
X111.7Y-118.525
X121.7Y-42.325
X121.7Y-61.375
X121.7Y-80.425
X121.7Y-99.475
X121.7Y-118.525
X130.75Y-42.325
X130.75Y-61.375
X130.75Y-80.425
X130.75Y-99.475
X130.75Y-118.525
X140.75Y-42.325
X140.75Y-61.375
X140.75Y-80.425
X140.75Y-99.475
X140.75Y-118.525
X149.8Y-42.325
X149.8Y-61.375
X149.8Y-80.425
X149.8Y-99.475
X149.8Y-118.525
X159.8Y-42.325
X159.8Y-61.375
X159.8Y-80.425
X159.8Y-99.475
X159.8Y-118.525
X168.85Y-42.325
X168.85Y-61.375
X168.85Y-80.425
X168.85Y-99.475
X168.85Y-118.525
X178.85Y-42.325
X178.85Y-61.375
X178.85Y-80.425
X178.85Y-99.475
X178.85Y-118.525
X187.9Y-42.325
X187.9Y-61.375
X187.9Y-80.425
X187.9Y-99.475
X187.9Y-118.525
X197.9Y-42.325
X197.9Y-61.375
X197.9Y-80.425
X197.9Y-99.475
X197.9Y-118.525
T11
X93.84Y-35.985
X93.84Y-55.035
X93.84Y-74.085
X93.84Y-93.135
X93.84Y-112.185
X95.11Y-33.445
X95.11Y-52.495
X95.11Y-71.545
X95.11Y-90.595
X95.11Y-109.645
X100.19Y-33.445
X100.19Y-52.495
X100.19Y-71.545
X100.19Y-90.595
X100.19Y-109.645
X101.46Y-35.985
X101.46Y-55.035
X101.46Y-74.085
X101.46Y-93.135
X101.46Y-112.185
X112.89Y-35.985
X112.89Y-55.035
X112.89Y-74.085
X112.89Y-93.135
X112.89Y-112.185
X114.16Y-33.445
X114.16Y-52.495
X114.16Y-71.545
X114.16Y-90.595
X114.16Y-109.645
X119.24Y-33.445
X119.24Y-52.495
X119.24Y-71.545
X119.24Y-90.595
X119.24Y-109.645
X120.51Y-35.985
X120.51Y-55.035
X120.51Y-74.085
X120.51Y-93.135
X120.51Y-112.185
X131.94Y-35.985
X131.94Y-55.035
X131.94Y-74.085
X131.94Y-93.135
X131.94Y-112.185
X133.21Y-33.445
X133.21Y-52.495
X133.21Y-71.545
X133.21Y-90.595
X133.21Y-109.645
X138.29Y-33.445
X138.29Y-52.495
X138.29Y-71.545
X138.29Y-90.595
X138.29Y-109.645
X139.56Y-35.985
X139.56Y-55.035
X139.56Y-74.085
X139.56Y-93.135
X139.56Y-112.185
X150.99Y-35.985
X150.99Y-55.035
X150.99Y-74.085
X150.99Y-93.135
X150.99Y-112.185
X152.26Y-33.445
X152.26Y-52.495
X152.26Y-71.545
X152.26Y-90.595
X152.26Y-109.645
X157.34Y-33.445
X157.34Y-52.495
X157.34Y-71.545
X157.34Y-90.595
X157.34Y-109.645
X158.61Y-35.985
X158.61Y-55.035
X158.61Y-74.085
X158.61Y-93.135
X158.61Y-112.185
X170.04Y-35.985
X170.04Y-55.035
X170.04Y-74.085
X170.04Y-93.135
X170.04Y-112.185
X171.31Y-33.445
X171.31Y-52.495
X171.31Y-71.545
X171.31Y-90.595
X171.31Y-109.645
X176.39Y-33.445
X176.39Y-52.495
X176.39Y-71.545
X176.39Y-90.595
X176.39Y-109.645
X177.66Y-35.985
X177.66Y-55.035
X177.66Y-74.085
X177.66Y-93.135
X177.66Y-112.185
X189.09Y-35.985
X189.09Y-55.035
X189.09Y-74.085
X189.09Y-93.135
X189.09Y-112.185
X190.36Y-33.445
X190.36Y-52.495
X190.36Y-71.545
X190.36Y-90.595
X190.36Y-109.645
X195.44Y-33.445
X195.44Y-52.495
X195.44Y-71.545
X195.44Y-90.595
X195.44Y-109.645
X196.71Y-35.985
X196.71Y-55.035
X196.71Y-74.085
X196.71Y-93.135
X196.71Y-112.185
T4
G00X41.563Y-60.638
M15
G01X41.963Y-60.638
M16
G05
G00X41.563Y-67.238
M15
G01X41.963Y-67.238
M16
G05
G00X44.611Y-60.638
M15
G01X45.011Y-60.638
M16
G05
G00X44.611Y-67.238
M15
G01X45.011Y-67.238
M16
G05
G00X48.611Y-60.638
M15
G01X49.011Y-60.638
M16
G05
G00X48.611Y-67.238
M15
G01X49.011Y-67.238
M16
G05
G00X49.711Y-62.638
M15
G01X50.111Y-62.638
M16
G05
G00X49.711Y-65.238
M15
G01X50.111Y-65.238
M16
G05
G00X74.914Y-32.102
M15
G01X74.914Y-32.502
M16
G05
G00X74.914Y-35.15
M15
G01X74.914Y-35.55
M16
G05
G00X74.914Y-39.15
M15
G01X74.914Y-39.55
M16
G05
G00X76.914Y-40.25
M15
G01X76.914Y-40.65
M16
G05
G00X79.514Y-40.25
M15
G01X79.514Y-40.65
M16
G05
G00X81.514Y-32.102
M15
G01X81.514Y-32.502
M16
G05
G00X81.514Y-35.15
M15
G01X81.514Y-35.55
M16
G05
G00X81.514Y-39.15
M15
G01X81.514Y-39.55
M16
G05
T8
G00X62.668Y-93.893
M15
G01X63.768Y-93.893
M16
G05
G00X62.668Y-105.093
M15
G01X63.768Y-105.093
M16
G05
T9
G00X42.651Y-78.926
M15
G01X40.671Y-76.946
M16
G05
G00X42.651Y-120.06
M15
G01X40.671Y-122.04
M16
G05
G00X83.785Y-78.926
M15
G01X85.765Y-76.946
M16
G05
G00X85.765Y-122.04
M15
G01X83.785Y-120.06
M16
G05
M30
