M48
; DRILL file {KiCad 9.0.5-9.0.5~ubuntu24.04.1} date 2025-11-20T23:24:56+0800
; FORMAT={-:-/ absolute / metric / decimal}
; #@! TF.CreationDate,2025-11-20T23:24:56+08:00
; #@! TF.GenerationSoftware,Kicad,Pcbnew,9.0.5-9.0.5~ubuntu24.04.1
; #@! TF.FileFunction,NonPlated,1,2,NPTH
FMAT,2
METRIC
; #@! TA.AperFunction,NonPlated,NPTH,ComponentDrill
T1C0.450
; #@! TA.AperFunction,NonPlated,NPTH,ComponentDrill
T2C0.800
; #@! TA.AperFunction,NonPlated,NPTH,ComponentDrill
T3C0.900
; #@! TA.AperFunction,NonPlated,NPTH,ComponentDrill
T4C1.750
; #@! TA.AperFunction,NonPlated,NPTH,ComponentDrill
T5C1.900
; #@! TA.AperFunction,NonPlated,NPTH,ComponentDrill
T6C2.200
; #@! TA.AperFunction,NonPlated,NPTH,ComponentDrill
T7C3.000
; #@! TA.AperFunction,NonPlated,NPTH,ComponentDrill
T8C5.100
%
G90
G05
T1
X183.375Y-41.525
X183.375Y-42.325
X183.375Y-43.125
X183.375Y-43.925
X183.375Y-60.575
X183.375Y-61.375
X183.375Y-62.175
X183.375Y-79.625
X183.375Y-80.425
X183.375Y-81.225
X183.375Y-98.675
X183.375Y-99.475
X183.375Y-100.275
X183.375Y-101.075
X183.375Y-117.725
X183.375Y-118.525
X183.375Y-119.325
T2
X40.211Y-62.938
X40.211Y-64.938
X47.211Y-62.938
X47.211Y-64.938
X77.214Y-30.75
X77.214Y-37.75
X79.214Y-30.75
X79.214Y-37.75
T3
X41.214Y-84.0
X41.214Y-90.8
X72.452Y-121.497
X79.252Y-121.497
T4
X92.57Y-38.525
X92.57Y-57.575
X92.57Y-76.625
X92.57Y-95.675
X92.57Y-114.725
X102.73Y-38.525
X102.73Y-57.575
X102.73Y-76.625
X102.73Y-95.675
X102.73Y-114.725
X111.62Y-38.525
X111.62Y-57.575
X111.62Y-76.625
X111.62Y-95.675
X111.62Y-114.725
X121.78Y-38.525
X121.78Y-57.575
X121.78Y-76.625
X121.78Y-95.675
X121.78Y-114.725
X130.67Y-38.525
X130.67Y-57.575
X130.67Y-76.625
X130.67Y-95.675
X130.67Y-114.725
X140.83Y-38.525
X140.83Y-57.575
X140.83Y-76.625
X140.83Y-95.675
X140.83Y-114.725
X149.72Y-38.525
X149.72Y-57.575
X149.72Y-76.625
X149.72Y-95.675
X149.72Y-114.725
X159.88Y-38.525
X159.88Y-57.575
X159.88Y-76.625
X159.88Y-95.675
X159.88Y-114.725
X168.77Y-38.525
X168.77Y-57.575
X168.77Y-76.625
X168.77Y-95.675
X168.77Y-114.725
X178.93Y-38.525
X178.93Y-57.575
X178.93Y-76.625
X178.93Y-95.675
X178.93Y-114.725
X187.82Y-38.525
X187.82Y-57.575
X187.82Y-76.625
X187.82Y-95.675
X187.82Y-114.725
X197.98Y-38.525
X197.98Y-57.575
X197.98Y-76.625
X197.98Y-95.675
X197.98Y-114.725
T5
X92.15Y-38.525
X92.15Y-57.575
X92.15Y-76.625
X92.15Y-95.675
X92.15Y-114.725
X103.15Y-38.525
X103.15Y-57.575
X103.15Y-76.625
X103.15Y-95.675
X103.15Y-114.725
X111.2Y-38.525
X111.2Y-57.575
X111.2Y-76.625
X111.2Y-95.675
X111.2Y-114.725
X122.2Y-38.525
X122.2Y-57.575
X122.2Y-76.625
X122.2Y-95.675
X122.2Y-114.725
X130.25Y-38.525
X130.25Y-57.575
X130.25Y-76.625
X130.25Y-95.675
X130.25Y-114.725
X141.25Y-38.525
X141.25Y-57.575
X141.25Y-76.625
X141.25Y-95.675
X141.25Y-114.725
X149.3Y-38.525
X149.3Y-57.575
X149.3Y-76.625
X149.3Y-95.675
X149.3Y-114.725
X160.3Y-38.525
X160.3Y-57.575
X160.3Y-76.625
X160.3Y-95.675
X160.3Y-114.725
X168.35Y-38.525
X168.35Y-57.575
X168.35Y-76.625
X168.35Y-95.675
X168.35Y-114.725
X179.35Y-38.525
X179.35Y-57.575
X179.35Y-76.625
X179.35Y-95.675
X179.35Y-114.725
X187.4Y-38.525
X187.4Y-57.575
X187.4Y-76.625
X187.4Y-95.675
X187.4Y-114.725
X198.4Y-38.525
X198.4Y-57.575
X198.4Y-76.625
X198.4Y-95.675
X198.4Y-114.725
T6
X40.661Y-31.2
X40.661Y-72.386
X85.775Y-31.2
X85.775Y-72.386
T7
X97.65Y-44.425
X97.65Y-63.475
X97.65Y-82.525
X97.65Y-101.575
X97.65Y-120.625
X116.7Y-44.425
X116.7Y-63.475
X116.7Y-82.525
X116.7Y-101.575
X116.7Y-120.625
X135.75Y-44.425
X135.75Y-63.475
X135.75Y-82.525
X135.75Y-101.575
X135.75Y-120.625
X154.8Y-44.425
X154.8Y-63.475
X154.8Y-82.525
X154.8Y-101.575
X154.8Y-120.625
X173.85Y-44.425
X173.85Y-63.475
X173.85Y-82.525
X173.85Y-101.575
X173.85Y-120.625
X192.9Y-44.425
X192.9Y-63.475
X192.9Y-82.525
X192.9Y-101.575
X192.9Y-120.625
T8
X97.65Y-38.525
X97.65Y-57.575
X97.65Y-76.625
X97.65Y-95.675
X97.65Y-114.725
X116.7Y-38.525
X116.7Y-57.575
X116.7Y-76.625
X116.7Y-95.675
X116.7Y-114.725
X135.75Y-38.525
X135.75Y-57.575
X135.75Y-76.625
X135.75Y-95.675
X135.75Y-114.725
X154.8Y-38.525
X154.8Y-57.575
X154.8Y-76.625
X154.8Y-95.675
X154.8Y-114.725
X173.85Y-38.525
X173.85Y-57.575
X173.85Y-76.625
X173.85Y-95.675
X173.85Y-114.725
X192.9Y-38.525
X192.9Y-57.575
X192.9Y-76.625
X192.9Y-95.675
X192.9Y-114.725
M30
