%TF.GenerationSoftware,KiCad,Pcbnew,7.0.5*%
%TF.CreationDate,2024-08-04T00:39:55+08:00*%
%TF.ProjectId,TPS,5450532e-6b69-4636-9164-5f7063625858,rev?*%
%TF.SameCoordinates,Original*%
%TF.FileFunction,Copper,L2,Bot*%
%TF.FilePolarity,Positive*%
%FSLAX46Y46*%
G04 Gerber Fmt 4.6, Leading zero omitted, Abs format (unit mm)*
G04 Created by KiCad (PCBNEW 7.0.5) date 2024-08-04 00:39:55*
%MOMM*%
%LPD*%
G01*
G04 APERTURE LIST*
G04 APERTURE END LIST*
%TA.AperFunction,NonConductor*%
G36*
X201157426Y-29000691D02*
G01*
X201160040Y-29000896D01*
X201212011Y-29004986D01*
X201352579Y-29017285D01*
X201370698Y-29020236D01*
X201450242Y-29039333D01*
X201451699Y-29039702D01*
X201538318Y-29062912D01*
X201561714Y-29069181D01*
X201569400Y-29071790D01*
X201618484Y-29092120D01*
X201654737Y-29107136D01*
X201657156Y-29108201D01*
X201754970Y-29153813D01*
X201761140Y-29157128D01*
X201803965Y-29183371D01*
X201841767Y-29206537D01*
X201844927Y-29208608D01*
X201931606Y-29269302D01*
X201936285Y-29272924D01*
X202008840Y-29334892D01*
X202012389Y-29338173D01*
X202086824Y-29412608D01*
X202090109Y-29416162D01*
X202152070Y-29488708D01*
X202155707Y-29493406D01*
X202216385Y-29580064D01*
X202218461Y-29583231D01*
X202267863Y-29663845D01*
X202271193Y-29670043D01*
X202316780Y-29767804D01*
X202317870Y-29770281D01*
X202353208Y-29855598D01*
X202355817Y-29863284D01*
X202385277Y-29973226D01*
X202385676Y-29974800D01*
X202404760Y-30054290D01*
X202407714Y-30072430D01*
X202420014Y-30213024D01*
X202424309Y-30267572D01*
X202424500Y-30272440D01*
X202424500Y-103927559D01*
X202424309Y-103932427D01*
X202420014Y-103986974D01*
X202407714Y-104127568D01*
X202404760Y-104145708D01*
X202385676Y-104225198D01*
X202385277Y-104226772D01*
X202355817Y-104336714D01*
X202353208Y-104344400D01*
X202317870Y-104429717D01*
X202316780Y-104432194D01*
X202271193Y-104529955D01*
X202267863Y-104536153D01*
X202218461Y-104616767D01*
X202216385Y-104619934D01*
X202155707Y-104706592D01*
X202152062Y-104711300D01*
X202090118Y-104783827D01*
X202086812Y-104787403D01*
X202012403Y-104861812D01*
X202008827Y-104865118D01*
X201936300Y-104927062D01*
X201931592Y-104930707D01*
X201844934Y-104991385D01*
X201841767Y-104993461D01*
X201761153Y-105042863D01*
X201754955Y-105046193D01*
X201657194Y-105091780D01*
X201654717Y-105092870D01*
X201569400Y-105128208D01*
X201561714Y-105130817D01*
X201451772Y-105160277D01*
X201450198Y-105160676D01*
X201370708Y-105179760D01*
X201352568Y-105182714D01*
X201211974Y-105195014D01*
X201157427Y-105199309D01*
X201152559Y-105199500D01*
X39733441Y-105199500D01*
X39728573Y-105199309D01*
X39674024Y-105195014D01*
X39533430Y-105182714D01*
X39515290Y-105179760D01*
X39435800Y-105160676D01*
X39434226Y-105160277D01*
X39324284Y-105130817D01*
X39316598Y-105128208D01*
X39231281Y-105092870D01*
X39228804Y-105091780D01*
X39131043Y-105046193D01*
X39124845Y-105042863D01*
X39044231Y-104993461D01*
X39041064Y-104991385D01*
X39008182Y-104968361D01*
X38954399Y-104930702D01*
X38949708Y-104927070D01*
X38877162Y-104865109D01*
X38873608Y-104861824D01*
X38799173Y-104787389D01*
X38795892Y-104783840D01*
X38733924Y-104711285D01*
X38730302Y-104706606D01*
X38669608Y-104619927D01*
X38667537Y-104616767D01*
X38650182Y-104588448D01*
X38618128Y-104536140D01*
X38614813Y-104529970D01*
X38569201Y-104432156D01*
X38568136Y-104429737D01*
X38553120Y-104393484D01*
X38532790Y-104344400D01*
X38530181Y-104336714D01*
X38513350Y-104273901D01*
X38500702Y-104226699D01*
X38500333Y-104225242D01*
X38481236Y-104145698D01*
X38478285Y-104127579D01*
X38465984Y-103986974D01*
X38461691Y-103932426D01*
X38461500Y-103927560D01*
X38461500Y-103000000D01*
X39305341Y-103000000D01*
X39325936Y-103235403D01*
X39325938Y-103235413D01*
X39387094Y-103463655D01*
X39387096Y-103463659D01*
X39387097Y-103463663D01*
X39437030Y-103570745D01*
X39486964Y-103677828D01*
X39486965Y-103677830D01*
X39622505Y-103871402D01*
X39789597Y-104038494D01*
X39983169Y-104174034D01*
X39983171Y-104174035D01*
X40197337Y-104273903D01*
X40425592Y-104335063D01*
X40602032Y-104350499D01*
X40602033Y-104350500D01*
X40602034Y-104350500D01*
X40719967Y-104350500D01*
X40719967Y-104350499D01*
X40896408Y-104335063D01*
X41124663Y-104273903D01*
X41338829Y-104174035D01*
X41532401Y-104038495D01*
X41699495Y-103871401D01*
X41835035Y-103677830D01*
X41934903Y-103463663D01*
X41996063Y-103235408D01*
X42016659Y-103000000D01*
X84419341Y-103000000D01*
X84439936Y-103235403D01*
X84439938Y-103235413D01*
X84501094Y-103463655D01*
X84501096Y-103463659D01*
X84501097Y-103463663D01*
X84551031Y-103570745D01*
X84600964Y-103677828D01*
X84600965Y-103677830D01*
X84736505Y-103871402D01*
X84903597Y-104038494D01*
X85097169Y-104174034D01*
X85097171Y-104174035D01*
X85311337Y-104273903D01*
X85539592Y-104335063D01*
X85716032Y-104350499D01*
X85716033Y-104350500D01*
X85716034Y-104350500D01*
X85833967Y-104350500D01*
X85833967Y-104350499D01*
X86010408Y-104335063D01*
X86238663Y-104273903D01*
X86452829Y-104174035D01*
X86646401Y-104038495D01*
X86813495Y-103871401D01*
X86949035Y-103677830D01*
X87048903Y-103463663D01*
X87110063Y-103235408D01*
X87130659Y-103000000D01*
X87110063Y-102764592D01*
X87048903Y-102536337D01*
X86949035Y-102322171D01*
X86949034Y-102322169D01*
X86813494Y-102128597D01*
X86646402Y-101961505D01*
X86452830Y-101825965D01*
X86452828Y-101825964D01*
X86345746Y-101776031D01*
X86238663Y-101726097D01*
X86238659Y-101726096D01*
X86238655Y-101726094D01*
X86010413Y-101664938D01*
X86010403Y-101664936D01*
X85833967Y-101649500D01*
X85833966Y-101649500D01*
X85716034Y-101649500D01*
X85716033Y-101649500D01*
X85539596Y-101664936D01*
X85539586Y-101664938D01*
X85311344Y-101726094D01*
X85311335Y-101726098D01*
X85097171Y-101825964D01*
X85097169Y-101825965D01*
X84903597Y-101961505D01*
X84736506Y-102128597D01*
X84736501Y-102128604D01*
X84600967Y-102322165D01*
X84600965Y-102322169D01*
X84501098Y-102536335D01*
X84501094Y-102536344D01*
X84439938Y-102764586D01*
X84439936Y-102764596D01*
X84419341Y-102999999D01*
X84419341Y-103000000D01*
X42016659Y-103000000D01*
X41996063Y-102764592D01*
X41934903Y-102536337D01*
X41835035Y-102322171D01*
X41835034Y-102322169D01*
X41699494Y-102128597D01*
X41532402Y-101961505D01*
X41338830Y-101825965D01*
X41338828Y-101825964D01*
X41231746Y-101776030D01*
X41124663Y-101726097D01*
X41124659Y-101726096D01*
X41124655Y-101726094D01*
X40896413Y-101664938D01*
X40896403Y-101664936D01*
X40719967Y-101649500D01*
X40719966Y-101649500D01*
X40602034Y-101649500D01*
X40602033Y-101649500D01*
X40425596Y-101664936D01*
X40425586Y-101664938D01*
X40197344Y-101726094D01*
X40197335Y-101726098D01*
X39983171Y-101825964D01*
X39983169Y-101825965D01*
X39789597Y-101961505D01*
X39622506Y-102128597D01*
X39622501Y-102128604D01*
X39486967Y-102322165D01*
X39486965Y-102322169D01*
X39387098Y-102536335D01*
X39387094Y-102536344D01*
X39325938Y-102764586D01*
X39325936Y-102764596D01*
X39305341Y-102999999D01*
X39305341Y-103000000D01*
X38461500Y-103000000D01*
X38461500Y-86150000D01*
X105819341Y-86150000D01*
X105839936Y-86385403D01*
X105839938Y-86385413D01*
X105901094Y-86613655D01*
X105901096Y-86613659D01*
X105901097Y-86613663D01*
X105951031Y-86720745D01*
X106000964Y-86827828D01*
X106000965Y-86827830D01*
X106136505Y-87021402D01*
X106303597Y-87188494D01*
X106497169Y-87324034D01*
X106497171Y-87324035D01*
X106711337Y-87423903D01*
X106939592Y-87485063D01*
X107116032Y-87500499D01*
X107116033Y-87500500D01*
X107116034Y-87500500D01*
X107233967Y-87500500D01*
X107233967Y-87500499D01*
X107410408Y-87485063D01*
X107638663Y-87423903D01*
X107852829Y-87324035D01*
X108046401Y-87188495D01*
X108213495Y-87021401D01*
X108349035Y-86827830D01*
X108448903Y-86613663D01*
X108510063Y-86385408D01*
X108530659Y-86150000D01*
X182019341Y-86150000D01*
X182039936Y-86385403D01*
X182039938Y-86385413D01*
X182101094Y-86613655D01*
X182101096Y-86613659D01*
X182101097Y-86613663D01*
X182151030Y-86720746D01*
X182200964Y-86827828D01*
X182200965Y-86827830D01*
X182336505Y-87021402D01*
X182503597Y-87188494D01*
X182697169Y-87324034D01*
X182697171Y-87324035D01*
X182911337Y-87423903D01*
X183139592Y-87485063D01*
X183316032Y-87500499D01*
X183316033Y-87500500D01*
X183316034Y-87500500D01*
X183433967Y-87500500D01*
X183433967Y-87500499D01*
X183610408Y-87485063D01*
X183838663Y-87423903D01*
X184052829Y-87324035D01*
X184246401Y-87188495D01*
X184413495Y-87021401D01*
X184549035Y-86827830D01*
X184648903Y-86613663D01*
X184710063Y-86385408D01*
X184730659Y-86150000D01*
X184710063Y-85914592D01*
X184648903Y-85686337D01*
X184549035Y-85472171D01*
X184549034Y-85472169D01*
X184413494Y-85278597D01*
X184246402Y-85111505D01*
X184052830Y-84975965D01*
X184052828Y-84975964D01*
X183945746Y-84926031D01*
X183838663Y-84876097D01*
X183838659Y-84876096D01*
X183838655Y-84876094D01*
X183610413Y-84814938D01*
X183610403Y-84814936D01*
X183433967Y-84799500D01*
X183433966Y-84799500D01*
X183316034Y-84799500D01*
X183316033Y-84799500D01*
X183139596Y-84814936D01*
X183139586Y-84814938D01*
X182911344Y-84876094D01*
X182911335Y-84876098D01*
X182697171Y-84975964D01*
X182697169Y-84975965D01*
X182503597Y-85111505D01*
X182336506Y-85278597D01*
X182336501Y-85278604D01*
X182200967Y-85472165D01*
X182200965Y-85472169D01*
X182101098Y-85686335D01*
X182101094Y-85686344D01*
X182039938Y-85914586D01*
X182039936Y-85914596D01*
X182019341Y-86149999D01*
X182019341Y-86150000D01*
X108530659Y-86150000D01*
X108510063Y-85914592D01*
X108448903Y-85686337D01*
X108349035Y-85472171D01*
X108349034Y-85472169D01*
X108213494Y-85278597D01*
X108046402Y-85111505D01*
X107852830Y-84975965D01*
X107852828Y-84975964D01*
X107745746Y-84926030D01*
X107638663Y-84876097D01*
X107638659Y-84876096D01*
X107638655Y-84876094D01*
X107410413Y-84814938D01*
X107410403Y-84814936D01*
X107233967Y-84799500D01*
X107233966Y-84799500D01*
X107116034Y-84799500D01*
X107116033Y-84799500D01*
X106939596Y-84814936D01*
X106939586Y-84814938D01*
X106711344Y-84876094D01*
X106711335Y-84876098D01*
X106497171Y-84975964D01*
X106497169Y-84975965D01*
X106303597Y-85111505D01*
X106136506Y-85278597D01*
X106136501Y-85278604D01*
X106000967Y-85472165D01*
X106000965Y-85472169D01*
X105901098Y-85686335D01*
X105901094Y-85686344D01*
X105839938Y-85914586D01*
X105839936Y-85914596D01*
X105819341Y-86149999D01*
X105819341Y-86150000D01*
X38461500Y-86150000D01*
X38461500Y-57886000D01*
X39305341Y-57886000D01*
X39325936Y-58121403D01*
X39325938Y-58121413D01*
X39387094Y-58349655D01*
X39387096Y-58349659D01*
X39387097Y-58349663D01*
X39437030Y-58456745D01*
X39486964Y-58563828D01*
X39486965Y-58563830D01*
X39622505Y-58757402D01*
X39789597Y-58924494D01*
X39983169Y-59060034D01*
X39983171Y-59060035D01*
X40197337Y-59159903D01*
X40425592Y-59221063D01*
X40602032Y-59236499D01*
X40602033Y-59236500D01*
X40602034Y-59236500D01*
X40719967Y-59236500D01*
X40719967Y-59236499D01*
X40896408Y-59221063D01*
X41124663Y-59159903D01*
X41338829Y-59060035D01*
X41532401Y-58924495D01*
X41699495Y-58757401D01*
X41835035Y-58563830D01*
X41934903Y-58349663D01*
X41996063Y-58121408D01*
X42016659Y-57886000D01*
X84419341Y-57886000D01*
X84439936Y-58121403D01*
X84439938Y-58121413D01*
X84501094Y-58349655D01*
X84501096Y-58349659D01*
X84501097Y-58349663D01*
X84551031Y-58456745D01*
X84600964Y-58563828D01*
X84600965Y-58563830D01*
X84736505Y-58757402D01*
X84903597Y-58924494D01*
X85097169Y-59060034D01*
X85097171Y-59060035D01*
X85311337Y-59159903D01*
X85539592Y-59221063D01*
X85716032Y-59236499D01*
X85716033Y-59236500D01*
X85716034Y-59236500D01*
X85833967Y-59236500D01*
X85833967Y-59236499D01*
X86010408Y-59221063D01*
X86238663Y-59159903D01*
X86452829Y-59060035D01*
X86646401Y-58924495D01*
X86813495Y-58757401D01*
X86949035Y-58563830D01*
X87048903Y-58349663D01*
X87110063Y-58121408D01*
X87130659Y-57886000D01*
X87110063Y-57650592D01*
X87048903Y-57422337D01*
X86949035Y-57208171D01*
X86949034Y-57208169D01*
X86813494Y-57014597D01*
X86646402Y-56847505D01*
X86452830Y-56711965D01*
X86452828Y-56711964D01*
X86345745Y-56662030D01*
X86238663Y-56612097D01*
X86238659Y-56612096D01*
X86238655Y-56612094D01*
X86010413Y-56550938D01*
X86010403Y-56550936D01*
X85833967Y-56535500D01*
X85833966Y-56535500D01*
X85716034Y-56535500D01*
X85716033Y-56535500D01*
X85539596Y-56550936D01*
X85539586Y-56550938D01*
X85311344Y-56612094D01*
X85311335Y-56612098D01*
X85097171Y-56711964D01*
X85097169Y-56711965D01*
X84903597Y-56847505D01*
X84736506Y-57014597D01*
X84736501Y-57014604D01*
X84600967Y-57208165D01*
X84600965Y-57208169D01*
X84501098Y-57422335D01*
X84501094Y-57422344D01*
X84439938Y-57650586D01*
X84439936Y-57650596D01*
X84419341Y-57885999D01*
X84419341Y-57886000D01*
X42016659Y-57886000D01*
X41996063Y-57650592D01*
X41934903Y-57422337D01*
X41835035Y-57208171D01*
X41835034Y-57208169D01*
X41699494Y-57014597D01*
X41532402Y-56847505D01*
X41338830Y-56711965D01*
X41338828Y-56711964D01*
X41231746Y-56662030D01*
X41124663Y-56612097D01*
X41124659Y-56612096D01*
X41124655Y-56612094D01*
X40896413Y-56550938D01*
X40896403Y-56550936D01*
X40719967Y-56535500D01*
X40719966Y-56535500D01*
X40602034Y-56535500D01*
X40602033Y-56535500D01*
X40425596Y-56550936D01*
X40425586Y-56550938D01*
X40197344Y-56612094D01*
X40197335Y-56612098D01*
X39983171Y-56711964D01*
X39983169Y-56711965D01*
X39789597Y-56847505D01*
X39622506Y-57014597D01*
X39622501Y-57014604D01*
X39486967Y-57208165D01*
X39486965Y-57208169D01*
X39387098Y-57422335D01*
X39387094Y-57422344D01*
X39325938Y-57650586D01*
X39325936Y-57650596D01*
X39305341Y-57885999D01*
X39305341Y-57886000D01*
X38461500Y-57886000D01*
X38461500Y-48050000D01*
X105819341Y-48050000D01*
X105839936Y-48285403D01*
X105839938Y-48285413D01*
X105901094Y-48513655D01*
X105901096Y-48513659D01*
X105901097Y-48513663D01*
X105951031Y-48620745D01*
X106000964Y-48727828D01*
X106000965Y-48727830D01*
X106136505Y-48921402D01*
X106303597Y-49088494D01*
X106497169Y-49224034D01*
X106497171Y-49224035D01*
X106711337Y-49323903D01*
X106939592Y-49385063D01*
X107116032Y-49400499D01*
X107116033Y-49400500D01*
X107116034Y-49400500D01*
X107233967Y-49400500D01*
X107233967Y-49400499D01*
X107410408Y-49385063D01*
X107638663Y-49323903D01*
X107852829Y-49224035D01*
X108046401Y-49088495D01*
X108213495Y-48921401D01*
X108349035Y-48727830D01*
X108448903Y-48513663D01*
X108510063Y-48285408D01*
X108530659Y-48050000D01*
X182019341Y-48050000D01*
X182039936Y-48285403D01*
X182039938Y-48285413D01*
X182101094Y-48513655D01*
X182101096Y-48513659D01*
X182101097Y-48513663D01*
X182151031Y-48620746D01*
X182200964Y-48727828D01*
X182200965Y-48727830D01*
X182336505Y-48921402D01*
X182503597Y-49088494D01*
X182697169Y-49224034D01*
X182697171Y-49224035D01*
X182911337Y-49323903D01*
X183139592Y-49385063D01*
X183316032Y-49400499D01*
X183316033Y-49400500D01*
X183316034Y-49400500D01*
X183433967Y-49400500D01*
X183433967Y-49400499D01*
X183610408Y-49385063D01*
X183838663Y-49323903D01*
X184052829Y-49224035D01*
X184246401Y-49088495D01*
X184413495Y-48921401D01*
X184549035Y-48727830D01*
X184648903Y-48513663D01*
X184710063Y-48285408D01*
X184730659Y-48050000D01*
X184710063Y-47814592D01*
X184648903Y-47586337D01*
X184549035Y-47372171D01*
X184549034Y-47372169D01*
X184413494Y-47178597D01*
X184246402Y-47011505D01*
X184052830Y-46875965D01*
X184052828Y-46875964D01*
X183945746Y-46826030D01*
X183838663Y-46776097D01*
X183838659Y-46776096D01*
X183838655Y-46776094D01*
X183610413Y-46714938D01*
X183610403Y-46714936D01*
X183433967Y-46699500D01*
X183433966Y-46699500D01*
X183316034Y-46699500D01*
X183316033Y-46699500D01*
X183139596Y-46714936D01*
X183139586Y-46714938D01*
X182911344Y-46776094D01*
X182911335Y-46776098D01*
X182697171Y-46875964D01*
X182697169Y-46875965D01*
X182503597Y-47011505D01*
X182336506Y-47178597D01*
X182336501Y-47178604D01*
X182200967Y-47372165D01*
X182200965Y-47372169D01*
X182101098Y-47586335D01*
X182101094Y-47586344D01*
X182039938Y-47814586D01*
X182039936Y-47814596D01*
X182019341Y-48049999D01*
X182019341Y-48050000D01*
X108530659Y-48050000D01*
X108510063Y-47814592D01*
X108448903Y-47586337D01*
X108349035Y-47372171D01*
X108349034Y-47372169D01*
X108213494Y-47178597D01*
X108046402Y-47011505D01*
X107852830Y-46875965D01*
X107852828Y-46875964D01*
X107745745Y-46826031D01*
X107638663Y-46776097D01*
X107638659Y-46776096D01*
X107638655Y-46776094D01*
X107410413Y-46714938D01*
X107410403Y-46714936D01*
X107233967Y-46699500D01*
X107233966Y-46699500D01*
X107116034Y-46699500D01*
X107116033Y-46699500D01*
X106939596Y-46714936D01*
X106939586Y-46714938D01*
X106711344Y-46776094D01*
X106711335Y-46776098D01*
X106497171Y-46875964D01*
X106497169Y-46875965D01*
X106303597Y-47011505D01*
X106136506Y-47178597D01*
X106136501Y-47178604D01*
X106000967Y-47372165D01*
X106000965Y-47372169D01*
X105901098Y-47586335D01*
X105901094Y-47586344D01*
X105839938Y-47814586D01*
X105839936Y-47814596D01*
X105819341Y-48049999D01*
X105819341Y-48050000D01*
X38461500Y-48050000D01*
X38461500Y-31200000D01*
X39305341Y-31200000D01*
X39325936Y-31435403D01*
X39325938Y-31435413D01*
X39387094Y-31663655D01*
X39387096Y-31663659D01*
X39387097Y-31663663D01*
X39437031Y-31770746D01*
X39486964Y-31877828D01*
X39486965Y-31877830D01*
X39622505Y-32071402D01*
X39789597Y-32238494D01*
X39983169Y-32374034D01*
X39983171Y-32374035D01*
X40197337Y-32473903D01*
X40425592Y-32535063D01*
X40602032Y-32550499D01*
X40602033Y-32550500D01*
X40602034Y-32550500D01*
X40719967Y-32550500D01*
X40719967Y-32550499D01*
X40896408Y-32535063D01*
X41124663Y-32473903D01*
X41338829Y-32374035D01*
X41532401Y-32238495D01*
X41699495Y-32071401D01*
X41835035Y-31877830D01*
X41934903Y-31663663D01*
X41996063Y-31435408D01*
X42016659Y-31200000D01*
X84419341Y-31200000D01*
X84439936Y-31435403D01*
X84439938Y-31435413D01*
X84501094Y-31663655D01*
X84501096Y-31663659D01*
X84501097Y-31663663D01*
X84551030Y-31770745D01*
X84600964Y-31877828D01*
X84600965Y-31877830D01*
X84736505Y-32071402D01*
X84903597Y-32238494D01*
X85097169Y-32374034D01*
X85097171Y-32374035D01*
X85311337Y-32473903D01*
X85539592Y-32535063D01*
X85716032Y-32550499D01*
X85716033Y-32550500D01*
X85716034Y-32550500D01*
X85833967Y-32550500D01*
X85833967Y-32550499D01*
X86010408Y-32535063D01*
X86238663Y-32473903D01*
X86452829Y-32374035D01*
X86646401Y-32238495D01*
X86813495Y-32071401D01*
X86949035Y-31877830D01*
X87048903Y-31663663D01*
X87110063Y-31435408D01*
X87130659Y-31200000D01*
X87110063Y-30964592D01*
X87048903Y-30736337D01*
X86949035Y-30522171D01*
X86949034Y-30522169D01*
X86813494Y-30328597D01*
X86646402Y-30161505D01*
X86452830Y-30025965D01*
X86452828Y-30025964D01*
X86338152Y-29972490D01*
X86238663Y-29926097D01*
X86238659Y-29926096D01*
X86238655Y-29926094D01*
X86010413Y-29864938D01*
X86010403Y-29864936D01*
X85833967Y-29849500D01*
X85833966Y-29849500D01*
X85716034Y-29849500D01*
X85716033Y-29849500D01*
X85539596Y-29864936D01*
X85539586Y-29864938D01*
X85311344Y-29926094D01*
X85311335Y-29926098D01*
X85097171Y-30025964D01*
X85097169Y-30025965D01*
X84903597Y-30161505D01*
X84736506Y-30328597D01*
X84736501Y-30328604D01*
X84600967Y-30522165D01*
X84600965Y-30522169D01*
X84501098Y-30736335D01*
X84501094Y-30736344D01*
X84439938Y-30964586D01*
X84439936Y-30964596D01*
X84419341Y-31199999D01*
X84419341Y-31200000D01*
X42016659Y-31200000D01*
X41996063Y-30964592D01*
X41934903Y-30736337D01*
X41835035Y-30522171D01*
X41835034Y-30522169D01*
X41699494Y-30328597D01*
X41532402Y-30161505D01*
X41338830Y-30025965D01*
X41338828Y-30025964D01*
X41224152Y-29972490D01*
X41124663Y-29926097D01*
X41124659Y-29926096D01*
X41124655Y-29926094D01*
X40896413Y-29864938D01*
X40896403Y-29864936D01*
X40719967Y-29849500D01*
X40719966Y-29849500D01*
X40602034Y-29849500D01*
X40602033Y-29849500D01*
X40425596Y-29864936D01*
X40425586Y-29864938D01*
X40197344Y-29926094D01*
X40197335Y-29926098D01*
X39983171Y-30025964D01*
X39983169Y-30025965D01*
X39789597Y-30161505D01*
X39622506Y-30328597D01*
X39622501Y-30328604D01*
X39486967Y-30522165D01*
X39486965Y-30522169D01*
X39387098Y-30736335D01*
X39387094Y-30736344D01*
X39325938Y-30964586D01*
X39325936Y-30964596D01*
X39305341Y-31199999D01*
X39305341Y-31200000D01*
X38461500Y-31200000D01*
X38461500Y-30272439D01*
X38461691Y-30267573D01*
X38461691Y-30267572D01*
X38465984Y-30213024D01*
X38478286Y-30072416D01*
X38481235Y-30054305D01*
X38500342Y-29974719D01*
X38500693Y-29973335D01*
X38530182Y-29863280D01*
X38532790Y-29855598D01*
X38535316Y-29849500D01*
X38568151Y-29770228D01*
X38569185Y-29767877D01*
X38614820Y-29670014D01*
X38618119Y-29663873D01*
X38667548Y-29583213D01*
X38669587Y-29580102D01*
X38730316Y-29493372D01*
X38733908Y-29488733D01*
X38795914Y-29416133D01*
X38799149Y-29412634D01*
X38873634Y-29338149D01*
X38877133Y-29334914D01*
X38949733Y-29272908D01*
X38954372Y-29269316D01*
X39041102Y-29208587D01*
X39044213Y-29206548D01*
X39124873Y-29157119D01*
X39131014Y-29153820D01*
X39228877Y-29108185D01*
X39231228Y-29107151D01*
X39316599Y-29071789D01*
X39324280Y-29069182D01*
X39434335Y-29039693D01*
X39435719Y-29039342D01*
X39515305Y-29020235D01*
X39533416Y-29017286D01*
X39674043Y-29004982D01*
X39721497Y-29001247D01*
X39728575Y-29000691D01*
X39733440Y-29000500D01*
X201152560Y-29000500D01*
X201157426Y-29000691D01*
G37*
%TD.AperFunction*%
M02*
