M48
; DRILL file {KiCad 7.0.5} date Fri Aug  2 09:59:58 2024
; FORMAT={-:-/ absolute / metric / decimal}
; #@! TF.CreationDate,2024-08-02T09:59:58+08:00
; #@! TF.GenerationSoftware,Kicad,Pcbnew,7.0.5
; #@! TF.FileFunction,NonPlated,1,2,NPTH
FMAT,2
METRIC
; #@! TA.AperFunction,NonPlated,NPTH,ComponentDrill
T1C0.800
; #@! TA.AperFunction,NonPlated,NPTH,ComponentDrill
T2C1.900
; #@! TA.AperFunction,NonPlated,NPTH,ComponentDrill
T3C2.200
; #@! TA.AperFunction,NonPlated,NPTH,ComponentDrill
T4C3.050
; #@! TA.AperFunction,NonPlated,NPTH,ComponentDrill
T5C3.500
; #@! TA.AperFunction,NonPlated,NPTH,ComponentDrill
T6C5.100
%
G90
G05
T1
X77.214Y-30.75
X77.214Y-37.75
X79.214Y-30.75
X79.214Y-37.75
T2
X92.15Y-38.525
X92.15Y-57.575
X92.15Y-76.625
X92.15Y-95.675
X103.15Y-38.525
X103.15Y-57.575
X103.15Y-76.625
X103.15Y-95.675
X111.2Y-38.525
X111.2Y-57.575
X111.2Y-76.625
X111.2Y-95.675
X122.2Y-38.525
X122.2Y-57.575
X122.2Y-76.625
X122.2Y-95.675
X130.25Y-38.525
X130.25Y-57.575
X130.25Y-76.625
X130.25Y-95.675
X141.25Y-38.525
X141.25Y-57.575
X141.25Y-76.625
X141.25Y-95.675
X149.3Y-38.525
X149.3Y-57.575
X149.3Y-76.625
X149.3Y-95.675
X160.3Y-38.525
X160.3Y-57.575
X160.3Y-76.625
X160.3Y-95.675
X168.35Y-38.525
X168.35Y-57.575
X168.35Y-76.625
X168.35Y-95.675
X179.35Y-38.525
X179.35Y-57.575
X179.35Y-76.625
X179.35Y-95.675
X187.4Y-38.525
X187.4Y-57.575
X187.4Y-76.625
X187.4Y-95.675
X198.4Y-38.525
X198.4Y-57.575
X198.4Y-76.625
X198.4Y-95.675
T3
X40.661Y-31.2
X85.775Y-31.2
T4
X97.65Y-32.625
X97.65Y-51.675
X97.65Y-70.725
X97.65Y-89.775
X116.7Y-32.625
X116.7Y-51.675
X116.7Y-70.725
X116.7Y-89.775
X135.75Y-32.625
X135.75Y-51.675
X135.75Y-70.725
X135.75Y-89.775
X154.8Y-32.625
X154.8Y-51.675
X154.8Y-70.725
X154.8Y-89.775
X173.85Y-32.625
X173.85Y-51.675
X173.85Y-70.725
X173.85Y-89.775
X192.9Y-32.625
X192.9Y-51.675
X192.9Y-70.725
X192.9Y-89.775
T5
X107.175Y-48.05
X107.175Y-86.15
X183.375Y-48.05
X183.375Y-86.15
T6
X97.65Y-38.525
X97.65Y-57.575
X97.65Y-76.625
X97.65Y-95.675
X116.7Y-38.525
X116.7Y-57.575
X116.7Y-76.625
X116.7Y-95.675
X135.75Y-38.525
X135.75Y-57.575
X135.75Y-76.625
X135.75Y-95.675
X154.8Y-38.525
X154.8Y-57.575
X154.8Y-76.625
X154.8Y-95.675
X173.85Y-38.525
X173.85Y-57.575
X173.85Y-76.625
X173.85Y-95.675
X192.9Y-38.525
X192.9Y-57.575
X192.9Y-76.625
X192.9Y-95.675
T3
X42.651Y-59.876G85X40.671Y-57.896
G05
X42.651Y-101.01G85X40.671Y-102.99
G05
X83.785Y-59.876G85X85.765Y-57.896
G05
X85.765Y-102.99G85X83.785Y-101.01
G05
T0
M30
