%TF.GenerationSoftware,KiCad,Pcbnew,7.0.5*%
%TF.CreationDate,2024-08-02T10:00:01+08:00*%
%TF.ProjectId,TPS,5450532e-6b69-4636-9164-5f7063625858,rev?*%
%TF.SameCoordinates,Original*%
%TF.FileFunction,Paste,Bot*%
%TF.FilePolarity,Positive*%
%FSLAX46Y46*%
G04 Gerber Fmt 4.6, Leading zero omitted, Abs format (unit mm)*
G04 Created by KiCad (PCBNEW 7.0.5) date 2024-08-02 10:00:01*
%MOMM*%
%LPD*%
G01*
G04 APERTURE LIST*
G04 Aperture macros list*
%AMRoundRect*
0 Rectangle with rounded corners*
0 $1 Rounding radius*
0 $2 $3 $4 $5 $6 $7 $8 $9 X,Y pos of 4 corners*
0 Add a 4 corners polygon primitive as box body*
4,1,4,$2,$3,$4,$5,$6,$7,$8,$9,$2,$3,0*
0 Add four circle primitives for the rounded corners*
1,1,$1+$1,$2,$3*
1,1,$1+$1,$4,$5*
1,1,$1+$1,$6,$7*
1,1,$1+$1,$8,$9*
0 Add four rect primitives between the rounded corners*
20,1,$1+$1,$2,$3,$4,$5,0*
20,1,$1+$1,$4,$5,$6,$7,0*
20,1,$1+$1,$6,$7,$8,$9,0*
20,1,$1+$1,$8,$9,$2,$3,0*%
G04 Aperture macros list end*
%ADD10RoundRect,0.250000X-1.000000X-1.000000X1.000000X-1.000000X1.000000X1.000000X-1.000000X1.000000X0*%
%ADD11RoundRect,0.225000X-0.225000X-0.375000X0.225000X-0.375000X0.225000X0.375000X-0.225000X0.375000X0*%
%ADD12R,1.800000X2.200000*%
%ADD13R,0.300000X1.300000*%
G04 APERTURE END LIST*
D10*
%TO.C,SW16*%
X161075000Y-101425000D03*
X162900000Y-91875000D03*
X146760000Y-100375000D03*
X151500000Y-89675000D03*
%TD*%
%TO.C,SW3*%
X103925000Y-82375000D03*
X105750000Y-72825000D03*
X89610000Y-81325000D03*
X94350000Y-70625000D03*
%TD*%
%TO.C,SW4*%
X103925000Y-101425000D03*
X105750000Y-91875000D03*
X89610000Y-100375000D03*
X94350000Y-89675000D03*
%TD*%
%TO.C,SW1*%
X103925000Y-44275000D03*
X105750000Y-34725000D03*
X89610000Y-43225000D03*
X94350000Y-32525000D03*
%TD*%
%TO.C,SW7*%
X122975000Y-82375000D03*
X124800000Y-72825000D03*
X108660000Y-81325000D03*
X113400000Y-70625000D03*
%TD*%
%TO.C,SW9*%
X142025000Y-44275000D03*
X143850000Y-34725000D03*
X127710000Y-43225000D03*
X132450000Y-32525000D03*
%TD*%
%TO.C,SW17*%
X180125000Y-44275000D03*
X181950000Y-34725000D03*
X165810000Y-43225000D03*
X170550000Y-32525000D03*
%TD*%
%TO.C,SW22*%
X199175000Y-63325000D03*
X201000000Y-53775000D03*
X184860000Y-62275000D03*
X189600000Y-51575000D03*
%TD*%
%TO.C,SW21*%
X199175000Y-44275000D03*
X201000000Y-34725000D03*
X184860000Y-43225000D03*
X189600000Y-32525000D03*
%TD*%
%TO.C,SW23*%
X199175000Y-82375000D03*
X201000000Y-72825000D03*
X184860000Y-81325000D03*
X189600000Y-70625000D03*
%TD*%
%TO.C,SW18*%
X180125000Y-63325000D03*
X181950000Y-53775000D03*
X165810000Y-62275000D03*
X170550000Y-51575000D03*
%TD*%
%TO.C,SW13*%
X161075000Y-44275000D03*
X162900000Y-34725000D03*
X146760000Y-43225000D03*
X151500000Y-32525000D03*
%TD*%
%TO.C,SW12*%
X142025000Y-101425000D03*
X143850000Y-91875000D03*
X127710000Y-100375000D03*
X132450000Y-89675000D03*
%TD*%
%TO.C,SW14*%
X161075000Y-63325000D03*
X162900000Y-53775000D03*
X146760000Y-62275000D03*
X151500000Y-51575000D03*
%TD*%
%TO.C,SW5*%
X122975000Y-44275000D03*
X124800000Y-34725000D03*
X108660000Y-43225000D03*
X113400000Y-32525000D03*
%TD*%
%TO.C,SW11*%
X142025000Y-82375000D03*
X143850000Y-72825000D03*
X127710000Y-81325000D03*
X132450000Y-70625000D03*
%TD*%
%TO.C,SW20*%
X180125000Y-101425000D03*
X181950000Y-91875000D03*
X165810000Y-100375000D03*
X170550000Y-89675000D03*
%TD*%
%TO.C,SW15*%
X161075000Y-82375000D03*
X162900000Y-72825000D03*
X146760000Y-81325000D03*
X151500000Y-70625000D03*
%TD*%
%TO.C,SW10*%
X142025000Y-63325000D03*
X143850000Y-53775000D03*
X127710000Y-62275000D03*
X132450000Y-51575000D03*
%TD*%
%TO.C,SW6*%
X122975000Y-63325000D03*
X124800000Y-53775000D03*
X108660000Y-62275000D03*
X113400000Y-51575000D03*
%TD*%
%TO.C,SW2*%
X103925000Y-63325000D03*
X105750000Y-53775000D03*
X89610000Y-62275000D03*
X94350000Y-51575000D03*
%TD*%
%TO.C,SW24*%
X199175000Y-101425000D03*
X201000000Y-91875000D03*
X184860000Y-100375000D03*
X189600000Y-89675000D03*
%TD*%
%TO.C,SW8*%
X122975000Y-101425000D03*
X124800000Y-91875000D03*
X108660000Y-100375000D03*
X113400000Y-89675000D03*
%TD*%
%TO.C,SW19*%
X180125000Y-82375000D03*
X181950000Y-72825000D03*
X165810000Y-81325000D03*
X170550000Y-70625000D03*
%TD*%
D11*
%TO.C,D13*%
X151400000Y-30000000D03*
X148100000Y-30000000D03*
%TD*%
%TO.C,D20*%
X170580000Y-87150000D03*
X167280000Y-87150000D03*
%TD*%
%TO.C,D1*%
X94250000Y-30000000D03*
X90950000Y-30000000D03*
%TD*%
%TO.C,D18*%
X170450000Y-49050000D03*
X167150000Y-49050000D03*
%TD*%
%TO.C,D22*%
X189500000Y-49050000D03*
X186200000Y-49050000D03*
%TD*%
%TO.C,D6*%
X113300000Y-49050000D03*
X110000000Y-49050000D03*
%TD*%
%TO.C,D2*%
X94250000Y-49050000D03*
X90950000Y-49050000D03*
%TD*%
%TO.C,D7*%
X113300000Y-68100000D03*
X110000000Y-68100000D03*
%TD*%
%TO.C,D19*%
X170580000Y-68100000D03*
X167280000Y-68100000D03*
%TD*%
%TO.C,D12*%
X132350000Y-87150000D03*
X129050000Y-87150000D03*
%TD*%
%TO.C,D25*%
X74571000Y-89075000D03*
X71271000Y-89075000D03*
%TD*%
%TO.C,D4*%
X94250000Y-87150000D03*
X90950000Y-87150000D03*
%TD*%
%TO.C,D14*%
X151400000Y-49050000D03*
X148100000Y-49050000D03*
%TD*%
%TO.C,D11*%
X132350000Y-68100000D03*
X129050000Y-68100000D03*
%TD*%
%TO.C,D10*%
X132350000Y-49050000D03*
X129050000Y-49050000D03*
%TD*%
%TO.C,D16*%
X151400000Y-87150000D03*
X148100000Y-87150000D03*
%TD*%
%TO.C,D17*%
X170450000Y-30000000D03*
X167150000Y-30000000D03*
%TD*%
%TO.C,D3*%
X94250000Y-68100000D03*
X90950000Y-68100000D03*
%TD*%
%TO.C,D15*%
X151400000Y-68100000D03*
X148100000Y-68100000D03*
%TD*%
%TO.C,D8*%
X113300000Y-87150000D03*
X110000000Y-87150000D03*
%TD*%
%TO.C,D9*%
X132350000Y-30000000D03*
X129050000Y-30000000D03*
%TD*%
%TO.C,D24*%
X189500000Y-87150000D03*
X186200000Y-87150000D03*
%TD*%
%TO.C,D21*%
X189500000Y-30000000D03*
X186200000Y-30000000D03*
%TD*%
%TO.C,D5*%
X113300000Y-30000000D03*
X110000000Y-30000000D03*
%TD*%
%TO.C,D23*%
X189500000Y-68100000D03*
X186200000Y-68100000D03*
%TD*%
D12*
%TO.C,J3*%
X67868000Y-92443000D03*
X58568000Y-92443000D03*
D13*
X65968000Y-89193000D03*
X65468000Y-89193000D03*
X64968000Y-89193000D03*
X64468000Y-89193000D03*
X63968000Y-89193000D03*
X63468000Y-89193000D03*
X62968000Y-89193000D03*
X62468000Y-89193000D03*
X61968000Y-89193000D03*
X61468000Y-89193000D03*
X60968000Y-89193000D03*
X60468000Y-89193000D03*
%TD*%
M02*
