%TF.GenerationSoftware,KiCad,Pcbnew,7.0.5*%
%TF.CreationDate,2024-09-25T00:19:19+08:00*%
%TF.ProjectId,TPS,5450532e-6b69-4636-9164-5f7063625858,rev?*%
%TF.SameCoordinates,Original*%
%TF.FileFunction,Drillmap*%
%TF.FilePolarity,Positive*%
%FSLAX45Y45*%
G04 Gerber Fmt 4.5, Leading zero omitted, Abs format (unit mm)*
G04 Created by KiCad (PCBNEW 7.0.5) date 2024-09-25 00:19:19*
%MOMM*%
%LPD*%
G01*
G04 APERTURE LIST*
%ADD10C,0.120000*%
%ADD11C,0.200000*%
%ADD12C,0.220000*%
G04 APERTURE END LIST*
D10*
X8670500Y-2900000D02*
X3973100Y-2900000D01*
X3846100Y-7331600D02*
G75*
G03*
X3973100Y-7458600I127000J0D01*
G01*
X3973100Y-2900000D02*
G75*
G03*
X3846100Y-3027000I0J-127000D01*
G01*
X8797500Y-7331600D02*
X8797500Y-3027000D01*
X8670500Y-7458600D02*
X3973100Y-7458600D01*
X3846100Y-3027000D02*
X3846100Y-7331600D01*
X8670500Y-7458600D02*
G75*
G03*
X8797500Y-7331600I0J127000D01*
G01*
X8797500Y-3027000D02*
G75*
G03*
X8670500Y-2900000I-127000J0D01*
G01*
D11*
D12*
X3956100Y-3010000D02*
X4176100Y-3230000D01*
X4176100Y-3010000D02*
X3956100Y-3230000D01*
X3956100Y-7128600D02*
X4176100Y-7348600D01*
X4176100Y-7128600D02*
X3956100Y-7348600D01*
X8467500Y-3010000D02*
X8687500Y-3230000D01*
X8687500Y-3010000D02*
X8467500Y-3230000D01*
X8467500Y-7128600D02*
X8687500Y-7348600D01*
X8687500Y-7128600D02*
X8467500Y-7348600D01*
D11*
X4100877Y-7776084D02*
X4100877Y-7576084D01*
X4100877Y-7576084D02*
X4148496Y-7576084D01*
X4148496Y-7576084D02*
X4177067Y-7585608D01*
X4177067Y-7585608D02*
X4196115Y-7604655D01*
X4196115Y-7604655D02*
X4205639Y-7623703D01*
X4205639Y-7623703D02*
X4215163Y-7661798D01*
X4215163Y-7661798D02*
X4215163Y-7690369D01*
X4215163Y-7690369D02*
X4205639Y-7728465D01*
X4205639Y-7728465D02*
X4196115Y-7747512D01*
X4196115Y-7747512D02*
X4177067Y-7766560D01*
X4177067Y-7766560D02*
X4148496Y-7776084D01*
X4148496Y-7776084D02*
X4100877Y-7776084D01*
X4300877Y-7776084D02*
X4300877Y-7642750D01*
X4300877Y-7680846D02*
X4310401Y-7661798D01*
X4310401Y-7661798D02*
X4319924Y-7652274D01*
X4319924Y-7652274D02*
X4338972Y-7642750D01*
X4338972Y-7642750D02*
X4358020Y-7642750D01*
X4424686Y-7776084D02*
X4424686Y-7642750D01*
X4424686Y-7576084D02*
X4415163Y-7585608D01*
X4415163Y-7585608D02*
X4424686Y-7595131D01*
X4424686Y-7595131D02*
X4434210Y-7585608D01*
X4434210Y-7585608D02*
X4424686Y-7576084D01*
X4424686Y-7576084D02*
X4424686Y-7595131D01*
X4548496Y-7776084D02*
X4529448Y-7766560D01*
X4529448Y-7766560D02*
X4519924Y-7747512D01*
X4519924Y-7747512D02*
X4519924Y-7576084D01*
X4653258Y-7776084D02*
X4634210Y-7766560D01*
X4634210Y-7766560D02*
X4624686Y-7747512D01*
X4624686Y-7747512D02*
X4624686Y-7576084D01*
X4881829Y-7776084D02*
X4881829Y-7576084D01*
X4881829Y-7576084D02*
X4948496Y-7718941D01*
X4948496Y-7718941D02*
X5015163Y-7576084D01*
X5015163Y-7576084D02*
X5015163Y-7776084D01*
X5196115Y-7776084D02*
X5196115Y-7671322D01*
X5196115Y-7671322D02*
X5186591Y-7652274D01*
X5186591Y-7652274D02*
X5167544Y-7642750D01*
X5167544Y-7642750D02*
X5129448Y-7642750D01*
X5129448Y-7642750D02*
X5110401Y-7652274D01*
X5196115Y-7766560D02*
X5177067Y-7776084D01*
X5177067Y-7776084D02*
X5129448Y-7776084D01*
X5129448Y-7776084D02*
X5110401Y-7766560D01*
X5110401Y-7766560D02*
X5100877Y-7747512D01*
X5100877Y-7747512D02*
X5100877Y-7728465D01*
X5100877Y-7728465D02*
X5110401Y-7709417D01*
X5110401Y-7709417D02*
X5129448Y-7699893D01*
X5129448Y-7699893D02*
X5177067Y-7699893D01*
X5177067Y-7699893D02*
X5196115Y-7690369D01*
X5291353Y-7642750D02*
X5291353Y-7842750D01*
X5291353Y-7652274D02*
X5310401Y-7642750D01*
X5310401Y-7642750D02*
X5348496Y-7642750D01*
X5348496Y-7642750D02*
X5367544Y-7652274D01*
X5367544Y-7652274D02*
X5377067Y-7661798D01*
X5377067Y-7661798D02*
X5386591Y-7680846D01*
X5386591Y-7680846D02*
X5386591Y-7737988D01*
X5386591Y-7737988D02*
X5377067Y-7757036D01*
X5377067Y-7757036D02*
X5367544Y-7766560D01*
X5367544Y-7766560D02*
X5348496Y-7776084D01*
X5348496Y-7776084D02*
X5310401Y-7776084D01*
X5310401Y-7776084D02*
X5291353Y-7766560D01*
X5472305Y-7757036D02*
X5481829Y-7766560D01*
X5481829Y-7766560D02*
X5472305Y-7776084D01*
X5472305Y-7776084D02*
X5462782Y-7766560D01*
X5462782Y-7766560D02*
X5472305Y-7757036D01*
X5472305Y-7757036D02*
X5472305Y-7776084D01*
X5472305Y-7652274D02*
X5481829Y-7661798D01*
X5481829Y-7661798D02*
X5472305Y-7671322D01*
X5472305Y-7671322D02*
X5462782Y-7661798D01*
X5462782Y-7661798D02*
X5472305Y-7652274D01*
X5472305Y-7652274D02*
X5472305Y-7671322D01*
X3640100Y-8004600D02*
X3840100Y-8204600D01*
X3840100Y-8004600D02*
X3640100Y-8204600D01*
X4091353Y-8015131D02*
X4100877Y-8005608D01*
X4100877Y-8005608D02*
X4119924Y-7996084D01*
X4119924Y-7996084D02*
X4167543Y-7996084D01*
X4167543Y-7996084D02*
X4186591Y-8005608D01*
X4186591Y-8005608D02*
X4196115Y-8015131D01*
X4196115Y-8015131D02*
X4205639Y-8034179D01*
X4205639Y-8034179D02*
X4205639Y-8053227D01*
X4205639Y-8053227D02*
X4196115Y-8081798D01*
X4196115Y-8081798D02*
X4081829Y-8196084D01*
X4081829Y-8196084D02*
X4205639Y-8196084D01*
X4291353Y-8177036D02*
X4300877Y-8186560D01*
X4300877Y-8186560D02*
X4291353Y-8196084D01*
X4291353Y-8196084D02*
X4281829Y-8186560D01*
X4281829Y-8186560D02*
X4291353Y-8177036D01*
X4291353Y-8177036D02*
X4291353Y-8196084D01*
X4377067Y-8015131D02*
X4386591Y-8005608D01*
X4386591Y-8005608D02*
X4405639Y-7996084D01*
X4405639Y-7996084D02*
X4453258Y-7996084D01*
X4453258Y-7996084D02*
X4472305Y-8005608D01*
X4472305Y-8005608D02*
X4481829Y-8015131D01*
X4481829Y-8015131D02*
X4491353Y-8034179D01*
X4491353Y-8034179D02*
X4491353Y-8053227D01*
X4491353Y-8053227D02*
X4481829Y-8081798D01*
X4481829Y-8081798D02*
X4367544Y-8196084D01*
X4367544Y-8196084D02*
X4491353Y-8196084D01*
X4615163Y-7996084D02*
X4634210Y-7996084D01*
X4634210Y-7996084D02*
X4653258Y-8005608D01*
X4653258Y-8005608D02*
X4662782Y-8015131D01*
X4662782Y-8015131D02*
X4672305Y-8034179D01*
X4672305Y-8034179D02*
X4681829Y-8072274D01*
X4681829Y-8072274D02*
X4681829Y-8119893D01*
X4681829Y-8119893D02*
X4672305Y-8157988D01*
X4672305Y-8157988D02*
X4662782Y-8177036D01*
X4662782Y-8177036D02*
X4653258Y-8186560D01*
X4653258Y-8186560D02*
X4634210Y-8196084D01*
X4634210Y-8196084D02*
X4615163Y-8196084D01*
X4615163Y-8196084D02*
X4596115Y-8186560D01*
X4596115Y-8186560D02*
X4586591Y-8177036D01*
X4586591Y-8177036D02*
X4577067Y-8157988D01*
X4577067Y-8157988D02*
X4567544Y-8119893D01*
X4567544Y-8119893D02*
X4567544Y-8072274D01*
X4567544Y-8072274D02*
X4577067Y-8034179D01*
X4577067Y-8034179D02*
X4586591Y-8015131D01*
X4586591Y-8015131D02*
X4596115Y-8005608D01*
X4596115Y-8005608D02*
X4615163Y-7996084D01*
X4805639Y-7996084D02*
X4824686Y-7996084D01*
X4824686Y-7996084D02*
X4843734Y-8005608D01*
X4843734Y-8005608D02*
X4853258Y-8015131D01*
X4853258Y-8015131D02*
X4862782Y-8034179D01*
X4862782Y-8034179D02*
X4872305Y-8072274D01*
X4872305Y-8072274D02*
X4872305Y-8119893D01*
X4872305Y-8119893D02*
X4862782Y-8157988D01*
X4862782Y-8157988D02*
X4853258Y-8177036D01*
X4853258Y-8177036D02*
X4843734Y-8186560D01*
X4843734Y-8186560D02*
X4824686Y-8196084D01*
X4824686Y-8196084D02*
X4805639Y-8196084D01*
X4805639Y-8196084D02*
X4786591Y-8186560D01*
X4786591Y-8186560D02*
X4777067Y-8177036D01*
X4777067Y-8177036D02*
X4767544Y-8157988D01*
X4767544Y-8157988D02*
X4758020Y-8119893D01*
X4758020Y-8119893D02*
X4758020Y-8072274D01*
X4758020Y-8072274D02*
X4767544Y-8034179D01*
X4767544Y-8034179D02*
X4777067Y-8015131D01*
X4777067Y-8015131D02*
X4786591Y-8005608D01*
X4786591Y-8005608D02*
X4805639Y-7996084D01*
X4958020Y-8196084D02*
X4958020Y-8062750D01*
X4958020Y-8081798D02*
X4967544Y-8072274D01*
X4967544Y-8072274D02*
X4986591Y-8062750D01*
X4986591Y-8062750D02*
X5015163Y-8062750D01*
X5015163Y-8062750D02*
X5034210Y-8072274D01*
X5034210Y-8072274D02*
X5043734Y-8091322D01*
X5043734Y-8091322D02*
X5043734Y-8196084D01*
X5043734Y-8091322D02*
X5053258Y-8072274D01*
X5053258Y-8072274D02*
X5072305Y-8062750D01*
X5072305Y-8062750D02*
X5100877Y-8062750D01*
X5100877Y-8062750D02*
X5119925Y-8072274D01*
X5119925Y-8072274D02*
X5129448Y-8091322D01*
X5129448Y-8091322D02*
X5129448Y-8196084D01*
X5224686Y-8196084D02*
X5224686Y-8062750D01*
X5224686Y-8081798D02*
X5234210Y-8072274D01*
X5234210Y-8072274D02*
X5253258Y-8062750D01*
X5253258Y-8062750D02*
X5281829Y-8062750D01*
X5281829Y-8062750D02*
X5300877Y-8072274D01*
X5300877Y-8072274D02*
X5310401Y-8091322D01*
X5310401Y-8091322D02*
X5310401Y-8196084D01*
X5310401Y-8091322D02*
X5319925Y-8072274D01*
X5319925Y-8072274D02*
X5338972Y-8062750D01*
X5338972Y-8062750D02*
X5367544Y-8062750D01*
X5367544Y-8062750D02*
X5386591Y-8072274D01*
X5386591Y-8072274D02*
X5396115Y-8091322D01*
X5396115Y-8091322D02*
X5396115Y-8196084D01*
X5786591Y-7986560D02*
X5615163Y-8243703D01*
X6043734Y-7996084D02*
X6062782Y-7996084D01*
X6062782Y-7996084D02*
X6081829Y-8005608D01*
X6081829Y-8005608D02*
X6091353Y-8015131D01*
X6091353Y-8015131D02*
X6100877Y-8034179D01*
X6100877Y-8034179D02*
X6110401Y-8072274D01*
X6110401Y-8072274D02*
X6110401Y-8119893D01*
X6110401Y-8119893D02*
X6100877Y-8157988D01*
X6100877Y-8157988D02*
X6091353Y-8177036D01*
X6091353Y-8177036D02*
X6081829Y-8186560D01*
X6081829Y-8186560D02*
X6062782Y-8196084D01*
X6062782Y-8196084D02*
X6043734Y-8196084D01*
X6043734Y-8196084D02*
X6024686Y-8186560D01*
X6024686Y-8186560D02*
X6015163Y-8177036D01*
X6015163Y-8177036D02*
X6005639Y-8157988D01*
X6005639Y-8157988D02*
X5996115Y-8119893D01*
X5996115Y-8119893D02*
X5996115Y-8072274D01*
X5996115Y-8072274D02*
X6005639Y-8034179D01*
X6005639Y-8034179D02*
X6015163Y-8015131D01*
X6015163Y-8015131D02*
X6024686Y-8005608D01*
X6024686Y-8005608D02*
X6043734Y-7996084D01*
X6196115Y-8177036D02*
X6205639Y-8186560D01*
X6205639Y-8186560D02*
X6196115Y-8196084D01*
X6196115Y-8196084D02*
X6186591Y-8186560D01*
X6186591Y-8186560D02*
X6196115Y-8177036D01*
X6196115Y-8177036D02*
X6196115Y-8196084D01*
X6329448Y-7996084D02*
X6348496Y-7996084D01*
X6348496Y-7996084D02*
X6367544Y-8005608D01*
X6367544Y-8005608D02*
X6377067Y-8015131D01*
X6377067Y-8015131D02*
X6386591Y-8034179D01*
X6386591Y-8034179D02*
X6396115Y-8072274D01*
X6396115Y-8072274D02*
X6396115Y-8119893D01*
X6396115Y-8119893D02*
X6386591Y-8157988D01*
X6386591Y-8157988D02*
X6377067Y-8177036D01*
X6377067Y-8177036D02*
X6367544Y-8186560D01*
X6367544Y-8186560D02*
X6348496Y-8196084D01*
X6348496Y-8196084D02*
X6329448Y-8196084D01*
X6329448Y-8196084D02*
X6310401Y-8186560D01*
X6310401Y-8186560D02*
X6300877Y-8177036D01*
X6300877Y-8177036D02*
X6291353Y-8157988D01*
X6291353Y-8157988D02*
X6281829Y-8119893D01*
X6281829Y-8119893D02*
X6281829Y-8072274D01*
X6281829Y-8072274D02*
X6291353Y-8034179D01*
X6291353Y-8034179D02*
X6300877Y-8015131D01*
X6300877Y-8015131D02*
X6310401Y-8005608D01*
X6310401Y-8005608D02*
X6329448Y-7996084D01*
X6510401Y-8081798D02*
X6491353Y-8072274D01*
X6491353Y-8072274D02*
X6481829Y-8062750D01*
X6481829Y-8062750D02*
X6472306Y-8043703D01*
X6472306Y-8043703D02*
X6472306Y-8034179D01*
X6472306Y-8034179D02*
X6481829Y-8015131D01*
X6481829Y-8015131D02*
X6491353Y-8005608D01*
X6491353Y-8005608D02*
X6510401Y-7996084D01*
X6510401Y-7996084D02*
X6548496Y-7996084D01*
X6548496Y-7996084D02*
X6567544Y-8005608D01*
X6567544Y-8005608D02*
X6577067Y-8015131D01*
X6577067Y-8015131D02*
X6586591Y-8034179D01*
X6586591Y-8034179D02*
X6586591Y-8043703D01*
X6586591Y-8043703D02*
X6577067Y-8062750D01*
X6577067Y-8062750D02*
X6567544Y-8072274D01*
X6567544Y-8072274D02*
X6548496Y-8081798D01*
X6548496Y-8081798D02*
X6510401Y-8081798D01*
X6510401Y-8081798D02*
X6491353Y-8091322D01*
X6491353Y-8091322D02*
X6481829Y-8100846D01*
X6481829Y-8100846D02*
X6472306Y-8119893D01*
X6472306Y-8119893D02*
X6472306Y-8157988D01*
X6472306Y-8157988D02*
X6481829Y-8177036D01*
X6481829Y-8177036D02*
X6491353Y-8186560D01*
X6491353Y-8186560D02*
X6510401Y-8196084D01*
X6510401Y-8196084D02*
X6548496Y-8196084D01*
X6548496Y-8196084D02*
X6567544Y-8186560D01*
X6567544Y-8186560D02*
X6577067Y-8177036D01*
X6577067Y-8177036D02*
X6586591Y-8157988D01*
X6586591Y-8157988D02*
X6586591Y-8119893D01*
X6586591Y-8119893D02*
X6577067Y-8100846D01*
X6577067Y-8100846D02*
X6567544Y-8091322D01*
X6567544Y-8091322D02*
X6548496Y-8081798D01*
X6758020Y-7996084D02*
X6719925Y-7996084D01*
X6719925Y-7996084D02*
X6700877Y-8005608D01*
X6700877Y-8005608D02*
X6691353Y-8015131D01*
X6691353Y-8015131D02*
X6672306Y-8043703D01*
X6672306Y-8043703D02*
X6662782Y-8081798D01*
X6662782Y-8081798D02*
X6662782Y-8157988D01*
X6662782Y-8157988D02*
X6672306Y-8177036D01*
X6672306Y-8177036D02*
X6681829Y-8186560D01*
X6681829Y-8186560D02*
X6700877Y-8196084D01*
X6700877Y-8196084D02*
X6738972Y-8196084D01*
X6738972Y-8196084D02*
X6758020Y-8186560D01*
X6758020Y-8186560D02*
X6767544Y-8177036D01*
X6767544Y-8177036D02*
X6777067Y-8157988D01*
X6777067Y-8157988D02*
X6777067Y-8110369D01*
X6777067Y-8110369D02*
X6767544Y-8091322D01*
X6767544Y-8091322D02*
X6758020Y-8081798D01*
X6758020Y-8081798D02*
X6738972Y-8072274D01*
X6738972Y-8072274D02*
X6700877Y-8072274D01*
X6700877Y-8072274D02*
X6681829Y-8081798D01*
X6681829Y-8081798D02*
X6672306Y-8091322D01*
X6672306Y-8091322D02*
X6662782Y-8110369D01*
X6948496Y-7996084D02*
X6910401Y-7996084D01*
X6910401Y-7996084D02*
X6891353Y-8005608D01*
X6891353Y-8005608D02*
X6881829Y-8015131D01*
X6881829Y-8015131D02*
X6862782Y-8043703D01*
X6862782Y-8043703D02*
X6853258Y-8081798D01*
X6853258Y-8081798D02*
X6853258Y-8157988D01*
X6853258Y-8157988D02*
X6862782Y-8177036D01*
X6862782Y-8177036D02*
X6872306Y-8186560D01*
X6872306Y-8186560D02*
X6891353Y-8196084D01*
X6891353Y-8196084D02*
X6929448Y-8196084D01*
X6929448Y-8196084D02*
X6948496Y-8186560D01*
X6948496Y-8186560D02*
X6958020Y-8177036D01*
X6958020Y-8177036D02*
X6967544Y-8157988D01*
X6967544Y-8157988D02*
X6967544Y-8110369D01*
X6967544Y-8110369D02*
X6958020Y-8091322D01*
X6958020Y-8091322D02*
X6948496Y-8081798D01*
X6948496Y-8081798D02*
X6929448Y-8072274D01*
X6929448Y-8072274D02*
X6891353Y-8072274D01*
X6891353Y-8072274D02*
X6872306Y-8081798D01*
X6872306Y-8081798D02*
X6862782Y-8091322D01*
X6862782Y-8091322D02*
X6853258Y-8110369D01*
X7043734Y-7996084D02*
X7043734Y-8034179D01*
X7119925Y-7996084D02*
X7119925Y-8034179D01*
X7415163Y-8272274D02*
X7405639Y-8262750D01*
X7405639Y-8262750D02*
X7386591Y-8234179D01*
X7386591Y-8234179D02*
X7377068Y-8215131D01*
X7377068Y-8215131D02*
X7367544Y-8186560D01*
X7367544Y-8186560D02*
X7358020Y-8138941D01*
X7358020Y-8138941D02*
X7358020Y-8100846D01*
X7358020Y-8100846D02*
X7367544Y-8053227D01*
X7367544Y-8053227D02*
X7377068Y-8024655D01*
X7377068Y-8024655D02*
X7386591Y-8005608D01*
X7386591Y-8005608D02*
X7405639Y-7977036D01*
X7405639Y-7977036D02*
X7415163Y-7967512D01*
X7577068Y-8062750D02*
X7577068Y-8196084D01*
X7529448Y-7986560D02*
X7481829Y-8129417D01*
X7481829Y-8129417D02*
X7605639Y-8129417D01*
X7834210Y-8196084D02*
X7834210Y-7996084D01*
X7919925Y-8196084D02*
X7919925Y-8091322D01*
X7919925Y-8091322D02*
X7910401Y-8072274D01*
X7910401Y-8072274D02*
X7891353Y-8062750D01*
X7891353Y-8062750D02*
X7862782Y-8062750D01*
X7862782Y-8062750D02*
X7843734Y-8072274D01*
X7843734Y-8072274D02*
X7834210Y-8081798D01*
X8043734Y-8196084D02*
X8024687Y-8186560D01*
X8024687Y-8186560D02*
X8015163Y-8177036D01*
X8015163Y-8177036D02*
X8005639Y-8157988D01*
X8005639Y-8157988D02*
X8005639Y-8100846D01*
X8005639Y-8100846D02*
X8015163Y-8081798D01*
X8015163Y-8081798D02*
X8024687Y-8072274D01*
X8024687Y-8072274D02*
X8043734Y-8062750D01*
X8043734Y-8062750D02*
X8072306Y-8062750D01*
X8072306Y-8062750D02*
X8091353Y-8072274D01*
X8091353Y-8072274D02*
X8100877Y-8081798D01*
X8100877Y-8081798D02*
X8110401Y-8100846D01*
X8110401Y-8100846D02*
X8110401Y-8157988D01*
X8110401Y-8157988D02*
X8100877Y-8177036D01*
X8100877Y-8177036D02*
X8091353Y-8186560D01*
X8091353Y-8186560D02*
X8072306Y-8196084D01*
X8072306Y-8196084D02*
X8043734Y-8196084D01*
X8224687Y-8196084D02*
X8205639Y-8186560D01*
X8205639Y-8186560D02*
X8196115Y-8167512D01*
X8196115Y-8167512D02*
X8196115Y-7996084D01*
X8377068Y-8186560D02*
X8358020Y-8196084D01*
X8358020Y-8196084D02*
X8319925Y-8196084D01*
X8319925Y-8196084D02*
X8300877Y-8186560D01*
X8300877Y-8186560D02*
X8291353Y-8167512D01*
X8291353Y-8167512D02*
X8291353Y-8091322D01*
X8291353Y-8091322D02*
X8300877Y-8072274D01*
X8300877Y-8072274D02*
X8319925Y-8062750D01*
X8319925Y-8062750D02*
X8358020Y-8062750D01*
X8358020Y-8062750D02*
X8377068Y-8072274D01*
X8377068Y-8072274D02*
X8386591Y-8091322D01*
X8386591Y-8091322D02*
X8386591Y-8110369D01*
X8386591Y-8110369D02*
X8291353Y-8129417D01*
X8462782Y-8186560D02*
X8481830Y-8196084D01*
X8481830Y-8196084D02*
X8519925Y-8196084D01*
X8519925Y-8196084D02*
X8538973Y-8186560D01*
X8538973Y-8186560D02*
X8548496Y-8167512D01*
X8548496Y-8167512D02*
X8548496Y-8157988D01*
X8548496Y-8157988D02*
X8538973Y-8138941D01*
X8538973Y-8138941D02*
X8519925Y-8129417D01*
X8519925Y-8129417D02*
X8491353Y-8129417D01*
X8491353Y-8129417D02*
X8472306Y-8119893D01*
X8472306Y-8119893D02*
X8462782Y-8100846D01*
X8462782Y-8100846D02*
X8462782Y-8091322D01*
X8462782Y-8091322D02*
X8472306Y-8072274D01*
X8472306Y-8072274D02*
X8491353Y-8062750D01*
X8491353Y-8062750D02*
X8519925Y-8062750D01*
X8519925Y-8062750D02*
X8538973Y-8072274D01*
X8615163Y-8272274D02*
X8624687Y-8262750D01*
X8624687Y-8262750D02*
X8643734Y-8234179D01*
X8643734Y-8234179D02*
X8653258Y-8215131D01*
X8653258Y-8215131D02*
X8662782Y-8186560D01*
X8662782Y-8186560D02*
X8672306Y-8138941D01*
X8672306Y-8138941D02*
X8672306Y-8100846D01*
X8672306Y-8100846D02*
X8662782Y-8053227D01*
X8662782Y-8053227D02*
X8653258Y-8024655D01*
X8653258Y-8024655D02*
X8643734Y-8005608D01*
X8643734Y-8005608D02*
X8624687Y-7977036D01*
X8624687Y-7977036D02*
X8615163Y-7967512D01*
X8977068Y-8272274D02*
X8967544Y-8262750D01*
X8967544Y-8262750D02*
X8948496Y-8234179D01*
X8948496Y-8234179D02*
X8938973Y-8215131D01*
X8938973Y-8215131D02*
X8929449Y-8186560D01*
X8929449Y-8186560D02*
X8919925Y-8138941D01*
X8919925Y-8138941D02*
X8919925Y-8100846D01*
X8919925Y-8100846D02*
X8929449Y-8053227D01*
X8929449Y-8053227D02*
X8938973Y-8024655D01*
X8938973Y-8024655D02*
X8948496Y-8005608D01*
X8948496Y-8005608D02*
X8967544Y-7977036D01*
X8967544Y-7977036D02*
X8977068Y-7967512D01*
X9053258Y-8062750D02*
X9053258Y-8196084D01*
X9053258Y-8081798D02*
X9062782Y-8072274D01*
X9062782Y-8072274D02*
X9081830Y-8062750D01*
X9081830Y-8062750D02*
X9110401Y-8062750D01*
X9110401Y-8062750D02*
X9129449Y-8072274D01*
X9129449Y-8072274D02*
X9138973Y-8091322D01*
X9138973Y-8091322D02*
X9138973Y-8196084D01*
X9262782Y-8196084D02*
X9243734Y-8186560D01*
X9243734Y-8186560D02*
X9234211Y-8177036D01*
X9234211Y-8177036D02*
X9224687Y-8157988D01*
X9224687Y-8157988D02*
X9224687Y-8100846D01*
X9224687Y-8100846D02*
X9234211Y-8081798D01*
X9234211Y-8081798D02*
X9243734Y-8072274D01*
X9243734Y-8072274D02*
X9262782Y-8062750D01*
X9262782Y-8062750D02*
X9291354Y-8062750D01*
X9291354Y-8062750D02*
X9310401Y-8072274D01*
X9310401Y-8072274D02*
X9319925Y-8081798D01*
X9319925Y-8081798D02*
X9329449Y-8100846D01*
X9329449Y-8100846D02*
X9329449Y-8157988D01*
X9329449Y-8157988D02*
X9319925Y-8177036D01*
X9319925Y-8177036D02*
X9310401Y-8186560D01*
X9310401Y-8186560D02*
X9291354Y-8196084D01*
X9291354Y-8196084D02*
X9262782Y-8196084D01*
X9386592Y-8062750D02*
X9462782Y-8062750D01*
X9415163Y-7996084D02*
X9415163Y-8167512D01*
X9415163Y-8167512D02*
X9424687Y-8186560D01*
X9424687Y-8186560D02*
X9443734Y-8196084D01*
X9443734Y-8196084D02*
X9462782Y-8196084D01*
X9681830Y-8062750D02*
X9681830Y-8262750D01*
X9681830Y-8072274D02*
X9700877Y-8062750D01*
X9700877Y-8062750D02*
X9738973Y-8062750D01*
X9738973Y-8062750D02*
X9758020Y-8072274D01*
X9758020Y-8072274D02*
X9767544Y-8081798D01*
X9767544Y-8081798D02*
X9777068Y-8100846D01*
X9777068Y-8100846D02*
X9777068Y-8157988D01*
X9777068Y-8157988D02*
X9767544Y-8177036D01*
X9767544Y-8177036D02*
X9758020Y-8186560D01*
X9758020Y-8186560D02*
X9738973Y-8196084D01*
X9738973Y-8196084D02*
X9700877Y-8196084D01*
X9700877Y-8196084D02*
X9681830Y-8186560D01*
X9891354Y-8196084D02*
X9872306Y-8186560D01*
X9872306Y-8186560D02*
X9862782Y-8167512D01*
X9862782Y-8167512D02*
X9862782Y-7996084D01*
X10053258Y-8196084D02*
X10053258Y-8091322D01*
X10053258Y-8091322D02*
X10043735Y-8072274D01*
X10043735Y-8072274D02*
X10024687Y-8062750D01*
X10024687Y-8062750D02*
X9986592Y-8062750D01*
X9986592Y-8062750D02*
X9967544Y-8072274D01*
X10053258Y-8186560D02*
X10034211Y-8196084D01*
X10034211Y-8196084D02*
X9986592Y-8196084D01*
X9986592Y-8196084D02*
X9967544Y-8186560D01*
X9967544Y-8186560D02*
X9958020Y-8167512D01*
X9958020Y-8167512D02*
X9958020Y-8148465D01*
X9958020Y-8148465D02*
X9967544Y-8129417D01*
X9967544Y-8129417D02*
X9986592Y-8119893D01*
X9986592Y-8119893D02*
X10034211Y-8119893D01*
X10034211Y-8119893D02*
X10053258Y-8110369D01*
X10119925Y-8062750D02*
X10196115Y-8062750D01*
X10148496Y-7996084D02*
X10148496Y-8167512D01*
X10148496Y-8167512D02*
X10158020Y-8186560D01*
X10158020Y-8186560D02*
X10177068Y-8196084D01*
X10177068Y-8196084D02*
X10196115Y-8196084D01*
X10338973Y-8186560D02*
X10319925Y-8196084D01*
X10319925Y-8196084D02*
X10281830Y-8196084D01*
X10281830Y-8196084D02*
X10262782Y-8186560D01*
X10262782Y-8186560D02*
X10253258Y-8167512D01*
X10253258Y-8167512D02*
X10253258Y-8091322D01*
X10253258Y-8091322D02*
X10262782Y-8072274D01*
X10262782Y-8072274D02*
X10281830Y-8062750D01*
X10281830Y-8062750D02*
X10319925Y-8062750D01*
X10319925Y-8062750D02*
X10338973Y-8072274D01*
X10338973Y-8072274D02*
X10348496Y-8091322D01*
X10348496Y-8091322D02*
X10348496Y-8110369D01*
X10348496Y-8110369D02*
X10253258Y-8129417D01*
X10519925Y-8196084D02*
X10519925Y-7996084D01*
X10519925Y-8186560D02*
X10500877Y-8196084D01*
X10500877Y-8196084D02*
X10462782Y-8196084D01*
X10462782Y-8196084D02*
X10443735Y-8186560D01*
X10443735Y-8186560D02*
X10434211Y-8177036D01*
X10434211Y-8177036D02*
X10424687Y-8157988D01*
X10424687Y-8157988D02*
X10424687Y-8100846D01*
X10424687Y-8100846D02*
X10434211Y-8081798D01*
X10434211Y-8081798D02*
X10443735Y-8072274D01*
X10443735Y-8072274D02*
X10462782Y-8062750D01*
X10462782Y-8062750D02*
X10500877Y-8062750D01*
X10500877Y-8062750D02*
X10519925Y-8072274D01*
X10596116Y-8272274D02*
X10605639Y-8262750D01*
X10605639Y-8262750D02*
X10624687Y-8234179D01*
X10624687Y-8234179D02*
X10634211Y-8215131D01*
X10634211Y-8215131D02*
X10643735Y-8186560D01*
X10643735Y-8186560D02*
X10653258Y-8138941D01*
X10653258Y-8138941D02*
X10653258Y-8100846D01*
X10653258Y-8100846D02*
X10643735Y-8053227D01*
X10643735Y-8053227D02*
X10634211Y-8024655D01*
X10634211Y-8024655D02*
X10624687Y-8005608D01*
X10624687Y-8005608D02*
X10605639Y-7977036D01*
X10605639Y-7977036D02*
X10596116Y-7967512D01*
M02*
