%TF.GenerationSoftware,KiCad,Pcbnew,9.0.5-9.0.5~ubuntu24.04.1*%
%TF.CreationDate,2025-10-31T15:41:01+08:00*%
%TF.ProjectId,TPS,5450532e-6b69-4636-9164-5f7063625858,rev?*%
%TF.SameCoordinates,Original*%
%TF.FileFunction,Legend,Top*%
%TF.FilePolarity,Positive*%
%FSLAX46Y46*%
G04 Gerber Fmt 4.6, Leading zero omitted, Abs format (unit mm)*
G04 Created by KiCad (PCBNEW 9.0.5-9.0.5~ubuntu24.04.1) date 2025-10-31 15:41:01*
%MOMM*%
%LPD*%
G01*
G04 APERTURE LIST*
%ADD10C,0.150000*%
%ADD11C,0.200000*%
%ADD12C,0.160000*%
%ADD13C,0.120000*%
%ADD14C,0.300000*%
%ADD15C,0.100000*%
%ADD16C,0.475000*%
G04 APERTURE END LIST*
D10*
X53884595Y-63321740D02*
X54034360Y-63240944D01*
X54034360Y-63240944D02*
X54184824Y-63161457D01*
X54184824Y-63161457D02*
X54335976Y-63083287D01*
X54335976Y-63083287D02*
X54487804Y-63006439D01*
X54487804Y-63006439D02*
X54640297Y-62930918D01*
X54640297Y-62930918D02*
X54793444Y-62856731D01*
X54793444Y-62856731D02*
X54947232Y-62783884D01*
X54947232Y-62783884D02*
X55101649Y-62712381D01*
X55101649Y-62712381D02*
X55256685Y-62642229D01*
X55256685Y-62642229D02*
X55364981Y-62594188D01*
X55917806Y-62361043D02*
X55945633Y-62349834D01*
X56505700Y-62134668D02*
X56533875Y-62124363D01*
X57100600Y-61927401D02*
X57262410Y-61874722D01*
X57262410Y-61874722D02*
X57424674Y-61823457D01*
X57424674Y-61823457D02*
X57587378Y-61773611D01*
X57587378Y-61773611D02*
X57750512Y-61725186D01*
X57750512Y-61725186D02*
X57914062Y-61678186D01*
X57914062Y-61678186D02*
X58078016Y-61632616D01*
X58078016Y-61632616D02*
X58242361Y-61588478D01*
X58242361Y-61588478D02*
X58407085Y-61545776D01*
X58407085Y-61545776D02*
X58572175Y-61504513D01*
X58572175Y-61504513D02*
X58687322Y-61476636D01*
X59272955Y-61346230D02*
X59302340Y-61340184D01*
X59891879Y-61228763D02*
X59921444Y-61223668D01*
X60514275Y-61131349D02*
X60682901Y-61108490D01*
X60682901Y-61108490D02*
X60851721Y-61087104D01*
X60851721Y-61087104D02*
X61020721Y-61067191D01*
X61020721Y-61067191D02*
X61189889Y-61048755D01*
X61189889Y-61048755D02*
X61359210Y-61031795D01*
X61359210Y-61031795D02*
X61528674Y-61016313D01*
X61528674Y-61016313D02*
X61698266Y-61002311D01*
X61698266Y-61002311D02*
X61867974Y-60989789D01*
X61867974Y-60989789D02*
X62037784Y-60978749D01*
X62037784Y-60978749D02*
X62156062Y-60971937D01*
X62755579Y-60948484D02*
X62785571Y-60947796D01*
X63385534Y-60943720D02*
X63415533Y-60944001D01*
X64015314Y-60959307D02*
X64185308Y-60967007D01*
X64185308Y-60967007D02*
X64355229Y-60976190D01*
X64355229Y-60976190D02*
X64525064Y-60986855D01*
X64525064Y-60986855D02*
X64694799Y-60999002D01*
X64694799Y-60999002D02*
X64864421Y-61012630D01*
X64864421Y-61012630D02*
X65033919Y-61027737D01*
X65033919Y-61027737D02*
X65203277Y-61044323D01*
X65203277Y-61044323D02*
X65372485Y-61062386D01*
X65372485Y-61062386D02*
X65541529Y-61081925D01*
X65541529Y-61081925D02*
X65659115Y-61096399D01*
X66253145Y-61180656D02*
X66282776Y-61185349D01*
X66873775Y-61288750D02*
X66903239Y-61294397D01*
X67490589Y-61416834D02*
X67656459Y-61454844D01*
X67656459Y-61454844D02*
X67821991Y-61494299D01*
X67821991Y-61494299D02*
X67987172Y-61535198D01*
X67987172Y-61535198D02*
X68151990Y-61577536D01*
X68151990Y-61577536D02*
X68316432Y-61621311D01*
X68316432Y-61621311D02*
X68480486Y-61666519D01*
X68480486Y-61666519D02*
X68644140Y-61713157D01*
X68644140Y-61713157D02*
X68807380Y-61761222D01*
X68807380Y-61761222D02*
X68970194Y-61810709D01*
X68970194Y-61810709D02*
X69083289Y-61846001D01*
X69652638Y-62035245D02*
X69680950Y-62045167D01*
X70243888Y-62252704D02*
X70271865Y-62263534D01*
X70827806Y-62489147D02*
X70984191Y-62556238D01*
X70984191Y-62556238D02*
X71139985Y-62624691D01*
X71139985Y-62624691D02*
X71295176Y-62694501D01*
X71295176Y-62694501D02*
X71449751Y-62765662D01*
X71449751Y-62765662D02*
X71603699Y-62838170D01*
X71603699Y-62838170D02*
X71757009Y-62912019D01*
X71757009Y-62912019D02*
X71909669Y-62987202D01*
X71909669Y-62987202D02*
X72061667Y-63063715D01*
X72061667Y-63063715D02*
X72212991Y-63141551D01*
X72212991Y-63141551D02*
X72317940Y-63196520D01*
X72844210Y-63484637D02*
X72870289Y-63499467D01*
X73386977Y-63804433D02*
X73412563Y-63820098D01*
X73919131Y-64141595D02*
X74060978Y-64235600D01*
X74060978Y-64235600D02*
X74201999Y-64330838D01*
X74201999Y-64330838D02*
X74342185Y-64427304D01*
X74342185Y-64427304D02*
X74481523Y-64524990D01*
X74481523Y-64524990D02*
X74620003Y-64623887D01*
X74620003Y-64623887D02*
X74757615Y-64723990D01*
X74757615Y-64723990D02*
X74894348Y-64825289D01*
X74894348Y-64825289D02*
X75030192Y-64927778D01*
X75030192Y-64927778D02*
X75165136Y-65031448D01*
X75165136Y-65031448D02*
X75258549Y-65104318D01*
X75724735Y-65481998D02*
X75747737Y-65501257D01*
X76201479Y-65893799D02*
X76223847Y-65913791D01*
X76664673Y-66320785D02*
X76787399Y-66438665D01*
X76787399Y-66438665D02*
X76909092Y-66557612D01*
X76909092Y-66557612D02*
X77029742Y-66677617D01*
X77029742Y-66677617D02*
X77149340Y-66798670D01*
X77149340Y-66798670D02*
X77267878Y-66920761D01*
X77267878Y-66920761D02*
X77385345Y-67043883D01*
X77385345Y-67043883D02*
X77501733Y-67168025D01*
X77501733Y-67168025D02*
X77617034Y-67293178D01*
X77617034Y-67293178D02*
X77731238Y-67419333D01*
X77731238Y-67419333D02*
X77810096Y-67507749D01*
X78201134Y-67962788D02*
X78220316Y-67985854D01*
X78596452Y-68453287D02*
X78614879Y-68476960D01*
X78975719Y-68956300D02*
X79075358Y-69094247D01*
X79075358Y-69094247D02*
X79173790Y-69233059D01*
X79173790Y-69233059D02*
X79271006Y-69372725D01*
X79271006Y-69372725D02*
X79367000Y-69513234D01*
X79367000Y-69513234D02*
X79461764Y-69654575D01*
X79461764Y-69654575D02*
X79555291Y-69796737D01*
X79555291Y-69796737D02*
X79647574Y-69939710D01*
X79647574Y-69939710D02*
X79738606Y-70083484D01*
X79738606Y-70083484D02*
X79828379Y-70228046D01*
X79828379Y-70228046D02*
X79890134Y-70329151D01*
X80193389Y-70846846D02*
X80208132Y-70872974D01*
X80494506Y-71400194D02*
X80508397Y-71426784D01*
X80777592Y-71962980D02*
X80850924Y-72116537D01*
X80850924Y-72116537D02*
X80922914Y-72270729D01*
X80922914Y-72270729D02*
X80993555Y-72425542D01*
X80993555Y-72425542D02*
X81062843Y-72580967D01*
X81062843Y-72580967D02*
X81130772Y-72736990D01*
X81130772Y-72736990D02*
X81197337Y-72893600D01*
X81197337Y-72893600D02*
X81262532Y-73050784D01*
X81262532Y-73050784D02*
X81326354Y-73208532D01*
X81326354Y-73208532D02*
X81388796Y-73366831D01*
X81388796Y-73366831D02*
X81431452Y-73477359D01*
X81637125Y-74040981D02*
X81646952Y-74069326D01*
X81834311Y-74639298D02*
X81843218Y-74667945D01*
X82012068Y-75243672D02*
X82056724Y-75407877D01*
X82056724Y-75407877D02*
X82099946Y-75572466D01*
X82099946Y-75572466D02*
X82141730Y-75737425D01*
X82141730Y-75737425D02*
X82182073Y-75902743D01*
X82182073Y-75902743D02*
X82220971Y-76068406D01*
X82220971Y-76068406D02*
X82258423Y-76234403D01*
X82258423Y-76234403D02*
X82294424Y-76400720D01*
X82294424Y-76400720D02*
X82328973Y-76567345D01*
X82328973Y-76567345D02*
X82362066Y-76734265D01*
X82362066Y-76734265D02*
X82384246Y-76850644D01*
X82485690Y-77441982D02*
X82490284Y-77471628D01*
X82572574Y-78065935D02*
X82576209Y-78095714D01*
X82639258Y-78692368D02*
X82653796Y-78861915D01*
X82653796Y-78861915D02*
X82666853Y-79031582D01*
X82666853Y-79031582D02*
X82678429Y-79201357D01*
X82678429Y-79201357D02*
X82688524Y-79371227D01*
X82688524Y-79371227D02*
X82697135Y-79541178D01*
X82697135Y-79541178D02*
X82704263Y-79711197D01*
X82704263Y-79711197D02*
X82709907Y-79881273D01*
X82709907Y-79881273D02*
X82714067Y-80051391D01*
X82714067Y-80051391D02*
X82716742Y-80221539D01*
X82716742Y-80221539D02*
X82717728Y-80340008D01*
X82711666Y-80939954D02*
X82710879Y-80969944D01*
X82685441Y-81569381D02*
X82683685Y-81599329D01*
X82638898Y-82197631D02*
X82622846Y-82367042D01*
X82622846Y-82367042D02*
X82605317Y-82536306D01*
X82605317Y-82536306D02*
X82586312Y-82705410D01*
X82586312Y-82705410D02*
X82565831Y-82874342D01*
X82565831Y-82874342D02*
X82543877Y-83043089D01*
X82543877Y-83043089D02*
X82520452Y-83211638D01*
X82520452Y-83211638D02*
X82495556Y-83379976D01*
X82495556Y-83379976D02*
X82469192Y-83548091D01*
X82469192Y-83548091D02*
X82441363Y-83715969D01*
X82441363Y-83715969D02*
X82421123Y-83832700D01*
X82307751Y-84421868D02*
X82301607Y-84451232D01*
X82169264Y-85036430D02*
X82162174Y-85065580D01*
X82010997Y-85646198D02*
X81964875Y-85809998D01*
X81964875Y-85809998D02*
X81917326Y-85973389D01*
X81917326Y-85973389D02*
X81868353Y-86136358D01*
X81868353Y-86136358D02*
X81817959Y-86298895D01*
X81817959Y-86298895D02*
X81766150Y-86460985D01*
X81766150Y-86460985D02*
X81712927Y-86622617D01*
X81712927Y-86622617D02*
X81658296Y-86783778D01*
X81658296Y-86783778D02*
X81602261Y-86944457D01*
X81602261Y-86944457D02*
X81544826Y-87104640D01*
X81544826Y-87104640D02*
X81504015Y-87215862D01*
X81286996Y-87775214D02*
X81275695Y-87803004D01*
X81040721Y-88355054D02*
X81028528Y-88382464D01*
X80775845Y-88926636D02*
X80701144Y-89079532D01*
X80701144Y-89079532D02*
X80625111Y-89231770D01*
X80625111Y-89231770D02*
X80547753Y-89383339D01*
X80547753Y-89383339D02*
X80469074Y-89534228D01*
X80469074Y-89534228D02*
X80389083Y-89684424D01*
X80389083Y-89684424D02*
X80307783Y-89833916D01*
X80307783Y-89833916D02*
X80225182Y-89982693D01*
X80225182Y-89982693D02*
X80141286Y-90130743D01*
X80141286Y-90130743D02*
X80056101Y-90278056D01*
X80056101Y-90278056D02*
X79996038Y-90380175D01*
X79682385Y-90891637D02*
X79666291Y-90916955D01*
X79336280Y-91418019D02*
X79319377Y-91442803D01*
X78973353Y-91932945D02*
X78872486Y-92069997D01*
X78872486Y-92069997D02*
X78770426Y-92206164D01*
X78770426Y-92206164D02*
X78667183Y-92341435D01*
X78667183Y-92341435D02*
X78562762Y-92475800D01*
X78562762Y-92475800D02*
X78457173Y-92609248D01*
X78457173Y-92609248D02*
X78350424Y-92741770D01*
X78350424Y-92741770D02*
X78242522Y-92873355D01*
X78242522Y-92873355D02*
X78133476Y-93003994D01*
X78133476Y-93003994D02*
X78023294Y-93133676D01*
X78023294Y-93133676D02*
X77945918Y-93223392D01*
X77545766Y-93670438D02*
X77525399Y-93692465D01*
X77111016Y-94126352D02*
X77089948Y-94147709D01*
X76661765Y-94567984D02*
X76537991Y-94684764D01*
X76537991Y-94684764D02*
X76413202Y-94800459D01*
X76413202Y-94800459D02*
X76287409Y-94915061D01*
X76287409Y-94915061D02*
X76160620Y-95028560D01*
X76160620Y-95028560D02*
X76032846Y-95140949D01*
X76032846Y-95140949D02*
X75904096Y-95252219D01*
X75904096Y-95252219D02*
X75774380Y-95362360D01*
X75774380Y-95362360D02*
X75643707Y-95471366D01*
X75643707Y-95471366D02*
X75512089Y-95579227D01*
X75512089Y-95579227D02*
X75419901Y-95653641D01*
X74946180Y-96021825D02*
X74922198Y-96039850D01*
X74436831Y-96392540D02*
X74412280Y-96409781D01*
X73915773Y-96746608D02*
X73773092Y-96839342D01*
X73773092Y-96839342D02*
X73629607Y-96930827D01*
X73629607Y-96930827D02*
X73485329Y-97021056D01*
X73485329Y-97021056D02*
X73340269Y-97110023D01*
X73340269Y-97110023D02*
X73194438Y-97197721D01*
X73194438Y-97197721D02*
X73047848Y-97284143D01*
X73047848Y-97284143D02*
X72900508Y-97369282D01*
X72900508Y-97369282D02*
X72752432Y-97453132D01*
X72752432Y-97453132D02*
X72603629Y-97535687D01*
X72603629Y-97535687D02*
X72499609Y-97592394D01*
X71967625Y-97869820D02*
X71940804Y-97883260D01*
X71400137Y-98143357D02*
X71372896Y-98155924D01*
D11*
G36*
X53379143Y-95504377D02*
G01*
X52198858Y-95504377D01*
X52198858Y-95273757D01*
X52309969Y-95273757D01*
X52309969Y-95312775D01*
X52324901Y-95348823D01*
X52352491Y-95376413D01*
X52388539Y-95391345D01*
X52408048Y-95393266D01*
X53169953Y-95393266D01*
X53189462Y-95391345D01*
X53225510Y-95376413D01*
X53253100Y-95348823D01*
X53268032Y-95312775D01*
X53268032Y-95273757D01*
X53253100Y-95237709D01*
X53225510Y-95210119D01*
X53189462Y-95195187D01*
X53169953Y-95193266D01*
X52408048Y-95193266D01*
X52388539Y-95195187D01*
X52352491Y-95210119D01*
X52324901Y-95237709D01*
X52309969Y-95273757D01*
X52198858Y-95273757D01*
X52198858Y-95082155D01*
X53379143Y-95082155D01*
X53379143Y-95504377D01*
G37*
G36*
X53379143Y-93345409D02*
G01*
X52198858Y-93345409D01*
X52198858Y-92735757D01*
X52309969Y-92735757D01*
X52309969Y-92774775D01*
X52324901Y-92810823D01*
X52352491Y-92838413D01*
X52388539Y-92853345D01*
X52408048Y-92855266D01*
X52689000Y-92855266D01*
X52689000Y-93136219D01*
X52690921Y-93155728D01*
X52705853Y-93191776D01*
X52733443Y-93219366D01*
X52769491Y-93234298D01*
X52808509Y-93234298D01*
X52844557Y-93219366D01*
X52872147Y-93191776D01*
X52887079Y-93155728D01*
X52889000Y-93136219D01*
X52889000Y-92855266D01*
X53169953Y-92855266D01*
X53189462Y-92853345D01*
X53225510Y-92838413D01*
X53253100Y-92810823D01*
X53268032Y-92774775D01*
X53268032Y-92735757D01*
X53253100Y-92699709D01*
X53225510Y-92672119D01*
X53189462Y-92657187D01*
X53169953Y-92655266D01*
X52889000Y-92655266D01*
X52889000Y-92374314D01*
X52887079Y-92354805D01*
X52872147Y-92318757D01*
X52844557Y-92291167D01*
X52808509Y-92276235D01*
X52769491Y-92276235D01*
X52733443Y-92291167D01*
X52705853Y-92318757D01*
X52690921Y-92354805D01*
X52689000Y-92374314D01*
X52689000Y-92655266D01*
X52408048Y-92655266D01*
X52388539Y-92657187D01*
X52352491Y-92672119D01*
X52324901Y-92699709D01*
X52309969Y-92735757D01*
X52198858Y-92735757D01*
X52198858Y-92165124D01*
X53379143Y-92165124D01*
X53379143Y-93345409D01*
G37*
G36*
X74052377Y-48690141D02*
G01*
X73630155Y-48690141D01*
X73630155Y-47719047D01*
X73741266Y-47719047D01*
X73741266Y-48480951D01*
X73743187Y-48500460D01*
X73758119Y-48536508D01*
X73785709Y-48564098D01*
X73821757Y-48579030D01*
X73860775Y-48579030D01*
X73896823Y-48564098D01*
X73924413Y-48536508D01*
X73939345Y-48500460D01*
X73941266Y-48480951D01*
X73941266Y-47719047D01*
X73939345Y-47699538D01*
X73924413Y-47663490D01*
X73896823Y-47635900D01*
X73860775Y-47620968D01*
X73821757Y-47620968D01*
X73785709Y-47635900D01*
X73758119Y-47663490D01*
X73743187Y-47699538D01*
X73741266Y-47719047D01*
X73630155Y-47719047D01*
X73630155Y-47509857D01*
X74052377Y-47509857D01*
X74052377Y-48690141D01*
G37*
G36*
X74401409Y-57030141D02*
G01*
X73221124Y-57030141D01*
X73221124Y-56420490D01*
X73332235Y-56420490D01*
X73332235Y-56459508D01*
X73347167Y-56495556D01*
X73374757Y-56523146D01*
X73410805Y-56538078D01*
X73430314Y-56539999D01*
X73711266Y-56539999D01*
X73711266Y-56820951D01*
X73713187Y-56840460D01*
X73728119Y-56876508D01*
X73755709Y-56904098D01*
X73791757Y-56919030D01*
X73830775Y-56919030D01*
X73866823Y-56904098D01*
X73894413Y-56876508D01*
X73909345Y-56840460D01*
X73911266Y-56820951D01*
X73911266Y-56539999D01*
X74192219Y-56539999D01*
X74211728Y-56538078D01*
X74247776Y-56523146D01*
X74275366Y-56495556D01*
X74290298Y-56459508D01*
X74290298Y-56420490D01*
X74275366Y-56384442D01*
X74247776Y-56356852D01*
X74211728Y-56341920D01*
X74192219Y-56339999D01*
X73911266Y-56339999D01*
X73911266Y-56059047D01*
X73909345Y-56039538D01*
X73894413Y-56003490D01*
X73866823Y-55975900D01*
X73830775Y-55960968D01*
X73791757Y-55960968D01*
X73755709Y-55975900D01*
X73728119Y-56003490D01*
X73713187Y-56039538D01*
X73711266Y-56059047D01*
X73711266Y-56339999D01*
X73430314Y-56339999D01*
X73410805Y-56341920D01*
X73374757Y-56356852D01*
X73347167Y-56384442D01*
X73332235Y-56420490D01*
X73221124Y-56420490D01*
X73221124Y-55849857D01*
X74401409Y-55849857D01*
X74401409Y-57030141D01*
G37*
G36*
X47229143Y-92964377D02*
G01*
X46048858Y-92964377D01*
X46048858Y-92733757D01*
X46159969Y-92733757D01*
X46159969Y-92772775D01*
X46174901Y-92808823D01*
X46202491Y-92836413D01*
X46238539Y-92851345D01*
X46258048Y-92853266D01*
X47019953Y-92853266D01*
X47039462Y-92851345D01*
X47075510Y-92836413D01*
X47103100Y-92808823D01*
X47118032Y-92772775D01*
X47118032Y-92733757D01*
X47103100Y-92697709D01*
X47075510Y-92670119D01*
X47039462Y-92655187D01*
X47019953Y-92653266D01*
X46258048Y-92653266D01*
X46238539Y-92655187D01*
X46202491Y-92670119D01*
X46174901Y-92697709D01*
X46159969Y-92733757D01*
X46048858Y-92733757D01*
X46048858Y-92542155D01*
X47229143Y-92542155D01*
X47229143Y-92964377D01*
G37*
G36*
X47229143Y-95883409D02*
G01*
X46048858Y-95883409D01*
X46048858Y-95273757D01*
X46159969Y-95273757D01*
X46159969Y-95312775D01*
X46174901Y-95348823D01*
X46202491Y-95376413D01*
X46238539Y-95391345D01*
X46258048Y-95393266D01*
X46539000Y-95393266D01*
X46539000Y-95674219D01*
X46540921Y-95693728D01*
X46555853Y-95729776D01*
X46583443Y-95757366D01*
X46619491Y-95772298D01*
X46658509Y-95772298D01*
X46694557Y-95757366D01*
X46722147Y-95729776D01*
X46737079Y-95693728D01*
X46739000Y-95674219D01*
X46739000Y-95393266D01*
X47019953Y-95393266D01*
X47039462Y-95391345D01*
X47075510Y-95376413D01*
X47103100Y-95348823D01*
X47118032Y-95312775D01*
X47118032Y-95273757D01*
X47103100Y-95237709D01*
X47075510Y-95210119D01*
X47039462Y-95195187D01*
X47019953Y-95193266D01*
X46739000Y-95193266D01*
X46739000Y-94912314D01*
X46737079Y-94892805D01*
X46722147Y-94856757D01*
X46694557Y-94829167D01*
X46658509Y-94814235D01*
X46619491Y-94814235D01*
X46583443Y-94829167D01*
X46555853Y-94856757D01*
X46540921Y-94892805D01*
X46539000Y-94912314D01*
X46539000Y-95193266D01*
X46258048Y-95193266D01*
X46238539Y-95195187D01*
X46202491Y-95210119D01*
X46174901Y-95237709D01*
X46159969Y-95273757D01*
X46048858Y-95273757D01*
X46048858Y-94703124D01*
X47229143Y-94703124D01*
X47229143Y-95883409D01*
G37*
G36*
X86157285Y-47196330D02*
G01*
X83166341Y-47196330D01*
X83166341Y-45997726D01*
X83277452Y-45997726D01*
X83281799Y-46016842D01*
X83615132Y-47016841D01*
X83623123Y-47034742D01*
X83627806Y-47040141D01*
X83631001Y-47046531D01*
X83640472Y-47054746D01*
X83648688Y-47064218D01*
X83655076Y-47067412D01*
X83660477Y-47072096D01*
X83672378Y-47076063D01*
X83683587Y-47081667D01*
X83690711Y-47082173D01*
X83697493Y-47084434D01*
X83710002Y-47083544D01*
X83722507Y-47084434D01*
X83729285Y-47082174D01*
X83736413Y-47081668D01*
X83747629Y-47076059D01*
X83759523Y-47072095D01*
X83764920Y-47067414D01*
X83771312Y-47064218D01*
X83779530Y-47054742D01*
X83788999Y-47046530D01*
X83792192Y-47040143D01*
X83796877Y-47034742D01*
X83804868Y-47016842D01*
X84005885Y-46413790D01*
X84229048Y-46413790D01*
X84229048Y-46556647D01*
X84229383Y-46560049D01*
X84229166Y-46561508D01*
X84230245Y-46568805D01*
X84230969Y-46576156D01*
X84231533Y-46577519D01*
X84232034Y-46580901D01*
X84279653Y-46771376D01*
X84280166Y-46772813D01*
X84280218Y-46773536D01*
X84283326Y-46781660D01*
X84286248Y-46789837D01*
X84286678Y-46790417D01*
X84287224Y-46791844D01*
X84334843Y-46887082D01*
X84340125Y-46895474D01*
X84341138Y-46897918D01*
X84343394Y-46900667D01*
X84345286Y-46903672D01*
X84347280Y-46905401D01*
X84353575Y-46913071D01*
X84448813Y-47008311D01*
X84463966Y-47020747D01*
X84467285Y-47022122D01*
X84470001Y-47024477D01*
X84487901Y-47032468D01*
X84630758Y-47080087D01*
X84640430Y-47082286D01*
X84642872Y-47083298D01*
X84646409Y-47083646D01*
X84649873Y-47084434D01*
X84652507Y-47084246D01*
X84662381Y-47085219D01*
X84757619Y-47085219D01*
X84767492Y-47084246D01*
X84770126Y-47084434D01*
X84773589Y-47083646D01*
X84777128Y-47083298D01*
X84779570Y-47082286D01*
X84789242Y-47080087D01*
X84932098Y-47032468D01*
X84949999Y-47024477D01*
X84952714Y-47022122D01*
X84956034Y-47020747D01*
X84971187Y-47008310D01*
X85018806Y-46960690D01*
X85031243Y-46945537D01*
X85046174Y-46909488D01*
X85046173Y-46870470D01*
X85031242Y-46834422D01*
X85003651Y-46806832D01*
X84967603Y-46791901D01*
X84928585Y-46791902D01*
X84892537Y-46806833D01*
X84877383Y-46819270D01*
X84846456Y-46850197D01*
X84741392Y-46885219D01*
X84678607Y-46885219D01*
X84573542Y-46850197D01*
X84506472Y-46783127D01*
X84471018Y-46712218D01*
X84429048Y-46544337D01*
X84429048Y-46426100D01*
X84432125Y-46413790D01*
X85229048Y-46413790D01*
X85229048Y-46556647D01*
X85229383Y-46560049D01*
X85229166Y-46561508D01*
X85230245Y-46568805D01*
X85230969Y-46576156D01*
X85231533Y-46577519D01*
X85232034Y-46580901D01*
X85279653Y-46771376D01*
X85280166Y-46772813D01*
X85280218Y-46773536D01*
X85283326Y-46781660D01*
X85286248Y-46789837D01*
X85286678Y-46790417D01*
X85287224Y-46791844D01*
X85334843Y-46887082D01*
X85340125Y-46895474D01*
X85341138Y-46897918D01*
X85343394Y-46900667D01*
X85345286Y-46903672D01*
X85347280Y-46905401D01*
X85353575Y-46913071D01*
X85448813Y-47008311D01*
X85463966Y-47020747D01*
X85467285Y-47022122D01*
X85470001Y-47024477D01*
X85487901Y-47032468D01*
X85630758Y-47080087D01*
X85640430Y-47082286D01*
X85642872Y-47083298D01*
X85646409Y-47083646D01*
X85649873Y-47084434D01*
X85652507Y-47084246D01*
X85662381Y-47085219D01*
X85757619Y-47085219D01*
X85767492Y-47084246D01*
X85770126Y-47084434D01*
X85773589Y-47083646D01*
X85777128Y-47083298D01*
X85779570Y-47082286D01*
X85789242Y-47080087D01*
X85932098Y-47032468D01*
X85949999Y-47024477D01*
X85952714Y-47022122D01*
X85956034Y-47020747D01*
X85971187Y-47008310D01*
X86018806Y-46960690D01*
X86031243Y-46945537D01*
X86046174Y-46909488D01*
X86046173Y-46870470D01*
X86031242Y-46834422D01*
X86003651Y-46806832D01*
X85967603Y-46791901D01*
X85928585Y-46791902D01*
X85892537Y-46806833D01*
X85877383Y-46819270D01*
X85846456Y-46850197D01*
X85741392Y-46885219D01*
X85678607Y-46885219D01*
X85573542Y-46850197D01*
X85506472Y-46783127D01*
X85471018Y-46712218D01*
X85429048Y-46544337D01*
X85429048Y-46426100D01*
X85471018Y-46258218D01*
X85506471Y-46187312D01*
X85573543Y-46120240D01*
X85678607Y-46085219D01*
X85741392Y-46085219D01*
X85846457Y-46120240D01*
X85877384Y-46151167D01*
X85892537Y-46163604D01*
X85928586Y-46178535D01*
X85967604Y-46178535D01*
X86003652Y-46163604D01*
X86031242Y-46136014D01*
X86046173Y-46099966D01*
X86046173Y-46060948D01*
X86031242Y-46024899D01*
X86018805Y-46009746D01*
X85971187Y-45962127D01*
X85956033Y-45949691D01*
X85952714Y-45948316D01*
X85949999Y-45945961D01*
X85932098Y-45937970D01*
X85789242Y-45890351D01*
X85779570Y-45888151D01*
X85777128Y-45887140D01*
X85773589Y-45886791D01*
X85770126Y-45886004D01*
X85767492Y-45886191D01*
X85757619Y-45885219D01*
X85662381Y-45885219D01*
X85652507Y-45886191D01*
X85649873Y-45886004D01*
X85646409Y-45886791D01*
X85642872Y-45887140D01*
X85640430Y-45888151D01*
X85630758Y-45890351D01*
X85487901Y-45937970D01*
X85470001Y-45945961D01*
X85467285Y-45948316D01*
X85463967Y-45949691D01*
X85448813Y-45962127D01*
X85353575Y-46057365D01*
X85347280Y-46065035D01*
X85345286Y-46066765D01*
X85343392Y-46069772D01*
X85341139Y-46072519D01*
X85340128Y-46074958D01*
X85334843Y-46083355D01*
X85287224Y-46178593D01*
X85286678Y-46180019D01*
X85286248Y-46180600D01*
X85283326Y-46188776D01*
X85280218Y-46196901D01*
X85280166Y-46197623D01*
X85279653Y-46199061D01*
X85232034Y-46389536D01*
X85231533Y-46392917D01*
X85230969Y-46394281D01*
X85230245Y-46401631D01*
X85229166Y-46408929D01*
X85229383Y-46410387D01*
X85229048Y-46413790D01*
X84432125Y-46413790D01*
X84471018Y-46258218D01*
X84506471Y-46187312D01*
X84573543Y-46120240D01*
X84678607Y-46085219D01*
X84741392Y-46085219D01*
X84846457Y-46120240D01*
X84877384Y-46151167D01*
X84892537Y-46163604D01*
X84928586Y-46178535D01*
X84967604Y-46178535D01*
X85003652Y-46163604D01*
X85031242Y-46136014D01*
X85046173Y-46099966D01*
X85046173Y-46060948D01*
X85031242Y-46024899D01*
X85018805Y-46009746D01*
X84971187Y-45962127D01*
X84956033Y-45949691D01*
X84952714Y-45948316D01*
X84949999Y-45945961D01*
X84932098Y-45937970D01*
X84789242Y-45890351D01*
X84779570Y-45888151D01*
X84777128Y-45887140D01*
X84773589Y-45886791D01*
X84770126Y-45886004D01*
X84767492Y-45886191D01*
X84757619Y-45885219D01*
X84662381Y-45885219D01*
X84652507Y-45886191D01*
X84649873Y-45886004D01*
X84646409Y-45886791D01*
X84642872Y-45887140D01*
X84640430Y-45888151D01*
X84630758Y-45890351D01*
X84487901Y-45937970D01*
X84470001Y-45945961D01*
X84467285Y-45948316D01*
X84463967Y-45949691D01*
X84448813Y-45962127D01*
X84353575Y-46057365D01*
X84347280Y-46065035D01*
X84345286Y-46066765D01*
X84343392Y-46069772D01*
X84341139Y-46072519D01*
X84340128Y-46074958D01*
X84334843Y-46083355D01*
X84287224Y-46178593D01*
X84286678Y-46180019D01*
X84286248Y-46180600D01*
X84283326Y-46188776D01*
X84280218Y-46196901D01*
X84280166Y-46197623D01*
X84279653Y-46199061D01*
X84232034Y-46389536D01*
X84231533Y-46392917D01*
X84230969Y-46394281D01*
X84230245Y-46401631D01*
X84229166Y-46408929D01*
X84229383Y-46410387D01*
X84229048Y-46413790D01*
X84005885Y-46413790D01*
X84138201Y-46016842D01*
X84142548Y-45997727D01*
X84139782Y-45958807D01*
X84122332Y-45923908D01*
X84092856Y-45898343D01*
X84055840Y-45886004D01*
X84016920Y-45888771D01*
X83982021Y-45906220D01*
X83956456Y-45935696D01*
X83948465Y-45953597D01*
X83710000Y-46668991D01*
X83471535Y-45953596D01*
X83463544Y-45935696D01*
X83437979Y-45906220D01*
X83403080Y-45888770D01*
X83364160Y-45886004D01*
X83327144Y-45898342D01*
X83297668Y-45923907D01*
X83280218Y-45958806D01*
X83277452Y-45997726D01*
X83166341Y-45997726D01*
X83166341Y-45774108D01*
X86157285Y-45774108D01*
X86157285Y-47196330D01*
G37*
G36*
X80128117Y-32965330D02*
G01*
X78231626Y-32965330D01*
X78231626Y-31734710D01*
X78342737Y-31734710D01*
X78342737Y-31773728D01*
X78357669Y-31809776D01*
X78385259Y-31837366D01*
X78421307Y-31852298D01*
X78440816Y-31854219D01*
X78626530Y-31854219D01*
X78626530Y-32754219D01*
X78628451Y-32773728D01*
X78643383Y-32809776D01*
X78670973Y-32837366D01*
X78707021Y-32852298D01*
X78746039Y-32852298D01*
X78782087Y-32837366D01*
X78809677Y-32809776D01*
X78824609Y-32773728D01*
X78826530Y-32754219D01*
X78826530Y-31854219D01*
X79012244Y-31854219D01*
X79031753Y-31852298D01*
X79067801Y-31837366D01*
X79095391Y-31809776D01*
X79110323Y-31773728D01*
X79110323Y-31754114D01*
X79150340Y-31754114D01*
X79157912Y-31792391D01*
X79167135Y-31809689D01*
X79463488Y-32254219D01*
X79167135Y-32698749D01*
X79157912Y-32716047D01*
X79150340Y-32754324D01*
X79157992Y-32792584D01*
X79179703Y-32825004D01*
X79212168Y-32846647D01*
X79250445Y-32854219D01*
X79288705Y-32846567D01*
X79321125Y-32824856D01*
X79333545Y-32809689D01*
X79583673Y-32434496D01*
X79833801Y-32809689D01*
X79846221Y-32824856D01*
X79878641Y-32846567D01*
X79916901Y-32854219D01*
X79955178Y-32846647D01*
X79987643Y-32825004D01*
X80009354Y-32792584D01*
X80017006Y-32754324D01*
X80009434Y-32716047D01*
X80000211Y-32698749D01*
X79703857Y-32254219D01*
X80000211Y-31809689D01*
X80009434Y-31792391D01*
X80017006Y-31754114D01*
X80009354Y-31715854D01*
X79987643Y-31683434D01*
X79955178Y-31661791D01*
X79916901Y-31654219D01*
X79878641Y-31661871D01*
X79846221Y-31683582D01*
X79833801Y-31698749D01*
X79583673Y-32073941D01*
X79333545Y-31698749D01*
X79321125Y-31683582D01*
X79288705Y-31661871D01*
X79250445Y-31654219D01*
X79212168Y-31661791D01*
X79179703Y-31683434D01*
X79157992Y-31715854D01*
X79150340Y-31754114D01*
X79110323Y-31754114D01*
X79110323Y-31734710D01*
X79095391Y-31698662D01*
X79067801Y-31671072D01*
X79031753Y-31656140D01*
X79012244Y-31654219D01*
X78440816Y-31654219D01*
X78421307Y-31656140D01*
X78385259Y-31671072D01*
X78357669Y-31698662D01*
X78342737Y-31734710D01*
X78231626Y-31734710D01*
X78231626Y-31543108D01*
X80128117Y-31543108D01*
X80128117Y-32965330D01*
G37*
G36*
X83435554Y-36338519D02*
G01*
X83460223Y-36363187D01*
X83490028Y-36422797D01*
X83490028Y-36680142D01*
X83166219Y-36680142D01*
X83166219Y-36422797D01*
X83196024Y-36363187D01*
X83220692Y-36338518D01*
X83280302Y-36308714D01*
X83375945Y-36308714D01*
X83435554Y-36338519D01*
G37*
G36*
X83435554Y-35338519D02*
G01*
X83460223Y-35363187D01*
X83490028Y-35422797D01*
X83490028Y-35680142D01*
X83166219Y-35680142D01*
X83166219Y-35422797D01*
X83196024Y-35363187D01*
X83220692Y-35338518D01*
X83280302Y-35308714D01*
X83375945Y-35308714D01*
X83435554Y-35338519D01*
G37*
G36*
X84277330Y-37894094D02*
G01*
X82855108Y-37894094D01*
X82855108Y-37113476D01*
X82966219Y-37113476D01*
X82966219Y-37684904D01*
X82968140Y-37704413D01*
X82983072Y-37740461D01*
X83010662Y-37768051D01*
X83046710Y-37782983D01*
X83085728Y-37782983D01*
X83121776Y-37768051D01*
X83149366Y-37740461D01*
X83164298Y-37704413D01*
X83166219Y-37684904D01*
X83166219Y-37499190D01*
X84066219Y-37499190D01*
X84085728Y-37497269D01*
X84121776Y-37482337D01*
X84149366Y-37454747D01*
X84164298Y-37418699D01*
X84164298Y-37379681D01*
X84149366Y-37343633D01*
X84121776Y-37316043D01*
X84085728Y-37301111D01*
X84066219Y-37299190D01*
X83166219Y-37299190D01*
X83166219Y-37113476D01*
X83164298Y-37093967D01*
X83149366Y-37057919D01*
X83121776Y-37030329D01*
X83085728Y-37015397D01*
X83046710Y-37015397D01*
X83010662Y-37030329D01*
X82983072Y-37057919D01*
X82968140Y-37093967D01*
X82966219Y-37113476D01*
X82855108Y-37113476D01*
X82855108Y-36399190D01*
X82966219Y-36399190D01*
X82966219Y-36780142D01*
X82968140Y-36799651D01*
X82983072Y-36835699D01*
X83010662Y-36863289D01*
X83046710Y-36878221D01*
X83066219Y-36880142D01*
X84066219Y-36880142D01*
X84085728Y-36878221D01*
X84121776Y-36863289D01*
X84149366Y-36835699D01*
X84164298Y-36799651D01*
X84164298Y-36760633D01*
X84149366Y-36724585D01*
X84121776Y-36696995D01*
X84085728Y-36682063D01*
X84066219Y-36680142D01*
X83690028Y-36680142D01*
X83690028Y-36594112D01*
X84123565Y-36290637D01*
X84138446Y-36277876D01*
X84159415Y-36244971D01*
X84166196Y-36206546D01*
X84157756Y-36168452D01*
X84135381Y-36136487D01*
X84102476Y-36115518D01*
X84064052Y-36108737D01*
X84025957Y-36117177D01*
X84008873Y-36126791D01*
X83680347Y-36356758D01*
X83679471Y-36354468D01*
X83631852Y-36259231D01*
X83626566Y-36250834D01*
X83625556Y-36248394D01*
X83623302Y-36245648D01*
X83621409Y-36242640D01*
X83619411Y-36240907D01*
X83613119Y-36233241D01*
X83565501Y-36185622D01*
X83557830Y-36179327D01*
X83556101Y-36177333D01*
X83553093Y-36175439D01*
X83550347Y-36173186D01*
X83547907Y-36172175D01*
X83539511Y-36166890D01*
X83444273Y-36119271D01*
X83425965Y-36112265D01*
X83422381Y-36112010D01*
X83419061Y-36110635D01*
X83399552Y-36108714D01*
X83256695Y-36108714D01*
X83237186Y-36110635D01*
X83233865Y-36112010D01*
X83230282Y-36112265D01*
X83211973Y-36119271D01*
X83116736Y-36166890D01*
X83108339Y-36172175D01*
X83105899Y-36173186D01*
X83103153Y-36175439D01*
X83100145Y-36177333D01*
X83098412Y-36179330D01*
X83090746Y-36185623D01*
X83043127Y-36233241D01*
X83036832Y-36240911D01*
X83034838Y-36242641D01*
X83032944Y-36245648D01*
X83030691Y-36248395D01*
X83029680Y-36250834D01*
X83024395Y-36259231D01*
X82976776Y-36354469D01*
X82969770Y-36372777D01*
X82969515Y-36376360D01*
X82968140Y-36379681D01*
X82966219Y-36399190D01*
X82855108Y-36399190D01*
X82855108Y-35399190D01*
X82966219Y-35399190D01*
X82966219Y-35780142D01*
X82968140Y-35799651D01*
X82983072Y-35835699D01*
X83010662Y-35863289D01*
X83046710Y-35878221D01*
X83066219Y-35880142D01*
X84066219Y-35880142D01*
X84085728Y-35878221D01*
X84121776Y-35863289D01*
X84149366Y-35835699D01*
X84164298Y-35799651D01*
X84164298Y-35760633D01*
X84149366Y-35724585D01*
X84121776Y-35696995D01*
X84085728Y-35682063D01*
X84066219Y-35680142D01*
X83690028Y-35680142D01*
X83690028Y-35594112D01*
X84123565Y-35290637D01*
X84138446Y-35277876D01*
X84159415Y-35244971D01*
X84166196Y-35206546D01*
X84157756Y-35168452D01*
X84135381Y-35136487D01*
X84102476Y-35115518D01*
X84064052Y-35108737D01*
X84025957Y-35117177D01*
X84008873Y-35126791D01*
X83680347Y-35356758D01*
X83679471Y-35354468D01*
X83631852Y-35259231D01*
X83626566Y-35250834D01*
X83625556Y-35248394D01*
X83623302Y-35245648D01*
X83621409Y-35242640D01*
X83619411Y-35240907D01*
X83613119Y-35233241D01*
X83565501Y-35185622D01*
X83557830Y-35179327D01*
X83556101Y-35177333D01*
X83553093Y-35175439D01*
X83550347Y-35173186D01*
X83547907Y-35172175D01*
X83539511Y-35166890D01*
X83444273Y-35119271D01*
X83425965Y-35112265D01*
X83422381Y-35112010D01*
X83419061Y-35110635D01*
X83399552Y-35108714D01*
X83256695Y-35108714D01*
X83237186Y-35110635D01*
X83233865Y-35112010D01*
X83230282Y-35112265D01*
X83211973Y-35119271D01*
X83116736Y-35166890D01*
X83108339Y-35172175D01*
X83105899Y-35173186D01*
X83103153Y-35175439D01*
X83100145Y-35177333D01*
X83098412Y-35179330D01*
X83090746Y-35185623D01*
X83043127Y-35233241D01*
X83036832Y-35240911D01*
X83034838Y-35242641D01*
X83032944Y-35245648D01*
X83030691Y-35248395D01*
X83029680Y-35250834D01*
X83024395Y-35259231D01*
X82976776Y-35354469D01*
X82969770Y-35372777D01*
X82969515Y-35376360D01*
X82968140Y-35379681D01*
X82966219Y-35399190D01*
X82855108Y-35399190D01*
X82855108Y-34399190D01*
X82966219Y-34399190D01*
X82966219Y-34637285D01*
X82968140Y-34656794D01*
X82969515Y-34660114D01*
X82969770Y-34663698D01*
X82976776Y-34682006D01*
X83024395Y-34777244D01*
X83029680Y-34785640D01*
X83030691Y-34788080D01*
X83032944Y-34790826D01*
X83034838Y-34793834D01*
X83036832Y-34795563D01*
X83043127Y-34803234D01*
X83090746Y-34850852D01*
X83098412Y-34857144D01*
X83100145Y-34859142D01*
X83103153Y-34861035D01*
X83105899Y-34863289D01*
X83108339Y-34864299D01*
X83116736Y-34869585D01*
X83211973Y-34917204D01*
X83230282Y-34924210D01*
X83233865Y-34924464D01*
X83237186Y-34925840D01*
X83256695Y-34927761D01*
X83351933Y-34927761D01*
X83371442Y-34925840D01*
X83374762Y-34924464D01*
X83378346Y-34924210D01*
X83396654Y-34917204D01*
X83491892Y-34869585D01*
X83500288Y-34864299D01*
X83502728Y-34863289D01*
X83505474Y-34861035D01*
X83508482Y-34859142D01*
X83510211Y-34857147D01*
X83517882Y-34850853D01*
X83565500Y-34803234D01*
X83571792Y-34795567D01*
X83573790Y-34793835D01*
X83575683Y-34790826D01*
X83577937Y-34788081D01*
X83578947Y-34785640D01*
X83584233Y-34777244D01*
X83631852Y-34682007D01*
X83632398Y-34680578D01*
X83632828Y-34679999D01*
X83635749Y-34671822D01*
X83638858Y-34663698D01*
X83638909Y-34662977D01*
X83639423Y-34661539D01*
X83684379Y-34481713D01*
X83719833Y-34410806D01*
X83744501Y-34386137D01*
X83804111Y-34356333D01*
X83852135Y-34356333D01*
X83911746Y-34386139D01*
X83936414Y-34410806D01*
X83966219Y-34470416D01*
X83966219Y-34668677D01*
X83923732Y-34796138D01*
X83919385Y-34815254D01*
X83922151Y-34854174D01*
X83939601Y-34889073D01*
X83969077Y-34914638D01*
X84006093Y-34926976D01*
X84045013Y-34924210D01*
X84079912Y-34906760D01*
X84105477Y-34877284D01*
X84113468Y-34859384D01*
X84161087Y-34716527D01*
X84163286Y-34706854D01*
X84164298Y-34704413D01*
X84164646Y-34700875D01*
X84165434Y-34697412D01*
X84165246Y-34694777D01*
X84166219Y-34684904D01*
X84166219Y-34446809D01*
X84164298Y-34427300D01*
X84162922Y-34423979D01*
X84162668Y-34420396D01*
X84155662Y-34402087D01*
X84108043Y-34306850D01*
X84102757Y-34298453D01*
X84101747Y-34296013D01*
X84099493Y-34293267D01*
X84097600Y-34290259D01*
X84095603Y-34288527D01*
X84089310Y-34280859D01*
X84041690Y-34233241D01*
X84034020Y-34226946D01*
X84032291Y-34224952D01*
X84029286Y-34223060D01*
X84026537Y-34220804D01*
X84024093Y-34219792D01*
X84015701Y-34214509D01*
X83920463Y-34166890D01*
X83902155Y-34159884D01*
X83898571Y-34159629D01*
X83895251Y-34158254D01*
X83875742Y-34156333D01*
X83780504Y-34156333D01*
X83760995Y-34158254D01*
X83757674Y-34159629D01*
X83754091Y-34159884D01*
X83735782Y-34166890D01*
X83640545Y-34214509D01*
X83632148Y-34219794D01*
X83629708Y-34220805D01*
X83626962Y-34223058D01*
X83623954Y-34224952D01*
X83622221Y-34226949D01*
X83614555Y-34233242D01*
X83566936Y-34280860D01*
X83560641Y-34288530D01*
X83558647Y-34290260D01*
X83556753Y-34293267D01*
X83554500Y-34296014D01*
X83553489Y-34298453D01*
X83548204Y-34306850D01*
X83500585Y-34402088D01*
X83500039Y-34403514D01*
X83499609Y-34404095D01*
X83496687Y-34412271D01*
X83493579Y-34420396D01*
X83493527Y-34421118D01*
X83493014Y-34422556D01*
X83448057Y-34602380D01*
X83412604Y-34673287D01*
X83387935Y-34697955D01*
X83328326Y-34727761D01*
X83280302Y-34727761D01*
X83220692Y-34697956D01*
X83196024Y-34673287D01*
X83166219Y-34613677D01*
X83166219Y-34415417D01*
X83208706Y-34287956D01*
X83213053Y-34268841D01*
X83210287Y-34229921D01*
X83192837Y-34195022D01*
X83163361Y-34169457D01*
X83126345Y-34157118D01*
X83087425Y-34159885D01*
X83052526Y-34177334D01*
X83026961Y-34206810D01*
X83018970Y-34224711D01*
X82971351Y-34367567D01*
X82969151Y-34377238D01*
X82968140Y-34379681D01*
X82967791Y-34383219D01*
X82967004Y-34386683D01*
X82967191Y-34389316D01*
X82966219Y-34399190D01*
X82855108Y-34399190D01*
X82855108Y-34045222D01*
X84277330Y-34045222D01*
X84277330Y-37894094D01*
G37*
G36*
X45931554Y-80739471D02*
G01*
X45956223Y-80764139D01*
X45986028Y-80823749D01*
X45986028Y-81081094D01*
X45662219Y-81081094D01*
X45662219Y-80823749D01*
X45692024Y-80764139D01*
X45716692Y-80739470D01*
X45776302Y-80709666D01*
X45871945Y-80709666D01*
X45931554Y-80739471D01*
G37*
G36*
X46773330Y-81392205D02*
G01*
X45351108Y-81392205D01*
X45351108Y-80800142D01*
X45462219Y-80800142D01*
X45462219Y-81181094D01*
X45464140Y-81200603D01*
X45479072Y-81236651D01*
X45506662Y-81264241D01*
X45542710Y-81279173D01*
X45562219Y-81281094D01*
X46562219Y-81281094D01*
X46581728Y-81279173D01*
X46617776Y-81264241D01*
X46645366Y-81236651D01*
X46660298Y-81200603D01*
X46660298Y-81161585D01*
X46645366Y-81125537D01*
X46617776Y-81097947D01*
X46581728Y-81083015D01*
X46562219Y-81081094D01*
X46186028Y-81081094D01*
X46186028Y-80995064D01*
X46619565Y-80691589D01*
X46634446Y-80678828D01*
X46655415Y-80645923D01*
X46662196Y-80607498D01*
X46653756Y-80569404D01*
X46631381Y-80537439D01*
X46598476Y-80516470D01*
X46560052Y-80509689D01*
X46521957Y-80518129D01*
X46504873Y-80527743D01*
X46176347Y-80757710D01*
X46175471Y-80755420D01*
X46127852Y-80660183D01*
X46122566Y-80651786D01*
X46121556Y-80649346D01*
X46119302Y-80646600D01*
X46117409Y-80643592D01*
X46115411Y-80641859D01*
X46109119Y-80634193D01*
X46061501Y-80586574D01*
X46053830Y-80580279D01*
X46052101Y-80578285D01*
X46049093Y-80576391D01*
X46046347Y-80574138D01*
X46043907Y-80573127D01*
X46035511Y-80567842D01*
X45940273Y-80520223D01*
X45921965Y-80513217D01*
X45918381Y-80512962D01*
X45915061Y-80511587D01*
X45895552Y-80509666D01*
X45752695Y-80509666D01*
X45733186Y-80511587D01*
X45729865Y-80512962D01*
X45726282Y-80513217D01*
X45707973Y-80520223D01*
X45612736Y-80567842D01*
X45604339Y-80573127D01*
X45601899Y-80574138D01*
X45599153Y-80576391D01*
X45596145Y-80578285D01*
X45594412Y-80580282D01*
X45586746Y-80586575D01*
X45539127Y-80634193D01*
X45532832Y-80641863D01*
X45530838Y-80643593D01*
X45528944Y-80646600D01*
X45526691Y-80649347D01*
X45525680Y-80651786D01*
X45520395Y-80660183D01*
X45472776Y-80755421D01*
X45465770Y-80773729D01*
X45465515Y-80777312D01*
X45464140Y-80780633D01*
X45462219Y-80800142D01*
X45351108Y-80800142D01*
X45351108Y-79943104D01*
X45462219Y-79943104D01*
X45464140Y-79952709D01*
X45464140Y-79962508D01*
X45467929Y-79971656D01*
X45469871Y-79981364D01*
X45475322Y-79989504D01*
X45479072Y-79998556D01*
X45486071Y-80005555D01*
X45491582Y-80013784D01*
X45506588Y-80026072D01*
X45506662Y-80026146D01*
X45506694Y-80026159D01*
X45506749Y-80026204D01*
X45641365Y-80115948D01*
X45718129Y-80192712D01*
X45758490Y-80273434D01*
X45768933Y-80290024D01*
X45798410Y-80315589D01*
X45835426Y-80327927D01*
X45874346Y-80325162D01*
X45909244Y-80307713D01*
X45934809Y-80278236D01*
X45947148Y-80241220D01*
X45944382Y-80202300D01*
X45937376Y-80183991D01*
X45889757Y-80088754D01*
X45884470Y-80080355D01*
X45883461Y-80077918D01*
X45881209Y-80075174D01*
X45879314Y-80072163D01*
X45877316Y-80070430D01*
X45871025Y-80062764D01*
X45851260Y-80042999D01*
X46462219Y-80042999D01*
X46462219Y-80228713D01*
X46464140Y-80248222D01*
X46479072Y-80284270D01*
X46506662Y-80311860D01*
X46542710Y-80326792D01*
X46581728Y-80326792D01*
X46617776Y-80311860D01*
X46645366Y-80284270D01*
X46660298Y-80248222D01*
X46662219Y-80228713D01*
X46662219Y-79657285D01*
X46660298Y-79637776D01*
X46645366Y-79601728D01*
X46617776Y-79574138D01*
X46581728Y-79559206D01*
X46542710Y-79559206D01*
X46506662Y-79574138D01*
X46479072Y-79601728D01*
X46464140Y-79637776D01*
X46462219Y-79657285D01*
X46462219Y-79842999D01*
X45562219Y-79842999D01*
X45562148Y-79843005D01*
X45562114Y-79842999D01*
X45562012Y-79843019D01*
X45542710Y-79844920D01*
X45533561Y-79848709D01*
X45523854Y-79850651D01*
X45515713Y-79856102D01*
X45506662Y-79859852D01*
X45499662Y-79866851D01*
X45491434Y-79872362D01*
X45485998Y-79880515D01*
X45479072Y-79887442D01*
X45475283Y-79896588D01*
X45469791Y-79904827D01*
X45467889Y-79914437D01*
X45464140Y-79923490D01*
X45464140Y-79933393D01*
X45462219Y-79943104D01*
X45351108Y-79943104D01*
X45351108Y-79448095D01*
X46773330Y-79448095D01*
X46773330Y-81392205D01*
G37*
D12*
G36*
X48344581Y-68541451D02*
G01*
X48452562Y-68649431D01*
X48469422Y-68700009D01*
X48469422Y-68727921D01*
X48452562Y-68778499D01*
X48371521Y-68859541D01*
X48320939Y-68876402D01*
X48293030Y-68876402D01*
X48242448Y-68859541D01*
X48134470Y-68751563D01*
X48117611Y-68700983D01*
X48117611Y-68673073D01*
X48134470Y-68622494D01*
X48215512Y-68541452D01*
X48266093Y-68524592D01*
X48294002Y-68524592D01*
X48344581Y-68541451D01*
G37*
G36*
X48869079Y-68713966D02*
G01*
X48306985Y-69276060D01*
X47502453Y-68471529D01*
X47583265Y-68390717D01*
X47795987Y-68390717D01*
X47795987Y-68444592D01*
X47795992Y-68444648D01*
X47795987Y-68444676D01*
X47796734Y-68452182D01*
X47797524Y-68460199D01*
X47797535Y-68460227D01*
X47797541Y-68460281D01*
X47824477Y-68594968D01*
X47827322Y-68604313D01*
X47827613Y-68606265D01*
X47828464Y-68608062D01*
X47829045Y-68609970D01*
X47830146Y-68611614D01*
X47834325Y-68620439D01*
X47915137Y-68755126D01*
X47916765Y-68757320D01*
X47917218Y-68758412D01*
X47920968Y-68762982D01*
X47924484Y-68767718D01*
X47925431Y-68768419D01*
X47927167Y-68770535D01*
X48142667Y-68986034D01*
X48154789Y-68995983D01*
X48157446Y-68997083D01*
X48159617Y-68998966D01*
X48173937Y-69005360D01*
X48254750Y-69032297D01*
X48262489Y-69034056D01*
X48264441Y-69034865D01*
X48267269Y-69035143D01*
X48270042Y-69035774D01*
X48272149Y-69035624D01*
X48280048Y-69036402D01*
X48333922Y-69036402D01*
X48341819Y-69035624D01*
X48343927Y-69035774D01*
X48346699Y-69035143D01*
X48349529Y-69034865D01*
X48351480Y-69034056D01*
X48359220Y-69032297D01*
X48440032Y-69005360D01*
X48454353Y-68998967D01*
X48456527Y-68997081D01*
X48459181Y-68995982D01*
X48471304Y-68986033D01*
X48579053Y-68878283D01*
X48589002Y-68866160D01*
X48590101Y-68863505D01*
X48591985Y-68861334D01*
X48598378Y-68847014D01*
X48625317Y-68766201D01*
X48627076Y-68758461D01*
X48627885Y-68756510D01*
X48628163Y-68753681D01*
X48628794Y-68750909D01*
X48628644Y-68748800D01*
X48629422Y-68740903D01*
X48629422Y-68687028D01*
X48628644Y-68679130D01*
X48628794Y-68677022D01*
X48628163Y-68674249D01*
X48627885Y-68671421D01*
X48627076Y-68669469D01*
X48625317Y-68661730D01*
X48598378Y-68580917D01*
X48591985Y-68566597D01*
X48590100Y-68564424D01*
X48589001Y-68561770D01*
X48579052Y-68549647D01*
X48444366Y-68414960D01*
X48432243Y-68405011D01*
X48429585Y-68403910D01*
X48427415Y-68402028D01*
X48413095Y-68395634D01*
X48332283Y-68368697D01*
X48324543Y-68366937D01*
X48322592Y-68366129D01*
X48319763Y-68365850D01*
X48316991Y-68365220D01*
X48314883Y-68365369D01*
X48306985Y-68364592D01*
X48253110Y-68364592D01*
X48245211Y-68365369D01*
X48243104Y-68365220D01*
X48240331Y-68365850D01*
X48237503Y-68366129D01*
X48235551Y-68366937D01*
X48227812Y-68368697D01*
X48147000Y-68395634D01*
X48132680Y-68402028D01*
X48130509Y-68403910D01*
X48127852Y-68405011D01*
X48115730Y-68414960D01*
X48007979Y-68522710D01*
X47998030Y-68534833D01*
X47996929Y-68537490D01*
X47995047Y-68539661D01*
X47988653Y-68553981D01*
X47985934Y-68562137D01*
X47978652Y-68550001D01*
X47955987Y-68436673D01*
X47955987Y-68403699D01*
X47972846Y-68353120D01*
X48067243Y-68258723D01*
X48077192Y-68246601D01*
X48089138Y-68217762D01*
X48089138Y-68186547D01*
X48077192Y-68157709D01*
X48055120Y-68135637D01*
X48026282Y-68123691D01*
X47995067Y-68123691D01*
X47966228Y-68135637D01*
X47954106Y-68145586D01*
X47846355Y-68253336D01*
X47836406Y-68265459D01*
X47835305Y-68268116D01*
X47833423Y-68270287D01*
X47827029Y-68284607D01*
X47800092Y-68365419D01*
X47798332Y-68373158D01*
X47797524Y-68375110D01*
X47797245Y-68377938D01*
X47796615Y-68380711D01*
X47796764Y-68382818D01*
X47795987Y-68390717D01*
X47583265Y-68390717D01*
X48064548Y-67909434D01*
X48869079Y-68713966D01*
G37*
D11*
G36*
X67194859Y-32083024D02*
G01*
X67219528Y-32107692D01*
X67249333Y-32167302D01*
X67249333Y-32262945D01*
X67219528Y-32322554D01*
X67194859Y-32347222D01*
X67135250Y-32377028D01*
X66877905Y-32377028D01*
X66877905Y-32053219D01*
X67135250Y-32053219D01*
X67194859Y-32083024D01*
G37*
G36*
X68560444Y-33164330D02*
G01*
X66566794Y-33164330D01*
X66566794Y-31953219D01*
X66677905Y-31953219D01*
X66677905Y-32953219D01*
X66679826Y-32972728D01*
X66694758Y-33008776D01*
X66722348Y-33036366D01*
X66758396Y-33051298D01*
X66797414Y-33051298D01*
X66833462Y-33036366D01*
X66861052Y-33008776D01*
X66875984Y-32972728D01*
X66877905Y-32953219D01*
X66877905Y-32577028D01*
X66963935Y-32577028D01*
X67267410Y-33010565D01*
X67280171Y-33025446D01*
X67313076Y-33046415D01*
X67351501Y-33053196D01*
X67389595Y-33044756D01*
X67421560Y-33022381D01*
X67442529Y-32989476D01*
X67449310Y-32951052D01*
X67440870Y-32912957D01*
X67431256Y-32895873D01*
X67201288Y-32567347D01*
X67203578Y-32566471D01*
X67298816Y-32518852D01*
X67307212Y-32513566D01*
X67309652Y-32512556D01*
X67312398Y-32510302D01*
X67315406Y-32508409D01*
X67317135Y-32506414D01*
X67324806Y-32500120D01*
X67372424Y-32452501D01*
X67378716Y-32444834D01*
X67380714Y-32443102D01*
X67382607Y-32440093D01*
X67384861Y-32437348D01*
X67385871Y-32434907D01*
X67391157Y-32426511D01*
X67438776Y-32331274D01*
X67445782Y-32312965D01*
X67446036Y-32309381D01*
X67447412Y-32306061D01*
X67449333Y-32286552D01*
X67449333Y-32143695D01*
X67447412Y-32124186D01*
X67446036Y-32120865D01*
X67445782Y-32117282D01*
X67438776Y-32098973D01*
X67391157Y-32003736D01*
X67385871Y-31995339D01*
X67384861Y-31992899D01*
X67382607Y-31990153D01*
X67380714Y-31987145D01*
X67378716Y-31985412D01*
X67372424Y-31977746D01*
X67347793Y-31953114D01*
X67582667Y-31953114D01*
X67590239Y-31991391D01*
X67599462Y-32008689D01*
X67895815Y-32453219D01*
X67599462Y-32897749D01*
X67590239Y-32915047D01*
X67582667Y-32953324D01*
X67590319Y-32991584D01*
X67612030Y-33024004D01*
X67644495Y-33045647D01*
X67682772Y-33053219D01*
X67721032Y-33045567D01*
X67753452Y-33023856D01*
X67765872Y-33008689D01*
X68016000Y-32633496D01*
X68266128Y-33008689D01*
X68278548Y-33023856D01*
X68310968Y-33045567D01*
X68349228Y-33053219D01*
X68387505Y-33045647D01*
X68419970Y-33024004D01*
X68441681Y-32991584D01*
X68449333Y-32953324D01*
X68441761Y-32915047D01*
X68432538Y-32897749D01*
X68136184Y-32453219D01*
X68432538Y-32008689D01*
X68441761Y-31991391D01*
X68449333Y-31953114D01*
X68441681Y-31914854D01*
X68419970Y-31882434D01*
X68387505Y-31860791D01*
X68349228Y-31853219D01*
X68310968Y-31860871D01*
X68278548Y-31882582D01*
X68266128Y-31897749D01*
X68016000Y-32272941D01*
X67765872Y-31897749D01*
X67753452Y-31882582D01*
X67721032Y-31860871D01*
X67682772Y-31853219D01*
X67644495Y-31860791D01*
X67612030Y-31882434D01*
X67590319Y-31914854D01*
X67582667Y-31953114D01*
X67347793Y-31953114D01*
X67324806Y-31930127D01*
X67317135Y-31923832D01*
X67315406Y-31921838D01*
X67312398Y-31919944D01*
X67309652Y-31917691D01*
X67307212Y-31916680D01*
X67298816Y-31911395D01*
X67203578Y-31863776D01*
X67185270Y-31856770D01*
X67181686Y-31856515D01*
X67178366Y-31855140D01*
X67158857Y-31853219D01*
X66777905Y-31853219D01*
X66758396Y-31855140D01*
X66722348Y-31870072D01*
X66694758Y-31897662D01*
X66679826Y-31933710D01*
X66677905Y-31953219D01*
X66566794Y-31953219D01*
X66566794Y-31742108D01*
X68560444Y-31742108D01*
X68560444Y-33164330D01*
G37*
G36*
X80532859Y-45385024D02*
G01*
X80557528Y-45409692D01*
X80587333Y-45469302D01*
X80587333Y-45564945D01*
X80557528Y-45624554D01*
X80532859Y-45649222D01*
X80473250Y-45679028D01*
X80215905Y-45679028D01*
X80215905Y-45355219D01*
X80473250Y-45355219D01*
X80532859Y-45385024D01*
G37*
G36*
X81848904Y-46466330D02*
G01*
X79904794Y-46466330D01*
X79904794Y-45255219D01*
X80015905Y-45255219D01*
X80015905Y-46255219D01*
X80017826Y-46274728D01*
X80032758Y-46310776D01*
X80060348Y-46338366D01*
X80096396Y-46353298D01*
X80135414Y-46353298D01*
X80171462Y-46338366D01*
X80199052Y-46310776D01*
X80213984Y-46274728D01*
X80215905Y-46255219D01*
X80215905Y-45879028D01*
X80496857Y-45879028D01*
X80516366Y-45877107D01*
X80519686Y-45875731D01*
X80523270Y-45875477D01*
X80541578Y-45868471D01*
X80636816Y-45820852D01*
X80645212Y-45815566D01*
X80647652Y-45814556D01*
X80650398Y-45812302D01*
X80653406Y-45810409D01*
X80655135Y-45808414D01*
X80662806Y-45802120D01*
X80710424Y-45754501D01*
X80716716Y-45746834D01*
X80718714Y-45745102D01*
X80720607Y-45742093D01*
X80722861Y-45739348D01*
X80723871Y-45736907D01*
X80729157Y-45728511D01*
X80776776Y-45633274D01*
X80783782Y-45614965D01*
X80784036Y-45611381D01*
X80785412Y-45608061D01*
X80787333Y-45588552D01*
X80787333Y-45528426D01*
X80969071Y-45528426D01*
X80971837Y-45567346D01*
X80989286Y-45602245D01*
X81018763Y-45627809D01*
X81055779Y-45640148D01*
X81094699Y-45637382D01*
X81113007Y-45630376D01*
X81208245Y-45582757D01*
X81216641Y-45577471D01*
X81219081Y-45576461D01*
X81221827Y-45574207D01*
X81224835Y-45572314D01*
X81226564Y-45570319D01*
X81234235Y-45564025D01*
X81254000Y-45544260D01*
X81254000Y-46155219D01*
X81068286Y-46155219D01*
X81048777Y-46157140D01*
X81012729Y-46172072D01*
X80985139Y-46199662D01*
X80970207Y-46235710D01*
X80970207Y-46274728D01*
X80985139Y-46310776D01*
X81012729Y-46338366D01*
X81048777Y-46353298D01*
X81068286Y-46355219D01*
X81639714Y-46355219D01*
X81659223Y-46353298D01*
X81695271Y-46338366D01*
X81722861Y-46310776D01*
X81737793Y-46274728D01*
X81737793Y-46235710D01*
X81722861Y-46199662D01*
X81695271Y-46172072D01*
X81659223Y-46157140D01*
X81639714Y-46155219D01*
X81454000Y-46155219D01*
X81454000Y-45255219D01*
X81453993Y-45255148D01*
X81454000Y-45255114D01*
X81453979Y-45255012D01*
X81452079Y-45235710D01*
X81448289Y-45226561D01*
X81446348Y-45216854D01*
X81440896Y-45208713D01*
X81437147Y-45199662D01*
X81430147Y-45192662D01*
X81424637Y-45184434D01*
X81416482Y-45178997D01*
X81409557Y-45172072D01*
X81400413Y-45168284D01*
X81392172Y-45162790D01*
X81382558Y-45160888D01*
X81373509Y-45157140D01*
X81363608Y-45157140D01*
X81353896Y-45155219D01*
X81344291Y-45157140D01*
X81334491Y-45157140D01*
X81325342Y-45160929D01*
X81315635Y-45162871D01*
X81307494Y-45168322D01*
X81298443Y-45172072D01*
X81291443Y-45179071D01*
X81283215Y-45184582D01*
X81270926Y-45199588D01*
X81270853Y-45199662D01*
X81270839Y-45199694D01*
X81270795Y-45199749D01*
X81181051Y-45334365D01*
X81104287Y-45411128D01*
X81023565Y-45451490D01*
X81006974Y-45461933D01*
X80981410Y-45491410D01*
X80969071Y-45528426D01*
X80787333Y-45528426D01*
X80787333Y-45445695D01*
X80785412Y-45426186D01*
X80784036Y-45422865D01*
X80783782Y-45419282D01*
X80776776Y-45400973D01*
X80729157Y-45305736D01*
X80723871Y-45297339D01*
X80722861Y-45294899D01*
X80720607Y-45292153D01*
X80718714Y-45289145D01*
X80716716Y-45287412D01*
X80710424Y-45279746D01*
X80662806Y-45232127D01*
X80655135Y-45225832D01*
X80653406Y-45223838D01*
X80650398Y-45221944D01*
X80647652Y-45219691D01*
X80645212Y-45218680D01*
X80636816Y-45213395D01*
X80541578Y-45165776D01*
X80523270Y-45158770D01*
X80519686Y-45158515D01*
X80516366Y-45157140D01*
X80496857Y-45155219D01*
X80115905Y-45155219D01*
X80096396Y-45157140D01*
X80060348Y-45172072D01*
X80032758Y-45199662D01*
X80017826Y-45235710D01*
X80015905Y-45255219D01*
X79904794Y-45255219D01*
X79904794Y-45044108D01*
X81848904Y-45044108D01*
X81848904Y-46466330D01*
G37*
G36*
X80532859Y-42845024D02*
G01*
X80557528Y-42869692D01*
X80587333Y-42929302D01*
X80587333Y-43024945D01*
X80557528Y-43084554D01*
X80532859Y-43109222D01*
X80473250Y-43139028D01*
X80215905Y-43139028D01*
X80215905Y-42815219D01*
X80473250Y-42815219D01*
X80532859Y-42845024D01*
G37*
G36*
X81850825Y-43926330D02*
G01*
X79904794Y-43926330D01*
X79904794Y-42715219D01*
X80015905Y-42715219D01*
X80015905Y-43715219D01*
X80017826Y-43734728D01*
X80032758Y-43770776D01*
X80060348Y-43798366D01*
X80096396Y-43813298D01*
X80135414Y-43813298D01*
X80171462Y-43798366D01*
X80199052Y-43770776D01*
X80213984Y-43734728D01*
X80215905Y-43715219D01*
X80215905Y-43695710D01*
X80922588Y-43695710D01*
X80922588Y-43734728D01*
X80937520Y-43770776D01*
X80965110Y-43798366D01*
X81001158Y-43813298D01*
X81020667Y-43815219D01*
X81639714Y-43815219D01*
X81659223Y-43813298D01*
X81695271Y-43798366D01*
X81722861Y-43770776D01*
X81737793Y-43734728D01*
X81737793Y-43695710D01*
X81722861Y-43659662D01*
X81695271Y-43632072D01*
X81659223Y-43617140D01*
X81639714Y-43615219D01*
X81262089Y-43615219D01*
X81662806Y-43214501D01*
X81675242Y-43199347D01*
X81676616Y-43196028D01*
X81678972Y-43193313D01*
X81686963Y-43175413D01*
X81734582Y-43032556D01*
X81736781Y-43022883D01*
X81737793Y-43020442D01*
X81738141Y-43016904D01*
X81738929Y-43013441D01*
X81738741Y-43010806D01*
X81739714Y-43000933D01*
X81739714Y-42905695D01*
X81737793Y-42886186D01*
X81736417Y-42882865D01*
X81736163Y-42879282D01*
X81729157Y-42860973D01*
X81681538Y-42765736D01*
X81676252Y-42757339D01*
X81675242Y-42754899D01*
X81672988Y-42752153D01*
X81671095Y-42749145D01*
X81669097Y-42747412D01*
X81662805Y-42739746D01*
X81615187Y-42692127D01*
X81607516Y-42685832D01*
X81605787Y-42683838D01*
X81602779Y-42681944D01*
X81600033Y-42679691D01*
X81597593Y-42678680D01*
X81589197Y-42673395D01*
X81493959Y-42625776D01*
X81475651Y-42618770D01*
X81472067Y-42618515D01*
X81468747Y-42617140D01*
X81449238Y-42615219D01*
X81211143Y-42615219D01*
X81191634Y-42617140D01*
X81188313Y-42618515D01*
X81184730Y-42618770D01*
X81166421Y-42625776D01*
X81071184Y-42673395D01*
X81062787Y-42678680D01*
X81060347Y-42679691D01*
X81057601Y-42681944D01*
X81054593Y-42683838D01*
X81052860Y-42685835D01*
X81045194Y-42692128D01*
X80997575Y-42739746D01*
X80985139Y-42754900D01*
X80970207Y-42790948D01*
X80970207Y-42829966D01*
X80985139Y-42866014D01*
X81012729Y-42893604D01*
X81048777Y-42908536D01*
X81087795Y-42908536D01*
X81123843Y-42893604D01*
X81138997Y-42881168D01*
X81175140Y-42845023D01*
X81234750Y-42815219D01*
X81425631Y-42815219D01*
X81485240Y-42845024D01*
X81509909Y-42869692D01*
X81539714Y-42929302D01*
X81539714Y-42984706D01*
X81504692Y-43089770D01*
X80949956Y-43644508D01*
X80937520Y-43659662D01*
X80922588Y-43695710D01*
X80215905Y-43695710D01*
X80215905Y-43339028D01*
X80496857Y-43339028D01*
X80516366Y-43337107D01*
X80519686Y-43335731D01*
X80523270Y-43335477D01*
X80541578Y-43328471D01*
X80636816Y-43280852D01*
X80645212Y-43275566D01*
X80647652Y-43274556D01*
X80650398Y-43272302D01*
X80653406Y-43270409D01*
X80655135Y-43268414D01*
X80662806Y-43262120D01*
X80710424Y-43214501D01*
X80716716Y-43206834D01*
X80718714Y-43205102D01*
X80720607Y-43202093D01*
X80722861Y-43199348D01*
X80723871Y-43196907D01*
X80729157Y-43188511D01*
X80776776Y-43093274D01*
X80783782Y-43074965D01*
X80784036Y-43071381D01*
X80785412Y-43068061D01*
X80787333Y-43048552D01*
X80787333Y-42905695D01*
X80785412Y-42886186D01*
X80784036Y-42882865D01*
X80783782Y-42879282D01*
X80776776Y-42860973D01*
X80729157Y-42765736D01*
X80723871Y-42757339D01*
X80722861Y-42754899D01*
X80720607Y-42752153D01*
X80718714Y-42749145D01*
X80716716Y-42747412D01*
X80710424Y-42739746D01*
X80662806Y-42692127D01*
X80655135Y-42685832D01*
X80653406Y-42683838D01*
X80650398Y-42681944D01*
X80647652Y-42679691D01*
X80645212Y-42678680D01*
X80636816Y-42673395D01*
X80541578Y-42625776D01*
X80523270Y-42618770D01*
X80519686Y-42618515D01*
X80516366Y-42617140D01*
X80496857Y-42615219D01*
X80115905Y-42615219D01*
X80096396Y-42617140D01*
X80060348Y-42632072D01*
X80032758Y-42659662D01*
X80017826Y-42695710D01*
X80015905Y-42715219D01*
X79904794Y-42715219D01*
X79904794Y-42504108D01*
X81850825Y-42504108D01*
X81850825Y-43926330D01*
G37*
G36*
X51318906Y-30405024D02*
G01*
X51343575Y-30429692D01*
X51373380Y-30489302D01*
X51373380Y-30584945D01*
X51343575Y-30644554D01*
X51318906Y-30669222D01*
X51259297Y-30699028D01*
X51001952Y-30699028D01*
X51001952Y-30375219D01*
X51259297Y-30375219D01*
X51318906Y-30405024D01*
G37*
G36*
X53492094Y-31486330D02*
G01*
X50690841Y-31486330D01*
X50690841Y-30275219D01*
X50801952Y-30275219D01*
X50801952Y-31275219D01*
X50803873Y-31294728D01*
X50818805Y-31330776D01*
X50846395Y-31358366D01*
X50882443Y-31373298D01*
X50921461Y-31373298D01*
X50957509Y-31358366D01*
X50985099Y-31330776D01*
X51000031Y-31294728D01*
X51001952Y-31275219D01*
X51001952Y-30899028D01*
X51087982Y-30899028D01*
X51391457Y-31332565D01*
X51404218Y-31347446D01*
X51437123Y-31368415D01*
X51475548Y-31375196D01*
X51513642Y-31366756D01*
X51545607Y-31344381D01*
X51566576Y-31311476D01*
X51573357Y-31273052D01*
X51564917Y-31234957D01*
X51555303Y-31217873D01*
X51325335Y-30889347D01*
X51327625Y-30888471D01*
X51422863Y-30840852D01*
X51431259Y-30835566D01*
X51433699Y-30834556D01*
X51436445Y-30832302D01*
X51439453Y-30830409D01*
X51441182Y-30828414D01*
X51448853Y-30822120D01*
X51496471Y-30774501D01*
X51502763Y-30766834D01*
X51504761Y-30765102D01*
X51506654Y-30762093D01*
X51508908Y-30759348D01*
X51509918Y-30756907D01*
X51515204Y-30748511D01*
X51562823Y-30653274D01*
X51569829Y-30634965D01*
X51570083Y-30631381D01*
X51571459Y-30628061D01*
X51573380Y-30608552D01*
X51573380Y-30465695D01*
X51754333Y-30465695D01*
X51754333Y-30560933D01*
X51756254Y-30580442D01*
X51757629Y-30583762D01*
X51757884Y-30587346D01*
X51764890Y-30605654D01*
X51812509Y-30700892D01*
X51817794Y-30709288D01*
X51818805Y-30711728D01*
X51821058Y-30714474D01*
X51822952Y-30717482D01*
X51824946Y-30719211D01*
X51831241Y-30726882D01*
X51878860Y-30774500D01*
X51886526Y-30780792D01*
X51888259Y-30782790D01*
X51891267Y-30784683D01*
X51894013Y-30786937D01*
X51896453Y-30787947D01*
X51904850Y-30793233D01*
X52000087Y-30840852D01*
X52001515Y-30841398D01*
X52002095Y-30841828D01*
X52010271Y-30844749D01*
X52018396Y-30847858D01*
X52019116Y-30847909D01*
X52020555Y-30848423D01*
X52200380Y-30893379D01*
X52271287Y-30928833D01*
X52295956Y-30953501D01*
X52325761Y-31013111D01*
X52325761Y-31061135D01*
X52295956Y-31120743D01*
X52271287Y-31145413D01*
X52211678Y-31175219D01*
X52013416Y-31175219D01*
X51885956Y-31132732D01*
X51866840Y-31128385D01*
X51827920Y-31131151D01*
X51793021Y-31148601D01*
X51767456Y-31178077D01*
X51755118Y-31215093D01*
X51757884Y-31254013D01*
X51775334Y-31288912D01*
X51804810Y-31314477D01*
X51822710Y-31322468D01*
X51965567Y-31370087D01*
X51975239Y-31372286D01*
X51977681Y-31373298D01*
X51981218Y-31373646D01*
X51984682Y-31374434D01*
X51987316Y-31374246D01*
X51997190Y-31375219D01*
X52235285Y-31375219D01*
X52254794Y-31373298D01*
X52258114Y-31371922D01*
X52261698Y-31371668D01*
X52280006Y-31364662D01*
X52375244Y-31317043D01*
X52383639Y-31311758D01*
X52386081Y-31310747D01*
X52388828Y-31308491D01*
X52391834Y-31306600D01*
X52393564Y-31304605D01*
X52401234Y-31298310D01*
X52448853Y-31250690D01*
X52455145Y-31243023D01*
X52457142Y-31241292D01*
X52459035Y-31238284D01*
X52461290Y-31235537D01*
X52462301Y-31233095D01*
X52467585Y-31224701D01*
X52515204Y-31129464D01*
X52522210Y-31111155D01*
X52522464Y-31107571D01*
X52523840Y-31104251D01*
X52525761Y-31084742D01*
X52525761Y-30989504D01*
X52523840Y-30969995D01*
X52522464Y-30966674D01*
X52522210Y-30963091D01*
X52515204Y-30944782D01*
X52467585Y-30849545D01*
X52462299Y-30841148D01*
X52461289Y-30838708D01*
X52459035Y-30835962D01*
X52457142Y-30832954D01*
X52455144Y-30831221D01*
X52448852Y-30823555D01*
X52401234Y-30775936D01*
X52393563Y-30769641D01*
X52391834Y-30767647D01*
X52388826Y-30765753D01*
X52386080Y-30763500D01*
X52383640Y-30762489D01*
X52375244Y-30757204D01*
X52280006Y-30709585D01*
X52278579Y-30709039D01*
X52277999Y-30708609D01*
X52269822Y-30705687D01*
X52261698Y-30702579D01*
X52260975Y-30702527D01*
X52259538Y-30702014D01*
X52079713Y-30657057D01*
X52008806Y-30621604D01*
X51984138Y-30596935D01*
X51954333Y-30537325D01*
X51954333Y-30489302D01*
X51984138Y-30429692D01*
X52008806Y-30405023D01*
X52068416Y-30375219D01*
X52266677Y-30375219D01*
X52394138Y-30417706D01*
X52413253Y-30422053D01*
X52452173Y-30419287D01*
X52487072Y-30401837D01*
X52512637Y-30372361D01*
X52524976Y-30335345D01*
X52522209Y-30296425D01*
X52504760Y-30261526D01*
X52498054Y-30255710D01*
X52613397Y-30255710D01*
X52613397Y-30294728D01*
X52628329Y-30330776D01*
X52655919Y-30358366D01*
X52691967Y-30373298D01*
X52711476Y-30375219D01*
X52897190Y-30375219D01*
X52897190Y-31275219D01*
X52899111Y-31294728D01*
X52914043Y-31330776D01*
X52941633Y-31358366D01*
X52977681Y-31373298D01*
X53016699Y-31373298D01*
X53052747Y-31358366D01*
X53080337Y-31330776D01*
X53095269Y-31294728D01*
X53097190Y-31275219D01*
X53097190Y-30375219D01*
X53282904Y-30375219D01*
X53302413Y-30373298D01*
X53338461Y-30358366D01*
X53366051Y-30330776D01*
X53380983Y-30294728D01*
X53380983Y-30255710D01*
X53366051Y-30219662D01*
X53338461Y-30192072D01*
X53302413Y-30177140D01*
X53282904Y-30175219D01*
X52711476Y-30175219D01*
X52691967Y-30177140D01*
X52655919Y-30192072D01*
X52628329Y-30219662D01*
X52613397Y-30255710D01*
X52498054Y-30255710D01*
X52475284Y-30235961D01*
X52457383Y-30227970D01*
X52314527Y-30180351D01*
X52304855Y-30178151D01*
X52302413Y-30177140D01*
X52298874Y-30176791D01*
X52295411Y-30176004D01*
X52292777Y-30176191D01*
X52282904Y-30175219D01*
X52044809Y-30175219D01*
X52025300Y-30177140D01*
X52021979Y-30178515D01*
X52018396Y-30178770D01*
X52000087Y-30185776D01*
X51904850Y-30233395D01*
X51896453Y-30238680D01*
X51894013Y-30239691D01*
X51891267Y-30241944D01*
X51888259Y-30243838D01*
X51886526Y-30245835D01*
X51878860Y-30252128D01*
X51831241Y-30299746D01*
X51824946Y-30307416D01*
X51822952Y-30309146D01*
X51821058Y-30312153D01*
X51818805Y-30314900D01*
X51817794Y-30317339D01*
X51812509Y-30325736D01*
X51764890Y-30420974D01*
X51757884Y-30439282D01*
X51757629Y-30442865D01*
X51756254Y-30446186D01*
X51754333Y-30465695D01*
X51573380Y-30465695D01*
X51571459Y-30446186D01*
X51570083Y-30442865D01*
X51569829Y-30439282D01*
X51562823Y-30420973D01*
X51515204Y-30325736D01*
X51509918Y-30317339D01*
X51508908Y-30314899D01*
X51506654Y-30312153D01*
X51504761Y-30309145D01*
X51502763Y-30307412D01*
X51496471Y-30299746D01*
X51448853Y-30252127D01*
X51441182Y-30245832D01*
X51439453Y-30243838D01*
X51436445Y-30241944D01*
X51433699Y-30239691D01*
X51431259Y-30238680D01*
X51422863Y-30233395D01*
X51327625Y-30185776D01*
X51309317Y-30178770D01*
X51305733Y-30178515D01*
X51302413Y-30177140D01*
X51282904Y-30175219D01*
X50901952Y-30175219D01*
X50882443Y-30177140D01*
X50846395Y-30192072D01*
X50818805Y-30219662D01*
X50803873Y-30255710D01*
X50801952Y-30275219D01*
X50690841Y-30275219D01*
X50690841Y-30064108D01*
X53492094Y-30064108D01*
X53492094Y-31486330D01*
G37*
D12*
G36*
X62478164Y-70892927D02*
G01*
X61340386Y-70892927D01*
X61340386Y-70181327D01*
X61429903Y-70181327D01*
X61432115Y-70212463D01*
X61446075Y-70240383D01*
X61469657Y-70260834D01*
X61483977Y-70267228D01*
X62056291Y-70457999D01*
X61483977Y-70648771D01*
X61469657Y-70655165D01*
X61446075Y-70675617D01*
X61432115Y-70703536D01*
X61429903Y-70734672D01*
X61439774Y-70764284D01*
X61460226Y-70787866D01*
X61488145Y-70801826D01*
X61519281Y-70804038D01*
X61534573Y-70800561D01*
X62334573Y-70533894D01*
X62348893Y-70527500D01*
X62353208Y-70523757D01*
X62358325Y-70521199D01*
X62364899Y-70513618D01*
X62372475Y-70507048D01*
X62375031Y-70501934D01*
X62378776Y-70497617D01*
X62381947Y-70488101D01*
X62386434Y-70479129D01*
X62386839Y-70473428D01*
X62388647Y-70468005D01*
X62387935Y-70457996D01*
X62388647Y-70447993D01*
X62386840Y-70442572D01*
X62386435Y-70436869D01*
X62381946Y-70427892D01*
X62378776Y-70418381D01*
X62375032Y-70414064D01*
X62372475Y-70408950D01*
X62364896Y-70402377D01*
X62358324Y-70394799D01*
X62353209Y-70392241D01*
X62348893Y-70388498D01*
X62334573Y-70382104D01*
X61534573Y-70115438D01*
X61519281Y-70111961D01*
X61488145Y-70114173D01*
X61460225Y-70128133D01*
X61439774Y-70151715D01*
X61429903Y-70181327D01*
X61340386Y-70181327D01*
X61340386Y-69619904D01*
X61429275Y-69619904D01*
X61429275Y-69696095D01*
X61430052Y-69703992D01*
X61429903Y-69706101D01*
X61430533Y-69708873D01*
X61430812Y-69711702D01*
X61431620Y-69713653D01*
X61433380Y-69721393D01*
X61471475Y-69835679D01*
X61477869Y-69849999D01*
X61479751Y-69852169D01*
X61480852Y-69854827D01*
X61490801Y-69866950D01*
X61566992Y-69943140D01*
X61573126Y-69948175D01*
X61574511Y-69949771D01*
X61576914Y-69951284D01*
X61579114Y-69953089D01*
X61581068Y-69953898D01*
X61587783Y-69958125D01*
X61663974Y-69996220D01*
X61665115Y-69996656D01*
X61665580Y-69997001D01*
X61672128Y-69999340D01*
X61678621Y-70001825D01*
X61679197Y-70001865D01*
X61680348Y-70002277D01*
X61832729Y-70040373D01*
X61835434Y-70040773D01*
X61836525Y-70041225D01*
X61842398Y-70041803D01*
X61848243Y-70042668D01*
X61849411Y-70042494D01*
X61852132Y-70042762D01*
X61966418Y-70042762D01*
X61969138Y-70042494D01*
X61970307Y-70042668D01*
X61976151Y-70041803D01*
X61982025Y-70041225D01*
X61983115Y-70040773D01*
X61985821Y-70040373D01*
X62138202Y-70002277D01*
X62139352Y-70001865D01*
X62139929Y-70001825D01*
X62146421Y-69999340D01*
X62152970Y-69997001D01*
X62153434Y-69996656D01*
X62154576Y-69996220D01*
X62230766Y-69958125D01*
X62237482Y-69953897D01*
X62239434Y-69953089D01*
X62241630Y-69951286D01*
X62244038Y-69949771D01*
X62245423Y-69948173D01*
X62251557Y-69943140D01*
X62327748Y-69866950D01*
X62337697Y-69854827D01*
X62338797Y-69852171D01*
X62340681Y-69849999D01*
X62347075Y-69835679D01*
X62385170Y-69721393D01*
X62386929Y-69713653D01*
X62387738Y-69711702D01*
X62388016Y-69708873D01*
X62388647Y-69706101D01*
X62388497Y-69703992D01*
X62389275Y-69696095D01*
X62389275Y-69619904D01*
X62388497Y-69612006D01*
X62388647Y-69609898D01*
X62388016Y-69607125D01*
X62387738Y-69604297D01*
X62386929Y-69602345D01*
X62385170Y-69594606D01*
X62347075Y-69480321D01*
X62340681Y-69466001D01*
X62338798Y-69463830D01*
X62337698Y-69461173D01*
X62327749Y-69449051D01*
X62289653Y-69410954D01*
X62277530Y-69401005D01*
X62248691Y-69389060D01*
X62217477Y-69389060D01*
X62188638Y-69401005D01*
X62166566Y-69423077D01*
X62154621Y-69451916D01*
X62154621Y-69483130D01*
X62166566Y-69511969D01*
X62176515Y-69524092D01*
X62201257Y-69548833D01*
X62229275Y-69632887D01*
X62229275Y-69683112D01*
X62201257Y-69767166D01*
X62147600Y-69820822D01*
X62090875Y-69849185D01*
X61956571Y-69882762D01*
X61861979Y-69882762D01*
X61727673Y-69849185D01*
X61670949Y-69820822D01*
X61617292Y-69767165D01*
X61589275Y-69683112D01*
X61589275Y-69632887D01*
X61617293Y-69548832D01*
X61642034Y-69524091D01*
X61651983Y-69511968D01*
X61663928Y-69483129D01*
X61663928Y-69451915D01*
X61651982Y-69423076D01*
X61629910Y-69401005D01*
X61601071Y-69389060D01*
X61569857Y-69389060D01*
X61541018Y-69401006D01*
X61528896Y-69410955D01*
X61490801Y-69449051D01*
X61480852Y-69461174D01*
X61479751Y-69463830D01*
X61477869Y-69466001D01*
X61471475Y-69480321D01*
X61433380Y-69594606D01*
X61431620Y-69602345D01*
X61430812Y-69604297D01*
X61430533Y-69607125D01*
X61429903Y-69609898D01*
X61430052Y-69612006D01*
X61429275Y-69619904D01*
X61340386Y-69619904D01*
X61340386Y-68819904D01*
X61429275Y-68819904D01*
X61429275Y-68896095D01*
X61430052Y-68903992D01*
X61429903Y-68906101D01*
X61430533Y-68908873D01*
X61430812Y-68911702D01*
X61431620Y-68913653D01*
X61433380Y-68921393D01*
X61471475Y-69035679D01*
X61477869Y-69049999D01*
X61479751Y-69052169D01*
X61480852Y-69054827D01*
X61490801Y-69066950D01*
X61566992Y-69143140D01*
X61573126Y-69148175D01*
X61574511Y-69149771D01*
X61576914Y-69151284D01*
X61579114Y-69153089D01*
X61581068Y-69153898D01*
X61587783Y-69158125D01*
X61663974Y-69196220D01*
X61665115Y-69196656D01*
X61665580Y-69197001D01*
X61672128Y-69199340D01*
X61678621Y-69201825D01*
X61679197Y-69201865D01*
X61680348Y-69202277D01*
X61832729Y-69240373D01*
X61835434Y-69240773D01*
X61836525Y-69241225D01*
X61842398Y-69241803D01*
X61848243Y-69242668D01*
X61849411Y-69242494D01*
X61852132Y-69242762D01*
X61966418Y-69242762D01*
X61969138Y-69242494D01*
X61970307Y-69242668D01*
X61976151Y-69241803D01*
X61982025Y-69241225D01*
X61983115Y-69240773D01*
X61985821Y-69240373D01*
X62138202Y-69202277D01*
X62139352Y-69201865D01*
X62139929Y-69201825D01*
X62146421Y-69199340D01*
X62152970Y-69197001D01*
X62153434Y-69196656D01*
X62154576Y-69196220D01*
X62230766Y-69158125D01*
X62237482Y-69153897D01*
X62239434Y-69153089D01*
X62241630Y-69151286D01*
X62244038Y-69149771D01*
X62245423Y-69148173D01*
X62251557Y-69143140D01*
X62327748Y-69066950D01*
X62337697Y-69054827D01*
X62338797Y-69052171D01*
X62340681Y-69049999D01*
X62347075Y-69035679D01*
X62385170Y-68921393D01*
X62386929Y-68913653D01*
X62387738Y-68911702D01*
X62388016Y-68908873D01*
X62388647Y-68906101D01*
X62388497Y-68903992D01*
X62389275Y-68896095D01*
X62389275Y-68819904D01*
X62388497Y-68812006D01*
X62388647Y-68809898D01*
X62388016Y-68807125D01*
X62387738Y-68804297D01*
X62386929Y-68802345D01*
X62385170Y-68794606D01*
X62347075Y-68680321D01*
X62340681Y-68666001D01*
X62338798Y-68663830D01*
X62337698Y-68661173D01*
X62327749Y-68649051D01*
X62289653Y-68610954D01*
X62277530Y-68601005D01*
X62248691Y-68589060D01*
X62217477Y-68589060D01*
X62188638Y-68601005D01*
X62166566Y-68623077D01*
X62154621Y-68651916D01*
X62154621Y-68683130D01*
X62166566Y-68711969D01*
X62176515Y-68724092D01*
X62201257Y-68748833D01*
X62229275Y-68832887D01*
X62229275Y-68883112D01*
X62201257Y-68967166D01*
X62147600Y-69020822D01*
X62090875Y-69049185D01*
X61956571Y-69082762D01*
X61861979Y-69082762D01*
X61727673Y-69049185D01*
X61670949Y-69020822D01*
X61617292Y-68967165D01*
X61589275Y-68883112D01*
X61589275Y-68832887D01*
X61617293Y-68748832D01*
X61642034Y-68724091D01*
X61651983Y-68711968D01*
X61663928Y-68683129D01*
X61663928Y-68651915D01*
X61651982Y-68623076D01*
X61629910Y-68601005D01*
X61601071Y-68589060D01*
X61569857Y-68589060D01*
X61541018Y-68601006D01*
X61528896Y-68610955D01*
X61490801Y-68649051D01*
X61480852Y-68661174D01*
X61479751Y-68663830D01*
X61477869Y-68666001D01*
X61471475Y-68680321D01*
X61433380Y-68794606D01*
X61431620Y-68802345D01*
X61430812Y-68804297D01*
X61430533Y-68807125D01*
X61429903Y-68809898D01*
X61430052Y-68812006D01*
X61429275Y-68819904D01*
X61340386Y-68819904D01*
X61340386Y-68500171D01*
X62478164Y-68500171D01*
X62478164Y-70892927D01*
G37*
G36*
X65018164Y-70779270D02*
G01*
X63880386Y-70779270D01*
X63880386Y-70267523D01*
X63969275Y-70267523D01*
X63969275Y-70458000D01*
X63970812Y-70473607D01*
X63971912Y-70476263D01*
X63972116Y-70479130D01*
X63977721Y-70493777D01*
X64015816Y-70569967D01*
X64020042Y-70576681D01*
X64020852Y-70578636D01*
X64022657Y-70580835D01*
X64024170Y-70583239D01*
X64025764Y-70584621D01*
X64030801Y-70590759D01*
X64068896Y-70628853D01*
X64075030Y-70633887D01*
X64076416Y-70635485D01*
X64078824Y-70637000D01*
X64081019Y-70638802D01*
X64082969Y-70639609D01*
X64089688Y-70643839D01*
X64165878Y-70681935D01*
X64180525Y-70687540D01*
X64183392Y-70687743D01*
X64186049Y-70688844D01*
X64201656Y-70690381D01*
X64277846Y-70690381D01*
X64293453Y-70688844D01*
X64296109Y-70687743D01*
X64298977Y-70687540D01*
X64313623Y-70681935D01*
X64389814Y-70643839D01*
X64396528Y-70639612D01*
X64398483Y-70638803D01*
X64400682Y-70636997D01*
X64403086Y-70635485D01*
X64404468Y-70633890D01*
X64410606Y-70628854D01*
X64448700Y-70590759D01*
X64453734Y-70584624D01*
X64455332Y-70583239D01*
X64456847Y-70580830D01*
X64458649Y-70578636D01*
X64459456Y-70576685D01*
X64463686Y-70569967D01*
X64501781Y-70493777D01*
X64502217Y-70492635D01*
X64502562Y-70492171D01*
X64504901Y-70485622D01*
X64507386Y-70479130D01*
X64507426Y-70478553D01*
X64507838Y-70477403D01*
X64543804Y-70333539D01*
X64572165Y-70276817D01*
X64591902Y-70257080D01*
X64639588Y-70233238D01*
X64678009Y-70233238D01*
X64725695Y-70257081D01*
X64745432Y-70276817D01*
X64769275Y-70324503D01*
X64769275Y-70483112D01*
X64735285Y-70585083D01*
X64731808Y-70600375D01*
X64734020Y-70631512D01*
X64747980Y-70659431D01*
X64771562Y-70679882D01*
X64801174Y-70689753D01*
X64832311Y-70687541D01*
X64860230Y-70673581D01*
X64880681Y-70649999D01*
X64887075Y-70635679D01*
X64925170Y-70521393D01*
X64926929Y-70513653D01*
X64927738Y-70511702D01*
X64928016Y-70508873D01*
X64928647Y-70506101D01*
X64928497Y-70503992D01*
X64929275Y-70496095D01*
X64929275Y-70305619D01*
X64927738Y-70290012D01*
X64926637Y-70287355D01*
X64926434Y-70284489D01*
X64920829Y-70269842D01*
X64882734Y-70193651D01*
X64878505Y-70186933D01*
X64877697Y-70184981D01*
X64875893Y-70182783D01*
X64874380Y-70180379D01*
X64872783Y-70178994D01*
X64867748Y-70172859D01*
X64829652Y-70134764D01*
X64823518Y-70129730D01*
X64822133Y-70128133D01*
X64819725Y-70126617D01*
X64817529Y-70124815D01*
X64815577Y-70124006D01*
X64808861Y-70119779D01*
X64732671Y-70081684D01*
X64718024Y-70076079D01*
X64715157Y-70075875D01*
X64712501Y-70074775D01*
X64696894Y-70073238D01*
X64620703Y-70073238D01*
X64605096Y-70074775D01*
X64602439Y-70075875D01*
X64599573Y-70076079D01*
X64584926Y-70081684D01*
X64508736Y-70119779D01*
X64502017Y-70124008D01*
X64500067Y-70124816D01*
X64497872Y-70126617D01*
X64495464Y-70128133D01*
X64494078Y-70129730D01*
X64487944Y-70134765D01*
X64449849Y-70172859D01*
X64444812Y-70178996D01*
X64443218Y-70180379D01*
X64441705Y-70182782D01*
X64439900Y-70184982D01*
X64439090Y-70186936D01*
X64434864Y-70193651D01*
X64396768Y-70269842D01*
X64396331Y-70270983D01*
X64395987Y-70271448D01*
X64393650Y-70277988D01*
X64391163Y-70284488D01*
X64391121Y-70285065D01*
X64390711Y-70286216D01*
X64354745Y-70430077D01*
X64326384Y-70486800D01*
X64306647Y-70506537D01*
X64258961Y-70530381D01*
X64220541Y-70530381D01*
X64172854Y-70506537D01*
X64153117Y-70486799D01*
X64129275Y-70439115D01*
X64129275Y-70280506D01*
X64163265Y-70178536D01*
X64166742Y-70163244D01*
X64164530Y-70132108D01*
X64150570Y-70104189D01*
X64126988Y-70083737D01*
X64097376Y-70073866D01*
X64066240Y-70076078D01*
X64038321Y-70090038D01*
X64017869Y-70113620D01*
X64011475Y-70127940D01*
X63973380Y-70242225D01*
X63971620Y-70249964D01*
X63970812Y-70251916D01*
X63970533Y-70254744D01*
X63969903Y-70257517D01*
X63970052Y-70259625D01*
X63969275Y-70267523D01*
X63880386Y-70267523D01*
X63880386Y-69505618D01*
X63969275Y-69505618D01*
X63969275Y-69581809D01*
X63970052Y-69589706D01*
X63969903Y-69591815D01*
X63970533Y-69594587D01*
X63970812Y-69597416D01*
X63971620Y-69599367D01*
X63973380Y-69607107D01*
X64011475Y-69721393D01*
X64017869Y-69735713D01*
X64019751Y-69737883D01*
X64020852Y-69740541D01*
X64030801Y-69752664D01*
X64106992Y-69828854D01*
X64113126Y-69833889D01*
X64114511Y-69835485D01*
X64116914Y-69836998D01*
X64119114Y-69838803D01*
X64121068Y-69839612D01*
X64127783Y-69843839D01*
X64203974Y-69881934D01*
X64205115Y-69882370D01*
X64205580Y-69882715D01*
X64212128Y-69885054D01*
X64218621Y-69887539D01*
X64219197Y-69887579D01*
X64220348Y-69887991D01*
X64372729Y-69926087D01*
X64375434Y-69926487D01*
X64376525Y-69926939D01*
X64382398Y-69927517D01*
X64388243Y-69928382D01*
X64389411Y-69928208D01*
X64392132Y-69928476D01*
X64506418Y-69928476D01*
X64509138Y-69928208D01*
X64510307Y-69928382D01*
X64516151Y-69927517D01*
X64522025Y-69926939D01*
X64523115Y-69926487D01*
X64525821Y-69926087D01*
X64678202Y-69887991D01*
X64679352Y-69887579D01*
X64679929Y-69887539D01*
X64686421Y-69885054D01*
X64692970Y-69882715D01*
X64693434Y-69882370D01*
X64694576Y-69881934D01*
X64770766Y-69843839D01*
X64777482Y-69839611D01*
X64779434Y-69838803D01*
X64781630Y-69837000D01*
X64784038Y-69835485D01*
X64785423Y-69833887D01*
X64791557Y-69828854D01*
X64867748Y-69752664D01*
X64877697Y-69740541D01*
X64878797Y-69737885D01*
X64880681Y-69735713D01*
X64887075Y-69721393D01*
X64925170Y-69607107D01*
X64926929Y-69599367D01*
X64927738Y-69597416D01*
X64928016Y-69594587D01*
X64928647Y-69591815D01*
X64928497Y-69589706D01*
X64929275Y-69581809D01*
X64929275Y-69505618D01*
X64928497Y-69497720D01*
X64928647Y-69495612D01*
X64928016Y-69492839D01*
X64927738Y-69490011D01*
X64926929Y-69488059D01*
X64925170Y-69480320D01*
X64887075Y-69366035D01*
X64880681Y-69351715D01*
X64878798Y-69349544D01*
X64877698Y-69346887D01*
X64867749Y-69334765D01*
X64829653Y-69296668D01*
X64817530Y-69286719D01*
X64788691Y-69274774D01*
X64757477Y-69274774D01*
X64728638Y-69286719D01*
X64706566Y-69308791D01*
X64694621Y-69337630D01*
X64694621Y-69368844D01*
X64706566Y-69397683D01*
X64716515Y-69409806D01*
X64741257Y-69434547D01*
X64769275Y-69518601D01*
X64769275Y-69568826D01*
X64741257Y-69652880D01*
X64687600Y-69706536D01*
X64630875Y-69734899D01*
X64496571Y-69768476D01*
X64401979Y-69768476D01*
X64267673Y-69734899D01*
X64210949Y-69706536D01*
X64157292Y-69652879D01*
X64129275Y-69568826D01*
X64129275Y-69518601D01*
X64157293Y-69434546D01*
X64182034Y-69409805D01*
X64191983Y-69397682D01*
X64203928Y-69368843D01*
X64203928Y-69337629D01*
X64191982Y-69308790D01*
X64169910Y-69286719D01*
X64141071Y-69274774D01*
X64109857Y-69274774D01*
X64081018Y-69286720D01*
X64068896Y-69296669D01*
X64030801Y-69334765D01*
X64020852Y-69346888D01*
X64019751Y-69349544D01*
X64017869Y-69351715D01*
X64011475Y-69366035D01*
X63973380Y-69480320D01*
X63971620Y-69488059D01*
X63970812Y-69490011D01*
X63970533Y-69492839D01*
X63969903Y-69495612D01*
X63970052Y-69497720D01*
X63969275Y-69505618D01*
X63880386Y-69505618D01*
X63880386Y-68994773D01*
X63970812Y-68994773D01*
X63970812Y-69025987D01*
X63982757Y-69054826D01*
X64004829Y-69076898D01*
X64033668Y-69088843D01*
X64049275Y-69090380D01*
X64849275Y-69090380D01*
X64864882Y-69088843D01*
X64893721Y-69076898D01*
X64915793Y-69054826D01*
X64927738Y-69025987D01*
X64929275Y-69010380D01*
X64929275Y-68629428D01*
X64927738Y-68613821D01*
X64915793Y-68584982D01*
X64893721Y-68562910D01*
X64864882Y-68550965D01*
X64833668Y-68550965D01*
X64804829Y-68562910D01*
X64782757Y-68584982D01*
X64770812Y-68613821D01*
X64769275Y-68629428D01*
X64769275Y-68930380D01*
X64049275Y-68930380D01*
X64033668Y-68931917D01*
X64004829Y-68943862D01*
X63982757Y-68965934D01*
X63970812Y-68994773D01*
X63880386Y-68994773D01*
X63880386Y-68462076D01*
X65018164Y-68462076D01*
X65018164Y-70779270D01*
G37*
G36*
X67170875Y-69485860D02*
G01*
X67227600Y-69514223D01*
X67281257Y-69567879D01*
X67309275Y-69651933D01*
X67309275Y-69749427D01*
X66669275Y-69749427D01*
X66669275Y-69651933D01*
X66697292Y-69567880D01*
X66750949Y-69514223D01*
X66807673Y-69485860D01*
X66941979Y-69452284D01*
X67036571Y-69452284D01*
X67170875Y-69485860D01*
G37*
G36*
X67080703Y-68956527D02*
G01*
X66842258Y-68877046D01*
X67080703Y-68797564D01*
X67080703Y-68956527D01*
G37*
G36*
X67558164Y-70798317D02*
G01*
X66420386Y-70798317D01*
X66420386Y-70286570D01*
X66509275Y-70286570D01*
X66509275Y-70477047D01*
X66510812Y-70492654D01*
X66511912Y-70495310D01*
X66512116Y-70498177D01*
X66517721Y-70512824D01*
X66555816Y-70589014D01*
X66560042Y-70595728D01*
X66560852Y-70597683D01*
X66562657Y-70599882D01*
X66564170Y-70602286D01*
X66565764Y-70603668D01*
X66570801Y-70609806D01*
X66608896Y-70647900D01*
X66615030Y-70652934D01*
X66616416Y-70654532D01*
X66618824Y-70656047D01*
X66621019Y-70657849D01*
X66622969Y-70658656D01*
X66629688Y-70662886D01*
X66705878Y-70700982D01*
X66720525Y-70706587D01*
X66723392Y-70706790D01*
X66726049Y-70707891D01*
X66741656Y-70709428D01*
X66817846Y-70709428D01*
X66833453Y-70707891D01*
X66836109Y-70706790D01*
X66838977Y-70706587D01*
X66853623Y-70700982D01*
X66929814Y-70662886D01*
X66936528Y-70658659D01*
X66938483Y-70657850D01*
X66940682Y-70656044D01*
X66943086Y-70654532D01*
X66944468Y-70652937D01*
X66950606Y-70647901D01*
X66988700Y-70609806D01*
X66993734Y-70603671D01*
X66995332Y-70602286D01*
X66996847Y-70599877D01*
X66998649Y-70597683D01*
X66999456Y-70595732D01*
X67003686Y-70589014D01*
X67041781Y-70512824D01*
X67042217Y-70511682D01*
X67042562Y-70511218D01*
X67044901Y-70504669D01*
X67047386Y-70498177D01*
X67047426Y-70497600D01*
X67047838Y-70496450D01*
X67083804Y-70352586D01*
X67112165Y-70295864D01*
X67131902Y-70276127D01*
X67179588Y-70252285D01*
X67218009Y-70252285D01*
X67265695Y-70276128D01*
X67285432Y-70295864D01*
X67309275Y-70343550D01*
X67309275Y-70502159D01*
X67275285Y-70604130D01*
X67271808Y-70619422D01*
X67274020Y-70650559D01*
X67287980Y-70678478D01*
X67311562Y-70698929D01*
X67341174Y-70708800D01*
X67372311Y-70706588D01*
X67400230Y-70692628D01*
X67420681Y-70669046D01*
X67427075Y-70654726D01*
X67465170Y-70540440D01*
X67466929Y-70532700D01*
X67467738Y-70530749D01*
X67468016Y-70527920D01*
X67468647Y-70525148D01*
X67468497Y-70523039D01*
X67469275Y-70515142D01*
X67469275Y-70324666D01*
X67467738Y-70309059D01*
X67466637Y-70306402D01*
X67466434Y-70303536D01*
X67460829Y-70288889D01*
X67422734Y-70212698D01*
X67418505Y-70205980D01*
X67417697Y-70204028D01*
X67415893Y-70201830D01*
X67414380Y-70199426D01*
X67412783Y-70198041D01*
X67407748Y-70191906D01*
X67369652Y-70153811D01*
X67363518Y-70148777D01*
X67362133Y-70147180D01*
X67359725Y-70145664D01*
X67357529Y-70143862D01*
X67355577Y-70143053D01*
X67348861Y-70138826D01*
X67272671Y-70100731D01*
X67258024Y-70095126D01*
X67255157Y-70094922D01*
X67252501Y-70093822D01*
X67236894Y-70092285D01*
X67160703Y-70092285D01*
X67145096Y-70093822D01*
X67142439Y-70094922D01*
X67139573Y-70095126D01*
X67124926Y-70100731D01*
X67048736Y-70138826D01*
X67042017Y-70143055D01*
X67040067Y-70143863D01*
X67037872Y-70145664D01*
X67035464Y-70147180D01*
X67034078Y-70148777D01*
X67027944Y-70153812D01*
X66989849Y-70191906D01*
X66984812Y-70198043D01*
X66983218Y-70199426D01*
X66981705Y-70201829D01*
X66979900Y-70204029D01*
X66979090Y-70205983D01*
X66974864Y-70212698D01*
X66936768Y-70288889D01*
X66936331Y-70290030D01*
X66935987Y-70290495D01*
X66933650Y-70297035D01*
X66931163Y-70303535D01*
X66931121Y-70304112D01*
X66930711Y-70305263D01*
X66894745Y-70449124D01*
X66866384Y-70505847D01*
X66846647Y-70525584D01*
X66798961Y-70549428D01*
X66760541Y-70549428D01*
X66712854Y-70525584D01*
X66693117Y-70505846D01*
X66669275Y-70458162D01*
X66669275Y-70299553D01*
X66703265Y-70197583D01*
X66706742Y-70182291D01*
X66704530Y-70151155D01*
X66690570Y-70123236D01*
X66666988Y-70102784D01*
X66637376Y-70092913D01*
X66606240Y-70095125D01*
X66578321Y-70109085D01*
X66557869Y-70132667D01*
X66551475Y-70146987D01*
X66513380Y-70261272D01*
X66511620Y-70269011D01*
X66510812Y-70270963D01*
X66510533Y-70273791D01*
X66509903Y-70276564D01*
X66510052Y-70278672D01*
X66509275Y-70286570D01*
X66420386Y-70286570D01*
X66420386Y-69638951D01*
X66509275Y-69638951D01*
X66509275Y-69829427D01*
X66510812Y-69845034D01*
X66522757Y-69873873D01*
X66544829Y-69895945D01*
X66573668Y-69907890D01*
X66589275Y-69909427D01*
X67389275Y-69909427D01*
X67404882Y-69907890D01*
X67433721Y-69895945D01*
X67455793Y-69873873D01*
X67467738Y-69845034D01*
X67469275Y-69829427D01*
X67469275Y-69638951D01*
X67468497Y-69631053D01*
X67468647Y-69628945D01*
X67468016Y-69626172D01*
X67467738Y-69623344D01*
X67466929Y-69621392D01*
X67465170Y-69613653D01*
X67427075Y-69499367D01*
X67420681Y-69485047D01*
X67418797Y-69482874D01*
X67417697Y-69480219D01*
X67407748Y-69468096D01*
X67331557Y-69391906D01*
X67325423Y-69386872D01*
X67324038Y-69385275D01*
X67321630Y-69383759D01*
X67319434Y-69381957D01*
X67317482Y-69381148D01*
X67310766Y-69376921D01*
X67234576Y-69338826D01*
X67233434Y-69338389D01*
X67232970Y-69338045D01*
X67226421Y-69335705D01*
X67219929Y-69333221D01*
X67219352Y-69333180D01*
X67218202Y-69332769D01*
X67065821Y-69294673D01*
X67063115Y-69294272D01*
X67062025Y-69293821D01*
X67056151Y-69293242D01*
X67050307Y-69292378D01*
X67049138Y-69292551D01*
X67046418Y-69292284D01*
X66932132Y-69292284D01*
X66929411Y-69292551D01*
X66928243Y-69292378D01*
X66922398Y-69293242D01*
X66916525Y-69293821D01*
X66915434Y-69294272D01*
X66912729Y-69294673D01*
X66760348Y-69332769D01*
X66759197Y-69333180D01*
X66758621Y-69333221D01*
X66752128Y-69335705D01*
X66745580Y-69338045D01*
X66745115Y-69338389D01*
X66743974Y-69338826D01*
X66667783Y-69376921D01*
X66661068Y-69381147D01*
X66659114Y-69381957D01*
X66656914Y-69383761D01*
X66654511Y-69385275D01*
X66653126Y-69386870D01*
X66646992Y-69391906D01*
X66570801Y-69468096D01*
X66560852Y-69480219D01*
X66559751Y-69482876D01*
X66557869Y-69485047D01*
X66551475Y-69499367D01*
X66513380Y-69613653D01*
X66511620Y-69621392D01*
X66510812Y-69623344D01*
X66510533Y-69626172D01*
X66509903Y-69628945D01*
X66510052Y-69631053D01*
X66509275Y-69638951D01*
X66420386Y-69638951D01*
X66420386Y-68867040D01*
X66509903Y-68867040D01*
X66510613Y-68877046D01*
X66509903Y-68887052D01*
X66511709Y-68892472D01*
X66512115Y-68898176D01*
X66516603Y-68907152D01*
X66519774Y-68916664D01*
X66523518Y-68920981D01*
X66526075Y-68926095D01*
X66533650Y-68932665D01*
X66540225Y-68940246D01*
X66545341Y-68942804D01*
X66549657Y-68946547D01*
X66563977Y-68952941D01*
X67363977Y-69219608D01*
X67379269Y-69223085D01*
X67410405Y-69220873D01*
X67438324Y-69206913D01*
X67458776Y-69183331D01*
X67468647Y-69153719D01*
X67466434Y-69122583D01*
X67452475Y-69094664D01*
X67428893Y-69074212D01*
X67414573Y-69067818D01*
X67240703Y-69009861D01*
X67240703Y-68744231D01*
X67414573Y-68686275D01*
X67428893Y-68679881D01*
X67452475Y-68659429D01*
X67466435Y-68631510D01*
X67468647Y-68600374D01*
X67458776Y-68570762D01*
X67438325Y-68547180D01*
X67410406Y-68533220D01*
X67379269Y-68531008D01*
X67363977Y-68534485D01*
X66563977Y-68801151D01*
X66549657Y-68807545D01*
X66545339Y-68811289D01*
X66540226Y-68813846D01*
X66533655Y-68821421D01*
X66526075Y-68827996D01*
X66523516Y-68833112D01*
X66519774Y-68837428D01*
X66516603Y-68846938D01*
X66512115Y-68855916D01*
X66511709Y-68861619D01*
X66509903Y-68867040D01*
X66420386Y-68867040D01*
X66420386Y-68442119D01*
X67558164Y-68442119D01*
X67558164Y-70798317D01*
G37*
G36*
X59550875Y-68704908D02*
G01*
X59607600Y-68733271D01*
X59661257Y-68786927D01*
X59689275Y-68870981D01*
X59689275Y-68968475D01*
X59049275Y-68968475D01*
X59049275Y-68870981D01*
X59077292Y-68786928D01*
X59130949Y-68733271D01*
X59187673Y-68704908D01*
X59321979Y-68671332D01*
X59416571Y-68671332D01*
X59550875Y-68704908D01*
G37*
G36*
X59938164Y-70893555D02*
G01*
X58800386Y-70893555D01*
X58800386Y-70343713D01*
X58889275Y-70343713D01*
X58889275Y-70457999D01*
X58890052Y-70465896D01*
X58889903Y-70468005D01*
X58890533Y-70470777D01*
X58890812Y-70473606D01*
X58891620Y-70475557D01*
X58893380Y-70483297D01*
X58931475Y-70597583D01*
X58937869Y-70611903D01*
X58939751Y-70614073D01*
X58940852Y-70616731D01*
X58950801Y-70628854D01*
X59026992Y-70705044D01*
X59033126Y-70710079D01*
X59034511Y-70711675D01*
X59036914Y-70713188D01*
X59039114Y-70714993D01*
X59041068Y-70715802D01*
X59047783Y-70720029D01*
X59123974Y-70758124D01*
X59125115Y-70758560D01*
X59125580Y-70758905D01*
X59132128Y-70761244D01*
X59138621Y-70763729D01*
X59139197Y-70763769D01*
X59140348Y-70764181D01*
X59292729Y-70802277D01*
X59295434Y-70802677D01*
X59296525Y-70803129D01*
X59302398Y-70803707D01*
X59308243Y-70804572D01*
X59309411Y-70804398D01*
X59312132Y-70804666D01*
X59426418Y-70804666D01*
X59429138Y-70804398D01*
X59430307Y-70804572D01*
X59436151Y-70803707D01*
X59442025Y-70803129D01*
X59443115Y-70802677D01*
X59445821Y-70802277D01*
X59598202Y-70764181D01*
X59599352Y-70763769D01*
X59599929Y-70763729D01*
X59606421Y-70761244D01*
X59612970Y-70758905D01*
X59613434Y-70758560D01*
X59614576Y-70758124D01*
X59690766Y-70720029D01*
X59697482Y-70715801D01*
X59699434Y-70714993D01*
X59701630Y-70713190D01*
X59704038Y-70711675D01*
X59705423Y-70710077D01*
X59711557Y-70705044D01*
X59787748Y-70628854D01*
X59797697Y-70616731D01*
X59798797Y-70614075D01*
X59800681Y-70611903D01*
X59807075Y-70597583D01*
X59845170Y-70483297D01*
X59846929Y-70475557D01*
X59847738Y-70473606D01*
X59848016Y-70470777D01*
X59848647Y-70468005D01*
X59848497Y-70465896D01*
X59849275Y-70457999D01*
X59849275Y-70381808D01*
X59848497Y-70373910D01*
X59848647Y-70371802D01*
X59848016Y-70369029D01*
X59847738Y-70366201D01*
X59846929Y-70364249D01*
X59845170Y-70356510D01*
X59807075Y-70242225D01*
X59800681Y-70227905D01*
X59798798Y-70225734D01*
X59797698Y-70223077D01*
X59787749Y-70210955D01*
X59749653Y-70172858D01*
X59737530Y-70162909D01*
X59708691Y-70150964D01*
X59693084Y-70149427D01*
X59426418Y-70149427D01*
X59410811Y-70150964D01*
X59381972Y-70162909D01*
X59359900Y-70184981D01*
X59347955Y-70213820D01*
X59346418Y-70229427D01*
X59346418Y-70381808D01*
X59347955Y-70397415D01*
X59359900Y-70426254D01*
X59381972Y-70448326D01*
X59410811Y-70460271D01*
X59442025Y-70460271D01*
X59470864Y-70448326D01*
X59492936Y-70426254D01*
X59504881Y-70397415D01*
X59506418Y-70381808D01*
X59506418Y-70309427D01*
X59659947Y-70309427D01*
X59661257Y-70310737D01*
X59689275Y-70394791D01*
X59689275Y-70445016D01*
X59661257Y-70529070D01*
X59607600Y-70582726D01*
X59550875Y-70611089D01*
X59416571Y-70644666D01*
X59321979Y-70644666D01*
X59187673Y-70611089D01*
X59130949Y-70582726D01*
X59077292Y-70529069D01*
X59049275Y-70445016D01*
X59049275Y-70362598D01*
X59078924Y-70303300D01*
X59084529Y-70288653D01*
X59086742Y-70257517D01*
X59076871Y-70227904D01*
X59056419Y-70204323D01*
X59028500Y-70190364D01*
X58997364Y-70188151D01*
X58967751Y-70198022D01*
X58944170Y-70218474D01*
X58935816Y-70231746D01*
X58897721Y-70307936D01*
X58892116Y-70322583D01*
X58891912Y-70325449D01*
X58890812Y-70328106D01*
X58889275Y-70343713D01*
X58800386Y-70343713D01*
X58800386Y-69880982D01*
X58889470Y-69880982D01*
X58890812Y-69891537D01*
X58890812Y-69902177D01*
X58892763Y-69906889D01*
X58893407Y-69911948D01*
X58898684Y-69921184D01*
X58902757Y-69931016D01*
X58906363Y-69934622D01*
X58908893Y-69939049D01*
X58917302Y-69945561D01*
X58924829Y-69953088D01*
X58929541Y-69955039D01*
X58933573Y-69958162D01*
X58943838Y-69960961D01*
X58953668Y-69965033D01*
X58961647Y-69965818D01*
X58963687Y-69966375D01*
X58965261Y-69966174D01*
X58969275Y-69966570D01*
X59769275Y-69966570D01*
X59784882Y-69965033D01*
X59813721Y-69953088D01*
X59835793Y-69931016D01*
X59847738Y-69902177D01*
X59847738Y-69870963D01*
X59835793Y-69842124D01*
X59813721Y-69820052D01*
X59784882Y-69808107D01*
X59769275Y-69806570D01*
X59270519Y-69806570D01*
X59808966Y-69498886D01*
X59812252Y-69496553D01*
X59813721Y-69495945D01*
X59815216Y-69494449D01*
X59821754Y-69489809D01*
X59828266Y-69481399D01*
X59835793Y-69473873D01*
X59837744Y-69469160D01*
X59840867Y-69465129D01*
X59843666Y-69454863D01*
X59847738Y-69445034D01*
X59847738Y-69439935D01*
X59849080Y-69435015D01*
X59847738Y-69424459D01*
X59847738Y-69413820D01*
X59845786Y-69409107D01*
X59845143Y-69404049D01*
X59839865Y-69394812D01*
X59835793Y-69384981D01*
X59832186Y-69381374D01*
X59829657Y-69376948D01*
X59821247Y-69370435D01*
X59813721Y-69362909D01*
X59809008Y-69360957D01*
X59804977Y-69357835D01*
X59794711Y-69355035D01*
X59784882Y-69350964D01*
X59776902Y-69350178D01*
X59774863Y-69349622D01*
X59773288Y-69349822D01*
X59769275Y-69349427D01*
X58969275Y-69349427D01*
X58953668Y-69350964D01*
X58924829Y-69362909D01*
X58902757Y-69384981D01*
X58890812Y-69413820D01*
X58890812Y-69445034D01*
X58902757Y-69473873D01*
X58924829Y-69495945D01*
X58953668Y-69507890D01*
X58969275Y-69509427D01*
X59468031Y-69509427D01*
X58929584Y-69817111D01*
X58926297Y-69819443D01*
X58924829Y-69820052D01*
X58923333Y-69821547D01*
X58916796Y-69826188D01*
X58910283Y-69834597D01*
X58902757Y-69842124D01*
X58900805Y-69846836D01*
X58897683Y-69850868D01*
X58894883Y-69861133D01*
X58890812Y-69870963D01*
X58890812Y-69876061D01*
X58889470Y-69880982D01*
X58800386Y-69880982D01*
X58800386Y-68857999D01*
X58889275Y-68857999D01*
X58889275Y-69048475D01*
X58890812Y-69064082D01*
X58902757Y-69092921D01*
X58924829Y-69114993D01*
X58953668Y-69126938D01*
X58969275Y-69128475D01*
X59769275Y-69128475D01*
X59784882Y-69126938D01*
X59813721Y-69114993D01*
X59835793Y-69092921D01*
X59847738Y-69064082D01*
X59849275Y-69048475D01*
X59849275Y-68857999D01*
X59848497Y-68850101D01*
X59848647Y-68847993D01*
X59848016Y-68845220D01*
X59847738Y-68842392D01*
X59846929Y-68840440D01*
X59845170Y-68832701D01*
X59807075Y-68718415D01*
X59800681Y-68704095D01*
X59798797Y-68701922D01*
X59797697Y-68699267D01*
X59787748Y-68687144D01*
X59711557Y-68610954D01*
X59705423Y-68605920D01*
X59704038Y-68604323D01*
X59701630Y-68602807D01*
X59699434Y-68601005D01*
X59697482Y-68600196D01*
X59690766Y-68595969D01*
X59614576Y-68557874D01*
X59613434Y-68557437D01*
X59612970Y-68557093D01*
X59606421Y-68554753D01*
X59599929Y-68552269D01*
X59599352Y-68552228D01*
X59598202Y-68551817D01*
X59445821Y-68513721D01*
X59443115Y-68513320D01*
X59442025Y-68512869D01*
X59436151Y-68512290D01*
X59430307Y-68511426D01*
X59429138Y-68511599D01*
X59426418Y-68511332D01*
X59312132Y-68511332D01*
X59309411Y-68511599D01*
X59308243Y-68511426D01*
X59302398Y-68512290D01*
X59296525Y-68512869D01*
X59295434Y-68513320D01*
X59292729Y-68513721D01*
X59140348Y-68551817D01*
X59139197Y-68552228D01*
X59138621Y-68552269D01*
X59132128Y-68554753D01*
X59125580Y-68557093D01*
X59125115Y-68557437D01*
X59123974Y-68557874D01*
X59047783Y-68595969D01*
X59041068Y-68600195D01*
X59039114Y-68601005D01*
X59036914Y-68602809D01*
X59034511Y-68604323D01*
X59033126Y-68605918D01*
X59026992Y-68610954D01*
X58950801Y-68687144D01*
X58940852Y-68699267D01*
X58939751Y-68701924D01*
X58937869Y-68704095D01*
X58931475Y-68718415D01*
X58893380Y-68832701D01*
X58891620Y-68840440D01*
X58890812Y-68842392D01*
X58890533Y-68845220D01*
X58889903Y-68847993D01*
X58890052Y-68850101D01*
X58889275Y-68857999D01*
X58800386Y-68857999D01*
X58800386Y-68422443D01*
X59938164Y-68422443D01*
X59938164Y-70893555D01*
G37*
G36*
X59899412Y-91082664D02*
G01*
X58343214Y-91082664D01*
X58343214Y-90332340D01*
X58432103Y-90332340D01*
X58434316Y-90363476D01*
X58448275Y-90391395D01*
X58471856Y-90411847D01*
X58501469Y-90421718D01*
X58532605Y-90419505D01*
X58547252Y-90413900D01*
X58623443Y-90375805D01*
X58630161Y-90371575D01*
X58632112Y-90370768D01*
X58634306Y-90368966D01*
X58636715Y-90367451D01*
X58638100Y-90365853D01*
X58644235Y-90360819D01*
X58660047Y-90345006D01*
X58660047Y-90833775D01*
X58511475Y-90833775D01*
X58495868Y-90835312D01*
X58467029Y-90847257D01*
X58444957Y-90869329D01*
X58433012Y-90898168D01*
X58433012Y-90929382D01*
X58444957Y-90958221D01*
X58467029Y-90980293D01*
X58495868Y-90992238D01*
X58511475Y-90993775D01*
X58968618Y-90993775D01*
X58984225Y-90992238D01*
X59013064Y-90980293D01*
X59035136Y-90958221D01*
X59047081Y-90929382D01*
X59047081Y-90898168D01*
X59156822Y-90898168D01*
X59156822Y-90929382D01*
X59168767Y-90958221D01*
X59190839Y-90980293D01*
X59219678Y-90992238D01*
X59235285Y-90993775D01*
X59730523Y-90993775D01*
X59746130Y-90992238D01*
X59774969Y-90980293D01*
X59797041Y-90958221D01*
X59808986Y-90929382D01*
X59808986Y-90898168D01*
X59797041Y-90869329D01*
X59774969Y-90847257D01*
X59746130Y-90835312D01*
X59730523Y-90833775D01*
X59428423Y-90833775D01*
X59748997Y-90513200D01*
X59758946Y-90501078D01*
X59760046Y-90498420D01*
X59761929Y-90496250D01*
X59768323Y-90481930D01*
X59806418Y-90367644D01*
X59808177Y-90359904D01*
X59808986Y-90357953D01*
X59809264Y-90355124D01*
X59809895Y-90352352D01*
X59809745Y-90350243D01*
X59810523Y-90342346D01*
X59810523Y-90266156D01*
X59808986Y-90250549D01*
X59807885Y-90247892D01*
X59807682Y-90245026D01*
X59802077Y-90230379D01*
X59763982Y-90154188D01*
X59759752Y-90147469D01*
X59758945Y-90145519D01*
X59757143Y-90143324D01*
X59755628Y-90140916D01*
X59754030Y-90139530D01*
X59748996Y-90133396D01*
X59710902Y-90095301D01*
X59704764Y-90090264D01*
X59703382Y-90088670D01*
X59700978Y-90087157D01*
X59698779Y-90085352D01*
X59696824Y-90084542D01*
X59690110Y-90080316D01*
X59613919Y-90042221D01*
X59599272Y-90036616D01*
X59596405Y-90036412D01*
X59593749Y-90035312D01*
X59578142Y-90033775D01*
X59387666Y-90033775D01*
X59372059Y-90035312D01*
X59369402Y-90036412D01*
X59366536Y-90036616D01*
X59351889Y-90042221D01*
X59275699Y-90080316D01*
X59268982Y-90084543D01*
X59267031Y-90085352D01*
X59264834Y-90087154D01*
X59262427Y-90088670D01*
X59261041Y-90090267D01*
X59254908Y-90095301D01*
X59216812Y-90133396D01*
X59206863Y-90145518D01*
X59194917Y-90174357D01*
X59194916Y-90205571D01*
X59206862Y-90234410D01*
X59228933Y-90256482D01*
X59257772Y-90268428D01*
X59288986Y-90268429D01*
X59317825Y-90256483D01*
X59329948Y-90246534D01*
X59358864Y-90217618D01*
X59406551Y-90193775D01*
X59559257Y-90193775D01*
X59606942Y-90217617D01*
X59626680Y-90237354D01*
X59650523Y-90285040D01*
X59650523Y-90329363D01*
X59622504Y-90413418D01*
X59178716Y-90857206D01*
X59168767Y-90869329D01*
X59156822Y-90898168D01*
X59047081Y-90898168D01*
X59035136Y-90869329D01*
X59013064Y-90847257D01*
X58984225Y-90835312D01*
X58968618Y-90833775D01*
X58820047Y-90833775D01*
X58820047Y-90113775D01*
X58820041Y-90113722D01*
X58820048Y-90113692D01*
X58820029Y-90113601D01*
X58818510Y-90098168D01*
X58815479Y-90090852D01*
X58813926Y-90083083D01*
X58809563Y-90076569D01*
X58806565Y-90069329D01*
X58800964Y-90063728D01*
X58796557Y-90057147D01*
X58790035Y-90052799D01*
X58784493Y-90047257D01*
X58777174Y-90044225D01*
X58770585Y-90039833D01*
X58762895Y-90038311D01*
X58755654Y-90035312D01*
X58747737Y-90035312D01*
X58739964Y-90033774D01*
X58732274Y-90035312D01*
X58724440Y-90035312D01*
X58717124Y-90038342D01*
X58709355Y-90039896D01*
X58702841Y-90044258D01*
X58695601Y-90047257D01*
X58690000Y-90052857D01*
X58683419Y-90057265D01*
X58673591Y-90069266D01*
X58673529Y-90069329D01*
X58673517Y-90069356D01*
X58673483Y-90069399D01*
X58601686Y-90177093D01*
X58540276Y-90238502D01*
X58475698Y-90270792D01*
X58462426Y-90279146D01*
X58441974Y-90302727D01*
X58432103Y-90332340D01*
X58343214Y-90332340D01*
X58343214Y-89944885D01*
X59899412Y-89944885D01*
X59899412Y-91082664D01*
G37*
D11*
G36*
X48471554Y-80739471D02*
G01*
X48496223Y-80764139D01*
X48526028Y-80823749D01*
X48526028Y-81081094D01*
X48202219Y-81081094D01*
X48202219Y-80823749D01*
X48232024Y-80764139D01*
X48256692Y-80739470D01*
X48316302Y-80709666D01*
X48411945Y-80709666D01*
X48471554Y-80739471D01*
G37*
G36*
X49313330Y-81392205D02*
G01*
X47891108Y-81392205D01*
X47891108Y-80800142D01*
X48002219Y-80800142D01*
X48002219Y-81181094D01*
X48004140Y-81200603D01*
X48019072Y-81236651D01*
X48046662Y-81264241D01*
X48082710Y-81279173D01*
X48102219Y-81281094D01*
X49102219Y-81281094D01*
X49121728Y-81279173D01*
X49157776Y-81264241D01*
X49185366Y-81236651D01*
X49200298Y-81200603D01*
X49200298Y-81161585D01*
X49185366Y-81125537D01*
X49157776Y-81097947D01*
X49121728Y-81083015D01*
X49102219Y-81081094D01*
X48726028Y-81081094D01*
X48726028Y-80995064D01*
X49159565Y-80691589D01*
X49174446Y-80678828D01*
X49195415Y-80645923D01*
X49202196Y-80607498D01*
X49193756Y-80569404D01*
X49171381Y-80537439D01*
X49138476Y-80516470D01*
X49100052Y-80509689D01*
X49061957Y-80518129D01*
X49044873Y-80527743D01*
X48716347Y-80757710D01*
X48715471Y-80755420D01*
X48667852Y-80660183D01*
X48662566Y-80651786D01*
X48661556Y-80649346D01*
X48659302Y-80646600D01*
X48657409Y-80643592D01*
X48655411Y-80641859D01*
X48649119Y-80634193D01*
X48601501Y-80586574D01*
X48593830Y-80580279D01*
X48592101Y-80578285D01*
X48589093Y-80576391D01*
X48586347Y-80574138D01*
X48583907Y-80573127D01*
X48575511Y-80567842D01*
X48480273Y-80520223D01*
X48461965Y-80513217D01*
X48458381Y-80512962D01*
X48455061Y-80511587D01*
X48435552Y-80509666D01*
X48292695Y-80509666D01*
X48273186Y-80511587D01*
X48269865Y-80512962D01*
X48266282Y-80513217D01*
X48247973Y-80520223D01*
X48152736Y-80567842D01*
X48144339Y-80573127D01*
X48141899Y-80574138D01*
X48139153Y-80576391D01*
X48136145Y-80578285D01*
X48134412Y-80580282D01*
X48126746Y-80586575D01*
X48079127Y-80634193D01*
X48072832Y-80641863D01*
X48070838Y-80643593D01*
X48068944Y-80646600D01*
X48066691Y-80649347D01*
X48065680Y-80651786D01*
X48060395Y-80660183D01*
X48012776Y-80755421D01*
X48005770Y-80773729D01*
X48005515Y-80777312D01*
X48004140Y-80780633D01*
X48002219Y-80800142D01*
X47891108Y-80800142D01*
X47891108Y-79847761D01*
X48002219Y-79847761D01*
X48002219Y-80085856D01*
X48004140Y-80105365D01*
X48005515Y-80108685D01*
X48005770Y-80112269D01*
X48012776Y-80130577D01*
X48060395Y-80225815D01*
X48065680Y-80234211D01*
X48066691Y-80236651D01*
X48068944Y-80239397D01*
X48070838Y-80242405D01*
X48072832Y-80244134D01*
X48079127Y-80251805D01*
X48126746Y-80299423D01*
X48141899Y-80311860D01*
X48177948Y-80326791D01*
X48216966Y-80326791D01*
X48253014Y-80311860D01*
X48280604Y-80284270D01*
X48295535Y-80248222D01*
X48295535Y-80209204D01*
X48280604Y-80173155D01*
X48268167Y-80158002D01*
X48232024Y-80121858D01*
X48202219Y-80062248D01*
X48202219Y-79871368D01*
X48232024Y-79811758D01*
X48256692Y-79787089D01*
X48316302Y-79757285D01*
X48371706Y-79757285D01*
X48476770Y-79792306D01*
X49031508Y-80347043D01*
X49046662Y-80359479D01*
X49082710Y-80374411D01*
X49121728Y-80374411D01*
X49157776Y-80359479D01*
X49185366Y-80331889D01*
X49200298Y-80295841D01*
X49202219Y-80276332D01*
X49202219Y-79657285D01*
X49200298Y-79637776D01*
X49185366Y-79601728D01*
X49157776Y-79574138D01*
X49121728Y-79559206D01*
X49082710Y-79559206D01*
X49046662Y-79574138D01*
X49019072Y-79601728D01*
X49004140Y-79637776D01*
X49002219Y-79657285D01*
X49002219Y-80034910D01*
X48601501Y-79634193D01*
X48586347Y-79621757D01*
X48583028Y-79620382D01*
X48580313Y-79618027D01*
X48562412Y-79610036D01*
X48419556Y-79562417D01*
X48409884Y-79560217D01*
X48407442Y-79559206D01*
X48403903Y-79558857D01*
X48400440Y-79558070D01*
X48397806Y-79558257D01*
X48387933Y-79557285D01*
X48292695Y-79557285D01*
X48273186Y-79559206D01*
X48269865Y-79560581D01*
X48266282Y-79560836D01*
X48247973Y-79567842D01*
X48152736Y-79615461D01*
X48144339Y-79620746D01*
X48141899Y-79621757D01*
X48139153Y-79624010D01*
X48136145Y-79625904D01*
X48134412Y-79627901D01*
X48126746Y-79634194D01*
X48079127Y-79681812D01*
X48072832Y-79689482D01*
X48070838Y-79691212D01*
X48068944Y-79694219D01*
X48066691Y-79696966D01*
X48065680Y-79699405D01*
X48060395Y-79707802D01*
X48012776Y-79803040D01*
X48005770Y-79821348D01*
X48005515Y-79824931D01*
X48004140Y-79828252D01*
X48002219Y-79847761D01*
X47891108Y-79847761D01*
X47891108Y-79446174D01*
X49313330Y-79446174D01*
X49313330Y-81392205D01*
G37*
G36*
X85631554Y-40528852D02*
G01*
X85656223Y-40553520D01*
X85686028Y-40613130D01*
X85686028Y-40870475D01*
X85362219Y-40870475D01*
X85362219Y-40613130D01*
X85392024Y-40553520D01*
X85416692Y-40528851D01*
X85476302Y-40499047D01*
X85571945Y-40499047D01*
X85631554Y-40528852D01*
G37*
G36*
X86471409Y-41181586D02*
G01*
X85051108Y-41181586D01*
X85051108Y-40589523D01*
X85162219Y-40589523D01*
X85162219Y-40970475D01*
X85164140Y-40989984D01*
X85179072Y-41026032D01*
X85206662Y-41053622D01*
X85242710Y-41068554D01*
X85262219Y-41070475D01*
X86262219Y-41070475D01*
X86281728Y-41068554D01*
X86317776Y-41053622D01*
X86345366Y-41026032D01*
X86360298Y-40989984D01*
X86360298Y-40950966D01*
X86345366Y-40914918D01*
X86317776Y-40887328D01*
X86281728Y-40872396D01*
X86262219Y-40870475D01*
X85886028Y-40870475D01*
X85886028Y-40589523D01*
X85884107Y-40570014D01*
X85882731Y-40566693D01*
X85882477Y-40563110D01*
X85875471Y-40544801D01*
X85827852Y-40449564D01*
X85822566Y-40441167D01*
X85821556Y-40438727D01*
X85819302Y-40435981D01*
X85817409Y-40432973D01*
X85815411Y-40431240D01*
X85809119Y-40423574D01*
X85761501Y-40375955D01*
X85753830Y-40369660D01*
X85752101Y-40367666D01*
X85749093Y-40365772D01*
X85746347Y-40363519D01*
X85743907Y-40362508D01*
X85735511Y-40357223D01*
X85640273Y-40309604D01*
X85621965Y-40302598D01*
X85618381Y-40302343D01*
X85615061Y-40300968D01*
X85595552Y-40299047D01*
X85452695Y-40299047D01*
X85433186Y-40300968D01*
X85429865Y-40302343D01*
X85426282Y-40302598D01*
X85407973Y-40309604D01*
X85312736Y-40357223D01*
X85304339Y-40362508D01*
X85301899Y-40363519D01*
X85299153Y-40365772D01*
X85296145Y-40367666D01*
X85294412Y-40369663D01*
X85286746Y-40375956D01*
X85239127Y-40423574D01*
X85232832Y-40431244D01*
X85230838Y-40432974D01*
X85228944Y-40435981D01*
X85226691Y-40438728D01*
X85225680Y-40441167D01*
X85220395Y-40449564D01*
X85172776Y-40544802D01*
X85165770Y-40563110D01*
X85165515Y-40566693D01*
X85164140Y-40570014D01*
X85162219Y-40589523D01*
X85051108Y-40589523D01*
X85051108Y-39494285D01*
X85162219Y-39494285D01*
X85162219Y-39970475D01*
X85164140Y-39989984D01*
X85179072Y-40026032D01*
X85206662Y-40053622D01*
X85242710Y-40068554D01*
X85262219Y-40070475D01*
X86262219Y-40070475D01*
X86281728Y-40068554D01*
X86317776Y-40053622D01*
X86345366Y-40026032D01*
X86360298Y-39989984D01*
X86360298Y-39950966D01*
X86345366Y-39914918D01*
X86317776Y-39887328D01*
X86281728Y-39872396D01*
X86262219Y-39870475D01*
X85838409Y-39870475D01*
X85838409Y-39637142D01*
X85836488Y-39617633D01*
X85821556Y-39581585D01*
X85793966Y-39553995D01*
X85757918Y-39539063D01*
X85718900Y-39539063D01*
X85682852Y-39553995D01*
X85655262Y-39581585D01*
X85640330Y-39617633D01*
X85638409Y-39637142D01*
X85638409Y-39870475D01*
X85362219Y-39870475D01*
X85362219Y-39494285D01*
X85360298Y-39474776D01*
X85345366Y-39438728D01*
X85317776Y-39411138D01*
X85281728Y-39396206D01*
X85242710Y-39396206D01*
X85206662Y-39411138D01*
X85179072Y-39438728D01*
X85164140Y-39474776D01*
X85162219Y-39494285D01*
X85051108Y-39494285D01*
X85051108Y-39285095D01*
X86471409Y-39285095D01*
X86471409Y-41181586D01*
G37*
G36*
X48164330Y-33986634D02*
G01*
X46742108Y-33986634D01*
X46742108Y-33299333D01*
X46853219Y-33299333D01*
X46853219Y-33442190D01*
X46854191Y-33452063D01*
X46854004Y-33454697D01*
X46854791Y-33458160D01*
X46855140Y-33461699D01*
X46856151Y-33464141D01*
X46858351Y-33473813D01*
X46905970Y-33616669D01*
X46913961Y-33634570D01*
X46916316Y-33637285D01*
X46917691Y-33640604D01*
X46930127Y-33655758D01*
X47025365Y-33750996D01*
X47033031Y-33757287D01*
X47034764Y-33759285D01*
X47037775Y-33761180D01*
X47040519Y-33763432D01*
X47042956Y-33764441D01*
X47051355Y-33769728D01*
X47146592Y-33817347D01*
X47148020Y-33817893D01*
X47148600Y-33818323D01*
X47156776Y-33821244D01*
X47164901Y-33824353D01*
X47165621Y-33824404D01*
X47167060Y-33824918D01*
X47357536Y-33872537D01*
X47360917Y-33873037D01*
X47362281Y-33873602D01*
X47369631Y-33874325D01*
X47376929Y-33875405D01*
X47378387Y-33875187D01*
X47381790Y-33875523D01*
X47524647Y-33875523D01*
X47528049Y-33875187D01*
X47529508Y-33875405D01*
X47536805Y-33874325D01*
X47544156Y-33873602D01*
X47545519Y-33873037D01*
X47548901Y-33872537D01*
X47739376Y-33824918D01*
X47740813Y-33824404D01*
X47741536Y-33824353D01*
X47749660Y-33821244D01*
X47757837Y-33818323D01*
X47758417Y-33817892D01*
X47759844Y-33817347D01*
X47855082Y-33769728D01*
X47863474Y-33764445D01*
X47865918Y-33763433D01*
X47868667Y-33761176D01*
X47871672Y-33759285D01*
X47873401Y-33757290D01*
X47881071Y-33750996D01*
X47976311Y-33655758D01*
X47988747Y-33640605D01*
X47990122Y-33637285D01*
X47992477Y-33634570D01*
X48000468Y-33616670D01*
X48048087Y-33473813D01*
X48050286Y-33464140D01*
X48051298Y-33461699D01*
X48051646Y-33458161D01*
X48052434Y-33454698D01*
X48052246Y-33452063D01*
X48053219Y-33442190D01*
X48053219Y-33346952D01*
X48052246Y-33337078D01*
X48052434Y-33334444D01*
X48051646Y-33330980D01*
X48051298Y-33327443D01*
X48050286Y-33325001D01*
X48048087Y-33315329D01*
X48000468Y-33172472D01*
X47992477Y-33154572D01*
X47990122Y-33151856D01*
X47988747Y-33148537D01*
X47976310Y-33133383D01*
X47928690Y-33085765D01*
X47913537Y-33073328D01*
X47888046Y-33062770D01*
X47877489Y-33058397D01*
X47857980Y-33056476D01*
X47524647Y-33056476D01*
X47505138Y-33058397D01*
X47469090Y-33073329D01*
X47441500Y-33100919D01*
X47426568Y-33136967D01*
X47424647Y-33156476D01*
X47424647Y-33346952D01*
X47426568Y-33366461D01*
X47441500Y-33402509D01*
X47469090Y-33430099D01*
X47505138Y-33445031D01*
X47544156Y-33445031D01*
X47580204Y-33430099D01*
X47607794Y-33402509D01*
X47622726Y-33366461D01*
X47624647Y-33346952D01*
X47624647Y-33256476D01*
X47816560Y-33256476D01*
X47818197Y-33258113D01*
X47853219Y-33363178D01*
X47853219Y-33425963D01*
X47818197Y-33531028D01*
X47751127Y-33598098D01*
X47680218Y-33633552D01*
X47512337Y-33675523D01*
X47394099Y-33675523D01*
X47226218Y-33633552D01*
X47155313Y-33598100D01*
X47088240Y-33531027D01*
X47053219Y-33425963D01*
X47053219Y-33322940D01*
X47090281Y-33248817D01*
X47097287Y-33230508D01*
X47100053Y-33191588D01*
X47087714Y-33154572D01*
X47062149Y-33125095D01*
X47027251Y-33107646D01*
X46988331Y-33104881D01*
X46951315Y-33117219D01*
X46921838Y-33142784D01*
X46911395Y-33159374D01*
X46863776Y-33254612D01*
X46856770Y-33272920D01*
X46856515Y-33276503D01*
X46855140Y-33279824D01*
X46853219Y-33299333D01*
X46742108Y-33299333D01*
X46742108Y-32945365D01*
X48164330Y-32945365D01*
X48164330Y-33986634D01*
G37*
G36*
X40163377Y-34056141D02*
G01*
X39741155Y-34056141D01*
X39741155Y-33085047D01*
X39852266Y-33085047D01*
X39852266Y-33846951D01*
X39854187Y-33866460D01*
X39869119Y-33902508D01*
X39896709Y-33930098D01*
X39932757Y-33945030D01*
X39971775Y-33945030D01*
X40007823Y-33930098D01*
X40035413Y-33902508D01*
X40050345Y-33866460D01*
X40052266Y-33846951D01*
X40052266Y-33085047D01*
X40050345Y-33065538D01*
X40035413Y-33029490D01*
X40007823Y-33001900D01*
X39971775Y-32986968D01*
X39932757Y-32986968D01*
X39896709Y-33001900D01*
X39869119Y-33029490D01*
X39854187Y-33065538D01*
X39852266Y-33085047D01*
X39741155Y-33085047D01*
X39741155Y-32875857D01*
X40163377Y-32875857D01*
X40163377Y-34056141D01*
G37*
G36*
X40542409Y-49296141D02*
G01*
X39362124Y-49296141D01*
X39362124Y-48686490D01*
X39473235Y-48686490D01*
X39473235Y-48725508D01*
X39488167Y-48761556D01*
X39515757Y-48789146D01*
X39551805Y-48804078D01*
X39571314Y-48805999D01*
X39852266Y-48805999D01*
X39852266Y-49086951D01*
X39854187Y-49106460D01*
X39869119Y-49142508D01*
X39896709Y-49170098D01*
X39932757Y-49185030D01*
X39971775Y-49185030D01*
X40007823Y-49170098D01*
X40035413Y-49142508D01*
X40050345Y-49106460D01*
X40052266Y-49086951D01*
X40052266Y-48805999D01*
X40333219Y-48805999D01*
X40352728Y-48804078D01*
X40388776Y-48789146D01*
X40416366Y-48761556D01*
X40431298Y-48725508D01*
X40431298Y-48686490D01*
X40416366Y-48650442D01*
X40388776Y-48622852D01*
X40352728Y-48607920D01*
X40333219Y-48605999D01*
X40052266Y-48605999D01*
X40052266Y-48325047D01*
X40050345Y-48305538D01*
X40035413Y-48269490D01*
X40007823Y-48241900D01*
X39971775Y-48226968D01*
X39932757Y-48226968D01*
X39896709Y-48241900D01*
X39869119Y-48269490D01*
X39854187Y-48305538D01*
X39852266Y-48325047D01*
X39852266Y-48605999D01*
X39571314Y-48605999D01*
X39551805Y-48607920D01*
X39515757Y-48622852D01*
X39488167Y-48650442D01*
X39473235Y-48686490D01*
X39362124Y-48686490D01*
X39362124Y-48115857D01*
X40542409Y-48115857D01*
X40542409Y-49296141D01*
G37*
G36*
X50704330Y-33986634D02*
G01*
X49282108Y-33986634D01*
X49282108Y-33299333D01*
X49393219Y-33299333D01*
X49393219Y-33442190D01*
X49394191Y-33452063D01*
X49394004Y-33454697D01*
X49394791Y-33458160D01*
X49395140Y-33461699D01*
X49396151Y-33464141D01*
X49398351Y-33473813D01*
X49445970Y-33616669D01*
X49453961Y-33634570D01*
X49456316Y-33637285D01*
X49457691Y-33640604D01*
X49470127Y-33655758D01*
X49565365Y-33750996D01*
X49573031Y-33757287D01*
X49574764Y-33759285D01*
X49577775Y-33761180D01*
X49580519Y-33763432D01*
X49582956Y-33764441D01*
X49591355Y-33769728D01*
X49686592Y-33817347D01*
X49688020Y-33817893D01*
X49688600Y-33818323D01*
X49696776Y-33821244D01*
X49704901Y-33824353D01*
X49705621Y-33824404D01*
X49707060Y-33824918D01*
X49897536Y-33872537D01*
X49900917Y-33873037D01*
X49902281Y-33873602D01*
X49909631Y-33874325D01*
X49916929Y-33875405D01*
X49918387Y-33875187D01*
X49921790Y-33875523D01*
X50064647Y-33875523D01*
X50068049Y-33875187D01*
X50069508Y-33875405D01*
X50076805Y-33874325D01*
X50084156Y-33873602D01*
X50085519Y-33873037D01*
X50088901Y-33872537D01*
X50279376Y-33824918D01*
X50280813Y-33824404D01*
X50281536Y-33824353D01*
X50289660Y-33821244D01*
X50297837Y-33818323D01*
X50298417Y-33817892D01*
X50299844Y-33817347D01*
X50395082Y-33769728D01*
X50403474Y-33764445D01*
X50405918Y-33763433D01*
X50408667Y-33761176D01*
X50411672Y-33759285D01*
X50413401Y-33757290D01*
X50421071Y-33750996D01*
X50516311Y-33655758D01*
X50528747Y-33640605D01*
X50530122Y-33637285D01*
X50532477Y-33634570D01*
X50540468Y-33616670D01*
X50588087Y-33473813D01*
X50590286Y-33464140D01*
X50591298Y-33461699D01*
X50591646Y-33458161D01*
X50592434Y-33454698D01*
X50592246Y-33452063D01*
X50593219Y-33442190D01*
X50593219Y-33346952D01*
X50592246Y-33337078D01*
X50592434Y-33334444D01*
X50591646Y-33330980D01*
X50591298Y-33327443D01*
X50590286Y-33325001D01*
X50588087Y-33315329D01*
X50540468Y-33172472D01*
X50532477Y-33154572D01*
X50530122Y-33151856D01*
X50528747Y-33148537D01*
X50516310Y-33133383D01*
X50468690Y-33085765D01*
X50453537Y-33073328D01*
X50428046Y-33062770D01*
X50417489Y-33058397D01*
X50397980Y-33056476D01*
X50064647Y-33056476D01*
X50045138Y-33058397D01*
X50009090Y-33073329D01*
X49981500Y-33100919D01*
X49966568Y-33136967D01*
X49964647Y-33156476D01*
X49964647Y-33346952D01*
X49966568Y-33366461D01*
X49981500Y-33402509D01*
X50009090Y-33430099D01*
X50045138Y-33445031D01*
X50084156Y-33445031D01*
X50120204Y-33430099D01*
X50147794Y-33402509D01*
X50162726Y-33366461D01*
X50164647Y-33346952D01*
X50164647Y-33256476D01*
X50356560Y-33256476D01*
X50358197Y-33258113D01*
X50393219Y-33363178D01*
X50393219Y-33425963D01*
X50358197Y-33531028D01*
X50291127Y-33598098D01*
X50220218Y-33633552D01*
X50052337Y-33675523D01*
X49934099Y-33675523D01*
X49766218Y-33633552D01*
X49695313Y-33598100D01*
X49628240Y-33531027D01*
X49593219Y-33425963D01*
X49593219Y-33322940D01*
X49630281Y-33248817D01*
X49637287Y-33230508D01*
X49640053Y-33191588D01*
X49627714Y-33154572D01*
X49602149Y-33125095D01*
X49567251Y-33107646D01*
X49528331Y-33104881D01*
X49491315Y-33117219D01*
X49461838Y-33142784D01*
X49451395Y-33159374D01*
X49403776Y-33254612D01*
X49396770Y-33272920D01*
X49396515Y-33276503D01*
X49395140Y-33279824D01*
X49393219Y-33299333D01*
X49282108Y-33299333D01*
X49282108Y-32945365D01*
X50704330Y-32945365D01*
X50704330Y-33986634D01*
G37*
G36*
X42242554Y-48602471D02*
G01*
X42267223Y-48627139D01*
X42297028Y-48686749D01*
X42297028Y-48944094D01*
X41973219Y-48944094D01*
X41973219Y-48686749D01*
X42003024Y-48627139D01*
X42027692Y-48602470D01*
X42087302Y-48572666D01*
X42182945Y-48572666D01*
X42242554Y-48602471D01*
G37*
G36*
X43084330Y-49255205D02*
G01*
X41662108Y-49255205D01*
X41662108Y-48663142D01*
X41773219Y-48663142D01*
X41773219Y-49044094D01*
X41775140Y-49063603D01*
X41790072Y-49099651D01*
X41817662Y-49127241D01*
X41853710Y-49142173D01*
X41873219Y-49144094D01*
X42873219Y-49144094D01*
X42892728Y-49142173D01*
X42928776Y-49127241D01*
X42956366Y-49099651D01*
X42971298Y-49063603D01*
X42971298Y-49024585D01*
X42956366Y-48988537D01*
X42928776Y-48960947D01*
X42892728Y-48946015D01*
X42873219Y-48944094D01*
X42497028Y-48944094D01*
X42497028Y-48663142D01*
X42495107Y-48643633D01*
X42493731Y-48640312D01*
X42493477Y-48636729D01*
X42486471Y-48618420D01*
X42438852Y-48523183D01*
X42433566Y-48514786D01*
X42432556Y-48512346D01*
X42430302Y-48509600D01*
X42428409Y-48506592D01*
X42426411Y-48504859D01*
X42420119Y-48497193D01*
X42372501Y-48449574D01*
X42364830Y-48443279D01*
X42363101Y-48441285D01*
X42360093Y-48439391D01*
X42357347Y-48437138D01*
X42354907Y-48436127D01*
X42346511Y-48430842D01*
X42251273Y-48383223D01*
X42232965Y-48376217D01*
X42229381Y-48375962D01*
X42226061Y-48374587D01*
X42206552Y-48372666D01*
X42063695Y-48372666D01*
X42044186Y-48374587D01*
X42040865Y-48375962D01*
X42037282Y-48376217D01*
X42018973Y-48383223D01*
X41923736Y-48430842D01*
X41915339Y-48436127D01*
X41912899Y-48437138D01*
X41910153Y-48439391D01*
X41907145Y-48441285D01*
X41905412Y-48443282D01*
X41897746Y-48449575D01*
X41850127Y-48497193D01*
X41843832Y-48504863D01*
X41841838Y-48506593D01*
X41839944Y-48509600D01*
X41837691Y-48512347D01*
X41836680Y-48514786D01*
X41831395Y-48523183D01*
X41783776Y-48618421D01*
X41776770Y-48636729D01*
X41776515Y-48640312D01*
X41775140Y-48643633D01*
X41773219Y-48663142D01*
X41662108Y-48663142D01*
X41662108Y-47710761D01*
X41773219Y-47710761D01*
X41773219Y-47948856D01*
X41775140Y-47968365D01*
X41776515Y-47971685D01*
X41776770Y-47975269D01*
X41783776Y-47993577D01*
X41831395Y-48088815D01*
X41836680Y-48097211D01*
X41837691Y-48099651D01*
X41839944Y-48102397D01*
X41841838Y-48105405D01*
X41843832Y-48107134D01*
X41850127Y-48114805D01*
X41897746Y-48162423D01*
X41912899Y-48174860D01*
X41948948Y-48189791D01*
X41987966Y-48189791D01*
X42024014Y-48174860D01*
X42051604Y-48147270D01*
X42066535Y-48111222D01*
X42066535Y-48072204D01*
X42051604Y-48036155D01*
X42039167Y-48021002D01*
X42003024Y-47984858D01*
X41973219Y-47925248D01*
X41973219Y-47734368D01*
X42003024Y-47674758D01*
X42027692Y-47650089D01*
X42087302Y-47620285D01*
X42142706Y-47620285D01*
X42247770Y-47655306D01*
X42802508Y-48210043D01*
X42817662Y-48222479D01*
X42853710Y-48237411D01*
X42892728Y-48237411D01*
X42928776Y-48222479D01*
X42956366Y-48194889D01*
X42971298Y-48158841D01*
X42973219Y-48139332D01*
X42973219Y-47520285D01*
X42971298Y-47500776D01*
X42956366Y-47464728D01*
X42928776Y-47437138D01*
X42892728Y-47422206D01*
X42853710Y-47422206D01*
X42817662Y-47437138D01*
X42790072Y-47464728D01*
X42775140Y-47500776D01*
X42773219Y-47520285D01*
X42773219Y-47897910D01*
X42372501Y-47497193D01*
X42357347Y-47484757D01*
X42354028Y-47483382D01*
X42351313Y-47481027D01*
X42333412Y-47473036D01*
X42190556Y-47425417D01*
X42180884Y-47423217D01*
X42178442Y-47422206D01*
X42174903Y-47421857D01*
X42171440Y-47421070D01*
X42168806Y-47421257D01*
X42158933Y-47420285D01*
X42063695Y-47420285D01*
X42044186Y-47422206D01*
X42040865Y-47423581D01*
X42037282Y-47423836D01*
X42018973Y-47430842D01*
X41923736Y-47478461D01*
X41915339Y-47483746D01*
X41912899Y-47484757D01*
X41910153Y-47487010D01*
X41907145Y-47488904D01*
X41905412Y-47490901D01*
X41897746Y-47497194D01*
X41850127Y-47544812D01*
X41843832Y-47552482D01*
X41841838Y-47554212D01*
X41839944Y-47557219D01*
X41837691Y-47559966D01*
X41836680Y-47562405D01*
X41831395Y-47570802D01*
X41783776Y-47666040D01*
X41776770Y-47684348D01*
X41776515Y-47687931D01*
X41775140Y-47691252D01*
X41773219Y-47710761D01*
X41662108Y-47710761D01*
X41662108Y-47309174D01*
X43084330Y-47309174D01*
X43084330Y-49255205D01*
G37*
G36*
X45624330Y-49226634D02*
G01*
X44202108Y-49226634D01*
X44202108Y-48539333D01*
X44313219Y-48539333D01*
X44313219Y-48682190D01*
X44314191Y-48692063D01*
X44314004Y-48694697D01*
X44314791Y-48698160D01*
X44315140Y-48701699D01*
X44316151Y-48704141D01*
X44318351Y-48713813D01*
X44365970Y-48856669D01*
X44373961Y-48874570D01*
X44376316Y-48877285D01*
X44377691Y-48880604D01*
X44390127Y-48895758D01*
X44485365Y-48990996D01*
X44493031Y-48997287D01*
X44494764Y-48999285D01*
X44497775Y-49001180D01*
X44500519Y-49003432D01*
X44502956Y-49004441D01*
X44511355Y-49009728D01*
X44606592Y-49057347D01*
X44608020Y-49057893D01*
X44608600Y-49058323D01*
X44616776Y-49061244D01*
X44624901Y-49064353D01*
X44625621Y-49064404D01*
X44627060Y-49064918D01*
X44817536Y-49112537D01*
X44820917Y-49113037D01*
X44822281Y-49113602D01*
X44829631Y-49114325D01*
X44836929Y-49115405D01*
X44838387Y-49115187D01*
X44841790Y-49115523D01*
X44984647Y-49115523D01*
X44988049Y-49115187D01*
X44989508Y-49115405D01*
X44996805Y-49114325D01*
X45004156Y-49113602D01*
X45005519Y-49113037D01*
X45008901Y-49112537D01*
X45199376Y-49064918D01*
X45200813Y-49064404D01*
X45201536Y-49064353D01*
X45209660Y-49061244D01*
X45217837Y-49058323D01*
X45218417Y-49057892D01*
X45219844Y-49057347D01*
X45315082Y-49009728D01*
X45323474Y-49004445D01*
X45325918Y-49003433D01*
X45328667Y-49001176D01*
X45331672Y-48999285D01*
X45333401Y-48997290D01*
X45341071Y-48990996D01*
X45436311Y-48895758D01*
X45448747Y-48880605D01*
X45450122Y-48877285D01*
X45452477Y-48874570D01*
X45460468Y-48856670D01*
X45508087Y-48713813D01*
X45510286Y-48704140D01*
X45511298Y-48701699D01*
X45511646Y-48698161D01*
X45512434Y-48694698D01*
X45512246Y-48692063D01*
X45513219Y-48682190D01*
X45513219Y-48586952D01*
X45512246Y-48577078D01*
X45512434Y-48574444D01*
X45511646Y-48570980D01*
X45511298Y-48567443D01*
X45510286Y-48565001D01*
X45508087Y-48555329D01*
X45460468Y-48412472D01*
X45452477Y-48394572D01*
X45450122Y-48391856D01*
X45448747Y-48388537D01*
X45436310Y-48373383D01*
X45388690Y-48325765D01*
X45373537Y-48313328D01*
X45348046Y-48302770D01*
X45337489Y-48298397D01*
X45317980Y-48296476D01*
X44984647Y-48296476D01*
X44965138Y-48298397D01*
X44929090Y-48313329D01*
X44901500Y-48340919D01*
X44886568Y-48376967D01*
X44884647Y-48396476D01*
X44884647Y-48586952D01*
X44886568Y-48606461D01*
X44901500Y-48642509D01*
X44929090Y-48670099D01*
X44965138Y-48685031D01*
X45004156Y-48685031D01*
X45040204Y-48670099D01*
X45067794Y-48642509D01*
X45082726Y-48606461D01*
X45084647Y-48586952D01*
X45084647Y-48496476D01*
X45276560Y-48496476D01*
X45278197Y-48498113D01*
X45313219Y-48603178D01*
X45313219Y-48665963D01*
X45278197Y-48771028D01*
X45211127Y-48838098D01*
X45140218Y-48873552D01*
X44972337Y-48915523D01*
X44854099Y-48915523D01*
X44686218Y-48873552D01*
X44615313Y-48838100D01*
X44548240Y-48771027D01*
X44513219Y-48665963D01*
X44513219Y-48562940D01*
X44550281Y-48488817D01*
X44557287Y-48470508D01*
X44560053Y-48431588D01*
X44547714Y-48394572D01*
X44522149Y-48365095D01*
X44487251Y-48347646D01*
X44448331Y-48344881D01*
X44411315Y-48357219D01*
X44381838Y-48382784D01*
X44371395Y-48399374D01*
X44323776Y-48494612D01*
X44316770Y-48512920D01*
X44316515Y-48516503D01*
X44315140Y-48519824D01*
X44313219Y-48539333D01*
X44202108Y-48539333D01*
X44202108Y-48185365D01*
X45624330Y-48185365D01*
X45624330Y-49226634D01*
G37*
G36*
X49862554Y-48597471D02*
G01*
X49887223Y-48622139D01*
X49917028Y-48681749D01*
X49917028Y-48939094D01*
X49593219Y-48939094D01*
X49593219Y-48681749D01*
X49623024Y-48622139D01*
X49647692Y-48597470D01*
X49707302Y-48567666D01*
X49802945Y-48567666D01*
X49862554Y-48597471D01*
G37*
G36*
X50704330Y-49250205D02*
G01*
X49282108Y-49250205D01*
X49282108Y-48658142D01*
X49393219Y-48658142D01*
X49393219Y-49039094D01*
X49395140Y-49058603D01*
X49410072Y-49094651D01*
X49437662Y-49122241D01*
X49473710Y-49137173D01*
X49493219Y-49139094D01*
X50493219Y-49139094D01*
X50512728Y-49137173D01*
X50548776Y-49122241D01*
X50576366Y-49094651D01*
X50591298Y-49058603D01*
X50591298Y-49019585D01*
X50576366Y-48983537D01*
X50548776Y-48955947D01*
X50512728Y-48941015D01*
X50493219Y-48939094D01*
X50117028Y-48939094D01*
X50117028Y-48658142D01*
X50115107Y-48638633D01*
X50113731Y-48635312D01*
X50113477Y-48631729D01*
X50106471Y-48613420D01*
X50058852Y-48518183D01*
X50053566Y-48509786D01*
X50052556Y-48507346D01*
X50050302Y-48504600D01*
X50048409Y-48501592D01*
X50046411Y-48499859D01*
X50040119Y-48492193D01*
X49992501Y-48444574D01*
X49984830Y-48438279D01*
X49983101Y-48436285D01*
X49980093Y-48434391D01*
X49977347Y-48432138D01*
X49974907Y-48431127D01*
X49966511Y-48425842D01*
X49871273Y-48378223D01*
X49852965Y-48371217D01*
X49849381Y-48370962D01*
X49846061Y-48369587D01*
X49826552Y-48367666D01*
X49683695Y-48367666D01*
X49664186Y-48369587D01*
X49660865Y-48370962D01*
X49657282Y-48371217D01*
X49638973Y-48378223D01*
X49543736Y-48425842D01*
X49535339Y-48431127D01*
X49532899Y-48432138D01*
X49530153Y-48434391D01*
X49527145Y-48436285D01*
X49525412Y-48438282D01*
X49517746Y-48444575D01*
X49470127Y-48492193D01*
X49463832Y-48499863D01*
X49461838Y-48501593D01*
X49459944Y-48504600D01*
X49457691Y-48507347D01*
X49456680Y-48509786D01*
X49451395Y-48518183D01*
X49403776Y-48613421D01*
X49396770Y-48631729D01*
X49396515Y-48635312D01*
X49395140Y-48638633D01*
X49393219Y-48658142D01*
X49282108Y-48658142D01*
X49282108Y-47801104D01*
X49393219Y-47801104D01*
X49395140Y-47810709D01*
X49395140Y-47820508D01*
X49398929Y-47829656D01*
X49400871Y-47839364D01*
X49406322Y-47847504D01*
X49410072Y-47856556D01*
X49417071Y-47863555D01*
X49422582Y-47871784D01*
X49437588Y-47884072D01*
X49437662Y-47884146D01*
X49437694Y-47884159D01*
X49437749Y-47884204D01*
X49572365Y-47973948D01*
X49649129Y-48050712D01*
X49689490Y-48131434D01*
X49699933Y-48148024D01*
X49729410Y-48173589D01*
X49766426Y-48185927D01*
X49805346Y-48183162D01*
X49840244Y-48165713D01*
X49865809Y-48136236D01*
X49878148Y-48099220D01*
X49875382Y-48060300D01*
X49868376Y-48041991D01*
X49820757Y-47946754D01*
X49815470Y-47938355D01*
X49814461Y-47935918D01*
X49812209Y-47933174D01*
X49810314Y-47930163D01*
X49808316Y-47928430D01*
X49802025Y-47920764D01*
X49782260Y-47900999D01*
X50393219Y-47900999D01*
X50393219Y-48086713D01*
X50395140Y-48106222D01*
X50410072Y-48142270D01*
X50437662Y-48169860D01*
X50473710Y-48184792D01*
X50512728Y-48184792D01*
X50548776Y-48169860D01*
X50576366Y-48142270D01*
X50591298Y-48106222D01*
X50593219Y-48086713D01*
X50593219Y-47515285D01*
X50591298Y-47495776D01*
X50576366Y-47459728D01*
X50548776Y-47432138D01*
X50512728Y-47417206D01*
X50473710Y-47417206D01*
X50437662Y-47432138D01*
X50410072Y-47459728D01*
X50395140Y-47495776D01*
X50393219Y-47515285D01*
X50393219Y-47700999D01*
X49493219Y-47700999D01*
X49493148Y-47701005D01*
X49493114Y-47700999D01*
X49493012Y-47701019D01*
X49473710Y-47702920D01*
X49464561Y-47706709D01*
X49454854Y-47708651D01*
X49446713Y-47714102D01*
X49437662Y-47717852D01*
X49430662Y-47724851D01*
X49422434Y-47730362D01*
X49416998Y-47738515D01*
X49410072Y-47745442D01*
X49406283Y-47754588D01*
X49400791Y-47762827D01*
X49398889Y-47772437D01*
X49395140Y-47781490D01*
X49395140Y-47791393D01*
X49393219Y-47801104D01*
X49282108Y-47801104D01*
X49282108Y-47306095D01*
X50704330Y-47306095D01*
X50704330Y-49250205D01*
G37*
D10*
%TO.C,D13*%
X152100000Y-29250000D02*
X152100000Y-30750000D01*
X152100000Y-30750000D02*
X157500000Y-30750000D01*
X154300000Y-29500000D02*
X154300000Y-30500000D01*
X154400000Y-30000000D02*
X155300000Y-29500000D01*
X155300000Y-29500000D02*
X155300000Y-30500000D01*
X155300000Y-30500000D02*
X154400000Y-30000000D01*
X157500000Y-29250000D02*
X152100000Y-29250000D01*
X157500000Y-29250000D02*
X157500000Y-30750000D01*
%TO.C,D20*%
X171280000Y-86400000D02*
X171280000Y-87900000D01*
X171280000Y-87900000D02*
X176680000Y-87900000D01*
X173480000Y-86650000D02*
X173480000Y-87650000D01*
X173580000Y-87150000D02*
X174480000Y-86650000D01*
X174480000Y-86650000D02*
X174480000Y-87650000D01*
X174480000Y-87650000D02*
X173580000Y-87150000D01*
X176680000Y-86400000D02*
X171280000Y-86400000D01*
X176680000Y-86400000D02*
X176680000Y-87900000D01*
D13*
%TO.C,K16*%
X152384000Y-103084000D02*
X153321000Y-104021000D01*
X153321000Y-99229000D02*
X152300000Y-100250000D01*
X153321000Y-104021000D02*
X156068000Y-104021000D01*
X155800000Y-88775000D02*
X153800000Y-88775000D01*
X155968000Y-99229000D02*
X153321000Y-99229000D01*
X156068000Y-104021000D02*
X156471000Y-103941000D01*
X156300000Y-92975000D02*
X153300000Y-92975000D01*
X156471000Y-103941000D02*
X156813000Y-103712000D01*
X156530000Y-99124000D02*
X155968000Y-99229000D01*
X156813000Y-103712000D02*
X157346000Y-103179000D01*
X157009000Y-98825000D02*
X156530000Y-99124000D01*
X157346000Y-102957000D02*
X157433000Y-102519000D01*
X157346000Y-103179000D02*
X157346000Y-102957000D01*
X157347000Y-98372000D02*
X157009000Y-98825000D01*
X157433000Y-102519000D02*
X157677000Y-102152000D01*
X157501000Y-97814000D02*
X157347000Y-98372000D01*
X157583000Y-97516000D02*
X157501000Y-97814000D01*
X157677000Y-102152000D02*
X158044000Y-101908000D01*
X157776000Y-97258000D02*
X157583000Y-97516000D01*
X158044000Y-101908000D02*
X158482000Y-101821000D01*
X158050000Y-97088000D02*
X157776000Y-97258000D01*
X158360000Y-97029000D02*
X158050000Y-97088000D01*
X158482000Y-101821000D02*
X161282000Y-101821000D01*
X161282000Y-101821000D02*
X161609000Y-101756000D01*
X161609000Y-101756000D02*
X161892000Y-101567000D01*
X161892000Y-101567000D02*
X162081000Y-101284000D01*
X162081000Y-101284000D02*
X162166000Y-100857000D01*
X162083000Y-97971000D02*
X162446000Y-97971000D01*
X162446000Y-97029000D02*
X158360000Y-97029000D01*
X162446000Y-97971000D02*
X162446000Y-97029000D01*
X158900000Y-88775000D02*
G75*
G02*
X160900000Y-90775000I0J-2000000D01*
G01*
%TO.C,JP15*%
X83310000Y-43533000D02*
X86110000Y-43533000D01*
X83310000Y-45533000D02*
X83310000Y-43533000D01*
X86110000Y-43533000D02*
X86110000Y-45533000D01*
X86110000Y-45533000D02*
X83310000Y-45533000D01*
D10*
%TO.C,D1*%
X94950000Y-29250000D02*
X94950000Y-30750000D01*
X94950000Y-30750000D02*
X100350000Y-30750000D01*
X97150000Y-29500000D02*
X97150000Y-30500000D01*
X97250000Y-30000000D02*
X98150000Y-29500000D01*
X98150000Y-29500000D02*
X98150000Y-30500000D01*
X98150000Y-30500000D02*
X97250000Y-30000000D01*
X100350000Y-29250000D02*
X94950000Y-29250000D01*
X100350000Y-29250000D02*
X100350000Y-30750000D01*
%TO.C,D18*%
X171150000Y-48300000D02*
X171150000Y-49800000D01*
X171150000Y-49800000D02*
X176550000Y-49800000D01*
X173350000Y-48550000D02*
X173350000Y-49550000D01*
X173450000Y-49050000D02*
X174350000Y-48550000D01*
X174350000Y-48550000D02*
X174350000Y-49550000D01*
X174350000Y-49550000D02*
X173450000Y-49050000D01*
X176550000Y-48300000D02*
X171150000Y-48300000D01*
X176550000Y-48300000D02*
X176550000Y-49800000D01*
D13*
%TO.C,K3*%
X95234000Y-84034000D02*
X96171000Y-84971000D01*
X96171000Y-80179000D02*
X95150000Y-81200000D01*
X96171000Y-84971000D02*
X98918000Y-84971000D01*
X98650000Y-69725000D02*
X96650000Y-69725000D01*
X98818000Y-80179000D02*
X96171000Y-80179000D01*
X98918000Y-84971000D02*
X99321000Y-84891000D01*
X99150000Y-73925000D02*
X96150000Y-73925000D01*
X99321000Y-84891000D02*
X99663000Y-84662000D01*
X99380000Y-80074000D02*
X98818000Y-80179000D01*
X99663000Y-84662000D02*
X100196000Y-84129000D01*
X99859000Y-79775000D02*
X99380000Y-80074000D01*
X100196000Y-83907000D02*
X100283000Y-83469000D01*
X100196000Y-84129000D02*
X100196000Y-83907000D01*
X100197000Y-79322000D02*
X99859000Y-79775000D01*
X100283000Y-83469000D02*
X100527000Y-83102000D01*
X100351000Y-78764000D02*
X100197000Y-79322000D01*
X100433000Y-78466000D02*
X100351000Y-78764000D01*
X100527000Y-83102000D02*
X100894000Y-82858000D01*
X100626000Y-78208000D02*
X100433000Y-78466000D01*
X100894000Y-82858000D02*
X101332000Y-82771000D01*
X100900000Y-78038000D02*
X100626000Y-78208000D01*
X101210000Y-77979000D02*
X100900000Y-78038000D01*
X101332000Y-82771000D02*
X104132000Y-82771000D01*
X104132000Y-82771000D02*
X104459000Y-82706000D01*
X104459000Y-82706000D02*
X104742000Y-82517000D01*
X104742000Y-82517000D02*
X104931000Y-82234000D01*
X104931000Y-82234000D02*
X105016000Y-81807000D01*
X104933000Y-78921000D02*
X105296000Y-78921000D01*
X105296000Y-77979000D02*
X101210000Y-77979000D01*
X105296000Y-78921000D02*
X105296000Y-77979000D01*
X101750000Y-69725000D02*
G75*
G02*
X103750000Y-71725000I0J-2000000D01*
G01*
%TO.C,K4*%
X95234000Y-103084000D02*
X96171000Y-104021000D01*
X96171000Y-99229000D02*
X95150000Y-100250000D01*
X96171000Y-104021000D02*
X98918000Y-104021000D01*
X98650000Y-88775000D02*
X96650000Y-88775000D01*
X98818000Y-99229000D02*
X96171000Y-99229000D01*
X98918000Y-104021000D02*
X99321000Y-103941000D01*
X99150000Y-92975000D02*
X96150000Y-92975000D01*
X99321000Y-103941000D02*
X99663000Y-103712000D01*
X99380000Y-99124000D02*
X98818000Y-99229000D01*
X99663000Y-103712000D02*
X100196000Y-103179000D01*
X99859000Y-98825000D02*
X99380000Y-99124000D01*
X100196000Y-102957000D02*
X100283000Y-102519000D01*
X100196000Y-103179000D02*
X100196000Y-102957000D01*
X100197000Y-98372000D02*
X99859000Y-98825000D01*
X100283000Y-102519000D02*
X100527000Y-102152000D01*
X100351000Y-97814000D02*
X100197000Y-98372000D01*
X100433000Y-97516000D02*
X100351000Y-97814000D01*
X100527000Y-102152000D02*
X100894000Y-101908000D01*
X100626000Y-97258000D02*
X100433000Y-97516000D01*
X100894000Y-101908000D02*
X101332000Y-101821000D01*
X100900000Y-97088000D02*
X100626000Y-97258000D01*
X101210000Y-97029000D02*
X100900000Y-97088000D01*
X101332000Y-101821000D02*
X104132000Y-101821000D01*
X104132000Y-101821000D02*
X104459000Y-101756000D01*
X104459000Y-101756000D02*
X104742000Y-101567000D01*
X104742000Y-101567000D02*
X104931000Y-101284000D01*
X104931000Y-101284000D02*
X105016000Y-100857000D01*
X104933000Y-97971000D02*
X105296000Y-97971000D01*
X105296000Y-97029000D02*
X101210000Y-97029000D01*
X105296000Y-97971000D02*
X105296000Y-97029000D01*
X101750000Y-88775000D02*
G75*
G02*
X103750000Y-90775000I0J-2000000D01*
G01*
D10*
%TO.C,D22*%
X190200000Y-48300000D02*
X190200000Y-49800000D01*
X190200000Y-49800000D02*
X195600000Y-49800000D01*
X192400000Y-48550000D02*
X192400000Y-49550000D01*
X192500000Y-49050000D02*
X193400000Y-48550000D01*
X193400000Y-48550000D02*
X193400000Y-49550000D01*
X193400000Y-49550000D02*
X192500000Y-49050000D01*
X195600000Y-48300000D02*
X190200000Y-48300000D01*
X195600000Y-48300000D02*
X195600000Y-49800000D01*
D13*
%TO.C,K1*%
X95234000Y-45934000D02*
X96171000Y-46871000D01*
X96171000Y-42079000D02*
X95150000Y-43100000D01*
X96171000Y-46871000D02*
X98918000Y-46871000D01*
X98650000Y-31625000D02*
X96650000Y-31625000D01*
X98818000Y-42079000D02*
X96171000Y-42079000D01*
X98918000Y-46871000D02*
X99321000Y-46791000D01*
X99150000Y-35825000D02*
X96150000Y-35825000D01*
X99321000Y-46791000D02*
X99663000Y-46562000D01*
X99380000Y-41974000D02*
X98818000Y-42079000D01*
X99663000Y-46562000D02*
X100196000Y-46029000D01*
X99859000Y-41675000D02*
X99380000Y-41974000D01*
X100196000Y-45807000D02*
X100283000Y-45369000D01*
X100196000Y-46029000D02*
X100196000Y-45807000D01*
X100197000Y-41222000D02*
X99859000Y-41675000D01*
X100283000Y-45369000D02*
X100527000Y-45002000D01*
X100351000Y-40664000D02*
X100197000Y-41222000D01*
X100433000Y-40366000D02*
X100351000Y-40664000D01*
X100527000Y-45002000D02*
X100894000Y-44758000D01*
X100626000Y-40108000D02*
X100433000Y-40366000D01*
X100894000Y-44758000D02*
X101332000Y-44671000D01*
X100900000Y-39938000D02*
X100626000Y-40108000D01*
X101210000Y-39879000D02*
X100900000Y-39938000D01*
X101332000Y-44671000D02*
X104132000Y-44671000D01*
X104132000Y-44671000D02*
X104459000Y-44606000D01*
X104459000Y-44606000D02*
X104742000Y-44417000D01*
X104742000Y-44417000D02*
X104931000Y-44134000D01*
X104931000Y-44134000D02*
X105016000Y-43707000D01*
X104933000Y-40821000D02*
X105296000Y-40821000D01*
X105296000Y-39879000D02*
X101210000Y-39879000D01*
X105296000Y-40821000D02*
X105296000Y-39879000D01*
X101750000Y-31625000D02*
G75*
G02*
X103750000Y-33625000I0J-2000000D01*
G01*
D10*
%TO.C,D6*%
X114000000Y-48300000D02*
X114000000Y-49800000D01*
X114000000Y-49800000D02*
X119400000Y-49800000D01*
X116200000Y-48550000D02*
X116200000Y-49550000D01*
X116300000Y-49050000D02*
X117200000Y-48550000D01*
X117200000Y-48550000D02*
X117200000Y-49550000D01*
X117200000Y-49550000D02*
X116300000Y-49050000D01*
X119400000Y-48300000D02*
X114000000Y-48300000D01*
X119400000Y-48300000D02*
X119400000Y-49800000D01*
D13*
%TO.C,K7*%
X114284000Y-84034000D02*
X115221000Y-84971000D01*
X115221000Y-80179000D02*
X114200000Y-81200000D01*
X115221000Y-84971000D02*
X117968000Y-84971000D01*
X117700000Y-69725000D02*
X115700000Y-69725000D01*
X117868000Y-80179000D02*
X115221000Y-80179000D01*
X117968000Y-84971000D02*
X118371000Y-84891000D01*
X118200000Y-73925000D02*
X115200000Y-73925000D01*
X118371000Y-84891000D02*
X118713000Y-84662000D01*
X118430000Y-80074000D02*
X117868000Y-80179000D01*
X118713000Y-84662000D02*
X119246000Y-84129000D01*
X118909000Y-79775000D02*
X118430000Y-80074000D01*
X119246000Y-83907000D02*
X119333000Y-83469000D01*
X119246000Y-84129000D02*
X119246000Y-83907000D01*
X119247000Y-79322000D02*
X118909000Y-79775000D01*
X119333000Y-83469000D02*
X119577000Y-83102000D01*
X119401000Y-78764000D02*
X119247000Y-79322000D01*
X119483000Y-78466000D02*
X119401000Y-78764000D01*
X119577000Y-83102000D02*
X119944000Y-82858000D01*
X119676000Y-78208000D02*
X119483000Y-78466000D01*
X119944000Y-82858000D02*
X120382000Y-82771000D01*
X119950000Y-78038000D02*
X119676000Y-78208000D01*
X120260000Y-77979000D02*
X119950000Y-78038000D01*
X120382000Y-82771000D02*
X123182000Y-82771000D01*
X123182000Y-82771000D02*
X123509000Y-82706000D01*
X123509000Y-82706000D02*
X123792000Y-82517000D01*
X123792000Y-82517000D02*
X123981000Y-82234000D01*
X123981000Y-82234000D02*
X124066000Y-81807000D01*
X123983000Y-78921000D02*
X124346000Y-78921000D01*
X124346000Y-77979000D02*
X120260000Y-77979000D01*
X124346000Y-78921000D02*
X124346000Y-77979000D01*
X120800000Y-69725000D02*
G75*
G02*
X122800000Y-71725000I0J-2000000D01*
G01*
D10*
%TO.C,T1*%
X75835800Y-29150000D02*
X75835800Y-37788000D01*
X75835800Y-29150000D02*
X82592200Y-29150000D01*
X75835800Y-37788000D02*
X75835800Y-41723000D01*
X82592200Y-29150000D02*
X82592200Y-41723000D01*
X82592200Y-41723000D02*
X75835800Y-41723000D01*
D13*
%TO.C,K9*%
X133334000Y-45934000D02*
X134271000Y-46871000D01*
X134271000Y-42079000D02*
X133250000Y-43100000D01*
X134271000Y-46871000D02*
X137018000Y-46871000D01*
X136750000Y-31625000D02*
X134750000Y-31625000D01*
X136918000Y-42079000D02*
X134271000Y-42079000D01*
X137018000Y-46871000D02*
X137421000Y-46791000D01*
X137250000Y-35825000D02*
X134250000Y-35825000D01*
X137421000Y-46791000D02*
X137763000Y-46562000D01*
X137480000Y-41974000D02*
X136918000Y-42079000D01*
X137763000Y-46562000D02*
X138296000Y-46029000D01*
X137959000Y-41675000D02*
X137480000Y-41974000D01*
X138296000Y-45807000D02*
X138383000Y-45369000D01*
X138296000Y-46029000D02*
X138296000Y-45807000D01*
X138297000Y-41222000D02*
X137959000Y-41675000D01*
X138383000Y-45369000D02*
X138627000Y-45002000D01*
X138451000Y-40664000D02*
X138297000Y-41222000D01*
X138533000Y-40366000D02*
X138451000Y-40664000D01*
X138627000Y-45002000D02*
X138994000Y-44758000D01*
X138726000Y-40108000D02*
X138533000Y-40366000D01*
X138994000Y-44758000D02*
X139432000Y-44671000D01*
X139000000Y-39938000D02*
X138726000Y-40108000D01*
X139310000Y-39879000D02*
X139000000Y-39938000D01*
X139432000Y-44671000D02*
X142232000Y-44671000D01*
X142232000Y-44671000D02*
X142559000Y-44606000D01*
X142559000Y-44606000D02*
X142842000Y-44417000D01*
X142842000Y-44417000D02*
X143031000Y-44134000D01*
X143031000Y-44134000D02*
X143116000Y-43707000D01*
X143033000Y-40821000D02*
X143396000Y-40821000D01*
X143396000Y-39879000D02*
X139310000Y-39879000D01*
X143396000Y-40821000D02*
X143396000Y-39879000D01*
X139850000Y-31625000D02*
G75*
G02*
X141850000Y-33625000I0J-2000000D01*
G01*
D10*
%TO.C,D2*%
X94950000Y-48300000D02*
X94950000Y-49800000D01*
X94950000Y-49800000D02*
X100350000Y-49800000D01*
X97150000Y-48550000D02*
X97150000Y-49550000D01*
X97250000Y-49050000D02*
X98150000Y-48550000D01*
X98150000Y-48550000D02*
X98150000Y-49550000D01*
X98150000Y-49550000D02*
X97250000Y-49050000D01*
X100350000Y-48300000D02*
X94950000Y-48300000D01*
X100350000Y-48300000D02*
X100350000Y-49800000D01*
%TO.C,D7*%
X114000000Y-67350000D02*
X114000000Y-68850000D01*
X114000000Y-68850000D02*
X119400000Y-68850000D01*
X116200000Y-67600000D02*
X116200000Y-68600000D01*
X116300000Y-68100000D02*
X117200000Y-67600000D01*
X117200000Y-67600000D02*
X117200000Y-68600000D01*
X117200000Y-68600000D02*
X116300000Y-68100000D01*
X119400000Y-67350000D02*
X114000000Y-67350000D01*
X119400000Y-67350000D02*
X119400000Y-68850000D01*
D13*
%TO.C,K17*%
X171434000Y-45934000D02*
X172371000Y-46871000D01*
X172371000Y-42079000D02*
X171350000Y-43100000D01*
X172371000Y-46871000D02*
X175118000Y-46871000D01*
X174850000Y-31625000D02*
X172850000Y-31625000D01*
X175018000Y-42079000D02*
X172371000Y-42079000D01*
X175118000Y-46871000D02*
X175521000Y-46791000D01*
X175350000Y-35825000D02*
X172350000Y-35825000D01*
X175521000Y-46791000D02*
X175863000Y-46562000D01*
X175580000Y-41974000D02*
X175018000Y-42079000D01*
X175863000Y-46562000D02*
X176396000Y-46029000D01*
X176059000Y-41675000D02*
X175580000Y-41974000D01*
X176396000Y-45807000D02*
X176483000Y-45369000D01*
X176396000Y-46029000D02*
X176396000Y-45807000D01*
X176397000Y-41222000D02*
X176059000Y-41675000D01*
X176483000Y-45369000D02*
X176727000Y-45002000D01*
X176551000Y-40664000D02*
X176397000Y-41222000D01*
X176633000Y-40366000D02*
X176551000Y-40664000D01*
X176727000Y-45002000D02*
X177094000Y-44758000D01*
X176826000Y-40108000D02*
X176633000Y-40366000D01*
X177094000Y-44758000D02*
X177532000Y-44671000D01*
X177100000Y-39938000D02*
X176826000Y-40108000D01*
X177410000Y-39879000D02*
X177100000Y-39938000D01*
X177532000Y-44671000D02*
X180332000Y-44671000D01*
X180332000Y-44671000D02*
X180659000Y-44606000D01*
X180659000Y-44606000D02*
X180942000Y-44417000D01*
X180942000Y-44417000D02*
X181131000Y-44134000D01*
X181131000Y-44134000D02*
X181216000Y-43707000D01*
X181133000Y-40821000D02*
X181496000Y-40821000D01*
X181496000Y-39879000D02*
X177410000Y-39879000D01*
X181496000Y-40821000D02*
X181496000Y-39879000D01*
X177950000Y-31625000D02*
G75*
G02*
X179950000Y-33625000I0J-2000000D01*
G01*
%TO.C,K22*%
X190484000Y-64984000D02*
X191421000Y-65921000D01*
X191421000Y-61129000D02*
X190400000Y-62150000D01*
X191421000Y-65921000D02*
X194168000Y-65921000D01*
X193900000Y-50675000D02*
X191900000Y-50675000D01*
X194068000Y-61129000D02*
X191421000Y-61129000D01*
X194168000Y-65921000D02*
X194571000Y-65841000D01*
X194400000Y-54875000D02*
X191400000Y-54875000D01*
X194571000Y-65841000D02*
X194913000Y-65612000D01*
X194630000Y-61024000D02*
X194068000Y-61129000D01*
X194913000Y-65612000D02*
X195446000Y-65079000D01*
X195109000Y-60725000D02*
X194630000Y-61024000D01*
X195446000Y-64857000D02*
X195533000Y-64419000D01*
X195446000Y-65079000D02*
X195446000Y-64857000D01*
X195447000Y-60272000D02*
X195109000Y-60725000D01*
X195533000Y-64419000D02*
X195777000Y-64052000D01*
X195601000Y-59714000D02*
X195447000Y-60272000D01*
X195683000Y-59416000D02*
X195601000Y-59714000D01*
X195777000Y-64052000D02*
X196144000Y-63808000D01*
X195876000Y-59158000D02*
X195683000Y-59416000D01*
X196144000Y-63808000D02*
X196582000Y-63721000D01*
X196150000Y-58988000D02*
X195876000Y-59158000D01*
X196460000Y-58929000D02*
X196150000Y-58988000D01*
X196582000Y-63721000D02*
X199382000Y-63721000D01*
X199382000Y-63721000D02*
X199709000Y-63656000D01*
X199709000Y-63656000D02*
X199992000Y-63467000D01*
X199992000Y-63467000D02*
X200181000Y-63184000D01*
X200181000Y-63184000D02*
X200266000Y-62757000D01*
X200183000Y-59871000D02*
X200546000Y-59871000D01*
X200546000Y-58929000D02*
X196460000Y-58929000D01*
X200546000Y-59871000D02*
X200546000Y-58929000D01*
X197000000Y-50675000D02*
G75*
G02*
X199000000Y-52675000I0J-2000000D01*
G01*
%TO.C,K21*%
X190484000Y-45934000D02*
X191421000Y-46871000D01*
X191421000Y-42079000D02*
X190400000Y-43100000D01*
X191421000Y-46871000D02*
X194168000Y-46871000D01*
X193900000Y-31625000D02*
X191900000Y-31625000D01*
X194068000Y-42079000D02*
X191421000Y-42079000D01*
X194168000Y-46871000D02*
X194571000Y-46791000D01*
X194400000Y-35825000D02*
X191400000Y-35825000D01*
X194571000Y-46791000D02*
X194913000Y-46562000D01*
X194630000Y-41974000D02*
X194068000Y-42079000D01*
X194913000Y-46562000D02*
X195446000Y-46029000D01*
X195109000Y-41675000D02*
X194630000Y-41974000D01*
X195446000Y-45807000D02*
X195533000Y-45369000D01*
X195446000Y-46029000D02*
X195446000Y-45807000D01*
X195447000Y-41222000D02*
X195109000Y-41675000D01*
X195533000Y-45369000D02*
X195777000Y-45002000D01*
X195601000Y-40664000D02*
X195447000Y-41222000D01*
X195683000Y-40366000D02*
X195601000Y-40664000D01*
X195777000Y-45002000D02*
X196144000Y-44758000D01*
X195876000Y-40108000D02*
X195683000Y-40366000D01*
X196144000Y-44758000D02*
X196582000Y-44671000D01*
X196150000Y-39938000D02*
X195876000Y-40108000D01*
X196460000Y-39879000D02*
X196150000Y-39938000D01*
X196582000Y-44671000D02*
X199382000Y-44671000D01*
X199382000Y-44671000D02*
X199709000Y-44606000D01*
X199709000Y-44606000D02*
X199992000Y-44417000D01*
X199992000Y-44417000D02*
X200181000Y-44134000D01*
X200181000Y-44134000D02*
X200266000Y-43707000D01*
X200183000Y-40821000D02*
X200546000Y-40821000D01*
X200546000Y-39879000D02*
X196460000Y-39879000D01*
X200546000Y-40821000D02*
X200546000Y-39879000D01*
X197000000Y-31625000D02*
G75*
G02*
X199000000Y-33625000I0J-2000000D01*
G01*
D10*
%TO.C,D19*%
X171280000Y-67350000D02*
X171280000Y-68850000D01*
X171280000Y-68850000D02*
X176680000Y-68850000D01*
X173480000Y-67600000D02*
X173480000Y-68600000D01*
X173580000Y-68100000D02*
X174480000Y-67600000D01*
X174480000Y-67600000D02*
X174480000Y-68600000D01*
X174480000Y-68600000D02*
X173580000Y-68100000D01*
X176680000Y-67350000D02*
X171280000Y-67350000D01*
X176680000Y-67350000D02*
X176680000Y-68850000D01*
D13*
%TO.C,JP5*%
X66027500Y-67493000D02*
X66027500Y-66093000D01*
X66727500Y-65393000D02*
X67327500Y-65393000D01*
X67327500Y-68193000D02*
X66727500Y-68193000D01*
X68027500Y-66093000D02*
X68027500Y-67493000D01*
X66027500Y-66093000D02*
G75*
G02*
X66727500Y-65393000I700000J0D01*
G01*
X66727500Y-68193000D02*
G75*
G02*
X66027500Y-67493000I-1J699999D01*
G01*
X67327500Y-65393000D02*
G75*
G02*
X68027500Y-66093000I0J-700000D01*
G01*
X68027500Y-67493000D02*
G75*
G02*
X67327500Y-68193000I-699999J-1D01*
G01*
%TO.C,K23*%
X190484000Y-84034000D02*
X191421000Y-84971000D01*
X191421000Y-80179000D02*
X190400000Y-81200000D01*
X191421000Y-84971000D02*
X194168000Y-84971000D01*
X193900000Y-69725000D02*
X191900000Y-69725000D01*
X194068000Y-80179000D02*
X191421000Y-80179000D01*
X194168000Y-84971000D02*
X194571000Y-84891000D01*
X194400000Y-73925000D02*
X191400000Y-73925000D01*
X194571000Y-84891000D02*
X194913000Y-84662000D01*
X194630000Y-80074000D02*
X194068000Y-80179000D01*
X194913000Y-84662000D02*
X195446000Y-84129000D01*
X195109000Y-79775000D02*
X194630000Y-80074000D01*
X195446000Y-83907000D02*
X195533000Y-83469000D01*
X195446000Y-84129000D02*
X195446000Y-83907000D01*
X195447000Y-79322000D02*
X195109000Y-79775000D01*
X195533000Y-83469000D02*
X195777000Y-83102000D01*
X195601000Y-78764000D02*
X195447000Y-79322000D01*
X195683000Y-78466000D02*
X195601000Y-78764000D01*
X195777000Y-83102000D02*
X196144000Y-82858000D01*
X195876000Y-78208000D02*
X195683000Y-78466000D01*
X196144000Y-82858000D02*
X196582000Y-82771000D01*
X196150000Y-78038000D02*
X195876000Y-78208000D01*
X196460000Y-77979000D02*
X196150000Y-78038000D01*
X196582000Y-82771000D02*
X199382000Y-82771000D01*
X199382000Y-82771000D02*
X199709000Y-82706000D01*
X199709000Y-82706000D02*
X199992000Y-82517000D01*
X199992000Y-82517000D02*
X200181000Y-82234000D01*
X200181000Y-82234000D02*
X200266000Y-81807000D01*
X200183000Y-78921000D02*
X200546000Y-78921000D01*
X200546000Y-77979000D02*
X196460000Y-77979000D01*
X200546000Y-78921000D02*
X200546000Y-77979000D01*
X197000000Y-69725000D02*
G75*
G02*
X199000000Y-71725000I0J-2000000D01*
G01*
D10*
%TO.C,D12*%
X133050000Y-86400000D02*
X133050000Y-87900000D01*
X133050000Y-87900000D02*
X138450000Y-87900000D01*
X135250000Y-86650000D02*
X135250000Y-87650000D01*
X135350000Y-87150000D02*
X136250000Y-86650000D01*
X136250000Y-86650000D02*
X136250000Y-87650000D01*
X136250000Y-87650000D02*
X135350000Y-87150000D01*
X138450000Y-86400000D02*
X133050000Y-86400000D01*
X138450000Y-86400000D02*
X138450000Y-87900000D01*
%TO.C,D25*%
X73888000Y-77743000D02*
X73888000Y-83143000D01*
X74138000Y-80943000D02*
X74638000Y-80043000D01*
X74638000Y-80043000D02*
X75138000Y-80943000D01*
X75138000Y-79943000D02*
X74138000Y-79943000D01*
X75138000Y-80943000D02*
X74138000Y-80943000D01*
X75388000Y-77743000D02*
X73888000Y-77743000D01*
X75388000Y-83143000D02*
X73888000Y-83143000D01*
X75388000Y-83143000D02*
X75388000Y-77743000D01*
D13*
%TO.C,K18*%
X171434000Y-64984000D02*
X172371000Y-65921000D01*
X172371000Y-61129000D02*
X171350000Y-62150000D01*
X172371000Y-65921000D02*
X175118000Y-65921000D01*
X174850000Y-50675000D02*
X172850000Y-50675000D01*
X175018000Y-61129000D02*
X172371000Y-61129000D01*
X175118000Y-65921000D02*
X175521000Y-65841000D01*
X175350000Y-54875000D02*
X172350000Y-54875000D01*
X175521000Y-65841000D02*
X175863000Y-65612000D01*
X175580000Y-61024000D02*
X175018000Y-61129000D01*
X175863000Y-65612000D02*
X176396000Y-65079000D01*
X176059000Y-60725000D02*
X175580000Y-61024000D01*
X176396000Y-64857000D02*
X176483000Y-64419000D01*
X176396000Y-65079000D02*
X176396000Y-64857000D01*
X176397000Y-60272000D02*
X176059000Y-60725000D01*
X176483000Y-64419000D02*
X176727000Y-64052000D01*
X176551000Y-59714000D02*
X176397000Y-60272000D01*
X176633000Y-59416000D02*
X176551000Y-59714000D01*
X176727000Y-64052000D02*
X177094000Y-63808000D01*
X176826000Y-59158000D02*
X176633000Y-59416000D01*
X177094000Y-63808000D02*
X177532000Y-63721000D01*
X177100000Y-58988000D02*
X176826000Y-59158000D01*
X177410000Y-58929000D02*
X177100000Y-58988000D01*
X177532000Y-63721000D02*
X180332000Y-63721000D01*
X180332000Y-63721000D02*
X180659000Y-63656000D01*
X180659000Y-63656000D02*
X180942000Y-63467000D01*
X180942000Y-63467000D02*
X181131000Y-63184000D01*
X181131000Y-63184000D02*
X181216000Y-62757000D01*
X181133000Y-59871000D02*
X181496000Y-59871000D01*
X181496000Y-58929000D02*
X177410000Y-58929000D01*
X181496000Y-59871000D02*
X181496000Y-58929000D01*
X177950000Y-50675000D02*
G75*
G02*
X179950000Y-52675000I0J-2000000D01*
G01*
D10*
%TO.C,D4*%
X94950000Y-86400000D02*
X94950000Y-87900000D01*
X94950000Y-87900000D02*
X100350000Y-87900000D01*
X97150000Y-86650000D02*
X97150000Y-87650000D01*
X97250000Y-87150000D02*
X98150000Y-86650000D01*
X98150000Y-86650000D02*
X98150000Y-87650000D01*
X98150000Y-87650000D02*
X97250000Y-87150000D01*
X100350000Y-86400000D02*
X94950000Y-86400000D01*
X100350000Y-86400000D02*
X100350000Y-87900000D01*
%TO.C,D14*%
X152100000Y-48300000D02*
X152100000Y-49800000D01*
X152100000Y-49800000D02*
X157500000Y-49800000D01*
X154300000Y-48550000D02*
X154300000Y-49550000D01*
X154400000Y-49050000D02*
X155300000Y-48550000D01*
X155300000Y-48550000D02*
X155300000Y-49550000D01*
X155300000Y-49550000D02*
X154400000Y-49050000D01*
X157500000Y-48300000D02*
X152100000Y-48300000D01*
X157500000Y-48300000D02*
X157500000Y-49800000D01*
%TO.C,D11*%
X133050000Y-67350000D02*
X133050000Y-68850000D01*
X133050000Y-68850000D02*
X138450000Y-68850000D01*
X135250000Y-67600000D02*
X135250000Y-68600000D01*
X135350000Y-68100000D02*
X136250000Y-67600000D01*
X136250000Y-67600000D02*
X136250000Y-68600000D01*
X136250000Y-68600000D02*
X135350000Y-68100000D01*
X138450000Y-67350000D02*
X133050000Y-67350000D01*
X138450000Y-67350000D02*
X138450000Y-68850000D01*
%TO.C,D10*%
X133050000Y-48300000D02*
X133050000Y-49800000D01*
X133050000Y-49800000D02*
X138450000Y-49800000D01*
X135250000Y-48550000D02*
X135250000Y-49550000D01*
X135350000Y-49050000D02*
X136250000Y-48550000D01*
X136250000Y-48550000D02*
X136250000Y-49550000D01*
X136250000Y-49550000D02*
X135350000Y-49050000D01*
X138450000Y-48300000D02*
X133050000Y-48300000D01*
X138450000Y-48300000D02*
X138450000Y-49800000D01*
D13*
%TO.C,K25*%
X55418000Y-76343000D02*
X56018000Y-76343000D01*
X55718000Y-76643000D02*
X55418000Y-76343000D01*
X56018000Y-76343000D02*
X55718000Y-76643000D01*
X57118000Y-74543000D02*
X57118000Y-86343000D01*
X61218000Y-74543000D02*
X57118000Y-74543000D01*
X61218000Y-86343000D02*
X57118000Y-86343000D01*
X62718000Y-80443000D02*
X63718000Y-80443000D01*
X63218000Y-79943000D02*
X63218000Y-80943000D01*
X65218000Y-74543000D02*
X69318000Y-74543000D01*
X69318000Y-74543000D02*
X69318000Y-76943000D01*
X69318000Y-79143000D02*
X69318000Y-81743000D01*
X69318000Y-83943000D02*
X69318000Y-86343000D01*
X69318000Y-86343000D02*
X65218000Y-86343000D01*
X66218000Y-80443000D02*
G75*
G02*
X60218000Y-80443000I-3000000J0D01*
G01*
X60218000Y-80443000D02*
G75*
G02*
X66218000Y-80443000I3000000J0D01*
G01*
%TO.C,K13*%
X152384000Y-45934000D02*
X153321000Y-46871000D01*
X153321000Y-42079000D02*
X152300000Y-43100000D01*
X153321000Y-46871000D02*
X156068000Y-46871000D01*
X155800000Y-31625000D02*
X153800000Y-31625000D01*
X155968000Y-42079000D02*
X153321000Y-42079000D01*
X156068000Y-46871000D02*
X156471000Y-46791000D01*
X156300000Y-35825000D02*
X153300000Y-35825000D01*
X156471000Y-46791000D02*
X156813000Y-46562000D01*
X156530000Y-41974000D02*
X155968000Y-42079000D01*
X156813000Y-46562000D02*
X157346000Y-46029000D01*
X157009000Y-41675000D02*
X156530000Y-41974000D01*
X157346000Y-45807000D02*
X157433000Y-45369000D01*
X157346000Y-46029000D02*
X157346000Y-45807000D01*
X157347000Y-41222000D02*
X157009000Y-41675000D01*
X157433000Y-45369000D02*
X157677000Y-45002000D01*
X157501000Y-40664000D02*
X157347000Y-41222000D01*
X157583000Y-40366000D02*
X157501000Y-40664000D01*
X157677000Y-45002000D02*
X158044000Y-44758000D01*
X157776000Y-40108000D02*
X157583000Y-40366000D01*
X158044000Y-44758000D02*
X158482000Y-44671000D01*
X158050000Y-39938000D02*
X157776000Y-40108000D01*
X158360000Y-39879000D02*
X158050000Y-39938000D01*
X158482000Y-44671000D02*
X161282000Y-44671000D01*
X161282000Y-44671000D02*
X161609000Y-44606000D01*
X161609000Y-44606000D02*
X161892000Y-44417000D01*
X161892000Y-44417000D02*
X162081000Y-44134000D01*
X162081000Y-44134000D02*
X162166000Y-43707000D01*
X162083000Y-40821000D02*
X162446000Y-40821000D01*
X162446000Y-39879000D02*
X158360000Y-39879000D01*
X162446000Y-40821000D02*
X162446000Y-39879000D01*
X158900000Y-31625000D02*
G75*
G02*
X160900000Y-33625000I0J-2000000D01*
G01*
%TO.C,R1*%
X45190000Y-78523000D02*
X45190000Y-82363000D01*
X45190000Y-82363000D02*
X47030000Y-82363000D01*
D14*
X46110000Y-77773000D02*
X46110000Y-78723000D01*
X46110000Y-83113000D02*
X46110000Y-82163000D01*
D13*
X47030000Y-78523000D02*
X45190000Y-78523000D01*
X47030000Y-82363000D02*
X47030000Y-78523000D01*
D15*
X45190000Y-82363000D02*
X47030000Y-82363000D01*
X47030000Y-81403000D01*
X45190000Y-81403000D01*
X45190000Y-82363000D01*
G36*
X45190000Y-82363000D02*
G01*
X47030000Y-82363000D01*
X47030000Y-81403000D01*
X45190000Y-81403000D01*
X45190000Y-82363000D01*
G37*
X47030000Y-79483000D02*
X45190000Y-79483000D01*
X45190000Y-78523000D01*
X47030000Y-78523000D01*
X47030000Y-79483000D01*
G36*
X47030000Y-79483000D02*
G01*
X45190000Y-79483000D01*
X45190000Y-78523000D01*
X47030000Y-78523000D01*
X47030000Y-79483000D01*
G37*
X45376615Y-81407067D02*
X45185005Y-81407067D01*
X45185005Y-79487067D01*
X45386600Y-79479867D01*
X45376615Y-81407067D01*
G36*
X45376615Y-81407067D02*
G01*
X45185005Y-81407067D01*
X45185005Y-79487067D01*
X45386600Y-79479867D01*
X45376615Y-81407067D01*
G37*
X47030000Y-81403000D02*
X46750000Y-81413000D01*
X46760000Y-79483000D01*
X47030000Y-79483000D01*
X47030000Y-81403000D01*
G36*
X47030000Y-81403000D02*
G01*
X46750000Y-81413000D01*
X46760000Y-79483000D01*
X47030000Y-79483000D01*
X47030000Y-81403000D01*
G37*
D13*
%TO.C,J5*%
X48071375Y-69751148D02*
X49018898Y-70698671D01*
X49124964Y-68697558D02*
X48071375Y-69751148D01*
X49124964Y-68697558D02*
X48276436Y-67849030D01*
X50942228Y-72622001D02*
X52172594Y-73852367D01*
X51472558Y-66349964D02*
X52526148Y-65296375D01*
X52172594Y-73852367D02*
X56627367Y-69397594D01*
X52526148Y-65296375D02*
X53473671Y-66243898D01*
X56627367Y-69397594D02*
X55397001Y-68167228D01*
%TO.C,K12*%
X133334000Y-103084000D02*
X134271000Y-104021000D01*
X134271000Y-99229000D02*
X133250000Y-100250000D01*
X134271000Y-104021000D02*
X137018000Y-104021000D01*
X136750000Y-88775000D02*
X134750000Y-88775000D01*
X136918000Y-99229000D02*
X134271000Y-99229000D01*
X137018000Y-104021000D02*
X137421000Y-103941000D01*
X137250000Y-92975000D02*
X134250000Y-92975000D01*
X137421000Y-103941000D02*
X137763000Y-103712000D01*
X137480000Y-99124000D02*
X136918000Y-99229000D01*
X137763000Y-103712000D02*
X138296000Y-103179000D01*
X137959000Y-98825000D02*
X137480000Y-99124000D01*
X138296000Y-102957000D02*
X138383000Y-102519000D01*
X138296000Y-103179000D02*
X138296000Y-102957000D01*
X138297000Y-98372000D02*
X137959000Y-98825000D01*
X138383000Y-102519000D02*
X138627000Y-102152000D01*
X138451000Y-97814000D02*
X138297000Y-98372000D01*
X138533000Y-97516000D02*
X138451000Y-97814000D01*
X138627000Y-102152000D02*
X138994000Y-101908000D01*
X138726000Y-97258000D02*
X138533000Y-97516000D01*
X138994000Y-101908000D02*
X139432000Y-101821000D01*
X139000000Y-97088000D02*
X138726000Y-97258000D01*
X139310000Y-97029000D02*
X139000000Y-97088000D01*
X139432000Y-101821000D02*
X142232000Y-101821000D01*
X142232000Y-101821000D02*
X142559000Y-101756000D01*
X142559000Y-101756000D02*
X142842000Y-101567000D01*
X142842000Y-101567000D02*
X143031000Y-101284000D01*
X143031000Y-101284000D02*
X143116000Y-100857000D01*
X143033000Y-97971000D02*
X143396000Y-97971000D01*
X143396000Y-97029000D02*
X139310000Y-97029000D01*
X143396000Y-97971000D02*
X143396000Y-97029000D01*
X139850000Y-88775000D02*
G75*
G02*
X141850000Y-90775000I0J-2000000D01*
G01*
%TO.C,JP13*%
X68916000Y-32801000D02*
X68916000Y-32201000D01*
X69616000Y-31501000D02*
X71016000Y-31501000D01*
X71016000Y-33501000D02*
X69616000Y-33501000D01*
X71716000Y-32201000D02*
X71716000Y-32801000D01*
X68916000Y-32201000D02*
G75*
G02*
X69616000Y-31501000I699999J1D01*
G01*
X69616000Y-33501000D02*
G75*
G02*
X68916000Y-32801000I-1J699999D01*
G01*
X71016000Y-31501000D02*
G75*
G02*
X71716000Y-32201000I0J-700000D01*
G01*
X71716000Y-32801000D02*
G75*
G02*
X71016000Y-33501000I-700000J0D01*
G01*
%TO.C,F2*%
X83350000Y-40538578D02*
X83350000Y-40021422D01*
X84770000Y-40538578D02*
X84770000Y-40021422D01*
D10*
%TO.C,D16*%
X152100000Y-86400000D02*
X152100000Y-87900000D01*
X152100000Y-87900000D02*
X157500000Y-87900000D01*
X154300000Y-86650000D02*
X154300000Y-87650000D01*
X154400000Y-87150000D02*
X155300000Y-86650000D01*
X155300000Y-86650000D02*
X155300000Y-87650000D01*
X155300000Y-87650000D02*
X154400000Y-87150000D01*
X157500000Y-86400000D02*
X152100000Y-86400000D01*
X157500000Y-86400000D02*
X157500000Y-87900000D01*
%TO.C,D17*%
X171150000Y-29250000D02*
X171150000Y-30750000D01*
X171150000Y-30750000D02*
X176550000Y-30750000D01*
X173350000Y-29500000D02*
X173350000Y-30500000D01*
X173450000Y-30000000D02*
X174350000Y-29500000D01*
X174350000Y-29500000D02*
X174350000Y-30500000D01*
X174350000Y-30500000D02*
X173450000Y-30000000D01*
X176550000Y-29250000D02*
X171150000Y-29250000D01*
X176550000Y-29250000D02*
X176550000Y-30750000D01*
D13*
%TO.C,JP7*%
X60947500Y-67493000D02*
X60947500Y-66093000D01*
X61647500Y-65393000D02*
X62247500Y-65393000D01*
X62247500Y-68193000D02*
X61647500Y-68193000D01*
X62947500Y-66093000D02*
X62947500Y-67493000D01*
X60947500Y-66093000D02*
G75*
G02*
X61647500Y-65393000I700000J0D01*
G01*
X61647500Y-68193000D02*
G75*
G02*
X60947500Y-67493000I-1J699999D01*
G01*
X62247500Y-65393000D02*
G75*
G02*
X62947500Y-66093000I0J-700000D01*
G01*
X62947500Y-67493000D02*
G75*
G02*
X62247500Y-68193000I-699999J-1D01*
G01*
%TO.C,JP1*%
X76814000Y-44803000D02*
X79614000Y-44803000D01*
X76814000Y-46803000D02*
X76814000Y-44803000D01*
X79614000Y-44803000D02*
X79614000Y-46803000D01*
X79614000Y-46803000D02*
X76814000Y-46803000D01*
%TO.C,SW2*%
X40814000Y-63750000D02*
X43114000Y-63750000D01*
X43114000Y-63750000D02*
X43114000Y-64950000D01*
X43114000Y-67450000D02*
X43114000Y-66750000D01*
X43114000Y-69950000D02*
X43114000Y-69250000D01*
X43114000Y-71750000D02*
X43114000Y-72950000D01*
X43114000Y-72950000D02*
X40814000Y-72950000D01*
D16*
X44201500Y-64350000D02*
G75*
G02*
X43726500Y-64350000I-237500J0D01*
G01*
X43726500Y-64350000D02*
G75*
G02*
X44201500Y-64350000I237500J0D01*
G01*
D10*
X44364000Y-72350000D02*
G75*
G02*
X43564000Y-72350000I-400000J0D01*
G01*
X43564000Y-72350000D02*
G75*
G02*
X44364000Y-72350000I400000J0D01*
G01*
D13*
%TO.C,JP2*%
X76814000Y-42263000D02*
X79614000Y-42263000D01*
X76814000Y-44263000D02*
X76814000Y-42263000D01*
X79614000Y-42263000D02*
X79614000Y-44263000D01*
X79614000Y-44263000D02*
X76814000Y-44263000D01*
D10*
%TO.C,SW1*%
X49171000Y-29223000D02*
X49171000Y-29473000D01*
X49171000Y-29223000D02*
X54871000Y-29223000D01*
X49171000Y-32423000D02*
X49171000Y-32173000D01*
X49171000Y-32423000D02*
X54871000Y-32423000D01*
X54871000Y-29223000D02*
X54871000Y-29473000D01*
X54871000Y-32423000D02*
X54871000Y-32173000D01*
D13*
%TO.C,K14*%
X152384000Y-64984000D02*
X153321000Y-65921000D01*
X153321000Y-61129000D02*
X152300000Y-62150000D01*
X153321000Y-65921000D02*
X156068000Y-65921000D01*
X155800000Y-50675000D02*
X153800000Y-50675000D01*
X155968000Y-61129000D02*
X153321000Y-61129000D01*
X156068000Y-65921000D02*
X156471000Y-65841000D01*
X156300000Y-54875000D02*
X153300000Y-54875000D01*
X156471000Y-65841000D02*
X156813000Y-65612000D01*
X156530000Y-61024000D02*
X155968000Y-61129000D01*
X156813000Y-65612000D02*
X157346000Y-65079000D01*
X157009000Y-60725000D02*
X156530000Y-61024000D01*
X157346000Y-64857000D02*
X157433000Y-64419000D01*
X157346000Y-65079000D02*
X157346000Y-64857000D01*
X157347000Y-60272000D02*
X157009000Y-60725000D01*
X157433000Y-64419000D02*
X157677000Y-64052000D01*
X157501000Y-59714000D02*
X157347000Y-60272000D01*
X157583000Y-59416000D02*
X157501000Y-59714000D01*
X157677000Y-64052000D02*
X158044000Y-63808000D01*
X157776000Y-59158000D02*
X157583000Y-59416000D01*
X158044000Y-63808000D02*
X158482000Y-63721000D01*
X158050000Y-58988000D02*
X157776000Y-59158000D01*
X158360000Y-58929000D02*
X158050000Y-58988000D01*
X158482000Y-63721000D02*
X161282000Y-63721000D01*
X161282000Y-63721000D02*
X161609000Y-63656000D01*
X161609000Y-63656000D02*
X161892000Y-63467000D01*
X161892000Y-63467000D02*
X162081000Y-63184000D01*
X162081000Y-63184000D02*
X162166000Y-62757000D01*
X162083000Y-59871000D02*
X162446000Y-59871000D01*
X162446000Y-58929000D02*
X158360000Y-58929000D01*
X162446000Y-59871000D02*
X162446000Y-58929000D01*
X158900000Y-50675000D02*
G75*
G02*
X160900000Y-52675000I0J-2000000D01*
G01*
D10*
%TO.C,D3*%
X94950000Y-67350000D02*
X94950000Y-68850000D01*
X94950000Y-68850000D02*
X100350000Y-68850000D01*
X97150000Y-67600000D02*
X97150000Y-68600000D01*
X97250000Y-68100000D02*
X98150000Y-67600000D01*
X98150000Y-67600000D02*
X98150000Y-68600000D01*
X98150000Y-68600000D02*
X97250000Y-68100000D01*
X100350000Y-67350000D02*
X94950000Y-67350000D01*
X100350000Y-67350000D02*
X100350000Y-68850000D01*
D13*
%TO.C,K5*%
X114284000Y-45934000D02*
X115221000Y-46871000D01*
X115221000Y-42079000D02*
X114200000Y-43100000D01*
X115221000Y-46871000D02*
X117968000Y-46871000D01*
X117700000Y-31625000D02*
X115700000Y-31625000D01*
X117868000Y-42079000D02*
X115221000Y-42079000D01*
X117968000Y-46871000D02*
X118371000Y-46791000D01*
X118200000Y-35825000D02*
X115200000Y-35825000D01*
X118371000Y-46791000D02*
X118713000Y-46562000D01*
X118430000Y-41974000D02*
X117868000Y-42079000D01*
X118713000Y-46562000D02*
X119246000Y-46029000D01*
X118909000Y-41675000D02*
X118430000Y-41974000D01*
X119246000Y-45807000D02*
X119333000Y-45369000D01*
X119246000Y-46029000D02*
X119246000Y-45807000D01*
X119247000Y-41222000D02*
X118909000Y-41675000D01*
X119333000Y-45369000D02*
X119577000Y-45002000D01*
X119401000Y-40664000D02*
X119247000Y-41222000D01*
X119483000Y-40366000D02*
X119401000Y-40664000D01*
X119577000Y-45002000D02*
X119944000Y-44758000D01*
X119676000Y-40108000D02*
X119483000Y-40366000D01*
X119944000Y-44758000D02*
X120382000Y-44671000D01*
X119950000Y-39938000D02*
X119676000Y-40108000D01*
X120260000Y-39879000D02*
X119950000Y-39938000D01*
X120382000Y-44671000D02*
X123182000Y-44671000D01*
X123182000Y-44671000D02*
X123509000Y-44606000D01*
X123509000Y-44606000D02*
X123792000Y-44417000D01*
X123792000Y-44417000D02*
X123981000Y-44134000D01*
X123981000Y-44134000D02*
X124066000Y-43707000D01*
X123983000Y-40821000D02*
X124346000Y-40821000D01*
X124346000Y-39879000D02*
X120260000Y-39879000D01*
X124346000Y-40821000D02*
X124346000Y-39879000D01*
X120800000Y-31625000D02*
G75*
G02*
X122800000Y-33625000I0J-2000000D01*
G01*
%TO.C,K11*%
X133334000Y-84034000D02*
X134271000Y-84971000D01*
X134271000Y-80179000D02*
X133250000Y-81200000D01*
X134271000Y-84971000D02*
X137018000Y-84971000D01*
X136750000Y-69725000D02*
X134750000Y-69725000D01*
X136918000Y-80179000D02*
X134271000Y-80179000D01*
X137018000Y-84971000D02*
X137421000Y-84891000D01*
X137250000Y-73925000D02*
X134250000Y-73925000D01*
X137421000Y-84891000D02*
X137763000Y-84662000D01*
X137480000Y-80074000D02*
X136918000Y-80179000D01*
X137763000Y-84662000D02*
X138296000Y-84129000D01*
X137959000Y-79775000D02*
X137480000Y-80074000D01*
X138296000Y-83907000D02*
X138383000Y-83469000D01*
X138296000Y-84129000D02*
X138296000Y-83907000D01*
X138297000Y-79322000D02*
X137959000Y-79775000D01*
X138383000Y-83469000D02*
X138627000Y-83102000D01*
X138451000Y-78764000D02*
X138297000Y-79322000D01*
X138533000Y-78466000D02*
X138451000Y-78764000D01*
X138627000Y-83102000D02*
X138994000Y-82858000D01*
X138726000Y-78208000D02*
X138533000Y-78466000D01*
X138994000Y-82858000D02*
X139432000Y-82771000D01*
X139000000Y-78038000D02*
X138726000Y-78208000D01*
X139310000Y-77979000D02*
X139000000Y-78038000D01*
X139432000Y-82771000D02*
X142232000Y-82771000D01*
X142232000Y-82771000D02*
X142559000Y-82706000D01*
X142559000Y-82706000D02*
X142842000Y-82517000D01*
X142842000Y-82517000D02*
X143031000Y-82234000D01*
X143031000Y-82234000D02*
X143116000Y-81807000D01*
X143033000Y-78921000D02*
X143396000Y-78921000D01*
X143396000Y-77979000D02*
X139310000Y-77979000D01*
X143396000Y-78921000D02*
X143396000Y-77979000D01*
X139850000Y-69725000D02*
G75*
G02*
X141850000Y-71725000I0J-2000000D01*
G01*
D10*
%TO.C,D15*%
X152100000Y-67350000D02*
X152100000Y-68850000D01*
X152100000Y-68850000D02*
X157500000Y-68850000D01*
X154300000Y-67600000D02*
X154300000Y-68600000D01*
X154400000Y-68100000D02*
X155300000Y-67600000D01*
X155300000Y-67600000D02*
X155300000Y-68600000D01*
X155300000Y-68600000D02*
X154400000Y-68100000D01*
X157500000Y-67350000D02*
X152100000Y-67350000D01*
X157500000Y-67350000D02*
X157500000Y-68850000D01*
D13*
%TO.C,K20*%
X171434000Y-103084000D02*
X172371000Y-104021000D01*
X172371000Y-99229000D02*
X171350000Y-100250000D01*
X172371000Y-104021000D02*
X175118000Y-104021000D01*
X174850000Y-88775000D02*
X172850000Y-88775000D01*
X175018000Y-99229000D02*
X172371000Y-99229000D01*
X175118000Y-104021000D02*
X175521000Y-103941000D01*
X175350000Y-92975000D02*
X172350000Y-92975000D01*
X175521000Y-103941000D02*
X175863000Y-103712000D01*
X175580000Y-99124000D02*
X175018000Y-99229000D01*
X175863000Y-103712000D02*
X176396000Y-103179000D01*
X176059000Y-98825000D02*
X175580000Y-99124000D01*
X176396000Y-102957000D02*
X176483000Y-102519000D01*
X176396000Y-103179000D02*
X176396000Y-102957000D01*
X176397000Y-98372000D02*
X176059000Y-98825000D01*
X176483000Y-102519000D02*
X176727000Y-102152000D01*
X176551000Y-97814000D02*
X176397000Y-98372000D01*
X176633000Y-97516000D02*
X176551000Y-97814000D01*
X176727000Y-102152000D02*
X177094000Y-101908000D01*
X176826000Y-97258000D02*
X176633000Y-97516000D01*
X177094000Y-101908000D02*
X177532000Y-101821000D01*
X177100000Y-97088000D02*
X176826000Y-97258000D01*
X177410000Y-97029000D02*
X177100000Y-97088000D01*
X177532000Y-101821000D02*
X180332000Y-101821000D01*
X180332000Y-101821000D02*
X180659000Y-101756000D01*
X180659000Y-101756000D02*
X180942000Y-101567000D01*
X180942000Y-101567000D02*
X181131000Y-101284000D01*
X181131000Y-101284000D02*
X181216000Y-100857000D01*
X181133000Y-97971000D02*
X181496000Y-97971000D01*
X181496000Y-97029000D02*
X177410000Y-97029000D01*
X181496000Y-97971000D02*
X181496000Y-97029000D01*
X177950000Y-88775000D02*
G75*
G02*
X179950000Y-90775000I0J-2000000D01*
G01*
%TO.C,K15*%
X152384000Y-84034000D02*
X153321000Y-84971000D01*
X153321000Y-80179000D02*
X152300000Y-81200000D01*
X153321000Y-84971000D02*
X156068000Y-84971000D01*
X155800000Y-69725000D02*
X153800000Y-69725000D01*
X155968000Y-80179000D02*
X153321000Y-80179000D01*
X156068000Y-84971000D02*
X156471000Y-84891000D01*
X156300000Y-73925000D02*
X153300000Y-73925000D01*
X156471000Y-84891000D02*
X156813000Y-84662000D01*
X156530000Y-80074000D02*
X155968000Y-80179000D01*
X156813000Y-84662000D02*
X157346000Y-84129000D01*
X157009000Y-79775000D02*
X156530000Y-80074000D01*
X157346000Y-83907000D02*
X157433000Y-83469000D01*
X157346000Y-84129000D02*
X157346000Y-83907000D01*
X157347000Y-79322000D02*
X157009000Y-79775000D01*
X157433000Y-83469000D02*
X157677000Y-83102000D01*
X157501000Y-78764000D02*
X157347000Y-79322000D01*
X157583000Y-78466000D02*
X157501000Y-78764000D01*
X157677000Y-83102000D02*
X158044000Y-82858000D01*
X157776000Y-78208000D02*
X157583000Y-78466000D01*
X158044000Y-82858000D02*
X158482000Y-82771000D01*
X158050000Y-78038000D02*
X157776000Y-78208000D01*
X158360000Y-77979000D02*
X158050000Y-78038000D01*
X158482000Y-82771000D02*
X161282000Y-82771000D01*
X161282000Y-82771000D02*
X161609000Y-82706000D01*
X161609000Y-82706000D02*
X161892000Y-82517000D01*
X161892000Y-82517000D02*
X162081000Y-82234000D01*
X162081000Y-82234000D02*
X162166000Y-81807000D01*
X162083000Y-78921000D02*
X162446000Y-78921000D01*
X162446000Y-77979000D02*
X158360000Y-77979000D01*
X162446000Y-78921000D02*
X162446000Y-77979000D01*
X158900000Y-69725000D02*
G75*
G02*
X160900000Y-71725000I0J-2000000D01*
G01*
D10*
%TO.C,D8*%
X114000000Y-86400000D02*
X114000000Y-87900000D01*
X114000000Y-87900000D02*
X119400000Y-87900000D01*
X116200000Y-86650000D02*
X116200000Y-87650000D01*
X116300000Y-87150000D02*
X117200000Y-86650000D01*
X117200000Y-86650000D02*
X117200000Y-87650000D01*
X117200000Y-87650000D02*
X116300000Y-87150000D01*
X119400000Y-86400000D02*
X114000000Y-86400000D01*
X119400000Y-86400000D02*
X119400000Y-87900000D01*
D13*
%TO.C,K10*%
X133334000Y-64984000D02*
X134271000Y-65921000D01*
X134271000Y-61129000D02*
X133250000Y-62150000D01*
X134271000Y-65921000D02*
X137018000Y-65921000D01*
X136750000Y-50675000D02*
X134750000Y-50675000D01*
X136918000Y-61129000D02*
X134271000Y-61129000D01*
X137018000Y-65921000D02*
X137421000Y-65841000D01*
X137250000Y-54875000D02*
X134250000Y-54875000D01*
X137421000Y-65841000D02*
X137763000Y-65612000D01*
X137480000Y-61024000D02*
X136918000Y-61129000D01*
X137763000Y-65612000D02*
X138296000Y-65079000D01*
X137959000Y-60725000D02*
X137480000Y-61024000D01*
X138296000Y-64857000D02*
X138383000Y-64419000D01*
X138296000Y-65079000D02*
X138296000Y-64857000D01*
X138297000Y-60272000D02*
X137959000Y-60725000D01*
X138383000Y-64419000D02*
X138627000Y-64052000D01*
X138451000Y-59714000D02*
X138297000Y-60272000D01*
X138533000Y-59416000D02*
X138451000Y-59714000D01*
X138627000Y-64052000D02*
X138994000Y-63808000D01*
X138726000Y-59158000D02*
X138533000Y-59416000D01*
X138994000Y-63808000D02*
X139432000Y-63721000D01*
X139000000Y-58988000D02*
X138726000Y-59158000D01*
X139310000Y-58929000D02*
X139000000Y-58988000D01*
X139432000Y-63721000D02*
X142232000Y-63721000D01*
X142232000Y-63721000D02*
X142559000Y-63656000D01*
X142559000Y-63656000D02*
X142842000Y-63467000D01*
X142842000Y-63467000D02*
X143031000Y-63184000D01*
X143031000Y-63184000D02*
X143116000Y-62757000D01*
X143033000Y-59871000D02*
X143396000Y-59871000D01*
X143396000Y-58929000D02*
X139310000Y-58929000D01*
X143396000Y-59871000D02*
X143396000Y-58929000D01*
X139850000Y-50675000D02*
G75*
G02*
X141850000Y-52675000I0J-2000000D01*
G01*
D10*
%TO.C,D9*%
X133050000Y-29250000D02*
X133050000Y-30750000D01*
X133050000Y-30750000D02*
X138450000Y-30750000D01*
X135250000Y-29500000D02*
X135250000Y-30500000D01*
X135350000Y-30000000D02*
X136250000Y-29500000D01*
X136250000Y-29500000D02*
X136250000Y-30500000D01*
X136250000Y-30500000D02*
X135350000Y-30000000D01*
X138450000Y-29250000D02*
X133050000Y-29250000D01*
X138450000Y-29250000D02*
X138450000Y-30750000D01*
D13*
%TO.C,J4*%
X73271000Y-49176000D02*
X73271000Y-50096000D01*
X73271000Y-50096000D02*
X74871000Y-50096000D01*
X73271000Y-54376000D02*
X73271000Y-55296000D01*
X73271000Y-55296000D02*
X81091000Y-55296000D01*
X74871000Y-49176000D02*
X74871000Y-50096000D01*
X74871000Y-50096000D02*
X74871000Y-50376000D01*
X74871000Y-54096000D02*
X73656000Y-54096000D01*
X74871000Y-54096000D02*
X74871000Y-54376000D01*
X74871000Y-54376000D02*
X73271000Y-54376000D01*
X74871000Y-55296000D02*
X74871000Y-54376000D01*
X76731000Y-51736000D02*
X81091000Y-51736000D01*
X76731000Y-52736000D02*
X76731000Y-51736000D01*
X77231000Y-49936000D02*
X78831000Y-49936000D01*
X77231000Y-50936000D02*
X77231000Y-49936000D01*
X77231000Y-53536000D02*
X77231000Y-54536000D01*
X77231000Y-54536000D02*
X78831000Y-54536000D01*
X78831000Y-49936000D02*
X78831000Y-50936000D01*
X78831000Y-50936000D02*
X77231000Y-50936000D01*
X78831000Y-53536000D02*
X77231000Y-53536000D01*
X78831000Y-53536000D02*
X81091000Y-53536000D01*
X78831000Y-54036000D02*
X81091000Y-54036000D01*
X78831000Y-54536000D02*
X78831000Y-53536000D01*
X81091000Y-49176000D02*
X73271000Y-49176000D01*
X81091000Y-52736000D02*
X76731000Y-52736000D01*
X81091000Y-55296000D02*
X81091000Y-49176000D01*
D10*
%TO.C,D24*%
X190200000Y-86400000D02*
X190200000Y-87900000D01*
X190200000Y-87900000D02*
X195600000Y-87900000D01*
X192400000Y-86650000D02*
X192400000Y-87650000D01*
X192500000Y-87150000D02*
X193400000Y-86650000D01*
X193400000Y-86650000D02*
X193400000Y-87650000D01*
X193400000Y-87650000D02*
X192500000Y-87150000D01*
X195600000Y-86400000D02*
X190200000Y-86400000D01*
X195600000Y-86400000D02*
X195600000Y-87900000D01*
D13*
%TO.C,K6*%
X114284000Y-64984000D02*
X115221000Y-65921000D01*
X115221000Y-61129000D02*
X114200000Y-62150000D01*
X115221000Y-65921000D02*
X117968000Y-65921000D01*
X117700000Y-50675000D02*
X115700000Y-50675000D01*
X117868000Y-61129000D02*
X115221000Y-61129000D01*
X117968000Y-65921000D02*
X118371000Y-65841000D01*
X118200000Y-54875000D02*
X115200000Y-54875000D01*
X118371000Y-65841000D02*
X118713000Y-65612000D01*
X118430000Y-61024000D02*
X117868000Y-61129000D01*
X118713000Y-65612000D02*
X119246000Y-65079000D01*
X118909000Y-60725000D02*
X118430000Y-61024000D01*
X119246000Y-64857000D02*
X119333000Y-64419000D01*
X119246000Y-65079000D02*
X119246000Y-64857000D01*
X119247000Y-60272000D02*
X118909000Y-60725000D01*
X119333000Y-64419000D02*
X119577000Y-64052000D01*
X119401000Y-59714000D02*
X119247000Y-60272000D01*
X119483000Y-59416000D02*
X119401000Y-59714000D01*
X119577000Y-64052000D02*
X119944000Y-63808000D01*
X119676000Y-59158000D02*
X119483000Y-59416000D01*
X119944000Y-63808000D02*
X120382000Y-63721000D01*
X119950000Y-58988000D02*
X119676000Y-59158000D01*
X120260000Y-58929000D02*
X119950000Y-58988000D01*
X120382000Y-63721000D02*
X123182000Y-63721000D01*
X123182000Y-63721000D02*
X123509000Y-63656000D01*
X123509000Y-63656000D02*
X123792000Y-63467000D01*
X123792000Y-63467000D02*
X123981000Y-63184000D01*
X123981000Y-63184000D02*
X124066000Y-62757000D01*
X123983000Y-59871000D02*
X124346000Y-59871000D01*
X124346000Y-58929000D02*
X120260000Y-58929000D01*
X124346000Y-59871000D02*
X124346000Y-58929000D01*
X120800000Y-50675000D02*
G75*
G02*
X122800000Y-52675000I0J-2000000D01*
G01*
%TO.C,J2*%
X58571000Y-91252000D02*
X58571000Y-92592000D01*
X58571000Y-95312000D02*
X58571000Y-97052000D01*
X58571000Y-97052000D02*
X67871000Y-97052000D01*
X60061000Y-91252000D02*
X58571000Y-91252000D01*
X60061000Y-91252000D02*
X60061000Y-90052000D01*
X66381000Y-91252000D02*
X67871000Y-91252000D01*
X67871000Y-91252000D02*
X67871000Y-92592000D01*
X67871000Y-97052000D02*
X67871000Y-95312000D01*
%TO.C,R2*%
X47730000Y-78523000D02*
X47730000Y-82363000D01*
X47730000Y-82363000D02*
X49570000Y-82363000D01*
X47840000Y-78523000D02*
X47840000Y-82363000D01*
D14*
X48650000Y-77773000D02*
X48650000Y-78723000D01*
X48650000Y-83113000D02*
X48650000Y-82163000D01*
D13*
X49360000Y-78613000D02*
X49360000Y-82353000D01*
X49470000Y-78533000D02*
X49470000Y-82343000D01*
X49570000Y-78523000D02*
X47730000Y-78523000D01*
X49570000Y-82363000D02*
X49570000Y-78523000D01*
D15*
X49350000Y-79493000D02*
X47840000Y-79493000D01*
X47840000Y-78523000D01*
X49360000Y-78523000D01*
X49350000Y-79493000D01*
G36*
X49350000Y-79493000D02*
G01*
X47840000Y-79493000D01*
X47840000Y-78523000D01*
X49360000Y-78523000D01*
X49350000Y-79493000D01*
G37*
X49360000Y-82363000D02*
X47840000Y-82363000D01*
X47840000Y-81363000D01*
X49360000Y-81363000D01*
X49360000Y-82363000D01*
G36*
X49360000Y-82363000D02*
G01*
X47840000Y-82363000D01*
X47840000Y-81363000D01*
X49360000Y-81363000D01*
X49360000Y-82363000D01*
G37*
D10*
%TO.C,D21*%
X190200000Y-29250000D02*
X190200000Y-30750000D01*
X190200000Y-30750000D02*
X195600000Y-30750000D01*
X192400000Y-29500000D02*
X192400000Y-30500000D01*
X192500000Y-30000000D02*
X193400000Y-29500000D01*
X193400000Y-29500000D02*
X193400000Y-30500000D01*
X193400000Y-30500000D02*
X192500000Y-30000000D01*
X195600000Y-29250000D02*
X190200000Y-29250000D01*
X195600000Y-29250000D02*
X195600000Y-30750000D01*
%TO.C,D5*%
X114000000Y-29250000D02*
X114000000Y-30750000D01*
X114000000Y-30750000D02*
X119400000Y-30750000D01*
X116200000Y-29500000D02*
X116200000Y-30500000D01*
X116300000Y-30000000D02*
X117200000Y-29500000D01*
X117200000Y-29500000D02*
X117200000Y-30500000D01*
X117200000Y-30500000D02*
X116300000Y-30000000D01*
X119400000Y-29250000D02*
X114000000Y-29250000D01*
X119400000Y-29250000D02*
X119400000Y-30750000D01*
D13*
%TO.C,K2*%
X95234000Y-64984000D02*
X96171000Y-65921000D01*
X96171000Y-61129000D02*
X95150000Y-62150000D01*
X96171000Y-65921000D02*
X98918000Y-65921000D01*
X98650000Y-50675000D02*
X96650000Y-50675000D01*
X98818000Y-61129000D02*
X96171000Y-61129000D01*
X98918000Y-65921000D02*
X99321000Y-65841000D01*
X99150000Y-54875000D02*
X96150000Y-54875000D01*
X99321000Y-65841000D02*
X99663000Y-65612000D01*
X99380000Y-61024000D02*
X98818000Y-61129000D01*
X99663000Y-65612000D02*
X100196000Y-65079000D01*
X99859000Y-60725000D02*
X99380000Y-61024000D01*
X100196000Y-64857000D02*
X100283000Y-64419000D01*
X100196000Y-65079000D02*
X100196000Y-64857000D01*
X100197000Y-60272000D02*
X99859000Y-60725000D01*
X100283000Y-64419000D02*
X100527000Y-64052000D01*
X100351000Y-59714000D02*
X100197000Y-60272000D01*
X100433000Y-59416000D02*
X100351000Y-59714000D01*
X100527000Y-64052000D02*
X100894000Y-63808000D01*
X100626000Y-59158000D02*
X100433000Y-59416000D01*
X100894000Y-63808000D02*
X101332000Y-63721000D01*
X100900000Y-58988000D02*
X100626000Y-59158000D01*
X101210000Y-58929000D02*
X100900000Y-58988000D01*
X101332000Y-63721000D02*
X104132000Y-63721000D01*
X104132000Y-63721000D02*
X104459000Y-63656000D01*
X104459000Y-63656000D02*
X104742000Y-63467000D01*
X104742000Y-63467000D02*
X104931000Y-63184000D01*
X104931000Y-63184000D02*
X105016000Y-62757000D01*
X104933000Y-59871000D02*
X105296000Y-59871000D01*
X105296000Y-58929000D02*
X101210000Y-58929000D01*
X105296000Y-59871000D02*
X105296000Y-58929000D01*
X101750000Y-50675000D02*
G75*
G02*
X103750000Y-52675000I0J-2000000D01*
G01*
%TO.C,SW3*%
X71252000Y-100547000D02*
X72452000Y-100547000D01*
X71252000Y-102847000D02*
X71252000Y-100547000D01*
X74952000Y-100547000D02*
X74252000Y-100547000D01*
X77452000Y-100547000D02*
X76752000Y-100547000D01*
X79252000Y-100547000D02*
X80452000Y-100547000D01*
X80452000Y-100547000D02*
X80452000Y-102847000D01*
D16*
X72089500Y-99697000D02*
G75*
G02*
X71614500Y-99697000I-237500J0D01*
G01*
X71614500Y-99697000D02*
G75*
G02*
X72089500Y-99697000I237500J0D01*
G01*
D10*
X80252000Y-99697000D02*
G75*
G02*
X79452000Y-99697000I-400000J0D01*
G01*
X79452000Y-99697000D02*
G75*
G02*
X80252000Y-99697000I400000J0D01*
G01*
%TO.C,D23*%
X190200000Y-67350000D02*
X190200000Y-68850000D01*
X190200000Y-68850000D02*
X195600000Y-68850000D01*
X192400000Y-67600000D02*
X192400000Y-68600000D01*
X192500000Y-68100000D02*
X193400000Y-67600000D01*
X193400000Y-67600000D02*
X193400000Y-68600000D01*
X193400000Y-68600000D02*
X192500000Y-68100000D01*
X195600000Y-67350000D02*
X190200000Y-67350000D01*
X195600000Y-67350000D02*
X195600000Y-68850000D01*
D13*
%TO.C,K24*%
X190484000Y-103084000D02*
X191421000Y-104021000D01*
X191421000Y-99229000D02*
X190400000Y-100250000D01*
X191421000Y-104021000D02*
X194168000Y-104021000D01*
X193900000Y-88775000D02*
X191900000Y-88775000D01*
X194068000Y-99229000D02*
X191421000Y-99229000D01*
X194168000Y-104021000D02*
X194571000Y-103941000D01*
X194400000Y-92975000D02*
X191400000Y-92975000D01*
X194571000Y-103941000D02*
X194913000Y-103712000D01*
X194630000Y-99124000D02*
X194068000Y-99229000D01*
X194913000Y-103712000D02*
X195446000Y-103179000D01*
X195109000Y-98825000D02*
X194630000Y-99124000D01*
X195446000Y-102957000D02*
X195533000Y-102519000D01*
X195446000Y-103179000D02*
X195446000Y-102957000D01*
X195447000Y-98372000D02*
X195109000Y-98825000D01*
X195533000Y-102519000D02*
X195777000Y-102152000D01*
X195601000Y-97814000D02*
X195447000Y-98372000D01*
X195683000Y-97516000D02*
X195601000Y-97814000D01*
X195777000Y-102152000D02*
X196144000Y-101908000D01*
X195876000Y-97258000D02*
X195683000Y-97516000D01*
X196144000Y-101908000D02*
X196582000Y-101821000D01*
X196150000Y-97088000D02*
X195876000Y-97258000D01*
X196460000Y-97029000D02*
X196150000Y-97088000D01*
X196582000Y-101821000D02*
X199382000Y-101821000D01*
X199382000Y-101821000D02*
X199709000Y-101756000D01*
X199709000Y-101756000D02*
X199992000Y-101567000D01*
X199992000Y-101567000D02*
X200181000Y-101284000D01*
X200181000Y-101284000D02*
X200266000Y-100857000D01*
X200183000Y-97971000D02*
X200546000Y-97971000D01*
X200546000Y-97029000D02*
X196460000Y-97029000D01*
X200546000Y-97971000D02*
X200546000Y-97029000D01*
X197000000Y-88775000D02*
G75*
G02*
X199000000Y-90775000I0J-2000000D01*
G01*
%TO.C,K8*%
X114284000Y-103084000D02*
X115221000Y-104021000D01*
X115221000Y-99229000D02*
X114200000Y-100250000D01*
X115221000Y-104021000D02*
X117968000Y-104021000D01*
X117700000Y-88775000D02*
X115700000Y-88775000D01*
X117868000Y-99229000D02*
X115221000Y-99229000D01*
X117968000Y-104021000D02*
X118371000Y-103941000D01*
X118200000Y-92975000D02*
X115200000Y-92975000D01*
X118371000Y-103941000D02*
X118713000Y-103712000D01*
X118430000Y-99124000D02*
X117868000Y-99229000D01*
X118713000Y-103712000D02*
X119246000Y-103179000D01*
X118909000Y-98825000D02*
X118430000Y-99124000D01*
X119246000Y-102957000D02*
X119333000Y-102519000D01*
X119246000Y-103179000D02*
X119246000Y-102957000D01*
X119247000Y-98372000D02*
X118909000Y-98825000D01*
X119333000Y-102519000D02*
X119577000Y-102152000D01*
X119401000Y-97814000D02*
X119247000Y-98372000D01*
X119483000Y-97516000D02*
X119401000Y-97814000D01*
X119577000Y-102152000D02*
X119944000Y-101908000D01*
X119676000Y-97258000D02*
X119483000Y-97516000D01*
X119944000Y-101908000D02*
X120382000Y-101821000D01*
X119950000Y-97088000D02*
X119676000Y-97258000D01*
X120260000Y-97029000D02*
X119950000Y-97088000D01*
X120382000Y-101821000D02*
X123182000Y-101821000D01*
X123182000Y-101821000D02*
X123509000Y-101756000D01*
X123509000Y-101756000D02*
X123792000Y-101567000D01*
X123792000Y-101567000D02*
X123981000Y-101284000D01*
X123981000Y-101284000D02*
X124066000Y-100857000D01*
X123983000Y-97971000D02*
X124346000Y-97971000D01*
X124346000Y-97029000D02*
X120260000Y-97029000D01*
X124346000Y-97971000D02*
X124346000Y-97029000D01*
X120800000Y-88775000D02*
G75*
G02*
X122800000Y-90775000I0J-2000000D01*
G01*
%TO.C,JP6*%
X63487500Y-67493000D02*
X63487500Y-66093000D01*
X64187500Y-65393000D02*
X64787500Y-65393000D01*
X64787500Y-68193000D02*
X64187500Y-68193000D01*
X65487500Y-66093000D02*
X65487500Y-67493000D01*
X63487500Y-66093000D02*
G75*
G02*
X64187500Y-65393000I700000J0D01*
G01*
X64187500Y-68193000D02*
G75*
G02*
X63487500Y-67493000I-1J699999D01*
G01*
X64787500Y-65393000D02*
G75*
G02*
X65487500Y-66093000I0J-700000D01*
G01*
X65487500Y-67493000D02*
G75*
G02*
X64787500Y-68193000I-699999J-1D01*
G01*
%TO.C,JP8*%
X58407500Y-67493000D02*
X58407500Y-66093000D01*
X59107500Y-65393000D02*
X59707500Y-65393000D01*
X59707500Y-68193000D02*
X59107500Y-68193000D01*
X60407500Y-66093000D02*
X60407500Y-67493000D01*
X58407500Y-66093000D02*
G75*
G02*
X59107500Y-65393000I700000J0D01*
G01*
X59107500Y-68193000D02*
G75*
G02*
X58407500Y-67493000I-1J699999D01*
G01*
X59707500Y-65393000D02*
G75*
G02*
X60407500Y-66093000I0J-700000D01*
G01*
X60407500Y-67493000D02*
G75*
G02*
X59707500Y-68193000I-699999J-1D01*
G01*
%TO.C,K19*%
X171434000Y-84034000D02*
X172371000Y-84971000D01*
X172371000Y-80179000D02*
X171350000Y-81200000D01*
X172371000Y-84971000D02*
X175118000Y-84971000D01*
X174850000Y-69725000D02*
X172850000Y-69725000D01*
X175018000Y-80179000D02*
X172371000Y-80179000D01*
X175118000Y-84971000D02*
X175521000Y-84891000D01*
X175350000Y-73925000D02*
X172350000Y-73925000D01*
X175521000Y-84891000D02*
X175863000Y-84662000D01*
X175580000Y-80074000D02*
X175018000Y-80179000D01*
X175863000Y-84662000D02*
X176396000Y-84129000D01*
X176059000Y-79775000D02*
X175580000Y-80074000D01*
X176396000Y-83907000D02*
X176483000Y-83469000D01*
X176396000Y-84129000D02*
X176396000Y-83907000D01*
X176397000Y-79322000D02*
X176059000Y-79775000D01*
X176483000Y-83469000D02*
X176727000Y-83102000D01*
X176551000Y-78764000D02*
X176397000Y-79322000D01*
X176633000Y-78466000D02*
X176551000Y-78764000D01*
X176727000Y-83102000D02*
X177094000Y-82858000D01*
X176826000Y-78208000D02*
X176633000Y-78466000D01*
X177094000Y-82858000D02*
X177532000Y-82771000D01*
X177100000Y-78038000D02*
X176826000Y-78208000D01*
X177410000Y-77979000D02*
X177100000Y-78038000D01*
X177532000Y-82771000D02*
X180332000Y-82771000D01*
X180332000Y-82771000D02*
X180659000Y-82706000D01*
X180659000Y-82706000D02*
X180942000Y-82517000D01*
X180942000Y-82517000D02*
X181131000Y-82234000D01*
X181131000Y-82234000D02*
X181216000Y-81807000D01*
X181133000Y-78921000D02*
X181496000Y-78921000D01*
X181496000Y-77979000D02*
X177410000Y-77979000D01*
X181496000Y-78921000D02*
X181496000Y-77979000D01*
X177950000Y-69725000D02*
G75*
G02*
X179950000Y-71725000I0J-2000000D01*
G01*
%TO.C,U1*%
X38611000Y-34411000D02*
X71631000Y-34411000D01*
X38611000Y-36951000D02*
X38611000Y-34411000D01*
X38611000Y-36951000D02*
X71631000Y-36951000D01*
X38611000Y-49651000D02*
X71631000Y-49651000D01*
X38611000Y-52191000D02*
X38611000Y-49651000D01*
X38611000Y-52191000D02*
X71631000Y-52191000D01*
X71631000Y-34411000D02*
X71631000Y-36951000D01*
X71631000Y-49651000D02*
X71631000Y-52191000D01*
%TD*%
M02*
