M48
; DRILL file {KiCad 9.0.6-9.0.6~ubuntu24.04.1} date 2025-12-15T01:56:42+0800
; FORMAT={-:-/ absolute / metric / decimal}
; #@! TF.CreationDate,2025-12-15T01:56:42+08:00
; #@! TF.GenerationSoftware,Kicad,Pcbnew,9.0.6-9.0.6~ubuntu24.04.1
; #@! TF.FileFunction,Plated,1,2,PTH
FMAT,2
METRIC
; #@! TA.AperFunction,Plated,PTH,ViaDrill
T1C0.400
; #@! TA.AperFunction,Plated,PTH,ComponentDrill
T2C0.700
; #@! TA.AperFunction,Plated,PTH,ComponentDrill
T3C0.750
; #@! TA.AperFunction,Plated,PTH,ComponentDrill
T4C0.900
; #@! TA.AperFunction,Plated,PTH,ComponentDrill
T5C1.000
; #@! TA.AperFunction,Plated,PTH,ComponentDrill
T6C1.092
; #@! TA.AperFunction,Plated,PTH,ComponentDrill
T7C1.300
; #@! TA.AperFunction,Plated,PTH,ComponentDrill
T8C1.500
; #@! TA.AperFunction,Plated,PTH,ComponentDrill
T9C2.200
; #@! TA.AperFunction,Plated,PTH,ComponentDrill
T10C3.000
; #@! TA.AperFunction,Plated,PTH,ComponentDrill
T11C3.050
%
G90
G05
T1
X39.881Y-47.62
X41.15Y-46.77
X42.11Y-65.85
X42.11Y-68.35
X42.11Y-70.85
X42.421Y-42.23
X44.961Y-44.16
X46.69Y-31.77
X47.63Y-59.49
X50.041Y-42.23
X50.52Y-86.61
X51.139Y-68.011
X52.39Y-75.35
X52.58Y-62.78
X53.12Y-76.633
X55.12Y-63.81
X57.661Y-44.56
X57.661Y-62.05
X60.201Y-43.83
X60.971Y-92.19
X62.741Y-43.1
X62.741Y-61.31
X63.22Y-62.78
X63.22Y-63.81
X63.22Y-64.87
X64.02Y-46.78
X65.281Y-46.04
X65.468Y-92.19
X66.56Y-45.3
X68.409Y-33.759
X70.361Y-46.04
X71.43Y-64.87
X72.065Y-32.501
X72.88Y-50.93
X73.352Y-101.55
X73.45Y-74.72
X74.638Y-77.363
X74.638Y-83.533
X75.284Y-68.024
X75.852Y-101.55
X76.44Y-43.263
X76.454Y-45.803
X78.352Y-101.55
X80.134Y-44.533
X88.125Y-35.37
X88.125Y-45.78
X89.06Y-51.22
X89.62Y-50.33
X90.4Y-49.55
X90.41Y-68.09
X90.42Y-87.15
X90.95Y-65.6
X91.54Y-31.13
X94.56Y-30.0
X94.56Y-49.05
X94.56Y-68.1
X94.56Y-87.15
X100.73Y-30.0
X100.73Y-49.05
X100.73Y-68.1
X100.73Y-87.15
X107.19Y-38.51
X113.07Y-49.05
X113.61Y-30.0
X113.61Y-68.1
X113.61Y-87.15
X119.78Y-30.0
X119.78Y-49.05
X119.78Y-68.1
X119.78Y-87.15
X126.24Y-38.51
X132.12Y-49.05
X132.66Y-30.0
X132.66Y-68.1
X132.66Y-87.15
X138.83Y-30.0
X138.83Y-49.05
X138.83Y-68.1
X138.83Y-87.15
X145.29Y-38.51
X151.17Y-49.05
X151.71Y-30.0
X151.71Y-68.1
X151.71Y-87.15
X157.88Y-30.0
X157.88Y-49.05
X157.88Y-68.1
X157.88Y-87.15
X164.34Y-38.51
X170.22Y-49.05
X170.76Y-30.0
X170.76Y-68.1
X170.76Y-87.15
X176.93Y-30.0
X176.93Y-49.05
X176.93Y-68.1
X176.93Y-87.15
X181.78Y-38.52
X181.78Y-57.57
X181.78Y-76.62
X181.78Y-95.67
X189.81Y-30.0
X189.81Y-49.05
X189.81Y-68.1
X189.81Y-87.15
X195.98Y-30.0
X195.98Y-49.05
X195.98Y-68.1
X195.98Y-87.15
X200.34Y-31.15
X200.53Y-48.04
X200.53Y-67.09
X200.53Y-86.14
T2
X46.11Y-76.633
X46.11Y-84.253
X48.65Y-76.633
X48.65Y-84.253
T3
X74.731Y-51.236
X74.731Y-53.236
T5
X48.439Y-92.682
X48.439Y-95.222
X50.979Y-92.682
X50.979Y-95.222
X55.718Y-77.943
X55.718Y-80.443
X55.718Y-82.943
X59.407Y-72.073
X61.947Y-72.073
X64.487Y-72.073
X67.028Y-72.073
X70.218Y-77.943
X70.218Y-82.943
T6
X39.881Y-35.681
X39.881Y-38.221
X39.881Y-50.921
X39.881Y-53.461
X42.421Y-35.681
X42.421Y-38.221
X42.421Y-50.921
X42.421Y-53.461
X44.961Y-35.681
X44.961Y-38.221
X44.961Y-50.921
X44.961Y-53.461
X47.501Y-35.681
X47.501Y-38.221
X47.501Y-50.921
X47.501Y-53.461
X50.041Y-35.681
X50.041Y-38.221
X50.041Y-50.921
X50.041Y-53.461
X52.581Y-35.681
X52.581Y-38.221
X52.581Y-50.921
X52.581Y-53.461
X55.121Y-35.681
X55.121Y-38.221
X55.121Y-50.921
X55.121Y-53.461
X57.661Y-35.681
X57.661Y-38.221
X57.661Y-50.921
X57.661Y-53.461
X60.201Y-35.681
X60.201Y-38.221
X60.201Y-50.921
X60.201Y-53.461
X62.741Y-35.681
X62.741Y-38.221
X62.741Y-50.921
X62.741Y-53.461
X65.281Y-35.681
X65.281Y-38.221
X65.281Y-50.921
X65.281Y-53.461
X67.821Y-35.681
X67.821Y-38.221
X67.821Y-50.921
X67.821Y-53.461
X70.361Y-35.681
X70.361Y-38.221
X70.361Y-50.921
X70.361Y-53.461
T7
X48.771Y-30.823
X55.271Y-30.823
T10
X92.65Y-42.325
X92.65Y-61.375
X92.65Y-80.425
X92.65Y-99.475
X102.65Y-42.325
X102.65Y-61.375
X102.65Y-80.425
X102.65Y-99.475
X111.7Y-42.325
X111.7Y-61.375
X111.7Y-80.425
X111.7Y-99.475
X121.7Y-42.325
X121.7Y-61.375
X121.7Y-80.425
X121.7Y-99.475
X130.75Y-42.325
X130.75Y-61.375
X130.75Y-80.425
X130.75Y-99.475
X140.75Y-42.325
X140.75Y-61.375
X140.75Y-80.425
X140.75Y-99.475
X149.8Y-42.325
X149.8Y-61.375
X149.8Y-80.425
X149.8Y-99.475
X159.8Y-42.325
X159.8Y-61.375
X159.8Y-80.425
X159.8Y-99.475
X168.85Y-42.325
X168.85Y-61.375
X168.85Y-80.425
X168.85Y-99.475
X178.85Y-42.325
X178.85Y-61.375
X178.85Y-80.425
X178.85Y-99.475
X187.9Y-42.325
X187.9Y-61.375
X187.9Y-80.425
X187.9Y-99.475
X197.9Y-42.325
X197.9Y-61.375
X197.9Y-80.425
X197.9Y-99.475
T11
X93.84Y-35.985
X93.84Y-55.035
X93.84Y-74.085
X93.84Y-93.135
X95.11Y-33.445
X95.11Y-52.495
X95.11Y-71.545
X95.11Y-90.595
X100.19Y-33.445
X100.19Y-52.495
X100.19Y-71.545
X100.19Y-90.595
X101.46Y-35.985
X101.46Y-55.035
X101.46Y-74.085
X101.46Y-93.135
X112.89Y-35.985
X112.89Y-55.035
X112.89Y-74.085
X112.89Y-93.135
X114.16Y-33.445
X114.16Y-52.495
X114.16Y-71.545
X114.16Y-90.595
X119.24Y-33.445
X119.24Y-52.495
X119.24Y-71.545
X119.24Y-90.595
X120.51Y-35.985
X120.51Y-55.035
X120.51Y-74.085
X120.51Y-93.135
X131.94Y-35.985
X131.94Y-55.035
X131.94Y-74.085
X131.94Y-93.135
X133.21Y-33.445
X133.21Y-52.495
X133.21Y-71.545
X133.21Y-90.595
X138.29Y-33.445
X138.29Y-52.495
X138.29Y-71.545
X138.29Y-90.595
X139.56Y-35.985
X139.56Y-55.035
X139.56Y-74.085
X139.56Y-93.135
X150.99Y-35.985
X150.99Y-55.035
X150.99Y-74.085
X150.99Y-93.135
X152.26Y-33.445
X152.26Y-52.495
X152.26Y-71.545
X152.26Y-90.595
X157.34Y-33.445
X157.34Y-52.495
X157.34Y-71.545
X157.34Y-90.595
X158.61Y-35.985
X158.61Y-55.035
X158.61Y-74.085
X158.61Y-93.135
X170.04Y-35.985
X170.04Y-55.035
X170.04Y-74.085
X170.04Y-93.135
X171.31Y-33.445
X171.31Y-52.495
X171.31Y-71.545
X171.31Y-90.595
X176.39Y-33.445
X176.39Y-52.495
X176.39Y-71.545
X176.39Y-90.595
X177.66Y-35.985
X177.66Y-55.035
X177.66Y-74.085
X177.66Y-93.135
X189.09Y-35.985
X189.09Y-55.035
X189.09Y-74.085
X189.09Y-93.135
X190.36Y-33.445
X190.36Y-52.495
X190.36Y-71.545
X190.36Y-90.595
X195.44Y-33.445
X195.44Y-52.495
X195.44Y-71.545
X195.44Y-90.595
X196.71Y-35.985
X196.71Y-55.035
X196.71Y-74.085
X196.71Y-93.135
T4
G00X74.914Y-32.102
M15
G01X74.914Y-32.502
M16
G05
G00X74.914Y-35.15
M15
G01X74.914Y-35.55
M16
G05
G00X74.914Y-39.15
M15
G01X74.914Y-39.55
M16
G05
G00X76.914Y-40.25
M15
G01X76.914Y-40.65
M16
G05
G00X79.514Y-40.25
M15
G01X79.514Y-40.65
M16
G05
G00X81.514Y-32.102
M15
G01X81.514Y-32.502
M16
G05
G00X81.514Y-35.15
M15
G01X81.514Y-35.55
M16
G05
G00X81.514Y-39.15
M15
G01X81.514Y-39.55
M16
G05
T8
G00X62.668Y-74.843
M15
G01X63.768Y-74.843
M16
G05
G00X62.668Y-86.043
M15
G01X63.768Y-86.043
M16
G05
T9
G00X42.651Y-59.876
M15
G01X40.671Y-57.896
M16
G05
G00X42.651Y-101.01
M15
G01X40.671Y-102.99
M16
G05
G00X83.785Y-59.876
M15
G01X85.765Y-57.896
M16
G05
G00X85.765Y-102.99
M15
G01X83.785Y-101.01
M16
G05
M30
