%TF.GenerationSoftware,KiCad,Pcbnew,9.0.5-9.0.5~ubuntu24.04.1*%
%TF.CreationDate,2025-10-31T14:16:07+08:00*%
%TF.ProjectId,TPS,5450532e-6b69-4636-9164-5f7063625858,rev?*%
%TF.SameCoordinates,Original*%
%TF.FileFunction,Copper,L2,Bot*%
%TF.FilePolarity,Positive*%
%FSLAX46Y46*%
G04 Gerber Fmt 4.6, Leading zero omitted, Abs format (unit mm)*
G04 Created by KiCad (PCBNEW 9.0.5-9.0.5~ubuntu24.04.1) date 2025-10-31 14:16:07*
%MOMM*%
%LPD*%
G01*
G04 APERTURE LIST*
G04 APERTURE END LIST*
%TA.AperFunction,NonConductor*%
G36*
X201159853Y-29000881D02*
G01*
X201329775Y-29014255D01*
X201341512Y-29015748D01*
X201377338Y-29022065D01*
X201384669Y-29023590D01*
X201530653Y-29058638D01*
X201544084Y-29062680D01*
X201568981Y-29071742D01*
X201573997Y-29073693D01*
X201722329Y-29135134D01*
X201739656Y-29143962D01*
X201803965Y-29183371D01*
X201892874Y-29237855D01*
X201908607Y-29249285D01*
X202045263Y-29366000D01*
X202058999Y-29379736D01*
X202175712Y-29516390D01*
X202187144Y-29532125D01*
X202281034Y-29685339D01*
X202289868Y-29702677D01*
X202351303Y-29850997D01*
X202353263Y-29856036D01*
X202362312Y-29880896D01*
X202366365Y-29894362D01*
X202401399Y-30040288D01*
X202402941Y-30047702D01*
X202409245Y-30083452D01*
X202410747Y-30095256D01*
X202424118Y-30265146D01*
X202424500Y-30274875D01*
X202424500Y-103925124D01*
X202424118Y-103934853D01*
X202410747Y-104104742D01*
X202409245Y-104116546D01*
X202402941Y-104152296D01*
X202401399Y-104159710D01*
X202366365Y-104305636D01*
X202362312Y-104319102D01*
X202353263Y-104343962D01*
X202351303Y-104349001D01*
X202289870Y-104497316D01*
X202281036Y-104514654D01*
X202187140Y-104667878D01*
X202175704Y-104683619D01*
X202131511Y-104735363D01*
X202059004Y-104820257D01*
X202045257Y-104834004D01*
X201983689Y-104886589D01*
X201908619Y-104950704D01*
X201892878Y-104962140D01*
X201739654Y-105056036D01*
X201722316Y-105064870D01*
X201574001Y-105126303D01*
X201568962Y-105128263D01*
X201544102Y-105137312D01*
X201530636Y-105141365D01*
X201384710Y-105176399D01*
X201377296Y-105177941D01*
X201341546Y-105184245D01*
X201329742Y-105185747D01*
X201159854Y-105199118D01*
X201150125Y-105199500D01*
X40664751Y-105199500D01*
X40657264Y-105199274D01*
X40647971Y-105198711D01*
X40424946Y-105185220D01*
X40416249Y-105184385D01*
X40364902Y-105177625D01*
X40358735Y-105176655D01*
X40156778Y-105139645D01*
X40147038Y-105137451D01*
X40103594Y-105125811D01*
X40098795Y-105124421D01*
X39895401Y-105061040D01*
X39884840Y-105057216D01*
X39857071Y-105045714D01*
X39853632Y-105044229D01*
X39645681Y-104950639D01*
X39632422Y-104943680D01*
X39417960Y-104814033D01*
X39405637Y-104805527D01*
X39208363Y-104650972D01*
X39197155Y-104641042D01*
X39019957Y-104463844D01*
X39010027Y-104452636D01*
X38924886Y-104343962D01*
X38855468Y-104255356D01*
X38846970Y-104243045D01*
X38717318Y-104028575D01*
X38710359Y-104015316D01*
X38671737Y-103929500D01*
X38616757Y-103807340D01*
X38615284Y-103803927D01*
X38603782Y-103776158D01*
X38599958Y-103765597D01*
X38565760Y-103655852D01*
X38536569Y-103562176D01*
X38535187Y-103557404D01*
X38523547Y-103513960D01*
X38521353Y-103504220D01*
X38501773Y-103397376D01*
X38484339Y-103302239D01*
X38483377Y-103296126D01*
X38476611Y-103244729D01*
X38475779Y-103236068D01*
X38461726Y-103003736D01*
X38461500Y-102996249D01*
X38461500Y-86043713D01*
X105824500Y-86043713D01*
X105824500Y-86256286D01*
X105857753Y-86466239D01*
X105923444Y-86668414D01*
X106019951Y-86857820D01*
X106144890Y-87029786D01*
X106295213Y-87180109D01*
X106467179Y-87305048D01*
X106467181Y-87305049D01*
X106467184Y-87305051D01*
X106656588Y-87401557D01*
X106858757Y-87467246D01*
X107068713Y-87500500D01*
X107068714Y-87500500D01*
X107281286Y-87500500D01*
X107281287Y-87500500D01*
X107491243Y-87467246D01*
X107693412Y-87401557D01*
X107882816Y-87305051D01*
X107904789Y-87289086D01*
X108054786Y-87180109D01*
X108054788Y-87180106D01*
X108054792Y-87180104D01*
X108205104Y-87029792D01*
X108205106Y-87029788D01*
X108205109Y-87029786D01*
X108330048Y-86857820D01*
X108330047Y-86857820D01*
X108330051Y-86857816D01*
X108426557Y-86668412D01*
X108492246Y-86466243D01*
X108525500Y-86256287D01*
X108525500Y-86043713D01*
X182024500Y-86043713D01*
X182024500Y-86256286D01*
X182057753Y-86466239D01*
X182123444Y-86668414D01*
X182219951Y-86857820D01*
X182344890Y-87029786D01*
X182495213Y-87180109D01*
X182667179Y-87305048D01*
X182667181Y-87305049D01*
X182667184Y-87305051D01*
X182856588Y-87401557D01*
X183058757Y-87467246D01*
X183268713Y-87500500D01*
X183268714Y-87500500D01*
X183481286Y-87500500D01*
X183481287Y-87500500D01*
X183691243Y-87467246D01*
X183893412Y-87401557D01*
X184082816Y-87305051D01*
X184104789Y-87289086D01*
X184254786Y-87180109D01*
X184254788Y-87180106D01*
X184254792Y-87180104D01*
X184405104Y-87029792D01*
X184405106Y-87029788D01*
X184405109Y-87029786D01*
X184530048Y-86857820D01*
X184530047Y-86857820D01*
X184530051Y-86857816D01*
X184626557Y-86668412D01*
X184692246Y-86466243D01*
X184725500Y-86256287D01*
X184725500Y-86043713D01*
X184692246Y-85833757D01*
X184626557Y-85631588D01*
X184530051Y-85442184D01*
X184530049Y-85442181D01*
X184530048Y-85442179D01*
X184405109Y-85270213D01*
X184254786Y-85119890D01*
X184082820Y-84994951D01*
X183893414Y-84898444D01*
X183893413Y-84898443D01*
X183893412Y-84898443D01*
X183691243Y-84832754D01*
X183691241Y-84832753D01*
X183691240Y-84832753D01*
X183529957Y-84807208D01*
X183481287Y-84799500D01*
X183268713Y-84799500D01*
X183220042Y-84807208D01*
X183058760Y-84832753D01*
X182856585Y-84898444D01*
X182667179Y-84994951D01*
X182495213Y-85119890D01*
X182344890Y-85270213D01*
X182219951Y-85442179D01*
X182123444Y-85631585D01*
X182057753Y-85833760D01*
X182024500Y-86043713D01*
X108525500Y-86043713D01*
X108492246Y-85833757D01*
X108426557Y-85631588D01*
X108330051Y-85442184D01*
X108330049Y-85442181D01*
X108330048Y-85442179D01*
X108205109Y-85270213D01*
X108054786Y-85119890D01*
X107882820Y-84994951D01*
X107693414Y-84898444D01*
X107693413Y-84898443D01*
X107693412Y-84898443D01*
X107491243Y-84832754D01*
X107491241Y-84832753D01*
X107491240Y-84832753D01*
X107329957Y-84807208D01*
X107281287Y-84799500D01*
X107068713Y-84799500D01*
X107020042Y-84807208D01*
X106858760Y-84832753D01*
X106656585Y-84898444D01*
X106467179Y-84994951D01*
X106295213Y-85119890D01*
X106144890Y-85270213D01*
X106019951Y-85442179D01*
X105923444Y-85631585D01*
X105857753Y-85833760D01*
X105824500Y-86043713D01*
X38461500Y-86043713D01*
X38461500Y-47943713D01*
X105824500Y-47943713D01*
X105824500Y-48156286D01*
X105857753Y-48366239D01*
X105923444Y-48568414D01*
X106019951Y-48757820D01*
X106144890Y-48929786D01*
X106295213Y-49080109D01*
X106467179Y-49205048D01*
X106467181Y-49205049D01*
X106467184Y-49205051D01*
X106656588Y-49301557D01*
X106858757Y-49367246D01*
X107068713Y-49400500D01*
X107068714Y-49400500D01*
X107281286Y-49400500D01*
X107281287Y-49400500D01*
X107491243Y-49367246D01*
X107693412Y-49301557D01*
X107882816Y-49205051D01*
X107904789Y-49189086D01*
X108054786Y-49080109D01*
X108054788Y-49080106D01*
X108054792Y-49080104D01*
X108205104Y-48929792D01*
X108205106Y-48929788D01*
X108205109Y-48929786D01*
X108330048Y-48757820D01*
X108330047Y-48757820D01*
X108330051Y-48757816D01*
X108426557Y-48568412D01*
X108492246Y-48366243D01*
X108525500Y-48156287D01*
X108525500Y-47943713D01*
X182024500Y-47943713D01*
X182024500Y-48156286D01*
X182057753Y-48366239D01*
X182123444Y-48568414D01*
X182219951Y-48757820D01*
X182344890Y-48929786D01*
X182495213Y-49080109D01*
X182667179Y-49205048D01*
X182667181Y-49205049D01*
X182667184Y-49205051D01*
X182856588Y-49301557D01*
X183058757Y-49367246D01*
X183268713Y-49400500D01*
X183268714Y-49400500D01*
X183481286Y-49400500D01*
X183481287Y-49400500D01*
X183691243Y-49367246D01*
X183893412Y-49301557D01*
X184082816Y-49205051D01*
X184104789Y-49189086D01*
X184254786Y-49080109D01*
X184254788Y-49080106D01*
X184254792Y-49080104D01*
X184405104Y-48929792D01*
X184405106Y-48929788D01*
X184405109Y-48929786D01*
X184530048Y-48757820D01*
X184530047Y-48757820D01*
X184530051Y-48757816D01*
X184626557Y-48568412D01*
X184692246Y-48366243D01*
X184725500Y-48156287D01*
X184725500Y-47943713D01*
X184692246Y-47733757D01*
X184626557Y-47531588D01*
X184530051Y-47342184D01*
X184530049Y-47342181D01*
X184530048Y-47342179D01*
X184405109Y-47170213D01*
X184254786Y-47019890D01*
X184082820Y-46894951D01*
X183893414Y-46798444D01*
X183893413Y-46798443D01*
X183893412Y-46798443D01*
X183691243Y-46732754D01*
X183691241Y-46732753D01*
X183691240Y-46732753D01*
X183529957Y-46707208D01*
X183481287Y-46699500D01*
X183268713Y-46699500D01*
X183220042Y-46707208D01*
X183058760Y-46732753D01*
X182856585Y-46798444D01*
X182667179Y-46894951D01*
X182495213Y-47019890D01*
X182344890Y-47170213D01*
X182219951Y-47342179D01*
X182123444Y-47531585D01*
X182057753Y-47733760D01*
X182024500Y-47943713D01*
X108525500Y-47943713D01*
X108492246Y-47733757D01*
X108426557Y-47531588D01*
X108330051Y-47342184D01*
X108330049Y-47342181D01*
X108330048Y-47342179D01*
X108205109Y-47170213D01*
X108054786Y-47019890D01*
X107882820Y-46894951D01*
X107693414Y-46798444D01*
X107693413Y-46798443D01*
X107693412Y-46798443D01*
X107491243Y-46732754D01*
X107491241Y-46732753D01*
X107491240Y-46732753D01*
X107329957Y-46707208D01*
X107281287Y-46699500D01*
X107068713Y-46699500D01*
X107020042Y-46707208D01*
X106858760Y-46732753D01*
X106656585Y-46798444D01*
X106467179Y-46894951D01*
X106295213Y-47019890D01*
X106144890Y-47170213D01*
X106019951Y-47342179D01*
X105923444Y-47531585D01*
X105857753Y-47733760D01*
X105824500Y-47943713D01*
X38461500Y-47943713D01*
X38461500Y-31203750D01*
X38461726Y-31196263D01*
X38475780Y-30963925D01*
X38476610Y-30955275D01*
X38483379Y-30903861D01*
X38484337Y-30897772D01*
X38521355Y-30695769D01*
X38523547Y-30686038D01*
X38525453Y-30678923D01*
X38535195Y-30642564D01*
X38536560Y-30637850D01*
X38599965Y-30434379D01*
X38603777Y-30423853D01*
X38615307Y-30396017D01*
X38616736Y-30392707D01*
X38710367Y-30184666D01*
X38717312Y-30171433D01*
X38846975Y-29956946D01*
X38855462Y-29944650D01*
X39010034Y-29747354D01*
X39019949Y-29736163D01*
X39197163Y-29558949D01*
X39208354Y-29549034D01*
X39405650Y-29394462D01*
X39417946Y-29385975D01*
X39632433Y-29256312D01*
X39645666Y-29249367D01*
X39853707Y-29155736D01*
X39857017Y-29154307D01*
X39884853Y-29142777D01*
X39895379Y-29138965D01*
X40098850Y-29075560D01*
X40103564Y-29074195D01*
X40147038Y-29062547D01*
X40156769Y-29060355D01*
X40358772Y-29023337D01*
X40364861Y-29022379D01*
X40416275Y-29015610D01*
X40424925Y-29014780D01*
X40657264Y-29000726D01*
X40664751Y-29000500D01*
X201150126Y-29000500D01*
X201159853Y-29000881D01*
G37*
%TD.AperFunction*%
M02*
