%TF.GenerationSoftware,KiCad,Pcbnew,7.0.5*%
%TF.CreationDate,2024-08-04T00:39:53+08:00*%
%TF.ProjectId,TPS,5450532e-6b69-4636-9164-5f7063625858,rev?*%
%TF.SameCoordinates,Original*%
%TF.FileFunction,Drillmap*%
%TF.FilePolarity,Positive*%
%FSLAX45Y45*%
G04 Gerber Fmt 4.5, Leading zero omitted, Abs format (unit mm)*
G04 Created by KiCad (PCBNEW 7.0.5) date 2024-08-04 00:39:53*
%MOMM*%
%LPD*%
G01*
G04 APERTURE LIST*
%ADD10C,0.120000*%
%ADD11C,0.200000*%
%ADD12C,0.220000*%
G04 APERTURE END LIST*
D10*
X20115500Y-2900000D02*
X3973100Y-2900000D01*
X3846100Y-10393000D02*
G75*
G03*
X3973100Y-10520000I127000J0D01*
G01*
X3973100Y-2900000D02*
G75*
G03*
X3846100Y-3027000I0J-127000D01*
G01*
X20242500Y-10393000D02*
X20242500Y-3027000D01*
X20115500Y-10520000D02*
X3973100Y-10520000D01*
X3846100Y-3027000D02*
X3846100Y-10393000D01*
X20115500Y-10520000D02*
G75*
G03*
X20242500Y-10393000I0J127000D01*
G01*
X20242500Y-3027000D02*
G75*
G03*
X20115500Y-2900000I-127000J0D01*
G01*
D11*
D12*
X3956100Y-3010000D02*
X4176100Y-3230000D01*
X4176100Y-3010000D02*
X3956100Y-3230000D01*
X3956100Y-5678600D02*
X4176100Y-5898600D01*
X4176100Y-5678600D02*
X3956100Y-5898600D01*
X3956100Y-10190000D02*
X4176100Y-10410000D01*
X4176100Y-10190000D02*
X3956100Y-10410000D01*
X8467500Y-3010000D02*
X8687500Y-3230000D01*
X8687500Y-3010000D02*
X8467500Y-3230000D01*
X8467500Y-5678600D02*
X8687500Y-5898600D01*
X8687500Y-5678600D02*
X8467500Y-5898600D01*
X8467500Y-10190000D02*
X8687500Y-10410000D01*
X8687500Y-10190000D02*
X8467500Y-10410000D01*
X10607500Y-4695000D02*
X10827500Y-4915000D01*
X10827500Y-4695000D02*
X10607500Y-4915000D01*
X10607500Y-8505000D02*
X10827500Y-8725000D01*
X10827500Y-8505000D02*
X10607500Y-8725000D01*
X18227500Y-4695000D02*
X18447500Y-4915000D01*
X18447500Y-4695000D02*
X18227500Y-4915000D01*
X18227500Y-8505000D02*
X18447500Y-8725000D01*
X18447500Y-8505000D02*
X18227500Y-8725000D01*
D11*
X4100877Y-10837484D02*
X4100877Y-10637484D01*
X4100877Y-10637484D02*
X4148496Y-10637484D01*
X4148496Y-10637484D02*
X4177067Y-10647008D01*
X4177067Y-10647008D02*
X4196115Y-10666055D01*
X4196115Y-10666055D02*
X4205639Y-10685103D01*
X4205639Y-10685103D02*
X4215163Y-10723198D01*
X4215163Y-10723198D02*
X4215163Y-10751770D01*
X4215163Y-10751770D02*
X4205639Y-10789865D01*
X4205639Y-10789865D02*
X4196115Y-10808912D01*
X4196115Y-10808912D02*
X4177067Y-10827960D01*
X4177067Y-10827960D02*
X4148496Y-10837484D01*
X4148496Y-10837484D02*
X4100877Y-10837484D01*
X4300877Y-10837484D02*
X4300877Y-10704150D01*
X4300877Y-10742246D02*
X4310401Y-10723198D01*
X4310401Y-10723198D02*
X4319924Y-10713674D01*
X4319924Y-10713674D02*
X4338972Y-10704150D01*
X4338972Y-10704150D02*
X4358020Y-10704150D01*
X4424686Y-10837484D02*
X4424686Y-10704150D01*
X4424686Y-10637484D02*
X4415163Y-10647008D01*
X4415163Y-10647008D02*
X4424686Y-10656531D01*
X4424686Y-10656531D02*
X4434210Y-10647008D01*
X4434210Y-10647008D02*
X4424686Y-10637484D01*
X4424686Y-10637484D02*
X4424686Y-10656531D01*
X4548496Y-10837484D02*
X4529448Y-10827960D01*
X4529448Y-10827960D02*
X4519924Y-10808912D01*
X4519924Y-10808912D02*
X4519924Y-10637484D01*
X4653258Y-10837484D02*
X4634210Y-10827960D01*
X4634210Y-10827960D02*
X4624686Y-10808912D01*
X4624686Y-10808912D02*
X4624686Y-10637484D01*
X4881829Y-10837484D02*
X4881829Y-10637484D01*
X4881829Y-10637484D02*
X4948496Y-10780341D01*
X4948496Y-10780341D02*
X5015163Y-10637484D01*
X5015163Y-10637484D02*
X5015163Y-10837484D01*
X5196115Y-10837484D02*
X5196115Y-10732722D01*
X5196115Y-10732722D02*
X5186591Y-10713674D01*
X5186591Y-10713674D02*
X5167544Y-10704150D01*
X5167544Y-10704150D02*
X5129448Y-10704150D01*
X5129448Y-10704150D02*
X5110401Y-10713674D01*
X5196115Y-10827960D02*
X5177067Y-10837484D01*
X5177067Y-10837484D02*
X5129448Y-10837484D01*
X5129448Y-10837484D02*
X5110401Y-10827960D01*
X5110401Y-10827960D02*
X5100877Y-10808912D01*
X5100877Y-10808912D02*
X5100877Y-10789865D01*
X5100877Y-10789865D02*
X5110401Y-10770817D01*
X5110401Y-10770817D02*
X5129448Y-10761293D01*
X5129448Y-10761293D02*
X5177067Y-10761293D01*
X5177067Y-10761293D02*
X5196115Y-10751770D01*
X5291353Y-10704150D02*
X5291353Y-10904150D01*
X5291353Y-10713674D02*
X5310401Y-10704150D01*
X5310401Y-10704150D02*
X5348496Y-10704150D01*
X5348496Y-10704150D02*
X5367544Y-10713674D01*
X5367544Y-10713674D02*
X5377067Y-10723198D01*
X5377067Y-10723198D02*
X5386591Y-10742246D01*
X5386591Y-10742246D02*
X5386591Y-10799389D01*
X5386591Y-10799389D02*
X5377067Y-10818436D01*
X5377067Y-10818436D02*
X5367544Y-10827960D01*
X5367544Y-10827960D02*
X5348496Y-10837484D01*
X5348496Y-10837484D02*
X5310401Y-10837484D01*
X5310401Y-10837484D02*
X5291353Y-10827960D01*
X5472305Y-10818436D02*
X5481829Y-10827960D01*
X5481829Y-10827960D02*
X5472305Y-10837484D01*
X5472305Y-10837484D02*
X5462782Y-10827960D01*
X5462782Y-10827960D02*
X5472305Y-10818436D01*
X5472305Y-10818436D02*
X5472305Y-10837484D01*
X5472305Y-10713674D02*
X5481829Y-10723198D01*
X5481829Y-10723198D02*
X5472305Y-10732722D01*
X5472305Y-10732722D02*
X5462782Y-10723198D01*
X5462782Y-10723198D02*
X5472305Y-10713674D01*
X5472305Y-10713674D02*
X5472305Y-10732722D01*
X3640100Y-11066000D02*
X3840100Y-11266000D01*
X3840100Y-11066000D02*
X3640100Y-11266000D01*
X4091353Y-11076531D02*
X4100877Y-11067008D01*
X4100877Y-11067008D02*
X4119924Y-11057484D01*
X4119924Y-11057484D02*
X4167543Y-11057484D01*
X4167543Y-11057484D02*
X4186591Y-11067008D01*
X4186591Y-11067008D02*
X4196115Y-11076531D01*
X4196115Y-11076531D02*
X4205639Y-11095579D01*
X4205639Y-11095579D02*
X4205639Y-11114627D01*
X4205639Y-11114627D02*
X4196115Y-11143198D01*
X4196115Y-11143198D02*
X4081829Y-11257484D01*
X4081829Y-11257484D02*
X4205639Y-11257484D01*
X4291353Y-11238436D02*
X4300877Y-11247960D01*
X4300877Y-11247960D02*
X4291353Y-11257484D01*
X4291353Y-11257484D02*
X4281829Y-11247960D01*
X4281829Y-11247960D02*
X4291353Y-11238436D01*
X4291353Y-11238436D02*
X4291353Y-11257484D01*
X4377067Y-11076531D02*
X4386591Y-11067008D01*
X4386591Y-11067008D02*
X4405639Y-11057484D01*
X4405639Y-11057484D02*
X4453258Y-11057484D01*
X4453258Y-11057484D02*
X4472305Y-11067008D01*
X4472305Y-11067008D02*
X4481829Y-11076531D01*
X4481829Y-11076531D02*
X4491353Y-11095579D01*
X4491353Y-11095579D02*
X4491353Y-11114627D01*
X4491353Y-11114627D02*
X4481829Y-11143198D01*
X4481829Y-11143198D02*
X4367544Y-11257484D01*
X4367544Y-11257484D02*
X4491353Y-11257484D01*
X4615163Y-11057484D02*
X4634210Y-11057484D01*
X4634210Y-11057484D02*
X4653258Y-11067008D01*
X4653258Y-11067008D02*
X4662782Y-11076531D01*
X4662782Y-11076531D02*
X4672305Y-11095579D01*
X4672305Y-11095579D02*
X4681829Y-11133674D01*
X4681829Y-11133674D02*
X4681829Y-11181293D01*
X4681829Y-11181293D02*
X4672305Y-11219388D01*
X4672305Y-11219388D02*
X4662782Y-11238436D01*
X4662782Y-11238436D02*
X4653258Y-11247960D01*
X4653258Y-11247960D02*
X4634210Y-11257484D01*
X4634210Y-11257484D02*
X4615163Y-11257484D01*
X4615163Y-11257484D02*
X4596115Y-11247960D01*
X4596115Y-11247960D02*
X4586591Y-11238436D01*
X4586591Y-11238436D02*
X4577067Y-11219388D01*
X4577067Y-11219388D02*
X4567544Y-11181293D01*
X4567544Y-11181293D02*
X4567544Y-11133674D01*
X4567544Y-11133674D02*
X4577067Y-11095579D01*
X4577067Y-11095579D02*
X4586591Y-11076531D01*
X4586591Y-11076531D02*
X4596115Y-11067008D01*
X4596115Y-11067008D02*
X4615163Y-11057484D01*
X4805639Y-11057484D02*
X4824686Y-11057484D01*
X4824686Y-11057484D02*
X4843734Y-11067008D01*
X4843734Y-11067008D02*
X4853258Y-11076531D01*
X4853258Y-11076531D02*
X4862782Y-11095579D01*
X4862782Y-11095579D02*
X4872305Y-11133674D01*
X4872305Y-11133674D02*
X4872305Y-11181293D01*
X4872305Y-11181293D02*
X4862782Y-11219388D01*
X4862782Y-11219388D02*
X4853258Y-11238436D01*
X4853258Y-11238436D02*
X4843734Y-11247960D01*
X4843734Y-11247960D02*
X4824686Y-11257484D01*
X4824686Y-11257484D02*
X4805639Y-11257484D01*
X4805639Y-11257484D02*
X4786591Y-11247960D01*
X4786591Y-11247960D02*
X4777067Y-11238436D01*
X4777067Y-11238436D02*
X4767544Y-11219388D01*
X4767544Y-11219388D02*
X4758020Y-11181293D01*
X4758020Y-11181293D02*
X4758020Y-11133674D01*
X4758020Y-11133674D02*
X4767544Y-11095579D01*
X4767544Y-11095579D02*
X4777067Y-11076531D01*
X4777067Y-11076531D02*
X4786591Y-11067008D01*
X4786591Y-11067008D02*
X4805639Y-11057484D01*
X4958020Y-11257484D02*
X4958020Y-11124150D01*
X4958020Y-11143198D02*
X4967544Y-11133674D01*
X4967544Y-11133674D02*
X4986591Y-11124150D01*
X4986591Y-11124150D02*
X5015163Y-11124150D01*
X5015163Y-11124150D02*
X5034210Y-11133674D01*
X5034210Y-11133674D02*
X5043734Y-11152722D01*
X5043734Y-11152722D02*
X5043734Y-11257484D01*
X5043734Y-11152722D02*
X5053258Y-11133674D01*
X5053258Y-11133674D02*
X5072305Y-11124150D01*
X5072305Y-11124150D02*
X5100877Y-11124150D01*
X5100877Y-11124150D02*
X5119925Y-11133674D01*
X5119925Y-11133674D02*
X5129448Y-11152722D01*
X5129448Y-11152722D02*
X5129448Y-11257484D01*
X5224686Y-11257484D02*
X5224686Y-11124150D01*
X5224686Y-11143198D02*
X5234210Y-11133674D01*
X5234210Y-11133674D02*
X5253258Y-11124150D01*
X5253258Y-11124150D02*
X5281829Y-11124150D01*
X5281829Y-11124150D02*
X5300877Y-11133674D01*
X5300877Y-11133674D02*
X5310401Y-11152722D01*
X5310401Y-11152722D02*
X5310401Y-11257484D01*
X5310401Y-11152722D02*
X5319925Y-11133674D01*
X5319925Y-11133674D02*
X5338972Y-11124150D01*
X5338972Y-11124150D02*
X5367544Y-11124150D01*
X5367544Y-11124150D02*
X5386591Y-11133674D01*
X5386591Y-11133674D02*
X5396115Y-11152722D01*
X5396115Y-11152722D02*
X5396115Y-11257484D01*
X5786591Y-11047960D02*
X5615163Y-11305103D01*
X6043734Y-11057484D02*
X6062782Y-11057484D01*
X6062782Y-11057484D02*
X6081829Y-11067008D01*
X6081829Y-11067008D02*
X6091353Y-11076531D01*
X6091353Y-11076531D02*
X6100877Y-11095579D01*
X6100877Y-11095579D02*
X6110401Y-11133674D01*
X6110401Y-11133674D02*
X6110401Y-11181293D01*
X6110401Y-11181293D02*
X6100877Y-11219388D01*
X6100877Y-11219388D02*
X6091353Y-11238436D01*
X6091353Y-11238436D02*
X6081829Y-11247960D01*
X6081829Y-11247960D02*
X6062782Y-11257484D01*
X6062782Y-11257484D02*
X6043734Y-11257484D01*
X6043734Y-11257484D02*
X6024686Y-11247960D01*
X6024686Y-11247960D02*
X6015163Y-11238436D01*
X6015163Y-11238436D02*
X6005639Y-11219388D01*
X6005639Y-11219388D02*
X5996115Y-11181293D01*
X5996115Y-11181293D02*
X5996115Y-11133674D01*
X5996115Y-11133674D02*
X6005639Y-11095579D01*
X6005639Y-11095579D02*
X6015163Y-11076531D01*
X6015163Y-11076531D02*
X6024686Y-11067008D01*
X6024686Y-11067008D02*
X6043734Y-11057484D01*
X6196115Y-11238436D02*
X6205639Y-11247960D01*
X6205639Y-11247960D02*
X6196115Y-11257484D01*
X6196115Y-11257484D02*
X6186591Y-11247960D01*
X6186591Y-11247960D02*
X6196115Y-11238436D01*
X6196115Y-11238436D02*
X6196115Y-11257484D01*
X6329448Y-11057484D02*
X6348496Y-11057484D01*
X6348496Y-11057484D02*
X6367544Y-11067008D01*
X6367544Y-11067008D02*
X6377067Y-11076531D01*
X6377067Y-11076531D02*
X6386591Y-11095579D01*
X6386591Y-11095579D02*
X6396115Y-11133674D01*
X6396115Y-11133674D02*
X6396115Y-11181293D01*
X6396115Y-11181293D02*
X6386591Y-11219388D01*
X6386591Y-11219388D02*
X6377067Y-11238436D01*
X6377067Y-11238436D02*
X6367544Y-11247960D01*
X6367544Y-11247960D02*
X6348496Y-11257484D01*
X6348496Y-11257484D02*
X6329448Y-11257484D01*
X6329448Y-11257484D02*
X6310401Y-11247960D01*
X6310401Y-11247960D02*
X6300877Y-11238436D01*
X6300877Y-11238436D02*
X6291353Y-11219388D01*
X6291353Y-11219388D02*
X6281829Y-11181293D01*
X6281829Y-11181293D02*
X6281829Y-11133674D01*
X6281829Y-11133674D02*
X6291353Y-11095579D01*
X6291353Y-11095579D02*
X6300877Y-11076531D01*
X6300877Y-11076531D02*
X6310401Y-11067008D01*
X6310401Y-11067008D02*
X6329448Y-11057484D01*
X6510401Y-11143198D02*
X6491353Y-11133674D01*
X6491353Y-11133674D02*
X6481829Y-11124150D01*
X6481829Y-11124150D02*
X6472306Y-11105103D01*
X6472306Y-11105103D02*
X6472306Y-11095579D01*
X6472306Y-11095579D02*
X6481829Y-11076531D01*
X6481829Y-11076531D02*
X6491353Y-11067008D01*
X6491353Y-11067008D02*
X6510401Y-11057484D01*
X6510401Y-11057484D02*
X6548496Y-11057484D01*
X6548496Y-11057484D02*
X6567544Y-11067008D01*
X6567544Y-11067008D02*
X6577067Y-11076531D01*
X6577067Y-11076531D02*
X6586591Y-11095579D01*
X6586591Y-11095579D02*
X6586591Y-11105103D01*
X6586591Y-11105103D02*
X6577067Y-11124150D01*
X6577067Y-11124150D02*
X6567544Y-11133674D01*
X6567544Y-11133674D02*
X6548496Y-11143198D01*
X6548496Y-11143198D02*
X6510401Y-11143198D01*
X6510401Y-11143198D02*
X6491353Y-11152722D01*
X6491353Y-11152722D02*
X6481829Y-11162246D01*
X6481829Y-11162246D02*
X6472306Y-11181293D01*
X6472306Y-11181293D02*
X6472306Y-11219388D01*
X6472306Y-11219388D02*
X6481829Y-11238436D01*
X6481829Y-11238436D02*
X6491353Y-11247960D01*
X6491353Y-11247960D02*
X6510401Y-11257484D01*
X6510401Y-11257484D02*
X6548496Y-11257484D01*
X6548496Y-11257484D02*
X6567544Y-11247960D01*
X6567544Y-11247960D02*
X6577067Y-11238436D01*
X6577067Y-11238436D02*
X6586591Y-11219388D01*
X6586591Y-11219388D02*
X6586591Y-11181293D01*
X6586591Y-11181293D02*
X6577067Y-11162246D01*
X6577067Y-11162246D02*
X6567544Y-11152722D01*
X6567544Y-11152722D02*
X6548496Y-11143198D01*
X6758020Y-11057484D02*
X6719925Y-11057484D01*
X6719925Y-11057484D02*
X6700877Y-11067008D01*
X6700877Y-11067008D02*
X6691353Y-11076531D01*
X6691353Y-11076531D02*
X6672306Y-11105103D01*
X6672306Y-11105103D02*
X6662782Y-11143198D01*
X6662782Y-11143198D02*
X6662782Y-11219388D01*
X6662782Y-11219388D02*
X6672306Y-11238436D01*
X6672306Y-11238436D02*
X6681829Y-11247960D01*
X6681829Y-11247960D02*
X6700877Y-11257484D01*
X6700877Y-11257484D02*
X6738972Y-11257484D01*
X6738972Y-11257484D02*
X6758020Y-11247960D01*
X6758020Y-11247960D02*
X6767544Y-11238436D01*
X6767544Y-11238436D02*
X6777067Y-11219388D01*
X6777067Y-11219388D02*
X6777067Y-11171770D01*
X6777067Y-11171770D02*
X6767544Y-11152722D01*
X6767544Y-11152722D02*
X6758020Y-11143198D01*
X6758020Y-11143198D02*
X6738972Y-11133674D01*
X6738972Y-11133674D02*
X6700877Y-11133674D01*
X6700877Y-11133674D02*
X6681829Y-11143198D01*
X6681829Y-11143198D02*
X6672306Y-11152722D01*
X6672306Y-11152722D02*
X6662782Y-11171770D01*
X6948496Y-11057484D02*
X6910401Y-11057484D01*
X6910401Y-11057484D02*
X6891353Y-11067008D01*
X6891353Y-11067008D02*
X6881829Y-11076531D01*
X6881829Y-11076531D02*
X6862782Y-11105103D01*
X6862782Y-11105103D02*
X6853258Y-11143198D01*
X6853258Y-11143198D02*
X6853258Y-11219388D01*
X6853258Y-11219388D02*
X6862782Y-11238436D01*
X6862782Y-11238436D02*
X6872306Y-11247960D01*
X6872306Y-11247960D02*
X6891353Y-11257484D01*
X6891353Y-11257484D02*
X6929448Y-11257484D01*
X6929448Y-11257484D02*
X6948496Y-11247960D01*
X6948496Y-11247960D02*
X6958020Y-11238436D01*
X6958020Y-11238436D02*
X6967544Y-11219388D01*
X6967544Y-11219388D02*
X6967544Y-11171770D01*
X6967544Y-11171770D02*
X6958020Y-11152722D01*
X6958020Y-11152722D02*
X6948496Y-11143198D01*
X6948496Y-11143198D02*
X6929448Y-11133674D01*
X6929448Y-11133674D02*
X6891353Y-11133674D01*
X6891353Y-11133674D02*
X6872306Y-11143198D01*
X6872306Y-11143198D02*
X6862782Y-11152722D01*
X6862782Y-11152722D02*
X6853258Y-11171770D01*
X7043734Y-11057484D02*
X7043734Y-11095579D01*
X7119925Y-11057484D02*
X7119925Y-11095579D01*
X7415163Y-11333674D02*
X7405639Y-11324150D01*
X7405639Y-11324150D02*
X7386591Y-11295579D01*
X7386591Y-11295579D02*
X7377068Y-11276531D01*
X7377068Y-11276531D02*
X7367544Y-11247960D01*
X7367544Y-11247960D02*
X7358020Y-11200341D01*
X7358020Y-11200341D02*
X7358020Y-11162246D01*
X7358020Y-11162246D02*
X7367544Y-11114627D01*
X7367544Y-11114627D02*
X7377068Y-11086055D01*
X7377068Y-11086055D02*
X7386591Y-11067008D01*
X7386591Y-11067008D02*
X7405639Y-11038436D01*
X7405639Y-11038436D02*
X7415163Y-11028912D01*
X7596115Y-11257484D02*
X7481829Y-11257484D01*
X7538972Y-11257484D02*
X7538972Y-11057484D01*
X7538972Y-11057484D02*
X7519925Y-11086055D01*
X7519925Y-11086055D02*
X7500877Y-11105103D01*
X7500877Y-11105103D02*
X7481829Y-11114627D01*
X7719925Y-11057484D02*
X7738972Y-11057484D01*
X7738972Y-11057484D02*
X7758020Y-11067008D01*
X7758020Y-11067008D02*
X7767544Y-11076531D01*
X7767544Y-11076531D02*
X7777068Y-11095579D01*
X7777068Y-11095579D02*
X7786591Y-11133674D01*
X7786591Y-11133674D02*
X7786591Y-11181293D01*
X7786591Y-11181293D02*
X7777068Y-11219388D01*
X7777068Y-11219388D02*
X7767544Y-11238436D01*
X7767544Y-11238436D02*
X7758020Y-11247960D01*
X7758020Y-11247960D02*
X7738972Y-11257484D01*
X7738972Y-11257484D02*
X7719925Y-11257484D01*
X7719925Y-11257484D02*
X7700877Y-11247960D01*
X7700877Y-11247960D02*
X7691353Y-11238436D01*
X7691353Y-11238436D02*
X7681829Y-11219388D01*
X7681829Y-11219388D02*
X7672306Y-11181293D01*
X7672306Y-11181293D02*
X7672306Y-11133674D01*
X7672306Y-11133674D02*
X7681829Y-11095579D01*
X7681829Y-11095579D02*
X7691353Y-11076531D01*
X7691353Y-11076531D02*
X7700877Y-11067008D01*
X7700877Y-11067008D02*
X7719925Y-11057484D01*
X8024687Y-11257484D02*
X8024687Y-11057484D01*
X8110401Y-11257484D02*
X8110401Y-11152722D01*
X8110401Y-11152722D02*
X8100877Y-11133674D01*
X8100877Y-11133674D02*
X8081830Y-11124150D01*
X8081830Y-11124150D02*
X8053258Y-11124150D01*
X8053258Y-11124150D02*
X8034210Y-11133674D01*
X8034210Y-11133674D02*
X8024687Y-11143198D01*
X8234210Y-11257484D02*
X8215163Y-11247960D01*
X8215163Y-11247960D02*
X8205639Y-11238436D01*
X8205639Y-11238436D02*
X8196115Y-11219388D01*
X8196115Y-11219388D02*
X8196115Y-11162246D01*
X8196115Y-11162246D02*
X8205639Y-11143198D01*
X8205639Y-11143198D02*
X8215163Y-11133674D01*
X8215163Y-11133674D02*
X8234210Y-11124150D01*
X8234210Y-11124150D02*
X8262782Y-11124150D01*
X8262782Y-11124150D02*
X8281830Y-11133674D01*
X8281830Y-11133674D02*
X8291353Y-11143198D01*
X8291353Y-11143198D02*
X8300877Y-11162246D01*
X8300877Y-11162246D02*
X8300877Y-11219388D01*
X8300877Y-11219388D02*
X8291353Y-11238436D01*
X8291353Y-11238436D02*
X8281830Y-11247960D01*
X8281830Y-11247960D02*
X8262782Y-11257484D01*
X8262782Y-11257484D02*
X8234210Y-11257484D01*
X8415163Y-11257484D02*
X8396115Y-11247960D01*
X8396115Y-11247960D02*
X8386591Y-11228912D01*
X8386591Y-11228912D02*
X8386591Y-11057484D01*
X8567544Y-11247960D02*
X8548496Y-11257484D01*
X8548496Y-11257484D02*
X8510401Y-11257484D01*
X8510401Y-11257484D02*
X8491353Y-11247960D01*
X8491353Y-11247960D02*
X8481830Y-11228912D01*
X8481830Y-11228912D02*
X8481830Y-11152722D01*
X8481830Y-11152722D02*
X8491353Y-11133674D01*
X8491353Y-11133674D02*
X8510401Y-11124150D01*
X8510401Y-11124150D02*
X8548496Y-11124150D01*
X8548496Y-11124150D02*
X8567544Y-11133674D01*
X8567544Y-11133674D02*
X8577068Y-11152722D01*
X8577068Y-11152722D02*
X8577068Y-11171770D01*
X8577068Y-11171770D02*
X8481830Y-11190817D01*
X8653258Y-11247960D02*
X8672306Y-11257484D01*
X8672306Y-11257484D02*
X8710401Y-11257484D01*
X8710401Y-11257484D02*
X8729449Y-11247960D01*
X8729449Y-11247960D02*
X8738973Y-11228912D01*
X8738973Y-11228912D02*
X8738973Y-11219388D01*
X8738973Y-11219388D02*
X8729449Y-11200341D01*
X8729449Y-11200341D02*
X8710401Y-11190817D01*
X8710401Y-11190817D02*
X8681830Y-11190817D01*
X8681830Y-11190817D02*
X8662782Y-11181293D01*
X8662782Y-11181293D02*
X8653258Y-11162246D01*
X8653258Y-11162246D02*
X8653258Y-11152722D01*
X8653258Y-11152722D02*
X8662782Y-11133674D01*
X8662782Y-11133674D02*
X8681830Y-11124150D01*
X8681830Y-11124150D02*
X8710401Y-11124150D01*
X8710401Y-11124150D02*
X8729449Y-11133674D01*
X8805639Y-11333674D02*
X8815163Y-11324150D01*
X8815163Y-11324150D02*
X8834211Y-11295579D01*
X8834211Y-11295579D02*
X8843734Y-11276531D01*
X8843734Y-11276531D02*
X8853258Y-11247960D01*
X8853258Y-11247960D02*
X8862782Y-11200341D01*
X8862782Y-11200341D02*
X8862782Y-11162246D01*
X8862782Y-11162246D02*
X8853258Y-11114627D01*
X8853258Y-11114627D02*
X8843734Y-11086055D01*
X8843734Y-11086055D02*
X8834211Y-11067008D01*
X8834211Y-11067008D02*
X8815163Y-11038436D01*
X8815163Y-11038436D02*
X8805639Y-11028912D01*
X9167544Y-11333674D02*
X9158020Y-11324150D01*
X9158020Y-11324150D02*
X9138973Y-11295579D01*
X9138973Y-11295579D02*
X9129449Y-11276531D01*
X9129449Y-11276531D02*
X9119925Y-11247960D01*
X9119925Y-11247960D02*
X9110401Y-11200341D01*
X9110401Y-11200341D02*
X9110401Y-11162246D01*
X9110401Y-11162246D02*
X9119925Y-11114627D01*
X9119925Y-11114627D02*
X9129449Y-11086055D01*
X9129449Y-11086055D02*
X9138973Y-11067008D01*
X9138973Y-11067008D02*
X9158020Y-11038436D01*
X9158020Y-11038436D02*
X9167544Y-11028912D01*
X9243734Y-11124150D02*
X9243734Y-11257484D01*
X9243734Y-11143198D02*
X9253258Y-11133674D01*
X9253258Y-11133674D02*
X9272306Y-11124150D01*
X9272306Y-11124150D02*
X9300877Y-11124150D01*
X9300877Y-11124150D02*
X9319925Y-11133674D01*
X9319925Y-11133674D02*
X9329449Y-11152722D01*
X9329449Y-11152722D02*
X9329449Y-11257484D01*
X9453258Y-11257484D02*
X9434211Y-11247960D01*
X9434211Y-11247960D02*
X9424687Y-11238436D01*
X9424687Y-11238436D02*
X9415163Y-11219388D01*
X9415163Y-11219388D02*
X9415163Y-11162246D01*
X9415163Y-11162246D02*
X9424687Y-11143198D01*
X9424687Y-11143198D02*
X9434211Y-11133674D01*
X9434211Y-11133674D02*
X9453258Y-11124150D01*
X9453258Y-11124150D02*
X9481830Y-11124150D01*
X9481830Y-11124150D02*
X9500877Y-11133674D01*
X9500877Y-11133674D02*
X9510401Y-11143198D01*
X9510401Y-11143198D02*
X9519925Y-11162246D01*
X9519925Y-11162246D02*
X9519925Y-11219388D01*
X9519925Y-11219388D02*
X9510401Y-11238436D01*
X9510401Y-11238436D02*
X9500877Y-11247960D01*
X9500877Y-11247960D02*
X9481830Y-11257484D01*
X9481830Y-11257484D02*
X9453258Y-11257484D01*
X9577068Y-11124150D02*
X9653258Y-11124150D01*
X9605639Y-11057484D02*
X9605639Y-11228912D01*
X9605639Y-11228912D02*
X9615163Y-11247960D01*
X9615163Y-11247960D02*
X9634211Y-11257484D01*
X9634211Y-11257484D02*
X9653258Y-11257484D01*
X9872306Y-11124150D02*
X9872306Y-11324150D01*
X9872306Y-11133674D02*
X9891354Y-11124150D01*
X9891354Y-11124150D02*
X9929449Y-11124150D01*
X9929449Y-11124150D02*
X9948496Y-11133674D01*
X9948496Y-11133674D02*
X9958020Y-11143198D01*
X9958020Y-11143198D02*
X9967544Y-11162246D01*
X9967544Y-11162246D02*
X9967544Y-11219388D01*
X9967544Y-11219388D02*
X9958020Y-11238436D01*
X9958020Y-11238436D02*
X9948496Y-11247960D01*
X9948496Y-11247960D02*
X9929449Y-11257484D01*
X9929449Y-11257484D02*
X9891354Y-11257484D01*
X9891354Y-11257484D02*
X9872306Y-11247960D01*
X10081830Y-11257484D02*
X10062782Y-11247960D01*
X10062782Y-11247960D02*
X10053258Y-11228912D01*
X10053258Y-11228912D02*
X10053258Y-11057484D01*
X10243735Y-11257484D02*
X10243735Y-11152722D01*
X10243735Y-11152722D02*
X10234211Y-11133674D01*
X10234211Y-11133674D02*
X10215163Y-11124150D01*
X10215163Y-11124150D02*
X10177068Y-11124150D01*
X10177068Y-11124150D02*
X10158020Y-11133674D01*
X10243735Y-11247960D02*
X10224687Y-11257484D01*
X10224687Y-11257484D02*
X10177068Y-11257484D01*
X10177068Y-11257484D02*
X10158020Y-11247960D01*
X10158020Y-11247960D02*
X10148496Y-11228912D01*
X10148496Y-11228912D02*
X10148496Y-11209865D01*
X10148496Y-11209865D02*
X10158020Y-11190817D01*
X10158020Y-11190817D02*
X10177068Y-11181293D01*
X10177068Y-11181293D02*
X10224687Y-11181293D01*
X10224687Y-11181293D02*
X10243735Y-11171770D01*
X10310401Y-11124150D02*
X10386592Y-11124150D01*
X10338973Y-11057484D02*
X10338973Y-11228912D01*
X10338973Y-11228912D02*
X10348496Y-11247960D01*
X10348496Y-11247960D02*
X10367544Y-11257484D01*
X10367544Y-11257484D02*
X10386592Y-11257484D01*
X10529449Y-11247960D02*
X10510401Y-11257484D01*
X10510401Y-11257484D02*
X10472306Y-11257484D01*
X10472306Y-11257484D02*
X10453258Y-11247960D01*
X10453258Y-11247960D02*
X10443735Y-11228912D01*
X10443735Y-11228912D02*
X10443735Y-11152722D01*
X10443735Y-11152722D02*
X10453258Y-11133674D01*
X10453258Y-11133674D02*
X10472306Y-11124150D01*
X10472306Y-11124150D02*
X10510401Y-11124150D01*
X10510401Y-11124150D02*
X10529449Y-11133674D01*
X10529449Y-11133674D02*
X10538973Y-11152722D01*
X10538973Y-11152722D02*
X10538973Y-11171770D01*
X10538973Y-11171770D02*
X10443735Y-11190817D01*
X10710401Y-11257484D02*
X10710401Y-11057484D01*
X10710401Y-11247960D02*
X10691354Y-11257484D01*
X10691354Y-11257484D02*
X10653258Y-11257484D01*
X10653258Y-11257484D02*
X10634211Y-11247960D01*
X10634211Y-11247960D02*
X10624687Y-11238436D01*
X10624687Y-11238436D02*
X10615163Y-11219388D01*
X10615163Y-11219388D02*
X10615163Y-11162246D01*
X10615163Y-11162246D02*
X10624687Y-11143198D01*
X10624687Y-11143198D02*
X10634211Y-11133674D01*
X10634211Y-11133674D02*
X10653258Y-11124150D01*
X10653258Y-11124150D02*
X10691354Y-11124150D01*
X10691354Y-11124150D02*
X10710401Y-11133674D01*
X10786592Y-11333674D02*
X10796116Y-11324150D01*
X10796116Y-11324150D02*
X10815163Y-11295579D01*
X10815163Y-11295579D02*
X10824687Y-11276531D01*
X10824687Y-11276531D02*
X10834211Y-11247960D01*
X10834211Y-11247960D02*
X10843735Y-11200341D01*
X10843735Y-11200341D02*
X10843735Y-11162246D01*
X10843735Y-11162246D02*
X10834211Y-11114627D01*
X10834211Y-11114627D02*
X10824687Y-11086055D01*
X10824687Y-11086055D02*
X10815163Y-11067008D01*
X10815163Y-11067008D02*
X10796116Y-11038436D01*
X10796116Y-11038436D02*
X10786592Y-11028912D01*
M02*
