%TF.GenerationSoftware,KiCad,Pcbnew,9.0.5-9.0.5~ubuntu24.04.1*%
%TF.CreationDate,2025-11-01T13:29:22+08:00*%
%TF.ProjectId,TPS2,54505332-2e6b-4696-9361-645f70636258,rev?*%
%TF.SameCoordinates,Original*%
%TF.FileFunction,Copper,L2,Bot*%
%TF.FilePolarity,Positive*%
%FSLAX46Y46*%
G04 Gerber Fmt 4.6, Leading zero omitted, Abs format (unit mm)*
G04 Created by KiCad (PCBNEW 9.0.5-9.0.5~ubuntu24.04.1) date 2025-11-01 13:29:22*
%MOMM*%
%LPD*%
G01*
G04 APERTURE LIST*
G04 APERTURE END LIST*
%TA.AperFunction,NonConductor*%
G36*
X181178736Y-29000726D02*
G01*
X181411068Y-29014779D01*
X181419729Y-29015611D01*
X181471126Y-29022377D01*
X181477239Y-29023339D01*
X181679220Y-29060353D01*
X181688960Y-29062547D01*
X181732404Y-29074187D01*
X181737176Y-29075569D01*
X181940605Y-29138961D01*
X181951158Y-29142782D01*
X181978927Y-29154284D01*
X181982340Y-29155757D01*
X182190319Y-29249360D01*
X182203575Y-29256318D01*
X182289020Y-29307971D01*
X182418045Y-29385970D01*
X182430356Y-29394468D01*
X182627636Y-29549027D01*
X182638844Y-29558957D01*
X182816042Y-29736155D01*
X182825972Y-29747363D01*
X182980527Y-29944637D01*
X182989033Y-29956960D01*
X183118680Y-30171422D01*
X183125639Y-30184681D01*
X183219229Y-30392632D01*
X183220714Y-30396071D01*
X183232216Y-30423840D01*
X183236040Y-30434401D01*
X183299421Y-30637795D01*
X183300811Y-30642594D01*
X183312451Y-30686038D01*
X183314645Y-30695778D01*
X183351655Y-30897735D01*
X183352625Y-30903902D01*
X183359385Y-30955249D01*
X183360220Y-30963946D01*
X183374274Y-31196263D01*
X183374500Y-31203751D01*
X183374500Y-102996248D01*
X183374274Y-103003736D01*
X183360220Y-103236052D01*
X183359385Y-103244749D01*
X183352625Y-103296096D01*
X183351655Y-103302263D01*
X183314645Y-103504220D01*
X183312451Y-103513960D01*
X183300811Y-103557404D01*
X183299421Y-103562203D01*
X183236040Y-103765597D01*
X183232216Y-103776158D01*
X183220714Y-103803927D01*
X183219229Y-103807366D01*
X183125639Y-104015317D01*
X183118680Y-104028576D01*
X182989033Y-104243039D01*
X182980527Y-104255362D01*
X182825972Y-104452636D01*
X182816042Y-104463844D01*
X182638844Y-104641042D01*
X182627636Y-104650972D01*
X182430362Y-104805527D01*
X182418039Y-104814033D01*
X182203576Y-104943680D01*
X182190317Y-104950639D01*
X181982366Y-105044229D01*
X181978927Y-105045714D01*
X181951158Y-105057216D01*
X181940597Y-105061040D01*
X181737203Y-105124421D01*
X181732404Y-105125811D01*
X181688960Y-105137451D01*
X181679220Y-105139645D01*
X181477263Y-105176655D01*
X181471096Y-105177625D01*
X181419749Y-105184385D01*
X181411052Y-105185220D01*
X181187202Y-105198761D01*
X181178735Y-105199274D01*
X181171249Y-105199500D01*
X40664751Y-105199500D01*
X40657264Y-105199274D01*
X40647971Y-105198711D01*
X40424946Y-105185220D01*
X40416249Y-105184385D01*
X40364902Y-105177625D01*
X40358735Y-105176655D01*
X40156778Y-105139645D01*
X40147038Y-105137451D01*
X40103594Y-105125811D01*
X40098795Y-105124421D01*
X39895401Y-105061040D01*
X39884840Y-105057216D01*
X39857071Y-105045714D01*
X39853632Y-105044229D01*
X39645681Y-104950639D01*
X39632422Y-104943680D01*
X39417960Y-104814033D01*
X39405637Y-104805527D01*
X39208363Y-104650972D01*
X39197155Y-104641042D01*
X39019957Y-104463844D01*
X39010027Y-104452636D01*
X38855472Y-104255362D01*
X38846970Y-104243045D01*
X38768971Y-104114020D01*
X38717318Y-104028575D01*
X38710359Y-104015316D01*
X38616769Y-103807366D01*
X38615284Y-103803927D01*
X38603782Y-103776158D01*
X38599958Y-103765597D01*
X38565760Y-103655852D01*
X38536569Y-103562176D01*
X38535187Y-103557404D01*
X38523547Y-103513960D01*
X38521353Y-103504220D01*
X38501773Y-103397376D01*
X38484339Y-103302239D01*
X38483377Y-103296126D01*
X38476611Y-103244729D01*
X38475779Y-103236068D01*
X38461726Y-103003736D01*
X38461500Y-102996249D01*
X38461500Y-86043713D01*
X105824500Y-86043713D01*
X105824500Y-86256286D01*
X105857753Y-86466239D01*
X105923444Y-86668414D01*
X106019951Y-86857820D01*
X106144890Y-87029786D01*
X106295213Y-87180109D01*
X106467179Y-87305048D01*
X106467181Y-87305049D01*
X106467184Y-87305051D01*
X106656588Y-87401557D01*
X106858757Y-87467246D01*
X107068713Y-87500500D01*
X107068714Y-87500500D01*
X107281286Y-87500500D01*
X107281287Y-87500500D01*
X107491243Y-87467246D01*
X107693412Y-87401557D01*
X107882816Y-87305051D01*
X107904789Y-87289086D01*
X108054786Y-87180109D01*
X108054788Y-87180106D01*
X108054792Y-87180104D01*
X108205104Y-87029792D01*
X108205106Y-87029788D01*
X108205109Y-87029786D01*
X108330048Y-86857820D01*
X108330047Y-86857820D01*
X108330051Y-86857816D01*
X108426557Y-86668412D01*
X108492246Y-86466243D01*
X108525500Y-86256287D01*
X108525500Y-86043713D01*
X162974500Y-86043713D01*
X162974500Y-86256286D01*
X163007753Y-86466239D01*
X163073444Y-86668414D01*
X163169951Y-86857820D01*
X163294890Y-87029786D01*
X163445213Y-87180109D01*
X163617179Y-87305048D01*
X163617181Y-87305049D01*
X163617184Y-87305051D01*
X163806588Y-87401557D01*
X164008757Y-87467246D01*
X164218713Y-87500500D01*
X164218714Y-87500500D01*
X164431286Y-87500500D01*
X164431287Y-87500500D01*
X164641243Y-87467246D01*
X164843412Y-87401557D01*
X165032816Y-87305051D01*
X165054789Y-87289086D01*
X165204786Y-87180109D01*
X165204788Y-87180106D01*
X165204792Y-87180104D01*
X165355104Y-87029792D01*
X165355106Y-87029788D01*
X165355109Y-87029786D01*
X165480048Y-86857820D01*
X165480047Y-86857820D01*
X165480051Y-86857816D01*
X165576557Y-86668412D01*
X165642246Y-86466243D01*
X165675500Y-86256287D01*
X165675500Y-86043713D01*
X165642246Y-85833757D01*
X165576557Y-85631588D01*
X165480051Y-85442184D01*
X165480049Y-85442181D01*
X165480048Y-85442179D01*
X165355109Y-85270213D01*
X165204786Y-85119890D01*
X165032820Y-84994951D01*
X164843414Y-84898444D01*
X164843413Y-84898443D01*
X164843412Y-84898443D01*
X164641243Y-84832754D01*
X164641241Y-84832753D01*
X164641240Y-84832753D01*
X164479957Y-84807208D01*
X164431287Y-84799500D01*
X164218713Y-84799500D01*
X164170042Y-84807208D01*
X164008760Y-84832753D01*
X163806585Y-84898444D01*
X163617179Y-84994951D01*
X163445213Y-85119890D01*
X163294890Y-85270213D01*
X163169951Y-85442179D01*
X163073444Y-85631585D01*
X163007753Y-85833760D01*
X162974500Y-86043713D01*
X108525500Y-86043713D01*
X108492246Y-85833757D01*
X108426557Y-85631588D01*
X108330051Y-85442184D01*
X108330049Y-85442181D01*
X108330048Y-85442179D01*
X108205109Y-85270213D01*
X108054786Y-85119890D01*
X107882820Y-84994951D01*
X107693414Y-84898444D01*
X107693413Y-84898443D01*
X107693412Y-84898443D01*
X107491243Y-84832754D01*
X107491241Y-84832753D01*
X107491240Y-84832753D01*
X107329957Y-84807208D01*
X107281287Y-84799500D01*
X107068713Y-84799500D01*
X107020042Y-84807208D01*
X106858760Y-84832753D01*
X106656585Y-84898444D01*
X106467179Y-84994951D01*
X106295213Y-85119890D01*
X106144890Y-85270213D01*
X106019951Y-85442179D01*
X105923444Y-85631585D01*
X105857753Y-85833760D01*
X105824500Y-86043713D01*
X38461500Y-86043713D01*
X38461500Y-47943713D01*
X105824500Y-47943713D01*
X105824500Y-48156286D01*
X105857753Y-48366239D01*
X105923444Y-48568414D01*
X106019951Y-48757820D01*
X106144890Y-48929786D01*
X106295213Y-49080109D01*
X106467179Y-49205048D01*
X106467181Y-49205049D01*
X106467184Y-49205051D01*
X106656588Y-49301557D01*
X106858757Y-49367246D01*
X107068713Y-49400500D01*
X107068714Y-49400500D01*
X107281286Y-49400500D01*
X107281287Y-49400500D01*
X107491243Y-49367246D01*
X107693412Y-49301557D01*
X107882816Y-49205051D01*
X107904789Y-49189086D01*
X108054786Y-49080109D01*
X108054788Y-49080106D01*
X108054792Y-49080104D01*
X108205104Y-48929792D01*
X108205106Y-48929788D01*
X108205109Y-48929786D01*
X108330048Y-48757820D01*
X108330047Y-48757820D01*
X108330051Y-48757816D01*
X108426557Y-48568412D01*
X108492246Y-48366243D01*
X108525500Y-48156287D01*
X108525500Y-47943713D01*
X162974500Y-47943713D01*
X162974500Y-48156286D01*
X163007753Y-48366239D01*
X163073444Y-48568414D01*
X163169951Y-48757820D01*
X163294890Y-48929786D01*
X163445213Y-49080109D01*
X163617179Y-49205048D01*
X163617181Y-49205049D01*
X163617184Y-49205051D01*
X163806588Y-49301557D01*
X164008757Y-49367246D01*
X164218713Y-49400500D01*
X164218714Y-49400500D01*
X164431286Y-49400500D01*
X164431287Y-49400500D01*
X164641243Y-49367246D01*
X164843412Y-49301557D01*
X165032816Y-49205051D01*
X165054789Y-49189086D01*
X165204786Y-49080109D01*
X165204788Y-49080106D01*
X165204792Y-49080104D01*
X165355104Y-48929792D01*
X165355106Y-48929788D01*
X165355109Y-48929786D01*
X165480048Y-48757820D01*
X165480047Y-48757820D01*
X165480051Y-48757816D01*
X165576557Y-48568412D01*
X165642246Y-48366243D01*
X165675500Y-48156287D01*
X165675500Y-47943713D01*
X165642246Y-47733757D01*
X165576557Y-47531588D01*
X165480051Y-47342184D01*
X165480049Y-47342181D01*
X165480048Y-47342179D01*
X165355109Y-47170213D01*
X165204786Y-47019890D01*
X165032820Y-46894951D01*
X164843414Y-46798444D01*
X164843413Y-46798443D01*
X164843412Y-46798443D01*
X164641243Y-46732754D01*
X164641241Y-46732753D01*
X164641240Y-46732753D01*
X164479957Y-46707208D01*
X164431287Y-46699500D01*
X164218713Y-46699500D01*
X164170042Y-46707208D01*
X164008760Y-46732753D01*
X163806585Y-46798444D01*
X163617179Y-46894951D01*
X163445213Y-47019890D01*
X163294890Y-47170213D01*
X163169951Y-47342179D01*
X163073444Y-47531585D01*
X163007753Y-47733760D01*
X162974500Y-47943713D01*
X108525500Y-47943713D01*
X108492246Y-47733757D01*
X108426557Y-47531588D01*
X108330051Y-47342184D01*
X108330049Y-47342181D01*
X108330048Y-47342179D01*
X108205109Y-47170213D01*
X108054786Y-47019890D01*
X107882820Y-46894951D01*
X107693414Y-46798444D01*
X107693413Y-46798443D01*
X107693412Y-46798443D01*
X107491243Y-46732754D01*
X107491241Y-46732753D01*
X107491240Y-46732753D01*
X107329957Y-46707208D01*
X107281287Y-46699500D01*
X107068713Y-46699500D01*
X107020042Y-46707208D01*
X106858760Y-46732753D01*
X106656585Y-46798444D01*
X106467179Y-46894951D01*
X106295213Y-47019890D01*
X106144890Y-47170213D01*
X106019951Y-47342179D01*
X105923444Y-47531585D01*
X105857753Y-47733760D01*
X105824500Y-47943713D01*
X38461500Y-47943713D01*
X38461500Y-31203750D01*
X38461726Y-31196263D01*
X38475780Y-30963923D01*
X38476610Y-30955275D01*
X38483379Y-30903861D01*
X38484337Y-30897772D01*
X38521355Y-30695769D01*
X38523547Y-30686038D01*
X38525453Y-30678923D01*
X38535195Y-30642564D01*
X38536560Y-30637850D01*
X38599965Y-30434379D01*
X38603777Y-30423853D01*
X38615307Y-30396017D01*
X38616736Y-30392707D01*
X38710367Y-30184666D01*
X38717312Y-30171433D01*
X38846975Y-29956946D01*
X38855462Y-29944650D01*
X39010034Y-29747354D01*
X39019949Y-29736163D01*
X39197163Y-29558949D01*
X39208354Y-29549034D01*
X39405650Y-29394462D01*
X39417946Y-29385975D01*
X39632433Y-29256312D01*
X39645666Y-29249367D01*
X39853707Y-29155736D01*
X39857017Y-29154307D01*
X39884853Y-29142777D01*
X39895379Y-29138965D01*
X40098850Y-29075560D01*
X40103564Y-29074195D01*
X40147038Y-29062547D01*
X40156769Y-29060355D01*
X40358772Y-29023337D01*
X40364861Y-29022379D01*
X40416275Y-29015610D01*
X40424925Y-29014780D01*
X40657264Y-29000726D01*
X40664751Y-29000500D01*
X181171249Y-29000500D01*
X181178736Y-29000726D01*
G37*
%TD.AperFunction*%
M02*
