%TF.GenerationSoftware,KiCad,Pcbnew,9.0.5-9.0.5~ubuntu24.04.1*%
%TF.CreationDate,2025-11-03T22:08:34+08:00*%
%TF.ProjectId,TPS2,54505332-2e6b-4696-9361-645f70636258,rev?*%
%TF.SameCoordinates,Original*%
%TF.FileFunction,Profile,NP*%
%FSLAX46Y46*%
G04 Gerber Fmt 4.6, Leading zero omitted, Abs format (unit mm)*
G04 Created by KiCad (PCBNEW 9.0.5-9.0.5~ubuntu24.04.1) date 2025-11-03 22:08:34*
%MOMM*%
%LPD*%
G01*
G04 APERTURE LIST*
%TA.AperFunction,Profile*%
%ADD10C,0.100000*%
%TD*%
%TA.AperFunction,Profile*%
%ADD11C,0.050000*%
%TD*%
G04 APERTURE END LIST*
D10*
X181174676Y-28999911D02*
G75*
G02*
X183374689Y-31199911I24J-2199989D01*
G01*
X88124690Y-122049911D02*
X88124676Y-31199911D01*
X90324676Y-124249911D02*
X181174676Y-124249911D01*
X183374676Y-122049911D02*
G75*
G02*
X181174676Y-124249876I-2199976J11D01*
G01*
X90324676Y-124249911D02*
G75*
G02*
X88124689Y-122049911I24J2200011D01*
G01*
X90324676Y-28999911D02*
X181174676Y-28999911D01*
X88124676Y-31199911D02*
G75*
G02*
X90324676Y-28999876I2200024J11D01*
G01*
X183374676Y-31207463D02*
X183374676Y-122049911D01*
D11*
%TO.C,L19*%
X166799698Y-70574933D02*
X166799698Y-82674889D01*
X167799698Y-69574933D02*
X179899654Y-69574933D01*
X167799698Y-83674889D02*
X179899654Y-83674889D01*
X180899654Y-70574933D02*
X180899654Y-82674889D01*
X166799698Y-70574933D02*
G75*
G02*
X167799698Y-69574933I999999J1D01*
G01*
X167799698Y-83674889D02*
G75*
G02*
X166799698Y-82674889I-1J999999D01*
G01*
X179899654Y-69574933D02*
G75*
G02*
X180899654Y-70574933I2J-999998D01*
G01*
X180899654Y-82674889D02*
G75*
G02*
X179899654Y-83674889I-999998J-2D01*
G01*
%TO.C,L2*%
X90599698Y-51524933D02*
X90599698Y-63624889D01*
X91599698Y-50524933D02*
X103699654Y-50524933D01*
X91599698Y-64624889D02*
X103699654Y-64624889D01*
X104699654Y-51524933D02*
X104699654Y-63624889D01*
X90599698Y-51524933D02*
G75*
G02*
X91599698Y-50524933I999999J1D01*
G01*
X91599698Y-64624889D02*
G75*
G02*
X90599698Y-63624889I-1J999999D01*
G01*
X103699654Y-50524933D02*
G75*
G02*
X104699654Y-51524933I2J-999998D01*
G01*
X104699654Y-63624889D02*
G75*
G02*
X103699654Y-64624889I-999998J-2D01*
G01*
%TO.C,L14*%
X147749698Y-51524933D02*
X147749698Y-63624889D01*
X148749698Y-50524933D02*
X160849654Y-50524933D01*
X148749698Y-64624889D02*
X160849654Y-64624889D01*
X161849654Y-51524933D02*
X161849654Y-63624889D01*
X147749698Y-51524933D02*
G75*
G02*
X148749698Y-50524933I999999J1D01*
G01*
X148749698Y-64624889D02*
G75*
G02*
X147749698Y-63624889I-1J999999D01*
G01*
X160849654Y-50524933D02*
G75*
G02*
X161849654Y-51524933I2J-999998D01*
G01*
X161849654Y-63624889D02*
G75*
G02*
X160849654Y-64624889I-999998J-2D01*
G01*
%TO.C,L29*%
X166799698Y-108674933D02*
X166799698Y-120774889D01*
X167799698Y-107674933D02*
X179899654Y-107674933D01*
X167799698Y-121774889D02*
X179899654Y-121774889D01*
X180899654Y-108674933D02*
X180899654Y-120774889D01*
X166799698Y-108674933D02*
G75*
G02*
X167799698Y-107674933I999999J1D01*
G01*
X167799698Y-121774889D02*
G75*
G02*
X166799698Y-120774889I-1J999999D01*
G01*
X179899654Y-107674933D02*
G75*
G02*
X180899654Y-108674933I2J-999998D01*
G01*
X180899654Y-120774889D02*
G75*
G02*
X179899654Y-121774889I-999998J-2D01*
G01*
%TO.C,L7*%
X109649698Y-70574933D02*
X109649698Y-82674889D01*
X110649698Y-69574933D02*
X122749654Y-69574933D01*
X110649698Y-83674889D02*
X122749654Y-83674889D01*
X123749654Y-70574933D02*
X123749654Y-82674889D01*
X109649698Y-70574933D02*
G75*
G02*
X110649698Y-69574933I999999J1D01*
G01*
X110649698Y-83674889D02*
G75*
G02*
X109649698Y-82674889I-1J999999D01*
G01*
X122749654Y-69574933D02*
G75*
G02*
X123749654Y-70574933I2J-999998D01*
G01*
X123749654Y-82674889D02*
G75*
G02*
X122749654Y-83674889I-999998J-2D01*
G01*
%TO.C,L16*%
X147749698Y-89624933D02*
X147749698Y-101724889D01*
X148749698Y-88624933D02*
X160849654Y-88624933D01*
X148749698Y-102724889D02*
X160849654Y-102724889D01*
X161849654Y-89624933D02*
X161849654Y-101724889D01*
X147749698Y-89624933D02*
G75*
G02*
X148749698Y-88624933I999999J1D01*
G01*
X148749698Y-102724889D02*
G75*
G02*
X147749698Y-101724889I-1J999999D01*
G01*
X160849654Y-88624933D02*
G75*
G02*
X161849654Y-89624933I2J-999998D01*
G01*
X161849654Y-101724889D02*
G75*
G02*
X160849654Y-102724889I-999998J-2D01*
G01*
%TO.C,L10*%
X128699698Y-51524933D02*
X128699698Y-63624889D01*
X129699698Y-50524933D02*
X141799654Y-50524933D01*
X129699698Y-64624889D02*
X141799654Y-64624889D01*
X142799654Y-51524933D02*
X142799654Y-63624889D01*
X128699698Y-51524933D02*
G75*
G02*
X129699698Y-50524933I999999J1D01*
G01*
X129699698Y-64624889D02*
G75*
G02*
X128699698Y-63624889I-1J999999D01*
G01*
X141799654Y-50524933D02*
G75*
G02*
X142799654Y-51524933I2J-999998D01*
G01*
X142799654Y-63624889D02*
G75*
G02*
X141799654Y-64624889I-999998J-2D01*
G01*
%TO.C,L20*%
X166799698Y-89624933D02*
X166799698Y-101724889D01*
X167799698Y-88624933D02*
X179899654Y-88624933D01*
X167799698Y-102724889D02*
X179899654Y-102724889D01*
X180899654Y-89624933D02*
X180899654Y-101724889D01*
X166799698Y-89624933D02*
G75*
G02*
X167799698Y-88624933I999999J1D01*
G01*
X167799698Y-102724889D02*
G75*
G02*
X166799698Y-101724889I-1J999999D01*
G01*
X179899654Y-88624933D02*
G75*
G02*
X180899654Y-89624933I2J-999998D01*
G01*
X180899654Y-101724889D02*
G75*
G02*
X179899654Y-102724889I-999998J-2D01*
G01*
%TO.C,L25*%
X90599698Y-108674933D02*
X90599698Y-120774889D01*
X91599698Y-107674933D02*
X103699654Y-107674933D01*
X91599698Y-121774889D02*
X103699654Y-121774889D01*
X104699654Y-108674933D02*
X104699654Y-120774889D01*
X90599698Y-108674933D02*
G75*
G02*
X91599698Y-107674933I999999J1D01*
G01*
X91599698Y-121774889D02*
G75*
G02*
X90599698Y-120774889I-1J999999D01*
G01*
X103699654Y-107674933D02*
G75*
G02*
X104699654Y-108674933I2J-999998D01*
G01*
X104699654Y-120774889D02*
G75*
G02*
X103699654Y-121774889I-999998J-2D01*
G01*
%TO.C,L18*%
X166799698Y-51524933D02*
X166799698Y-63624889D01*
X167799698Y-50524933D02*
X179899654Y-50524933D01*
X167799698Y-64624889D02*
X179899654Y-64624889D01*
X180899654Y-51524933D02*
X180899654Y-63624889D01*
X166799698Y-51524933D02*
G75*
G02*
X167799698Y-50524933I999999J1D01*
G01*
X167799698Y-64624889D02*
G75*
G02*
X166799698Y-63624889I-1J999999D01*
G01*
X179899654Y-50524933D02*
G75*
G02*
X180899654Y-51524933I2J-999998D01*
G01*
X180899654Y-63624889D02*
G75*
G02*
X179899654Y-64624889I-999998J-2D01*
G01*
%TO.C,L4*%
X90599698Y-89624933D02*
X90599698Y-101724889D01*
X91599698Y-88624933D02*
X103699654Y-88624933D01*
X91599698Y-102724889D02*
X103699654Y-102724889D01*
X104699654Y-89624933D02*
X104699654Y-101724889D01*
X90599698Y-89624933D02*
G75*
G02*
X91599698Y-88624933I999999J1D01*
G01*
X91599698Y-102724889D02*
G75*
G02*
X90599698Y-101724889I-1J999999D01*
G01*
X103699654Y-88624933D02*
G75*
G02*
X104699654Y-89624933I2J-999998D01*
G01*
X104699654Y-101724889D02*
G75*
G02*
X103699654Y-102724889I-999998J-2D01*
G01*
%TO.C,L26*%
X109649698Y-108674933D02*
X109649698Y-120774889D01*
X110649698Y-107674933D02*
X122749654Y-107674933D01*
X110649698Y-121774889D02*
X122749654Y-121774889D01*
X123749654Y-108674933D02*
X123749654Y-120774889D01*
X109649698Y-108674933D02*
G75*
G02*
X110649698Y-107674933I999999J1D01*
G01*
X110649698Y-121774889D02*
G75*
G02*
X109649698Y-120774889I-1J999999D01*
G01*
X122749654Y-107674933D02*
G75*
G02*
X123749654Y-108674933I2J-999998D01*
G01*
X123749654Y-120774889D02*
G75*
G02*
X122749654Y-121774889I-999998J-2D01*
G01*
%TO.C,L13*%
X147749698Y-32474933D02*
X147749698Y-44574889D01*
X148749698Y-31474933D02*
X160849654Y-31474933D01*
X148749698Y-45574889D02*
X160849654Y-45574889D01*
X161849654Y-32474933D02*
X161849654Y-44574889D01*
X147749698Y-32474933D02*
G75*
G02*
X148749698Y-31474933I999999J1D01*
G01*
X148749698Y-45574889D02*
G75*
G02*
X147749698Y-44574889I-1J999999D01*
G01*
X160849654Y-31474933D02*
G75*
G02*
X161849654Y-32474933I2J-999998D01*
G01*
X161849654Y-44574889D02*
G75*
G02*
X160849654Y-45574889I-999998J-2D01*
G01*
%TO.C,L6*%
X109649698Y-51524933D02*
X109649698Y-63624889D01*
X110649698Y-50524933D02*
X122749654Y-50524933D01*
X110649698Y-64624889D02*
X122749654Y-64624889D01*
X123749654Y-51524933D02*
X123749654Y-63624889D01*
X109649698Y-51524933D02*
G75*
G02*
X110649698Y-50524933I999999J1D01*
G01*
X110649698Y-64624889D02*
G75*
G02*
X109649698Y-63624889I-1J999999D01*
G01*
X122749654Y-50524933D02*
G75*
G02*
X123749654Y-51524933I2J-999998D01*
G01*
X123749654Y-63624889D02*
G75*
G02*
X122749654Y-64624889I-999998J-2D01*
G01*
%TO.C,L1*%
X90599698Y-32474933D02*
X90599698Y-44574889D01*
X91599698Y-31474933D02*
X103699654Y-31474933D01*
X91599698Y-45574889D02*
X103699654Y-45574889D01*
X104699654Y-32474933D02*
X104699654Y-44574889D01*
X90599698Y-32474933D02*
G75*
G02*
X91599698Y-31474933I999999J1D01*
G01*
X91599698Y-45574889D02*
G75*
G02*
X90599698Y-44574889I-1J999999D01*
G01*
X103699654Y-31474933D02*
G75*
G02*
X104699654Y-32474933I2J-999998D01*
G01*
X104699654Y-44574889D02*
G75*
G02*
X103699654Y-45574889I-999998J-2D01*
G01*
%TO.C,L17*%
X166799698Y-32474933D02*
X166799698Y-44574889D01*
X167799698Y-31474933D02*
X179899654Y-31474933D01*
X167799698Y-45574889D02*
X179899654Y-45574889D01*
X180899654Y-32474933D02*
X180899654Y-44574889D01*
X166799698Y-32474933D02*
G75*
G02*
X167799698Y-31474933I999999J1D01*
G01*
X167799698Y-45574889D02*
G75*
G02*
X166799698Y-44574889I-1J999999D01*
G01*
X179899654Y-31474933D02*
G75*
G02*
X180899654Y-32474933I2J-999998D01*
G01*
X180899654Y-44574889D02*
G75*
G02*
X179899654Y-45574889I-999998J-2D01*
G01*
%TO.C,L5*%
X109649698Y-32474933D02*
X109649698Y-44574889D01*
X110649698Y-31474933D02*
X122749654Y-31474933D01*
X110649698Y-45574889D02*
X122749654Y-45574889D01*
X123749654Y-32474933D02*
X123749654Y-44574889D01*
X109649698Y-32474933D02*
G75*
G02*
X110649698Y-31474933I999999J1D01*
G01*
X110649698Y-45574889D02*
G75*
G02*
X109649698Y-44574889I-1J999999D01*
G01*
X122749654Y-31474933D02*
G75*
G02*
X123749654Y-32474933I2J-999998D01*
G01*
X123749654Y-44574889D02*
G75*
G02*
X122749654Y-45574889I-999998J-2D01*
G01*
%TO.C,L27*%
X128699698Y-108674933D02*
X128699698Y-120774889D01*
X129699698Y-107674933D02*
X141799654Y-107674933D01*
X129699698Y-121774889D02*
X141799654Y-121774889D01*
X142799654Y-108674933D02*
X142799654Y-120774889D01*
X128699698Y-108674933D02*
G75*
G02*
X129699698Y-107674933I999999J1D01*
G01*
X129699698Y-121774889D02*
G75*
G02*
X128699698Y-120774889I-1J999999D01*
G01*
X141799654Y-107674933D02*
G75*
G02*
X142799654Y-108674933I2J-999998D01*
G01*
X142799654Y-120774889D02*
G75*
G02*
X141799654Y-121774889I-999998J-2D01*
G01*
%TO.C,L3*%
X90599698Y-70574933D02*
X90599698Y-82674889D01*
X91599698Y-69574933D02*
X103699654Y-69574933D01*
X91599698Y-83674889D02*
X103699654Y-83674889D01*
X104699654Y-70574933D02*
X104699654Y-82674889D01*
X90599698Y-70574933D02*
G75*
G02*
X91599698Y-69574933I999999J1D01*
G01*
X91599698Y-83674889D02*
G75*
G02*
X90599698Y-82674889I-1J999999D01*
G01*
X103699654Y-69574933D02*
G75*
G02*
X104699654Y-70574933I2J-999998D01*
G01*
X104699654Y-82674889D02*
G75*
G02*
X103699654Y-83674889I-999998J-2D01*
G01*
%TO.C,L12*%
X128699698Y-89624933D02*
X128699698Y-101724889D01*
X129699698Y-88624933D02*
X141799654Y-88624933D01*
X129699698Y-102724889D02*
X141799654Y-102724889D01*
X142799654Y-89624933D02*
X142799654Y-101724889D01*
X128699698Y-89624933D02*
G75*
G02*
X129699698Y-88624933I999999J1D01*
G01*
X129699698Y-102724889D02*
G75*
G02*
X128699698Y-101724889I-1J999999D01*
G01*
X141799654Y-88624933D02*
G75*
G02*
X142799654Y-89624933I2J-999998D01*
G01*
X142799654Y-101724889D02*
G75*
G02*
X141799654Y-102724889I-999998J-2D01*
G01*
%TO.C,L9*%
X128699698Y-32474933D02*
X128699698Y-44574889D01*
X129699698Y-31474933D02*
X141799654Y-31474933D01*
X129699698Y-45574889D02*
X141799654Y-45574889D01*
X142799654Y-32474933D02*
X142799654Y-44574889D01*
X128699698Y-32474933D02*
G75*
G02*
X129699698Y-31474933I999999J1D01*
G01*
X129699698Y-45574889D02*
G75*
G02*
X128699698Y-44574889I-1J999999D01*
G01*
X141799654Y-31474933D02*
G75*
G02*
X142799654Y-32474933I2J-999998D01*
G01*
X142799654Y-44574889D02*
G75*
G02*
X141799654Y-45574889I-999998J-2D01*
G01*
%TO.C,L28*%
X147749698Y-108674933D02*
X147749698Y-120774889D01*
X148749698Y-107674933D02*
X160849654Y-107674933D01*
X148749698Y-121774889D02*
X160849654Y-121774889D01*
X161849654Y-108674933D02*
X161849654Y-120774889D01*
X147749698Y-108674933D02*
G75*
G02*
X148749698Y-107674933I999999J1D01*
G01*
X148749698Y-121774889D02*
G75*
G02*
X147749698Y-120774889I-1J999999D01*
G01*
X160849654Y-107674933D02*
G75*
G02*
X161849654Y-108674933I2J-999998D01*
G01*
X161849654Y-120774889D02*
G75*
G02*
X160849654Y-121774889I-999998J-2D01*
G01*
%TO.C,L11*%
X128699698Y-70574933D02*
X128699698Y-82674889D01*
X129699698Y-69574933D02*
X141799654Y-69574933D01*
X129699698Y-83674889D02*
X141799654Y-83674889D01*
X142799654Y-70574933D02*
X142799654Y-82674889D01*
X128699698Y-70574933D02*
G75*
G02*
X129699698Y-69574933I999999J1D01*
G01*
X129699698Y-83674889D02*
G75*
G02*
X128699698Y-82674889I-1J999999D01*
G01*
X141799654Y-69574933D02*
G75*
G02*
X142799654Y-70574933I2J-999998D01*
G01*
X142799654Y-82674889D02*
G75*
G02*
X141799654Y-83674889I-999998J-2D01*
G01*
%TO.C,L8*%
X109649698Y-89624933D02*
X109649698Y-101724889D01*
X110649698Y-88624933D02*
X122749654Y-88624933D01*
X110649698Y-102724889D02*
X122749654Y-102724889D01*
X123749654Y-89624933D02*
X123749654Y-101724889D01*
X109649698Y-89624933D02*
G75*
G02*
X110649698Y-88624933I999999J1D01*
G01*
X110649698Y-102724889D02*
G75*
G02*
X109649698Y-101724889I-1J999999D01*
G01*
X122749654Y-88624933D02*
G75*
G02*
X123749654Y-89624933I2J-999998D01*
G01*
X123749654Y-101724889D02*
G75*
G02*
X122749654Y-102724889I-999998J-2D01*
G01*
%TO.C,L15*%
X147749698Y-70574933D02*
X147749698Y-82674889D01*
X148749698Y-69574933D02*
X160849654Y-69574933D01*
X148749698Y-83674889D02*
X160849654Y-83674889D01*
X161849654Y-70574933D02*
X161849654Y-82674889D01*
X147749698Y-70574933D02*
G75*
G02*
X148749698Y-69574933I999999J1D01*
G01*
X148749698Y-83674889D02*
G75*
G02*
X147749698Y-82674889I-1J999999D01*
G01*
X160849654Y-69574933D02*
G75*
G02*
X161849654Y-70574933I2J-999998D01*
G01*
X161849654Y-82674889D02*
G75*
G02*
X160849654Y-83674889I-999998J-2D01*
G01*
%TD*%
M02*
