%TF.GenerationSoftware,KiCad,Pcbnew,7.0.5*%
%TF.CreationDate,2024-08-02T10:00:01+08:00*%
%TF.ProjectId,TPS,5450532e-6b69-4636-9164-5f7063625858,rev?*%
%TF.SameCoordinates,Original*%
%TF.FileFunction,Soldermask,Top*%
%TF.FilePolarity,Negative*%
%FSLAX46Y46*%
G04 Gerber Fmt 4.6, Leading zero omitted, Abs format (unit mm)*
G04 Created by KiCad (PCBNEW 7.0.5) date 2024-08-02 10:00:01*
%MOMM*%
%LPD*%
G01*
G04 APERTURE LIST*
G04 Aperture macros list*
%AMRoundRect*
0 Rectangle with rounded corners*
0 $1 Rounding radius*
0 $2 $3 $4 $5 $6 $7 $8 $9 X,Y pos of 4 corners*
0 Add a 4 corners polygon primitive as box body*
4,1,4,$2,$3,$4,$5,$6,$7,$8,$9,$2,$3,0*
0 Add four circle primitives for the rounded corners*
1,1,$1+$1,$2,$3*
1,1,$1+$1,$4,$5*
1,1,$1+$1,$6,$7*
1,1,$1+$1,$8,$9*
0 Add four rect primitives between the rounded corners*
20,1,$1+$1,$2,$3,$4,$5,0*
20,1,$1+$1,$4,$5,$6,$7,0*
20,1,$1+$1,$6,$7,$8,$9,0*
20,1,$1+$1,$8,$9,$2,$3,0*%
%AMHorizOval*
0 Thick line with rounded ends*
0 $1 width*
0 $2 $3 position (X,Y) of the first rounded end (center of the circle)*
0 $4 $5 position (X,Y) of the second rounded end (center of the circle)*
0 Add line between two ends*
20,1,$1,$2,$3,$4,$5,0*
0 Add two circle primitives to create the rounded ends*
1,1,$1,$2,$3*
1,1,$1,$4,$5*%
%AMOutline4P*
0 Free polygon, 4 corners , with rotation*
0 The origin of the aperture is its center*
0 number of corners: always 4*
0 $1 to $8 corner X, Y*
0 $9 Rotation angle, in degrees counterclockwise*
0 create outline with 4 corners*
4,1,4,$1,$2,$3,$4,$5,$6,$7,$8,$1,$2,$9*%
%AMFreePoly0*
4,1,19,0.500000,-0.750000,0.000000,-0.750000,0.000000,-0.744911,-0.071157,-0.744911,-0.207708,-0.704816,-0.327430,-0.627875,-0.420627,-0.520320,-0.479746,-0.390866,-0.500000,-0.250000,-0.500000,0.250000,-0.479746,0.390866,-0.420627,0.520320,-0.327430,0.627875,-0.207708,0.704816,-0.071157,0.744911,0.000000,0.744911,0.000000,0.750000,0.500000,0.750000,0.500000,-0.750000,0.500000,-0.750000,
$1*%
%AMFreePoly1*
4,1,19,0.000000,0.744911,0.071157,0.744911,0.207708,0.704816,0.327430,0.627875,0.420627,0.520320,0.479746,0.390866,0.500000,0.250000,0.500000,-0.250000,0.479746,-0.390866,0.420627,-0.520320,0.327430,-0.627875,0.207708,-0.704816,0.071157,-0.744911,0.000000,-0.744911,0.000000,-0.750000,-0.500000,-0.750000,-0.500000,0.750000,0.000000,0.750000,0.000000,0.744911,0.000000,0.744911,
$1*%
G04 Aperture macros list end*
%ADD10C,1.900000*%
%ADD11C,3.050000*%
%ADD12C,5.100000*%
%ADD13C,3.600000*%
%ADD14RoundRect,0.250000X-1.000000X-1.000000X1.000000X-1.000000X1.000000X1.000000X-1.000000X1.000000X0*%
%ADD15C,3.500000*%
%ADD16RoundRect,0.225000X0.225000X0.375000X-0.225000X0.375000X-0.225000X-0.375000X0.225000X-0.375000X0*%
%ADD17HorizOval,2.200000X0.989949X0.989949X-0.989949X-0.989949X0*%
%ADD18C,2.200000*%
%ADD19C,0.800000*%
%ADD20O,1.500000X1.900000*%
%ADD21O,1.500000X1.800000*%
%ADD22FreePoly0,90.000000*%
%ADD23FreePoly1,90.000000*%
%ADD24O,3.200000X2.000000*%
%ADD25C,2.000000*%
%ADD26C,1.400000*%
%ADD27O,1.400000X1.400000*%
%ADD28HorizOval,2.200000X-0.989949X-0.989949X0.989949X0.989949X0*%
%ADD29R,1.500000X1.000000*%
%ADD30HorizOval,2.200000X-0.989949X0.989949X0.989949X-0.989949X0*%
%ADD31C,1.700000*%
%ADD32O,1.700000X1.700000*%
%ADD33R,1.800000X2.200000*%
%ADD34R,0.300000X1.300000*%
%ADD35C,1.752600*%
%ADD36RoundRect,0.438150X0.438150X0.438150X-0.438150X0.438150X-0.438150X-0.438150X0.438150X-0.438150X0*%
%ADD37Outline4P,-0.876300X-0.876300X0.876300X-0.876300X0.876300X0.876300X-0.876300X0.876300X180.000000*%
G04 APERTURE END LIST*
D10*
%TO.C,SW16*%
X149300000Y-95675000D03*
D11*
X154800000Y-89775000D03*
D12*
X154800000Y-95675000D03*
D10*
X160300000Y-95675000D03*
D13*
X157400000Y-101425000D03*
D14*
X158100000Y-89675000D03*
D13*
X159200000Y-100375000D03*
X159800000Y-91875000D03*
D14*
X162840000Y-100375000D03*
X146700000Y-91875000D03*
X148525000Y-101425000D03*
D13*
X149800000Y-91875000D03*
X150400000Y-100375000D03*
X152200000Y-101425000D03*
%TD*%
D10*
%TO.C,SW3*%
X92150000Y-76625000D03*
D11*
X97650000Y-70725000D03*
D12*
X97650000Y-76625000D03*
D10*
X103150000Y-76625000D03*
D13*
X100250000Y-82375000D03*
D14*
X100950000Y-70625000D03*
D13*
X102050000Y-81325000D03*
X102650000Y-72825000D03*
D14*
X105690000Y-81325000D03*
X89550000Y-72825000D03*
X91375000Y-82375000D03*
D13*
X92650000Y-72825000D03*
X93250000Y-81325000D03*
X95050000Y-82375000D03*
%TD*%
D10*
%TO.C,SW4*%
X92150000Y-95675000D03*
D11*
X97650000Y-89775000D03*
D12*
X97650000Y-95675000D03*
D10*
X103150000Y-95675000D03*
D13*
X100250000Y-101425000D03*
D14*
X100950000Y-89675000D03*
D13*
X102050000Y-100375000D03*
X102650000Y-91875000D03*
D14*
X105690000Y-100375000D03*
X89550000Y-91875000D03*
X91375000Y-101425000D03*
D13*
X92650000Y-91875000D03*
X93250000Y-100375000D03*
X95050000Y-101425000D03*
%TD*%
D10*
%TO.C,SW1*%
X92150000Y-38525000D03*
D11*
X97650000Y-32625000D03*
D12*
X97650000Y-38525000D03*
D10*
X103150000Y-38525000D03*
D13*
X100250000Y-44275000D03*
D14*
X100950000Y-32525000D03*
D13*
X102050000Y-43225000D03*
X102650000Y-34725000D03*
D14*
X105690000Y-43225000D03*
X89550000Y-34725000D03*
X91375000Y-44275000D03*
D13*
X92650000Y-34725000D03*
X93250000Y-43225000D03*
X95050000Y-44275000D03*
%TD*%
D10*
%TO.C,SW7*%
X111200000Y-76625000D03*
D11*
X116700000Y-70725000D03*
D12*
X116700000Y-76625000D03*
D10*
X122200000Y-76625000D03*
D13*
X119300000Y-82375000D03*
D14*
X120000000Y-70625000D03*
D13*
X121100000Y-81325000D03*
X121700000Y-72825000D03*
D14*
X124740000Y-81325000D03*
X108600000Y-72825000D03*
X110425000Y-82375000D03*
D13*
X111700000Y-72825000D03*
X112300000Y-81325000D03*
X114100000Y-82375000D03*
%TD*%
D10*
%TO.C,SW9*%
X130250000Y-38525000D03*
D11*
X135750000Y-32625000D03*
D12*
X135750000Y-38525000D03*
D10*
X141250000Y-38525000D03*
D13*
X138350000Y-44275000D03*
D14*
X139050000Y-32525000D03*
D13*
X140150000Y-43225000D03*
X140750000Y-34725000D03*
D14*
X143790000Y-43225000D03*
X127650000Y-34725000D03*
X129475000Y-44275000D03*
D13*
X130750000Y-34725000D03*
X131350000Y-43225000D03*
X133150000Y-44275000D03*
%TD*%
D10*
%TO.C,SW17*%
X168350000Y-38525000D03*
D11*
X173850000Y-32625000D03*
D12*
X173850000Y-38525000D03*
D10*
X179350000Y-38525000D03*
D13*
X176450000Y-44275000D03*
D14*
X177150000Y-32525000D03*
D13*
X178250000Y-43225000D03*
X178850000Y-34725000D03*
D14*
X181890000Y-43225000D03*
X165750000Y-34725000D03*
X167575000Y-44275000D03*
D13*
X168850000Y-34725000D03*
X169450000Y-43225000D03*
X171250000Y-44275000D03*
%TD*%
D10*
%TO.C,SW22*%
X187400000Y-57575000D03*
D11*
X192900000Y-51675000D03*
D12*
X192900000Y-57575000D03*
D10*
X198400000Y-57575000D03*
D13*
X195500000Y-63325000D03*
D14*
X196200000Y-51575000D03*
D13*
X197300000Y-62275000D03*
X197900000Y-53775000D03*
D14*
X200940000Y-62275000D03*
X184800000Y-53775000D03*
X186625000Y-63325000D03*
D13*
X187900000Y-53775000D03*
X188500000Y-62275000D03*
X190300000Y-63325000D03*
%TD*%
D10*
%TO.C,SW21*%
X187400000Y-38525000D03*
D11*
X192900000Y-32625000D03*
D12*
X192900000Y-38525000D03*
D10*
X198400000Y-38525000D03*
D13*
X195500000Y-44275000D03*
D14*
X196200000Y-32525000D03*
D13*
X197300000Y-43225000D03*
X197900000Y-34725000D03*
D14*
X200940000Y-43225000D03*
X184800000Y-34725000D03*
X186625000Y-44275000D03*
D13*
X187900000Y-34725000D03*
X188500000Y-43225000D03*
X190300000Y-44275000D03*
%TD*%
D10*
%TO.C,SW23*%
X187400000Y-76625000D03*
D11*
X192900000Y-70725000D03*
D12*
X192900000Y-76625000D03*
D10*
X198400000Y-76625000D03*
D13*
X195500000Y-82375000D03*
D14*
X196200000Y-70625000D03*
D13*
X197300000Y-81325000D03*
X197900000Y-72825000D03*
D14*
X200940000Y-81325000D03*
X184800000Y-72825000D03*
X186625000Y-82375000D03*
D13*
X187900000Y-72825000D03*
X188500000Y-81325000D03*
X190300000Y-82375000D03*
%TD*%
D10*
%TO.C,SW18*%
X168350000Y-57575000D03*
D11*
X173850000Y-51675000D03*
D12*
X173850000Y-57575000D03*
D10*
X179350000Y-57575000D03*
D13*
X176450000Y-63325000D03*
D14*
X177150000Y-51575000D03*
D13*
X178250000Y-62275000D03*
X178850000Y-53775000D03*
D14*
X181890000Y-62275000D03*
X165750000Y-53775000D03*
X167575000Y-63325000D03*
D13*
X168850000Y-53775000D03*
X169450000Y-62275000D03*
X171250000Y-63325000D03*
%TD*%
D10*
%TO.C,SW13*%
X149300000Y-38525000D03*
D11*
X154800000Y-32625000D03*
D12*
X154800000Y-38525000D03*
D10*
X160300000Y-38525000D03*
D13*
X157400000Y-44275000D03*
D14*
X158100000Y-32525000D03*
D13*
X159200000Y-43225000D03*
X159800000Y-34725000D03*
D14*
X162840000Y-43225000D03*
X146700000Y-34725000D03*
X148525000Y-44275000D03*
D13*
X149800000Y-34725000D03*
X150400000Y-43225000D03*
X152200000Y-44275000D03*
%TD*%
D10*
%TO.C,SW12*%
X130250000Y-95675000D03*
D11*
X135750000Y-89775000D03*
D12*
X135750000Y-95675000D03*
D10*
X141250000Y-95675000D03*
D13*
X138350000Y-101425000D03*
D14*
X139050000Y-89675000D03*
D13*
X140150000Y-100375000D03*
X140750000Y-91875000D03*
D14*
X143790000Y-100375000D03*
X127650000Y-91875000D03*
X129475000Y-101425000D03*
D13*
X130750000Y-91875000D03*
X131350000Y-100375000D03*
X133150000Y-101425000D03*
%TD*%
D10*
%TO.C,SW14*%
X149300000Y-57575000D03*
D11*
X154800000Y-51675000D03*
D12*
X154800000Y-57575000D03*
D10*
X160300000Y-57575000D03*
D13*
X157400000Y-63325000D03*
D14*
X158100000Y-51575000D03*
D13*
X159200000Y-62275000D03*
X159800000Y-53775000D03*
D14*
X162840000Y-62275000D03*
X146700000Y-53775000D03*
X148525000Y-63325000D03*
D13*
X149800000Y-53775000D03*
X150400000Y-62275000D03*
X152200000Y-63325000D03*
%TD*%
D10*
%TO.C,SW5*%
X111200000Y-38525000D03*
D11*
X116700000Y-32625000D03*
D12*
X116700000Y-38525000D03*
D10*
X122200000Y-38525000D03*
D13*
X119300000Y-44275000D03*
D14*
X120000000Y-32525000D03*
D13*
X121100000Y-43225000D03*
X121700000Y-34725000D03*
D14*
X124740000Y-43225000D03*
X108600000Y-34725000D03*
X110425000Y-44275000D03*
D13*
X111700000Y-34725000D03*
X112300000Y-43225000D03*
X114100000Y-44275000D03*
%TD*%
D10*
%TO.C,SW11*%
X130250000Y-76625000D03*
D11*
X135750000Y-70725000D03*
D12*
X135750000Y-76625000D03*
D10*
X141250000Y-76625000D03*
D13*
X138350000Y-82375000D03*
D14*
X139050000Y-70625000D03*
D13*
X140150000Y-81325000D03*
X140750000Y-72825000D03*
D14*
X143790000Y-81325000D03*
X127650000Y-72825000D03*
X129475000Y-82375000D03*
D13*
X130750000Y-72825000D03*
X131350000Y-81325000D03*
X133150000Y-82375000D03*
%TD*%
D10*
%TO.C,SW20*%
X168350000Y-95675000D03*
D11*
X173850000Y-89775000D03*
D12*
X173850000Y-95675000D03*
D10*
X179350000Y-95675000D03*
D13*
X176450000Y-101425000D03*
D14*
X177150000Y-89675000D03*
D13*
X178250000Y-100375000D03*
X178850000Y-91875000D03*
D14*
X181890000Y-100375000D03*
X165750000Y-91875000D03*
X167575000Y-101425000D03*
D13*
X168850000Y-91875000D03*
X169450000Y-100375000D03*
X171250000Y-101425000D03*
%TD*%
D10*
%TO.C,SW15*%
X149300000Y-76625000D03*
D11*
X154800000Y-70725000D03*
D12*
X154800000Y-76625000D03*
D10*
X160300000Y-76625000D03*
D13*
X157400000Y-82375000D03*
D14*
X158100000Y-70625000D03*
D13*
X159200000Y-81325000D03*
X159800000Y-72825000D03*
D14*
X162840000Y-81325000D03*
X146700000Y-72825000D03*
X148525000Y-82375000D03*
D13*
X149800000Y-72825000D03*
X150400000Y-81325000D03*
X152200000Y-82375000D03*
%TD*%
D10*
%TO.C,SW10*%
X130250000Y-57575000D03*
D11*
X135750000Y-51675000D03*
D12*
X135750000Y-57575000D03*
D10*
X141250000Y-57575000D03*
D13*
X138350000Y-63325000D03*
D14*
X139050000Y-51575000D03*
D13*
X140150000Y-62275000D03*
X140750000Y-53775000D03*
D14*
X143790000Y-62275000D03*
X127650000Y-53775000D03*
X129475000Y-63325000D03*
D13*
X130750000Y-53775000D03*
X131350000Y-62275000D03*
X133150000Y-63325000D03*
%TD*%
D10*
%TO.C,SW6*%
X111200000Y-57575000D03*
D11*
X116700000Y-51675000D03*
D12*
X116700000Y-57575000D03*
D10*
X122200000Y-57575000D03*
D13*
X119300000Y-63325000D03*
D14*
X120000000Y-51575000D03*
D13*
X121100000Y-62275000D03*
X121700000Y-53775000D03*
D14*
X124740000Y-62275000D03*
X108600000Y-53775000D03*
X110425000Y-63325000D03*
D13*
X111700000Y-53775000D03*
X112300000Y-62275000D03*
X114100000Y-63325000D03*
%TD*%
D10*
%TO.C,SW2*%
X92150000Y-57575000D03*
D11*
X97650000Y-51675000D03*
D12*
X97650000Y-57575000D03*
D10*
X103150000Y-57575000D03*
D13*
X100250000Y-63325000D03*
D14*
X100950000Y-51575000D03*
D13*
X102050000Y-62275000D03*
X102650000Y-53775000D03*
D14*
X105690000Y-62275000D03*
X89550000Y-53775000D03*
X91375000Y-63325000D03*
D13*
X92650000Y-53775000D03*
X93250000Y-62275000D03*
X95050000Y-63325000D03*
%TD*%
D10*
%TO.C,SW24*%
X187400000Y-95675000D03*
D11*
X192900000Y-89775000D03*
D12*
X192900000Y-95675000D03*
D10*
X198400000Y-95675000D03*
D13*
X195500000Y-101425000D03*
D14*
X196200000Y-89675000D03*
D13*
X197300000Y-100375000D03*
X197900000Y-91875000D03*
D14*
X200940000Y-100375000D03*
X184800000Y-91875000D03*
X186625000Y-101425000D03*
D13*
X187900000Y-91875000D03*
X188500000Y-100375000D03*
X190300000Y-101425000D03*
%TD*%
D10*
%TO.C,SW8*%
X111200000Y-95675000D03*
D11*
X116700000Y-89775000D03*
D12*
X116700000Y-95675000D03*
D10*
X122200000Y-95675000D03*
D13*
X119300000Y-101425000D03*
D14*
X120000000Y-89675000D03*
D13*
X121100000Y-100375000D03*
X121700000Y-91875000D03*
D14*
X124740000Y-100375000D03*
X108600000Y-91875000D03*
X110425000Y-101425000D03*
D13*
X111700000Y-91875000D03*
X112300000Y-100375000D03*
X114100000Y-101425000D03*
%TD*%
D10*
%TO.C,SW19*%
X168350000Y-76625000D03*
D11*
X173850000Y-70725000D03*
D12*
X173850000Y-76625000D03*
D10*
X179350000Y-76625000D03*
D13*
X176450000Y-82375000D03*
D14*
X177150000Y-70625000D03*
D13*
X178250000Y-81325000D03*
X178850000Y-72825000D03*
D14*
X181890000Y-81325000D03*
X165750000Y-72825000D03*
X167575000Y-82375000D03*
D13*
X168850000Y-72825000D03*
X169450000Y-81325000D03*
X171250000Y-82375000D03*
%TD*%
D15*
%TO.C,H4*%
X183375000Y-86150000D03*
%TD*%
D16*
%TO.C,D13*%
X151400000Y-30000000D03*
X148100000Y-30000000D03*
%TD*%
D17*
%TO.C,H10*%
X84775000Y-58886000D03*
%TD*%
D16*
%TO.C,D20*%
X170580000Y-87150000D03*
X167280000Y-87150000D03*
%TD*%
D18*
%TO.C,H7*%
X85775000Y-31200000D03*
%TD*%
D16*
%TO.C,D1*%
X94250000Y-30000000D03*
X90950000Y-30000000D03*
%TD*%
D15*
%TO.C,H1*%
X107175000Y-48050000D03*
%TD*%
D16*
%TO.C,D18*%
X170450000Y-49050000D03*
X167150000Y-49050000D03*
%TD*%
%TO.C,D22*%
X189500000Y-49050000D03*
X186200000Y-49050000D03*
%TD*%
%TO.C,D6*%
X113300000Y-49050000D03*
X110000000Y-49050000D03*
%TD*%
D19*
%TO.C,T1*%
X77214000Y-30750000D03*
X77214000Y-37750000D03*
X79214000Y-30750000D03*
X79214000Y-37750000D03*
D20*
X74914000Y-39350000D03*
D21*
X74914000Y-32302000D03*
D20*
X74914000Y-35350000D03*
X79514000Y-40450000D03*
%TD*%
D15*
%TO.C,H2*%
X107175000Y-86150000D03*
%TD*%
D16*
%TO.C,D2*%
X94250000Y-49050000D03*
X90950000Y-49050000D03*
%TD*%
%TO.C,D7*%
X113300000Y-68100000D03*
X110000000Y-68100000D03*
%TD*%
D18*
%TO.C,H6*%
X40661000Y-31200000D03*
%TD*%
D16*
%TO.C,D19*%
X170580000Y-68100000D03*
X167280000Y-68100000D03*
%TD*%
D15*
%TO.C,H3*%
X183375000Y-48050000D03*
%TD*%
D22*
%TO.C,JP5*%
X67027500Y-67643000D03*
D23*
X67027500Y-66343000D03*
%TD*%
D16*
%TO.C,D12*%
X132350000Y-87150000D03*
X129050000Y-87150000D03*
%TD*%
%TO.C,D25*%
X74571000Y-89075000D03*
X71271000Y-89075000D03*
%TD*%
%TO.C,D4*%
X94250000Y-87150000D03*
X90950000Y-87150000D03*
%TD*%
%TO.C,D14*%
X151400000Y-49050000D03*
X148100000Y-49050000D03*
%TD*%
%TO.C,D11*%
X132350000Y-68100000D03*
X129050000Y-68100000D03*
%TD*%
%TO.C,D10*%
X132350000Y-49050000D03*
X129050000Y-49050000D03*
%TD*%
D24*
%TO.C,SW25*%
X63218000Y-74843000D03*
X63218000Y-86043000D03*
D25*
X55718000Y-77943000D03*
X55718000Y-82943000D03*
X55718000Y-80443000D03*
X70218000Y-77943000D03*
X70218000Y-82943000D03*
%TD*%
D26*
%TO.C,R1*%
X47351000Y-64293000D03*
D27*
X54971000Y-64293000D03*
%TD*%
D28*
%TO.C,H9*%
X41661000Y-102000000D03*
%TD*%
D16*
%TO.C,D16*%
X151400000Y-87150000D03*
X148100000Y-87150000D03*
%TD*%
%TO.C,D17*%
X170450000Y-30000000D03*
X167150000Y-30000000D03*
%TD*%
D22*
%TO.C,JP7*%
X61947500Y-67643000D03*
D23*
X61947500Y-66343000D03*
%TD*%
D29*
%TO.C,JP1*%
X76944000Y-45500000D03*
X76944000Y-44200000D03*
%TD*%
%TO.C,JP2*%
X79484000Y-45500000D03*
X79484000Y-44200000D03*
%TD*%
D10*
%TO.C,RST1*%
X53851000Y-30823000D03*
X47351000Y-30823000D03*
%TD*%
D16*
%TO.C,D3*%
X94250000Y-68100000D03*
X90950000Y-68100000D03*
%TD*%
%TO.C,D15*%
X151400000Y-68100000D03*
X148100000Y-68100000D03*
%TD*%
D30*
%TO.C,H8*%
X41661000Y-58886000D03*
%TD*%
D16*
%TO.C,D8*%
X113300000Y-87150000D03*
X110000000Y-87150000D03*
%TD*%
%TO.C,D9*%
X132350000Y-30000000D03*
X129050000Y-30000000D03*
%TD*%
%TO.C,D24*%
X189500000Y-87150000D03*
X186200000Y-87150000D03*
%TD*%
D31*
%TO.C,J1*%
X67027500Y-72073000D03*
D32*
X64487500Y-72073000D03*
X61947500Y-72073000D03*
X59407500Y-72073000D03*
%TD*%
D33*
%TO.C,J2*%
X58571000Y-92443000D03*
X67871000Y-92443000D03*
D34*
X60471000Y-89193000D03*
X60971000Y-89193000D03*
X61471000Y-89193000D03*
X61971000Y-89193000D03*
X62471000Y-89193000D03*
X62971000Y-89193000D03*
X63471000Y-89193000D03*
X63971000Y-89193000D03*
X64471000Y-89193000D03*
X64971000Y-89193000D03*
X65471000Y-89193000D03*
X65971000Y-89193000D03*
%TD*%
D30*
%TO.C,H11*%
X84775000Y-102000000D03*
%TD*%
D26*
%TO.C,R2*%
X47351000Y-61753000D03*
D27*
X54971000Y-61753000D03*
%TD*%
D16*
%TO.C,D21*%
X189500000Y-30000000D03*
X186200000Y-30000000D03*
%TD*%
%TO.C,D5*%
X113300000Y-30000000D03*
X110000000Y-30000000D03*
%TD*%
%TO.C,D23*%
X189500000Y-68100000D03*
X186200000Y-68100000D03*
%TD*%
D22*
%TO.C,JP6*%
X64487500Y-67643000D03*
D23*
X64487500Y-66343000D03*
%TD*%
D22*
%TO.C,JP8*%
X59407500Y-67643000D03*
D23*
X59407500Y-66343000D03*
%TD*%
D35*
%TO.C,U1*%
X39881000Y-53461000D03*
X42421000Y-53461000D03*
X44961000Y-53461000D03*
D36*
X47501000Y-53461000D03*
X50041000Y-53461000D03*
D35*
X52581000Y-53461000D03*
X55121000Y-53461000D03*
X57661000Y-53461000D03*
X60201000Y-53461000D03*
X62741000Y-53461000D03*
X65281000Y-53461000D03*
X67821000Y-53461000D03*
X70361000Y-53461000D03*
X70361000Y-38221000D03*
X67821000Y-38221000D03*
X65281000Y-38221000D03*
X62741000Y-38221000D03*
X60201000Y-38221000D03*
X57661000Y-38221000D03*
X55121000Y-38221000D03*
X52581000Y-38221000D03*
D37*
X50041000Y-38221000D03*
D35*
X47501000Y-38221000D03*
D36*
X44961000Y-38221000D03*
D35*
X42421000Y-38221000D03*
X39881000Y-38221000D03*
%TD*%
M02*
