M48
; DRILL file {KiCad 7.0.5} date Fri Aug  2 09:59:58 2024
; FORMAT={-:-/ absolute / metric / decimal}
; #@! TF.CreationDate,2024-08-02T09:59:58+08:00
; #@! TF.GenerationSoftware,Kicad,Pcbnew,7.0.5
; #@! TF.FileFunction,Plated,1,2,PTH
FMAT,2
METRIC
; #@! TA.AperFunction,Plated,PTH,ViaDrill
T1C0.400
; #@! TA.AperFunction,Plated,PTH,ComponentDrill
T2C0.700
; #@! TA.AperFunction,Plated,PTH,ComponentDrill
T3C0.900
; #@! TA.AperFunction,Plated,PTH,ComponentDrill
T4C1.000
; #@! TA.AperFunction,Plated,PTH,ComponentDrill
T5C1.092
; #@! TA.AperFunction,Plated,PTH,ComponentDrill
T6C1.300
; #@! TA.AperFunction,Plated,PTH,ComponentDrill
T7C1.500
; #@! TA.AperFunction,Plated,PTH,ComponentDrill
T8C3.050
%
G90
G05
T1
X42.421Y-45.15
X44.961Y-43.64
X45.03Y-31.61
X45.59Y-56.65
X50.041Y-44.41
X51.32Y-57.17
X56.38Y-57.19
X57.661Y-42.45
X57.74Y-66.34
X59.407Y-64.293
X59.72Y-84.72
X60.201Y-41.46
X60.67Y-85.45
X61.947Y-64.293
X62.741Y-46.61
X63.22Y-65.06
X63.68Y-62.82
X64.01Y-47.334
X65.281Y-45.88
X65.76Y-85.46
X66.54Y-43.45
X70.218Y-89.075
X70.361Y-48.07
X72.73Y-34.41
X75.28Y-44.2
X75.28Y-45.5
X75.621Y-89.075
X78.214Y-46.91
X83.23Y-50.92
X83.98Y-49.514
X84.26Y-50.92
X85.46Y-48.79
X86.64Y-66.12
X86.81Y-85.17
X86.99Y-49.46
X87.455Y-83.995
X87.48Y-65.08
X87.48Y-67.1
X90.95Y-31.2
X90.95Y-50.25
X90.95Y-69.3
X90.95Y-88.35
X95.3Y-30.0
X95.3Y-49.05
X95.3Y-68.1
X95.3Y-87.15
X110.0Y-31.2
X110.0Y-50.25
X110.0Y-69.3
X110.0Y-88.35
X114.35Y-30.0
X114.35Y-49.05
X114.35Y-68.1
X114.35Y-87.15
X129.05Y-31.21
X129.05Y-50.25
X129.05Y-69.3
X129.05Y-88.35
X133.4Y-30.0
X133.4Y-49.05
X133.4Y-68.1
X133.4Y-87.15
X148.09Y-50.25
X148.1Y-31.2
X148.1Y-69.3
X148.1Y-88.35
X152.45Y-30.0
X152.45Y-49.05
X152.45Y-68.1
X152.45Y-87.15
X167.15Y-31.2
X167.15Y-50.25
X167.28Y-69.3
X167.28Y-88.35
X171.5Y-30.0
X171.5Y-49.05
X171.63Y-68.1
X171.63Y-87.15
X186.2Y-31.2
X186.2Y-50.25
X186.2Y-69.3
X186.2Y-88.35
X190.55Y-30.0
X190.55Y-49.05
X190.55Y-68.1
X190.55Y-87.15
X200.64Y-68.88
X200.65Y-30.78
X200.65Y-49.83
X200.66Y-87.92
T2
X47.351Y-61.753
X47.351Y-64.293
X54.971Y-61.753
X54.971Y-64.293
T4
X55.718Y-77.943
X55.718Y-80.443
X55.718Y-82.943
X59.407Y-72.073
X61.947Y-72.073
X64.487Y-72.073
X67.028Y-72.073
X70.218Y-77.943
X70.218Y-82.943
T5
X39.881Y-35.681
X39.881Y-38.221
X39.881Y-50.921
X39.881Y-53.461
X42.421Y-35.681
X42.421Y-38.221
X42.421Y-50.921
X42.421Y-53.461
X44.961Y-35.681
X44.961Y-38.221
X44.961Y-50.921
X44.961Y-53.461
X47.501Y-35.681
X47.501Y-38.221
X47.501Y-50.921
X47.501Y-53.461
X50.041Y-35.681
X50.041Y-38.221
X50.041Y-50.921
X50.041Y-53.461
X52.581Y-35.681
X52.581Y-38.221
X52.581Y-50.921
X52.581Y-53.461
X55.121Y-35.681
X55.121Y-38.221
X55.121Y-50.921
X55.121Y-53.461
X57.661Y-35.681
X57.661Y-38.221
X57.661Y-50.921
X57.661Y-53.461
X60.201Y-35.681
X60.201Y-38.221
X60.201Y-50.921
X60.201Y-53.461
X62.741Y-35.681
X62.741Y-38.221
X62.741Y-50.921
X62.741Y-53.461
X65.281Y-35.681
X65.281Y-38.221
X65.281Y-50.921
X65.281Y-53.461
X67.821Y-35.681
X67.821Y-38.221
X67.821Y-50.921
X67.821Y-53.461
X70.361Y-35.681
X70.361Y-38.221
X70.361Y-50.921
X70.361Y-53.461
T6
X47.351Y-30.823
X53.851Y-30.823
T8
X92.65Y-34.725
X92.65Y-53.775
X92.65Y-72.825
X92.65Y-91.875
X93.25Y-43.225
X93.25Y-62.275
X93.25Y-81.325
X93.25Y-100.375
X95.05Y-44.275
X95.05Y-63.325
X95.05Y-82.375
X95.05Y-101.425
X100.25Y-44.275
X100.25Y-63.325
X100.25Y-82.375
X100.25Y-101.425
X102.05Y-43.225
X102.05Y-62.275
X102.05Y-81.325
X102.05Y-100.375
X102.65Y-34.725
X102.65Y-53.775
X102.65Y-72.825
X102.65Y-91.875
X111.7Y-34.725
X111.7Y-53.775
X111.7Y-72.825
X111.7Y-91.875
X112.3Y-43.225
X112.3Y-62.275
X112.3Y-81.325
X112.3Y-100.375
X114.1Y-44.275
X114.1Y-63.325
X114.1Y-82.375
X114.1Y-101.425
X119.3Y-44.275
X119.3Y-63.325
X119.3Y-82.375
X119.3Y-101.425
X121.1Y-43.225
X121.1Y-62.275
X121.1Y-81.325
X121.1Y-100.375
X121.7Y-34.725
X121.7Y-53.775
X121.7Y-72.825
X121.7Y-91.875
X130.75Y-34.725
X130.75Y-53.775
X130.75Y-72.825
X130.75Y-91.875
X131.35Y-43.225
X131.35Y-62.275
X131.35Y-81.325
X131.35Y-100.375
X133.15Y-44.275
X133.15Y-63.325
X133.15Y-82.375
X133.15Y-101.425
X138.35Y-44.275
X138.35Y-63.325
X138.35Y-82.375
X138.35Y-101.425
X140.15Y-43.225
X140.15Y-62.275
X140.15Y-81.325
X140.15Y-100.375
X140.75Y-34.725
X140.75Y-53.775
X140.75Y-72.825
X140.75Y-91.875
X149.8Y-34.725
X149.8Y-53.775
X149.8Y-72.825
X149.8Y-91.875
X150.4Y-43.225
X150.4Y-62.275
X150.4Y-81.325
X150.4Y-100.375
X152.2Y-44.275
X152.2Y-63.325
X152.2Y-82.375
X152.2Y-101.425
X157.4Y-44.275
X157.4Y-63.325
X157.4Y-82.375
X157.4Y-101.425
X159.2Y-43.225
X159.2Y-62.275
X159.2Y-81.325
X159.2Y-100.375
X159.8Y-34.725
X159.8Y-53.775
X159.8Y-72.825
X159.8Y-91.875
X168.85Y-34.725
X168.85Y-53.775
X168.85Y-72.825
X168.85Y-91.875
X169.45Y-43.225
X169.45Y-62.275
X169.45Y-81.325
X169.45Y-100.375
X171.25Y-44.275
X171.25Y-63.325
X171.25Y-82.375
X171.25Y-101.425
X176.45Y-44.275
X176.45Y-63.325
X176.45Y-82.375
X176.45Y-101.425
X178.25Y-43.225
X178.25Y-62.275
X178.25Y-81.325
X178.25Y-100.375
X178.85Y-34.725
X178.85Y-53.775
X178.85Y-72.825
X178.85Y-91.875
X187.9Y-34.725
X187.9Y-53.775
X187.9Y-72.825
X187.9Y-91.875
X188.5Y-43.225
X188.5Y-62.275
X188.5Y-81.325
X188.5Y-100.375
X190.3Y-44.275
X190.3Y-63.325
X190.3Y-82.375
X190.3Y-101.425
X195.5Y-44.275
X195.5Y-63.325
X195.5Y-82.375
X195.5Y-101.425
X197.3Y-43.225
X197.3Y-62.275
X197.3Y-81.325
X197.3Y-100.375
X197.9Y-34.725
X197.9Y-53.775
X197.9Y-72.825
X197.9Y-91.875
T3
X74.914Y-32.102G85X74.914Y-32.502
G05
X74.914Y-35.15G85X74.914Y-35.55
G05
X74.914Y-39.15G85X74.914Y-39.55
G05
X76.914Y-40.25G85X76.914Y-40.65
G05
X79.514Y-40.25G85X79.514Y-40.65
G05
X81.514Y-32.102G85X81.514Y-32.502
G05
X81.514Y-35.15G85X81.514Y-35.55
G05
X81.514Y-39.15G85X81.514Y-39.55
G05
T7
X62.668Y-74.843G85X63.768Y-74.843
G05
X62.668Y-86.043G85X63.768Y-86.043
G05
T0
M30
