%TF.GenerationSoftware,KiCad,Pcbnew,7.0.5*%
%TF.CreationDate,2024-09-25T00:15:12+08:00*%
%TF.ProjectId,TPS,5450532e-6b69-4636-9164-5f7063625858,rev?*%
%TF.SameCoordinates,Original*%
%TF.FileFunction,Copper,L1,Top*%
%TF.FilePolarity,Positive*%
%FSLAX46Y46*%
G04 Gerber Fmt 4.6, Leading zero omitted, Abs format (unit mm)*
G04 Created by KiCad (PCBNEW 7.0.5) date 2024-09-25 00:15:12*
%MOMM*%
%LPD*%
G01*
G04 APERTURE LIST*
G04 APERTURE END LIST*
%TA.AperFunction,NonConductor*%
G36*
X201157426Y-29000691D02*
G01*
X201160040Y-29000896D01*
X201212011Y-29004986D01*
X201352579Y-29017285D01*
X201370698Y-29020236D01*
X201450242Y-29039333D01*
X201451699Y-29039702D01*
X201538318Y-29062912D01*
X201561714Y-29069181D01*
X201569400Y-29071790D01*
X201618484Y-29092120D01*
X201654737Y-29107136D01*
X201657156Y-29108201D01*
X201754970Y-29153813D01*
X201761140Y-29157128D01*
X201803965Y-29183371D01*
X201841767Y-29206537D01*
X201844927Y-29208608D01*
X201931606Y-29269302D01*
X201936285Y-29272924D01*
X202008840Y-29334892D01*
X202012389Y-29338173D01*
X202086824Y-29412608D01*
X202090109Y-29416162D01*
X202152070Y-29488708D01*
X202155707Y-29493406D01*
X202216385Y-29580064D01*
X202218461Y-29583231D01*
X202267863Y-29663845D01*
X202271193Y-29670043D01*
X202316780Y-29767804D01*
X202317870Y-29770281D01*
X202353208Y-29855598D01*
X202355817Y-29863284D01*
X202385277Y-29973226D01*
X202385676Y-29974800D01*
X202404760Y-30054290D01*
X202407714Y-30072430D01*
X202420014Y-30213024D01*
X202424309Y-30267572D01*
X202424500Y-30272440D01*
X202424500Y-122977559D01*
X202424309Y-122982427D01*
X202420014Y-123036974D01*
X202407714Y-123177568D01*
X202404760Y-123195708D01*
X202385676Y-123275198D01*
X202385277Y-123276772D01*
X202355817Y-123386714D01*
X202353208Y-123394400D01*
X202317870Y-123479717D01*
X202316780Y-123482194D01*
X202271193Y-123579955D01*
X202267863Y-123586153D01*
X202218461Y-123666767D01*
X202216385Y-123669934D01*
X202155707Y-123756592D01*
X202152062Y-123761300D01*
X202090118Y-123833827D01*
X202086812Y-123837403D01*
X202012403Y-123911812D01*
X202008827Y-123915118D01*
X201936300Y-123977062D01*
X201931592Y-123980707D01*
X201844934Y-124041385D01*
X201841767Y-124043461D01*
X201761153Y-124092863D01*
X201754955Y-124096193D01*
X201657194Y-124141780D01*
X201654717Y-124142870D01*
X201569400Y-124178208D01*
X201561714Y-124180817D01*
X201451772Y-124210277D01*
X201450198Y-124210676D01*
X201370708Y-124229760D01*
X201352568Y-124232714D01*
X201211974Y-124245014D01*
X201157427Y-124249309D01*
X201152559Y-124249500D01*
X39733441Y-124249500D01*
X39728573Y-124249309D01*
X39674024Y-124245014D01*
X39533430Y-124232714D01*
X39515290Y-124229760D01*
X39435800Y-124210676D01*
X39434226Y-124210277D01*
X39324284Y-124180817D01*
X39316598Y-124178208D01*
X39231281Y-124142870D01*
X39228804Y-124141780D01*
X39131043Y-124096193D01*
X39124845Y-124092863D01*
X39044231Y-124043461D01*
X39041064Y-124041385D01*
X39008182Y-124018361D01*
X38954399Y-123980702D01*
X38949708Y-123977070D01*
X38877162Y-123915109D01*
X38873608Y-123911824D01*
X38799173Y-123837389D01*
X38795892Y-123833840D01*
X38733924Y-123761285D01*
X38730302Y-123756606D01*
X38669608Y-123669927D01*
X38667537Y-123666767D01*
X38650182Y-123638448D01*
X38618128Y-123586140D01*
X38614813Y-123579970D01*
X38569201Y-123482156D01*
X38568136Y-123479737D01*
X38553120Y-123443484D01*
X38532790Y-123394400D01*
X38530181Y-123386714D01*
X38513350Y-123323901D01*
X38500702Y-123276699D01*
X38500333Y-123275242D01*
X38481236Y-123195698D01*
X38478285Y-123177579D01*
X38465984Y-123036974D01*
X38461691Y-122982426D01*
X38461500Y-122977560D01*
X38461500Y-122050000D01*
X39305341Y-122050000D01*
X39325936Y-122285403D01*
X39325938Y-122285413D01*
X39387094Y-122513655D01*
X39387096Y-122513659D01*
X39387097Y-122513663D01*
X39437031Y-122620745D01*
X39486964Y-122727828D01*
X39486965Y-122727830D01*
X39622505Y-122921402D01*
X39789597Y-123088494D01*
X39983169Y-123224034D01*
X39983171Y-123224035D01*
X40197337Y-123323903D01*
X40425592Y-123385063D01*
X40602032Y-123400499D01*
X40602033Y-123400500D01*
X40602034Y-123400500D01*
X40719967Y-123400500D01*
X40719967Y-123400499D01*
X40896408Y-123385063D01*
X41124663Y-123323903D01*
X41338829Y-123224035D01*
X41532401Y-123088495D01*
X41699495Y-122921401D01*
X41835035Y-122727830D01*
X41934903Y-122513663D01*
X41996063Y-122285408D01*
X42016659Y-122050000D01*
X84419341Y-122050000D01*
X84439936Y-122285403D01*
X84439938Y-122285413D01*
X84501094Y-122513655D01*
X84501096Y-122513659D01*
X84501097Y-122513663D01*
X84551031Y-122620745D01*
X84600964Y-122727828D01*
X84600965Y-122727830D01*
X84736505Y-122921402D01*
X84903597Y-123088494D01*
X85097169Y-123224034D01*
X85097171Y-123224035D01*
X85311337Y-123323903D01*
X85539592Y-123385063D01*
X85716032Y-123400499D01*
X85716033Y-123400500D01*
X85716034Y-123400500D01*
X85833967Y-123400500D01*
X85833967Y-123400499D01*
X86010408Y-123385063D01*
X86238663Y-123323903D01*
X86452829Y-123224035D01*
X86646401Y-123088495D01*
X86813495Y-122921401D01*
X86949035Y-122727830D01*
X87048903Y-122513663D01*
X87110063Y-122285408D01*
X87130659Y-122050000D01*
X87110063Y-121814592D01*
X87048903Y-121586337D01*
X86949035Y-121372171D01*
X86949034Y-121372169D01*
X86813494Y-121178597D01*
X86646402Y-121011505D01*
X86452830Y-120875965D01*
X86452828Y-120875964D01*
X86345746Y-120826031D01*
X86238663Y-120776097D01*
X86238659Y-120776096D01*
X86238655Y-120776094D01*
X86010413Y-120714938D01*
X86010403Y-120714936D01*
X85833967Y-120699500D01*
X85833966Y-120699500D01*
X85716034Y-120699500D01*
X85716033Y-120699500D01*
X85539596Y-120714936D01*
X85539586Y-120714938D01*
X85311344Y-120776094D01*
X85311335Y-120776098D01*
X85097171Y-120875964D01*
X85097169Y-120875965D01*
X84903597Y-121011505D01*
X84736506Y-121178597D01*
X84736501Y-121178604D01*
X84600967Y-121372165D01*
X84600965Y-121372169D01*
X84501098Y-121586335D01*
X84501094Y-121586344D01*
X84439938Y-121814586D01*
X84439936Y-121814596D01*
X84419341Y-122049999D01*
X84419341Y-122050000D01*
X42016659Y-122050000D01*
X41996063Y-121814592D01*
X41934903Y-121586337D01*
X41835035Y-121372171D01*
X41835034Y-121372169D01*
X41699494Y-121178597D01*
X41532402Y-121011505D01*
X41338830Y-120875965D01*
X41338828Y-120875964D01*
X41231746Y-120826031D01*
X41124663Y-120776097D01*
X41124659Y-120776096D01*
X41124655Y-120776094D01*
X40896413Y-120714938D01*
X40896403Y-120714936D01*
X40719967Y-120699500D01*
X40719966Y-120699500D01*
X40602034Y-120699500D01*
X40602033Y-120699500D01*
X40425596Y-120714936D01*
X40425586Y-120714938D01*
X40197344Y-120776094D01*
X40197335Y-120776098D01*
X39983171Y-120875964D01*
X39983169Y-120875965D01*
X39789597Y-121011505D01*
X39622506Y-121178597D01*
X39622501Y-121178604D01*
X39486967Y-121372165D01*
X39486965Y-121372169D01*
X39387098Y-121586335D01*
X39387094Y-121586344D01*
X39325938Y-121814586D01*
X39325936Y-121814596D01*
X39305341Y-122049999D01*
X39305341Y-122050000D01*
X38461500Y-122050000D01*
X38461500Y-105200000D01*
X105819341Y-105200000D01*
X105839936Y-105435403D01*
X105839938Y-105435413D01*
X105901094Y-105663655D01*
X105901096Y-105663659D01*
X105901097Y-105663663D01*
X105951030Y-105770745D01*
X106000964Y-105877828D01*
X106000965Y-105877830D01*
X106136505Y-106071402D01*
X106303597Y-106238494D01*
X106497169Y-106374034D01*
X106497171Y-106374035D01*
X106711337Y-106473903D01*
X106939592Y-106535063D01*
X107116032Y-106550499D01*
X107116033Y-106550500D01*
X107116034Y-106550500D01*
X107233967Y-106550500D01*
X107233967Y-106550499D01*
X107410408Y-106535063D01*
X107638663Y-106473903D01*
X107852829Y-106374035D01*
X108046401Y-106238495D01*
X108213495Y-106071401D01*
X108349035Y-105877830D01*
X108448903Y-105663663D01*
X108510063Y-105435408D01*
X108530659Y-105200000D01*
X182019341Y-105200000D01*
X182039936Y-105435403D01*
X182039938Y-105435413D01*
X182101094Y-105663655D01*
X182101096Y-105663659D01*
X182101097Y-105663663D01*
X182151031Y-105770746D01*
X182200964Y-105877828D01*
X182200965Y-105877830D01*
X182336505Y-106071402D01*
X182503597Y-106238494D01*
X182697169Y-106374034D01*
X182697171Y-106374035D01*
X182911337Y-106473903D01*
X183139592Y-106535063D01*
X183316032Y-106550499D01*
X183316033Y-106550500D01*
X183316034Y-106550500D01*
X183433967Y-106550500D01*
X183433967Y-106550499D01*
X183610408Y-106535063D01*
X183838663Y-106473903D01*
X184052829Y-106374035D01*
X184246401Y-106238495D01*
X184413495Y-106071401D01*
X184549035Y-105877830D01*
X184648903Y-105663663D01*
X184710063Y-105435408D01*
X184730659Y-105200000D01*
X184710063Y-104964592D01*
X184648903Y-104736337D01*
X184549035Y-104522171D01*
X184549034Y-104522169D01*
X184413494Y-104328597D01*
X184246402Y-104161505D01*
X184052830Y-104025965D01*
X184052828Y-104025964D01*
X183945745Y-103976030D01*
X183838663Y-103926097D01*
X183838659Y-103926096D01*
X183838655Y-103926094D01*
X183610413Y-103864938D01*
X183610403Y-103864936D01*
X183433967Y-103849500D01*
X183433966Y-103849500D01*
X183316034Y-103849500D01*
X183316033Y-103849500D01*
X183139596Y-103864936D01*
X183139586Y-103864938D01*
X182911344Y-103926094D01*
X182911335Y-103926098D01*
X182697171Y-104025964D01*
X182697169Y-104025965D01*
X182503597Y-104161505D01*
X182336506Y-104328597D01*
X182336501Y-104328604D01*
X182200967Y-104522165D01*
X182200965Y-104522169D01*
X182101098Y-104736335D01*
X182101094Y-104736344D01*
X182039938Y-104964586D01*
X182039936Y-104964596D01*
X182019341Y-105199999D01*
X182019341Y-105200000D01*
X108530659Y-105200000D01*
X108510063Y-104964592D01*
X108448903Y-104736337D01*
X108349035Y-104522171D01*
X108349034Y-104522169D01*
X108213494Y-104328597D01*
X108046402Y-104161505D01*
X107852830Y-104025965D01*
X107852828Y-104025964D01*
X107745746Y-103976030D01*
X107638663Y-103926097D01*
X107638659Y-103926096D01*
X107638655Y-103926094D01*
X107410413Y-103864938D01*
X107410403Y-103864936D01*
X107233967Y-103849500D01*
X107233966Y-103849500D01*
X107116034Y-103849500D01*
X107116033Y-103849500D01*
X106939596Y-103864936D01*
X106939586Y-103864938D01*
X106711344Y-103926094D01*
X106711335Y-103926098D01*
X106497171Y-104025964D01*
X106497169Y-104025965D01*
X106303597Y-104161505D01*
X106136506Y-104328597D01*
X106136501Y-104328604D01*
X106000967Y-104522165D01*
X106000965Y-104522169D01*
X105901098Y-104736335D01*
X105901094Y-104736344D01*
X105839938Y-104964586D01*
X105839936Y-104964596D01*
X105819341Y-105199999D01*
X105819341Y-105200000D01*
X38461500Y-105200000D01*
X38461500Y-76936000D01*
X39305341Y-76936000D01*
X39325936Y-77171403D01*
X39325938Y-77171413D01*
X39387094Y-77399655D01*
X39387096Y-77399659D01*
X39387097Y-77399663D01*
X39437031Y-77506746D01*
X39486964Y-77613828D01*
X39486965Y-77613830D01*
X39622505Y-77807402D01*
X39789597Y-77974494D01*
X39983169Y-78110034D01*
X39983171Y-78110035D01*
X40197337Y-78209903D01*
X40425592Y-78271063D01*
X40602032Y-78286499D01*
X40602033Y-78286500D01*
X40602034Y-78286500D01*
X40719967Y-78286500D01*
X40719967Y-78286499D01*
X40896408Y-78271063D01*
X41124663Y-78209903D01*
X41338829Y-78110035D01*
X41532401Y-77974495D01*
X41699495Y-77807401D01*
X41835035Y-77613830D01*
X41934903Y-77399663D01*
X41996063Y-77171408D01*
X42016659Y-76936000D01*
X84419341Y-76936000D01*
X84439936Y-77171403D01*
X84439938Y-77171413D01*
X84501094Y-77399655D01*
X84501096Y-77399659D01*
X84501097Y-77399663D01*
X84551031Y-77506745D01*
X84600964Y-77613828D01*
X84600965Y-77613830D01*
X84736505Y-77807402D01*
X84903597Y-77974494D01*
X85097169Y-78110034D01*
X85097171Y-78110035D01*
X85311337Y-78209903D01*
X85539592Y-78271063D01*
X85716032Y-78286499D01*
X85716033Y-78286500D01*
X85716034Y-78286500D01*
X85833967Y-78286500D01*
X85833967Y-78286499D01*
X86010408Y-78271063D01*
X86238663Y-78209903D01*
X86452829Y-78110035D01*
X86646401Y-77974495D01*
X86813495Y-77807401D01*
X86949035Y-77613830D01*
X87048903Y-77399663D01*
X87110063Y-77171408D01*
X87130659Y-76936000D01*
X87110063Y-76700592D01*
X87048903Y-76472337D01*
X86949035Y-76258171D01*
X86949034Y-76258169D01*
X86813494Y-76064597D01*
X86646402Y-75897505D01*
X86452830Y-75761965D01*
X86452828Y-75761964D01*
X86345745Y-75712030D01*
X86238663Y-75662097D01*
X86238659Y-75662096D01*
X86238655Y-75662094D01*
X86010413Y-75600938D01*
X86010403Y-75600936D01*
X85833967Y-75585500D01*
X85833966Y-75585500D01*
X85716034Y-75585500D01*
X85716033Y-75585500D01*
X85539596Y-75600936D01*
X85539586Y-75600938D01*
X85311344Y-75662094D01*
X85311335Y-75662098D01*
X85097171Y-75761964D01*
X85097169Y-75761965D01*
X84903597Y-75897505D01*
X84736506Y-76064597D01*
X84736501Y-76064604D01*
X84600967Y-76258165D01*
X84600965Y-76258169D01*
X84501098Y-76472335D01*
X84501094Y-76472344D01*
X84439938Y-76700586D01*
X84439936Y-76700596D01*
X84419341Y-76935999D01*
X84419341Y-76936000D01*
X42016659Y-76936000D01*
X41996063Y-76700592D01*
X41934903Y-76472337D01*
X41835035Y-76258171D01*
X41835034Y-76258169D01*
X41699494Y-76064597D01*
X41532402Y-75897505D01*
X41338830Y-75761965D01*
X41338828Y-75761964D01*
X41231746Y-75712030D01*
X41124663Y-75662097D01*
X41124659Y-75662096D01*
X41124655Y-75662094D01*
X40896413Y-75600938D01*
X40896403Y-75600936D01*
X40719967Y-75585500D01*
X40719966Y-75585500D01*
X40602034Y-75585500D01*
X40602033Y-75585500D01*
X40425596Y-75600936D01*
X40425586Y-75600938D01*
X40197344Y-75662094D01*
X40197335Y-75662098D01*
X39983171Y-75761964D01*
X39983169Y-75761965D01*
X39789597Y-75897505D01*
X39622506Y-76064597D01*
X39622501Y-76064604D01*
X39486967Y-76258165D01*
X39486965Y-76258169D01*
X39387098Y-76472335D01*
X39387094Y-76472344D01*
X39325938Y-76700586D01*
X39325936Y-76700596D01*
X39305341Y-76935999D01*
X39305341Y-76936000D01*
X38461500Y-76936000D01*
X38461500Y-48050000D01*
X105819341Y-48050000D01*
X105839936Y-48285403D01*
X105839938Y-48285413D01*
X105901094Y-48513655D01*
X105901096Y-48513659D01*
X105901097Y-48513663D01*
X105951031Y-48620745D01*
X106000964Y-48727828D01*
X106000965Y-48727830D01*
X106136505Y-48921402D01*
X106303597Y-49088494D01*
X106497169Y-49224034D01*
X106497171Y-49224035D01*
X106711337Y-49323903D01*
X106939592Y-49385063D01*
X107116032Y-49400499D01*
X107116033Y-49400500D01*
X107116034Y-49400500D01*
X107233967Y-49400500D01*
X107233967Y-49400499D01*
X107410408Y-49385063D01*
X107638663Y-49323903D01*
X107852829Y-49224035D01*
X108046401Y-49088495D01*
X108213495Y-48921401D01*
X108349035Y-48727830D01*
X108448903Y-48513663D01*
X108510063Y-48285408D01*
X108530659Y-48050000D01*
X182019341Y-48050000D01*
X182039936Y-48285403D01*
X182039938Y-48285413D01*
X182101094Y-48513655D01*
X182101096Y-48513659D01*
X182101097Y-48513663D01*
X182151031Y-48620746D01*
X182200964Y-48727828D01*
X182200965Y-48727830D01*
X182336505Y-48921402D01*
X182503597Y-49088494D01*
X182697169Y-49224034D01*
X182697171Y-49224035D01*
X182911337Y-49323903D01*
X183139592Y-49385063D01*
X183316032Y-49400499D01*
X183316033Y-49400500D01*
X183316034Y-49400500D01*
X183433967Y-49400500D01*
X183433967Y-49400499D01*
X183610408Y-49385063D01*
X183838663Y-49323903D01*
X184052829Y-49224035D01*
X184246401Y-49088495D01*
X184413495Y-48921401D01*
X184549035Y-48727830D01*
X184648903Y-48513663D01*
X184710063Y-48285408D01*
X184730659Y-48050000D01*
X184710063Y-47814592D01*
X184648903Y-47586337D01*
X184549035Y-47372171D01*
X184549034Y-47372169D01*
X184413494Y-47178597D01*
X184246402Y-47011505D01*
X184052830Y-46875965D01*
X184052828Y-46875964D01*
X183945746Y-46826030D01*
X183838663Y-46776097D01*
X183838659Y-46776096D01*
X183838655Y-46776094D01*
X183610413Y-46714938D01*
X183610403Y-46714936D01*
X183433967Y-46699500D01*
X183433966Y-46699500D01*
X183316034Y-46699500D01*
X183316033Y-46699500D01*
X183139596Y-46714936D01*
X183139586Y-46714938D01*
X182911344Y-46776094D01*
X182911335Y-46776098D01*
X182697171Y-46875964D01*
X182697169Y-46875965D01*
X182503597Y-47011505D01*
X182336506Y-47178597D01*
X182336501Y-47178604D01*
X182200967Y-47372165D01*
X182200965Y-47372169D01*
X182101098Y-47586335D01*
X182101094Y-47586344D01*
X182039938Y-47814586D01*
X182039936Y-47814596D01*
X182019341Y-48049999D01*
X182019341Y-48050000D01*
X108530659Y-48050000D01*
X108510063Y-47814592D01*
X108448903Y-47586337D01*
X108349035Y-47372171D01*
X108349034Y-47372169D01*
X108213494Y-47178597D01*
X108046402Y-47011505D01*
X107852830Y-46875965D01*
X107852828Y-46875964D01*
X107745745Y-46826031D01*
X107638663Y-46776097D01*
X107638659Y-46776096D01*
X107638655Y-46776094D01*
X107410413Y-46714938D01*
X107410403Y-46714936D01*
X107233967Y-46699500D01*
X107233966Y-46699500D01*
X107116034Y-46699500D01*
X107116033Y-46699500D01*
X106939596Y-46714936D01*
X106939586Y-46714938D01*
X106711344Y-46776094D01*
X106711335Y-46776098D01*
X106497171Y-46875964D01*
X106497169Y-46875965D01*
X106303597Y-47011505D01*
X106136506Y-47178597D01*
X106136501Y-47178604D01*
X106000967Y-47372165D01*
X106000965Y-47372169D01*
X105901098Y-47586335D01*
X105901094Y-47586344D01*
X105839938Y-47814586D01*
X105839936Y-47814596D01*
X105819341Y-48049999D01*
X105819341Y-48050000D01*
X38461500Y-48050000D01*
X38461500Y-31200000D01*
X39305341Y-31200000D01*
X39325936Y-31435403D01*
X39325938Y-31435413D01*
X39387094Y-31663655D01*
X39387096Y-31663659D01*
X39387097Y-31663663D01*
X39437031Y-31770746D01*
X39486964Y-31877828D01*
X39486965Y-31877830D01*
X39622505Y-32071402D01*
X39789597Y-32238494D01*
X39983169Y-32374034D01*
X39983171Y-32374035D01*
X40197337Y-32473903D01*
X40425592Y-32535063D01*
X40602032Y-32550499D01*
X40602033Y-32550500D01*
X40602034Y-32550500D01*
X40719967Y-32550500D01*
X40719967Y-32550499D01*
X40896408Y-32535063D01*
X41124663Y-32473903D01*
X41338829Y-32374035D01*
X41532401Y-32238495D01*
X41699495Y-32071401D01*
X41835035Y-31877830D01*
X41934903Y-31663663D01*
X41996063Y-31435408D01*
X42016659Y-31200000D01*
X84419341Y-31200000D01*
X84439936Y-31435403D01*
X84439938Y-31435413D01*
X84501094Y-31663655D01*
X84501096Y-31663659D01*
X84501097Y-31663663D01*
X84551030Y-31770745D01*
X84600964Y-31877828D01*
X84600965Y-31877830D01*
X84736505Y-32071402D01*
X84903597Y-32238494D01*
X85097169Y-32374034D01*
X85097171Y-32374035D01*
X85311337Y-32473903D01*
X85539592Y-32535063D01*
X85716032Y-32550499D01*
X85716033Y-32550500D01*
X85716034Y-32550500D01*
X85833967Y-32550500D01*
X85833967Y-32550499D01*
X86010408Y-32535063D01*
X86238663Y-32473903D01*
X86452829Y-32374035D01*
X86646401Y-32238495D01*
X86813495Y-32071401D01*
X86949035Y-31877830D01*
X87048903Y-31663663D01*
X87110063Y-31435408D01*
X87130659Y-31200000D01*
X87110063Y-30964592D01*
X87048903Y-30736337D01*
X86949035Y-30522171D01*
X86949034Y-30522169D01*
X86813494Y-30328597D01*
X86646402Y-30161505D01*
X86452830Y-30025965D01*
X86452828Y-30025964D01*
X86338152Y-29972490D01*
X86238663Y-29926097D01*
X86238659Y-29926096D01*
X86238655Y-29926094D01*
X86010413Y-29864938D01*
X86010403Y-29864936D01*
X85833967Y-29849500D01*
X85833966Y-29849500D01*
X85716034Y-29849500D01*
X85716033Y-29849500D01*
X85539596Y-29864936D01*
X85539586Y-29864938D01*
X85311344Y-29926094D01*
X85311335Y-29926098D01*
X85097171Y-30025964D01*
X85097169Y-30025965D01*
X84903597Y-30161505D01*
X84736506Y-30328597D01*
X84736501Y-30328604D01*
X84600967Y-30522165D01*
X84600965Y-30522169D01*
X84501098Y-30736335D01*
X84501094Y-30736344D01*
X84439938Y-30964586D01*
X84439936Y-30964596D01*
X84419341Y-31199999D01*
X84419341Y-31200000D01*
X42016659Y-31200000D01*
X41996063Y-30964592D01*
X41934903Y-30736337D01*
X41835035Y-30522171D01*
X41835034Y-30522169D01*
X41699494Y-30328597D01*
X41532402Y-30161505D01*
X41338830Y-30025965D01*
X41338828Y-30025964D01*
X41224152Y-29972490D01*
X41124663Y-29926097D01*
X41124659Y-29926096D01*
X41124655Y-29926094D01*
X40896413Y-29864938D01*
X40896403Y-29864936D01*
X40719967Y-29849500D01*
X40719966Y-29849500D01*
X40602034Y-29849500D01*
X40602033Y-29849500D01*
X40425596Y-29864936D01*
X40425586Y-29864938D01*
X40197344Y-29926094D01*
X40197335Y-29926098D01*
X39983171Y-30025964D01*
X39983169Y-30025965D01*
X39789597Y-30161505D01*
X39622506Y-30328597D01*
X39622501Y-30328604D01*
X39486967Y-30522165D01*
X39486965Y-30522169D01*
X39387098Y-30736335D01*
X39387094Y-30736344D01*
X39325938Y-30964586D01*
X39325936Y-30964596D01*
X39305341Y-31199999D01*
X39305341Y-31200000D01*
X38461500Y-31200000D01*
X38461500Y-30272436D01*
X38461691Y-30267571D01*
X38465979Y-30213080D01*
X38478286Y-30072416D01*
X38481235Y-30054305D01*
X38500342Y-29974719D01*
X38500693Y-29973335D01*
X38530182Y-29863280D01*
X38532790Y-29855598D01*
X38535316Y-29849500D01*
X38568151Y-29770228D01*
X38569185Y-29767877D01*
X38614820Y-29670014D01*
X38618119Y-29663873D01*
X38667548Y-29583213D01*
X38669587Y-29580102D01*
X38730316Y-29493372D01*
X38733908Y-29488733D01*
X38795914Y-29416133D01*
X38799149Y-29412634D01*
X38873634Y-29338149D01*
X38877133Y-29334914D01*
X38949733Y-29272908D01*
X38954372Y-29269316D01*
X39041102Y-29208587D01*
X39044213Y-29206548D01*
X39124873Y-29157119D01*
X39131014Y-29153820D01*
X39228877Y-29108185D01*
X39231228Y-29107151D01*
X39316599Y-29071789D01*
X39324280Y-29069182D01*
X39434335Y-29039693D01*
X39435719Y-29039342D01*
X39515305Y-29020235D01*
X39533416Y-29017286D01*
X39674043Y-29004982D01*
X39721497Y-29001247D01*
X39728575Y-29000691D01*
X39733440Y-29000500D01*
X201152560Y-29000500D01*
X201157426Y-29000691D01*
G37*
%TD.AperFunction*%
M02*
