%TF.GenerationSoftware,KiCad,Pcbnew,7.0.5*%
%TF.CreationDate,2024-09-25T00:15:11+08:00*%
%TF.ProjectId,TPS,5450532e-6b69-4636-9164-5f7063625858,rev?*%
%TF.SameCoordinates,Original*%
%TF.FileFunction,Drillmap*%
%TF.FilePolarity,Positive*%
%FSLAX45Y45*%
G04 Gerber Fmt 4.5, Leading zero omitted, Abs format (unit mm)*
G04 Created by KiCad (PCBNEW 7.0.5) date 2024-09-25 00:15:11*
%MOMM*%
%LPD*%
G01*
G04 APERTURE LIST*
%ADD10C,0.120000*%
%ADD11C,0.200000*%
G04 APERTURE END LIST*
D10*
X20115500Y-2900000D02*
X3973100Y-2900000D01*
X3846100Y-12298000D02*
G75*
G03*
X3973100Y-12425000I127000J0D01*
G01*
X3973100Y-2900000D02*
G75*
G03*
X3846100Y-3027000I0J-127000D01*
G01*
X20242500Y-12298000D02*
X20242500Y-3027000D01*
X20115500Y-12425000D02*
X3973100Y-12425000D01*
X3846100Y-3027000D02*
X3846100Y-12298000D01*
X20115500Y-12425000D02*
G75*
G03*
X20242500Y-12298000I0J127000D01*
G01*
X20242500Y-3027000D02*
G75*
G03*
X20115500Y-2900000I-127000J0D01*
G01*
D11*
X4100877Y-12742484D02*
X4100877Y-12542484D01*
X4100877Y-12542484D02*
X4148496Y-12542484D01*
X4148496Y-12542484D02*
X4177067Y-12552008D01*
X4177067Y-12552008D02*
X4196115Y-12571055D01*
X4196115Y-12571055D02*
X4205639Y-12590103D01*
X4205639Y-12590103D02*
X4215163Y-12628198D01*
X4215163Y-12628198D02*
X4215163Y-12656769D01*
X4215163Y-12656769D02*
X4205639Y-12694865D01*
X4205639Y-12694865D02*
X4196115Y-12713912D01*
X4196115Y-12713912D02*
X4177067Y-12732960D01*
X4177067Y-12732960D02*
X4148496Y-12742484D01*
X4148496Y-12742484D02*
X4100877Y-12742484D01*
X4300877Y-12742484D02*
X4300877Y-12609150D01*
X4300877Y-12647246D02*
X4310401Y-12628198D01*
X4310401Y-12628198D02*
X4319924Y-12618674D01*
X4319924Y-12618674D02*
X4338972Y-12609150D01*
X4338972Y-12609150D02*
X4358020Y-12609150D01*
X4424686Y-12742484D02*
X4424686Y-12609150D01*
X4424686Y-12542484D02*
X4415163Y-12552008D01*
X4415163Y-12552008D02*
X4424686Y-12561531D01*
X4424686Y-12561531D02*
X4434210Y-12552008D01*
X4434210Y-12552008D02*
X4424686Y-12542484D01*
X4424686Y-12542484D02*
X4424686Y-12561531D01*
X4548496Y-12742484D02*
X4529448Y-12732960D01*
X4529448Y-12732960D02*
X4519924Y-12713912D01*
X4519924Y-12713912D02*
X4519924Y-12542484D01*
X4653258Y-12742484D02*
X4634210Y-12732960D01*
X4634210Y-12732960D02*
X4624686Y-12713912D01*
X4624686Y-12713912D02*
X4624686Y-12542484D01*
X4881829Y-12742484D02*
X4881829Y-12542484D01*
X4881829Y-12542484D02*
X4948496Y-12685341D01*
X4948496Y-12685341D02*
X5015163Y-12542484D01*
X5015163Y-12542484D02*
X5015163Y-12742484D01*
X5196115Y-12742484D02*
X5196115Y-12637722D01*
X5196115Y-12637722D02*
X5186591Y-12618674D01*
X5186591Y-12618674D02*
X5167544Y-12609150D01*
X5167544Y-12609150D02*
X5129448Y-12609150D01*
X5129448Y-12609150D02*
X5110401Y-12618674D01*
X5196115Y-12732960D02*
X5177067Y-12742484D01*
X5177067Y-12742484D02*
X5129448Y-12742484D01*
X5129448Y-12742484D02*
X5110401Y-12732960D01*
X5110401Y-12732960D02*
X5100877Y-12713912D01*
X5100877Y-12713912D02*
X5100877Y-12694865D01*
X5100877Y-12694865D02*
X5110401Y-12675817D01*
X5110401Y-12675817D02*
X5129448Y-12666293D01*
X5129448Y-12666293D02*
X5177067Y-12666293D01*
X5177067Y-12666293D02*
X5196115Y-12656769D01*
X5291353Y-12609150D02*
X5291353Y-12809150D01*
X5291353Y-12618674D02*
X5310401Y-12609150D01*
X5310401Y-12609150D02*
X5348496Y-12609150D01*
X5348496Y-12609150D02*
X5367544Y-12618674D01*
X5367544Y-12618674D02*
X5377067Y-12628198D01*
X5377067Y-12628198D02*
X5386591Y-12647246D01*
X5386591Y-12647246D02*
X5386591Y-12704388D01*
X5386591Y-12704388D02*
X5377067Y-12723436D01*
X5377067Y-12723436D02*
X5367544Y-12732960D01*
X5367544Y-12732960D02*
X5348496Y-12742484D01*
X5348496Y-12742484D02*
X5310401Y-12742484D01*
X5310401Y-12742484D02*
X5291353Y-12732960D01*
X5472305Y-12723436D02*
X5481829Y-12732960D01*
X5481829Y-12732960D02*
X5472305Y-12742484D01*
X5472305Y-12742484D02*
X5462782Y-12732960D01*
X5462782Y-12732960D02*
X5472305Y-12723436D01*
X5472305Y-12723436D02*
X5472305Y-12742484D01*
X5472305Y-12618674D02*
X5481829Y-12628198D01*
X5481829Y-12628198D02*
X5472305Y-12637722D01*
X5472305Y-12637722D02*
X5462782Y-12628198D01*
X5462782Y-12628198D02*
X5472305Y-12618674D01*
X5472305Y-12618674D02*
X5472305Y-12637722D01*
M02*
