%TF.GenerationSoftware,KiCad,Pcbnew,7.0.5*%
%TF.CreationDate,2024-09-25T00:15:11+08:00*%
%TF.ProjectId,TPS,5450532e-6b69-4636-9164-5f7063625858,rev?*%
%TF.SameCoordinates,Original*%
%TF.FileFunction,Drillmap*%
%TF.FilePolarity,Positive*%
%FSLAX45Y45*%
G04 Gerber Fmt 4.5, Leading zero omitted, Abs format (unit mm)*
G04 Created by KiCad (PCBNEW 7.0.5) date 2024-09-25 00:15:11*
%MOMM*%
%LPD*%
G01*
G04 APERTURE LIST*
%ADD10C,0.120000*%
%ADD11C,0.200000*%
%ADD12C,0.220000*%
G04 APERTURE END LIST*
D10*
X20115500Y-2900000D02*
X3973100Y-2900000D01*
X3846100Y-12298000D02*
G75*
G03*
X3973100Y-12425000I127000J0D01*
G01*
X3973100Y-2900000D02*
G75*
G03*
X3846100Y-3027000I0J-127000D01*
G01*
X20242500Y-12298000D02*
X20242500Y-3027000D01*
X20115500Y-12425000D02*
X3973100Y-12425000D01*
X3846100Y-3027000D02*
X3846100Y-12298000D01*
X20115500Y-12425000D02*
G75*
G03*
X20242500Y-12298000I0J127000D01*
G01*
X20242500Y-3027000D02*
G75*
G03*
X20115500Y-2900000I-127000J0D01*
G01*
D11*
D12*
X3956100Y-3010000D02*
X4176100Y-3230000D01*
X4176100Y-3010000D02*
X3956100Y-3230000D01*
X3956100Y-7583600D02*
X4176100Y-7803600D01*
X4176100Y-7583600D02*
X3956100Y-7803600D01*
X3956100Y-12095000D02*
X4176100Y-12315000D01*
X4176100Y-12095000D02*
X3956100Y-12315000D01*
X8467500Y-3010000D02*
X8687500Y-3230000D01*
X8687500Y-3010000D02*
X8467500Y-3230000D01*
X8467500Y-7583600D02*
X8687500Y-7803600D01*
X8687500Y-7583600D02*
X8467500Y-7803600D01*
X8467500Y-12095000D02*
X8687500Y-12315000D01*
X8687500Y-12095000D02*
X8467500Y-12315000D01*
X10607500Y-4695000D02*
X10827500Y-4915000D01*
X10827500Y-4695000D02*
X10607500Y-4915000D01*
X10607500Y-10410000D02*
X10827500Y-10630000D01*
X10827500Y-10410000D02*
X10607500Y-10630000D01*
X18227500Y-4695000D02*
X18447500Y-4915000D01*
X18447500Y-4695000D02*
X18227500Y-4915000D01*
X18227500Y-10410000D02*
X18447500Y-10630000D01*
X18447500Y-10410000D02*
X18227500Y-10630000D01*
D11*
X4100877Y-12742484D02*
X4100877Y-12542484D01*
X4100877Y-12542484D02*
X4148496Y-12542484D01*
X4148496Y-12542484D02*
X4177067Y-12552008D01*
X4177067Y-12552008D02*
X4196115Y-12571055D01*
X4196115Y-12571055D02*
X4205639Y-12590103D01*
X4205639Y-12590103D02*
X4215163Y-12628198D01*
X4215163Y-12628198D02*
X4215163Y-12656769D01*
X4215163Y-12656769D02*
X4205639Y-12694865D01*
X4205639Y-12694865D02*
X4196115Y-12713912D01*
X4196115Y-12713912D02*
X4177067Y-12732960D01*
X4177067Y-12732960D02*
X4148496Y-12742484D01*
X4148496Y-12742484D02*
X4100877Y-12742484D01*
X4300877Y-12742484D02*
X4300877Y-12609150D01*
X4300877Y-12647246D02*
X4310401Y-12628198D01*
X4310401Y-12628198D02*
X4319924Y-12618674D01*
X4319924Y-12618674D02*
X4338972Y-12609150D01*
X4338972Y-12609150D02*
X4358020Y-12609150D01*
X4424686Y-12742484D02*
X4424686Y-12609150D01*
X4424686Y-12542484D02*
X4415163Y-12552008D01*
X4415163Y-12552008D02*
X4424686Y-12561531D01*
X4424686Y-12561531D02*
X4434210Y-12552008D01*
X4434210Y-12552008D02*
X4424686Y-12542484D01*
X4424686Y-12542484D02*
X4424686Y-12561531D01*
X4548496Y-12742484D02*
X4529448Y-12732960D01*
X4529448Y-12732960D02*
X4519924Y-12713912D01*
X4519924Y-12713912D02*
X4519924Y-12542484D01*
X4653258Y-12742484D02*
X4634210Y-12732960D01*
X4634210Y-12732960D02*
X4624686Y-12713912D01*
X4624686Y-12713912D02*
X4624686Y-12542484D01*
X4881829Y-12742484D02*
X4881829Y-12542484D01*
X4881829Y-12542484D02*
X4948496Y-12685341D01*
X4948496Y-12685341D02*
X5015163Y-12542484D01*
X5015163Y-12542484D02*
X5015163Y-12742484D01*
X5196115Y-12742484D02*
X5196115Y-12637722D01*
X5196115Y-12637722D02*
X5186591Y-12618674D01*
X5186591Y-12618674D02*
X5167544Y-12609150D01*
X5167544Y-12609150D02*
X5129448Y-12609150D01*
X5129448Y-12609150D02*
X5110401Y-12618674D01*
X5196115Y-12732960D02*
X5177067Y-12742484D01*
X5177067Y-12742484D02*
X5129448Y-12742484D01*
X5129448Y-12742484D02*
X5110401Y-12732960D01*
X5110401Y-12732960D02*
X5100877Y-12713912D01*
X5100877Y-12713912D02*
X5100877Y-12694865D01*
X5100877Y-12694865D02*
X5110401Y-12675817D01*
X5110401Y-12675817D02*
X5129448Y-12666293D01*
X5129448Y-12666293D02*
X5177067Y-12666293D01*
X5177067Y-12666293D02*
X5196115Y-12656769D01*
X5291353Y-12609150D02*
X5291353Y-12809150D01*
X5291353Y-12618674D02*
X5310401Y-12609150D01*
X5310401Y-12609150D02*
X5348496Y-12609150D01*
X5348496Y-12609150D02*
X5367544Y-12618674D01*
X5367544Y-12618674D02*
X5377067Y-12628198D01*
X5377067Y-12628198D02*
X5386591Y-12647246D01*
X5386591Y-12647246D02*
X5386591Y-12704388D01*
X5386591Y-12704388D02*
X5377067Y-12723436D01*
X5377067Y-12723436D02*
X5367544Y-12732960D01*
X5367544Y-12732960D02*
X5348496Y-12742484D01*
X5348496Y-12742484D02*
X5310401Y-12742484D01*
X5310401Y-12742484D02*
X5291353Y-12732960D01*
X5472305Y-12723436D02*
X5481829Y-12732960D01*
X5481829Y-12732960D02*
X5472305Y-12742484D01*
X5472305Y-12742484D02*
X5462782Y-12732960D01*
X5462782Y-12732960D02*
X5472305Y-12723436D01*
X5472305Y-12723436D02*
X5472305Y-12742484D01*
X5472305Y-12618674D02*
X5481829Y-12628198D01*
X5481829Y-12628198D02*
X5472305Y-12637722D01*
X5472305Y-12637722D02*
X5462782Y-12628198D01*
X5462782Y-12628198D02*
X5472305Y-12618674D01*
X5472305Y-12618674D02*
X5472305Y-12637722D01*
X3640100Y-12971000D02*
X3840100Y-13171000D01*
X3840100Y-12971000D02*
X3640100Y-13171000D01*
X4091353Y-12981531D02*
X4100877Y-12972008D01*
X4100877Y-12972008D02*
X4119924Y-12962484D01*
X4119924Y-12962484D02*
X4167543Y-12962484D01*
X4167543Y-12962484D02*
X4186591Y-12972008D01*
X4186591Y-12972008D02*
X4196115Y-12981531D01*
X4196115Y-12981531D02*
X4205639Y-13000579D01*
X4205639Y-13000579D02*
X4205639Y-13019627D01*
X4205639Y-13019627D02*
X4196115Y-13048198D01*
X4196115Y-13048198D02*
X4081829Y-13162484D01*
X4081829Y-13162484D02*
X4205639Y-13162484D01*
X4291353Y-13143436D02*
X4300877Y-13152960D01*
X4300877Y-13152960D02*
X4291353Y-13162484D01*
X4291353Y-13162484D02*
X4281829Y-13152960D01*
X4281829Y-13152960D02*
X4291353Y-13143436D01*
X4291353Y-13143436D02*
X4291353Y-13162484D01*
X4377067Y-12981531D02*
X4386591Y-12972008D01*
X4386591Y-12972008D02*
X4405639Y-12962484D01*
X4405639Y-12962484D02*
X4453258Y-12962484D01*
X4453258Y-12962484D02*
X4472305Y-12972008D01*
X4472305Y-12972008D02*
X4481829Y-12981531D01*
X4481829Y-12981531D02*
X4491353Y-13000579D01*
X4491353Y-13000579D02*
X4491353Y-13019627D01*
X4491353Y-13019627D02*
X4481829Y-13048198D01*
X4481829Y-13048198D02*
X4367544Y-13162484D01*
X4367544Y-13162484D02*
X4491353Y-13162484D01*
X4615163Y-12962484D02*
X4634210Y-12962484D01*
X4634210Y-12962484D02*
X4653258Y-12972008D01*
X4653258Y-12972008D02*
X4662782Y-12981531D01*
X4662782Y-12981531D02*
X4672305Y-13000579D01*
X4672305Y-13000579D02*
X4681829Y-13038674D01*
X4681829Y-13038674D02*
X4681829Y-13086293D01*
X4681829Y-13086293D02*
X4672305Y-13124388D01*
X4672305Y-13124388D02*
X4662782Y-13143436D01*
X4662782Y-13143436D02*
X4653258Y-13152960D01*
X4653258Y-13152960D02*
X4634210Y-13162484D01*
X4634210Y-13162484D02*
X4615163Y-13162484D01*
X4615163Y-13162484D02*
X4596115Y-13152960D01*
X4596115Y-13152960D02*
X4586591Y-13143436D01*
X4586591Y-13143436D02*
X4577067Y-13124388D01*
X4577067Y-13124388D02*
X4567544Y-13086293D01*
X4567544Y-13086293D02*
X4567544Y-13038674D01*
X4567544Y-13038674D02*
X4577067Y-13000579D01*
X4577067Y-13000579D02*
X4586591Y-12981531D01*
X4586591Y-12981531D02*
X4596115Y-12972008D01*
X4596115Y-12972008D02*
X4615163Y-12962484D01*
X4805639Y-12962484D02*
X4824686Y-12962484D01*
X4824686Y-12962484D02*
X4843734Y-12972008D01*
X4843734Y-12972008D02*
X4853258Y-12981531D01*
X4853258Y-12981531D02*
X4862782Y-13000579D01*
X4862782Y-13000579D02*
X4872305Y-13038674D01*
X4872305Y-13038674D02*
X4872305Y-13086293D01*
X4872305Y-13086293D02*
X4862782Y-13124388D01*
X4862782Y-13124388D02*
X4853258Y-13143436D01*
X4853258Y-13143436D02*
X4843734Y-13152960D01*
X4843734Y-13152960D02*
X4824686Y-13162484D01*
X4824686Y-13162484D02*
X4805639Y-13162484D01*
X4805639Y-13162484D02*
X4786591Y-13152960D01*
X4786591Y-13152960D02*
X4777067Y-13143436D01*
X4777067Y-13143436D02*
X4767544Y-13124388D01*
X4767544Y-13124388D02*
X4758020Y-13086293D01*
X4758020Y-13086293D02*
X4758020Y-13038674D01*
X4758020Y-13038674D02*
X4767544Y-13000579D01*
X4767544Y-13000579D02*
X4777067Y-12981531D01*
X4777067Y-12981531D02*
X4786591Y-12972008D01*
X4786591Y-12972008D02*
X4805639Y-12962484D01*
X4958020Y-13162484D02*
X4958020Y-13029150D01*
X4958020Y-13048198D02*
X4967544Y-13038674D01*
X4967544Y-13038674D02*
X4986591Y-13029150D01*
X4986591Y-13029150D02*
X5015163Y-13029150D01*
X5015163Y-13029150D02*
X5034210Y-13038674D01*
X5034210Y-13038674D02*
X5043734Y-13057722D01*
X5043734Y-13057722D02*
X5043734Y-13162484D01*
X5043734Y-13057722D02*
X5053258Y-13038674D01*
X5053258Y-13038674D02*
X5072305Y-13029150D01*
X5072305Y-13029150D02*
X5100877Y-13029150D01*
X5100877Y-13029150D02*
X5119925Y-13038674D01*
X5119925Y-13038674D02*
X5129448Y-13057722D01*
X5129448Y-13057722D02*
X5129448Y-13162484D01*
X5224686Y-13162484D02*
X5224686Y-13029150D01*
X5224686Y-13048198D02*
X5234210Y-13038674D01*
X5234210Y-13038674D02*
X5253258Y-13029150D01*
X5253258Y-13029150D02*
X5281829Y-13029150D01*
X5281829Y-13029150D02*
X5300877Y-13038674D01*
X5300877Y-13038674D02*
X5310401Y-13057722D01*
X5310401Y-13057722D02*
X5310401Y-13162484D01*
X5310401Y-13057722D02*
X5319925Y-13038674D01*
X5319925Y-13038674D02*
X5338972Y-13029150D01*
X5338972Y-13029150D02*
X5367544Y-13029150D01*
X5367544Y-13029150D02*
X5386591Y-13038674D01*
X5386591Y-13038674D02*
X5396115Y-13057722D01*
X5396115Y-13057722D02*
X5396115Y-13162484D01*
X5786591Y-12952960D02*
X5615163Y-13210103D01*
X6043734Y-12962484D02*
X6062782Y-12962484D01*
X6062782Y-12962484D02*
X6081829Y-12972008D01*
X6081829Y-12972008D02*
X6091353Y-12981531D01*
X6091353Y-12981531D02*
X6100877Y-13000579D01*
X6100877Y-13000579D02*
X6110401Y-13038674D01*
X6110401Y-13038674D02*
X6110401Y-13086293D01*
X6110401Y-13086293D02*
X6100877Y-13124388D01*
X6100877Y-13124388D02*
X6091353Y-13143436D01*
X6091353Y-13143436D02*
X6081829Y-13152960D01*
X6081829Y-13152960D02*
X6062782Y-13162484D01*
X6062782Y-13162484D02*
X6043734Y-13162484D01*
X6043734Y-13162484D02*
X6024686Y-13152960D01*
X6024686Y-13152960D02*
X6015163Y-13143436D01*
X6015163Y-13143436D02*
X6005639Y-13124388D01*
X6005639Y-13124388D02*
X5996115Y-13086293D01*
X5996115Y-13086293D02*
X5996115Y-13038674D01*
X5996115Y-13038674D02*
X6005639Y-13000579D01*
X6005639Y-13000579D02*
X6015163Y-12981531D01*
X6015163Y-12981531D02*
X6024686Y-12972008D01*
X6024686Y-12972008D02*
X6043734Y-12962484D01*
X6196115Y-13143436D02*
X6205639Y-13152960D01*
X6205639Y-13152960D02*
X6196115Y-13162484D01*
X6196115Y-13162484D02*
X6186591Y-13152960D01*
X6186591Y-13152960D02*
X6196115Y-13143436D01*
X6196115Y-13143436D02*
X6196115Y-13162484D01*
X6329448Y-12962484D02*
X6348496Y-12962484D01*
X6348496Y-12962484D02*
X6367544Y-12972008D01*
X6367544Y-12972008D02*
X6377067Y-12981531D01*
X6377067Y-12981531D02*
X6386591Y-13000579D01*
X6386591Y-13000579D02*
X6396115Y-13038674D01*
X6396115Y-13038674D02*
X6396115Y-13086293D01*
X6396115Y-13086293D02*
X6386591Y-13124388D01*
X6386591Y-13124388D02*
X6377067Y-13143436D01*
X6377067Y-13143436D02*
X6367544Y-13152960D01*
X6367544Y-13152960D02*
X6348496Y-13162484D01*
X6348496Y-13162484D02*
X6329448Y-13162484D01*
X6329448Y-13162484D02*
X6310401Y-13152960D01*
X6310401Y-13152960D02*
X6300877Y-13143436D01*
X6300877Y-13143436D02*
X6291353Y-13124388D01*
X6291353Y-13124388D02*
X6281829Y-13086293D01*
X6281829Y-13086293D02*
X6281829Y-13038674D01*
X6281829Y-13038674D02*
X6291353Y-13000579D01*
X6291353Y-13000579D02*
X6300877Y-12981531D01*
X6300877Y-12981531D02*
X6310401Y-12972008D01*
X6310401Y-12972008D02*
X6329448Y-12962484D01*
X6510401Y-13048198D02*
X6491353Y-13038674D01*
X6491353Y-13038674D02*
X6481829Y-13029150D01*
X6481829Y-13029150D02*
X6472306Y-13010103D01*
X6472306Y-13010103D02*
X6472306Y-13000579D01*
X6472306Y-13000579D02*
X6481829Y-12981531D01*
X6481829Y-12981531D02*
X6491353Y-12972008D01*
X6491353Y-12972008D02*
X6510401Y-12962484D01*
X6510401Y-12962484D02*
X6548496Y-12962484D01*
X6548496Y-12962484D02*
X6567544Y-12972008D01*
X6567544Y-12972008D02*
X6577067Y-12981531D01*
X6577067Y-12981531D02*
X6586591Y-13000579D01*
X6586591Y-13000579D02*
X6586591Y-13010103D01*
X6586591Y-13010103D02*
X6577067Y-13029150D01*
X6577067Y-13029150D02*
X6567544Y-13038674D01*
X6567544Y-13038674D02*
X6548496Y-13048198D01*
X6548496Y-13048198D02*
X6510401Y-13048198D01*
X6510401Y-13048198D02*
X6491353Y-13057722D01*
X6491353Y-13057722D02*
X6481829Y-13067246D01*
X6481829Y-13067246D02*
X6472306Y-13086293D01*
X6472306Y-13086293D02*
X6472306Y-13124388D01*
X6472306Y-13124388D02*
X6481829Y-13143436D01*
X6481829Y-13143436D02*
X6491353Y-13152960D01*
X6491353Y-13152960D02*
X6510401Y-13162484D01*
X6510401Y-13162484D02*
X6548496Y-13162484D01*
X6548496Y-13162484D02*
X6567544Y-13152960D01*
X6567544Y-13152960D02*
X6577067Y-13143436D01*
X6577067Y-13143436D02*
X6586591Y-13124388D01*
X6586591Y-13124388D02*
X6586591Y-13086293D01*
X6586591Y-13086293D02*
X6577067Y-13067246D01*
X6577067Y-13067246D02*
X6567544Y-13057722D01*
X6567544Y-13057722D02*
X6548496Y-13048198D01*
X6758020Y-12962484D02*
X6719925Y-12962484D01*
X6719925Y-12962484D02*
X6700877Y-12972008D01*
X6700877Y-12972008D02*
X6691353Y-12981531D01*
X6691353Y-12981531D02*
X6672306Y-13010103D01*
X6672306Y-13010103D02*
X6662782Y-13048198D01*
X6662782Y-13048198D02*
X6662782Y-13124388D01*
X6662782Y-13124388D02*
X6672306Y-13143436D01*
X6672306Y-13143436D02*
X6681829Y-13152960D01*
X6681829Y-13152960D02*
X6700877Y-13162484D01*
X6700877Y-13162484D02*
X6738972Y-13162484D01*
X6738972Y-13162484D02*
X6758020Y-13152960D01*
X6758020Y-13152960D02*
X6767544Y-13143436D01*
X6767544Y-13143436D02*
X6777067Y-13124388D01*
X6777067Y-13124388D02*
X6777067Y-13076769D01*
X6777067Y-13076769D02*
X6767544Y-13057722D01*
X6767544Y-13057722D02*
X6758020Y-13048198D01*
X6758020Y-13048198D02*
X6738972Y-13038674D01*
X6738972Y-13038674D02*
X6700877Y-13038674D01*
X6700877Y-13038674D02*
X6681829Y-13048198D01*
X6681829Y-13048198D02*
X6672306Y-13057722D01*
X6672306Y-13057722D02*
X6662782Y-13076769D01*
X6948496Y-12962484D02*
X6910401Y-12962484D01*
X6910401Y-12962484D02*
X6891353Y-12972008D01*
X6891353Y-12972008D02*
X6881829Y-12981531D01*
X6881829Y-12981531D02*
X6862782Y-13010103D01*
X6862782Y-13010103D02*
X6853258Y-13048198D01*
X6853258Y-13048198D02*
X6853258Y-13124388D01*
X6853258Y-13124388D02*
X6862782Y-13143436D01*
X6862782Y-13143436D02*
X6872306Y-13152960D01*
X6872306Y-13152960D02*
X6891353Y-13162484D01*
X6891353Y-13162484D02*
X6929448Y-13162484D01*
X6929448Y-13162484D02*
X6948496Y-13152960D01*
X6948496Y-13152960D02*
X6958020Y-13143436D01*
X6958020Y-13143436D02*
X6967544Y-13124388D01*
X6967544Y-13124388D02*
X6967544Y-13076769D01*
X6967544Y-13076769D02*
X6958020Y-13057722D01*
X6958020Y-13057722D02*
X6948496Y-13048198D01*
X6948496Y-13048198D02*
X6929448Y-13038674D01*
X6929448Y-13038674D02*
X6891353Y-13038674D01*
X6891353Y-13038674D02*
X6872306Y-13048198D01*
X6872306Y-13048198D02*
X6862782Y-13057722D01*
X6862782Y-13057722D02*
X6853258Y-13076769D01*
X7043734Y-12962484D02*
X7043734Y-13000579D01*
X7119925Y-12962484D02*
X7119925Y-13000579D01*
X7415163Y-13238674D02*
X7405639Y-13229150D01*
X7405639Y-13229150D02*
X7386591Y-13200579D01*
X7386591Y-13200579D02*
X7377068Y-13181531D01*
X7377068Y-13181531D02*
X7367544Y-13152960D01*
X7367544Y-13152960D02*
X7358020Y-13105341D01*
X7358020Y-13105341D02*
X7358020Y-13067246D01*
X7358020Y-13067246D02*
X7367544Y-13019627D01*
X7367544Y-13019627D02*
X7377068Y-12991055D01*
X7377068Y-12991055D02*
X7386591Y-12972008D01*
X7386591Y-12972008D02*
X7405639Y-12943436D01*
X7405639Y-12943436D02*
X7415163Y-12933912D01*
X7596115Y-13162484D02*
X7481829Y-13162484D01*
X7538972Y-13162484D02*
X7538972Y-12962484D01*
X7538972Y-12962484D02*
X7519925Y-12991055D01*
X7519925Y-12991055D02*
X7500877Y-13010103D01*
X7500877Y-13010103D02*
X7481829Y-13019627D01*
X7719925Y-12962484D02*
X7738972Y-12962484D01*
X7738972Y-12962484D02*
X7758020Y-12972008D01*
X7758020Y-12972008D02*
X7767544Y-12981531D01*
X7767544Y-12981531D02*
X7777068Y-13000579D01*
X7777068Y-13000579D02*
X7786591Y-13038674D01*
X7786591Y-13038674D02*
X7786591Y-13086293D01*
X7786591Y-13086293D02*
X7777068Y-13124388D01*
X7777068Y-13124388D02*
X7767544Y-13143436D01*
X7767544Y-13143436D02*
X7758020Y-13152960D01*
X7758020Y-13152960D02*
X7738972Y-13162484D01*
X7738972Y-13162484D02*
X7719925Y-13162484D01*
X7719925Y-13162484D02*
X7700877Y-13152960D01*
X7700877Y-13152960D02*
X7691353Y-13143436D01*
X7691353Y-13143436D02*
X7681829Y-13124388D01*
X7681829Y-13124388D02*
X7672306Y-13086293D01*
X7672306Y-13086293D02*
X7672306Y-13038674D01*
X7672306Y-13038674D02*
X7681829Y-13000579D01*
X7681829Y-13000579D02*
X7691353Y-12981531D01*
X7691353Y-12981531D02*
X7700877Y-12972008D01*
X7700877Y-12972008D02*
X7719925Y-12962484D01*
X8024687Y-13162484D02*
X8024687Y-12962484D01*
X8110401Y-13162484D02*
X8110401Y-13057722D01*
X8110401Y-13057722D02*
X8100877Y-13038674D01*
X8100877Y-13038674D02*
X8081830Y-13029150D01*
X8081830Y-13029150D02*
X8053258Y-13029150D01*
X8053258Y-13029150D02*
X8034210Y-13038674D01*
X8034210Y-13038674D02*
X8024687Y-13048198D01*
X8234210Y-13162484D02*
X8215163Y-13152960D01*
X8215163Y-13152960D02*
X8205639Y-13143436D01*
X8205639Y-13143436D02*
X8196115Y-13124388D01*
X8196115Y-13124388D02*
X8196115Y-13067246D01*
X8196115Y-13067246D02*
X8205639Y-13048198D01*
X8205639Y-13048198D02*
X8215163Y-13038674D01*
X8215163Y-13038674D02*
X8234210Y-13029150D01*
X8234210Y-13029150D02*
X8262782Y-13029150D01*
X8262782Y-13029150D02*
X8281830Y-13038674D01*
X8281830Y-13038674D02*
X8291353Y-13048198D01*
X8291353Y-13048198D02*
X8300877Y-13067246D01*
X8300877Y-13067246D02*
X8300877Y-13124388D01*
X8300877Y-13124388D02*
X8291353Y-13143436D01*
X8291353Y-13143436D02*
X8281830Y-13152960D01*
X8281830Y-13152960D02*
X8262782Y-13162484D01*
X8262782Y-13162484D02*
X8234210Y-13162484D01*
X8415163Y-13162484D02*
X8396115Y-13152960D01*
X8396115Y-13152960D02*
X8386591Y-13133912D01*
X8386591Y-13133912D02*
X8386591Y-12962484D01*
X8567544Y-13152960D02*
X8548496Y-13162484D01*
X8548496Y-13162484D02*
X8510401Y-13162484D01*
X8510401Y-13162484D02*
X8491353Y-13152960D01*
X8491353Y-13152960D02*
X8481830Y-13133912D01*
X8481830Y-13133912D02*
X8481830Y-13057722D01*
X8481830Y-13057722D02*
X8491353Y-13038674D01*
X8491353Y-13038674D02*
X8510401Y-13029150D01*
X8510401Y-13029150D02*
X8548496Y-13029150D01*
X8548496Y-13029150D02*
X8567544Y-13038674D01*
X8567544Y-13038674D02*
X8577068Y-13057722D01*
X8577068Y-13057722D02*
X8577068Y-13076769D01*
X8577068Y-13076769D02*
X8481830Y-13095817D01*
X8653258Y-13152960D02*
X8672306Y-13162484D01*
X8672306Y-13162484D02*
X8710401Y-13162484D01*
X8710401Y-13162484D02*
X8729449Y-13152960D01*
X8729449Y-13152960D02*
X8738973Y-13133912D01*
X8738973Y-13133912D02*
X8738973Y-13124388D01*
X8738973Y-13124388D02*
X8729449Y-13105341D01*
X8729449Y-13105341D02*
X8710401Y-13095817D01*
X8710401Y-13095817D02*
X8681830Y-13095817D01*
X8681830Y-13095817D02*
X8662782Y-13086293D01*
X8662782Y-13086293D02*
X8653258Y-13067246D01*
X8653258Y-13067246D02*
X8653258Y-13057722D01*
X8653258Y-13057722D02*
X8662782Y-13038674D01*
X8662782Y-13038674D02*
X8681830Y-13029150D01*
X8681830Y-13029150D02*
X8710401Y-13029150D01*
X8710401Y-13029150D02*
X8729449Y-13038674D01*
X8805639Y-13238674D02*
X8815163Y-13229150D01*
X8815163Y-13229150D02*
X8834211Y-13200579D01*
X8834211Y-13200579D02*
X8843734Y-13181531D01*
X8843734Y-13181531D02*
X8853258Y-13152960D01*
X8853258Y-13152960D02*
X8862782Y-13105341D01*
X8862782Y-13105341D02*
X8862782Y-13067246D01*
X8862782Y-13067246D02*
X8853258Y-13019627D01*
X8853258Y-13019627D02*
X8843734Y-12991055D01*
X8843734Y-12991055D02*
X8834211Y-12972008D01*
X8834211Y-12972008D02*
X8815163Y-12943436D01*
X8815163Y-12943436D02*
X8805639Y-12933912D01*
X9167544Y-13238674D02*
X9158020Y-13229150D01*
X9158020Y-13229150D02*
X9138973Y-13200579D01*
X9138973Y-13200579D02*
X9129449Y-13181531D01*
X9129449Y-13181531D02*
X9119925Y-13152960D01*
X9119925Y-13152960D02*
X9110401Y-13105341D01*
X9110401Y-13105341D02*
X9110401Y-13067246D01*
X9110401Y-13067246D02*
X9119925Y-13019627D01*
X9119925Y-13019627D02*
X9129449Y-12991055D01*
X9129449Y-12991055D02*
X9138973Y-12972008D01*
X9138973Y-12972008D02*
X9158020Y-12943436D01*
X9158020Y-12943436D02*
X9167544Y-12933912D01*
X9243734Y-13029150D02*
X9243734Y-13162484D01*
X9243734Y-13048198D02*
X9253258Y-13038674D01*
X9253258Y-13038674D02*
X9272306Y-13029150D01*
X9272306Y-13029150D02*
X9300877Y-13029150D01*
X9300877Y-13029150D02*
X9319925Y-13038674D01*
X9319925Y-13038674D02*
X9329449Y-13057722D01*
X9329449Y-13057722D02*
X9329449Y-13162484D01*
X9453258Y-13162484D02*
X9434211Y-13152960D01*
X9434211Y-13152960D02*
X9424687Y-13143436D01*
X9424687Y-13143436D02*
X9415163Y-13124388D01*
X9415163Y-13124388D02*
X9415163Y-13067246D01*
X9415163Y-13067246D02*
X9424687Y-13048198D01*
X9424687Y-13048198D02*
X9434211Y-13038674D01*
X9434211Y-13038674D02*
X9453258Y-13029150D01*
X9453258Y-13029150D02*
X9481830Y-13029150D01*
X9481830Y-13029150D02*
X9500877Y-13038674D01*
X9500877Y-13038674D02*
X9510401Y-13048198D01*
X9510401Y-13048198D02*
X9519925Y-13067246D01*
X9519925Y-13067246D02*
X9519925Y-13124388D01*
X9519925Y-13124388D02*
X9510401Y-13143436D01*
X9510401Y-13143436D02*
X9500877Y-13152960D01*
X9500877Y-13152960D02*
X9481830Y-13162484D01*
X9481830Y-13162484D02*
X9453258Y-13162484D01*
X9577068Y-13029150D02*
X9653258Y-13029150D01*
X9605639Y-12962484D02*
X9605639Y-13133912D01*
X9605639Y-13133912D02*
X9615163Y-13152960D01*
X9615163Y-13152960D02*
X9634211Y-13162484D01*
X9634211Y-13162484D02*
X9653258Y-13162484D01*
X9872306Y-13029150D02*
X9872306Y-13229150D01*
X9872306Y-13038674D02*
X9891354Y-13029150D01*
X9891354Y-13029150D02*
X9929449Y-13029150D01*
X9929449Y-13029150D02*
X9948496Y-13038674D01*
X9948496Y-13038674D02*
X9958020Y-13048198D01*
X9958020Y-13048198D02*
X9967544Y-13067246D01*
X9967544Y-13067246D02*
X9967544Y-13124388D01*
X9967544Y-13124388D02*
X9958020Y-13143436D01*
X9958020Y-13143436D02*
X9948496Y-13152960D01*
X9948496Y-13152960D02*
X9929449Y-13162484D01*
X9929449Y-13162484D02*
X9891354Y-13162484D01*
X9891354Y-13162484D02*
X9872306Y-13152960D01*
X10081830Y-13162484D02*
X10062782Y-13152960D01*
X10062782Y-13152960D02*
X10053258Y-13133912D01*
X10053258Y-13133912D02*
X10053258Y-12962484D01*
X10243735Y-13162484D02*
X10243735Y-13057722D01*
X10243735Y-13057722D02*
X10234211Y-13038674D01*
X10234211Y-13038674D02*
X10215163Y-13029150D01*
X10215163Y-13029150D02*
X10177068Y-13029150D01*
X10177068Y-13029150D02*
X10158020Y-13038674D01*
X10243735Y-13152960D02*
X10224687Y-13162484D01*
X10224687Y-13162484D02*
X10177068Y-13162484D01*
X10177068Y-13162484D02*
X10158020Y-13152960D01*
X10158020Y-13152960D02*
X10148496Y-13133912D01*
X10148496Y-13133912D02*
X10148496Y-13114865D01*
X10148496Y-13114865D02*
X10158020Y-13095817D01*
X10158020Y-13095817D02*
X10177068Y-13086293D01*
X10177068Y-13086293D02*
X10224687Y-13086293D01*
X10224687Y-13086293D02*
X10243735Y-13076769D01*
X10310401Y-13029150D02*
X10386592Y-13029150D01*
X10338973Y-12962484D02*
X10338973Y-13133912D01*
X10338973Y-13133912D02*
X10348496Y-13152960D01*
X10348496Y-13152960D02*
X10367544Y-13162484D01*
X10367544Y-13162484D02*
X10386592Y-13162484D01*
X10529449Y-13152960D02*
X10510401Y-13162484D01*
X10510401Y-13162484D02*
X10472306Y-13162484D01*
X10472306Y-13162484D02*
X10453258Y-13152960D01*
X10453258Y-13152960D02*
X10443735Y-13133912D01*
X10443735Y-13133912D02*
X10443735Y-13057722D01*
X10443735Y-13057722D02*
X10453258Y-13038674D01*
X10453258Y-13038674D02*
X10472306Y-13029150D01*
X10472306Y-13029150D02*
X10510401Y-13029150D01*
X10510401Y-13029150D02*
X10529449Y-13038674D01*
X10529449Y-13038674D02*
X10538973Y-13057722D01*
X10538973Y-13057722D02*
X10538973Y-13076769D01*
X10538973Y-13076769D02*
X10443735Y-13095817D01*
X10710401Y-13162484D02*
X10710401Y-12962484D01*
X10710401Y-13152960D02*
X10691354Y-13162484D01*
X10691354Y-13162484D02*
X10653258Y-13162484D01*
X10653258Y-13162484D02*
X10634211Y-13152960D01*
X10634211Y-13152960D02*
X10624687Y-13143436D01*
X10624687Y-13143436D02*
X10615163Y-13124388D01*
X10615163Y-13124388D02*
X10615163Y-13067246D01*
X10615163Y-13067246D02*
X10624687Y-13048198D01*
X10624687Y-13048198D02*
X10634211Y-13038674D01*
X10634211Y-13038674D02*
X10653258Y-13029150D01*
X10653258Y-13029150D02*
X10691354Y-13029150D01*
X10691354Y-13029150D02*
X10710401Y-13038674D01*
X10786592Y-13238674D02*
X10796116Y-13229150D01*
X10796116Y-13229150D02*
X10815163Y-13200579D01*
X10815163Y-13200579D02*
X10824687Y-13181531D01*
X10824687Y-13181531D02*
X10834211Y-13152960D01*
X10834211Y-13152960D02*
X10843735Y-13105341D01*
X10843735Y-13105341D02*
X10843735Y-13067246D01*
X10843735Y-13067246D02*
X10834211Y-13019627D01*
X10834211Y-13019627D02*
X10824687Y-12991055D01*
X10824687Y-12991055D02*
X10815163Y-12972008D01*
X10815163Y-12972008D02*
X10796116Y-12943436D01*
X10796116Y-12943436D02*
X10786592Y-12933912D01*
M02*
