%TF.GenerationSoftware,KiCad,Pcbnew,7.0.5*%
%TF.CreationDate,2024-08-05T01:27:44+08:00*%
%TF.ProjectId,TPS,5450532e-6b69-4636-9164-5f7063625858,rev?*%
%TF.SameCoordinates,Original*%
%TF.FileFunction,Copper,L1,Top*%
%TF.FilePolarity,Positive*%
%FSLAX46Y46*%
G04 Gerber Fmt 4.6, Leading zero omitted, Abs format (unit mm)*
G04 Created by KiCad (PCBNEW 7.0.5) date 2024-08-05 01:27:44*
%MOMM*%
%LPD*%
G01*
G04 APERTURE LIST*
G04 APERTURE END LIST*
%TA.AperFunction,NonConductor*%
G36*
X86707426Y-55686691D02*
G01*
X86710040Y-55686896D01*
X86762011Y-55690986D01*
X86902579Y-55703285D01*
X86920698Y-55706236D01*
X87000242Y-55725333D01*
X87001699Y-55725702D01*
X87088318Y-55748912D01*
X87111714Y-55755181D01*
X87119400Y-55757790D01*
X87168484Y-55778120D01*
X87204737Y-55793136D01*
X87207156Y-55794201D01*
X87304970Y-55839813D01*
X87311140Y-55843128D01*
X87353965Y-55869371D01*
X87391767Y-55892537D01*
X87394927Y-55894608D01*
X87481606Y-55955302D01*
X87486285Y-55958924D01*
X87558840Y-56020892D01*
X87562389Y-56024173D01*
X87636824Y-56098608D01*
X87640109Y-56102162D01*
X87702070Y-56174708D01*
X87705707Y-56179406D01*
X87766385Y-56266064D01*
X87768461Y-56269231D01*
X87817863Y-56349845D01*
X87821193Y-56356043D01*
X87866780Y-56453804D01*
X87867870Y-56456281D01*
X87903208Y-56541598D01*
X87905817Y-56549284D01*
X87935277Y-56659226D01*
X87935676Y-56660800D01*
X87954760Y-56740290D01*
X87957714Y-56758430D01*
X87970014Y-56899024D01*
X87974309Y-56953572D01*
X87974500Y-56958440D01*
X87974500Y-103927559D01*
X87974309Y-103932427D01*
X87970014Y-103986974D01*
X87957714Y-104127568D01*
X87954760Y-104145708D01*
X87935676Y-104225198D01*
X87935277Y-104226772D01*
X87905817Y-104336714D01*
X87903208Y-104344400D01*
X87867870Y-104429717D01*
X87866780Y-104432194D01*
X87821193Y-104529955D01*
X87817863Y-104536153D01*
X87768461Y-104616767D01*
X87766385Y-104619934D01*
X87705707Y-104706592D01*
X87702062Y-104711300D01*
X87640118Y-104783827D01*
X87636812Y-104787403D01*
X87562403Y-104861812D01*
X87558827Y-104865118D01*
X87486300Y-104927062D01*
X87481592Y-104930707D01*
X87394934Y-104991385D01*
X87391767Y-104993461D01*
X87311153Y-105042863D01*
X87304955Y-105046193D01*
X87207194Y-105091780D01*
X87204717Y-105092870D01*
X87119400Y-105128208D01*
X87111714Y-105130817D01*
X87001772Y-105160277D01*
X87000198Y-105160676D01*
X86920708Y-105179760D01*
X86902568Y-105182714D01*
X86761974Y-105195014D01*
X86707427Y-105199309D01*
X86702559Y-105199500D01*
X39733441Y-105199500D01*
X39728573Y-105199309D01*
X39674024Y-105195014D01*
X39533430Y-105182714D01*
X39515290Y-105179760D01*
X39435800Y-105160676D01*
X39434226Y-105160277D01*
X39324284Y-105130817D01*
X39316598Y-105128208D01*
X39231281Y-105092870D01*
X39228804Y-105091780D01*
X39131043Y-105046193D01*
X39124845Y-105042863D01*
X39044231Y-104993461D01*
X39041064Y-104991385D01*
X39008182Y-104968361D01*
X38954399Y-104930702D01*
X38949708Y-104927070D01*
X38877162Y-104865109D01*
X38873608Y-104861824D01*
X38799173Y-104787389D01*
X38795892Y-104783840D01*
X38733924Y-104711285D01*
X38730302Y-104706606D01*
X38669608Y-104619927D01*
X38667537Y-104616767D01*
X38650182Y-104588448D01*
X38618128Y-104536140D01*
X38614813Y-104529970D01*
X38569201Y-104432156D01*
X38568136Y-104429737D01*
X38553120Y-104393484D01*
X38532790Y-104344400D01*
X38530181Y-104336714D01*
X38513350Y-104273901D01*
X38500702Y-104226699D01*
X38500333Y-104225242D01*
X38481236Y-104145698D01*
X38478285Y-104127579D01*
X38465984Y-103986974D01*
X38461691Y-103932426D01*
X38461500Y-103927560D01*
X38461500Y-103000000D01*
X39305341Y-103000000D01*
X39325936Y-103235403D01*
X39325938Y-103235413D01*
X39387094Y-103463655D01*
X39387096Y-103463659D01*
X39387097Y-103463663D01*
X39437030Y-103570745D01*
X39486964Y-103677828D01*
X39486965Y-103677830D01*
X39622505Y-103871402D01*
X39789597Y-104038494D01*
X39983169Y-104174034D01*
X39983171Y-104174035D01*
X40197337Y-104273903D01*
X40425592Y-104335063D01*
X40602032Y-104350499D01*
X40602033Y-104350500D01*
X40602034Y-104350500D01*
X40719967Y-104350500D01*
X40719967Y-104350499D01*
X40896408Y-104335063D01*
X41124663Y-104273903D01*
X41338829Y-104174035D01*
X41532401Y-104038495D01*
X41699495Y-103871401D01*
X41835035Y-103677830D01*
X41934903Y-103463663D01*
X41996063Y-103235408D01*
X42016659Y-103000000D01*
X84419341Y-103000000D01*
X84439936Y-103235403D01*
X84439938Y-103235413D01*
X84501094Y-103463655D01*
X84501096Y-103463659D01*
X84501097Y-103463663D01*
X84551031Y-103570745D01*
X84600964Y-103677828D01*
X84600965Y-103677830D01*
X84736505Y-103871402D01*
X84903597Y-104038494D01*
X85097169Y-104174034D01*
X85097171Y-104174035D01*
X85311337Y-104273903D01*
X85539592Y-104335063D01*
X85716032Y-104350499D01*
X85716033Y-104350500D01*
X85716034Y-104350500D01*
X85833967Y-104350500D01*
X85833967Y-104350499D01*
X86010408Y-104335063D01*
X86238663Y-104273903D01*
X86452829Y-104174035D01*
X86646401Y-104038495D01*
X86813495Y-103871401D01*
X86949035Y-103677830D01*
X87048903Y-103463663D01*
X87110063Y-103235408D01*
X87130659Y-103000000D01*
X87110063Y-102764592D01*
X87054853Y-102558542D01*
X87048905Y-102536344D01*
X87048904Y-102536343D01*
X87048903Y-102536337D01*
X86949035Y-102322171D01*
X86949034Y-102322169D01*
X86813494Y-102128597D01*
X86646402Y-101961505D01*
X86452830Y-101825965D01*
X86452828Y-101825964D01*
X86345746Y-101776031D01*
X86238663Y-101726097D01*
X86238659Y-101726096D01*
X86238655Y-101726094D01*
X86010413Y-101664938D01*
X86010403Y-101664936D01*
X85833967Y-101649500D01*
X85833966Y-101649500D01*
X85716034Y-101649500D01*
X85716033Y-101649500D01*
X85539596Y-101664936D01*
X85539586Y-101664938D01*
X85311344Y-101726094D01*
X85311335Y-101726098D01*
X85097171Y-101825964D01*
X85097169Y-101825965D01*
X84903597Y-101961505D01*
X84736506Y-102128597D01*
X84736501Y-102128604D01*
X84600967Y-102322165D01*
X84600965Y-102322169D01*
X84501098Y-102536335D01*
X84501094Y-102536344D01*
X84439938Y-102764586D01*
X84439936Y-102764596D01*
X84419341Y-102999999D01*
X84419341Y-103000000D01*
X42016659Y-103000000D01*
X41996063Y-102764592D01*
X41940853Y-102558542D01*
X41934905Y-102536344D01*
X41934904Y-102536343D01*
X41934903Y-102536337D01*
X41835035Y-102322171D01*
X41835034Y-102322169D01*
X41699494Y-102128597D01*
X41532402Y-101961505D01*
X41338830Y-101825965D01*
X41338828Y-101825964D01*
X41231746Y-101776030D01*
X41124663Y-101726097D01*
X41124659Y-101726096D01*
X41124655Y-101726094D01*
X40896413Y-101664938D01*
X40896403Y-101664936D01*
X40719967Y-101649500D01*
X40719966Y-101649500D01*
X40602034Y-101649500D01*
X40602033Y-101649500D01*
X40425596Y-101664936D01*
X40425586Y-101664938D01*
X40197344Y-101726094D01*
X40197335Y-101726098D01*
X39983171Y-101825964D01*
X39983169Y-101825965D01*
X39789597Y-101961505D01*
X39622506Y-102128597D01*
X39622501Y-102128604D01*
X39486967Y-102322165D01*
X39486965Y-102322169D01*
X39387098Y-102536335D01*
X39387094Y-102536344D01*
X39325938Y-102764586D01*
X39325936Y-102764596D01*
X39305341Y-102999999D01*
X39305341Y-103000000D01*
X38461500Y-103000000D01*
X38461500Y-99400000D01*
X42905341Y-99400000D01*
X42925936Y-99635403D01*
X42925938Y-99635413D01*
X42987094Y-99863655D01*
X42987096Y-99863659D01*
X42987097Y-99863663D01*
X43037031Y-99970746D01*
X43086964Y-100077828D01*
X43086965Y-100077830D01*
X43222505Y-100271402D01*
X43389597Y-100438494D01*
X43583169Y-100574034D01*
X43583171Y-100574035D01*
X43797337Y-100673903D01*
X44025592Y-100735063D01*
X44202032Y-100750499D01*
X44202033Y-100750500D01*
X44202034Y-100750500D01*
X44319967Y-100750500D01*
X44319967Y-100750499D01*
X44496408Y-100735063D01*
X44724663Y-100673903D01*
X44938829Y-100574035D01*
X45132401Y-100438495D01*
X45299495Y-100271401D01*
X45435035Y-100077830D01*
X45534903Y-99863663D01*
X45596063Y-99635408D01*
X45616659Y-99400000D01*
X45596063Y-99164592D01*
X45534903Y-98936337D01*
X45435035Y-98722171D01*
X45435034Y-98722169D01*
X45299494Y-98528597D01*
X45132402Y-98361505D01*
X44938830Y-98225965D01*
X44938828Y-98225964D01*
X44831746Y-98176030D01*
X44724663Y-98126097D01*
X44724659Y-98126096D01*
X44724655Y-98126094D01*
X44496413Y-98064938D01*
X44496403Y-98064936D01*
X44319967Y-98049500D01*
X44319966Y-98049500D01*
X44202034Y-98049500D01*
X44202033Y-98049500D01*
X44025596Y-98064936D01*
X44025586Y-98064938D01*
X43797344Y-98126094D01*
X43797335Y-98126098D01*
X43583171Y-98225964D01*
X43583169Y-98225965D01*
X43389597Y-98361505D01*
X43222506Y-98528597D01*
X43222501Y-98528604D01*
X43086967Y-98722165D01*
X43086965Y-98722169D01*
X42987098Y-98936335D01*
X42987094Y-98936344D01*
X42925938Y-99164586D01*
X42925936Y-99164596D01*
X42905341Y-99399999D01*
X42905341Y-99400000D01*
X38461500Y-99400000D01*
X38461500Y-80443002D01*
X41082513Y-80443002D01*
X41102452Y-81382203D01*
X41102458Y-81382457D01*
X41154619Y-82200460D01*
X41162257Y-82320237D01*
X41261796Y-83254566D01*
X41261798Y-83254579D01*
X41400911Y-84183909D01*
X41400914Y-84183930D01*
X41579338Y-85106487D01*
X41579343Y-85106510D01*
X41796749Y-86020616D01*
X41796757Y-86020646D01*
X42052785Y-86924779D01*
X42346940Y-87817187D01*
X42346949Y-87817212D01*
X42678718Y-88696346D01*
X43047510Y-89560626D01*
X43452652Y-90408481D01*
X43893392Y-91238338D01*
X43893402Y-91238357D01*
X43893407Y-91238365D01*
X44368988Y-92048797D01*
X44878535Y-92838315D01*
X44878541Y-92838323D01*
X45421140Y-93605506D01*
X45995808Y-94348966D01*
X45995817Y-94348977D01*
X46601481Y-95067332D01*
X46601521Y-95067378D01*
X47237149Y-95759403D01*
X47237172Y-95759427D01*
X47901572Y-96423827D01*
X47901596Y-96423850D01*
X48593621Y-97059478D01*
X48593667Y-97059518D01*
X49312022Y-97665182D01*
X49312033Y-97665191D01*
X49312044Y-97665200D01*
X49790452Y-98034991D01*
X49829191Y-98064936D01*
X50055505Y-98239868D01*
X50822685Y-98782465D01*
X51612203Y-99292012D01*
X52422635Y-99767593D01*
X53252521Y-100208349D01*
X54100365Y-100613486D01*
X54964640Y-100982276D01*
X55843788Y-101314051D01*
X56736225Y-101608216D01*
X57640343Y-101864240D01*
X57640366Y-101864245D01*
X57640383Y-101864250D01*
X58554489Y-102081656D01*
X58554512Y-102081661D01*
X59477085Y-102260088D01*
X60406399Y-102399199D01*
X60406425Y-102399201D01*
X60406433Y-102399203D01*
X61029319Y-102465562D01*
X61340780Y-102498744D01*
X62278543Y-102558542D01*
X63109601Y-102576185D01*
X63217997Y-102578487D01*
X63218000Y-102578487D01*
X63218003Y-102578487D01*
X63322384Y-102576270D01*
X64157457Y-102558542D01*
X65095220Y-102498744D01*
X65478788Y-102457880D01*
X66029566Y-102399203D01*
X66029571Y-102399202D01*
X66029601Y-102399199D01*
X66958915Y-102260088D01*
X67881488Y-102081661D01*
X67881498Y-102081658D01*
X67881510Y-102081656D01*
X68795616Y-101864250D01*
X68795624Y-101864247D01*
X68795657Y-101864240D01*
X69699775Y-101608216D01*
X70592212Y-101314051D01*
X71471360Y-100982276D01*
X72335635Y-100613486D01*
X73183479Y-100208349D01*
X74013365Y-99767593D01*
X74639776Y-99400000D01*
X80819341Y-99400000D01*
X80839936Y-99635403D01*
X80839938Y-99635413D01*
X80901094Y-99863655D01*
X80901096Y-99863659D01*
X80901097Y-99863663D01*
X80951031Y-99970745D01*
X81000964Y-100077828D01*
X81000965Y-100077830D01*
X81136505Y-100271402D01*
X81303597Y-100438494D01*
X81497169Y-100574034D01*
X81497171Y-100574035D01*
X81711337Y-100673903D01*
X81939592Y-100735063D01*
X82116032Y-100750499D01*
X82116033Y-100750500D01*
X82116034Y-100750500D01*
X82233967Y-100750500D01*
X82233967Y-100750499D01*
X82410408Y-100735063D01*
X82638663Y-100673903D01*
X82852829Y-100574035D01*
X83046401Y-100438495D01*
X83213495Y-100271401D01*
X83349035Y-100077830D01*
X83448903Y-99863663D01*
X83510063Y-99635408D01*
X83530659Y-99400000D01*
X83510063Y-99164592D01*
X83448903Y-98936337D01*
X83349035Y-98722171D01*
X83349034Y-98722169D01*
X83213494Y-98528597D01*
X83046402Y-98361505D01*
X82852830Y-98225965D01*
X82852828Y-98225964D01*
X82745746Y-98176031D01*
X82638663Y-98126097D01*
X82638659Y-98126096D01*
X82638655Y-98126094D01*
X82410413Y-98064938D01*
X82410403Y-98064936D01*
X82233967Y-98049500D01*
X82233966Y-98049500D01*
X82116034Y-98049500D01*
X82116033Y-98049500D01*
X81939596Y-98064936D01*
X81939586Y-98064938D01*
X81711344Y-98126094D01*
X81711335Y-98126098D01*
X81497171Y-98225964D01*
X81497169Y-98225965D01*
X81303597Y-98361505D01*
X81136506Y-98528597D01*
X81136501Y-98528604D01*
X81000967Y-98722165D01*
X81000965Y-98722169D01*
X80901098Y-98936335D01*
X80901094Y-98936344D01*
X80839938Y-99164586D01*
X80839936Y-99164596D01*
X80819341Y-99399999D01*
X80819341Y-99400000D01*
X74639776Y-99400000D01*
X74823797Y-99292012D01*
X75613315Y-98782465D01*
X76380495Y-98239868D01*
X77123956Y-97665200D01*
X77842357Y-97059497D01*
X78534404Y-96423850D01*
X79198850Y-95759404D01*
X79834497Y-95067357D01*
X80440200Y-94348956D01*
X81014868Y-93605495D01*
X81557465Y-92838315D01*
X82067012Y-92048797D01*
X82542593Y-91238365D01*
X82983349Y-90408479D01*
X83388486Y-89560635D01*
X83757276Y-88696360D01*
X84089051Y-87817212D01*
X84383216Y-86924775D01*
X84639240Y-86020657D01*
X84856661Y-85106488D01*
X85035088Y-84183915D01*
X85174199Y-83254601D01*
X85273744Y-82320220D01*
X85333542Y-81382457D01*
X85353487Y-80443000D01*
X85333542Y-79503543D01*
X85273744Y-78565780D01*
X85174199Y-77631399D01*
X85035088Y-76702085D01*
X84856661Y-75779512D01*
X84639240Y-74865343D01*
X84383216Y-73961225D01*
X84089051Y-73068788D01*
X83757276Y-72189640D01*
X83388486Y-71325365D01*
X82983349Y-70477521D01*
X82542593Y-69647635D01*
X82067012Y-68837203D01*
X81557465Y-68047685D01*
X81014868Y-67280505D01*
X80440200Y-66537044D01*
X80440191Y-66537033D01*
X80440182Y-66537022D01*
X79834518Y-65818667D01*
X79834478Y-65818621D01*
X79198850Y-65126596D01*
X79198827Y-65126572D01*
X78534427Y-64462172D01*
X78534403Y-64462149D01*
X77842378Y-63826521D01*
X77842332Y-63826481D01*
X77123977Y-63220817D01*
X77123966Y-63220808D01*
X76380506Y-62646140D01*
X76208512Y-62524495D01*
X75613315Y-62103535D01*
X75021220Y-61721403D01*
X74823799Y-61593989D01*
X74639776Y-61486000D01*
X80819341Y-61486000D01*
X80839936Y-61721403D01*
X80839938Y-61721413D01*
X80901094Y-61949655D01*
X80901096Y-61949659D01*
X80901097Y-61949663D01*
X80951031Y-62056745D01*
X81000964Y-62163828D01*
X81000965Y-62163830D01*
X81136505Y-62357402D01*
X81303597Y-62524494D01*
X81497169Y-62660034D01*
X81497171Y-62660035D01*
X81711337Y-62759903D01*
X81939592Y-62821063D01*
X82116032Y-62836499D01*
X82116033Y-62836500D01*
X82116034Y-62836500D01*
X82233967Y-62836500D01*
X82233967Y-62836499D01*
X82410408Y-62821063D01*
X82638663Y-62759903D01*
X82852829Y-62660035D01*
X83046401Y-62524495D01*
X83213495Y-62357401D01*
X83349035Y-62163830D01*
X83448903Y-61949663D01*
X83510063Y-61721408D01*
X83530659Y-61486000D01*
X83510063Y-61250592D01*
X83448903Y-61022337D01*
X83349035Y-60808171D01*
X83349034Y-60808169D01*
X83213494Y-60614597D01*
X83046402Y-60447505D01*
X82852830Y-60311965D01*
X82852828Y-60311964D01*
X82745745Y-60262030D01*
X82638663Y-60212097D01*
X82638659Y-60212096D01*
X82638655Y-60212094D01*
X82410413Y-60150938D01*
X82410403Y-60150936D01*
X82233967Y-60135500D01*
X82233966Y-60135500D01*
X82116034Y-60135500D01*
X82116033Y-60135500D01*
X81939596Y-60150936D01*
X81939586Y-60150938D01*
X81711344Y-60212094D01*
X81711335Y-60212098D01*
X81497171Y-60311964D01*
X81497169Y-60311965D01*
X81303597Y-60447505D01*
X81136506Y-60614597D01*
X81136501Y-60614604D01*
X81000967Y-60808165D01*
X81000965Y-60808169D01*
X80901098Y-61022335D01*
X80901094Y-61022344D01*
X80839938Y-61250586D01*
X80839936Y-61250596D01*
X80819341Y-61485999D01*
X80819341Y-61486000D01*
X74639776Y-61486000D01*
X74013384Y-61118418D01*
X74013338Y-61118392D01*
X73183481Y-60677652D01*
X73051524Y-60614597D01*
X72335635Y-60272514D01*
X72194045Y-60212097D01*
X71471346Y-59903718D01*
X70592212Y-59571949D01*
X70592187Y-59571940D01*
X69699779Y-59277785D01*
X69215268Y-59140583D01*
X68795657Y-59021760D01*
X68795654Y-59021759D01*
X68795646Y-59021757D01*
X68795616Y-59021749D01*
X67881510Y-58804343D01*
X67881487Y-58804338D01*
X66958930Y-58625914D01*
X66958909Y-58625911D01*
X66719334Y-58590048D01*
X66029601Y-58486801D01*
X66029594Y-58486800D01*
X66029579Y-58486798D01*
X66029566Y-58486796D01*
X65095236Y-58387257D01*
X65095238Y-58387257D01*
X64903184Y-58375010D01*
X64157457Y-58327458D01*
X64157443Y-58327457D01*
X64157433Y-58327457D01*
X63218003Y-58307513D01*
X63217997Y-58307513D01*
X62278566Y-58327457D01*
X62278554Y-58327457D01*
X62278543Y-58327458D01*
X61551429Y-58373823D01*
X61340762Y-58387257D01*
X60406433Y-58486796D01*
X60406420Y-58486798D01*
X60406402Y-58486800D01*
X60406399Y-58486801D01*
X60068783Y-58537339D01*
X59477090Y-58625911D01*
X59477069Y-58625914D01*
X58554512Y-58804338D01*
X58554489Y-58804343D01*
X57640383Y-59021749D01*
X57640353Y-59021757D01*
X56736220Y-59277785D01*
X55843812Y-59571940D01*
X55843787Y-59571949D01*
X54964653Y-59903718D01*
X54100373Y-60272510D01*
X53252518Y-60677652D01*
X52422661Y-61118392D01*
X52422615Y-61118418D01*
X51612200Y-61593989D01*
X50822676Y-62103541D01*
X50055493Y-62646140D01*
X49312033Y-63220808D01*
X49312022Y-63220817D01*
X48593667Y-63826481D01*
X48593621Y-63826521D01*
X47901596Y-64462149D01*
X47901572Y-64462172D01*
X47237172Y-65126572D01*
X47237149Y-65126596D01*
X46601521Y-65818621D01*
X46601481Y-65818667D01*
X45995817Y-66537022D01*
X45995808Y-66537033D01*
X45421140Y-67280493D01*
X44878541Y-68047676D01*
X44368989Y-68837200D01*
X43893418Y-69647615D01*
X43893392Y-69647661D01*
X43452652Y-70477518D01*
X43047510Y-71325373D01*
X42678718Y-72189653D01*
X42346949Y-73068787D01*
X42346940Y-73068812D01*
X42052785Y-73961220D01*
X41796757Y-74865353D01*
X41796749Y-74865383D01*
X41579343Y-75779489D01*
X41579338Y-75779512D01*
X41400914Y-76702069D01*
X41400911Y-76702090D01*
X41261798Y-77631420D01*
X41261796Y-77631433D01*
X41162257Y-78565762D01*
X41162256Y-78565780D01*
X41102458Y-79503543D01*
X41102458Y-79503551D01*
X41102457Y-79503566D01*
X41082513Y-80442997D01*
X41082513Y-80443002D01*
X38461500Y-80443002D01*
X38461500Y-61486000D01*
X42905341Y-61486000D01*
X42925936Y-61721403D01*
X42925938Y-61721413D01*
X42987094Y-61949655D01*
X42987096Y-61949659D01*
X42987097Y-61949663D01*
X43037031Y-62056745D01*
X43086964Y-62163828D01*
X43086965Y-62163830D01*
X43222505Y-62357402D01*
X43389597Y-62524494D01*
X43583169Y-62660034D01*
X43583171Y-62660035D01*
X43797337Y-62759903D01*
X44025592Y-62821063D01*
X44202032Y-62836499D01*
X44202033Y-62836500D01*
X44202034Y-62836500D01*
X44319967Y-62836500D01*
X44319967Y-62836499D01*
X44496408Y-62821063D01*
X44724663Y-62759903D01*
X44938829Y-62660035D01*
X45132401Y-62524495D01*
X45299495Y-62357401D01*
X45435035Y-62163830D01*
X45534903Y-61949663D01*
X45596063Y-61721408D01*
X45616659Y-61486000D01*
X45596063Y-61250592D01*
X45534903Y-61022337D01*
X45435035Y-60808171D01*
X45435034Y-60808169D01*
X45299494Y-60614597D01*
X45132402Y-60447505D01*
X44938830Y-60311965D01*
X44938828Y-60311964D01*
X44831746Y-60262030D01*
X44724663Y-60212097D01*
X44724659Y-60212096D01*
X44724655Y-60212094D01*
X44496413Y-60150938D01*
X44496403Y-60150936D01*
X44319967Y-60135500D01*
X44319966Y-60135500D01*
X44202034Y-60135500D01*
X44202033Y-60135500D01*
X44025596Y-60150936D01*
X44025586Y-60150938D01*
X43797344Y-60212094D01*
X43797335Y-60212098D01*
X43583171Y-60311964D01*
X43583169Y-60311965D01*
X43389597Y-60447505D01*
X43222506Y-60614597D01*
X43222501Y-60614604D01*
X43086967Y-60808165D01*
X43086965Y-60808169D01*
X42987098Y-61022335D01*
X42987094Y-61022344D01*
X42925938Y-61250586D01*
X42925936Y-61250596D01*
X42905341Y-61485999D01*
X42905341Y-61486000D01*
X38461500Y-61486000D01*
X38461500Y-57886000D01*
X39305341Y-57886000D01*
X39325936Y-58121403D01*
X39325938Y-58121413D01*
X39387094Y-58349655D01*
X39387096Y-58349659D01*
X39387097Y-58349663D01*
X39404627Y-58387256D01*
X39486964Y-58563828D01*
X39486965Y-58563830D01*
X39622505Y-58757402D01*
X39789597Y-58924494D01*
X39983169Y-59060034D01*
X39983171Y-59060035D01*
X40197337Y-59159903D01*
X40425592Y-59221063D01*
X40602032Y-59236499D01*
X40602033Y-59236500D01*
X40602034Y-59236500D01*
X40719967Y-59236500D01*
X40719967Y-59236499D01*
X40896408Y-59221063D01*
X41124663Y-59159903D01*
X41338829Y-59060035D01*
X41532401Y-58924495D01*
X41699495Y-58757401D01*
X41835035Y-58563830D01*
X41934903Y-58349663D01*
X41996063Y-58121408D01*
X42016659Y-57886000D01*
X84419341Y-57886000D01*
X84439936Y-58121403D01*
X84439938Y-58121413D01*
X84501094Y-58349655D01*
X84501096Y-58349659D01*
X84501097Y-58349663D01*
X84518627Y-58387256D01*
X84600964Y-58563828D01*
X84600965Y-58563830D01*
X84736505Y-58757402D01*
X84903597Y-58924494D01*
X85097169Y-59060034D01*
X85097171Y-59060035D01*
X85311337Y-59159903D01*
X85539592Y-59221063D01*
X85716032Y-59236499D01*
X85716033Y-59236500D01*
X85716034Y-59236500D01*
X85833967Y-59236500D01*
X85833967Y-59236499D01*
X86010408Y-59221063D01*
X86238663Y-59159903D01*
X86452829Y-59060035D01*
X86646401Y-58924495D01*
X86813495Y-58757401D01*
X86949035Y-58563830D01*
X87048903Y-58349663D01*
X87110063Y-58121408D01*
X87130659Y-57886000D01*
X87110063Y-57650592D01*
X87048903Y-57422337D01*
X86949035Y-57208171D01*
X86949034Y-57208169D01*
X86813494Y-57014597D01*
X86646402Y-56847505D01*
X86452830Y-56711965D01*
X86452828Y-56711964D01*
X86338152Y-56658490D01*
X86238663Y-56612097D01*
X86238659Y-56612096D01*
X86238655Y-56612094D01*
X86010413Y-56550938D01*
X86010403Y-56550936D01*
X85833967Y-56535500D01*
X85833966Y-56535500D01*
X85716034Y-56535500D01*
X85716033Y-56535500D01*
X85539596Y-56550936D01*
X85539586Y-56550938D01*
X85311344Y-56612094D01*
X85311335Y-56612098D01*
X85097171Y-56711964D01*
X85097169Y-56711965D01*
X84903597Y-56847505D01*
X84736506Y-57014597D01*
X84736501Y-57014604D01*
X84600967Y-57208165D01*
X84600965Y-57208169D01*
X84501098Y-57422335D01*
X84501094Y-57422344D01*
X84439938Y-57650586D01*
X84439936Y-57650596D01*
X84419341Y-57885999D01*
X84419341Y-57886000D01*
X42016659Y-57886000D01*
X41996063Y-57650592D01*
X41934903Y-57422337D01*
X41835035Y-57208171D01*
X41835034Y-57208169D01*
X41699494Y-57014597D01*
X41532402Y-56847505D01*
X41338830Y-56711965D01*
X41338828Y-56711964D01*
X41224152Y-56658490D01*
X41124663Y-56612097D01*
X41124659Y-56612096D01*
X41124655Y-56612094D01*
X40896413Y-56550938D01*
X40896403Y-56550936D01*
X40719967Y-56535500D01*
X40719966Y-56535500D01*
X40602034Y-56535500D01*
X40602033Y-56535500D01*
X40425596Y-56550936D01*
X40425586Y-56550938D01*
X40197344Y-56612094D01*
X40197335Y-56612098D01*
X39983171Y-56711964D01*
X39983169Y-56711965D01*
X39789597Y-56847505D01*
X39622506Y-57014597D01*
X39622501Y-57014604D01*
X39486967Y-57208165D01*
X39486965Y-57208169D01*
X39387098Y-57422335D01*
X39387094Y-57422344D01*
X39325938Y-57650586D01*
X39325936Y-57650596D01*
X39305341Y-57885999D01*
X39305341Y-57886000D01*
X38461500Y-57886000D01*
X38461500Y-56958436D01*
X38461691Y-56953571D01*
X38465979Y-56899080D01*
X38478286Y-56758416D01*
X38481235Y-56740305D01*
X38500342Y-56660719D01*
X38500693Y-56659335D01*
X38530182Y-56549280D01*
X38532790Y-56541598D01*
X38535316Y-56535500D01*
X38568151Y-56456228D01*
X38569185Y-56453877D01*
X38614820Y-56356014D01*
X38618119Y-56349873D01*
X38667548Y-56269213D01*
X38669587Y-56266102D01*
X38730316Y-56179372D01*
X38733908Y-56174733D01*
X38795914Y-56102133D01*
X38799149Y-56098634D01*
X38873634Y-56024149D01*
X38877133Y-56020914D01*
X38949733Y-55958908D01*
X38954372Y-55955316D01*
X39041102Y-55894587D01*
X39044213Y-55892548D01*
X39124873Y-55843119D01*
X39131014Y-55839820D01*
X39228877Y-55794185D01*
X39231228Y-55793151D01*
X39316599Y-55757789D01*
X39324280Y-55755182D01*
X39434335Y-55725693D01*
X39435719Y-55725342D01*
X39515305Y-55706235D01*
X39533416Y-55703286D01*
X39674043Y-55690982D01*
X39721497Y-55687247D01*
X39728575Y-55686691D01*
X39733440Y-55686500D01*
X86702560Y-55686500D01*
X86707426Y-55686691D01*
G37*
%TD.AperFunction*%
M02*
