%TF.GenerationSoftware,KiCad,Pcbnew,7.0.5*%
%TF.CreationDate,2024-08-04T00:23:37+08:00*%
%TF.ProjectId,TPS,5450532e-6b69-4636-9164-5f7063625858,rev?*%
%TF.SameCoordinates,Original*%
%TF.FileFunction,Drillmap*%
%TF.FilePolarity,Positive*%
%FSLAX45Y45*%
G04 Gerber Fmt 4.5, Leading zero omitted, Abs format (unit mm)*
G04 Created by KiCad (PCBNEW 7.0.5) date 2024-08-04 00:23:37*
%MOMM*%
%LPD*%
G01*
G04 APERTURE LIST*
%ADD10C,0.120000*%
%ADD11C,0.200000*%
%ADD12C,0.220000*%
G04 APERTURE END LIST*
D10*
X14775000Y-6957500D02*
X16185000Y-6957500D01*
X16185000Y-8367500D01*
X14775000Y-8367500D01*
X14775000Y-6957500D01*
X12870000Y-5052500D02*
X14280000Y-5052500D01*
X14280000Y-6462500D01*
X12870000Y-6462500D01*
X12870000Y-5052500D01*
X14775000Y-8862500D02*
X16185000Y-8862500D01*
X16185000Y-10272500D01*
X14775000Y-10272500D01*
X14775000Y-8862500D01*
X16680000Y-6957500D02*
X18090000Y-6957500D01*
X18090000Y-8367500D01*
X16680000Y-8367500D01*
X16680000Y-6957500D01*
X16680000Y-5052500D02*
X18090000Y-5052500D01*
X18090000Y-6462500D01*
X16680000Y-6462500D01*
X16680000Y-5052500D01*
X9060000Y-8862500D02*
X10470000Y-8862500D01*
X10470000Y-10272500D01*
X9060000Y-10272500D01*
X9060000Y-8862500D01*
X18585000Y-8862500D02*
X19995000Y-8862500D01*
X19995000Y-10272500D01*
X18585000Y-10272500D01*
X18585000Y-8862500D01*
X18585000Y-3147500D02*
X19995000Y-3147500D01*
X19995000Y-4557500D01*
X18585000Y-4557500D01*
X18585000Y-3147500D01*
X12870000Y-3147500D02*
X14280000Y-3147500D01*
X14280000Y-4557500D01*
X12870000Y-4557500D01*
X12870000Y-3147500D01*
X12870000Y-8862500D02*
X14280000Y-8862500D01*
X14280000Y-10272500D01*
X12870000Y-10272500D01*
X12870000Y-8862500D01*
X14775000Y-3147500D02*
X16185000Y-3147500D01*
X16185000Y-4557500D01*
X14775000Y-4557500D01*
X14775000Y-3147500D01*
X16680000Y-3147500D02*
X18090000Y-3147500D01*
X18090000Y-4557500D01*
X16680000Y-4557500D01*
X16680000Y-3147500D01*
X10965000Y-3147500D02*
X12375000Y-3147500D01*
X12375000Y-4557500D01*
X10965000Y-4557500D01*
X10965000Y-3147500D01*
X9060000Y-6957500D02*
X10470000Y-6957500D01*
X10470000Y-8367500D01*
X9060000Y-8367500D01*
X9060000Y-6957500D01*
X20115500Y-2900000D02*
X8924500Y-2900000D01*
X8797500Y-10393000D02*
G75*
G03*
X8924500Y-10520000I127000J0D01*
G01*
X14775000Y-5052500D02*
X16185000Y-5052500D01*
X16185000Y-6462500D01*
X14775000Y-6462500D01*
X14775000Y-5052500D01*
X18585000Y-5052500D02*
X19995000Y-5052500D01*
X19995000Y-6462500D01*
X18585000Y-6462500D01*
X18585000Y-5052500D01*
X12870000Y-6957500D02*
X14280000Y-6957500D01*
X14280000Y-8367500D01*
X12870000Y-8367500D01*
X12870000Y-6957500D01*
X9060000Y-3147500D02*
X10470000Y-3147500D01*
X10470000Y-4557500D01*
X9060000Y-4557500D01*
X9060000Y-3147500D01*
X8924500Y-2900000D02*
G75*
G03*
X8797500Y-3027000I0J-127000D01*
G01*
X20242500Y-10393000D02*
X20242500Y-3027000D01*
X20115500Y-10520000D02*
X8924500Y-10520000D01*
X8797500Y-3027000D02*
X8797500Y-10393000D01*
X20115500Y-10520000D02*
G75*
G03*
X20242500Y-10393000I0J127000D01*
G01*
X10965000Y-5052500D02*
X12375000Y-5052500D01*
X12375000Y-6462500D01*
X10965000Y-6462500D01*
X10965000Y-5052500D01*
X16680000Y-8862500D02*
X18090000Y-8862500D01*
X18090000Y-10272500D01*
X16680000Y-10272500D01*
X16680000Y-8862500D01*
X20242500Y-3027000D02*
G75*
G03*
X20115500Y-2900000I-127000J0D01*
G01*
X18585000Y-6957500D02*
X19995000Y-6957500D01*
X19995000Y-8367500D01*
X18585000Y-8367500D01*
X18585000Y-6957500D01*
X10965000Y-6957500D02*
X12375000Y-6957500D01*
X12375000Y-8367500D01*
X10965000Y-8367500D01*
X10965000Y-6957500D01*
X9060000Y-5052500D02*
X10470000Y-5052500D01*
X10470000Y-6462500D01*
X9060000Y-6462500D01*
X9060000Y-5052500D01*
X10965000Y-8862500D02*
X12375000Y-8862500D01*
X12375000Y-10272500D01*
X10965000Y-10272500D01*
X10965000Y-8862500D01*
D11*
D12*
X10607500Y-4695000D02*
X10827500Y-4915000D01*
X10827500Y-4695000D02*
X10607500Y-4915000D01*
X10607500Y-8505000D02*
X10827500Y-8725000D01*
X10827500Y-8505000D02*
X10607500Y-8725000D01*
X18227500Y-4695000D02*
X18447500Y-4915000D01*
X18447500Y-4695000D02*
X18227500Y-4915000D01*
X18227500Y-8505000D02*
X18447500Y-8725000D01*
X18447500Y-8505000D02*
X18227500Y-8725000D01*
D11*
X9052277Y-10837484D02*
X9052277Y-10637484D01*
X9052277Y-10637484D02*
X9099896Y-10637484D01*
X9099896Y-10637484D02*
X9128467Y-10647008D01*
X9128467Y-10647008D02*
X9147515Y-10666055D01*
X9147515Y-10666055D02*
X9157039Y-10685103D01*
X9157039Y-10685103D02*
X9166563Y-10723198D01*
X9166563Y-10723198D02*
X9166563Y-10751770D01*
X9166563Y-10751770D02*
X9157039Y-10789865D01*
X9157039Y-10789865D02*
X9147515Y-10808912D01*
X9147515Y-10808912D02*
X9128467Y-10827960D01*
X9128467Y-10827960D02*
X9099896Y-10837484D01*
X9099896Y-10837484D02*
X9052277Y-10837484D01*
X9252277Y-10837484D02*
X9252277Y-10704150D01*
X9252277Y-10742246D02*
X9261801Y-10723198D01*
X9261801Y-10723198D02*
X9271324Y-10713674D01*
X9271324Y-10713674D02*
X9290372Y-10704150D01*
X9290372Y-10704150D02*
X9309420Y-10704150D01*
X9376086Y-10837484D02*
X9376086Y-10704150D01*
X9376086Y-10637484D02*
X9366563Y-10647008D01*
X9366563Y-10647008D02*
X9376086Y-10656531D01*
X9376086Y-10656531D02*
X9385610Y-10647008D01*
X9385610Y-10647008D02*
X9376086Y-10637484D01*
X9376086Y-10637484D02*
X9376086Y-10656531D01*
X9499896Y-10837484D02*
X9480848Y-10827960D01*
X9480848Y-10827960D02*
X9471324Y-10808912D01*
X9471324Y-10808912D02*
X9471324Y-10637484D01*
X9604658Y-10837484D02*
X9585610Y-10827960D01*
X9585610Y-10827960D02*
X9576086Y-10808912D01*
X9576086Y-10808912D02*
X9576086Y-10637484D01*
X9833229Y-10837484D02*
X9833229Y-10637484D01*
X9833229Y-10637484D02*
X9899896Y-10780341D01*
X9899896Y-10780341D02*
X9966563Y-10637484D01*
X9966563Y-10637484D02*
X9966563Y-10837484D01*
X10147515Y-10837484D02*
X10147515Y-10732722D01*
X10147515Y-10732722D02*
X10137991Y-10713674D01*
X10137991Y-10713674D02*
X10118944Y-10704150D01*
X10118944Y-10704150D02*
X10080848Y-10704150D01*
X10080848Y-10704150D02*
X10061801Y-10713674D01*
X10147515Y-10827960D02*
X10128467Y-10837484D01*
X10128467Y-10837484D02*
X10080848Y-10837484D01*
X10080848Y-10837484D02*
X10061801Y-10827960D01*
X10061801Y-10827960D02*
X10052277Y-10808912D01*
X10052277Y-10808912D02*
X10052277Y-10789865D01*
X10052277Y-10789865D02*
X10061801Y-10770817D01*
X10061801Y-10770817D02*
X10080848Y-10761293D01*
X10080848Y-10761293D02*
X10128467Y-10761293D01*
X10128467Y-10761293D02*
X10147515Y-10751770D01*
X10242753Y-10704150D02*
X10242753Y-10904150D01*
X10242753Y-10713674D02*
X10261801Y-10704150D01*
X10261801Y-10704150D02*
X10299896Y-10704150D01*
X10299896Y-10704150D02*
X10318944Y-10713674D01*
X10318944Y-10713674D02*
X10328467Y-10723198D01*
X10328467Y-10723198D02*
X10337991Y-10742246D01*
X10337991Y-10742246D02*
X10337991Y-10799389D01*
X10337991Y-10799389D02*
X10328467Y-10818436D01*
X10328467Y-10818436D02*
X10318944Y-10827960D01*
X10318944Y-10827960D02*
X10299896Y-10837484D01*
X10299896Y-10837484D02*
X10261801Y-10837484D01*
X10261801Y-10837484D02*
X10242753Y-10827960D01*
X10423705Y-10818436D02*
X10433229Y-10827960D01*
X10433229Y-10827960D02*
X10423705Y-10837484D01*
X10423705Y-10837484D02*
X10414182Y-10827960D01*
X10414182Y-10827960D02*
X10423705Y-10818436D01*
X10423705Y-10818436D02*
X10423705Y-10837484D01*
X10423705Y-10713674D02*
X10433229Y-10723198D01*
X10433229Y-10723198D02*
X10423705Y-10732722D01*
X10423705Y-10732722D02*
X10414182Y-10723198D01*
X10414182Y-10723198D02*
X10423705Y-10713674D01*
X10423705Y-10713674D02*
X10423705Y-10732722D01*
X8591500Y-11066000D02*
X8791500Y-11266000D01*
X8791500Y-11066000D02*
X8591500Y-11266000D01*
X9042753Y-11076531D02*
X9052277Y-11067008D01*
X9052277Y-11067008D02*
X9071324Y-11057484D01*
X9071324Y-11057484D02*
X9118944Y-11057484D01*
X9118944Y-11057484D02*
X9137991Y-11067008D01*
X9137991Y-11067008D02*
X9147515Y-11076531D01*
X9147515Y-11076531D02*
X9157039Y-11095579D01*
X9157039Y-11095579D02*
X9157039Y-11114627D01*
X9157039Y-11114627D02*
X9147515Y-11143198D01*
X9147515Y-11143198D02*
X9033229Y-11257484D01*
X9033229Y-11257484D02*
X9157039Y-11257484D01*
X9242753Y-11238436D02*
X9252277Y-11247960D01*
X9252277Y-11247960D02*
X9242753Y-11257484D01*
X9242753Y-11257484D02*
X9233229Y-11247960D01*
X9233229Y-11247960D02*
X9242753Y-11238436D01*
X9242753Y-11238436D02*
X9242753Y-11257484D01*
X9328467Y-11076531D02*
X9337991Y-11067008D01*
X9337991Y-11067008D02*
X9357039Y-11057484D01*
X9357039Y-11057484D02*
X9404658Y-11057484D01*
X9404658Y-11057484D02*
X9423705Y-11067008D01*
X9423705Y-11067008D02*
X9433229Y-11076531D01*
X9433229Y-11076531D02*
X9442753Y-11095579D01*
X9442753Y-11095579D02*
X9442753Y-11114627D01*
X9442753Y-11114627D02*
X9433229Y-11143198D01*
X9433229Y-11143198D02*
X9318944Y-11257484D01*
X9318944Y-11257484D02*
X9442753Y-11257484D01*
X9566563Y-11057484D02*
X9585610Y-11057484D01*
X9585610Y-11057484D02*
X9604658Y-11067008D01*
X9604658Y-11067008D02*
X9614182Y-11076531D01*
X9614182Y-11076531D02*
X9623705Y-11095579D01*
X9623705Y-11095579D02*
X9633229Y-11133674D01*
X9633229Y-11133674D02*
X9633229Y-11181293D01*
X9633229Y-11181293D02*
X9623705Y-11219388D01*
X9623705Y-11219388D02*
X9614182Y-11238436D01*
X9614182Y-11238436D02*
X9604658Y-11247960D01*
X9604658Y-11247960D02*
X9585610Y-11257484D01*
X9585610Y-11257484D02*
X9566563Y-11257484D01*
X9566563Y-11257484D02*
X9547515Y-11247960D01*
X9547515Y-11247960D02*
X9537991Y-11238436D01*
X9537991Y-11238436D02*
X9528467Y-11219388D01*
X9528467Y-11219388D02*
X9518944Y-11181293D01*
X9518944Y-11181293D02*
X9518944Y-11133674D01*
X9518944Y-11133674D02*
X9528467Y-11095579D01*
X9528467Y-11095579D02*
X9537991Y-11076531D01*
X9537991Y-11076531D02*
X9547515Y-11067008D01*
X9547515Y-11067008D02*
X9566563Y-11057484D01*
X9757039Y-11057484D02*
X9776086Y-11057484D01*
X9776086Y-11057484D02*
X9795134Y-11067008D01*
X9795134Y-11067008D02*
X9804658Y-11076531D01*
X9804658Y-11076531D02*
X9814182Y-11095579D01*
X9814182Y-11095579D02*
X9823705Y-11133674D01*
X9823705Y-11133674D02*
X9823705Y-11181293D01*
X9823705Y-11181293D02*
X9814182Y-11219388D01*
X9814182Y-11219388D02*
X9804658Y-11238436D01*
X9804658Y-11238436D02*
X9795134Y-11247960D01*
X9795134Y-11247960D02*
X9776086Y-11257484D01*
X9776086Y-11257484D02*
X9757039Y-11257484D01*
X9757039Y-11257484D02*
X9737991Y-11247960D01*
X9737991Y-11247960D02*
X9728467Y-11238436D01*
X9728467Y-11238436D02*
X9718944Y-11219388D01*
X9718944Y-11219388D02*
X9709420Y-11181293D01*
X9709420Y-11181293D02*
X9709420Y-11133674D01*
X9709420Y-11133674D02*
X9718944Y-11095579D01*
X9718944Y-11095579D02*
X9728467Y-11076531D01*
X9728467Y-11076531D02*
X9737991Y-11067008D01*
X9737991Y-11067008D02*
X9757039Y-11057484D01*
X9909420Y-11257484D02*
X9909420Y-11124150D01*
X9909420Y-11143198D02*
X9918944Y-11133674D01*
X9918944Y-11133674D02*
X9937991Y-11124150D01*
X9937991Y-11124150D02*
X9966563Y-11124150D01*
X9966563Y-11124150D02*
X9985610Y-11133674D01*
X9985610Y-11133674D02*
X9995134Y-11152722D01*
X9995134Y-11152722D02*
X9995134Y-11257484D01*
X9995134Y-11152722D02*
X10004658Y-11133674D01*
X10004658Y-11133674D02*
X10023705Y-11124150D01*
X10023705Y-11124150D02*
X10052277Y-11124150D01*
X10052277Y-11124150D02*
X10071325Y-11133674D01*
X10071325Y-11133674D02*
X10080848Y-11152722D01*
X10080848Y-11152722D02*
X10080848Y-11257484D01*
X10176086Y-11257484D02*
X10176086Y-11124150D01*
X10176086Y-11143198D02*
X10185610Y-11133674D01*
X10185610Y-11133674D02*
X10204658Y-11124150D01*
X10204658Y-11124150D02*
X10233229Y-11124150D01*
X10233229Y-11124150D02*
X10252277Y-11133674D01*
X10252277Y-11133674D02*
X10261801Y-11152722D01*
X10261801Y-11152722D02*
X10261801Y-11257484D01*
X10261801Y-11152722D02*
X10271325Y-11133674D01*
X10271325Y-11133674D02*
X10290372Y-11124150D01*
X10290372Y-11124150D02*
X10318944Y-11124150D01*
X10318944Y-11124150D02*
X10337991Y-11133674D01*
X10337991Y-11133674D02*
X10347515Y-11152722D01*
X10347515Y-11152722D02*
X10347515Y-11257484D01*
X10737991Y-11047960D02*
X10566563Y-11305103D01*
X10995134Y-11057484D02*
X11014182Y-11057484D01*
X11014182Y-11057484D02*
X11033229Y-11067008D01*
X11033229Y-11067008D02*
X11042753Y-11076531D01*
X11042753Y-11076531D02*
X11052277Y-11095579D01*
X11052277Y-11095579D02*
X11061801Y-11133674D01*
X11061801Y-11133674D02*
X11061801Y-11181293D01*
X11061801Y-11181293D02*
X11052277Y-11219388D01*
X11052277Y-11219388D02*
X11042753Y-11238436D01*
X11042753Y-11238436D02*
X11033229Y-11247960D01*
X11033229Y-11247960D02*
X11014182Y-11257484D01*
X11014182Y-11257484D02*
X10995134Y-11257484D01*
X10995134Y-11257484D02*
X10976087Y-11247960D01*
X10976087Y-11247960D02*
X10966563Y-11238436D01*
X10966563Y-11238436D02*
X10957039Y-11219388D01*
X10957039Y-11219388D02*
X10947515Y-11181293D01*
X10947515Y-11181293D02*
X10947515Y-11133674D01*
X10947515Y-11133674D02*
X10957039Y-11095579D01*
X10957039Y-11095579D02*
X10966563Y-11076531D01*
X10966563Y-11076531D02*
X10976087Y-11067008D01*
X10976087Y-11067008D02*
X10995134Y-11057484D01*
X11147515Y-11238436D02*
X11157039Y-11247960D01*
X11157039Y-11247960D02*
X11147515Y-11257484D01*
X11147515Y-11257484D02*
X11137991Y-11247960D01*
X11137991Y-11247960D02*
X11147515Y-11238436D01*
X11147515Y-11238436D02*
X11147515Y-11257484D01*
X11280848Y-11057484D02*
X11299896Y-11057484D01*
X11299896Y-11057484D02*
X11318944Y-11067008D01*
X11318944Y-11067008D02*
X11328467Y-11076531D01*
X11328467Y-11076531D02*
X11337991Y-11095579D01*
X11337991Y-11095579D02*
X11347515Y-11133674D01*
X11347515Y-11133674D02*
X11347515Y-11181293D01*
X11347515Y-11181293D02*
X11337991Y-11219388D01*
X11337991Y-11219388D02*
X11328467Y-11238436D01*
X11328467Y-11238436D02*
X11318944Y-11247960D01*
X11318944Y-11247960D02*
X11299896Y-11257484D01*
X11299896Y-11257484D02*
X11280848Y-11257484D01*
X11280848Y-11257484D02*
X11261801Y-11247960D01*
X11261801Y-11247960D02*
X11252277Y-11238436D01*
X11252277Y-11238436D02*
X11242753Y-11219388D01*
X11242753Y-11219388D02*
X11233229Y-11181293D01*
X11233229Y-11181293D02*
X11233229Y-11133674D01*
X11233229Y-11133674D02*
X11242753Y-11095579D01*
X11242753Y-11095579D02*
X11252277Y-11076531D01*
X11252277Y-11076531D02*
X11261801Y-11067008D01*
X11261801Y-11067008D02*
X11280848Y-11057484D01*
X11461801Y-11143198D02*
X11442753Y-11133674D01*
X11442753Y-11133674D02*
X11433229Y-11124150D01*
X11433229Y-11124150D02*
X11423706Y-11105103D01*
X11423706Y-11105103D02*
X11423706Y-11095579D01*
X11423706Y-11095579D02*
X11433229Y-11076531D01*
X11433229Y-11076531D02*
X11442753Y-11067008D01*
X11442753Y-11067008D02*
X11461801Y-11057484D01*
X11461801Y-11057484D02*
X11499896Y-11057484D01*
X11499896Y-11057484D02*
X11518944Y-11067008D01*
X11518944Y-11067008D02*
X11528467Y-11076531D01*
X11528467Y-11076531D02*
X11537991Y-11095579D01*
X11537991Y-11095579D02*
X11537991Y-11105103D01*
X11537991Y-11105103D02*
X11528467Y-11124150D01*
X11528467Y-11124150D02*
X11518944Y-11133674D01*
X11518944Y-11133674D02*
X11499896Y-11143198D01*
X11499896Y-11143198D02*
X11461801Y-11143198D01*
X11461801Y-11143198D02*
X11442753Y-11152722D01*
X11442753Y-11152722D02*
X11433229Y-11162246D01*
X11433229Y-11162246D02*
X11423706Y-11181293D01*
X11423706Y-11181293D02*
X11423706Y-11219388D01*
X11423706Y-11219388D02*
X11433229Y-11238436D01*
X11433229Y-11238436D02*
X11442753Y-11247960D01*
X11442753Y-11247960D02*
X11461801Y-11257484D01*
X11461801Y-11257484D02*
X11499896Y-11257484D01*
X11499896Y-11257484D02*
X11518944Y-11247960D01*
X11518944Y-11247960D02*
X11528467Y-11238436D01*
X11528467Y-11238436D02*
X11537991Y-11219388D01*
X11537991Y-11219388D02*
X11537991Y-11181293D01*
X11537991Y-11181293D02*
X11528467Y-11162246D01*
X11528467Y-11162246D02*
X11518944Y-11152722D01*
X11518944Y-11152722D02*
X11499896Y-11143198D01*
X11709420Y-11057484D02*
X11671325Y-11057484D01*
X11671325Y-11057484D02*
X11652277Y-11067008D01*
X11652277Y-11067008D02*
X11642753Y-11076531D01*
X11642753Y-11076531D02*
X11623706Y-11105103D01*
X11623706Y-11105103D02*
X11614182Y-11143198D01*
X11614182Y-11143198D02*
X11614182Y-11219388D01*
X11614182Y-11219388D02*
X11623706Y-11238436D01*
X11623706Y-11238436D02*
X11633229Y-11247960D01*
X11633229Y-11247960D02*
X11652277Y-11257484D01*
X11652277Y-11257484D02*
X11690372Y-11257484D01*
X11690372Y-11257484D02*
X11709420Y-11247960D01*
X11709420Y-11247960D02*
X11718944Y-11238436D01*
X11718944Y-11238436D02*
X11728467Y-11219388D01*
X11728467Y-11219388D02*
X11728467Y-11171770D01*
X11728467Y-11171770D02*
X11718944Y-11152722D01*
X11718944Y-11152722D02*
X11709420Y-11143198D01*
X11709420Y-11143198D02*
X11690372Y-11133674D01*
X11690372Y-11133674D02*
X11652277Y-11133674D01*
X11652277Y-11133674D02*
X11633229Y-11143198D01*
X11633229Y-11143198D02*
X11623706Y-11152722D01*
X11623706Y-11152722D02*
X11614182Y-11171770D01*
X11899896Y-11057484D02*
X11861801Y-11057484D01*
X11861801Y-11057484D02*
X11842753Y-11067008D01*
X11842753Y-11067008D02*
X11833229Y-11076531D01*
X11833229Y-11076531D02*
X11814182Y-11105103D01*
X11814182Y-11105103D02*
X11804658Y-11143198D01*
X11804658Y-11143198D02*
X11804658Y-11219388D01*
X11804658Y-11219388D02*
X11814182Y-11238436D01*
X11814182Y-11238436D02*
X11823706Y-11247960D01*
X11823706Y-11247960D02*
X11842753Y-11257484D01*
X11842753Y-11257484D02*
X11880848Y-11257484D01*
X11880848Y-11257484D02*
X11899896Y-11247960D01*
X11899896Y-11247960D02*
X11909420Y-11238436D01*
X11909420Y-11238436D02*
X11918944Y-11219388D01*
X11918944Y-11219388D02*
X11918944Y-11171770D01*
X11918944Y-11171770D02*
X11909420Y-11152722D01*
X11909420Y-11152722D02*
X11899896Y-11143198D01*
X11899896Y-11143198D02*
X11880848Y-11133674D01*
X11880848Y-11133674D02*
X11842753Y-11133674D01*
X11842753Y-11133674D02*
X11823706Y-11143198D01*
X11823706Y-11143198D02*
X11814182Y-11152722D01*
X11814182Y-11152722D02*
X11804658Y-11171770D01*
X11995134Y-11057484D02*
X11995134Y-11095579D01*
X12071325Y-11057484D02*
X12071325Y-11095579D01*
X12366563Y-11333674D02*
X12357039Y-11324150D01*
X12357039Y-11324150D02*
X12337991Y-11295579D01*
X12337991Y-11295579D02*
X12328468Y-11276531D01*
X12328468Y-11276531D02*
X12318944Y-11247960D01*
X12318944Y-11247960D02*
X12309420Y-11200341D01*
X12309420Y-11200341D02*
X12309420Y-11162246D01*
X12309420Y-11162246D02*
X12318944Y-11114627D01*
X12318944Y-11114627D02*
X12328468Y-11086055D01*
X12328468Y-11086055D02*
X12337991Y-11067008D01*
X12337991Y-11067008D02*
X12357039Y-11038436D01*
X12357039Y-11038436D02*
X12366563Y-11028912D01*
X12528468Y-11124150D02*
X12528468Y-11257484D01*
X12480848Y-11047960D02*
X12433229Y-11190817D01*
X12433229Y-11190817D02*
X12557039Y-11190817D01*
X12785610Y-11257484D02*
X12785610Y-11057484D01*
X12871325Y-11257484D02*
X12871325Y-11152722D01*
X12871325Y-11152722D02*
X12861801Y-11133674D01*
X12861801Y-11133674D02*
X12842753Y-11124150D01*
X12842753Y-11124150D02*
X12814182Y-11124150D01*
X12814182Y-11124150D02*
X12795134Y-11133674D01*
X12795134Y-11133674D02*
X12785610Y-11143198D01*
X12995134Y-11257484D02*
X12976087Y-11247960D01*
X12976087Y-11247960D02*
X12966563Y-11238436D01*
X12966563Y-11238436D02*
X12957039Y-11219388D01*
X12957039Y-11219388D02*
X12957039Y-11162246D01*
X12957039Y-11162246D02*
X12966563Y-11143198D01*
X12966563Y-11143198D02*
X12976087Y-11133674D01*
X12976087Y-11133674D02*
X12995134Y-11124150D01*
X12995134Y-11124150D02*
X13023706Y-11124150D01*
X13023706Y-11124150D02*
X13042753Y-11133674D01*
X13042753Y-11133674D02*
X13052277Y-11143198D01*
X13052277Y-11143198D02*
X13061801Y-11162246D01*
X13061801Y-11162246D02*
X13061801Y-11219388D01*
X13061801Y-11219388D02*
X13052277Y-11238436D01*
X13052277Y-11238436D02*
X13042753Y-11247960D01*
X13042753Y-11247960D02*
X13023706Y-11257484D01*
X13023706Y-11257484D02*
X12995134Y-11257484D01*
X13176087Y-11257484D02*
X13157039Y-11247960D01*
X13157039Y-11247960D02*
X13147515Y-11228912D01*
X13147515Y-11228912D02*
X13147515Y-11057484D01*
X13328468Y-11247960D02*
X13309420Y-11257484D01*
X13309420Y-11257484D02*
X13271325Y-11257484D01*
X13271325Y-11257484D02*
X13252277Y-11247960D01*
X13252277Y-11247960D02*
X13242753Y-11228912D01*
X13242753Y-11228912D02*
X13242753Y-11152722D01*
X13242753Y-11152722D02*
X13252277Y-11133674D01*
X13252277Y-11133674D02*
X13271325Y-11124150D01*
X13271325Y-11124150D02*
X13309420Y-11124150D01*
X13309420Y-11124150D02*
X13328468Y-11133674D01*
X13328468Y-11133674D02*
X13337991Y-11152722D01*
X13337991Y-11152722D02*
X13337991Y-11171770D01*
X13337991Y-11171770D02*
X13242753Y-11190817D01*
X13414182Y-11247960D02*
X13433230Y-11257484D01*
X13433230Y-11257484D02*
X13471325Y-11257484D01*
X13471325Y-11257484D02*
X13490372Y-11247960D01*
X13490372Y-11247960D02*
X13499896Y-11228912D01*
X13499896Y-11228912D02*
X13499896Y-11219388D01*
X13499896Y-11219388D02*
X13490372Y-11200341D01*
X13490372Y-11200341D02*
X13471325Y-11190817D01*
X13471325Y-11190817D02*
X13442753Y-11190817D01*
X13442753Y-11190817D02*
X13423706Y-11181293D01*
X13423706Y-11181293D02*
X13414182Y-11162246D01*
X13414182Y-11162246D02*
X13414182Y-11152722D01*
X13414182Y-11152722D02*
X13423706Y-11133674D01*
X13423706Y-11133674D02*
X13442753Y-11124150D01*
X13442753Y-11124150D02*
X13471325Y-11124150D01*
X13471325Y-11124150D02*
X13490372Y-11133674D01*
X13566563Y-11333674D02*
X13576087Y-11324150D01*
X13576087Y-11324150D02*
X13595134Y-11295579D01*
X13595134Y-11295579D02*
X13604658Y-11276531D01*
X13604658Y-11276531D02*
X13614182Y-11247960D01*
X13614182Y-11247960D02*
X13623706Y-11200341D01*
X13623706Y-11200341D02*
X13623706Y-11162246D01*
X13623706Y-11162246D02*
X13614182Y-11114627D01*
X13614182Y-11114627D02*
X13604658Y-11086055D01*
X13604658Y-11086055D02*
X13595134Y-11067008D01*
X13595134Y-11067008D02*
X13576087Y-11038436D01*
X13576087Y-11038436D02*
X13566563Y-11028912D01*
X13928468Y-11333674D02*
X13918944Y-11324150D01*
X13918944Y-11324150D02*
X13899896Y-11295579D01*
X13899896Y-11295579D02*
X13890372Y-11276531D01*
X13890372Y-11276531D02*
X13880849Y-11247960D01*
X13880849Y-11247960D02*
X13871325Y-11200341D01*
X13871325Y-11200341D02*
X13871325Y-11162246D01*
X13871325Y-11162246D02*
X13880849Y-11114627D01*
X13880849Y-11114627D02*
X13890372Y-11086055D01*
X13890372Y-11086055D02*
X13899896Y-11067008D01*
X13899896Y-11067008D02*
X13918944Y-11038436D01*
X13918944Y-11038436D02*
X13928468Y-11028912D01*
X14004658Y-11124150D02*
X14004658Y-11257484D01*
X14004658Y-11143198D02*
X14014182Y-11133674D01*
X14014182Y-11133674D02*
X14033230Y-11124150D01*
X14033230Y-11124150D02*
X14061801Y-11124150D01*
X14061801Y-11124150D02*
X14080849Y-11133674D01*
X14080849Y-11133674D02*
X14090372Y-11152722D01*
X14090372Y-11152722D02*
X14090372Y-11257484D01*
X14214182Y-11257484D02*
X14195134Y-11247960D01*
X14195134Y-11247960D02*
X14185611Y-11238436D01*
X14185611Y-11238436D02*
X14176087Y-11219388D01*
X14176087Y-11219388D02*
X14176087Y-11162246D01*
X14176087Y-11162246D02*
X14185611Y-11143198D01*
X14185611Y-11143198D02*
X14195134Y-11133674D01*
X14195134Y-11133674D02*
X14214182Y-11124150D01*
X14214182Y-11124150D02*
X14242753Y-11124150D01*
X14242753Y-11124150D02*
X14261801Y-11133674D01*
X14261801Y-11133674D02*
X14271325Y-11143198D01*
X14271325Y-11143198D02*
X14280849Y-11162246D01*
X14280849Y-11162246D02*
X14280849Y-11219388D01*
X14280849Y-11219388D02*
X14271325Y-11238436D01*
X14271325Y-11238436D02*
X14261801Y-11247960D01*
X14261801Y-11247960D02*
X14242753Y-11257484D01*
X14242753Y-11257484D02*
X14214182Y-11257484D01*
X14337992Y-11124150D02*
X14414182Y-11124150D01*
X14366563Y-11057484D02*
X14366563Y-11228912D01*
X14366563Y-11228912D02*
X14376087Y-11247960D01*
X14376087Y-11247960D02*
X14395134Y-11257484D01*
X14395134Y-11257484D02*
X14414182Y-11257484D01*
X14633230Y-11124150D02*
X14633230Y-11324150D01*
X14633230Y-11133674D02*
X14652277Y-11124150D01*
X14652277Y-11124150D02*
X14690373Y-11124150D01*
X14690373Y-11124150D02*
X14709420Y-11133674D01*
X14709420Y-11133674D02*
X14718944Y-11143198D01*
X14718944Y-11143198D02*
X14728468Y-11162246D01*
X14728468Y-11162246D02*
X14728468Y-11219388D01*
X14728468Y-11219388D02*
X14718944Y-11238436D01*
X14718944Y-11238436D02*
X14709420Y-11247960D01*
X14709420Y-11247960D02*
X14690373Y-11257484D01*
X14690373Y-11257484D02*
X14652277Y-11257484D01*
X14652277Y-11257484D02*
X14633230Y-11247960D01*
X14842753Y-11257484D02*
X14823706Y-11247960D01*
X14823706Y-11247960D02*
X14814182Y-11228912D01*
X14814182Y-11228912D02*
X14814182Y-11057484D01*
X15004658Y-11257484D02*
X15004658Y-11152722D01*
X15004658Y-11152722D02*
X14995134Y-11133674D01*
X14995134Y-11133674D02*
X14976087Y-11124150D01*
X14976087Y-11124150D02*
X14937992Y-11124150D01*
X14937992Y-11124150D02*
X14918944Y-11133674D01*
X15004658Y-11247960D02*
X14985611Y-11257484D01*
X14985611Y-11257484D02*
X14937992Y-11257484D01*
X14937992Y-11257484D02*
X14918944Y-11247960D01*
X14918944Y-11247960D02*
X14909420Y-11228912D01*
X14909420Y-11228912D02*
X14909420Y-11209865D01*
X14909420Y-11209865D02*
X14918944Y-11190817D01*
X14918944Y-11190817D02*
X14937992Y-11181293D01*
X14937992Y-11181293D02*
X14985611Y-11181293D01*
X14985611Y-11181293D02*
X15004658Y-11171770D01*
X15071325Y-11124150D02*
X15147515Y-11124150D01*
X15099896Y-11057484D02*
X15099896Y-11228912D01*
X15099896Y-11228912D02*
X15109420Y-11247960D01*
X15109420Y-11247960D02*
X15128468Y-11257484D01*
X15128468Y-11257484D02*
X15147515Y-11257484D01*
X15290373Y-11247960D02*
X15271325Y-11257484D01*
X15271325Y-11257484D02*
X15233230Y-11257484D01*
X15233230Y-11257484D02*
X15214182Y-11247960D01*
X15214182Y-11247960D02*
X15204658Y-11228912D01*
X15204658Y-11228912D02*
X15204658Y-11152722D01*
X15204658Y-11152722D02*
X15214182Y-11133674D01*
X15214182Y-11133674D02*
X15233230Y-11124150D01*
X15233230Y-11124150D02*
X15271325Y-11124150D01*
X15271325Y-11124150D02*
X15290373Y-11133674D01*
X15290373Y-11133674D02*
X15299896Y-11152722D01*
X15299896Y-11152722D02*
X15299896Y-11171770D01*
X15299896Y-11171770D02*
X15204658Y-11190817D01*
X15471325Y-11257484D02*
X15471325Y-11057484D01*
X15471325Y-11247960D02*
X15452277Y-11257484D01*
X15452277Y-11257484D02*
X15414182Y-11257484D01*
X15414182Y-11257484D02*
X15395134Y-11247960D01*
X15395134Y-11247960D02*
X15385611Y-11238436D01*
X15385611Y-11238436D02*
X15376087Y-11219388D01*
X15376087Y-11219388D02*
X15376087Y-11162246D01*
X15376087Y-11162246D02*
X15385611Y-11143198D01*
X15385611Y-11143198D02*
X15395134Y-11133674D01*
X15395134Y-11133674D02*
X15414182Y-11124150D01*
X15414182Y-11124150D02*
X15452277Y-11124150D01*
X15452277Y-11124150D02*
X15471325Y-11133674D01*
X15547515Y-11333674D02*
X15557039Y-11324150D01*
X15557039Y-11324150D02*
X15576087Y-11295579D01*
X15576087Y-11295579D02*
X15585611Y-11276531D01*
X15585611Y-11276531D02*
X15595134Y-11247960D01*
X15595134Y-11247960D02*
X15604658Y-11200341D01*
X15604658Y-11200341D02*
X15604658Y-11162246D01*
X15604658Y-11162246D02*
X15595134Y-11114627D01*
X15595134Y-11114627D02*
X15585611Y-11086055D01*
X15585611Y-11086055D02*
X15576087Y-11067008D01*
X15576087Y-11067008D02*
X15557039Y-11038436D01*
X15557039Y-11038436D02*
X15547515Y-11028912D01*
M02*
