%TF.GenerationSoftware,KiCad,Pcbnew,7.0.5*%
%TF.CreationDate,2024-08-04T00:23:40+08:00*%
%TF.ProjectId,TPS,5450532e-6b69-4636-9164-5f7063625858,rev?*%
%TF.SameCoordinates,Original*%
%TF.FileFunction,Copper,L2,Bot*%
%TF.FilePolarity,Positive*%
%FSLAX46Y46*%
G04 Gerber Fmt 4.6, Leading zero omitted, Abs format (unit mm)*
G04 Created by KiCad (PCBNEW 7.0.5) date 2024-08-04 00:23:40*
%MOMM*%
%LPD*%
G01*
G04 APERTURE LIST*
G04 APERTURE END LIST*
%TA.AperFunction,NonConductor*%
G36*
X201157426Y-29000691D02*
G01*
X201160040Y-29000896D01*
X201212011Y-29004986D01*
X201352579Y-29017285D01*
X201370698Y-29020236D01*
X201450242Y-29039333D01*
X201451699Y-29039702D01*
X201538318Y-29062912D01*
X201561714Y-29069181D01*
X201569400Y-29071790D01*
X201618484Y-29092120D01*
X201654737Y-29107136D01*
X201657156Y-29108201D01*
X201754970Y-29153813D01*
X201761140Y-29157128D01*
X201803965Y-29183371D01*
X201841767Y-29206537D01*
X201844927Y-29208608D01*
X201931606Y-29269302D01*
X201936285Y-29272924D01*
X202008840Y-29334892D01*
X202012389Y-29338173D01*
X202086824Y-29412608D01*
X202090109Y-29416162D01*
X202152070Y-29488708D01*
X202155707Y-29493406D01*
X202216385Y-29580064D01*
X202218461Y-29583231D01*
X202267863Y-29663845D01*
X202271193Y-29670043D01*
X202316780Y-29767804D01*
X202317870Y-29770281D01*
X202353208Y-29855598D01*
X202355817Y-29863284D01*
X202385277Y-29973226D01*
X202385676Y-29974800D01*
X202404760Y-30054290D01*
X202407714Y-30072430D01*
X202420014Y-30213024D01*
X202424309Y-30267572D01*
X202424500Y-30272440D01*
X202424500Y-103927559D01*
X202424309Y-103932427D01*
X202420014Y-103986974D01*
X202407714Y-104127568D01*
X202404760Y-104145708D01*
X202385676Y-104225198D01*
X202385277Y-104226772D01*
X202355817Y-104336714D01*
X202353208Y-104344400D01*
X202317870Y-104429717D01*
X202316780Y-104432194D01*
X202271193Y-104529955D01*
X202267863Y-104536153D01*
X202218461Y-104616767D01*
X202216385Y-104619934D01*
X202155707Y-104706592D01*
X202152062Y-104711300D01*
X202090118Y-104783827D01*
X202086812Y-104787403D01*
X202012403Y-104861812D01*
X202008827Y-104865118D01*
X201936300Y-104927062D01*
X201931592Y-104930707D01*
X201844934Y-104991385D01*
X201841767Y-104993461D01*
X201761153Y-105042863D01*
X201754955Y-105046193D01*
X201657194Y-105091780D01*
X201654717Y-105092870D01*
X201569400Y-105128208D01*
X201561714Y-105130817D01*
X201451772Y-105160277D01*
X201450198Y-105160676D01*
X201370708Y-105179760D01*
X201352568Y-105182714D01*
X201211974Y-105195014D01*
X201157427Y-105199309D01*
X201152559Y-105199500D01*
X89247441Y-105199500D01*
X89242573Y-105199309D01*
X89188024Y-105195014D01*
X89047430Y-105182714D01*
X89029290Y-105179760D01*
X88949800Y-105160676D01*
X88948226Y-105160277D01*
X88838284Y-105130817D01*
X88830598Y-105128208D01*
X88745281Y-105092870D01*
X88742804Y-105091780D01*
X88645043Y-105046193D01*
X88638845Y-105042863D01*
X88558231Y-104993461D01*
X88555064Y-104991385D01*
X88522182Y-104968361D01*
X88468399Y-104930702D01*
X88463708Y-104927070D01*
X88391162Y-104865109D01*
X88387608Y-104861824D01*
X88313173Y-104787389D01*
X88309892Y-104783840D01*
X88247924Y-104711285D01*
X88244302Y-104706606D01*
X88183608Y-104619927D01*
X88181537Y-104616767D01*
X88164182Y-104588448D01*
X88132128Y-104536140D01*
X88128813Y-104529970D01*
X88083201Y-104432156D01*
X88082136Y-104429737D01*
X88067120Y-104393484D01*
X88046790Y-104344400D01*
X88044181Y-104336714D01*
X88037912Y-104313318D01*
X88014702Y-104226699D01*
X88014333Y-104225242D01*
X87995236Y-104145698D01*
X87992285Y-104127579D01*
X87979984Y-103986974D01*
X87975691Y-103932426D01*
X87975500Y-103927560D01*
X87975500Y-102700889D01*
X90599416Y-102700889D01*
X90599459Y-102725001D01*
X90599544Y-102725206D01*
X90599616Y-102725382D01*
X90599618Y-102725384D01*
X90599808Y-102725462D01*
X90600000Y-102725541D01*
X90600002Y-102725539D01*
X90624616Y-102725524D01*
X90624616Y-102725528D01*
X90624760Y-102725500D01*
X104675240Y-102725500D01*
X104675383Y-102725528D01*
X104675384Y-102725524D01*
X104699997Y-102725539D01*
X104700000Y-102725541D01*
X104700383Y-102725383D01*
X104700500Y-102725099D01*
X104700541Y-102725000D01*
X104700540Y-102724997D01*
X104700583Y-102700889D01*
X109649416Y-102700889D01*
X109649459Y-102725001D01*
X109649544Y-102725206D01*
X109649616Y-102725382D01*
X109649618Y-102725384D01*
X109649808Y-102725462D01*
X109650000Y-102725541D01*
X109650002Y-102725539D01*
X109674616Y-102725524D01*
X109674616Y-102725528D01*
X109674760Y-102725500D01*
X123725240Y-102725500D01*
X123725383Y-102725528D01*
X123725384Y-102725524D01*
X123749997Y-102725539D01*
X123750000Y-102725541D01*
X123750383Y-102725383D01*
X123750500Y-102725099D01*
X123750541Y-102725000D01*
X123750540Y-102724997D01*
X123750583Y-102700889D01*
X128699416Y-102700889D01*
X128699459Y-102725001D01*
X128699544Y-102725206D01*
X128699616Y-102725382D01*
X128699618Y-102725384D01*
X128699808Y-102725462D01*
X128700000Y-102725541D01*
X128700002Y-102725539D01*
X128724616Y-102725524D01*
X128724616Y-102725528D01*
X128724760Y-102725500D01*
X142775240Y-102725500D01*
X142775383Y-102725528D01*
X142775384Y-102725524D01*
X142799997Y-102725539D01*
X142800000Y-102725541D01*
X142800383Y-102725383D01*
X142800500Y-102725099D01*
X142800541Y-102725000D01*
X142800540Y-102724997D01*
X142800583Y-102700889D01*
X147749416Y-102700889D01*
X147749459Y-102725001D01*
X147749544Y-102725206D01*
X147749616Y-102725382D01*
X147749618Y-102725384D01*
X147749808Y-102725462D01*
X147750000Y-102725541D01*
X147750002Y-102725539D01*
X147774616Y-102725524D01*
X147774616Y-102725528D01*
X147774760Y-102725500D01*
X161825240Y-102725500D01*
X161825383Y-102725528D01*
X161825384Y-102725524D01*
X161849997Y-102725539D01*
X161850000Y-102725541D01*
X161850383Y-102725383D01*
X161850500Y-102725099D01*
X161850541Y-102725000D01*
X161850540Y-102724997D01*
X161850583Y-102700889D01*
X166799416Y-102700889D01*
X166799459Y-102725001D01*
X166799544Y-102725206D01*
X166799616Y-102725382D01*
X166799618Y-102725384D01*
X166799808Y-102725462D01*
X166800000Y-102725541D01*
X166800002Y-102725539D01*
X166824616Y-102725524D01*
X166824616Y-102725528D01*
X166824760Y-102725500D01*
X180875240Y-102725500D01*
X180875383Y-102725528D01*
X180875384Y-102725524D01*
X180899997Y-102725539D01*
X180900000Y-102725541D01*
X180900383Y-102725383D01*
X180900500Y-102725099D01*
X180900541Y-102725000D01*
X180900540Y-102724997D01*
X180900583Y-102700889D01*
X185849416Y-102700889D01*
X185849459Y-102725001D01*
X185849544Y-102725206D01*
X185849616Y-102725382D01*
X185849618Y-102725384D01*
X185849808Y-102725462D01*
X185850000Y-102725541D01*
X185850002Y-102725539D01*
X185874616Y-102725524D01*
X185874616Y-102725528D01*
X185874760Y-102725500D01*
X199925240Y-102725500D01*
X199925383Y-102725528D01*
X199925384Y-102725524D01*
X199949997Y-102725539D01*
X199950000Y-102725541D01*
X199950383Y-102725383D01*
X199950500Y-102725099D01*
X199950541Y-102725000D01*
X199950540Y-102724997D01*
X199950583Y-102700889D01*
X199950500Y-102700467D01*
X199950500Y-88649759D01*
X199950528Y-88649616D01*
X199950524Y-88649616D01*
X199950539Y-88625002D01*
X199950541Y-88625000D01*
X199950462Y-88624808D01*
X199950384Y-88624618D01*
X199950383Y-88624617D01*
X199950381Y-88624616D01*
X199950090Y-88624496D01*
X199950001Y-88624459D01*
X199925446Y-88624459D01*
X199925240Y-88624500D01*
X185874760Y-88624500D01*
X185874554Y-88624459D01*
X185849998Y-88624459D01*
X185849909Y-88624496D01*
X185849619Y-88624615D01*
X185849615Y-88624618D01*
X185849459Y-88624999D01*
X185849476Y-88649616D01*
X185849471Y-88649616D01*
X185849500Y-88649759D01*
X185849499Y-102700467D01*
X185849416Y-102700889D01*
X180900583Y-102700889D01*
X180900500Y-102700467D01*
X180900500Y-88649759D01*
X180900528Y-88649616D01*
X180900524Y-88649616D01*
X180900539Y-88625002D01*
X180900541Y-88625000D01*
X180900462Y-88624808D01*
X180900384Y-88624618D01*
X180900383Y-88624617D01*
X180900381Y-88624616D01*
X180900090Y-88624496D01*
X180900001Y-88624459D01*
X180875446Y-88624459D01*
X180875240Y-88624500D01*
X166824760Y-88624500D01*
X166824554Y-88624459D01*
X166799998Y-88624459D01*
X166799909Y-88624496D01*
X166799619Y-88624615D01*
X166799615Y-88624618D01*
X166799459Y-88624999D01*
X166799476Y-88649616D01*
X166799471Y-88649616D01*
X166799500Y-88649759D01*
X166799500Y-102700467D01*
X166799416Y-102700889D01*
X161850583Y-102700889D01*
X161850500Y-102700467D01*
X161850500Y-88649759D01*
X161850528Y-88649616D01*
X161850524Y-88649616D01*
X161850539Y-88625002D01*
X161850541Y-88625000D01*
X161850462Y-88624808D01*
X161850384Y-88624618D01*
X161850383Y-88624617D01*
X161850381Y-88624616D01*
X161850090Y-88624496D01*
X161850001Y-88624459D01*
X161825446Y-88624459D01*
X161825240Y-88624500D01*
X147774760Y-88624500D01*
X147774554Y-88624459D01*
X147749998Y-88624459D01*
X147749909Y-88624496D01*
X147749619Y-88624615D01*
X147749615Y-88624618D01*
X147749459Y-88624999D01*
X147749476Y-88649616D01*
X147749471Y-88649616D01*
X147749500Y-88649759D01*
X147749500Y-102700467D01*
X147749416Y-102700889D01*
X142800583Y-102700889D01*
X142800500Y-102700467D01*
X142800500Y-88649759D01*
X142800528Y-88649616D01*
X142800524Y-88649616D01*
X142800539Y-88625002D01*
X142800541Y-88625000D01*
X142800462Y-88624808D01*
X142800384Y-88624618D01*
X142800383Y-88624617D01*
X142800381Y-88624616D01*
X142800090Y-88624496D01*
X142800001Y-88624459D01*
X142775446Y-88624459D01*
X142775240Y-88624500D01*
X128724760Y-88624500D01*
X128724554Y-88624459D01*
X128699998Y-88624459D01*
X128699909Y-88624496D01*
X128699619Y-88624615D01*
X128699615Y-88624618D01*
X128699459Y-88624999D01*
X128699476Y-88649616D01*
X128699471Y-88649616D01*
X128699500Y-88649759D01*
X128699500Y-102700467D01*
X128699416Y-102700889D01*
X123750583Y-102700889D01*
X123750500Y-102700467D01*
X123750500Y-88649759D01*
X123750528Y-88649616D01*
X123750524Y-88649616D01*
X123750539Y-88625002D01*
X123750541Y-88625000D01*
X123750462Y-88624808D01*
X123750384Y-88624618D01*
X123750383Y-88624617D01*
X123750381Y-88624616D01*
X123750090Y-88624496D01*
X123750001Y-88624459D01*
X123725446Y-88624459D01*
X123725240Y-88624500D01*
X109674760Y-88624500D01*
X109674554Y-88624459D01*
X109649998Y-88624459D01*
X109649909Y-88624496D01*
X109649619Y-88624615D01*
X109649615Y-88624618D01*
X109649459Y-88624999D01*
X109649476Y-88649616D01*
X109649471Y-88649616D01*
X109649500Y-88649759D01*
X109649500Y-102700467D01*
X109649416Y-102700889D01*
X104700583Y-102700889D01*
X104700500Y-102700467D01*
X104700500Y-88649759D01*
X104700528Y-88649616D01*
X104700524Y-88649616D01*
X104700539Y-88625002D01*
X104700541Y-88625000D01*
X104700462Y-88624808D01*
X104700384Y-88624618D01*
X104700383Y-88624617D01*
X104700381Y-88624616D01*
X104700090Y-88624496D01*
X104700001Y-88624459D01*
X104675446Y-88624459D01*
X104675240Y-88624500D01*
X90624760Y-88624500D01*
X90624554Y-88624459D01*
X90599998Y-88624459D01*
X90599909Y-88624496D01*
X90599619Y-88624615D01*
X90599615Y-88624618D01*
X90599459Y-88624999D01*
X90599476Y-88649616D01*
X90599471Y-88649616D01*
X90599500Y-88649759D01*
X90599500Y-102700467D01*
X90599416Y-102700889D01*
X87975500Y-102700889D01*
X87975500Y-86150000D01*
X105819341Y-86150000D01*
X105839936Y-86385403D01*
X105839938Y-86385413D01*
X105901094Y-86613655D01*
X105901096Y-86613659D01*
X105901097Y-86613663D01*
X105951031Y-86720745D01*
X106000964Y-86827828D01*
X106000965Y-86827830D01*
X106136505Y-87021402D01*
X106303597Y-87188494D01*
X106497169Y-87324034D01*
X106497171Y-87324035D01*
X106711337Y-87423903D01*
X106939592Y-87485063D01*
X107116032Y-87500499D01*
X107116033Y-87500500D01*
X107116034Y-87500500D01*
X107233967Y-87500500D01*
X107233967Y-87500499D01*
X107410408Y-87485063D01*
X107638663Y-87423903D01*
X107852829Y-87324035D01*
X108046401Y-87188495D01*
X108213495Y-87021401D01*
X108349035Y-86827830D01*
X108448903Y-86613663D01*
X108510063Y-86385408D01*
X108530659Y-86150000D01*
X182019341Y-86150000D01*
X182039936Y-86385403D01*
X182039938Y-86385413D01*
X182101094Y-86613655D01*
X182101096Y-86613659D01*
X182101097Y-86613663D01*
X182151030Y-86720746D01*
X182200964Y-86827828D01*
X182200965Y-86827830D01*
X182336505Y-87021402D01*
X182503597Y-87188494D01*
X182697169Y-87324034D01*
X182697171Y-87324035D01*
X182911337Y-87423903D01*
X183139592Y-87485063D01*
X183316032Y-87500499D01*
X183316033Y-87500500D01*
X183316034Y-87500500D01*
X183433967Y-87500500D01*
X183433967Y-87500499D01*
X183610408Y-87485063D01*
X183838663Y-87423903D01*
X184052829Y-87324035D01*
X184246401Y-87188495D01*
X184413495Y-87021401D01*
X184549035Y-86827830D01*
X184648903Y-86613663D01*
X184710063Y-86385408D01*
X184730659Y-86150000D01*
X184710063Y-85914592D01*
X184648903Y-85686337D01*
X184549035Y-85472171D01*
X184549034Y-85472169D01*
X184413494Y-85278597D01*
X184246402Y-85111505D01*
X184052830Y-84975965D01*
X184052828Y-84975964D01*
X183945746Y-84926031D01*
X183838663Y-84876097D01*
X183838659Y-84876096D01*
X183838655Y-84876094D01*
X183610413Y-84814938D01*
X183610403Y-84814936D01*
X183433967Y-84799500D01*
X183433966Y-84799500D01*
X183316034Y-84799500D01*
X183316033Y-84799500D01*
X183139596Y-84814936D01*
X183139586Y-84814938D01*
X182911344Y-84876094D01*
X182911335Y-84876098D01*
X182697171Y-84975964D01*
X182697169Y-84975965D01*
X182503597Y-85111505D01*
X182336506Y-85278597D01*
X182336501Y-85278604D01*
X182200967Y-85472165D01*
X182200965Y-85472169D01*
X182101098Y-85686335D01*
X182101094Y-85686344D01*
X182039938Y-85914586D01*
X182039936Y-85914596D01*
X182019341Y-86149999D01*
X182019341Y-86150000D01*
X108530659Y-86150000D01*
X108510063Y-85914592D01*
X108448903Y-85686337D01*
X108349035Y-85472171D01*
X108349034Y-85472169D01*
X108213494Y-85278597D01*
X108046402Y-85111505D01*
X107852830Y-84975965D01*
X107852828Y-84975964D01*
X107745746Y-84926030D01*
X107638663Y-84876097D01*
X107638659Y-84876096D01*
X107638655Y-84876094D01*
X107410413Y-84814938D01*
X107410403Y-84814936D01*
X107233967Y-84799500D01*
X107233966Y-84799500D01*
X107116034Y-84799500D01*
X107116033Y-84799500D01*
X106939596Y-84814936D01*
X106939586Y-84814938D01*
X106711344Y-84876094D01*
X106711335Y-84876098D01*
X106497171Y-84975964D01*
X106497169Y-84975965D01*
X106303597Y-85111505D01*
X106136506Y-85278597D01*
X106136501Y-85278604D01*
X106000967Y-85472165D01*
X106000965Y-85472169D01*
X105901098Y-85686335D01*
X105901094Y-85686344D01*
X105839938Y-85914586D01*
X105839936Y-85914596D01*
X105819341Y-86149999D01*
X105819341Y-86150000D01*
X87975500Y-86150000D01*
X87975500Y-83650889D01*
X90599416Y-83650889D01*
X90599459Y-83675001D01*
X90599544Y-83675206D01*
X90599616Y-83675382D01*
X90599618Y-83675384D01*
X90599808Y-83675462D01*
X90600000Y-83675541D01*
X90600002Y-83675539D01*
X90624616Y-83675524D01*
X90624616Y-83675528D01*
X90624760Y-83675500D01*
X104675240Y-83675500D01*
X104675383Y-83675528D01*
X104675384Y-83675524D01*
X104699997Y-83675539D01*
X104700000Y-83675541D01*
X104700383Y-83675383D01*
X104700500Y-83675099D01*
X104700541Y-83675000D01*
X104700540Y-83674997D01*
X104700583Y-83650889D01*
X109649416Y-83650889D01*
X109649459Y-83675001D01*
X109649544Y-83675206D01*
X109649616Y-83675382D01*
X109649618Y-83675384D01*
X109649808Y-83675462D01*
X109650000Y-83675541D01*
X109650002Y-83675539D01*
X109674616Y-83675524D01*
X109674616Y-83675528D01*
X109674760Y-83675500D01*
X123725240Y-83675500D01*
X123725383Y-83675528D01*
X123725384Y-83675524D01*
X123749997Y-83675539D01*
X123750000Y-83675541D01*
X123750383Y-83675383D01*
X123750500Y-83675099D01*
X123750541Y-83675000D01*
X123750540Y-83674997D01*
X123750583Y-83650889D01*
X128699416Y-83650889D01*
X128699459Y-83675001D01*
X128699544Y-83675206D01*
X128699616Y-83675382D01*
X128699618Y-83675384D01*
X128699808Y-83675462D01*
X128700000Y-83675541D01*
X128700002Y-83675539D01*
X128724616Y-83675524D01*
X128724616Y-83675528D01*
X128724760Y-83675500D01*
X142775240Y-83675500D01*
X142775383Y-83675528D01*
X142775384Y-83675524D01*
X142799997Y-83675539D01*
X142800000Y-83675541D01*
X142800383Y-83675383D01*
X142800500Y-83675099D01*
X142800541Y-83675000D01*
X142800540Y-83674997D01*
X142800583Y-83650889D01*
X147749416Y-83650889D01*
X147749459Y-83675001D01*
X147749544Y-83675206D01*
X147749616Y-83675382D01*
X147749618Y-83675384D01*
X147749808Y-83675462D01*
X147750000Y-83675541D01*
X147750002Y-83675539D01*
X147774616Y-83675524D01*
X147774616Y-83675528D01*
X147774760Y-83675500D01*
X161825240Y-83675500D01*
X161825383Y-83675528D01*
X161825384Y-83675524D01*
X161849997Y-83675539D01*
X161850000Y-83675541D01*
X161850383Y-83675383D01*
X161850500Y-83675099D01*
X161850541Y-83675000D01*
X161850540Y-83674997D01*
X161850583Y-83650889D01*
X166799416Y-83650889D01*
X166799459Y-83675001D01*
X166799544Y-83675206D01*
X166799616Y-83675382D01*
X166799618Y-83675384D01*
X166799808Y-83675462D01*
X166800000Y-83675541D01*
X166800002Y-83675539D01*
X166824616Y-83675524D01*
X166824616Y-83675528D01*
X166824760Y-83675500D01*
X180875240Y-83675500D01*
X180875383Y-83675528D01*
X180875384Y-83675524D01*
X180899997Y-83675539D01*
X180900000Y-83675541D01*
X180900383Y-83675383D01*
X180900500Y-83675099D01*
X180900541Y-83675000D01*
X180900540Y-83674997D01*
X180900583Y-83650889D01*
X185849416Y-83650889D01*
X185849459Y-83675001D01*
X185849544Y-83675206D01*
X185849616Y-83675382D01*
X185849618Y-83675384D01*
X185849808Y-83675462D01*
X185850000Y-83675541D01*
X185850002Y-83675539D01*
X185874616Y-83675524D01*
X185874616Y-83675528D01*
X185874760Y-83675500D01*
X199925240Y-83675500D01*
X199925383Y-83675528D01*
X199925384Y-83675524D01*
X199949997Y-83675539D01*
X199950000Y-83675541D01*
X199950383Y-83675383D01*
X199950500Y-83675099D01*
X199950541Y-83675000D01*
X199950540Y-83674997D01*
X199950583Y-83650889D01*
X199950500Y-83650467D01*
X199950500Y-69599759D01*
X199950528Y-69599616D01*
X199950524Y-69599616D01*
X199950539Y-69575002D01*
X199950541Y-69575000D01*
X199950462Y-69574808D01*
X199950384Y-69574618D01*
X199950383Y-69574617D01*
X199950381Y-69574616D01*
X199950090Y-69574496D01*
X199950001Y-69574459D01*
X199925446Y-69574459D01*
X199925240Y-69574500D01*
X185874760Y-69574500D01*
X185874554Y-69574459D01*
X185849998Y-69574459D01*
X185849909Y-69574496D01*
X185849619Y-69574615D01*
X185849615Y-69574618D01*
X185849459Y-69574999D01*
X185849476Y-69599616D01*
X185849471Y-69599616D01*
X185849500Y-69599759D01*
X185849499Y-83650467D01*
X185849416Y-83650889D01*
X180900583Y-83650889D01*
X180900500Y-83650467D01*
X180900500Y-69599759D01*
X180900528Y-69599616D01*
X180900524Y-69599616D01*
X180900539Y-69575002D01*
X180900541Y-69575000D01*
X180900462Y-69574808D01*
X180900384Y-69574618D01*
X180900383Y-69574617D01*
X180900381Y-69574616D01*
X180900090Y-69574496D01*
X180900001Y-69574459D01*
X180875446Y-69574459D01*
X180875240Y-69574500D01*
X166824760Y-69574500D01*
X166824554Y-69574459D01*
X166799998Y-69574459D01*
X166799909Y-69574496D01*
X166799619Y-69574615D01*
X166799615Y-69574618D01*
X166799459Y-69574999D01*
X166799476Y-69599616D01*
X166799471Y-69599616D01*
X166799500Y-69599759D01*
X166799500Y-83650467D01*
X166799416Y-83650889D01*
X161850583Y-83650889D01*
X161850500Y-83650467D01*
X161850500Y-69599759D01*
X161850528Y-69599616D01*
X161850524Y-69599616D01*
X161850539Y-69575002D01*
X161850541Y-69575000D01*
X161850462Y-69574808D01*
X161850384Y-69574618D01*
X161850383Y-69574617D01*
X161850381Y-69574616D01*
X161850090Y-69574496D01*
X161850001Y-69574459D01*
X161825446Y-69574459D01*
X161825240Y-69574500D01*
X147774760Y-69574500D01*
X147774554Y-69574459D01*
X147749998Y-69574459D01*
X147749909Y-69574496D01*
X147749619Y-69574615D01*
X147749615Y-69574618D01*
X147749459Y-69574999D01*
X147749476Y-69599616D01*
X147749471Y-69599616D01*
X147749500Y-69599759D01*
X147749500Y-83650467D01*
X147749416Y-83650889D01*
X142800583Y-83650889D01*
X142800500Y-83650467D01*
X142800500Y-69599759D01*
X142800528Y-69599616D01*
X142800524Y-69599616D01*
X142800539Y-69575002D01*
X142800541Y-69575000D01*
X142800462Y-69574808D01*
X142800384Y-69574618D01*
X142800383Y-69574617D01*
X142800381Y-69574616D01*
X142800090Y-69574496D01*
X142800001Y-69574459D01*
X142775446Y-69574459D01*
X142775240Y-69574500D01*
X128724760Y-69574500D01*
X128724554Y-69574459D01*
X128699998Y-69574459D01*
X128699909Y-69574496D01*
X128699619Y-69574615D01*
X128699615Y-69574618D01*
X128699459Y-69574999D01*
X128699476Y-69599616D01*
X128699471Y-69599616D01*
X128699500Y-69599759D01*
X128699500Y-83650467D01*
X128699416Y-83650889D01*
X123750583Y-83650889D01*
X123750500Y-83650467D01*
X123750500Y-69599759D01*
X123750528Y-69599616D01*
X123750524Y-69599616D01*
X123750539Y-69575002D01*
X123750541Y-69575000D01*
X123750462Y-69574808D01*
X123750384Y-69574618D01*
X123750383Y-69574617D01*
X123750381Y-69574616D01*
X123750090Y-69574496D01*
X123750001Y-69574459D01*
X123725446Y-69574459D01*
X123725240Y-69574500D01*
X109674760Y-69574500D01*
X109674554Y-69574459D01*
X109649998Y-69574459D01*
X109649909Y-69574496D01*
X109649619Y-69574615D01*
X109649615Y-69574618D01*
X109649459Y-69574999D01*
X109649476Y-69599616D01*
X109649471Y-69599616D01*
X109649500Y-69599759D01*
X109649500Y-83650467D01*
X109649416Y-83650889D01*
X104700583Y-83650889D01*
X104700500Y-83650467D01*
X104700500Y-69599759D01*
X104700528Y-69599616D01*
X104700524Y-69599616D01*
X104700539Y-69575002D01*
X104700541Y-69575000D01*
X104700462Y-69574808D01*
X104700384Y-69574618D01*
X104700383Y-69574617D01*
X104700381Y-69574616D01*
X104700090Y-69574496D01*
X104700001Y-69574459D01*
X104675446Y-69574459D01*
X104675240Y-69574500D01*
X90624760Y-69574500D01*
X90624554Y-69574459D01*
X90599998Y-69574459D01*
X90599909Y-69574496D01*
X90599619Y-69574615D01*
X90599615Y-69574618D01*
X90599459Y-69574999D01*
X90599476Y-69599616D01*
X90599471Y-69599616D01*
X90599500Y-69599759D01*
X90599500Y-83650467D01*
X90599416Y-83650889D01*
X87975500Y-83650889D01*
X87975500Y-64600889D01*
X90599416Y-64600889D01*
X90599459Y-64625001D01*
X90599544Y-64625206D01*
X90599616Y-64625382D01*
X90599618Y-64625384D01*
X90599808Y-64625462D01*
X90600000Y-64625541D01*
X90600002Y-64625539D01*
X90624616Y-64625524D01*
X90624616Y-64625528D01*
X90624760Y-64625500D01*
X104675240Y-64625500D01*
X104675383Y-64625528D01*
X104675384Y-64625524D01*
X104699997Y-64625539D01*
X104700000Y-64625541D01*
X104700383Y-64625383D01*
X104700500Y-64625099D01*
X104700541Y-64625000D01*
X104700540Y-64624997D01*
X104700583Y-64600889D01*
X109649416Y-64600889D01*
X109649459Y-64625001D01*
X109649544Y-64625206D01*
X109649616Y-64625382D01*
X109649618Y-64625384D01*
X109649808Y-64625462D01*
X109650000Y-64625541D01*
X109650002Y-64625539D01*
X109674616Y-64625524D01*
X109674616Y-64625528D01*
X109674760Y-64625500D01*
X123725240Y-64625500D01*
X123725383Y-64625528D01*
X123725384Y-64625524D01*
X123749997Y-64625539D01*
X123750000Y-64625541D01*
X123750383Y-64625383D01*
X123750500Y-64625099D01*
X123750541Y-64625000D01*
X123750540Y-64624997D01*
X123750583Y-64600889D01*
X128699416Y-64600889D01*
X128699459Y-64625001D01*
X128699544Y-64625206D01*
X128699616Y-64625382D01*
X128699618Y-64625384D01*
X128699808Y-64625462D01*
X128700000Y-64625541D01*
X128700002Y-64625539D01*
X128724616Y-64625524D01*
X128724616Y-64625528D01*
X128724760Y-64625500D01*
X142775240Y-64625500D01*
X142775383Y-64625528D01*
X142775384Y-64625524D01*
X142799997Y-64625539D01*
X142800000Y-64625541D01*
X142800383Y-64625383D01*
X142800500Y-64625099D01*
X142800541Y-64625000D01*
X142800540Y-64624997D01*
X142800583Y-64600889D01*
X147749416Y-64600889D01*
X147749459Y-64625001D01*
X147749544Y-64625206D01*
X147749616Y-64625382D01*
X147749618Y-64625384D01*
X147749808Y-64625462D01*
X147750000Y-64625541D01*
X147750002Y-64625539D01*
X147774616Y-64625524D01*
X147774616Y-64625528D01*
X147774760Y-64625500D01*
X161825240Y-64625500D01*
X161825383Y-64625528D01*
X161825384Y-64625524D01*
X161849997Y-64625539D01*
X161850000Y-64625541D01*
X161850383Y-64625383D01*
X161850500Y-64625099D01*
X161850541Y-64625000D01*
X161850540Y-64624997D01*
X161850583Y-64600889D01*
X166799416Y-64600889D01*
X166799459Y-64625001D01*
X166799544Y-64625206D01*
X166799616Y-64625382D01*
X166799618Y-64625384D01*
X166799808Y-64625462D01*
X166800000Y-64625541D01*
X166800002Y-64625539D01*
X166824616Y-64625524D01*
X166824616Y-64625528D01*
X166824760Y-64625500D01*
X180875240Y-64625500D01*
X180875383Y-64625528D01*
X180875384Y-64625524D01*
X180899997Y-64625539D01*
X180900000Y-64625541D01*
X180900383Y-64625383D01*
X180900500Y-64625099D01*
X180900541Y-64625000D01*
X180900540Y-64624997D01*
X180900583Y-64600889D01*
X185849416Y-64600889D01*
X185849459Y-64625001D01*
X185849544Y-64625206D01*
X185849616Y-64625382D01*
X185849618Y-64625384D01*
X185849808Y-64625462D01*
X185850000Y-64625541D01*
X185850002Y-64625539D01*
X185874616Y-64625524D01*
X185874616Y-64625528D01*
X185874760Y-64625500D01*
X199925240Y-64625500D01*
X199925383Y-64625528D01*
X199925384Y-64625524D01*
X199949997Y-64625539D01*
X199950000Y-64625541D01*
X199950383Y-64625383D01*
X199950500Y-64625099D01*
X199950541Y-64625000D01*
X199950540Y-64624997D01*
X199950583Y-64600889D01*
X199950500Y-64600467D01*
X199950500Y-50549759D01*
X199950528Y-50549616D01*
X199950524Y-50549616D01*
X199950539Y-50525002D01*
X199950541Y-50525000D01*
X199950462Y-50524808D01*
X199950384Y-50524618D01*
X199950383Y-50524617D01*
X199950381Y-50524616D01*
X199950090Y-50524496D01*
X199950001Y-50524459D01*
X199925446Y-50524459D01*
X199925240Y-50524500D01*
X185874760Y-50524500D01*
X185874554Y-50524459D01*
X185849998Y-50524459D01*
X185849909Y-50524496D01*
X185849619Y-50524615D01*
X185849615Y-50524618D01*
X185849459Y-50524999D01*
X185849476Y-50549616D01*
X185849471Y-50549616D01*
X185849500Y-50549759D01*
X185849499Y-64600467D01*
X185849416Y-64600889D01*
X180900583Y-64600889D01*
X180900500Y-64600467D01*
X180900500Y-50549759D01*
X180900528Y-50549616D01*
X180900524Y-50549616D01*
X180900539Y-50525002D01*
X180900541Y-50525000D01*
X180900462Y-50524808D01*
X180900384Y-50524618D01*
X180900383Y-50524617D01*
X180900381Y-50524616D01*
X180900090Y-50524496D01*
X180900001Y-50524459D01*
X180875446Y-50524459D01*
X180875240Y-50524500D01*
X166824760Y-50524500D01*
X166824554Y-50524459D01*
X166799998Y-50524459D01*
X166799909Y-50524496D01*
X166799619Y-50524615D01*
X166799615Y-50524618D01*
X166799459Y-50524999D01*
X166799476Y-50549616D01*
X166799471Y-50549616D01*
X166799500Y-50549759D01*
X166799500Y-64600467D01*
X166799416Y-64600889D01*
X161850583Y-64600889D01*
X161850500Y-64600467D01*
X161850500Y-50549759D01*
X161850528Y-50549616D01*
X161850524Y-50549616D01*
X161850539Y-50525002D01*
X161850541Y-50525000D01*
X161850462Y-50524808D01*
X161850384Y-50524618D01*
X161850383Y-50524617D01*
X161850381Y-50524616D01*
X161850090Y-50524496D01*
X161850001Y-50524459D01*
X161825446Y-50524459D01*
X161825240Y-50524500D01*
X147774760Y-50524500D01*
X147774554Y-50524459D01*
X147749998Y-50524459D01*
X147749909Y-50524496D01*
X147749619Y-50524615D01*
X147749615Y-50524618D01*
X147749459Y-50524999D01*
X147749476Y-50549616D01*
X147749471Y-50549616D01*
X147749500Y-50549759D01*
X147749500Y-64600467D01*
X147749416Y-64600889D01*
X142800583Y-64600889D01*
X142800500Y-64600467D01*
X142800500Y-50549759D01*
X142800528Y-50549616D01*
X142800524Y-50549616D01*
X142800539Y-50525002D01*
X142800541Y-50525000D01*
X142800462Y-50524808D01*
X142800384Y-50524618D01*
X142800383Y-50524617D01*
X142800381Y-50524616D01*
X142800090Y-50524496D01*
X142800001Y-50524459D01*
X142775446Y-50524459D01*
X142775240Y-50524500D01*
X128724760Y-50524500D01*
X128724554Y-50524459D01*
X128699998Y-50524459D01*
X128699909Y-50524496D01*
X128699619Y-50524615D01*
X128699615Y-50524618D01*
X128699459Y-50524999D01*
X128699476Y-50549616D01*
X128699471Y-50549616D01*
X128699500Y-50549759D01*
X128699500Y-64600467D01*
X128699416Y-64600889D01*
X123750583Y-64600889D01*
X123750500Y-64600467D01*
X123750500Y-50549759D01*
X123750528Y-50549616D01*
X123750524Y-50549616D01*
X123750539Y-50525002D01*
X123750541Y-50525000D01*
X123750462Y-50524808D01*
X123750384Y-50524618D01*
X123750383Y-50524617D01*
X123750381Y-50524616D01*
X123750090Y-50524496D01*
X123750001Y-50524459D01*
X123725446Y-50524459D01*
X123725240Y-50524500D01*
X109674760Y-50524500D01*
X109674554Y-50524459D01*
X109649998Y-50524459D01*
X109649909Y-50524496D01*
X109649619Y-50524615D01*
X109649615Y-50524618D01*
X109649459Y-50524999D01*
X109649476Y-50549616D01*
X109649471Y-50549616D01*
X109649500Y-50549759D01*
X109649500Y-64600467D01*
X109649416Y-64600889D01*
X104700583Y-64600889D01*
X104700500Y-64600467D01*
X104700500Y-50549759D01*
X104700528Y-50549616D01*
X104700524Y-50549616D01*
X104700539Y-50525002D01*
X104700541Y-50525000D01*
X104700462Y-50524808D01*
X104700384Y-50524618D01*
X104700383Y-50524617D01*
X104700381Y-50524616D01*
X104700090Y-50524496D01*
X104700001Y-50524459D01*
X104675446Y-50524459D01*
X104675240Y-50524500D01*
X90624760Y-50524500D01*
X90624554Y-50524459D01*
X90599998Y-50524459D01*
X90599909Y-50524496D01*
X90599619Y-50524615D01*
X90599615Y-50524618D01*
X90599459Y-50524999D01*
X90599476Y-50549616D01*
X90599471Y-50549616D01*
X90599500Y-50549759D01*
X90599500Y-64600467D01*
X90599416Y-64600889D01*
X87975500Y-64600889D01*
X87975500Y-48050000D01*
X105819341Y-48050000D01*
X105839936Y-48285403D01*
X105839938Y-48285413D01*
X105901094Y-48513655D01*
X105901096Y-48513659D01*
X105901097Y-48513663D01*
X105951031Y-48620745D01*
X106000964Y-48727828D01*
X106000965Y-48727830D01*
X106136505Y-48921402D01*
X106303597Y-49088494D01*
X106497169Y-49224034D01*
X106497171Y-49224035D01*
X106711337Y-49323903D01*
X106939592Y-49385063D01*
X107116032Y-49400499D01*
X107116033Y-49400500D01*
X107116034Y-49400500D01*
X107233967Y-49400500D01*
X107233967Y-49400499D01*
X107410408Y-49385063D01*
X107638663Y-49323903D01*
X107852829Y-49224035D01*
X108046401Y-49088495D01*
X108213495Y-48921401D01*
X108349035Y-48727830D01*
X108448903Y-48513663D01*
X108510063Y-48285408D01*
X108530659Y-48050000D01*
X182019341Y-48050000D01*
X182039936Y-48285403D01*
X182039938Y-48285413D01*
X182101094Y-48513655D01*
X182101096Y-48513659D01*
X182101097Y-48513663D01*
X182151031Y-48620746D01*
X182200964Y-48727828D01*
X182200965Y-48727830D01*
X182336505Y-48921402D01*
X182503597Y-49088494D01*
X182697169Y-49224034D01*
X182697171Y-49224035D01*
X182911337Y-49323903D01*
X183139592Y-49385063D01*
X183316032Y-49400499D01*
X183316033Y-49400500D01*
X183316034Y-49400500D01*
X183433967Y-49400500D01*
X183433967Y-49400499D01*
X183610408Y-49385063D01*
X183838663Y-49323903D01*
X184052829Y-49224035D01*
X184246401Y-49088495D01*
X184413495Y-48921401D01*
X184549035Y-48727830D01*
X184648903Y-48513663D01*
X184710063Y-48285408D01*
X184730659Y-48050000D01*
X184710063Y-47814592D01*
X184648903Y-47586337D01*
X184549035Y-47372171D01*
X184549034Y-47372169D01*
X184413494Y-47178597D01*
X184246402Y-47011505D01*
X184052830Y-46875965D01*
X184052828Y-46875964D01*
X183945746Y-46826030D01*
X183838663Y-46776097D01*
X183838659Y-46776096D01*
X183838655Y-46776094D01*
X183610413Y-46714938D01*
X183610403Y-46714936D01*
X183433967Y-46699500D01*
X183433966Y-46699500D01*
X183316034Y-46699500D01*
X183316033Y-46699500D01*
X183139596Y-46714936D01*
X183139586Y-46714938D01*
X182911344Y-46776094D01*
X182911335Y-46776098D01*
X182697171Y-46875964D01*
X182697169Y-46875965D01*
X182503597Y-47011505D01*
X182336506Y-47178597D01*
X182336501Y-47178604D01*
X182200967Y-47372165D01*
X182200965Y-47372169D01*
X182101098Y-47586335D01*
X182101094Y-47586344D01*
X182039938Y-47814586D01*
X182039936Y-47814596D01*
X182019341Y-48049999D01*
X182019341Y-48050000D01*
X108530659Y-48050000D01*
X108510063Y-47814592D01*
X108448903Y-47586337D01*
X108349035Y-47372171D01*
X108349034Y-47372169D01*
X108213494Y-47178597D01*
X108046402Y-47011505D01*
X107852830Y-46875965D01*
X107852828Y-46875964D01*
X107745745Y-46826031D01*
X107638663Y-46776097D01*
X107638659Y-46776096D01*
X107638655Y-46776094D01*
X107410413Y-46714938D01*
X107410403Y-46714936D01*
X107233967Y-46699500D01*
X107233966Y-46699500D01*
X107116034Y-46699500D01*
X107116033Y-46699500D01*
X106939596Y-46714936D01*
X106939586Y-46714938D01*
X106711344Y-46776094D01*
X106711335Y-46776098D01*
X106497171Y-46875964D01*
X106497169Y-46875965D01*
X106303597Y-47011505D01*
X106136506Y-47178597D01*
X106136501Y-47178604D01*
X106000967Y-47372165D01*
X106000965Y-47372169D01*
X105901098Y-47586335D01*
X105901094Y-47586344D01*
X105839938Y-47814586D01*
X105839936Y-47814596D01*
X105819341Y-48049999D01*
X105819341Y-48050000D01*
X87975500Y-48050000D01*
X87975500Y-45550889D01*
X90599416Y-45550889D01*
X90599459Y-45575001D01*
X90599544Y-45575206D01*
X90599616Y-45575382D01*
X90599618Y-45575384D01*
X90599808Y-45575462D01*
X90600000Y-45575541D01*
X90600002Y-45575539D01*
X90624616Y-45575524D01*
X90624616Y-45575528D01*
X90624760Y-45575500D01*
X104675240Y-45575500D01*
X104675383Y-45575528D01*
X104675384Y-45575524D01*
X104699997Y-45575539D01*
X104700000Y-45575541D01*
X104700383Y-45575383D01*
X104700500Y-45575099D01*
X104700541Y-45575000D01*
X104700540Y-45574997D01*
X104700583Y-45550889D01*
X109649416Y-45550889D01*
X109649459Y-45575001D01*
X109649544Y-45575206D01*
X109649616Y-45575382D01*
X109649618Y-45575384D01*
X109649808Y-45575462D01*
X109650000Y-45575541D01*
X109650002Y-45575539D01*
X109674616Y-45575524D01*
X109674616Y-45575528D01*
X109674760Y-45575500D01*
X123725240Y-45575500D01*
X123725383Y-45575528D01*
X123725384Y-45575524D01*
X123749997Y-45575539D01*
X123750000Y-45575541D01*
X123750383Y-45575383D01*
X123750500Y-45575099D01*
X123750541Y-45575000D01*
X123750540Y-45574997D01*
X123750583Y-45550889D01*
X128699416Y-45550889D01*
X128699459Y-45575001D01*
X128699544Y-45575206D01*
X128699616Y-45575382D01*
X128699618Y-45575384D01*
X128699808Y-45575462D01*
X128700000Y-45575541D01*
X128700002Y-45575539D01*
X128724616Y-45575524D01*
X128724616Y-45575528D01*
X128724760Y-45575500D01*
X142775240Y-45575500D01*
X142775383Y-45575528D01*
X142775384Y-45575524D01*
X142799997Y-45575539D01*
X142800000Y-45575541D01*
X142800383Y-45575383D01*
X142800500Y-45575099D01*
X142800541Y-45575000D01*
X142800540Y-45574997D01*
X142800583Y-45550889D01*
X147749416Y-45550889D01*
X147749459Y-45575001D01*
X147749544Y-45575206D01*
X147749616Y-45575382D01*
X147749618Y-45575384D01*
X147749808Y-45575462D01*
X147750000Y-45575541D01*
X147750002Y-45575539D01*
X147774616Y-45575524D01*
X147774616Y-45575528D01*
X147774760Y-45575500D01*
X161825240Y-45575500D01*
X161825383Y-45575528D01*
X161825384Y-45575524D01*
X161849997Y-45575539D01*
X161850000Y-45575541D01*
X161850383Y-45575383D01*
X161850500Y-45575099D01*
X161850541Y-45575000D01*
X161850540Y-45574997D01*
X161850583Y-45550889D01*
X166799416Y-45550889D01*
X166799459Y-45575001D01*
X166799544Y-45575206D01*
X166799616Y-45575382D01*
X166799618Y-45575384D01*
X166799808Y-45575462D01*
X166800000Y-45575541D01*
X166800002Y-45575539D01*
X166824616Y-45575524D01*
X166824616Y-45575528D01*
X166824760Y-45575500D01*
X180875240Y-45575500D01*
X180875383Y-45575528D01*
X180875384Y-45575524D01*
X180899997Y-45575539D01*
X180900000Y-45575541D01*
X180900383Y-45575383D01*
X180900500Y-45575099D01*
X180900541Y-45575000D01*
X180900540Y-45574997D01*
X180900583Y-45550889D01*
X185849416Y-45550889D01*
X185849459Y-45575001D01*
X185849544Y-45575206D01*
X185849616Y-45575382D01*
X185849618Y-45575384D01*
X185849808Y-45575462D01*
X185850000Y-45575541D01*
X185850002Y-45575539D01*
X185874616Y-45575524D01*
X185874616Y-45575528D01*
X185874760Y-45575500D01*
X199925240Y-45575500D01*
X199925383Y-45575528D01*
X199925384Y-45575524D01*
X199949997Y-45575539D01*
X199950000Y-45575541D01*
X199950383Y-45575383D01*
X199950500Y-45575099D01*
X199950541Y-45575000D01*
X199950540Y-45574997D01*
X199950583Y-45550889D01*
X199950500Y-45550467D01*
X199950500Y-31499759D01*
X199950528Y-31499616D01*
X199950524Y-31499616D01*
X199950539Y-31475002D01*
X199950541Y-31475000D01*
X199950462Y-31474808D01*
X199950384Y-31474618D01*
X199950383Y-31474617D01*
X199950381Y-31474616D01*
X199950090Y-31474496D01*
X199950001Y-31474459D01*
X199925446Y-31474459D01*
X199925240Y-31474500D01*
X185874760Y-31474500D01*
X185874554Y-31474459D01*
X185849998Y-31474459D01*
X185849909Y-31474496D01*
X185849619Y-31474615D01*
X185849615Y-31474618D01*
X185849459Y-31474999D01*
X185849476Y-31499616D01*
X185849471Y-31499616D01*
X185849500Y-31499759D01*
X185849499Y-45550467D01*
X185849416Y-45550889D01*
X180900583Y-45550889D01*
X180900500Y-45550467D01*
X180900500Y-31499759D01*
X180900528Y-31499616D01*
X180900524Y-31499616D01*
X180900539Y-31475002D01*
X180900541Y-31475000D01*
X180900462Y-31474808D01*
X180900384Y-31474618D01*
X180900383Y-31474617D01*
X180900381Y-31474616D01*
X180900090Y-31474496D01*
X180900001Y-31474459D01*
X180875446Y-31474459D01*
X180875240Y-31474500D01*
X166824760Y-31474500D01*
X166824554Y-31474459D01*
X166799998Y-31474459D01*
X166799909Y-31474496D01*
X166799619Y-31474615D01*
X166799615Y-31474618D01*
X166799459Y-31474999D01*
X166799476Y-31499616D01*
X166799471Y-31499616D01*
X166799500Y-31499759D01*
X166799500Y-45550467D01*
X166799416Y-45550889D01*
X161850583Y-45550889D01*
X161850500Y-45550467D01*
X161850500Y-31499759D01*
X161850528Y-31499616D01*
X161850524Y-31499616D01*
X161850539Y-31475002D01*
X161850541Y-31475000D01*
X161850462Y-31474808D01*
X161850384Y-31474618D01*
X161850383Y-31474617D01*
X161850381Y-31474616D01*
X161850090Y-31474496D01*
X161850001Y-31474459D01*
X161825446Y-31474459D01*
X161825240Y-31474500D01*
X147774760Y-31474500D01*
X147774554Y-31474459D01*
X147749998Y-31474459D01*
X147749909Y-31474496D01*
X147749619Y-31474615D01*
X147749615Y-31474618D01*
X147749459Y-31474999D01*
X147749476Y-31499616D01*
X147749471Y-31499616D01*
X147749500Y-31499759D01*
X147749500Y-45550467D01*
X147749416Y-45550889D01*
X142800583Y-45550889D01*
X142800500Y-45550467D01*
X142800500Y-31499759D01*
X142800528Y-31499616D01*
X142800524Y-31499616D01*
X142800539Y-31475002D01*
X142800541Y-31475000D01*
X142800462Y-31474808D01*
X142800384Y-31474618D01*
X142800383Y-31474617D01*
X142800381Y-31474616D01*
X142800090Y-31474496D01*
X142800001Y-31474459D01*
X142775446Y-31474459D01*
X142775240Y-31474500D01*
X128724760Y-31474500D01*
X128724554Y-31474459D01*
X128699998Y-31474459D01*
X128699909Y-31474496D01*
X128699619Y-31474615D01*
X128699615Y-31474618D01*
X128699459Y-31474999D01*
X128699476Y-31499616D01*
X128699471Y-31499616D01*
X128699500Y-31499759D01*
X128699500Y-45550467D01*
X128699416Y-45550889D01*
X123750583Y-45550889D01*
X123750500Y-45550467D01*
X123750500Y-31499759D01*
X123750528Y-31499616D01*
X123750524Y-31499616D01*
X123750539Y-31475002D01*
X123750541Y-31475000D01*
X123750462Y-31474808D01*
X123750384Y-31474618D01*
X123750383Y-31474617D01*
X123750381Y-31474616D01*
X123750090Y-31474496D01*
X123750001Y-31474459D01*
X123725446Y-31474459D01*
X123725240Y-31474500D01*
X109674760Y-31474500D01*
X109674554Y-31474459D01*
X109649998Y-31474459D01*
X109649909Y-31474496D01*
X109649619Y-31474615D01*
X109649615Y-31474618D01*
X109649459Y-31474999D01*
X109649476Y-31499616D01*
X109649471Y-31499616D01*
X109649500Y-31499759D01*
X109649500Y-45550467D01*
X109649416Y-45550889D01*
X104700583Y-45550889D01*
X104700500Y-45550467D01*
X104700500Y-31499759D01*
X104700528Y-31499616D01*
X104700524Y-31499616D01*
X104700539Y-31475002D01*
X104700541Y-31475000D01*
X104700462Y-31474808D01*
X104700384Y-31474618D01*
X104700383Y-31474617D01*
X104700381Y-31474616D01*
X104700090Y-31474496D01*
X104700001Y-31474459D01*
X104675446Y-31474459D01*
X104675240Y-31474500D01*
X90624760Y-31474500D01*
X90624554Y-31474459D01*
X90599998Y-31474459D01*
X90599909Y-31474496D01*
X90599619Y-31474615D01*
X90599615Y-31474618D01*
X90599459Y-31474999D01*
X90599476Y-31499616D01*
X90599471Y-31499616D01*
X90599500Y-31499759D01*
X90599500Y-45550467D01*
X90599416Y-45550889D01*
X87975500Y-45550889D01*
X87975500Y-30272436D01*
X87975691Y-30267571D01*
X87979979Y-30213080D01*
X87992286Y-30072416D01*
X87995235Y-30054305D01*
X88014342Y-29974719D01*
X88014693Y-29973335D01*
X88044182Y-29863280D01*
X88046790Y-29855598D01*
X88082151Y-29770228D01*
X88083185Y-29767877D01*
X88128820Y-29670014D01*
X88132119Y-29663873D01*
X88181548Y-29583213D01*
X88183587Y-29580102D01*
X88244316Y-29493372D01*
X88247908Y-29488733D01*
X88309914Y-29416133D01*
X88313149Y-29412634D01*
X88387634Y-29338149D01*
X88391133Y-29334914D01*
X88463733Y-29272908D01*
X88468372Y-29269316D01*
X88555102Y-29208587D01*
X88558213Y-29206548D01*
X88638873Y-29157119D01*
X88645014Y-29153820D01*
X88742877Y-29108185D01*
X88745228Y-29107151D01*
X88830599Y-29071789D01*
X88838280Y-29069182D01*
X88948335Y-29039693D01*
X88949719Y-29039342D01*
X89029305Y-29020235D01*
X89047416Y-29017286D01*
X89188043Y-29004982D01*
X89235497Y-29001247D01*
X89242575Y-29000691D01*
X89247440Y-29000500D01*
X201152560Y-29000500D01*
X201157426Y-29000691D01*
G37*
%TD.AperFunction*%
M02*
