%TF.GenerationSoftware,KiCad,Pcbnew,7.0.5*%
%TF.CreationDate,2024-08-04T18:57:08+08:00*%
%TF.ProjectId,TPS,5450532e-6b69-4636-9164-5f7063625858,rev?*%
%TF.SameCoordinates,Original*%
%TF.FileFunction,Drillmap*%
%TF.FilePolarity,Positive*%
%FSLAX45Y45*%
G04 Gerber Fmt 4.5, Leading zero omitted, Abs format (unit mm)*
G04 Created by KiCad (PCBNEW 7.0.5) date 2024-08-04 18:57:08*
%MOMM*%
%LPD*%
G01*
G04 APERTURE LIST*
%ADD10C,0.120000*%
%ADD11C,0.200000*%
%ADD12C,0.220000*%
G04 APERTURE END LIST*
D10*
X8670500Y-2900000D02*
X3973100Y-2900000D01*
X3846100Y-5426600D02*
G75*
G03*
X3973100Y-5553600I127000J0D01*
G01*
X3973100Y-2900000D02*
G75*
G03*
X3846100Y-3027000I0J-127000D01*
G01*
X8797500Y-5426600D02*
X8797500Y-3027000D01*
X8670500Y-5553600D02*
X3973100Y-5553600D01*
X3846100Y-3027000D02*
X3846100Y-5426600D01*
X8670500Y-5553600D02*
G75*
G03*
X8797500Y-5426600I0J127000D01*
G01*
X8797500Y-3027000D02*
G75*
G03*
X8670500Y-2900000I-127000J0D01*
G01*
D11*
D12*
X3956100Y-3010000D02*
X4176100Y-3230000D01*
X4176100Y-3010000D02*
X3956100Y-3230000D01*
X8467500Y-3010000D02*
X8687500Y-3230000D01*
X8687500Y-3010000D02*
X8467500Y-3230000D01*
D11*
X4100877Y-5871084D02*
X4100877Y-5671084D01*
X4100877Y-5671084D02*
X4148496Y-5671084D01*
X4148496Y-5671084D02*
X4177067Y-5680608D01*
X4177067Y-5680608D02*
X4196115Y-5699655D01*
X4196115Y-5699655D02*
X4205639Y-5718703D01*
X4205639Y-5718703D02*
X4215163Y-5756798D01*
X4215163Y-5756798D02*
X4215163Y-5785369D01*
X4215163Y-5785369D02*
X4205639Y-5823465D01*
X4205639Y-5823465D02*
X4196115Y-5842512D01*
X4196115Y-5842512D02*
X4177067Y-5861560D01*
X4177067Y-5861560D02*
X4148496Y-5871084D01*
X4148496Y-5871084D02*
X4100877Y-5871084D01*
X4300877Y-5871084D02*
X4300877Y-5737750D01*
X4300877Y-5775846D02*
X4310401Y-5756798D01*
X4310401Y-5756798D02*
X4319924Y-5747274D01*
X4319924Y-5747274D02*
X4338972Y-5737750D01*
X4338972Y-5737750D02*
X4358020Y-5737750D01*
X4424686Y-5871084D02*
X4424686Y-5737750D01*
X4424686Y-5671084D02*
X4415163Y-5680608D01*
X4415163Y-5680608D02*
X4424686Y-5690131D01*
X4424686Y-5690131D02*
X4434210Y-5680608D01*
X4434210Y-5680608D02*
X4424686Y-5671084D01*
X4424686Y-5671084D02*
X4424686Y-5690131D01*
X4548496Y-5871084D02*
X4529448Y-5861560D01*
X4529448Y-5861560D02*
X4519924Y-5842512D01*
X4519924Y-5842512D02*
X4519924Y-5671084D01*
X4653258Y-5871084D02*
X4634210Y-5861560D01*
X4634210Y-5861560D02*
X4624686Y-5842512D01*
X4624686Y-5842512D02*
X4624686Y-5671084D01*
X4881829Y-5871084D02*
X4881829Y-5671084D01*
X4881829Y-5671084D02*
X4948496Y-5813941D01*
X4948496Y-5813941D02*
X5015163Y-5671084D01*
X5015163Y-5671084D02*
X5015163Y-5871084D01*
X5196115Y-5871084D02*
X5196115Y-5766322D01*
X5196115Y-5766322D02*
X5186591Y-5747274D01*
X5186591Y-5747274D02*
X5167544Y-5737750D01*
X5167544Y-5737750D02*
X5129448Y-5737750D01*
X5129448Y-5737750D02*
X5110401Y-5747274D01*
X5196115Y-5861560D02*
X5177067Y-5871084D01*
X5177067Y-5871084D02*
X5129448Y-5871084D01*
X5129448Y-5871084D02*
X5110401Y-5861560D01*
X5110401Y-5861560D02*
X5100877Y-5842512D01*
X5100877Y-5842512D02*
X5100877Y-5823465D01*
X5100877Y-5823465D02*
X5110401Y-5804417D01*
X5110401Y-5804417D02*
X5129448Y-5794893D01*
X5129448Y-5794893D02*
X5177067Y-5794893D01*
X5177067Y-5794893D02*
X5196115Y-5785369D01*
X5291353Y-5737750D02*
X5291353Y-5937750D01*
X5291353Y-5747274D02*
X5310401Y-5737750D01*
X5310401Y-5737750D02*
X5348496Y-5737750D01*
X5348496Y-5737750D02*
X5367544Y-5747274D01*
X5367544Y-5747274D02*
X5377067Y-5756798D01*
X5377067Y-5756798D02*
X5386591Y-5775846D01*
X5386591Y-5775846D02*
X5386591Y-5832988D01*
X5386591Y-5832988D02*
X5377067Y-5852036D01*
X5377067Y-5852036D02*
X5367544Y-5861560D01*
X5367544Y-5861560D02*
X5348496Y-5871084D01*
X5348496Y-5871084D02*
X5310401Y-5871084D01*
X5310401Y-5871084D02*
X5291353Y-5861560D01*
X5472305Y-5852036D02*
X5481829Y-5861560D01*
X5481829Y-5861560D02*
X5472305Y-5871084D01*
X5472305Y-5871084D02*
X5462782Y-5861560D01*
X5462782Y-5861560D02*
X5472305Y-5852036D01*
X5472305Y-5852036D02*
X5472305Y-5871084D01*
X5472305Y-5747274D02*
X5481829Y-5756798D01*
X5481829Y-5756798D02*
X5472305Y-5766322D01*
X5472305Y-5766322D02*
X5462782Y-5756798D01*
X5462782Y-5756798D02*
X5472305Y-5747274D01*
X5472305Y-5747274D02*
X5472305Y-5766322D01*
X3640100Y-6099600D02*
X3840100Y-6299600D01*
X3840100Y-6099600D02*
X3640100Y-6299600D01*
X4091353Y-6110131D02*
X4100877Y-6100608D01*
X4100877Y-6100608D02*
X4119924Y-6091084D01*
X4119924Y-6091084D02*
X4167543Y-6091084D01*
X4167543Y-6091084D02*
X4186591Y-6100608D01*
X4186591Y-6100608D02*
X4196115Y-6110131D01*
X4196115Y-6110131D02*
X4205639Y-6129179D01*
X4205639Y-6129179D02*
X4205639Y-6148227D01*
X4205639Y-6148227D02*
X4196115Y-6176798D01*
X4196115Y-6176798D02*
X4081829Y-6291084D01*
X4081829Y-6291084D02*
X4205639Y-6291084D01*
X4291353Y-6272036D02*
X4300877Y-6281560D01*
X4300877Y-6281560D02*
X4291353Y-6291084D01*
X4291353Y-6291084D02*
X4281829Y-6281560D01*
X4281829Y-6281560D02*
X4291353Y-6272036D01*
X4291353Y-6272036D02*
X4291353Y-6291084D01*
X4377067Y-6110131D02*
X4386591Y-6100608D01*
X4386591Y-6100608D02*
X4405639Y-6091084D01*
X4405639Y-6091084D02*
X4453258Y-6091084D01*
X4453258Y-6091084D02*
X4472305Y-6100608D01*
X4472305Y-6100608D02*
X4481829Y-6110131D01*
X4481829Y-6110131D02*
X4491353Y-6129179D01*
X4491353Y-6129179D02*
X4491353Y-6148227D01*
X4491353Y-6148227D02*
X4481829Y-6176798D01*
X4481829Y-6176798D02*
X4367544Y-6291084D01*
X4367544Y-6291084D02*
X4491353Y-6291084D01*
X4615163Y-6091084D02*
X4634210Y-6091084D01*
X4634210Y-6091084D02*
X4653258Y-6100608D01*
X4653258Y-6100608D02*
X4662782Y-6110131D01*
X4662782Y-6110131D02*
X4672305Y-6129179D01*
X4672305Y-6129179D02*
X4681829Y-6167274D01*
X4681829Y-6167274D02*
X4681829Y-6214893D01*
X4681829Y-6214893D02*
X4672305Y-6252988D01*
X4672305Y-6252988D02*
X4662782Y-6272036D01*
X4662782Y-6272036D02*
X4653258Y-6281560D01*
X4653258Y-6281560D02*
X4634210Y-6291084D01*
X4634210Y-6291084D02*
X4615163Y-6291084D01*
X4615163Y-6291084D02*
X4596115Y-6281560D01*
X4596115Y-6281560D02*
X4586591Y-6272036D01*
X4586591Y-6272036D02*
X4577067Y-6252988D01*
X4577067Y-6252988D02*
X4567544Y-6214893D01*
X4567544Y-6214893D02*
X4567544Y-6167274D01*
X4567544Y-6167274D02*
X4577067Y-6129179D01*
X4577067Y-6129179D02*
X4586591Y-6110131D01*
X4586591Y-6110131D02*
X4596115Y-6100608D01*
X4596115Y-6100608D02*
X4615163Y-6091084D01*
X4805639Y-6091084D02*
X4824686Y-6091084D01*
X4824686Y-6091084D02*
X4843734Y-6100608D01*
X4843734Y-6100608D02*
X4853258Y-6110131D01*
X4853258Y-6110131D02*
X4862782Y-6129179D01*
X4862782Y-6129179D02*
X4872305Y-6167274D01*
X4872305Y-6167274D02*
X4872305Y-6214893D01*
X4872305Y-6214893D02*
X4862782Y-6252988D01*
X4862782Y-6252988D02*
X4853258Y-6272036D01*
X4853258Y-6272036D02*
X4843734Y-6281560D01*
X4843734Y-6281560D02*
X4824686Y-6291084D01*
X4824686Y-6291084D02*
X4805639Y-6291084D01*
X4805639Y-6291084D02*
X4786591Y-6281560D01*
X4786591Y-6281560D02*
X4777067Y-6272036D01*
X4777067Y-6272036D02*
X4767544Y-6252988D01*
X4767544Y-6252988D02*
X4758020Y-6214893D01*
X4758020Y-6214893D02*
X4758020Y-6167274D01*
X4758020Y-6167274D02*
X4767544Y-6129179D01*
X4767544Y-6129179D02*
X4777067Y-6110131D01*
X4777067Y-6110131D02*
X4786591Y-6100608D01*
X4786591Y-6100608D02*
X4805639Y-6091084D01*
X4958020Y-6291084D02*
X4958020Y-6157750D01*
X4958020Y-6176798D02*
X4967544Y-6167274D01*
X4967544Y-6167274D02*
X4986591Y-6157750D01*
X4986591Y-6157750D02*
X5015163Y-6157750D01*
X5015163Y-6157750D02*
X5034210Y-6167274D01*
X5034210Y-6167274D02*
X5043734Y-6186322D01*
X5043734Y-6186322D02*
X5043734Y-6291084D01*
X5043734Y-6186322D02*
X5053258Y-6167274D01*
X5053258Y-6167274D02*
X5072305Y-6157750D01*
X5072305Y-6157750D02*
X5100877Y-6157750D01*
X5100877Y-6157750D02*
X5119925Y-6167274D01*
X5119925Y-6167274D02*
X5129448Y-6186322D01*
X5129448Y-6186322D02*
X5129448Y-6291084D01*
X5224686Y-6291084D02*
X5224686Y-6157750D01*
X5224686Y-6176798D02*
X5234210Y-6167274D01*
X5234210Y-6167274D02*
X5253258Y-6157750D01*
X5253258Y-6157750D02*
X5281829Y-6157750D01*
X5281829Y-6157750D02*
X5300877Y-6167274D01*
X5300877Y-6167274D02*
X5310401Y-6186322D01*
X5310401Y-6186322D02*
X5310401Y-6291084D01*
X5310401Y-6186322D02*
X5319925Y-6167274D01*
X5319925Y-6167274D02*
X5338972Y-6157750D01*
X5338972Y-6157750D02*
X5367544Y-6157750D01*
X5367544Y-6157750D02*
X5386591Y-6167274D01*
X5386591Y-6167274D02*
X5396115Y-6186322D01*
X5396115Y-6186322D02*
X5396115Y-6291084D01*
X5786591Y-6081560D02*
X5615163Y-6338703D01*
X6043734Y-6091084D02*
X6062782Y-6091084D01*
X6062782Y-6091084D02*
X6081829Y-6100608D01*
X6081829Y-6100608D02*
X6091353Y-6110131D01*
X6091353Y-6110131D02*
X6100877Y-6129179D01*
X6100877Y-6129179D02*
X6110401Y-6167274D01*
X6110401Y-6167274D02*
X6110401Y-6214893D01*
X6110401Y-6214893D02*
X6100877Y-6252988D01*
X6100877Y-6252988D02*
X6091353Y-6272036D01*
X6091353Y-6272036D02*
X6081829Y-6281560D01*
X6081829Y-6281560D02*
X6062782Y-6291084D01*
X6062782Y-6291084D02*
X6043734Y-6291084D01*
X6043734Y-6291084D02*
X6024686Y-6281560D01*
X6024686Y-6281560D02*
X6015163Y-6272036D01*
X6015163Y-6272036D02*
X6005639Y-6252988D01*
X6005639Y-6252988D02*
X5996115Y-6214893D01*
X5996115Y-6214893D02*
X5996115Y-6167274D01*
X5996115Y-6167274D02*
X6005639Y-6129179D01*
X6005639Y-6129179D02*
X6015163Y-6110131D01*
X6015163Y-6110131D02*
X6024686Y-6100608D01*
X6024686Y-6100608D02*
X6043734Y-6091084D01*
X6196115Y-6272036D02*
X6205639Y-6281560D01*
X6205639Y-6281560D02*
X6196115Y-6291084D01*
X6196115Y-6291084D02*
X6186591Y-6281560D01*
X6186591Y-6281560D02*
X6196115Y-6272036D01*
X6196115Y-6272036D02*
X6196115Y-6291084D01*
X6329448Y-6091084D02*
X6348496Y-6091084D01*
X6348496Y-6091084D02*
X6367544Y-6100608D01*
X6367544Y-6100608D02*
X6377067Y-6110131D01*
X6377067Y-6110131D02*
X6386591Y-6129179D01*
X6386591Y-6129179D02*
X6396115Y-6167274D01*
X6396115Y-6167274D02*
X6396115Y-6214893D01*
X6396115Y-6214893D02*
X6386591Y-6252988D01*
X6386591Y-6252988D02*
X6377067Y-6272036D01*
X6377067Y-6272036D02*
X6367544Y-6281560D01*
X6367544Y-6281560D02*
X6348496Y-6291084D01*
X6348496Y-6291084D02*
X6329448Y-6291084D01*
X6329448Y-6291084D02*
X6310401Y-6281560D01*
X6310401Y-6281560D02*
X6300877Y-6272036D01*
X6300877Y-6272036D02*
X6291353Y-6252988D01*
X6291353Y-6252988D02*
X6281829Y-6214893D01*
X6281829Y-6214893D02*
X6281829Y-6167274D01*
X6281829Y-6167274D02*
X6291353Y-6129179D01*
X6291353Y-6129179D02*
X6300877Y-6110131D01*
X6300877Y-6110131D02*
X6310401Y-6100608D01*
X6310401Y-6100608D02*
X6329448Y-6091084D01*
X6510401Y-6176798D02*
X6491353Y-6167274D01*
X6491353Y-6167274D02*
X6481829Y-6157750D01*
X6481829Y-6157750D02*
X6472306Y-6138703D01*
X6472306Y-6138703D02*
X6472306Y-6129179D01*
X6472306Y-6129179D02*
X6481829Y-6110131D01*
X6481829Y-6110131D02*
X6491353Y-6100608D01*
X6491353Y-6100608D02*
X6510401Y-6091084D01*
X6510401Y-6091084D02*
X6548496Y-6091084D01*
X6548496Y-6091084D02*
X6567544Y-6100608D01*
X6567544Y-6100608D02*
X6577067Y-6110131D01*
X6577067Y-6110131D02*
X6586591Y-6129179D01*
X6586591Y-6129179D02*
X6586591Y-6138703D01*
X6586591Y-6138703D02*
X6577067Y-6157750D01*
X6577067Y-6157750D02*
X6567544Y-6167274D01*
X6567544Y-6167274D02*
X6548496Y-6176798D01*
X6548496Y-6176798D02*
X6510401Y-6176798D01*
X6510401Y-6176798D02*
X6491353Y-6186322D01*
X6491353Y-6186322D02*
X6481829Y-6195846D01*
X6481829Y-6195846D02*
X6472306Y-6214893D01*
X6472306Y-6214893D02*
X6472306Y-6252988D01*
X6472306Y-6252988D02*
X6481829Y-6272036D01*
X6481829Y-6272036D02*
X6491353Y-6281560D01*
X6491353Y-6281560D02*
X6510401Y-6291084D01*
X6510401Y-6291084D02*
X6548496Y-6291084D01*
X6548496Y-6291084D02*
X6567544Y-6281560D01*
X6567544Y-6281560D02*
X6577067Y-6272036D01*
X6577067Y-6272036D02*
X6586591Y-6252988D01*
X6586591Y-6252988D02*
X6586591Y-6214893D01*
X6586591Y-6214893D02*
X6577067Y-6195846D01*
X6577067Y-6195846D02*
X6567544Y-6186322D01*
X6567544Y-6186322D02*
X6548496Y-6176798D01*
X6758020Y-6091084D02*
X6719925Y-6091084D01*
X6719925Y-6091084D02*
X6700877Y-6100608D01*
X6700877Y-6100608D02*
X6691353Y-6110131D01*
X6691353Y-6110131D02*
X6672306Y-6138703D01*
X6672306Y-6138703D02*
X6662782Y-6176798D01*
X6662782Y-6176798D02*
X6662782Y-6252988D01*
X6662782Y-6252988D02*
X6672306Y-6272036D01*
X6672306Y-6272036D02*
X6681829Y-6281560D01*
X6681829Y-6281560D02*
X6700877Y-6291084D01*
X6700877Y-6291084D02*
X6738972Y-6291084D01*
X6738972Y-6291084D02*
X6758020Y-6281560D01*
X6758020Y-6281560D02*
X6767544Y-6272036D01*
X6767544Y-6272036D02*
X6777067Y-6252988D01*
X6777067Y-6252988D02*
X6777067Y-6205369D01*
X6777067Y-6205369D02*
X6767544Y-6186322D01*
X6767544Y-6186322D02*
X6758020Y-6176798D01*
X6758020Y-6176798D02*
X6738972Y-6167274D01*
X6738972Y-6167274D02*
X6700877Y-6167274D01*
X6700877Y-6167274D02*
X6681829Y-6176798D01*
X6681829Y-6176798D02*
X6672306Y-6186322D01*
X6672306Y-6186322D02*
X6662782Y-6205369D01*
X6948496Y-6091084D02*
X6910401Y-6091084D01*
X6910401Y-6091084D02*
X6891353Y-6100608D01*
X6891353Y-6100608D02*
X6881829Y-6110131D01*
X6881829Y-6110131D02*
X6862782Y-6138703D01*
X6862782Y-6138703D02*
X6853258Y-6176798D01*
X6853258Y-6176798D02*
X6853258Y-6252988D01*
X6853258Y-6252988D02*
X6862782Y-6272036D01*
X6862782Y-6272036D02*
X6872306Y-6281560D01*
X6872306Y-6281560D02*
X6891353Y-6291084D01*
X6891353Y-6291084D02*
X6929448Y-6291084D01*
X6929448Y-6291084D02*
X6948496Y-6281560D01*
X6948496Y-6281560D02*
X6958020Y-6272036D01*
X6958020Y-6272036D02*
X6967544Y-6252988D01*
X6967544Y-6252988D02*
X6967544Y-6205369D01*
X6967544Y-6205369D02*
X6958020Y-6186322D01*
X6958020Y-6186322D02*
X6948496Y-6176798D01*
X6948496Y-6176798D02*
X6929448Y-6167274D01*
X6929448Y-6167274D02*
X6891353Y-6167274D01*
X6891353Y-6167274D02*
X6872306Y-6176798D01*
X6872306Y-6176798D02*
X6862782Y-6186322D01*
X6862782Y-6186322D02*
X6853258Y-6205369D01*
X7043734Y-6091084D02*
X7043734Y-6129179D01*
X7119925Y-6091084D02*
X7119925Y-6129179D01*
X7415163Y-6367274D02*
X7405639Y-6357750D01*
X7405639Y-6357750D02*
X7386591Y-6329179D01*
X7386591Y-6329179D02*
X7377068Y-6310131D01*
X7377068Y-6310131D02*
X7367544Y-6281560D01*
X7367544Y-6281560D02*
X7358020Y-6233941D01*
X7358020Y-6233941D02*
X7358020Y-6195846D01*
X7358020Y-6195846D02*
X7367544Y-6148227D01*
X7367544Y-6148227D02*
X7377068Y-6119655D01*
X7377068Y-6119655D02*
X7386591Y-6100608D01*
X7386591Y-6100608D02*
X7405639Y-6072036D01*
X7405639Y-6072036D02*
X7415163Y-6062512D01*
X7481829Y-6110131D02*
X7491353Y-6100608D01*
X7491353Y-6100608D02*
X7510401Y-6091084D01*
X7510401Y-6091084D02*
X7558020Y-6091084D01*
X7558020Y-6091084D02*
X7577068Y-6100608D01*
X7577068Y-6100608D02*
X7586591Y-6110131D01*
X7586591Y-6110131D02*
X7596115Y-6129179D01*
X7596115Y-6129179D02*
X7596115Y-6148227D01*
X7596115Y-6148227D02*
X7586591Y-6176798D01*
X7586591Y-6176798D02*
X7472306Y-6291084D01*
X7472306Y-6291084D02*
X7596115Y-6291084D01*
X7834210Y-6291084D02*
X7834210Y-6091084D01*
X7919925Y-6291084D02*
X7919925Y-6186322D01*
X7919925Y-6186322D02*
X7910401Y-6167274D01*
X7910401Y-6167274D02*
X7891353Y-6157750D01*
X7891353Y-6157750D02*
X7862782Y-6157750D01*
X7862782Y-6157750D02*
X7843734Y-6167274D01*
X7843734Y-6167274D02*
X7834210Y-6176798D01*
X8043734Y-6291084D02*
X8024687Y-6281560D01*
X8024687Y-6281560D02*
X8015163Y-6272036D01*
X8015163Y-6272036D02*
X8005639Y-6252988D01*
X8005639Y-6252988D02*
X8005639Y-6195846D01*
X8005639Y-6195846D02*
X8015163Y-6176798D01*
X8015163Y-6176798D02*
X8024687Y-6167274D01*
X8024687Y-6167274D02*
X8043734Y-6157750D01*
X8043734Y-6157750D02*
X8072306Y-6157750D01*
X8072306Y-6157750D02*
X8091353Y-6167274D01*
X8091353Y-6167274D02*
X8100877Y-6176798D01*
X8100877Y-6176798D02*
X8110401Y-6195846D01*
X8110401Y-6195846D02*
X8110401Y-6252988D01*
X8110401Y-6252988D02*
X8100877Y-6272036D01*
X8100877Y-6272036D02*
X8091353Y-6281560D01*
X8091353Y-6281560D02*
X8072306Y-6291084D01*
X8072306Y-6291084D02*
X8043734Y-6291084D01*
X8224687Y-6291084D02*
X8205639Y-6281560D01*
X8205639Y-6281560D02*
X8196115Y-6262512D01*
X8196115Y-6262512D02*
X8196115Y-6091084D01*
X8377068Y-6281560D02*
X8358020Y-6291084D01*
X8358020Y-6291084D02*
X8319925Y-6291084D01*
X8319925Y-6291084D02*
X8300877Y-6281560D01*
X8300877Y-6281560D02*
X8291353Y-6262512D01*
X8291353Y-6262512D02*
X8291353Y-6186322D01*
X8291353Y-6186322D02*
X8300877Y-6167274D01*
X8300877Y-6167274D02*
X8319925Y-6157750D01*
X8319925Y-6157750D02*
X8358020Y-6157750D01*
X8358020Y-6157750D02*
X8377068Y-6167274D01*
X8377068Y-6167274D02*
X8386591Y-6186322D01*
X8386591Y-6186322D02*
X8386591Y-6205369D01*
X8386591Y-6205369D02*
X8291353Y-6224417D01*
X8462782Y-6281560D02*
X8481830Y-6291084D01*
X8481830Y-6291084D02*
X8519925Y-6291084D01*
X8519925Y-6291084D02*
X8538973Y-6281560D01*
X8538973Y-6281560D02*
X8548496Y-6262512D01*
X8548496Y-6262512D02*
X8548496Y-6252988D01*
X8548496Y-6252988D02*
X8538973Y-6233941D01*
X8538973Y-6233941D02*
X8519925Y-6224417D01*
X8519925Y-6224417D02*
X8491353Y-6224417D01*
X8491353Y-6224417D02*
X8472306Y-6214893D01*
X8472306Y-6214893D02*
X8462782Y-6195846D01*
X8462782Y-6195846D02*
X8462782Y-6186322D01*
X8462782Y-6186322D02*
X8472306Y-6167274D01*
X8472306Y-6167274D02*
X8491353Y-6157750D01*
X8491353Y-6157750D02*
X8519925Y-6157750D01*
X8519925Y-6157750D02*
X8538973Y-6167274D01*
X8615163Y-6367274D02*
X8624687Y-6357750D01*
X8624687Y-6357750D02*
X8643734Y-6329179D01*
X8643734Y-6329179D02*
X8653258Y-6310131D01*
X8653258Y-6310131D02*
X8662782Y-6281560D01*
X8662782Y-6281560D02*
X8672306Y-6233941D01*
X8672306Y-6233941D02*
X8672306Y-6195846D01*
X8672306Y-6195846D02*
X8662782Y-6148227D01*
X8662782Y-6148227D02*
X8653258Y-6119655D01*
X8653258Y-6119655D02*
X8643734Y-6100608D01*
X8643734Y-6100608D02*
X8624687Y-6072036D01*
X8624687Y-6072036D02*
X8615163Y-6062512D01*
X8977068Y-6367274D02*
X8967544Y-6357750D01*
X8967544Y-6357750D02*
X8948496Y-6329179D01*
X8948496Y-6329179D02*
X8938973Y-6310131D01*
X8938973Y-6310131D02*
X8929449Y-6281560D01*
X8929449Y-6281560D02*
X8919925Y-6233941D01*
X8919925Y-6233941D02*
X8919925Y-6195846D01*
X8919925Y-6195846D02*
X8929449Y-6148227D01*
X8929449Y-6148227D02*
X8938973Y-6119655D01*
X8938973Y-6119655D02*
X8948496Y-6100608D01*
X8948496Y-6100608D02*
X8967544Y-6072036D01*
X8967544Y-6072036D02*
X8977068Y-6062512D01*
X9053258Y-6157750D02*
X9053258Y-6291084D01*
X9053258Y-6176798D02*
X9062782Y-6167274D01*
X9062782Y-6167274D02*
X9081830Y-6157750D01*
X9081830Y-6157750D02*
X9110401Y-6157750D01*
X9110401Y-6157750D02*
X9129449Y-6167274D01*
X9129449Y-6167274D02*
X9138973Y-6186322D01*
X9138973Y-6186322D02*
X9138973Y-6291084D01*
X9262782Y-6291084D02*
X9243734Y-6281560D01*
X9243734Y-6281560D02*
X9234211Y-6272036D01*
X9234211Y-6272036D02*
X9224687Y-6252988D01*
X9224687Y-6252988D02*
X9224687Y-6195846D01*
X9224687Y-6195846D02*
X9234211Y-6176798D01*
X9234211Y-6176798D02*
X9243734Y-6167274D01*
X9243734Y-6167274D02*
X9262782Y-6157750D01*
X9262782Y-6157750D02*
X9291354Y-6157750D01*
X9291354Y-6157750D02*
X9310401Y-6167274D01*
X9310401Y-6167274D02*
X9319925Y-6176798D01*
X9319925Y-6176798D02*
X9329449Y-6195846D01*
X9329449Y-6195846D02*
X9329449Y-6252988D01*
X9329449Y-6252988D02*
X9319925Y-6272036D01*
X9319925Y-6272036D02*
X9310401Y-6281560D01*
X9310401Y-6281560D02*
X9291354Y-6291084D01*
X9291354Y-6291084D02*
X9262782Y-6291084D01*
X9386592Y-6157750D02*
X9462782Y-6157750D01*
X9415163Y-6091084D02*
X9415163Y-6262512D01*
X9415163Y-6262512D02*
X9424687Y-6281560D01*
X9424687Y-6281560D02*
X9443734Y-6291084D01*
X9443734Y-6291084D02*
X9462782Y-6291084D01*
X9681830Y-6157750D02*
X9681830Y-6357750D01*
X9681830Y-6167274D02*
X9700877Y-6157750D01*
X9700877Y-6157750D02*
X9738973Y-6157750D01*
X9738973Y-6157750D02*
X9758020Y-6167274D01*
X9758020Y-6167274D02*
X9767544Y-6176798D01*
X9767544Y-6176798D02*
X9777068Y-6195846D01*
X9777068Y-6195846D02*
X9777068Y-6252988D01*
X9777068Y-6252988D02*
X9767544Y-6272036D01*
X9767544Y-6272036D02*
X9758020Y-6281560D01*
X9758020Y-6281560D02*
X9738973Y-6291084D01*
X9738973Y-6291084D02*
X9700877Y-6291084D01*
X9700877Y-6291084D02*
X9681830Y-6281560D01*
X9891354Y-6291084D02*
X9872306Y-6281560D01*
X9872306Y-6281560D02*
X9862782Y-6262512D01*
X9862782Y-6262512D02*
X9862782Y-6091084D01*
X10053258Y-6291084D02*
X10053258Y-6186322D01*
X10053258Y-6186322D02*
X10043735Y-6167274D01*
X10043735Y-6167274D02*
X10024687Y-6157750D01*
X10024687Y-6157750D02*
X9986592Y-6157750D01*
X9986592Y-6157750D02*
X9967544Y-6167274D01*
X10053258Y-6281560D02*
X10034211Y-6291084D01*
X10034211Y-6291084D02*
X9986592Y-6291084D01*
X9986592Y-6291084D02*
X9967544Y-6281560D01*
X9967544Y-6281560D02*
X9958020Y-6262512D01*
X9958020Y-6262512D02*
X9958020Y-6243465D01*
X9958020Y-6243465D02*
X9967544Y-6224417D01*
X9967544Y-6224417D02*
X9986592Y-6214893D01*
X9986592Y-6214893D02*
X10034211Y-6214893D01*
X10034211Y-6214893D02*
X10053258Y-6205369D01*
X10119925Y-6157750D02*
X10196115Y-6157750D01*
X10148496Y-6091084D02*
X10148496Y-6262512D01*
X10148496Y-6262512D02*
X10158020Y-6281560D01*
X10158020Y-6281560D02*
X10177068Y-6291084D01*
X10177068Y-6291084D02*
X10196115Y-6291084D01*
X10338973Y-6281560D02*
X10319925Y-6291084D01*
X10319925Y-6291084D02*
X10281830Y-6291084D01*
X10281830Y-6291084D02*
X10262782Y-6281560D01*
X10262782Y-6281560D02*
X10253258Y-6262512D01*
X10253258Y-6262512D02*
X10253258Y-6186322D01*
X10253258Y-6186322D02*
X10262782Y-6167274D01*
X10262782Y-6167274D02*
X10281830Y-6157750D01*
X10281830Y-6157750D02*
X10319925Y-6157750D01*
X10319925Y-6157750D02*
X10338973Y-6167274D01*
X10338973Y-6167274D02*
X10348496Y-6186322D01*
X10348496Y-6186322D02*
X10348496Y-6205369D01*
X10348496Y-6205369D02*
X10253258Y-6224417D01*
X10519925Y-6291084D02*
X10519925Y-6091084D01*
X10519925Y-6281560D02*
X10500877Y-6291084D01*
X10500877Y-6291084D02*
X10462782Y-6291084D01*
X10462782Y-6291084D02*
X10443735Y-6281560D01*
X10443735Y-6281560D02*
X10434211Y-6272036D01*
X10434211Y-6272036D02*
X10424687Y-6252988D01*
X10424687Y-6252988D02*
X10424687Y-6195846D01*
X10424687Y-6195846D02*
X10434211Y-6176798D01*
X10434211Y-6176798D02*
X10443735Y-6167274D01*
X10443735Y-6167274D02*
X10462782Y-6157750D01*
X10462782Y-6157750D02*
X10500877Y-6157750D01*
X10500877Y-6157750D02*
X10519925Y-6167274D01*
X10596116Y-6367274D02*
X10605639Y-6357750D01*
X10605639Y-6357750D02*
X10624687Y-6329179D01*
X10624687Y-6329179D02*
X10634211Y-6310131D01*
X10634211Y-6310131D02*
X10643735Y-6281560D01*
X10643735Y-6281560D02*
X10653258Y-6233941D01*
X10653258Y-6233941D02*
X10653258Y-6195846D01*
X10653258Y-6195846D02*
X10643735Y-6148227D01*
X10643735Y-6148227D02*
X10634211Y-6119655D01*
X10634211Y-6119655D02*
X10624687Y-6100608D01*
X10624687Y-6100608D02*
X10605639Y-6072036D01*
X10605639Y-6072036D02*
X10596116Y-6062512D01*
M02*
