%TF.GenerationSoftware,KiCad,Pcbnew,7.0.5*%
%TF.CreationDate,2024-09-25T00:21:01+08:00*%
%TF.ProjectId,TPS,5450532e-6b69-4636-9164-5f7063625858,rev?*%
%TF.SameCoordinates,Original*%
%TF.FileFunction,Drillmap*%
%TF.FilePolarity,Positive*%
%FSLAX45Y45*%
G04 Gerber Fmt 4.5, Leading zero omitted, Abs format (unit mm)*
G04 Created by KiCad (PCBNEW 7.0.5) date 2024-09-25 00:21:01*
%MOMM*%
%LPD*%
G01*
G04 APERTURE LIST*
%ADD10C,0.120000*%
%ADD11C,0.200000*%
G04 APERTURE END LIST*
D10*
X10965000Y-10767500D02*
X12375000Y-10767500D01*
X12375000Y-12177500D01*
X10965000Y-12177500D01*
X10965000Y-10767500D01*
X16680000Y-10767500D02*
X18090000Y-10767500D01*
X18090000Y-12177500D01*
X16680000Y-12177500D01*
X16680000Y-10767500D01*
X9060000Y-10767500D02*
X10470000Y-10767500D01*
X10470000Y-12177500D01*
X9060000Y-12177500D01*
X9060000Y-10767500D01*
X14775000Y-10767500D02*
X16185000Y-10767500D01*
X16185000Y-12177500D01*
X14775000Y-12177500D01*
X14775000Y-10767500D01*
X12870000Y-10767500D02*
X14280000Y-10767500D01*
X14280000Y-12177500D01*
X12870000Y-12177500D01*
X12870000Y-10767500D01*
X18585000Y-10767500D02*
X19995000Y-10767500D01*
X19995000Y-12177500D01*
X18585000Y-12177500D01*
X18585000Y-10767500D01*
X14775000Y-6957500D02*
X16185000Y-6957500D01*
X16185000Y-8367500D01*
X14775000Y-8367500D01*
X14775000Y-6957500D01*
X12870000Y-5052500D02*
X14280000Y-5052500D01*
X14280000Y-6462500D01*
X12870000Y-6462500D01*
X12870000Y-5052500D01*
X14775000Y-8862500D02*
X16185000Y-8862500D01*
X16185000Y-10272500D01*
X14775000Y-10272500D01*
X14775000Y-8862500D01*
X16680000Y-6957500D02*
X18090000Y-6957500D01*
X18090000Y-8367500D01*
X16680000Y-8367500D01*
X16680000Y-6957500D01*
X16680000Y-5052500D02*
X18090000Y-5052500D01*
X18090000Y-6462500D01*
X16680000Y-6462500D01*
X16680000Y-5052500D01*
X9060000Y-8862500D02*
X10470000Y-8862500D01*
X10470000Y-10272500D01*
X9060000Y-10272500D01*
X9060000Y-8862500D01*
X18585000Y-8862500D02*
X19995000Y-8862500D01*
X19995000Y-10272500D01*
X18585000Y-10272500D01*
X18585000Y-8862500D01*
X18585000Y-3147500D02*
X19995000Y-3147500D01*
X19995000Y-4557500D01*
X18585000Y-4557500D01*
X18585000Y-3147500D01*
X12870000Y-3147500D02*
X14280000Y-3147500D01*
X14280000Y-4557500D01*
X12870000Y-4557500D01*
X12870000Y-3147500D01*
X12870000Y-8862500D02*
X14280000Y-8862500D01*
X14280000Y-10272500D01*
X12870000Y-10272500D01*
X12870000Y-8862500D01*
X14775000Y-3147500D02*
X16185000Y-3147500D01*
X16185000Y-4557500D01*
X14775000Y-4557500D01*
X14775000Y-3147500D01*
X16680000Y-3147500D02*
X18090000Y-3147500D01*
X18090000Y-4557500D01*
X16680000Y-4557500D01*
X16680000Y-3147500D01*
X10965000Y-3147500D02*
X12375000Y-3147500D01*
X12375000Y-4557500D01*
X10965000Y-4557500D01*
X10965000Y-3147500D01*
X9060000Y-6957500D02*
X10470000Y-6957500D01*
X10470000Y-8367500D01*
X9060000Y-8367500D01*
X9060000Y-6957500D01*
X20115500Y-2900000D02*
X8924500Y-2900000D01*
X8797500Y-12298000D02*
G75*
G03*
X8924500Y-12425000I127000J0D01*
G01*
X14775000Y-5052500D02*
X16185000Y-5052500D01*
X16185000Y-6462500D01*
X14775000Y-6462500D01*
X14775000Y-5052500D01*
X18585000Y-5052500D02*
X19995000Y-5052500D01*
X19995000Y-6462500D01*
X18585000Y-6462500D01*
X18585000Y-5052500D01*
X12870000Y-6957500D02*
X14280000Y-6957500D01*
X14280000Y-8367500D01*
X12870000Y-8367500D01*
X12870000Y-6957500D01*
X9060000Y-3147500D02*
X10470000Y-3147500D01*
X10470000Y-4557500D01*
X9060000Y-4557500D01*
X9060000Y-3147500D01*
X8924500Y-2900000D02*
G75*
G03*
X8797500Y-3027000I0J-127000D01*
G01*
X20242500Y-12298000D02*
X20242500Y-3027000D01*
X20115500Y-12425000D02*
X8924500Y-12425000D01*
X8797500Y-3027000D02*
X8797500Y-12298000D01*
X20115500Y-12425000D02*
G75*
G03*
X20242500Y-12298000I0J127000D01*
G01*
X10965000Y-5052500D02*
X12375000Y-5052500D01*
X12375000Y-6462500D01*
X10965000Y-6462500D01*
X10965000Y-5052500D01*
X16680000Y-8862500D02*
X18090000Y-8862500D01*
X18090000Y-10272500D01*
X16680000Y-10272500D01*
X16680000Y-8862500D01*
X20242500Y-3027000D02*
G75*
G03*
X20115500Y-2900000I-127000J0D01*
G01*
X18585000Y-6957500D02*
X19995000Y-6957500D01*
X19995000Y-8367500D01*
X18585000Y-8367500D01*
X18585000Y-6957500D01*
X10965000Y-6957500D02*
X12375000Y-6957500D01*
X12375000Y-8367500D01*
X10965000Y-8367500D01*
X10965000Y-6957500D01*
X9060000Y-5052500D02*
X10470000Y-5052500D01*
X10470000Y-6462500D01*
X9060000Y-6462500D01*
X9060000Y-5052500D01*
X10965000Y-8862500D02*
X12375000Y-8862500D01*
X12375000Y-10272500D01*
X10965000Y-10272500D01*
X10965000Y-8862500D01*
D11*
X9052277Y-12742484D02*
X9052277Y-12542484D01*
X9052277Y-12542484D02*
X9099896Y-12542484D01*
X9099896Y-12542484D02*
X9128467Y-12552008D01*
X9128467Y-12552008D02*
X9147515Y-12571055D01*
X9147515Y-12571055D02*
X9157039Y-12590103D01*
X9157039Y-12590103D02*
X9166563Y-12628198D01*
X9166563Y-12628198D02*
X9166563Y-12656769D01*
X9166563Y-12656769D02*
X9157039Y-12694865D01*
X9157039Y-12694865D02*
X9147515Y-12713912D01*
X9147515Y-12713912D02*
X9128467Y-12732960D01*
X9128467Y-12732960D02*
X9099896Y-12742484D01*
X9099896Y-12742484D02*
X9052277Y-12742484D01*
X9252277Y-12742484D02*
X9252277Y-12609150D01*
X9252277Y-12647246D02*
X9261801Y-12628198D01*
X9261801Y-12628198D02*
X9271324Y-12618674D01*
X9271324Y-12618674D02*
X9290372Y-12609150D01*
X9290372Y-12609150D02*
X9309420Y-12609150D01*
X9376086Y-12742484D02*
X9376086Y-12609150D01*
X9376086Y-12542484D02*
X9366563Y-12552008D01*
X9366563Y-12552008D02*
X9376086Y-12561531D01*
X9376086Y-12561531D02*
X9385610Y-12552008D01*
X9385610Y-12552008D02*
X9376086Y-12542484D01*
X9376086Y-12542484D02*
X9376086Y-12561531D01*
X9499896Y-12742484D02*
X9480848Y-12732960D01*
X9480848Y-12732960D02*
X9471324Y-12713912D01*
X9471324Y-12713912D02*
X9471324Y-12542484D01*
X9604658Y-12742484D02*
X9585610Y-12732960D01*
X9585610Y-12732960D02*
X9576086Y-12713912D01*
X9576086Y-12713912D02*
X9576086Y-12542484D01*
X9833229Y-12742484D02*
X9833229Y-12542484D01*
X9833229Y-12542484D02*
X9899896Y-12685341D01*
X9899896Y-12685341D02*
X9966563Y-12542484D01*
X9966563Y-12542484D02*
X9966563Y-12742484D01*
X10147515Y-12742484D02*
X10147515Y-12637722D01*
X10147515Y-12637722D02*
X10137991Y-12618674D01*
X10137991Y-12618674D02*
X10118944Y-12609150D01*
X10118944Y-12609150D02*
X10080848Y-12609150D01*
X10080848Y-12609150D02*
X10061801Y-12618674D01*
X10147515Y-12732960D02*
X10128467Y-12742484D01*
X10128467Y-12742484D02*
X10080848Y-12742484D01*
X10080848Y-12742484D02*
X10061801Y-12732960D01*
X10061801Y-12732960D02*
X10052277Y-12713912D01*
X10052277Y-12713912D02*
X10052277Y-12694865D01*
X10052277Y-12694865D02*
X10061801Y-12675817D01*
X10061801Y-12675817D02*
X10080848Y-12666293D01*
X10080848Y-12666293D02*
X10128467Y-12666293D01*
X10128467Y-12666293D02*
X10147515Y-12656769D01*
X10242753Y-12609150D02*
X10242753Y-12809150D01*
X10242753Y-12618674D02*
X10261801Y-12609150D01*
X10261801Y-12609150D02*
X10299896Y-12609150D01*
X10299896Y-12609150D02*
X10318944Y-12618674D01*
X10318944Y-12618674D02*
X10328467Y-12628198D01*
X10328467Y-12628198D02*
X10337991Y-12647246D01*
X10337991Y-12647246D02*
X10337991Y-12704388D01*
X10337991Y-12704388D02*
X10328467Y-12723436D01*
X10328467Y-12723436D02*
X10318944Y-12732960D01*
X10318944Y-12732960D02*
X10299896Y-12742484D01*
X10299896Y-12742484D02*
X10261801Y-12742484D01*
X10261801Y-12742484D02*
X10242753Y-12732960D01*
X10423705Y-12723436D02*
X10433229Y-12732960D01*
X10433229Y-12732960D02*
X10423705Y-12742484D01*
X10423705Y-12742484D02*
X10414182Y-12732960D01*
X10414182Y-12732960D02*
X10423705Y-12723436D01*
X10423705Y-12723436D02*
X10423705Y-12742484D01*
X10423705Y-12618674D02*
X10433229Y-12628198D01*
X10433229Y-12628198D02*
X10423705Y-12637722D01*
X10423705Y-12637722D02*
X10414182Y-12628198D01*
X10414182Y-12628198D02*
X10423705Y-12618674D01*
X10423705Y-12618674D02*
X10423705Y-12637722D01*
M02*
