%TF.GenerationSoftware,KiCad,Pcbnew,7.0.5*%
%TF.CreationDate,2024-09-25T00:21:03+08:00*%
%TF.ProjectId,TPS,5450532e-6b69-4636-9164-5f7063625858,rev?*%
%TF.SameCoordinates,Original*%
%TF.FileFunction,Profile,NP*%
%FSLAX46Y46*%
G04 Gerber Fmt 4.6, Leading zero omitted, Abs format (unit mm)*
G04 Created by KiCad (PCBNEW 7.0.5) date 2024-09-25 00:21:03*
%MOMM*%
%LPD*%
G01*
G04 APERTURE LIST*
%TA.AperFunction,Profile*%
%ADD10C,0.120000*%
%TD*%
G04 APERTURE END LIST*
D10*
X109650000Y-107675000D02*
X123750000Y-107675000D01*
X123750000Y-121775000D01*
X109650000Y-121775000D01*
X109650000Y-107675000D01*
X166800000Y-107675000D02*
X180900000Y-107675000D01*
X180900000Y-121775000D01*
X166800000Y-121775000D01*
X166800000Y-107675000D01*
X90600000Y-107675000D02*
X104700000Y-107675000D01*
X104700000Y-121775000D01*
X90600000Y-121775000D01*
X90600000Y-107675000D01*
X147750000Y-107675000D02*
X161850000Y-107675000D01*
X161850000Y-121775000D01*
X147750000Y-121775000D01*
X147750000Y-107675000D01*
X128700000Y-107675000D02*
X142800000Y-107675000D01*
X142800000Y-121775000D01*
X128700000Y-121775000D01*
X128700000Y-107675000D01*
X185850000Y-107675000D02*
X199950000Y-107675000D01*
X199950000Y-121775000D01*
X185850000Y-121775000D01*
X185850000Y-107675000D01*
X147750000Y-69575000D02*
X161850000Y-69575000D01*
X161850000Y-83675000D01*
X147750000Y-83675000D01*
X147750000Y-69575000D01*
X128700000Y-50525000D02*
X142800000Y-50525000D01*
X142800000Y-64625000D01*
X128700000Y-64625000D01*
X128700000Y-50525000D01*
X147750000Y-88625000D02*
X161850000Y-88625000D01*
X161850000Y-102725000D01*
X147750000Y-102725000D01*
X147750000Y-88625000D01*
X166800000Y-69575000D02*
X180900000Y-69575000D01*
X180900000Y-83675000D01*
X166800000Y-83675000D01*
X166800000Y-69575000D01*
X166800000Y-50525000D02*
X180900000Y-50525000D01*
X180900000Y-64625000D01*
X166800000Y-64625000D01*
X166800000Y-50525000D01*
X90600000Y-88625000D02*
X104700000Y-88625000D01*
X104700000Y-102725000D01*
X90600000Y-102725000D01*
X90600000Y-88625000D01*
X185850000Y-88625000D02*
X199950000Y-88625000D01*
X199950000Y-102725000D01*
X185850000Y-102725000D01*
X185850000Y-88625000D01*
X185850000Y-31475000D02*
X199950000Y-31475000D01*
X199950000Y-45575000D01*
X185850000Y-45575000D01*
X185850000Y-31475000D01*
X128700000Y-31475000D02*
X142800000Y-31475000D01*
X142800000Y-45575000D01*
X128700000Y-45575000D01*
X128700000Y-31475000D01*
X128700000Y-88625000D02*
X142800000Y-88625000D01*
X142800000Y-102725000D01*
X128700000Y-102725000D01*
X128700000Y-88625000D01*
X147750000Y-31475000D02*
X161850000Y-31475000D01*
X161850000Y-45575000D01*
X147750000Y-45575000D01*
X147750000Y-31475000D01*
X166800000Y-31475000D02*
X180900000Y-31475000D01*
X180900000Y-45575000D01*
X166800000Y-45575000D01*
X166800000Y-31475000D01*
X109650000Y-31475000D02*
X123750000Y-31475000D01*
X123750000Y-45575000D01*
X109650000Y-45575000D01*
X109650000Y-31475000D01*
X90600000Y-69575000D02*
X104700000Y-69575000D01*
X104700000Y-83675000D01*
X90600000Y-83675000D01*
X90600000Y-69575000D01*
X201155000Y-29000000D02*
X89245000Y-29000000D01*
X87975000Y-122980000D02*
G75*
G03*
X89245000Y-124250000I1270000J0D01*
G01*
X147750000Y-50525000D02*
X161850000Y-50525000D01*
X161850000Y-64625000D01*
X147750000Y-64625000D01*
X147750000Y-50525000D01*
X185850000Y-50525000D02*
X199950000Y-50525000D01*
X199950000Y-64625000D01*
X185850000Y-64625000D01*
X185850000Y-50525000D01*
X128700000Y-69575000D02*
X142800000Y-69575000D01*
X142800000Y-83675000D01*
X128700000Y-83675000D01*
X128700000Y-69575000D01*
X90600000Y-31475000D02*
X104700000Y-31475000D01*
X104700000Y-45575000D01*
X90600000Y-45575000D01*
X90600000Y-31475000D01*
X89245000Y-29000000D02*
G75*
G03*
X87975000Y-30270000I0J-1270000D01*
G01*
X202425000Y-122980000D02*
X202425000Y-30270000D01*
X201155000Y-124250000D02*
X89245000Y-124250000D01*
X87975000Y-30270000D02*
X87975000Y-122980000D01*
X201155000Y-124250000D02*
G75*
G03*
X202425000Y-122980000I0J1270000D01*
G01*
X109650000Y-50525000D02*
X123750000Y-50525000D01*
X123750000Y-64625000D01*
X109650000Y-64625000D01*
X109650000Y-50525000D01*
X166800000Y-88625000D02*
X180900000Y-88625000D01*
X180900000Y-102725000D01*
X166800000Y-102725000D01*
X166800000Y-88625000D01*
X202425000Y-30270000D02*
G75*
G03*
X201155000Y-29000000I-1270000J0D01*
G01*
X185850000Y-69575000D02*
X199950000Y-69575000D01*
X199950000Y-83675000D01*
X185850000Y-83675000D01*
X185850000Y-69575000D01*
X109650000Y-69575000D02*
X123750000Y-69575000D01*
X123750000Y-83675000D01*
X109650000Y-83675000D01*
X109650000Y-69575000D01*
X90600000Y-50525000D02*
X104700000Y-50525000D01*
X104700000Y-64625000D01*
X90600000Y-64625000D01*
X90600000Y-50525000D01*
X109650000Y-88625000D02*
X123750000Y-88625000D01*
X123750000Y-102725000D01*
X109650000Y-102725000D01*
X109650000Y-88625000D01*
M02*
