%TF.GenerationSoftware,KiCad,Pcbnew,9.0.5-9.0.5~ubuntu24.04.1*%
%TF.CreationDate,2025-10-31T15:20:19+08:00*%
%TF.ProjectId,TPS,5450532e-6b69-4636-9164-5f7063625858,rev?*%
%TF.SameCoordinates,Original*%
%TF.FileFunction,Copper,L2,Bot*%
%TF.FilePolarity,Positive*%
%FSLAX46Y46*%
G04 Gerber Fmt 4.6, Leading zero omitted, Abs format (unit mm)*
G04 Created by KiCad (PCBNEW 9.0.5-9.0.5~ubuntu24.04.1) date 2025-10-31 15:20:19*
%MOMM*%
%LPD*%
G01*
G04 APERTURE LIST*
%TA.AperFunction,ComponentPad*%
%ADD10C,2.700000*%
%TD*%
G04 APERTURE END LIST*
D10*
%TO.P,H11,1,1*%
%TO.N,GND*%
X85775000Y-103000000D03*
%TD*%
%TO.P,H10,1,1*%
%TO.N,GND*%
X85775000Y-57886000D03*
%TD*%
%TO.P,H9,1,1*%
%TO.N,GND*%
X40661000Y-103000000D03*
%TD*%
%TO.P,H8,1,1*%
%TO.N,GND*%
X40661000Y-57886000D03*
%TD*%
%TA.AperFunction,Conductor*%
%TO.N,GND*%
G36*
X85778736Y-55686726D02*
G01*
X86011068Y-55700779D01*
X86019729Y-55701611D01*
X86071126Y-55708377D01*
X86077239Y-55709339D01*
X86279220Y-55746353D01*
X86288960Y-55748547D01*
X86332404Y-55760187D01*
X86337176Y-55761569D01*
X86540605Y-55824961D01*
X86551158Y-55828782D01*
X86578927Y-55840284D01*
X86582340Y-55841757D01*
X86790319Y-55935360D01*
X86803575Y-55942318D01*
X86889020Y-55993971D01*
X87018045Y-56071970D01*
X87030356Y-56080468D01*
X87175739Y-56194368D01*
X87227636Y-56235027D01*
X87238844Y-56244957D01*
X87416042Y-56422155D01*
X87425972Y-56433363D01*
X87454257Y-56469466D01*
X87560549Y-56605138D01*
X87580527Y-56630637D01*
X87589033Y-56642960D01*
X87718680Y-56857422D01*
X87725639Y-56870681D01*
X87819229Y-57078632D01*
X87820714Y-57082071D01*
X87832216Y-57109840D01*
X87836040Y-57120401D01*
X87899421Y-57323795D01*
X87900811Y-57328594D01*
X87912451Y-57372038D01*
X87914645Y-57381778D01*
X87951655Y-57583735D01*
X87952625Y-57589902D01*
X87959385Y-57641249D01*
X87960220Y-57649946D01*
X87974274Y-57882263D01*
X87974500Y-57889751D01*
X87974500Y-102996248D01*
X87974274Y-103003736D01*
X87960220Y-103236052D01*
X87959385Y-103244749D01*
X87952625Y-103296096D01*
X87951655Y-103302263D01*
X87914645Y-103504220D01*
X87912451Y-103513960D01*
X87900811Y-103557404D01*
X87899421Y-103562203D01*
X87836040Y-103765597D01*
X87832216Y-103776158D01*
X87820714Y-103803927D01*
X87819229Y-103807366D01*
X87725639Y-104015317D01*
X87718680Y-104028576D01*
X87589033Y-104243039D01*
X87580527Y-104255362D01*
X87425972Y-104452636D01*
X87416042Y-104463844D01*
X87238844Y-104641042D01*
X87227636Y-104650972D01*
X87030362Y-104805527D01*
X87018039Y-104814033D01*
X86803576Y-104943680D01*
X86790317Y-104950639D01*
X86582366Y-105044229D01*
X86578927Y-105045714D01*
X86551158Y-105057216D01*
X86540597Y-105061040D01*
X86337203Y-105124421D01*
X86332404Y-105125811D01*
X86288960Y-105137451D01*
X86279220Y-105139645D01*
X86077263Y-105176655D01*
X86071096Y-105177625D01*
X86019749Y-105184385D01*
X86011052Y-105185220D01*
X85787202Y-105198761D01*
X85778735Y-105199274D01*
X85771249Y-105199500D01*
X40664751Y-105199500D01*
X40657264Y-105199274D01*
X40647971Y-105198711D01*
X40424946Y-105185220D01*
X40416249Y-105184385D01*
X40364902Y-105177625D01*
X40358735Y-105176655D01*
X40156778Y-105139645D01*
X40147038Y-105137451D01*
X40103594Y-105125811D01*
X40098795Y-105124421D01*
X39895401Y-105061040D01*
X39884840Y-105057216D01*
X39857071Y-105045714D01*
X39853632Y-105044229D01*
X39645681Y-104950639D01*
X39632422Y-104943680D01*
X39417960Y-104814033D01*
X39405637Y-104805527D01*
X39208363Y-104650972D01*
X39197155Y-104641042D01*
X39019957Y-104463844D01*
X39010027Y-104452636D01*
X38875456Y-104280869D01*
X38855468Y-104255356D01*
X38846970Y-104243045D01*
X38744122Y-104072914D01*
X38717318Y-104028575D01*
X38710359Y-104015316D01*
X38616757Y-103807340D01*
X38615284Y-103803927D01*
X38603782Y-103776158D01*
X38599958Y-103765597D01*
X38596189Y-103753502D01*
X38536569Y-103562176D01*
X38535187Y-103557404D01*
X38523547Y-103513960D01*
X38521353Y-103504220D01*
X38489860Y-103332367D01*
X38484339Y-103302239D01*
X38483377Y-103296126D01*
X38476611Y-103244729D01*
X38475779Y-103236065D01*
X38461726Y-103003736D01*
X38461500Y-102996249D01*
X38461500Y-102825000D01*
X38969370Y-102825000D01*
X39575006Y-102825000D01*
X39561000Y-102913428D01*
X39561000Y-103086572D01*
X39575006Y-103175000D01*
X38969370Y-103175000D01*
X38990085Y-103332354D01*
X38990088Y-103332367D01*
X39047763Y-103547618D01*
X39133045Y-103753502D01*
X39133054Y-103753520D01*
X39244464Y-103946491D01*
X39244466Y-103946495D01*
X39380130Y-104123293D01*
X39380138Y-104123302D01*
X39537698Y-104280862D01*
X39537706Y-104280869D01*
X39714504Y-104416533D01*
X39714508Y-104416535D01*
X39907479Y-104527945D01*
X39907497Y-104527954D01*
X40113381Y-104613236D01*
X40328632Y-104670911D01*
X40328645Y-104670914D01*
X40486000Y-104691629D01*
X40486000Y-104085994D01*
X40574428Y-104100000D01*
X40747572Y-104100000D01*
X40836000Y-104085994D01*
X40836000Y-104691628D01*
X40993354Y-104670914D01*
X40993367Y-104670911D01*
X41208618Y-104613236D01*
X41414502Y-104527954D01*
X41414520Y-104527945D01*
X41607491Y-104416535D01*
X41607495Y-104416533D01*
X41784293Y-104280869D01*
X41784302Y-104280862D01*
X41941862Y-104123302D01*
X41941869Y-104123293D01*
X42077533Y-103946495D01*
X42077535Y-103946491D01*
X42188945Y-103753520D01*
X42188954Y-103753502D01*
X42274236Y-103547618D01*
X42331911Y-103332367D01*
X42331914Y-103332354D01*
X42352630Y-103175000D01*
X41746994Y-103175000D01*
X41761000Y-103086572D01*
X41761000Y-102913428D01*
X41746994Y-102825000D01*
X42352629Y-102825000D01*
X84083370Y-102825000D01*
X84689006Y-102825000D01*
X84675000Y-102913428D01*
X84675000Y-103086572D01*
X84689006Y-103175000D01*
X84083370Y-103175000D01*
X84104085Y-103332354D01*
X84104088Y-103332367D01*
X84161763Y-103547618D01*
X84247045Y-103753502D01*
X84247054Y-103753520D01*
X84358464Y-103946491D01*
X84358466Y-103946495D01*
X84494130Y-104123293D01*
X84494138Y-104123302D01*
X84651698Y-104280862D01*
X84651706Y-104280869D01*
X84828504Y-104416533D01*
X84828508Y-104416535D01*
X85021479Y-104527945D01*
X85021497Y-104527954D01*
X85227381Y-104613236D01*
X85442632Y-104670911D01*
X85442645Y-104670914D01*
X85600000Y-104691629D01*
X85600000Y-104085994D01*
X85688428Y-104100000D01*
X85861572Y-104100000D01*
X85950000Y-104085994D01*
X85950000Y-104691628D01*
X86107354Y-104670914D01*
X86107367Y-104670911D01*
X86322618Y-104613236D01*
X86528502Y-104527954D01*
X86528520Y-104527945D01*
X86721491Y-104416535D01*
X86721495Y-104416533D01*
X86898293Y-104280869D01*
X86898302Y-104280862D01*
X87055862Y-104123302D01*
X87055869Y-104123293D01*
X87191533Y-103946495D01*
X87191535Y-103946491D01*
X87302945Y-103753520D01*
X87302954Y-103753502D01*
X87388236Y-103547618D01*
X87445911Y-103332367D01*
X87445914Y-103332354D01*
X87466630Y-103175000D01*
X86860994Y-103175000D01*
X86875000Y-103086572D01*
X86875000Y-102913428D01*
X86860994Y-102825000D01*
X87466629Y-102825000D01*
X87445914Y-102667645D01*
X87445911Y-102667632D01*
X87388236Y-102452381D01*
X87302954Y-102246497D01*
X87302945Y-102246479D01*
X87191535Y-102053508D01*
X87191533Y-102053504D01*
X87055869Y-101876706D01*
X87055862Y-101876698D01*
X86898302Y-101719138D01*
X86898293Y-101719130D01*
X86721495Y-101583466D01*
X86721491Y-101583464D01*
X86528520Y-101472054D01*
X86528502Y-101472045D01*
X86322618Y-101386763D01*
X86107367Y-101329088D01*
X86107356Y-101329086D01*
X85950000Y-101308368D01*
X85950000Y-101914005D01*
X85861572Y-101900000D01*
X85688428Y-101900000D01*
X85600000Y-101914005D01*
X85600000Y-101308368D01*
X85599999Y-101308368D01*
X85442643Y-101329086D01*
X85442632Y-101329088D01*
X85227381Y-101386763D01*
X85021497Y-101472045D01*
X85021479Y-101472054D01*
X84828508Y-101583464D01*
X84828504Y-101583466D01*
X84651706Y-101719130D01*
X84494130Y-101876706D01*
X84358466Y-102053504D01*
X84358464Y-102053508D01*
X84247054Y-102246479D01*
X84247045Y-102246497D01*
X84161763Y-102452381D01*
X84104088Y-102667632D01*
X84104085Y-102667645D01*
X84083370Y-102825000D01*
X42352629Y-102825000D01*
X42331914Y-102667645D01*
X42331911Y-102667632D01*
X42274236Y-102452381D01*
X42188954Y-102246497D01*
X42188945Y-102246479D01*
X42077535Y-102053508D01*
X42077533Y-102053504D01*
X41941869Y-101876706D01*
X41941862Y-101876698D01*
X41784302Y-101719138D01*
X41784293Y-101719130D01*
X41607495Y-101583466D01*
X41607491Y-101583464D01*
X41414520Y-101472054D01*
X41414502Y-101472045D01*
X41208618Y-101386763D01*
X40993367Y-101329088D01*
X40993356Y-101329086D01*
X40836000Y-101308368D01*
X40836000Y-101914005D01*
X40747572Y-101900000D01*
X40574428Y-101900000D01*
X40486000Y-101914005D01*
X40486000Y-101308368D01*
X40328643Y-101329086D01*
X40328632Y-101329088D01*
X40113381Y-101386763D01*
X39907497Y-101472045D01*
X39907479Y-101472054D01*
X39714508Y-101583464D01*
X39714504Y-101583466D01*
X39537706Y-101719130D01*
X39380130Y-101876706D01*
X39244466Y-102053504D01*
X39244464Y-102053508D01*
X39133054Y-102246479D01*
X39133045Y-102246497D01*
X39047763Y-102452381D01*
X38990088Y-102667632D01*
X38990085Y-102667645D01*
X38969370Y-102825000D01*
X38461500Y-102825000D01*
X38461500Y-99293713D01*
X42910500Y-99293713D01*
X42910500Y-99506286D01*
X42943753Y-99716239D01*
X43009444Y-99918414D01*
X43105951Y-100107820D01*
X43230890Y-100279786D01*
X43381213Y-100430109D01*
X43553179Y-100555048D01*
X43553181Y-100555049D01*
X43553184Y-100555051D01*
X43742588Y-100651557D01*
X43944757Y-100717246D01*
X44154713Y-100750500D01*
X44154714Y-100750500D01*
X44367286Y-100750500D01*
X44367287Y-100750500D01*
X44577243Y-100717246D01*
X44779412Y-100651557D01*
X44968816Y-100555051D01*
X45016285Y-100520563D01*
X45140786Y-100430109D01*
X45140788Y-100430106D01*
X45140792Y-100430104D01*
X45291104Y-100279792D01*
X45291106Y-100279788D01*
X45291109Y-100279786D01*
X45416048Y-100107820D01*
X45416047Y-100107820D01*
X45416051Y-100107816D01*
X45512557Y-99918412D01*
X45578246Y-99716243D01*
X45611500Y-99506287D01*
X45611500Y-99293713D01*
X45578246Y-99083757D01*
X45512557Y-98881588D01*
X45416051Y-98692184D01*
X45416049Y-98692181D01*
X45416048Y-98692179D01*
X45291109Y-98520213D01*
X45140786Y-98369890D01*
X44968820Y-98244951D01*
X44779414Y-98148444D01*
X44779413Y-98148443D01*
X44779412Y-98148443D01*
X44577243Y-98082754D01*
X44577241Y-98082753D01*
X44577240Y-98082753D01*
X44415957Y-98057208D01*
X44367287Y-98049500D01*
X44154713Y-98049500D01*
X44106042Y-98057208D01*
X43944760Y-98082753D01*
X43742585Y-98148444D01*
X43553179Y-98244951D01*
X43381213Y-98369890D01*
X43230890Y-98520213D01*
X43105951Y-98692179D01*
X43009444Y-98881585D01*
X42943753Y-99083760D01*
X42910500Y-99293713D01*
X38461500Y-99293713D01*
X38461500Y-79985531D01*
X41087500Y-79985531D01*
X41087500Y-80900468D01*
X41125309Y-81814626D01*
X41200861Y-82726408D01*
X41314034Y-83634333D01*
X41464627Y-84536789D01*
X41652385Y-85432244D01*
X41876992Y-86319197D01*
X41922197Y-86471039D01*
X41922200Y-86471050D01*
X41922829Y-86473163D01*
X41922854Y-86473259D01*
X41922982Y-86473676D01*
X41923099Y-86474070D01*
X41923155Y-86474257D01*
X42138056Y-87196096D01*
X42194478Y-87360449D01*
X42195757Y-87364386D01*
X42197969Y-87371608D01*
X42209793Y-87405074D01*
X42210156Y-87406117D01*
X42435130Y-88061442D01*
X42503946Y-88237803D01*
X42504691Y-88239713D01*
X42510972Y-88257489D01*
X42533645Y-88313914D01*
X42533869Y-88314487D01*
X42533869Y-88314488D01*
X42767712Y-88913778D01*
X42850086Y-89101570D01*
X42851589Y-89105148D01*
X42861286Y-89129281D01*
X42893247Y-89199989D01*
X42893810Y-89201253D01*
X43120108Y-89717159D01*
X43135240Y-89751656D01*
X43181706Y-89846705D01*
X43232318Y-89950233D01*
X43232317Y-89950233D01*
X43233156Y-89951950D01*
X43248284Y-89985416D01*
X43288897Y-90065968D01*
X43289269Y-90066728D01*
X43289269Y-90066729D01*
X43537068Y-90573611D01*
X43650011Y-90782311D01*
X43651678Y-90785502D01*
X43671263Y-90824347D01*
X43718756Y-90909363D01*
X43719557Y-90910820D01*
X43972531Y-91378275D01*
X44102484Y-91596365D01*
X44103362Y-91597838D01*
X44129479Y-91644590D01*
X44183462Y-91732264D01*
X44183922Y-91733036D01*
X44183933Y-91733054D01*
X44440875Y-92164258D01*
X44588966Y-92390928D01*
X44590747Y-92393737D01*
X44622082Y-92444629D01*
X44680537Y-92531117D01*
X44681610Y-92532731D01*
X44941304Y-92930221D01*
X45108636Y-93164584D01*
X45108636Y-93164585D01*
X45109582Y-93165911D01*
X45148206Y-93223056D01*
X45211064Y-93308046D01*
X45211672Y-93308897D01*
X45211713Y-93308953D01*
X45470499Y-93671405D01*
X45472944Y-93674829D01*
X45660731Y-93916097D01*
X45662563Y-93918512D01*
X45706892Y-93978449D01*
X45771879Y-94058933D01*
X45773256Y-94060670D01*
X46034904Y-94396836D01*
X46154716Y-94538298D01*
X46244253Y-94644014D01*
X46244259Y-94644020D01*
X46245212Y-94645146D01*
X46297127Y-94709441D01*
X46364559Y-94786059D01*
X46365303Y-94786937D01*
X46365304Y-94786939D01*
X46626217Y-95094999D01*
X46858400Y-95347217D01*
X46860252Y-95349275D01*
X46917859Y-95414729D01*
X46962143Y-95460934D01*
X46985090Y-95484877D01*
X46986797Y-95486694D01*
X47245904Y-95768159D01*
X47502061Y-96024315D01*
X47503004Y-96025258D01*
X47567964Y-96093036D01*
X47635741Y-96157995D01*
X47636683Y-96158937D01*
X47892840Y-96415095D01*
X48174304Y-96674201D01*
X48176121Y-96675908D01*
X48246271Y-96743141D01*
X48311780Y-96800796D01*
X48313724Y-96802546D01*
X48565989Y-97034772D01*
X48874955Y-97296453D01*
X48951559Y-97363873D01*
X49015847Y-97415781D01*
X49215749Y-97585090D01*
X49258910Y-97621646D01*
X49264160Y-97626092D01*
X49600447Y-97887835D01*
X49601959Y-97889034D01*
X49682556Y-97954111D01*
X49742493Y-97998440D01*
X49744869Y-98000243D01*
X49850878Y-98082753D01*
X49986181Y-98188064D01*
X50352044Y-98449285D01*
X50352919Y-98449909D01*
X50437944Y-98512794D01*
X50495118Y-98551437D01*
X50496376Y-98552335D01*
X50496414Y-98552362D01*
X50724164Y-98714973D01*
X50730788Y-98719702D01*
X50978573Y-98881588D01*
X51128267Y-98979388D01*
X51129873Y-98980456D01*
X51216363Y-99038913D01*
X51267327Y-99070293D01*
X51270061Y-99072026D01*
X51496739Y-99220123D01*
X51927963Y-99477076D01*
X51927963Y-99477077D01*
X51928714Y-99477525D01*
X52016410Y-99531521D01*
X52063155Y-99557634D01*
X52064591Y-99558490D01*
X52064626Y-99558510D01*
X52282716Y-99688464D01*
X52750344Y-99941531D01*
X52751524Y-99942180D01*
X52836643Y-99989731D01*
X52865318Y-100004189D01*
X52875509Y-100009327D01*
X52878659Y-100010972D01*
X53087376Y-100123924D01*
X53595017Y-100372095D01*
X53675584Y-100412716D01*
X53709069Y-100427851D01*
X53909344Y-100525760D01*
X54421700Y-100750500D01*
X54459786Y-100767206D01*
X54461045Y-100767767D01*
X54531720Y-100799714D01*
X54555908Y-100809433D01*
X54559343Y-100810876D01*
X54747215Y-100893284D01*
X55347141Y-101127376D01*
X55403511Y-101150028D01*
X55421293Y-101156310D01*
X55599559Y-101225870D01*
X56255138Y-101450930D01*
X56255690Y-101451122D01*
X56289383Y-101463027D01*
X56296641Y-101465249D01*
X56300467Y-101466492D01*
X56464918Y-101522948D01*
X57187261Y-101737998D01*
X57187741Y-101738146D01*
X57187856Y-101738175D01*
X57341815Y-101784011D01*
X58228752Y-102008614D01*
X59124212Y-102196373D01*
X60026667Y-102346966D01*
X60934574Y-102460136D01*
X60934576Y-102460136D01*
X60934591Y-102460138D01*
X61572229Y-102512973D01*
X61846382Y-102535691D01*
X62654098Y-102569097D01*
X62760531Y-102573500D01*
X62760533Y-102573500D01*
X63675469Y-102573500D01*
X63776046Y-102569340D01*
X64589618Y-102535691D01*
X64953121Y-102505570D01*
X65501408Y-102460138D01*
X65501420Y-102460136D01*
X65501426Y-102460136D01*
X66409333Y-102346966D01*
X67311788Y-102196373D01*
X68207248Y-102008614D01*
X69094185Y-101784011D01*
X69248140Y-101738176D01*
X69248259Y-101738146D01*
X69248737Y-101737998D01*
X69971082Y-101522948D01*
X70135584Y-101466474D01*
X70139320Y-101465261D01*
X70146617Y-101463027D01*
X70180363Y-101451103D01*
X70180703Y-101450984D01*
X70836441Y-101225870D01*
X71014714Y-101156307D01*
X71032489Y-101150028D01*
X71088882Y-101127366D01*
X71688785Y-100893284D01*
X71876608Y-100810897D01*
X71880126Y-100809419D01*
X71904280Y-100799714D01*
X71975128Y-100767688D01*
X71976073Y-100767267D01*
X72526656Y-100525760D01*
X72726927Y-100427852D01*
X72760416Y-100412716D01*
X72840930Y-100372120D01*
X73348624Y-100123924D01*
X73557367Y-100010957D01*
X73560376Y-100009384D01*
X73599357Y-99989731D01*
X73684613Y-99942103D01*
X73685507Y-99941611D01*
X74153284Y-99688464D01*
X74372850Y-99557630D01*
X74419590Y-99531521D01*
X74507242Y-99477550D01*
X74815760Y-99293713D01*
X80824500Y-99293713D01*
X80824500Y-99506286D01*
X80857753Y-99716239D01*
X80923444Y-99918414D01*
X81019951Y-100107820D01*
X81144890Y-100279786D01*
X81295213Y-100430109D01*
X81467179Y-100555048D01*
X81467181Y-100555049D01*
X81467184Y-100555051D01*
X81656588Y-100651557D01*
X81858757Y-100717246D01*
X82068713Y-100750500D01*
X82068714Y-100750500D01*
X82281286Y-100750500D01*
X82281287Y-100750500D01*
X82491243Y-100717246D01*
X82693412Y-100651557D01*
X82882816Y-100555051D01*
X82930285Y-100520563D01*
X83054786Y-100430109D01*
X83054788Y-100430106D01*
X83054792Y-100430104D01*
X83205104Y-100279792D01*
X83205106Y-100279788D01*
X83205109Y-100279786D01*
X83330048Y-100107820D01*
X83330047Y-100107820D01*
X83330051Y-100107816D01*
X83426557Y-99918412D01*
X83492246Y-99716243D01*
X83525500Y-99506287D01*
X83525500Y-99293713D01*
X83492246Y-99083757D01*
X83426557Y-98881588D01*
X83330051Y-98692184D01*
X83330049Y-98692181D01*
X83330048Y-98692179D01*
X83205109Y-98520213D01*
X83054786Y-98369890D01*
X82882820Y-98244951D01*
X82693414Y-98148444D01*
X82693413Y-98148443D01*
X82693412Y-98148443D01*
X82491243Y-98082754D01*
X82491241Y-98082753D01*
X82491240Y-98082753D01*
X82329957Y-98057208D01*
X82281287Y-98049500D01*
X82068713Y-98049500D01*
X82020042Y-98057208D01*
X81858760Y-98082753D01*
X81656585Y-98148444D01*
X81467179Y-98244951D01*
X81295213Y-98369890D01*
X81144890Y-98520213D01*
X81019951Y-98692179D01*
X80923444Y-98881585D01*
X80857753Y-99083760D01*
X80824500Y-99293713D01*
X74815760Y-99293713D01*
X74852674Y-99271717D01*
X74939265Y-99220121D01*
X74992967Y-99185035D01*
X74992970Y-99185033D01*
X75166021Y-99071972D01*
X75168599Y-99070337D01*
X75219637Y-99038913D01*
X75306334Y-98980315D01*
X75307584Y-98979485D01*
X75705212Y-98719702D01*
X75940916Y-98551412D01*
X75998056Y-98512794D01*
X76083088Y-98449903D01*
X76449829Y-98188056D01*
X76691174Y-98000209D01*
X76693463Y-97998472D01*
X76753444Y-97954111D01*
X76834012Y-97889056D01*
X76835511Y-97887866D01*
X77171840Y-97626092D01*
X77420178Y-97415760D01*
X77484441Y-97363873D01*
X77561017Y-97296475D01*
X77870011Y-97034772D01*
X78122397Y-96802434D01*
X78124084Y-96800915D01*
X78189729Y-96743141D01*
X78259902Y-96675884D01*
X78261666Y-96674228D01*
X78543149Y-96415105D01*
X78800281Y-96157972D01*
X78868036Y-96093036D01*
X78932971Y-96025282D01*
X79190105Y-95768149D01*
X79449228Y-95486666D01*
X79450884Y-95484902D01*
X79518141Y-95414729D01*
X79575915Y-95349084D01*
X79577434Y-95347397D01*
X79809772Y-95095011D01*
X80071475Y-94786017D01*
X80138873Y-94709441D01*
X80190769Y-94645167D01*
X80401092Y-94396840D01*
X80662866Y-94060511D01*
X80664056Y-94059012D01*
X80729111Y-93978444D01*
X80773472Y-93918463D01*
X80775209Y-93916174D01*
X80963056Y-93674829D01*
X81224934Y-93308046D01*
X81287794Y-93223056D01*
X81326416Y-93165911D01*
X81494702Y-92930212D01*
X81754485Y-92532584D01*
X81755315Y-92531334D01*
X81813913Y-92444637D01*
X81845337Y-92393600D01*
X81846995Y-92390987D01*
X81995123Y-92164261D01*
X82252545Y-91732249D01*
X82306521Y-91644590D01*
X82332638Y-91597838D01*
X82463464Y-91378284D01*
X82716611Y-90910507D01*
X82717103Y-90909613D01*
X82764731Y-90824357D01*
X82784384Y-90785376D01*
X82785957Y-90782367D01*
X82898924Y-90573624D01*
X83147120Y-90065930D01*
X83187716Y-89985416D01*
X83202852Y-89951927D01*
X83300760Y-89751656D01*
X83542267Y-89201073D01*
X83542688Y-89200128D01*
X83574714Y-89129280D01*
X83584419Y-89105126D01*
X83585897Y-89101608D01*
X83668284Y-88913785D01*
X83902366Y-88313882D01*
X83925028Y-88257489D01*
X83931308Y-88239713D01*
X84000870Y-88061441D01*
X84225984Y-87405703D01*
X84226103Y-87405363D01*
X84238027Y-87371617D01*
X84240261Y-87364320D01*
X84241474Y-87360584D01*
X84297948Y-87196082D01*
X84512998Y-86473737D01*
X84513146Y-86473259D01*
X84513173Y-86473149D01*
X84559011Y-86319185D01*
X84783614Y-85432248D01*
X84971373Y-84536788D01*
X85121966Y-83634333D01*
X85235136Y-82726426D01*
X85235136Y-82726420D01*
X85235138Y-82726408D01*
X85310690Y-81814626D01*
X85310691Y-81814618D01*
X85348500Y-80900467D01*
X85348500Y-79985533D01*
X85310691Y-79071382D01*
X85287973Y-78797229D01*
X85235138Y-78159591D01*
X85235136Y-78159574D01*
X85121966Y-77251667D01*
X84971373Y-76349212D01*
X84783614Y-75453752D01*
X84559011Y-74566815D01*
X84513175Y-74412856D01*
X84513146Y-74412741D01*
X84512998Y-74412261D01*
X84297948Y-73689918D01*
X84241492Y-73525467D01*
X84240249Y-73521641D01*
X84238027Y-73514383D01*
X84226122Y-73480690D01*
X84225930Y-73480138D01*
X84000870Y-72824559D01*
X83931310Y-72646293D01*
X83925028Y-72628511D01*
X83902376Y-72572141D01*
X83668284Y-71972215D01*
X83585876Y-71784343D01*
X83584433Y-71780908D01*
X83574714Y-71756720D01*
X83542750Y-71686008D01*
X83542206Y-71684786D01*
X83300760Y-71134344D01*
X83202851Y-70934069D01*
X83187716Y-70900584D01*
X83147087Y-70820002D01*
X82898924Y-70312376D01*
X82785972Y-70103659D01*
X82784327Y-70100509D01*
X82779189Y-70090318D01*
X82764731Y-70061643D01*
X82717180Y-69976524D01*
X82716531Y-69975344D01*
X82463464Y-69507716D01*
X82332623Y-69288136D01*
X82306521Y-69241410D01*
X82252531Y-69153724D01*
X82252135Y-69153060D01*
X82252121Y-69153038D01*
X81995123Y-68721739D01*
X81847026Y-68495061D01*
X81845274Y-68492297D01*
X81813913Y-68441363D01*
X81755451Y-68354866D01*
X81754388Y-68353267D01*
X81754379Y-68353253D01*
X81494702Y-67955788D01*
X81327354Y-67721402D01*
X81326427Y-67720103D01*
X81287794Y-67662944D01*
X81224909Y-67577919D01*
X81224285Y-67577044D01*
X80963064Y-67211181D01*
X80775262Y-66969894D01*
X80773440Y-66967493D01*
X80729111Y-66907556D01*
X80664034Y-66826959D01*
X80662835Y-66825447D01*
X80401092Y-66489160D01*
X80190781Y-66240847D01*
X80138873Y-66176559D01*
X80071453Y-66099955D01*
X79809772Y-65790989D01*
X79577546Y-65538724D01*
X79575796Y-65536780D01*
X79518141Y-65471271D01*
X79450905Y-65401118D01*
X79449201Y-65399304D01*
X79190095Y-65117840D01*
X78933937Y-64861683D01*
X78932995Y-64860741D01*
X78868036Y-64792964D01*
X78800258Y-64728004D01*
X78799315Y-64727061D01*
X78543159Y-64470904D01*
X78261694Y-64211797D01*
X78259877Y-64210090D01*
X78235934Y-64187143D01*
X78189729Y-64142859D01*
X78124276Y-64085253D01*
X78122217Y-64083400D01*
X77874675Y-63855522D01*
X77870011Y-63851228D01*
X77870010Y-63851227D01*
X77869999Y-63851217D01*
X77561937Y-63590302D01*
X77561937Y-63590303D01*
X77561059Y-63589559D01*
X77484441Y-63522127D01*
X77420146Y-63470212D01*
X77370001Y-63427742D01*
X77171836Y-63259904D01*
X76835670Y-62998256D01*
X76833933Y-62996879D01*
X76753449Y-62931892D01*
X76693512Y-62887563D01*
X76691114Y-62885744D01*
X76449829Y-62697944D01*
X76449825Y-62697941D01*
X76083953Y-62436713D01*
X76083953Y-62436712D01*
X76083047Y-62436065D01*
X75998056Y-62373206D01*
X75940911Y-62334582D01*
X75939620Y-62333661D01*
X75939584Y-62333636D01*
X75705221Y-62166304D01*
X75307731Y-61906610D01*
X75306117Y-61905537D01*
X75274721Y-61884317D01*
X75219637Y-61847087D01*
X75168718Y-61815735D01*
X75165928Y-61813966D01*
X74939258Y-61665875D01*
X74629609Y-61481364D01*
X74508054Y-61408933D01*
X74506514Y-61408000D01*
X74460573Y-61379713D01*
X80824500Y-61379713D01*
X80824500Y-61592287D01*
X80857754Y-61802243D01*
X80891316Y-61905537D01*
X80923444Y-62004414D01*
X81019951Y-62193820D01*
X81144890Y-62365786D01*
X81295213Y-62516109D01*
X81467179Y-62641048D01*
X81467181Y-62641049D01*
X81467184Y-62641051D01*
X81656588Y-62737557D01*
X81858757Y-62803246D01*
X82068713Y-62836500D01*
X82068714Y-62836500D01*
X82281286Y-62836500D01*
X82281287Y-62836500D01*
X82491243Y-62803246D01*
X82693412Y-62737557D01*
X82882816Y-62641051D01*
X82904789Y-62625086D01*
X83054786Y-62516109D01*
X83054788Y-62516106D01*
X83054792Y-62516104D01*
X83205104Y-62365792D01*
X83205106Y-62365788D01*
X83205109Y-62365786D01*
X83330048Y-62193820D01*
X83330047Y-62193820D01*
X83330051Y-62193816D01*
X83426557Y-62004412D01*
X83492246Y-61802243D01*
X83525500Y-61592287D01*
X83525500Y-61379713D01*
X83492246Y-61169757D01*
X83426557Y-60967588D01*
X83330051Y-60778184D01*
X83330049Y-60778181D01*
X83330048Y-60778179D01*
X83205109Y-60606213D01*
X83054786Y-60455890D01*
X82882820Y-60330951D01*
X82693414Y-60234444D01*
X82693413Y-60234443D01*
X82693412Y-60234443D01*
X82491243Y-60168754D01*
X82491241Y-60168753D01*
X82491240Y-60168753D01*
X82329957Y-60143208D01*
X82281287Y-60135500D01*
X82068713Y-60135500D01*
X82020042Y-60143208D01*
X81858760Y-60168753D01*
X81656585Y-60234444D01*
X81467179Y-60330951D01*
X81295213Y-60455890D01*
X81144890Y-60606213D01*
X81019951Y-60778179D01*
X80923444Y-60967585D01*
X80857753Y-61169760D01*
X80853355Y-61197531D01*
X80824500Y-61379713D01*
X74460573Y-61379713D01*
X74419578Y-61354471D01*
X74374366Y-61329215D01*
X74371365Y-61327484D01*
X74301498Y-61285852D01*
X74153284Y-61197536D01*
X74153275Y-61197531D01*
X73685820Y-60944557D01*
X73685064Y-60944148D01*
X73599357Y-60896269D01*
X73558887Y-60875864D01*
X73557310Y-60875011D01*
X73557308Y-60875009D01*
X73348611Y-60762068D01*
X72841729Y-60514269D01*
X72840365Y-60513592D01*
X72760429Y-60473289D01*
X72728616Y-60458909D01*
X72725233Y-60457318D01*
X72621705Y-60406706D01*
X72526656Y-60360240D01*
X72459879Y-60330949D01*
X71976253Y-60118810D01*
X71976253Y-60118809D01*
X71975442Y-60118453D01*
X71904280Y-60086286D01*
X71878371Y-60075875D01*
X71876593Y-60075095D01*
X71876570Y-60075086D01*
X71688778Y-59992712D01*
X71089488Y-59758869D01*
X71088329Y-59758410D01*
X71032491Y-59735972D01*
X71016559Y-59730342D01*
X71012804Y-59728946D01*
X70836442Y-59660130D01*
X70181117Y-59435156D01*
X70181117Y-59435155D01*
X70180355Y-59434893D01*
X70146617Y-59422973D01*
X70137469Y-59420171D01*
X70135449Y-59419478D01*
X69971096Y-59363056D01*
X69249257Y-59148155D01*
X69248418Y-59147902D01*
X69246867Y-59147428D01*
X69246039Y-59147197D01*
X69094197Y-59101992D01*
X68207244Y-58877385D01*
X67311789Y-58689627D01*
X66409333Y-58539034D01*
X65501408Y-58425861D01*
X64589626Y-58350309D01*
X63675469Y-58312500D01*
X63675467Y-58312500D01*
X62760533Y-58312500D01*
X62760531Y-58312500D01*
X61846373Y-58350309D01*
X60934591Y-58425861D01*
X60026666Y-58539034D01*
X59124210Y-58689627D01*
X58228755Y-58877385D01*
X57341802Y-59101992D01*
X57189850Y-59147230D01*
X57189806Y-59147243D01*
X57187804Y-59147837D01*
X57187741Y-59147854D01*
X57187487Y-59147931D01*
X57186924Y-59148099D01*
X57186807Y-59148135D01*
X56464903Y-59363056D01*
X56300530Y-59419485D01*
X56296594Y-59420764D01*
X56289383Y-59422973D01*
X56255961Y-59434781D01*
X56254918Y-59435144D01*
X55599570Y-59660125D01*
X55423196Y-59728946D01*
X55423195Y-59728945D01*
X55421238Y-59729708D01*
X55403511Y-59735972D01*
X55347219Y-59758591D01*
X55346509Y-59758869D01*
X55346458Y-59758889D01*
X54747220Y-59992712D01*
X54559448Y-60075077D01*
X54555877Y-60076577D01*
X54531715Y-60086286D01*
X54461008Y-60118247D01*
X54459746Y-60118810D01*
X54091132Y-60280500D01*
X53909344Y-60360240D01*
X53909332Y-60360246D01*
X53710750Y-60457325D01*
X53710749Y-60457324D01*
X53709000Y-60458178D01*
X53675584Y-60473284D01*
X53595198Y-60513813D01*
X53594367Y-60514220D01*
X53594302Y-60514253D01*
X53087379Y-60762073D01*
X52878700Y-60875004D01*
X52875512Y-60876670D01*
X52836634Y-60896273D01*
X52751665Y-60943739D01*
X52750210Y-60944540D01*
X52282703Y-61197543D01*
X52064661Y-61327466D01*
X52064662Y-61327467D01*
X52063136Y-61328375D01*
X52016410Y-61354479D01*
X51928751Y-61408452D01*
X51927945Y-61408933D01*
X51496730Y-61665882D01*
X51270102Y-61813945D01*
X51267297Y-61815724D01*
X51216379Y-61847076D01*
X51129866Y-61905547D01*
X51128253Y-61906618D01*
X50730796Y-62166292D01*
X50496425Y-62333630D01*
X50496423Y-62333631D01*
X50495106Y-62334570D01*
X50437944Y-62373206D01*
X50353024Y-62436012D01*
X50352078Y-62436688D01*
X50352045Y-62436713D01*
X49986173Y-62697941D01*
X49744881Y-62885746D01*
X49742455Y-62887586D01*
X49682572Y-62931876D01*
X49602031Y-62996907D01*
X49600296Y-62998282D01*
X49264166Y-63259903D01*
X49016955Y-63469280D01*
X49016953Y-63469281D01*
X49016952Y-63469280D01*
X49015790Y-63470264D01*
X48951559Y-63522127D01*
X48874996Y-63589510D01*
X48874062Y-63590302D01*
X48874027Y-63590332D01*
X48566000Y-63851217D01*
X48313778Y-64083403D01*
X48311720Y-64085255D01*
X48246275Y-64142855D01*
X48176118Y-64210093D01*
X48174303Y-64211797D01*
X47892853Y-64470891D01*
X47635693Y-64728050D01*
X47567964Y-64792964D01*
X47503050Y-64860693D01*
X47245891Y-65117853D01*
X46986797Y-65399303D01*
X46985093Y-65401118D01*
X46917855Y-65471275D01*
X46860255Y-65536720D01*
X46858403Y-65538778D01*
X46626217Y-65791000D01*
X46365332Y-66099027D01*
X46364519Y-66099986D01*
X46297127Y-66176559D01*
X46245253Y-66240802D01*
X46244322Y-66241903D01*
X46244281Y-66241953D01*
X46034903Y-66489166D01*
X45773282Y-66825296D01*
X45771907Y-66827031D01*
X45706876Y-66907572D01*
X45662586Y-66967455D01*
X45660746Y-66969881D01*
X45472941Y-67211173D01*
X45211713Y-67577045D01*
X45211053Y-67577969D01*
X45148206Y-67662944D01*
X45109588Y-67720081D01*
X45108645Y-67721402D01*
X45108630Y-67721425D01*
X44941292Y-67955796D01*
X44681618Y-68353253D01*
X44680547Y-68354866D01*
X44622076Y-68441379D01*
X44590724Y-68492297D01*
X44588945Y-68495102D01*
X44440882Y-68721730D01*
X44183933Y-69152945D01*
X44183452Y-69153751D01*
X44129479Y-69241410D01*
X44103375Y-69288136D01*
X44102467Y-69289662D01*
X44102465Y-69289663D01*
X43972543Y-69507703D01*
X43719540Y-69975210D01*
X43718739Y-69976665D01*
X43671273Y-70061634D01*
X43651670Y-70100512D01*
X43650004Y-70103700D01*
X43537073Y-70312379D01*
X43289253Y-70819302D01*
X43288853Y-70820119D01*
X43248284Y-70900584D01*
X43233180Y-70933995D01*
X43232337Y-70935722D01*
X43232325Y-70935750D01*
X43142055Y-71120403D01*
X43135240Y-71134344D01*
X43134184Y-71136752D01*
X42893810Y-71684746D01*
X42893247Y-71686008D01*
X42861286Y-71756715D01*
X42851577Y-71780877D01*
X42850077Y-71784448D01*
X42767712Y-71972220D01*
X42533889Y-72571458D01*
X42533595Y-72572211D01*
X42510972Y-72628511D01*
X42504703Y-72646251D01*
X42503958Y-72648163D01*
X42503946Y-72648196D01*
X42435125Y-72824570D01*
X42210144Y-73479918D01*
X42209781Y-73480961D01*
X42197973Y-73514383D01*
X42195764Y-73521594D01*
X42194485Y-73525530D01*
X42138056Y-73689903D01*
X41923135Y-74411807D01*
X41922965Y-74412378D01*
X41922854Y-74412741D01*
X41922831Y-74412827D01*
X41922243Y-74414806D01*
X41922241Y-74414807D01*
X41922230Y-74414850D01*
X41876992Y-74566802D01*
X41652385Y-75453755D01*
X41464627Y-76349210D01*
X41314034Y-77251666D01*
X41200861Y-78159591D01*
X41125309Y-79071373D01*
X41087500Y-79985531D01*
X38461500Y-79985531D01*
X38461500Y-61379713D01*
X42910500Y-61379713D01*
X42910500Y-61592287D01*
X42943754Y-61802243D01*
X42977316Y-61905537D01*
X43009444Y-62004414D01*
X43105951Y-62193820D01*
X43230890Y-62365786D01*
X43381213Y-62516109D01*
X43553179Y-62641048D01*
X43553181Y-62641049D01*
X43553184Y-62641051D01*
X43742588Y-62737557D01*
X43944757Y-62803246D01*
X44154713Y-62836500D01*
X44154714Y-62836500D01*
X44367286Y-62836500D01*
X44367287Y-62836500D01*
X44577243Y-62803246D01*
X44779412Y-62737557D01*
X44968816Y-62641051D01*
X44990789Y-62625086D01*
X45140786Y-62516109D01*
X45140788Y-62516106D01*
X45140792Y-62516104D01*
X45291104Y-62365792D01*
X45291106Y-62365788D01*
X45291109Y-62365786D01*
X45416048Y-62193820D01*
X45416047Y-62193820D01*
X45416051Y-62193816D01*
X45512557Y-62004412D01*
X45578246Y-61802243D01*
X45611500Y-61592287D01*
X45611500Y-61379713D01*
X45578246Y-61169757D01*
X45512557Y-60967588D01*
X45416051Y-60778184D01*
X45416049Y-60778181D01*
X45416048Y-60778179D01*
X45291109Y-60606213D01*
X45140786Y-60455890D01*
X44968820Y-60330951D01*
X44779414Y-60234444D01*
X44779413Y-60234443D01*
X44779412Y-60234443D01*
X44577243Y-60168754D01*
X44577241Y-60168753D01*
X44577240Y-60168753D01*
X44415957Y-60143208D01*
X44367287Y-60135500D01*
X44154713Y-60135500D01*
X44106042Y-60143208D01*
X43944760Y-60168753D01*
X43742585Y-60234444D01*
X43553179Y-60330951D01*
X43381213Y-60455890D01*
X43230890Y-60606213D01*
X43105951Y-60778179D01*
X43009444Y-60967585D01*
X42943753Y-61169760D01*
X42939355Y-61197531D01*
X42910500Y-61379713D01*
X38461500Y-61379713D01*
X38461500Y-57889750D01*
X38461726Y-57882263D01*
X38466737Y-57799428D01*
X38472085Y-57711000D01*
X38969370Y-57711000D01*
X39575006Y-57711000D01*
X39561000Y-57799428D01*
X39561000Y-57972572D01*
X39575006Y-58061000D01*
X38969370Y-58061000D01*
X38990085Y-58218354D01*
X38990088Y-58218367D01*
X39047763Y-58433618D01*
X39133045Y-58639502D01*
X39133054Y-58639520D01*
X39244464Y-58832491D01*
X39244466Y-58832495D01*
X39380130Y-59009293D01*
X39380138Y-59009302D01*
X39537698Y-59166862D01*
X39537706Y-59166869D01*
X39714504Y-59302533D01*
X39714508Y-59302535D01*
X39907479Y-59413945D01*
X39907497Y-59413954D01*
X40113381Y-59499236D01*
X40328632Y-59556911D01*
X40328645Y-59556914D01*
X40486000Y-59577629D01*
X40486000Y-58971994D01*
X40574428Y-58986000D01*
X40747572Y-58986000D01*
X40836000Y-58971994D01*
X40836000Y-59577628D01*
X40993354Y-59556914D01*
X40993367Y-59556911D01*
X41208618Y-59499236D01*
X41414502Y-59413954D01*
X41414520Y-59413945D01*
X41607491Y-59302535D01*
X41607495Y-59302533D01*
X41784293Y-59166869D01*
X41784302Y-59166862D01*
X41941862Y-59009302D01*
X41941869Y-59009293D01*
X42077533Y-58832495D01*
X42077535Y-58832491D01*
X42188945Y-58639520D01*
X42188954Y-58639502D01*
X42274236Y-58433618D01*
X42331911Y-58218367D01*
X42331914Y-58218354D01*
X42352630Y-58061000D01*
X41746994Y-58061000D01*
X41761000Y-57972572D01*
X41761000Y-57799428D01*
X41746994Y-57711000D01*
X42352629Y-57711000D01*
X84083370Y-57711000D01*
X84689006Y-57711000D01*
X84675000Y-57799428D01*
X84675000Y-57972572D01*
X84689006Y-58061000D01*
X84083370Y-58061000D01*
X84104085Y-58218354D01*
X84104088Y-58218367D01*
X84161763Y-58433618D01*
X84247045Y-58639502D01*
X84247054Y-58639520D01*
X84358464Y-58832491D01*
X84358466Y-58832495D01*
X84494130Y-59009293D01*
X84494138Y-59009302D01*
X84651698Y-59166862D01*
X84651706Y-59166869D01*
X84828504Y-59302533D01*
X84828508Y-59302535D01*
X85021479Y-59413945D01*
X85021497Y-59413954D01*
X85227381Y-59499236D01*
X85442632Y-59556911D01*
X85442645Y-59556914D01*
X85600000Y-59577629D01*
X85600000Y-58971994D01*
X85688428Y-58986000D01*
X85861572Y-58986000D01*
X85950000Y-58971994D01*
X85950000Y-59577628D01*
X86107354Y-59556914D01*
X86107367Y-59556911D01*
X86322618Y-59499236D01*
X86528502Y-59413954D01*
X86528520Y-59413945D01*
X86721491Y-59302535D01*
X86721495Y-59302533D01*
X86898293Y-59166869D01*
X86898302Y-59166862D01*
X87055862Y-59009302D01*
X87055869Y-59009293D01*
X87191533Y-58832495D01*
X87191535Y-58832491D01*
X87302945Y-58639520D01*
X87302954Y-58639502D01*
X87388236Y-58433618D01*
X87445911Y-58218367D01*
X87445914Y-58218354D01*
X87466630Y-58061000D01*
X86860994Y-58061000D01*
X86875000Y-57972572D01*
X86875000Y-57799428D01*
X86860994Y-57711000D01*
X87466629Y-57711000D01*
X87445914Y-57553645D01*
X87445911Y-57553632D01*
X87388236Y-57338381D01*
X87302954Y-57132497D01*
X87302945Y-57132479D01*
X87191535Y-56939508D01*
X87191533Y-56939504D01*
X87055869Y-56762706D01*
X87055862Y-56762698D01*
X86898302Y-56605138D01*
X86898293Y-56605130D01*
X86721495Y-56469466D01*
X86721491Y-56469464D01*
X86528520Y-56358054D01*
X86528502Y-56358045D01*
X86322618Y-56272763D01*
X86107367Y-56215088D01*
X86107356Y-56215086D01*
X85950000Y-56194368D01*
X85950000Y-56800005D01*
X85861572Y-56786000D01*
X85688428Y-56786000D01*
X85600000Y-56800005D01*
X85600000Y-56194368D01*
X85599999Y-56194368D01*
X85442643Y-56215086D01*
X85442632Y-56215088D01*
X85227381Y-56272763D01*
X85021497Y-56358045D01*
X85021479Y-56358054D01*
X84828508Y-56469464D01*
X84828504Y-56469466D01*
X84651706Y-56605130D01*
X84494130Y-56762706D01*
X84358466Y-56939504D01*
X84358464Y-56939508D01*
X84247054Y-57132479D01*
X84247045Y-57132497D01*
X84161763Y-57338381D01*
X84104088Y-57553632D01*
X84104085Y-57553645D01*
X84083370Y-57711000D01*
X42352629Y-57711000D01*
X42331914Y-57553645D01*
X42331911Y-57553632D01*
X42274236Y-57338381D01*
X42188954Y-57132497D01*
X42188945Y-57132479D01*
X42077535Y-56939508D01*
X42077533Y-56939504D01*
X41941869Y-56762706D01*
X41941862Y-56762698D01*
X41784302Y-56605138D01*
X41784293Y-56605130D01*
X41607495Y-56469466D01*
X41607491Y-56469464D01*
X41414520Y-56358054D01*
X41414502Y-56358045D01*
X41208618Y-56272763D01*
X40993367Y-56215088D01*
X40993356Y-56215086D01*
X40836000Y-56194368D01*
X40836000Y-56800005D01*
X40747572Y-56786000D01*
X40574428Y-56786000D01*
X40486000Y-56800005D01*
X40486000Y-56194368D01*
X40485999Y-56194368D01*
X40328643Y-56215086D01*
X40328632Y-56215088D01*
X40113381Y-56272763D01*
X39907497Y-56358045D01*
X39907479Y-56358054D01*
X39714508Y-56469464D01*
X39714504Y-56469466D01*
X39537706Y-56605130D01*
X39380130Y-56762706D01*
X39244466Y-56939504D01*
X39244464Y-56939508D01*
X39133054Y-57132479D01*
X39133045Y-57132497D01*
X39047763Y-57338381D01*
X38990088Y-57553632D01*
X38990085Y-57553645D01*
X38969370Y-57711000D01*
X38472085Y-57711000D01*
X38475779Y-57649928D01*
X38476610Y-57641275D01*
X38483379Y-57589861D01*
X38484337Y-57583772D01*
X38521355Y-57381769D01*
X38523547Y-57372038D01*
X38532565Y-57338381D01*
X38535195Y-57328564D01*
X38536560Y-57323850D01*
X38599965Y-57120379D01*
X38603777Y-57109853D01*
X38615307Y-57082017D01*
X38616736Y-57078707D01*
X38710367Y-56870666D01*
X38717312Y-56857433D01*
X38846975Y-56642946D01*
X38855462Y-56630650D01*
X39010034Y-56433354D01*
X39019949Y-56422163D01*
X39197163Y-56244949D01*
X39208354Y-56235034D01*
X39405650Y-56080462D01*
X39417946Y-56071975D01*
X39632433Y-55942312D01*
X39645666Y-55935367D01*
X39853707Y-55841736D01*
X39857017Y-55840307D01*
X39884853Y-55828777D01*
X39895379Y-55824965D01*
X40098850Y-55761560D01*
X40103564Y-55760195D01*
X40147038Y-55748547D01*
X40156769Y-55746355D01*
X40358772Y-55709337D01*
X40364861Y-55708379D01*
X40416275Y-55701610D01*
X40424925Y-55700780D01*
X40657264Y-55686726D01*
X40664751Y-55686500D01*
X85771249Y-55686500D01*
X85778736Y-55686726D01*
G37*
%TD.AperFunction*%
%TD*%
M02*
