%TF.GenerationSoftware,KiCad,Pcbnew,7.0.5*%
%TF.CreationDate,2024-08-04T18:57:08+08:00*%
%TF.ProjectId,TPS,5450532e-6b69-4636-9164-5f7063625858,rev?*%
%TF.SameCoordinates,Original*%
%TF.FileFunction,Drillmap*%
%TF.FilePolarity,Positive*%
%FSLAX45Y45*%
G04 Gerber Fmt 4.5, Leading zero omitted, Abs format (unit mm)*
G04 Created by KiCad (PCBNEW 7.0.5) date 2024-08-04 18:57:08*
%MOMM*%
%LPD*%
G01*
G04 APERTURE LIST*
%ADD10C,0.120000*%
%ADD11C,0.200000*%
G04 APERTURE END LIST*
D10*
X8670500Y-2900000D02*
X3973100Y-2900000D01*
X3846100Y-5426600D02*
G75*
G03*
X3973100Y-5553600I127000J0D01*
G01*
X3973100Y-2900000D02*
G75*
G03*
X3846100Y-3027000I0J-127000D01*
G01*
X8797500Y-5426600D02*
X8797500Y-3027000D01*
X8670500Y-5553600D02*
X3973100Y-5553600D01*
X3846100Y-3027000D02*
X3846100Y-5426600D01*
X8670500Y-5553600D02*
G75*
G03*
X8797500Y-5426600I0J127000D01*
G01*
X8797500Y-3027000D02*
G75*
G03*
X8670500Y-2900000I-127000J0D01*
G01*
D11*
X4100877Y-5871084D02*
X4100877Y-5671084D01*
X4100877Y-5671084D02*
X4148496Y-5671084D01*
X4148496Y-5671084D02*
X4177067Y-5680608D01*
X4177067Y-5680608D02*
X4196115Y-5699655D01*
X4196115Y-5699655D02*
X4205639Y-5718703D01*
X4205639Y-5718703D02*
X4215163Y-5756798D01*
X4215163Y-5756798D02*
X4215163Y-5785369D01*
X4215163Y-5785369D02*
X4205639Y-5823465D01*
X4205639Y-5823465D02*
X4196115Y-5842512D01*
X4196115Y-5842512D02*
X4177067Y-5861560D01*
X4177067Y-5861560D02*
X4148496Y-5871084D01*
X4148496Y-5871084D02*
X4100877Y-5871084D01*
X4300877Y-5871084D02*
X4300877Y-5737750D01*
X4300877Y-5775846D02*
X4310401Y-5756798D01*
X4310401Y-5756798D02*
X4319924Y-5747274D01*
X4319924Y-5747274D02*
X4338972Y-5737750D01*
X4338972Y-5737750D02*
X4358020Y-5737750D01*
X4424686Y-5871084D02*
X4424686Y-5737750D01*
X4424686Y-5671084D02*
X4415163Y-5680608D01*
X4415163Y-5680608D02*
X4424686Y-5690131D01*
X4424686Y-5690131D02*
X4434210Y-5680608D01*
X4434210Y-5680608D02*
X4424686Y-5671084D01*
X4424686Y-5671084D02*
X4424686Y-5690131D01*
X4548496Y-5871084D02*
X4529448Y-5861560D01*
X4529448Y-5861560D02*
X4519924Y-5842512D01*
X4519924Y-5842512D02*
X4519924Y-5671084D01*
X4653258Y-5871084D02*
X4634210Y-5861560D01*
X4634210Y-5861560D02*
X4624686Y-5842512D01*
X4624686Y-5842512D02*
X4624686Y-5671084D01*
X4881829Y-5871084D02*
X4881829Y-5671084D01*
X4881829Y-5671084D02*
X4948496Y-5813941D01*
X4948496Y-5813941D02*
X5015163Y-5671084D01*
X5015163Y-5671084D02*
X5015163Y-5871084D01*
X5196115Y-5871084D02*
X5196115Y-5766322D01*
X5196115Y-5766322D02*
X5186591Y-5747274D01*
X5186591Y-5747274D02*
X5167544Y-5737750D01*
X5167544Y-5737750D02*
X5129448Y-5737750D01*
X5129448Y-5737750D02*
X5110401Y-5747274D01*
X5196115Y-5861560D02*
X5177067Y-5871084D01*
X5177067Y-5871084D02*
X5129448Y-5871084D01*
X5129448Y-5871084D02*
X5110401Y-5861560D01*
X5110401Y-5861560D02*
X5100877Y-5842512D01*
X5100877Y-5842512D02*
X5100877Y-5823465D01*
X5100877Y-5823465D02*
X5110401Y-5804417D01*
X5110401Y-5804417D02*
X5129448Y-5794893D01*
X5129448Y-5794893D02*
X5177067Y-5794893D01*
X5177067Y-5794893D02*
X5196115Y-5785369D01*
X5291353Y-5737750D02*
X5291353Y-5937750D01*
X5291353Y-5747274D02*
X5310401Y-5737750D01*
X5310401Y-5737750D02*
X5348496Y-5737750D01*
X5348496Y-5737750D02*
X5367544Y-5747274D01*
X5367544Y-5747274D02*
X5377067Y-5756798D01*
X5377067Y-5756798D02*
X5386591Y-5775846D01*
X5386591Y-5775846D02*
X5386591Y-5832988D01*
X5386591Y-5832988D02*
X5377067Y-5852036D01*
X5377067Y-5852036D02*
X5367544Y-5861560D01*
X5367544Y-5861560D02*
X5348496Y-5871084D01*
X5348496Y-5871084D02*
X5310401Y-5871084D01*
X5310401Y-5871084D02*
X5291353Y-5861560D01*
X5472305Y-5852036D02*
X5481829Y-5861560D01*
X5481829Y-5861560D02*
X5472305Y-5871084D01*
X5472305Y-5871084D02*
X5462782Y-5861560D01*
X5462782Y-5861560D02*
X5472305Y-5852036D01*
X5472305Y-5852036D02*
X5472305Y-5871084D01*
X5472305Y-5747274D02*
X5481829Y-5756798D01*
X5481829Y-5756798D02*
X5472305Y-5766322D01*
X5472305Y-5766322D02*
X5462782Y-5756798D01*
X5462782Y-5756798D02*
X5472305Y-5747274D01*
X5472305Y-5747274D02*
X5472305Y-5766322D01*
M02*
