%TF.GenerationSoftware,KiCad,Pcbnew,7.0.5*%
%TF.CreationDate,2024-08-04T18:57:10+08:00*%
%TF.ProjectId,TPS,5450532e-6b69-4636-9164-5f7063625858,rev?*%
%TF.SameCoordinates,Original*%
%TF.FileFunction,Copper,L2,Bot*%
%TF.FilePolarity,Positive*%
%FSLAX46Y46*%
G04 Gerber Fmt 4.6, Leading zero omitted, Abs format (unit mm)*
G04 Created by KiCad (PCBNEW 7.0.5) date 2024-08-04 18:57:10*
%MOMM*%
%LPD*%
G01*
G04 APERTURE LIST*
G04 APERTURE END LIST*
%TA.AperFunction,NonConductor*%
G36*
X86707426Y-29000691D02*
G01*
X86710040Y-29000896D01*
X86762011Y-29004986D01*
X86902579Y-29017285D01*
X86920698Y-29020236D01*
X87000242Y-29039333D01*
X87001699Y-29039702D01*
X87088318Y-29062912D01*
X87111714Y-29069181D01*
X87119400Y-29071790D01*
X87168484Y-29092120D01*
X87204737Y-29107136D01*
X87207156Y-29108201D01*
X87304970Y-29153813D01*
X87311140Y-29157128D01*
X87353965Y-29183371D01*
X87391767Y-29206537D01*
X87394927Y-29208608D01*
X87481606Y-29269302D01*
X87486285Y-29272924D01*
X87558840Y-29334892D01*
X87562389Y-29338173D01*
X87636824Y-29412608D01*
X87640109Y-29416162D01*
X87702070Y-29488708D01*
X87705707Y-29493406D01*
X87766385Y-29580064D01*
X87768461Y-29583231D01*
X87817863Y-29663845D01*
X87821193Y-29670043D01*
X87866780Y-29767804D01*
X87867870Y-29770281D01*
X87903208Y-29855598D01*
X87905817Y-29863284D01*
X87935277Y-29973226D01*
X87935676Y-29974800D01*
X87954760Y-30054290D01*
X87957714Y-30072430D01*
X87970014Y-30213024D01*
X87974309Y-30267572D01*
X87974500Y-30272440D01*
X87974500Y-54263559D01*
X87974309Y-54268427D01*
X87970014Y-54322974D01*
X87957714Y-54463568D01*
X87954760Y-54481708D01*
X87935676Y-54561198D01*
X87935277Y-54562772D01*
X87905817Y-54672714D01*
X87903208Y-54680400D01*
X87867870Y-54765717D01*
X87866780Y-54768194D01*
X87821193Y-54865955D01*
X87817863Y-54872153D01*
X87768461Y-54952767D01*
X87766385Y-54955934D01*
X87705707Y-55042592D01*
X87702062Y-55047300D01*
X87640118Y-55119827D01*
X87636812Y-55123403D01*
X87562403Y-55197812D01*
X87558827Y-55201118D01*
X87486300Y-55263062D01*
X87481592Y-55266707D01*
X87394934Y-55327385D01*
X87391767Y-55329461D01*
X87311153Y-55378863D01*
X87304955Y-55382193D01*
X87207194Y-55427780D01*
X87204717Y-55428870D01*
X87119400Y-55464208D01*
X87111714Y-55466817D01*
X87001772Y-55496277D01*
X87000198Y-55496676D01*
X86920708Y-55515760D01*
X86902568Y-55518714D01*
X86761974Y-55531014D01*
X86707427Y-55535309D01*
X86702559Y-55535500D01*
X39733441Y-55535500D01*
X39728573Y-55535309D01*
X39674024Y-55531014D01*
X39533430Y-55518714D01*
X39515290Y-55515760D01*
X39435800Y-55496676D01*
X39434226Y-55496277D01*
X39324284Y-55466817D01*
X39316598Y-55464208D01*
X39231281Y-55428870D01*
X39228804Y-55427780D01*
X39131043Y-55382193D01*
X39124845Y-55378863D01*
X39044231Y-55329461D01*
X39041064Y-55327385D01*
X39008182Y-55304361D01*
X38954399Y-55266702D01*
X38949708Y-55263070D01*
X38877162Y-55201109D01*
X38873608Y-55197824D01*
X38799173Y-55123389D01*
X38795892Y-55119840D01*
X38733924Y-55047285D01*
X38730302Y-55042606D01*
X38669608Y-54955927D01*
X38667537Y-54952767D01*
X38650182Y-54924448D01*
X38618128Y-54872140D01*
X38614813Y-54865970D01*
X38569201Y-54768156D01*
X38568136Y-54765737D01*
X38553120Y-54729484D01*
X38532790Y-54680400D01*
X38530181Y-54672714D01*
X38523912Y-54649318D01*
X38500702Y-54562699D01*
X38500333Y-54561242D01*
X38481236Y-54481698D01*
X38478285Y-54463579D01*
X38465984Y-54322974D01*
X38461691Y-54268426D01*
X38461500Y-54263560D01*
X38461500Y-31200000D01*
X39305341Y-31200000D01*
X39325936Y-31435403D01*
X39325938Y-31435413D01*
X39387094Y-31663655D01*
X39387096Y-31663659D01*
X39387097Y-31663663D01*
X39437031Y-31770746D01*
X39486964Y-31877828D01*
X39486965Y-31877830D01*
X39622505Y-32071402D01*
X39789597Y-32238494D01*
X39983169Y-32374034D01*
X39983171Y-32374035D01*
X40197337Y-32473903D01*
X40425592Y-32535063D01*
X40602032Y-32550499D01*
X40602033Y-32550500D01*
X40602034Y-32550500D01*
X40719967Y-32550500D01*
X40719967Y-32550499D01*
X40896408Y-32535063D01*
X41124663Y-32473903D01*
X41338829Y-32374035D01*
X41532401Y-32238495D01*
X41699495Y-32071401D01*
X41835035Y-31877830D01*
X41934903Y-31663663D01*
X41996063Y-31435408D01*
X42016659Y-31200000D01*
X84419341Y-31200000D01*
X84439936Y-31435403D01*
X84439938Y-31435413D01*
X84501094Y-31663655D01*
X84501096Y-31663659D01*
X84501097Y-31663663D01*
X84551030Y-31770745D01*
X84600964Y-31877828D01*
X84600965Y-31877830D01*
X84736505Y-32071402D01*
X84903597Y-32238494D01*
X85097169Y-32374034D01*
X85097171Y-32374035D01*
X85311337Y-32473903D01*
X85539592Y-32535063D01*
X85716032Y-32550499D01*
X85716033Y-32550500D01*
X85716034Y-32550500D01*
X85833967Y-32550500D01*
X85833967Y-32550499D01*
X86010408Y-32535063D01*
X86238663Y-32473903D01*
X86452829Y-32374035D01*
X86646401Y-32238495D01*
X86813495Y-32071401D01*
X86949035Y-31877830D01*
X87048903Y-31663663D01*
X87110063Y-31435408D01*
X87130659Y-31200000D01*
X87110063Y-30964592D01*
X87048903Y-30736337D01*
X86949035Y-30522171D01*
X86949034Y-30522169D01*
X86813494Y-30328597D01*
X86646402Y-30161505D01*
X86452830Y-30025965D01*
X86452828Y-30025964D01*
X86338152Y-29972490D01*
X86238663Y-29926097D01*
X86238659Y-29926096D01*
X86238655Y-29926094D01*
X86010413Y-29864938D01*
X86010403Y-29864936D01*
X85833967Y-29849500D01*
X85833966Y-29849500D01*
X85716034Y-29849500D01*
X85716033Y-29849500D01*
X85539596Y-29864936D01*
X85539586Y-29864938D01*
X85311344Y-29926094D01*
X85311335Y-29926098D01*
X85097171Y-30025964D01*
X85097169Y-30025965D01*
X84903597Y-30161505D01*
X84736506Y-30328597D01*
X84736501Y-30328604D01*
X84600967Y-30522165D01*
X84600965Y-30522169D01*
X84501098Y-30736335D01*
X84501094Y-30736344D01*
X84439938Y-30964586D01*
X84439936Y-30964596D01*
X84419341Y-31199999D01*
X84419341Y-31200000D01*
X42016659Y-31200000D01*
X41996063Y-30964592D01*
X41934903Y-30736337D01*
X41835035Y-30522171D01*
X41835034Y-30522169D01*
X41699494Y-30328597D01*
X41532402Y-30161505D01*
X41338830Y-30025965D01*
X41338828Y-30025964D01*
X41224152Y-29972490D01*
X41124663Y-29926097D01*
X41124659Y-29926096D01*
X41124655Y-29926094D01*
X40896413Y-29864938D01*
X40896403Y-29864936D01*
X40719967Y-29849500D01*
X40719966Y-29849500D01*
X40602034Y-29849500D01*
X40602033Y-29849500D01*
X40425596Y-29864936D01*
X40425586Y-29864938D01*
X40197344Y-29926094D01*
X40197335Y-29926098D01*
X39983171Y-30025964D01*
X39983169Y-30025965D01*
X39789597Y-30161505D01*
X39622506Y-30328597D01*
X39622501Y-30328604D01*
X39486967Y-30522165D01*
X39486965Y-30522169D01*
X39387098Y-30736335D01*
X39387094Y-30736344D01*
X39325938Y-30964586D01*
X39325936Y-30964596D01*
X39305341Y-31199999D01*
X39305341Y-31200000D01*
X38461500Y-31200000D01*
X38461500Y-30272436D01*
X38461691Y-30267571D01*
X38465979Y-30213080D01*
X38478286Y-30072416D01*
X38481235Y-30054305D01*
X38500342Y-29974719D01*
X38500693Y-29973335D01*
X38530182Y-29863280D01*
X38532790Y-29855598D01*
X38535316Y-29849500D01*
X38568151Y-29770228D01*
X38569185Y-29767877D01*
X38614820Y-29670014D01*
X38618119Y-29663873D01*
X38667548Y-29583213D01*
X38669587Y-29580102D01*
X38730316Y-29493372D01*
X38733908Y-29488733D01*
X38795914Y-29416133D01*
X38799149Y-29412634D01*
X38873634Y-29338149D01*
X38877133Y-29334914D01*
X38949733Y-29272908D01*
X38954372Y-29269316D01*
X39041102Y-29208587D01*
X39044213Y-29206548D01*
X39124873Y-29157119D01*
X39131014Y-29153820D01*
X39228877Y-29108185D01*
X39231228Y-29107151D01*
X39316599Y-29071789D01*
X39324280Y-29069182D01*
X39434335Y-29039693D01*
X39435719Y-29039342D01*
X39515305Y-29020235D01*
X39533416Y-29017286D01*
X39674043Y-29004982D01*
X39721497Y-29001247D01*
X39728575Y-29000691D01*
X39733440Y-29000500D01*
X86702560Y-29000500D01*
X86707426Y-29000691D01*
G37*
%TD.AperFunction*%
M02*
