%TF.GenerationSoftware,KiCad,Pcbnew,9.0.5-9.0.5~ubuntu24.04.1*%
%TF.CreationDate,2025-10-31T14:23:01+08:00*%
%TF.ProjectId,TPS,5450532e-6b69-4636-9164-5f7063625858,rev?*%
%TF.SameCoordinates,Original*%
%TF.FileFunction,Copper,L2,Bot*%
%TF.FilePolarity,Positive*%
%FSLAX46Y46*%
G04 Gerber Fmt 4.6, Leading zero omitted, Abs format (unit mm)*
G04 Created by KiCad (PCBNEW 9.0.5-9.0.5~ubuntu24.04.1) date 2025-10-31 14:23:01*
%MOMM*%
%LPD*%
G01*
G04 APERTURE LIST*
G04 APERTURE END LIST*
%TA.AperFunction,NonConductor*%
G36*
X85778736Y-29000726D02*
G01*
X86011068Y-29014779D01*
X86019729Y-29015611D01*
X86071126Y-29022377D01*
X86077239Y-29023339D01*
X86279220Y-29060353D01*
X86288960Y-29062547D01*
X86332404Y-29074187D01*
X86337176Y-29075569D01*
X86540605Y-29138961D01*
X86551158Y-29142782D01*
X86578927Y-29154284D01*
X86582340Y-29155757D01*
X86790319Y-29249360D01*
X86803575Y-29256318D01*
X86889020Y-29307971D01*
X87018045Y-29385970D01*
X87030356Y-29394468D01*
X87227636Y-29549027D01*
X87238844Y-29558957D01*
X87416042Y-29736155D01*
X87425972Y-29747363D01*
X87532044Y-29882754D01*
X87580527Y-29944637D01*
X87589033Y-29956960D01*
X87718680Y-30171422D01*
X87725639Y-30184681D01*
X87819229Y-30392632D01*
X87820714Y-30396071D01*
X87832216Y-30423840D01*
X87836040Y-30434401D01*
X87899421Y-30637795D01*
X87900811Y-30642594D01*
X87912451Y-30686038D01*
X87914645Y-30695778D01*
X87951655Y-30897735D01*
X87952625Y-30903902D01*
X87959385Y-30955249D01*
X87960220Y-30963946D01*
X87974274Y-31196263D01*
X87974500Y-31203751D01*
X87974500Y-53332248D01*
X87974274Y-53339736D01*
X87960220Y-53572052D01*
X87959385Y-53580749D01*
X87952625Y-53632096D01*
X87951655Y-53638263D01*
X87914645Y-53840220D01*
X87912451Y-53849960D01*
X87900811Y-53893404D01*
X87899421Y-53898203D01*
X87836040Y-54101597D01*
X87832216Y-54112158D01*
X87820714Y-54139927D01*
X87819229Y-54143366D01*
X87725639Y-54351317D01*
X87718680Y-54364576D01*
X87589033Y-54579039D01*
X87580527Y-54591362D01*
X87425972Y-54788636D01*
X87416042Y-54799844D01*
X87238844Y-54977042D01*
X87227636Y-54986972D01*
X87030362Y-55141527D01*
X87018039Y-55150033D01*
X86803576Y-55279680D01*
X86790317Y-55286639D01*
X86582366Y-55380229D01*
X86578927Y-55381714D01*
X86551158Y-55393216D01*
X86540597Y-55397040D01*
X86337203Y-55460421D01*
X86332404Y-55461811D01*
X86288960Y-55473451D01*
X86279220Y-55475645D01*
X86077263Y-55512655D01*
X86071096Y-55513625D01*
X86019749Y-55520385D01*
X86011052Y-55521220D01*
X85787202Y-55534761D01*
X85778735Y-55535274D01*
X85771249Y-55535500D01*
X40664751Y-55535500D01*
X40657264Y-55535274D01*
X40647971Y-55534711D01*
X40424946Y-55521220D01*
X40416249Y-55520385D01*
X40364902Y-55513625D01*
X40358735Y-55512655D01*
X40156778Y-55475645D01*
X40147038Y-55473451D01*
X40103594Y-55461811D01*
X40098795Y-55460421D01*
X39895401Y-55397040D01*
X39884840Y-55393216D01*
X39857071Y-55381714D01*
X39853632Y-55380229D01*
X39645681Y-55286639D01*
X39632422Y-55279680D01*
X39417960Y-55150033D01*
X39405637Y-55141527D01*
X39208363Y-54986972D01*
X39197155Y-54977042D01*
X39019957Y-54799844D01*
X39010027Y-54788636D01*
X38855472Y-54591362D01*
X38846970Y-54579045D01*
X38768971Y-54450020D01*
X38717318Y-54364575D01*
X38710359Y-54351316D01*
X38616769Y-54143366D01*
X38615284Y-54139927D01*
X38603782Y-54112158D01*
X38599958Y-54101597D01*
X38565760Y-53991852D01*
X38536569Y-53898176D01*
X38535187Y-53893404D01*
X38523547Y-53849960D01*
X38521353Y-53840220D01*
X38501773Y-53733376D01*
X38484339Y-53638239D01*
X38483377Y-53632126D01*
X38476611Y-53580729D01*
X38475779Y-53572068D01*
X38461726Y-53339736D01*
X38461500Y-53332249D01*
X38461500Y-31203750D01*
X38461726Y-31196264D01*
X38467929Y-31093713D01*
X39310500Y-31093713D01*
X39310500Y-31306286D01*
X39343753Y-31516239D01*
X39409444Y-31718414D01*
X39505951Y-31907820D01*
X39630890Y-32079786D01*
X39781213Y-32230109D01*
X39953179Y-32355048D01*
X39953181Y-32355049D01*
X39953184Y-32355051D01*
X40142588Y-32451557D01*
X40344757Y-32517246D01*
X40554713Y-32550500D01*
X40554714Y-32550500D01*
X40767286Y-32550500D01*
X40767287Y-32550500D01*
X40977243Y-32517246D01*
X41179412Y-32451557D01*
X41368816Y-32355051D01*
X41390789Y-32339086D01*
X41540786Y-32230109D01*
X41540788Y-32230106D01*
X41540792Y-32230104D01*
X41691104Y-32079792D01*
X41691106Y-32079788D01*
X41691109Y-32079786D01*
X41816048Y-31907820D01*
X41816047Y-31907820D01*
X41816051Y-31907816D01*
X41912557Y-31718412D01*
X41978246Y-31516243D01*
X42011500Y-31306287D01*
X42011500Y-31093713D01*
X84424500Y-31093713D01*
X84424500Y-31306286D01*
X84457753Y-31516239D01*
X84523444Y-31718414D01*
X84619951Y-31907820D01*
X84744890Y-32079786D01*
X84895213Y-32230109D01*
X85067179Y-32355048D01*
X85067181Y-32355049D01*
X85067184Y-32355051D01*
X85256588Y-32451557D01*
X85458757Y-32517246D01*
X85668713Y-32550500D01*
X85668714Y-32550500D01*
X85881286Y-32550500D01*
X85881287Y-32550500D01*
X86091243Y-32517246D01*
X86293412Y-32451557D01*
X86482816Y-32355051D01*
X86504789Y-32339086D01*
X86654786Y-32230109D01*
X86654788Y-32230106D01*
X86654792Y-32230104D01*
X86805104Y-32079792D01*
X86805106Y-32079788D01*
X86805109Y-32079786D01*
X86930048Y-31907820D01*
X86930047Y-31907820D01*
X86930051Y-31907816D01*
X87026557Y-31718412D01*
X87092246Y-31516243D01*
X87125500Y-31306287D01*
X87125500Y-31093713D01*
X87092246Y-30883757D01*
X87026557Y-30681588D01*
X86930051Y-30492184D01*
X86930049Y-30492181D01*
X86930048Y-30492179D01*
X86805109Y-30320213D01*
X86654786Y-30169890D01*
X86482820Y-30044951D01*
X86293414Y-29948444D01*
X86293413Y-29948443D01*
X86293412Y-29948443D01*
X86091243Y-29882754D01*
X86091241Y-29882753D01*
X86091240Y-29882753D01*
X85929957Y-29857208D01*
X85881287Y-29849500D01*
X85668713Y-29849500D01*
X85620042Y-29857208D01*
X85458760Y-29882753D01*
X85256585Y-29948444D01*
X85067179Y-30044951D01*
X84895213Y-30169890D01*
X84744890Y-30320213D01*
X84619951Y-30492179D01*
X84523444Y-30681585D01*
X84457753Y-30883760D01*
X84424500Y-31093713D01*
X42011500Y-31093713D01*
X41978246Y-30883757D01*
X41912557Y-30681588D01*
X41816051Y-30492184D01*
X41816049Y-30492181D01*
X41816048Y-30492179D01*
X41691109Y-30320213D01*
X41540786Y-30169890D01*
X41368820Y-30044951D01*
X41179414Y-29948444D01*
X41179413Y-29948443D01*
X41179412Y-29948443D01*
X40977243Y-29882754D01*
X40977241Y-29882753D01*
X40977240Y-29882753D01*
X40815957Y-29857208D01*
X40767287Y-29849500D01*
X40554713Y-29849500D01*
X40506042Y-29857208D01*
X40344760Y-29882753D01*
X40142585Y-29948444D01*
X39953179Y-30044951D01*
X39781213Y-30169890D01*
X39630890Y-30320213D01*
X39505951Y-30492179D01*
X39409444Y-30681585D01*
X39343753Y-30883760D01*
X39310500Y-31093713D01*
X38467929Y-31093713D01*
X38475780Y-30963925D01*
X38476610Y-30955275D01*
X38483379Y-30903861D01*
X38484337Y-30897772D01*
X38521355Y-30695769D01*
X38523547Y-30686038D01*
X38525453Y-30678923D01*
X38535195Y-30642564D01*
X38536560Y-30637850D01*
X38599965Y-30434379D01*
X38603777Y-30423853D01*
X38615307Y-30396017D01*
X38616736Y-30392707D01*
X38710367Y-30184666D01*
X38717312Y-30171433D01*
X38846975Y-29956946D01*
X38855462Y-29944650D01*
X39010034Y-29747354D01*
X39019949Y-29736163D01*
X39197163Y-29558949D01*
X39208354Y-29549034D01*
X39405650Y-29394462D01*
X39417946Y-29385975D01*
X39632433Y-29256312D01*
X39645666Y-29249367D01*
X39853707Y-29155736D01*
X39857017Y-29154307D01*
X39884853Y-29142777D01*
X39895379Y-29138965D01*
X40098850Y-29075560D01*
X40103564Y-29074195D01*
X40147038Y-29062547D01*
X40156769Y-29060355D01*
X40358772Y-29023337D01*
X40364861Y-29022379D01*
X40416275Y-29015610D01*
X40424925Y-29014780D01*
X40657264Y-29000726D01*
X40664751Y-29000500D01*
X85771249Y-29000500D01*
X85778736Y-29000726D01*
G37*
%TD.AperFunction*%
M02*
