%TF.GenerationSoftware,KiCad,Pcbnew,7.0.5*%
%TF.CreationDate,2025-01-15T14:24:04+08:00*%
%TF.ProjectId,TPS,5450532e-6b69-4636-9164-5f7063625858,rev?*%
%TF.SameCoordinates,Original*%
%TF.FileFunction,Soldermask,Top*%
%TF.FilePolarity,Negative*%
%FSLAX46Y46*%
G04 Gerber Fmt 4.6, Leading zero omitted, Abs format (unit mm)*
G04 Created by KiCad (PCBNEW 7.0.5) date 2025-01-15 14:24:04*
%MOMM*%
%LPD*%
G01*
G04 APERTURE LIST*
G04 Aperture macros list*
%AMRoundRect*
0 Rectangle with rounded corners*
0 $1 Rounding radius*
0 $2 $3 $4 $5 $6 $7 $8 $9 X,Y pos of 4 corners*
0 Add a 4 corners polygon primitive as box body*
4,1,4,$2,$3,$4,$5,$6,$7,$8,$9,$2,$3,0*
0 Add four circle primitives for the rounded corners*
1,1,$1+$1,$2,$3*
1,1,$1+$1,$4,$5*
1,1,$1+$1,$6,$7*
1,1,$1+$1,$8,$9*
0 Add four rect primitives between the rounded corners*
20,1,$1+$1,$2,$3,$4,$5,0*
20,1,$1+$1,$4,$5,$6,$7,0*
20,1,$1+$1,$6,$7,$8,$9,0*
20,1,$1+$1,$8,$9,$2,$3,0*%
%AMHorizOval*
0 Thick line with rounded ends*
0 $1 width*
0 $2 $3 position (X,Y) of the first rounded end (center of the circle)*
0 $4 $5 position (X,Y) of the second rounded end (center of the circle)*
0 Add line between two ends*
20,1,$1,$2,$3,$4,$5,0*
0 Add two circle primitives to create the rounded ends*
1,1,$1,$2,$3*
1,1,$1,$4,$5*%
%AMOutline4P*
0 Free polygon, 4 corners , with rotation*
0 The origin of the aperture is its center*
0 number of corners: always 4*
0 $1 to $8 corner X, Y*
0 $9 Rotation angle, in degrees counterclockwise*
0 create outline with 4 corners*
4,1,4,$1,$2,$3,$4,$5,$6,$7,$8,$1,$2,$9*%
%AMFreePoly0*
4,1,19,0.500000,-0.750000,0.000000,-0.750000,0.000000,-0.744911,-0.071157,-0.744911,-0.207708,-0.704816,-0.327430,-0.627875,-0.420627,-0.520320,-0.479746,-0.390866,-0.500000,-0.250000,-0.500000,0.250000,-0.479746,0.390866,-0.420627,0.520320,-0.327430,0.627875,-0.207708,0.704816,-0.071157,0.744911,0.000000,0.744911,0.000000,0.750000,0.500000,0.750000,0.500000,-0.750000,0.500000,-0.750000,
$1*%
%AMFreePoly1*
4,1,19,0.000000,0.744911,0.071157,0.744911,0.207708,0.704816,0.327430,0.627875,0.420627,0.520320,0.479746,0.390866,0.500000,0.250000,0.500000,-0.250000,0.479746,-0.390866,0.420627,-0.520320,0.327430,-0.627875,0.207708,-0.704816,0.071157,-0.744911,0.000000,-0.744911,0.000000,-0.750000,-0.500000,-0.750000,-0.500000,0.750000,0.000000,0.750000,0.000000,0.744911,0.000000,0.744911,
$1*%
G04 Aperture macros list end*
%ADD10C,3.500000*%
%ADD11RoundRect,0.225000X-0.225000X-0.375000X0.225000X-0.375000X0.225000X0.375000X-0.225000X0.375000X0*%
%ADD12HorizOval,2.200000X0.989949X0.989949X-0.989949X-0.989949X0*%
%ADD13C,1.400000*%
%ADD14O,1.400000X1.400000*%
%ADD15C,1.900000*%
%ADD16C,1.000000*%
%ADD17C,3.050000*%
%ADD18C,5.050000*%
%ADD19RoundRect,0.250000X1.000000X1.000000X-1.000000X1.000000X-1.000000X-1.000000X1.000000X-1.000000X0*%
%ADD20C,3.600000*%
%ADD21C,2.200000*%
%ADD22C,0.800000*%
%ADD23O,1.500000X1.900000*%
%ADD24O,1.500000X1.800000*%
%ADD25FreePoly0,90.000000*%
%ADD26FreePoly1,90.000000*%
%ADD27O,3.200000X2.000000*%
%ADD28C,2.000000*%
%ADD29HorizOval,2.200000X-0.989949X-0.989949X0.989949X0.989949X0*%
%ADD30R,1.500000X1.000000*%
%ADD31HorizOval,2.200000X-0.989949X0.989949X0.989949X-0.989949X0*%
%ADD32C,1.700000*%
%ADD33O,1.700000X1.700000*%
%ADD34R,1.800000X2.200000*%
%ADD35R,0.300000X1.300000*%
%ADD36R,1.800000X0.820000*%
%ADD37C,1.752600*%
%ADD38RoundRect,0.438150X0.438150X0.438150X-0.438150X0.438150X-0.438150X-0.438150X0.438150X-0.438150X0*%
%ADD39Outline4P,-0.876300X-0.876300X0.876300X-0.876300X0.876300X0.876300X-0.876300X0.876300X180.000000*%
G04 APERTURE END LIST*
D10*
%TO.C,H4*%
X183375000Y-86150000D03*
%TD*%
D11*
%TO.C,D13*%
X158200167Y-47050499D03*
X161500167Y-47050499D03*
%TD*%
D12*
%TO.C,H10*%
X84775000Y-58886000D03*
%TD*%
D11*
%TO.C,D20*%
X177250000Y-104200000D03*
X180550000Y-104200000D03*
%TD*%
D13*
%TO.C,R3*%
X79085000Y-61753000D03*
D14*
X71465000Y-61753000D03*
%TD*%
D15*
%TO.C,SW16*%
X160300167Y-95675499D03*
D16*
X159800167Y-90525499D03*
D17*
X154800167Y-101575499D03*
D18*
X154800167Y-95675499D03*
D16*
X149800167Y-90525499D03*
D15*
X149300167Y-95675499D03*
D19*
X151500167Y-101675499D03*
D20*
X149800167Y-99475499D03*
D19*
X162900167Y-99475499D03*
D20*
X159800167Y-99475499D03*
%TD*%
D21*
%TO.C,H7*%
X85775000Y-31200000D03*
%TD*%
D11*
%TO.C,D1*%
X101050167Y-47050499D03*
X104350167Y-47050499D03*
%TD*%
D10*
%TO.C,H1*%
X107175000Y-48050000D03*
%TD*%
D11*
%TO.C,D18*%
X177250167Y-66100499D03*
X180550167Y-66100499D03*
%TD*%
D15*
%TO.C,SW3*%
X103150167Y-76625499D03*
D16*
X102650167Y-71475499D03*
D17*
X97650167Y-82525499D03*
D18*
X97650167Y-76625499D03*
D16*
X92650167Y-71475499D03*
D15*
X92150167Y-76625499D03*
D19*
X94350167Y-82625499D03*
D20*
X92650167Y-80425499D03*
D19*
X105750167Y-80425499D03*
D20*
X102650167Y-80425499D03*
%TD*%
D15*
%TO.C,SW4*%
X103150167Y-95675499D03*
D16*
X102650167Y-90525499D03*
D17*
X97650167Y-101575499D03*
D18*
X97650167Y-95675499D03*
D16*
X92650167Y-90525499D03*
D15*
X92150167Y-95675499D03*
D19*
X94350167Y-101675499D03*
D20*
X92650167Y-99475499D03*
D19*
X105750167Y-99475499D03*
D20*
X102650167Y-99475499D03*
%TD*%
D11*
%TO.C,D22*%
X196300167Y-66100499D03*
X199600167Y-66100499D03*
%TD*%
D15*
%TO.C,SW1*%
X103150167Y-38525499D03*
D16*
X102650167Y-33375499D03*
D17*
X97650167Y-44425499D03*
D18*
X97650167Y-38525499D03*
D16*
X92650167Y-33375499D03*
D15*
X92150167Y-38525499D03*
D19*
X94350167Y-44525499D03*
D20*
X92650167Y-42325499D03*
D19*
X105750167Y-42325499D03*
D20*
X102650167Y-42325499D03*
%TD*%
D11*
%TO.C,D6*%
X120100167Y-66100499D03*
X123400167Y-66100499D03*
%TD*%
D15*
%TO.C,SW7*%
X122200168Y-76625498D03*
D16*
X121700168Y-71475498D03*
D17*
X116700168Y-82525498D03*
D18*
X116700168Y-76625498D03*
D16*
X111700168Y-71475498D03*
D15*
X111200168Y-76625498D03*
D19*
X113400168Y-82625498D03*
D20*
X111700168Y-80425498D03*
D19*
X124800168Y-80425498D03*
D20*
X121700168Y-80425498D03*
%TD*%
D22*
%TO.C,T1*%
X77214000Y-30750000D03*
X77214000Y-37750000D03*
X79214000Y-30750000D03*
X79214000Y-37750000D03*
D23*
X74914000Y-39350000D03*
D24*
X74914000Y-32302000D03*
D23*
X74914000Y-35350000D03*
X79514000Y-40450000D03*
%TD*%
D10*
%TO.C,H2*%
X107175000Y-86150000D03*
%TD*%
D15*
%TO.C,SW9*%
X141250167Y-38525499D03*
D16*
X140750167Y-33375499D03*
D17*
X135750167Y-44425499D03*
D18*
X135750167Y-38525499D03*
D16*
X130750167Y-33375499D03*
D15*
X130250167Y-38525499D03*
D19*
X132450167Y-44525499D03*
D20*
X130750167Y-42325499D03*
D19*
X143850167Y-42325499D03*
D20*
X140750167Y-42325499D03*
%TD*%
D11*
%TO.C,D2*%
X101050167Y-66100499D03*
X104350167Y-66100499D03*
%TD*%
%TO.C,D7*%
X120100168Y-85150498D03*
X123400168Y-85150498D03*
%TD*%
D15*
%TO.C,SW17*%
X179350167Y-38525499D03*
D16*
X178850167Y-33375499D03*
D17*
X173850167Y-44425499D03*
D18*
X173850167Y-38525499D03*
D16*
X168850167Y-33375499D03*
D15*
X168350167Y-38525499D03*
D19*
X170550167Y-44525499D03*
D20*
X168850167Y-42325499D03*
D19*
X181950167Y-42325499D03*
D20*
X178850167Y-42325499D03*
%TD*%
D15*
%TO.C,SW22*%
X198400167Y-57575499D03*
D16*
X197900167Y-52425499D03*
D17*
X192900167Y-63475499D03*
D18*
X192900167Y-57575499D03*
D16*
X187900167Y-52425499D03*
D15*
X187400167Y-57575499D03*
D19*
X189600167Y-63575499D03*
D20*
X187900167Y-61375499D03*
D19*
X201000167Y-61375499D03*
D20*
X197900167Y-61375499D03*
%TD*%
D21*
%TO.C,H6*%
X40661000Y-31200000D03*
%TD*%
D15*
%TO.C,SW21*%
X198400167Y-38525499D03*
D16*
X197900167Y-33375499D03*
D17*
X192900167Y-44425499D03*
D18*
X192900167Y-38525499D03*
D16*
X187900167Y-33375499D03*
D15*
X187400167Y-38525499D03*
D19*
X189600167Y-44525499D03*
D20*
X187900167Y-42325499D03*
D19*
X201000167Y-42325499D03*
D20*
X197900167Y-42325499D03*
%TD*%
D11*
%TO.C,D19*%
X177250167Y-85150499D03*
X180550167Y-85150499D03*
%TD*%
D10*
%TO.C,H3*%
X183375000Y-48050000D03*
%TD*%
D25*
%TO.C,JP5*%
X67027500Y-67643000D03*
D26*
X67027500Y-66343000D03*
%TD*%
D15*
%TO.C,SW23*%
X198400167Y-76625499D03*
D16*
X197900167Y-71475499D03*
D17*
X192900167Y-82525499D03*
D18*
X192900167Y-76625499D03*
D16*
X187900167Y-71475499D03*
D15*
X187400167Y-76625499D03*
D19*
X189600167Y-82625499D03*
D20*
X187900167Y-80425499D03*
D19*
X201000167Y-80425499D03*
D20*
X197900167Y-80425499D03*
%TD*%
D11*
%TO.C,D12*%
X139150167Y-104200499D03*
X142450167Y-104200499D03*
%TD*%
%TO.C,D25*%
X71271000Y-89075000D03*
X74571000Y-89075000D03*
%TD*%
D15*
%TO.C,SW18*%
X179350167Y-57575499D03*
D16*
X178850167Y-52425499D03*
D17*
X173850167Y-63475499D03*
D18*
X173850167Y-57575499D03*
D16*
X168850167Y-52425499D03*
D15*
X168350167Y-57575499D03*
D19*
X170550167Y-63575499D03*
D20*
X168850167Y-61375499D03*
D19*
X181950167Y-61375499D03*
D20*
X178850167Y-61375499D03*
%TD*%
D11*
%TO.C,D4*%
X101050167Y-104200499D03*
X104350167Y-104200499D03*
%TD*%
%TO.C,D14*%
X158200167Y-66100499D03*
X161500167Y-66100499D03*
%TD*%
%TO.C,D11*%
X139150167Y-85150499D03*
X142450167Y-85150499D03*
%TD*%
%TO.C,D10*%
X139150167Y-66100499D03*
X142450167Y-66100499D03*
%TD*%
D27*
%TO.C,SW25*%
X63218000Y-74843000D03*
X63218000Y-86043000D03*
D28*
X55718000Y-77943000D03*
X55718000Y-82943000D03*
X55718000Y-80443000D03*
X70218000Y-77943000D03*
X70218000Y-82943000D03*
%TD*%
D15*
%TO.C,SW13*%
X160300167Y-38525499D03*
D16*
X159800167Y-33375499D03*
D17*
X154800167Y-44425499D03*
D18*
X154800167Y-38525499D03*
D16*
X149800167Y-33375499D03*
D15*
X149300167Y-38525499D03*
D19*
X151500167Y-44525499D03*
D20*
X149800167Y-42325499D03*
D19*
X162900167Y-42325499D03*
D20*
X159800167Y-42325499D03*
%TD*%
D13*
%TO.C,R1*%
X47351000Y-64293000D03*
D14*
X54971000Y-64293000D03*
%TD*%
D29*
%TO.C,H9*%
X41661000Y-102000000D03*
%TD*%
D15*
%TO.C,SW12*%
X141250167Y-95675499D03*
D16*
X140750167Y-90525499D03*
D17*
X135750167Y-101575499D03*
D18*
X135750167Y-95675499D03*
D16*
X130750167Y-90525499D03*
D15*
X130250167Y-95675499D03*
D19*
X132450167Y-101675499D03*
D20*
X130750167Y-99475499D03*
D19*
X143850167Y-99475499D03*
D20*
X140750167Y-99475499D03*
%TD*%
D11*
%TO.C,D16*%
X158200167Y-104200499D03*
X161500167Y-104200499D03*
%TD*%
%TO.C,D17*%
X177250167Y-47050499D03*
X180550167Y-47050499D03*
%TD*%
D25*
%TO.C,JP7*%
X61947500Y-67643000D03*
D26*
X61947500Y-66343000D03*
%TD*%
D30*
%TO.C,JP1*%
X76944000Y-45500000D03*
X76944000Y-44200000D03*
%TD*%
%TO.C,JP2*%
X79484000Y-45500000D03*
X79484000Y-44200000D03*
%TD*%
D15*
%TO.C,RST1*%
X53851000Y-30823000D03*
X47351000Y-30823000D03*
%TD*%
%TO.C,SW14*%
X160300167Y-57575499D03*
D16*
X159800167Y-52425499D03*
D17*
X154800167Y-63475499D03*
D18*
X154800167Y-57575499D03*
D16*
X149800167Y-52425499D03*
D15*
X149300167Y-57575499D03*
D19*
X151500167Y-63575499D03*
D20*
X149800167Y-61375499D03*
D19*
X162900167Y-61375499D03*
D20*
X159800167Y-61375499D03*
%TD*%
D11*
%TO.C,D3*%
X101050167Y-85150499D03*
X104350167Y-85150499D03*
%TD*%
D15*
%TO.C,SW5*%
X122200167Y-38525499D03*
D16*
X121700167Y-33375499D03*
D17*
X116700167Y-44425499D03*
D18*
X116700167Y-38525499D03*
D16*
X111700167Y-33375499D03*
D15*
X111200167Y-38525499D03*
D19*
X113400167Y-44525499D03*
D20*
X111700167Y-42325499D03*
D19*
X124800167Y-42325499D03*
D20*
X121700167Y-42325499D03*
%TD*%
D15*
%TO.C,SW11*%
X141250167Y-76625499D03*
D16*
X140750167Y-71475499D03*
D17*
X135750167Y-82525499D03*
D18*
X135750167Y-76625499D03*
D16*
X130750167Y-71475499D03*
D15*
X130250167Y-76625499D03*
D19*
X132450167Y-82625499D03*
D20*
X130750167Y-80425499D03*
D19*
X143850167Y-80425499D03*
D20*
X140750167Y-80425499D03*
%TD*%
D11*
%TO.C,D15*%
X158200167Y-85150499D03*
X161500167Y-85150499D03*
%TD*%
D13*
%TO.C,R4*%
X79085000Y-64293000D03*
D14*
X71465000Y-64293000D03*
%TD*%
D15*
%TO.C,SW20*%
X179350167Y-95675499D03*
D16*
X178850167Y-90525499D03*
D17*
X173850167Y-101575499D03*
D18*
X173850167Y-95675499D03*
D16*
X168850167Y-90525499D03*
D15*
X168350167Y-95675499D03*
D19*
X170550167Y-101675499D03*
D20*
X168850167Y-99475499D03*
D19*
X181950167Y-99475499D03*
D20*
X178850167Y-99475499D03*
%TD*%
D15*
%TO.C,SW15*%
X160300167Y-76625499D03*
D16*
X159800167Y-71475499D03*
D17*
X154800167Y-82525499D03*
D18*
X154800167Y-76625499D03*
D16*
X149800167Y-71475499D03*
D15*
X149300167Y-76625499D03*
D19*
X151500167Y-82625499D03*
D20*
X149800167Y-80425499D03*
D19*
X162900167Y-80425499D03*
D20*
X159800167Y-80425499D03*
%TD*%
D31*
%TO.C,H8*%
X41661000Y-58886000D03*
%TD*%
D11*
%TO.C,D8*%
X120100167Y-104200499D03*
X123400167Y-104200499D03*
%TD*%
D15*
%TO.C,SW10*%
X141250167Y-57575499D03*
D16*
X140750167Y-52425499D03*
D17*
X135750167Y-63475499D03*
D18*
X135750167Y-57575499D03*
D16*
X130750167Y-52425499D03*
D15*
X130250167Y-57575499D03*
D19*
X132450167Y-63575499D03*
D20*
X130750167Y-61375499D03*
D19*
X143850167Y-61375499D03*
D20*
X140750167Y-61375499D03*
%TD*%
D11*
%TO.C,D9*%
X139150167Y-47050499D03*
X142450167Y-47050499D03*
%TD*%
%TO.C,D24*%
X196300168Y-104200498D03*
X199600168Y-104200498D03*
%TD*%
D32*
%TO.C,J1*%
X67027500Y-72073000D03*
D33*
X64487500Y-72073000D03*
X61947500Y-72073000D03*
X59407500Y-72073000D03*
%TD*%
D15*
%TO.C,SW6*%
X122200167Y-57575499D03*
D16*
X121700167Y-52425499D03*
D17*
X116700167Y-63475499D03*
D18*
X116700167Y-57575499D03*
D16*
X111700167Y-52425499D03*
D15*
X111200167Y-57575499D03*
D19*
X113400167Y-63575499D03*
D20*
X111700167Y-61375499D03*
D19*
X124800167Y-61375499D03*
D20*
X121700167Y-61375499D03*
%TD*%
D34*
%TO.C,J2*%
X58571000Y-92443000D03*
X67871000Y-92443000D03*
D35*
X60471000Y-89193000D03*
X60971000Y-89193000D03*
X61471000Y-89193000D03*
X61971000Y-89193000D03*
X62471000Y-89193000D03*
X62971000Y-89193000D03*
X63471000Y-89193000D03*
X63971000Y-89193000D03*
X64471000Y-89193000D03*
X64971000Y-89193000D03*
X65471000Y-89193000D03*
X65971000Y-89193000D03*
%TD*%
D31*
%TO.C,H11*%
X84775000Y-102000000D03*
%TD*%
D13*
%TO.C,R2*%
X47351000Y-61753000D03*
D14*
X54971000Y-61753000D03*
%TD*%
D11*
%TO.C,D21*%
X196300167Y-47050499D03*
X199600167Y-47050499D03*
%TD*%
%TO.C,D5*%
X120100167Y-47050499D03*
X123400167Y-47050499D03*
%TD*%
D15*
%TO.C,SW2*%
X103150167Y-57575499D03*
D16*
X102650167Y-52425499D03*
D17*
X97650167Y-63475499D03*
D18*
X97650167Y-57575499D03*
D16*
X92650167Y-52425499D03*
D15*
X92150167Y-57575499D03*
D19*
X94350167Y-63575499D03*
D20*
X92650167Y-61375499D03*
D19*
X105750167Y-61375499D03*
D20*
X102650167Y-61375499D03*
%TD*%
D11*
%TO.C,D23*%
X196300167Y-85150499D03*
X199600167Y-85150499D03*
%TD*%
D15*
%TO.C,SW24*%
X198400168Y-95675498D03*
D16*
X197900168Y-90525498D03*
D17*
X192900168Y-101575498D03*
D18*
X192900168Y-95675498D03*
D16*
X187900168Y-90525498D03*
D15*
X187400168Y-95675498D03*
D19*
X189600168Y-101675498D03*
D20*
X187900168Y-99475498D03*
D19*
X201000168Y-99475498D03*
D20*
X197900168Y-99475498D03*
%TD*%
D15*
%TO.C,SW8*%
X122200167Y-95675499D03*
D16*
X121700167Y-90525499D03*
D17*
X116700167Y-101575499D03*
D18*
X116700167Y-95675499D03*
D16*
X111700167Y-90525499D03*
D15*
X111200167Y-95675499D03*
D19*
X113400167Y-101675499D03*
D20*
X111700167Y-99475499D03*
D19*
X124800167Y-99475499D03*
D20*
X121700167Y-99475499D03*
%TD*%
D25*
%TO.C,JP6*%
X64487500Y-67643000D03*
D26*
X64487500Y-66343000D03*
%TD*%
D25*
%TO.C,JP8*%
X59407500Y-67643000D03*
D26*
X59407500Y-66343000D03*
%TD*%
D15*
%TO.C,SW19*%
X179350167Y-76625499D03*
D16*
X178850167Y-71475499D03*
D17*
X173850167Y-82525499D03*
D18*
X173850167Y-76625499D03*
D16*
X168850167Y-71475499D03*
D15*
X168350167Y-76625499D03*
D19*
X170550167Y-82625499D03*
D20*
X168850167Y-80425499D03*
D19*
X181950167Y-80425499D03*
D20*
X178850167Y-80425499D03*
%TD*%
D36*
%TO.C,L5*%
X119350167Y-32875499D03*
X119350167Y-34375499D03*
X114050167Y-34375499D03*
X114050167Y-32875499D03*
%TD*%
%TO.C,L13*%
X157450167Y-32875499D03*
X157450167Y-34375499D03*
X152150167Y-34375499D03*
X152150167Y-32875499D03*
%TD*%
%TO.C,L11*%
X138400167Y-70975499D03*
X138400167Y-72475499D03*
X133100167Y-72475499D03*
X133100167Y-70975499D03*
%TD*%
%TO.C,L23*%
X195550167Y-70975499D03*
X195550167Y-72475499D03*
X190250167Y-72475499D03*
X190250167Y-70975499D03*
%TD*%
%TO.C,L10*%
X138400167Y-51925499D03*
X138400167Y-53425499D03*
X133100167Y-53425499D03*
X133100167Y-51925499D03*
%TD*%
%TO.C,L16*%
X157450167Y-90025499D03*
X157450167Y-91525499D03*
X152150167Y-91525499D03*
X152150167Y-90025499D03*
%TD*%
%TO.C,L17*%
X176500167Y-32875499D03*
X176500167Y-34375499D03*
X171200167Y-34375499D03*
X171200167Y-32875499D03*
%TD*%
%TO.C,L18*%
X176500167Y-51925499D03*
X176500167Y-53425499D03*
X171200167Y-53425499D03*
X171200167Y-51925499D03*
%TD*%
%TO.C,L24*%
X195550167Y-90025499D03*
X195550167Y-91525499D03*
X190250167Y-91525499D03*
X190250167Y-90025499D03*
%TD*%
%TO.C,L2*%
X100300167Y-51925499D03*
X100300167Y-53425499D03*
X95000167Y-53425499D03*
X95000167Y-51925499D03*
%TD*%
%TO.C,L15*%
X157450167Y-70975499D03*
X157450167Y-72475499D03*
X152150167Y-72475499D03*
X152150167Y-70975499D03*
%TD*%
%TO.C,L21*%
X195550167Y-32875499D03*
X195550167Y-34375499D03*
X190250167Y-34375499D03*
X190250167Y-32875499D03*
%TD*%
%TO.C,L8*%
X119350167Y-90025499D03*
X119350167Y-91525499D03*
X114050167Y-91525499D03*
X114050167Y-90025499D03*
%TD*%
%TO.C,L9*%
X138400167Y-32875499D03*
X138400167Y-34375499D03*
X133100167Y-34375499D03*
X133100167Y-32875499D03*
%TD*%
%TO.C,L20*%
X176500167Y-90025499D03*
X176500167Y-91525499D03*
X171200167Y-91525499D03*
X171200167Y-90025499D03*
%TD*%
%TO.C,L14*%
X157450167Y-51925499D03*
X157450167Y-53425499D03*
X152150167Y-53425499D03*
X152150167Y-51925499D03*
%TD*%
%TO.C,L6*%
X119350167Y-51925499D03*
X119350167Y-53425499D03*
X114050167Y-53425499D03*
X114050167Y-51925499D03*
%TD*%
%TO.C,L22*%
X195550167Y-51925499D03*
X195550167Y-53425499D03*
X190250167Y-53425499D03*
X190250167Y-51925499D03*
%TD*%
%TO.C,L3*%
X100300167Y-70975499D03*
X100300167Y-72475499D03*
X95000167Y-72475499D03*
X95000167Y-70975499D03*
%TD*%
%TO.C,L4*%
X100300167Y-90025499D03*
X100300167Y-91525499D03*
X95000167Y-91525499D03*
X95000167Y-90025499D03*
%TD*%
%TO.C,L12*%
X138400167Y-90025499D03*
X138400167Y-91525499D03*
X133100167Y-91525499D03*
X133100167Y-90025499D03*
%TD*%
%TO.C,L19*%
X176500167Y-70975499D03*
X176500167Y-72475499D03*
X171200167Y-72475499D03*
X171200167Y-70975499D03*
%TD*%
%TO.C,L7*%
X119350168Y-70975498D03*
X119350168Y-72475498D03*
X114050168Y-72475498D03*
X114050168Y-70975498D03*
%TD*%
%TO.C,L1*%
X100300167Y-32875499D03*
X100300167Y-34375499D03*
X95000167Y-34375499D03*
X95000167Y-32875499D03*
%TD*%
D37*
%TO.C,U1*%
X39881000Y-53461000D03*
X42421000Y-53461000D03*
X44961000Y-53461000D03*
D38*
X47501000Y-53461000D03*
X50041000Y-53461000D03*
D37*
X52581000Y-53461000D03*
X55121000Y-53461000D03*
X57661000Y-53461000D03*
X60201000Y-53461000D03*
X62741000Y-53461000D03*
X65281000Y-53461000D03*
X67821000Y-53461000D03*
X70361000Y-53461000D03*
X70361000Y-38221000D03*
X67821000Y-38221000D03*
X65281000Y-38221000D03*
X62741000Y-38221000D03*
X60201000Y-38221000D03*
X57661000Y-38221000D03*
X55121000Y-38221000D03*
X52581000Y-38221000D03*
D39*
X50041000Y-38221000D03*
D37*
X47501000Y-38221000D03*
D38*
X44961000Y-38221000D03*
D37*
X42421000Y-38221000D03*
X39881000Y-38221000D03*
%TD*%
M02*
