%TF.GenerationSoftware,KiCad,Pcbnew,7.0.5*%
%TF.CreationDate,2025-01-15T14:24:04+08:00*%
%TF.ProjectId,TPS,5450532e-6b69-4636-9164-5f7063625858,rev?*%
%TF.SameCoordinates,Original*%
%TF.FileFunction,Legend,Bot*%
%TF.FilePolarity,Positive*%
%FSLAX46Y46*%
G04 Gerber Fmt 4.6, Leading zero omitted, Abs format (unit mm)*
G04 Created by KiCad (PCBNEW 7.0.5) date 2025-01-15 14:24:04*
%MOMM*%
%LPD*%
G01*
G04 APERTURE LIST*
%ADD10C,0.150000*%
%ADD11C,0.120000*%
%ADD12C,0.100000*%
G04 APERTURE END LIST*
D10*
X57344438Y-62373655D02*
X58933780Y-61932316D01*
X59520367Y-61806277D02*
X59520367Y-61806277D01*
X60110641Y-61698821D02*
X60110641Y-61698821D01*
X60704013Y-61610055D02*
X62346925Y-61462980D01*
X62946629Y-61444940D02*
X62946629Y-61444940D01*
X63546603Y-61445843D02*
X63546603Y-61445843D01*
X64146250Y-61465690D02*
X65788711Y-61617714D01*
X66381813Y-61708267D02*
X66381813Y-61708267D01*
X66971760Y-61817501D02*
X66971760Y-61817501D01*
X67557965Y-61945307D02*
X69091561Y-62373655D01*
X76645738Y-67000688D02*
X77761029Y-68215972D01*
X78139831Y-68681245D02*
X78139831Y-68681245D01*
X78503754Y-69158247D02*
X78503754Y-69158247D01*
X78852434Y-69646501D02*
X79729930Y-71043208D01*
X80018484Y-71569237D02*
X80018484Y-71569237D01*
X80290285Y-72104115D02*
X80290285Y-72104115D01*
X80545063Y-72647308D02*
X81155911Y-74179513D01*
X81344729Y-74749002D02*
X81344729Y-74749002D01*
X81515472Y-75324169D02*
X81515472Y-75324169D01*
X81667970Y-75904440D02*
X81992086Y-77521765D01*
X82074960Y-78115988D02*
X82074960Y-78115988D01*
X82139030Y-78712533D02*
X82139030Y-78712533D01*
X82184234Y-79310802D02*
X82210960Y-80960067D01*
X82185165Y-81559488D02*
X82185165Y-81559488D01*
X82140457Y-82157795D02*
X82140457Y-82157795D01*
X82076880Y-82754392D02*
X81805338Y-84381369D01*
X81671722Y-84966276D02*
X81671722Y-84966276D01*
X81519705Y-85546674D02*
X81519705Y-85546674D01*
X81349439Y-86121982D02*
X80788557Y-87673175D01*
X80551513Y-88224338D02*
X80551513Y-88224338D01*
X80297186Y-88767742D02*
X80297186Y-88767742D01*
X80025827Y-89302844D02*
X79194048Y-90727250D01*
X78861371Y-91226546D02*
X78861371Y-91226546D01*
X78513095Y-91715088D02*
X78513095Y-91715088D01*
X78149567Y-92192391D02*
X77074239Y-93443174D01*
X76656867Y-93874186D02*
X76656867Y-93874186D01*
X76226095Y-94291804D02*
X76226095Y-94291804D01*
X75782351Y-94695613D02*
X74498832Y-95731647D01*
X74010488Y-96080202D02*
X74010488Y-96080202D01*
X73511383Y-96413165D02*
X73511383Y-96413165D01*
X73002014Y-96730203D02*
X71826744Y-97380811D01*
X54609258Y-97380810D02*
X53172632Y-96570319D01*
X52668441Y-96245109D02*
X52668441Y-96245109D01*
X52174770Y-95904142D02*
X52174770Y-95904142D01*
X51692110Y-95547758D02*
X50425463Y-94491162D01*
X49988288Y-94080250D02*
X49988288Y-94080250D01*
X49564306Y-93655740D02*
X49564306Y-93655740D01*
X49153938Y-93218054D02*
X48098918Y-91950094D01*
X47743135Y-91466992D02*
X47743135Y-91466992D01*
X47402782Y-90972897D02*
X47402782Y-90972897D01*
X47078199Y-90468302D02*
X46269496Y-89030669D01*
X46006801Y-88491260D02*
X46006801Y-88491260D01*
X45761269Y-87943826D02*
X45761269Y-87943826D01*
X45533143Y-87388913D02*
X44997347Y-85828877D01*
X44836379Y-85250898D02*
X44836379Y-85250898D01*
X44693741Y-84668125D02*
X44693741Y-84668125D01*
X44569574Y-84081139D02*
X44324302Y-82449995D01*
X44270353Y-81852450D02*
X44270353Y-81852450D01*
X44235299Y-81253500D02*
X44235299Y-81253500D01*
X44219172Y-80653742D02*
X44272489Y-79005122D01*
X44327334Y-78407659D02*
X44327334Y-78407659D01*
X44401016Y-77812226D02*
X44401016Y-77812226D01*
X44493461Y-77219415D02*
X44843614Y-75607528D01*
X45005448Y-75029791D02*
X45005448Y-75029791D01*
X45185444Y-74457452D02*
X45185444Y-74457452D01*
X45383420Y-73891082D02*
X46018896Y-72368925D01*
X46282399Y-71829911D02*
X46282399Y-71829911D01*
X46562790Y-71299486D02*
X46562790Y-71299486D01*
X46859788Y-70778178D02*
X47759692Y-69395802D01*
X48116200Y-68913234D02*
X48116200Y-68913234D01*
X48487767Y-68442162D02*
X48487767Y-68442162D01*
X48874022Y-67983058D02*
X49790263Y-67000687D01*
D11*
%TO.C,R3*%
X75408332Y-62116855D02*
X75674999Y-61735902D01*
X75865475Y-62116855D02*
X75865475Y-61316855D01*
X75865475Y-61316855D02*
X75560713Y-61316855D01*
X75560713Y-61316855D02*
X75484523Y-61354950D01*
X75484523Y-61354950D02*
X75446428Y-61393045D01*
X75446428Y-61393045D02*
X75408332Y-61469236D01*
X75408332Y-61469236D02*
X75408332Y-61583521D01*
X75408332Y-61583521D02*
X75446428Y-61659712D01*
X75446428Y-61659712D02*
X75484523Y-61697807D01*
X75484523Y-61697807D02*
X75560713Y-61735902D01*
X75560713Y-61735902D02*
X75865475Y-61735902D01*
X75141666Y-61316855D02*
X74646428Y-61316855D01*
X74646428Y-61316855D02*
X74913094Y-61621617D01*
X74913094Y-61621617D02*
X74798809Y-61621617D01*
X74798809Y-61621617D02*
X74722618Y-61659712D01*
X74722618Y-61659712D02*
X74684523Y-61697807D01*
X74684523Y-61697807D02*
X74646428Y-61773998D01*
X74646428Y-61773998D02*
X74646428Y-61964474D01*
X74646428Y-61964474D02*
X74684523Y-62040664D01*
X74684523Y-62040664D02*
X74722618Y-62078760D01*
X74722618Y-62078760D02*
X74798809Y-62116855D01*
X74798809Y-62116855D02*
X75027380Y-62116855D01*
X75027380Y-62116855D02*
X75103571Y-62078760D01*
X75103571Y-62078760D02*
X75141666Y-62040664D01*
%TO.C,T1*%
X76777855Y-33313476D02*
X76777855Y-33770619D01*
X77577855Y-33542047D02*
X76777855Y-33542047D01*
X77577855Y-34494429D02*
X77196902Y-34227762D01*
X77577855Y-34037286D02*
X76777855Y-34037286D01*
X76777855Y-34037286D02*
X76777855Y-34342048D01*
X76777855Y-34342048D02*
X76815950Y-34418238D01*
X76815950Y-34418238D02*
X76854045Y-34456333D01*
X76854045Y-34456333D02*
X76930236Y-34494429D01*
X76930236Y-34494429D02*
X77044521Y-34494429D01*
X77044521Y-34494429D02*
X77120712Y-34456333D01*
X77120712Y-34456333D02*
X77158807Y-34418238D01*
X77158807Y-34418238D02*
X77196902Y-34342048D01*
X77196902Y-34342048D02*
X77196902Y-34037286D01*
X77577855Y-35294429D02*
X77196902Y-35027762D01*
X77577855Y-34837286D02*
X76777855Y-34837286D01*
X76777855Y-34837286D02*
X76777855Y-35142048D01*
X76777855Y-35142048D02*
X76815950Y-35218238D01*
X76815950Y-35218238D02*
X76854045Y-35256333D01*
X76854045Y-35256333D02*
X76930236Y-35294429D01*
X76930236Y-35294429D02*
X77044521Y-35294429D01*
X77044521Y-35294429D02*
X77120712Y-35256333D01*
X77120712Y-35256333D02*
X77158807Y-35218238D01*
X77158807Y-35218238D02*
X77196902Y-35142048D01*
X77196902Y-35142048D02*
X77196902Y-34837286D01*
X77539760Y-35599190D02*
X77577855Y-35713476D01*
X77577855Y-35713476D02*
X77577855Y-35903952D01*
X77577855Y-35903952D02*
X77539760Y-35980143D01*
X77539760Y-35980143D02*
X77501664Y-36018238D01*
X77501664Y-36018238D02*
X77425474Y-36056333D01*
X77425474Y-36056333D02*
X77349283Y-36056333D01*
X77349283Y-36056333D02*
X77273093Y-36018238D01*
X77273093Y-36018238D02*
X77234998Y-35980143D01*
X77234998Y-35980143D02*
X77196902Y-35903952D01*
X77196902Y-35903952D02*
X77158807Y-35751571D01*
X77158807Y-35751571D02*
X77120712Y-35675381D01*
X77120712Y-35675381D02*
X77082617Y-35637286D01*
X77082617Y-35637286D02*
X77006426Y-35599190D01*
X77006426Y-35599190D02*
X76930236Y-35599190D01*
X76930236Y-35599190D02*
X76854045Y-35637286D01*
X76854045Y-35637286D02*
X76815950Y-35675381D01*
X76815950Y-35675381D02*
X76777855Y-35751571D01*
X76777855Y-35751571D02*
X76777855Y-35942048D01*
X76777855Y-35942048D02*
X76815950Y-36056333D01*
%TO.C,R1*%
X51294332Y-64656855D02*
X51560999Y-64275902D01*
X51751475Y-64656855D02*
X51751475Y-63856855D01*
X51751475Y-63856855D02*
X51446713Y-63856855D01*
X51446713Y-63856855D02*
X51370523Y-63894950D01*
X51370523Y-63894950D02*
X51332428Y-63933045D01*
X51332428Y-63933045D02*
X51294332Y-64009236D01*
X51294332Y-64009236D02*
X51294332Y-64123521D01*
X51294332Y-64123521D02*
X51332428Y-64199712D01*
X51332428Y-64199712D02*
X51370523Y-64237807D01*
X51370523Y-64237807D02*
X51446713Y-64275902D01*
X51446713Y-64275902D02*
X51751475Y-64275902D01*
X50532428Y-64656855D02*
X50989571Y-64656855D01*
X50760999Y-64656855D02*
X50760999Y-63856855D01*
X50760999Y-63856855D02*
X50837190Y-63971140D01*
X50837190Y-63971140D02*
X50913380Y-64047331D01*
X50913380Y-64047331D02*
X50989571Y-64085426D01*
%TO.C,JP1*%
X77307855Y-46799524D02*
X76507855Y-46799524D01*
X76507855Y-46799524D02*
X76507855Y-47104286D01*
X76507855Y-47104286D02*
X76545950Y-47180476D01*
X76545950Y-47180476D02*
X76584045Y-47218571D01*
X76584045Y-47218571D02*
X76660236Y-47256667D01*
X76660236Y-47256667D02*
X76774521Y-47256667D01*
X76774521Y-47256667D02*
X76850712Y-47218571D01*
X76850712Y-47218571D02*
X76888807Y-47180476D01*
X76888807Y-47180476D02*
X76926902Y-47104286D01*
X76926902Y-47104286D02*
X76926902Y-46799524D01*
X77307855Y-48018571D02*
X77307855Y-47561428D01*
X77307855Y-47790000D02*
X76507855Y-47790000D01*
X76507855Y-47790000D02*
X76622140Y-47713809D01*
X76622140Y-47713809D02*
X76698331Y-47637619D01*
X76698331Y-47637619D02*
X76736426Y-47561428D01*
%TO.C,JP2*%
X79847855Y-46799524D02*
X79047855Y-46799524D01*
X79047855Y-46799524D02*
X79047855Y-47104286D01*
X79047855Y-47104286D02*
X79085950Y-47180476D01*
X79085950Y-47180476D02*
X79124045Y-47218571D01*
X79124045Y-47218571D02*
X79200236Y-47256667D01*
X79200236Y-47256667D02*
X79314521Y-47256667D01*
X79314521Y-47256667D02*
X79390712Y-47218571D01*
X79390712Y-47218571D02*
X79428807Y-47180476D01*
X79428807Y-47180476D02*
X79466902Y-47104286D01*
X79466902Y-47104286D02*
X79466902Y-46799524D01*
X79124045Y-47561428D02*
X79085950Y-47599524D01*
X79085950Y-47599524D02*
X79047855Y-47675714D01*
X79047855Y-47675714D02*
X79047855Y-47866190D01*
X79047855Y-47866190D02*
X79085950Y-47942381D01*
X79085950Y-47942381D02*
X79124045Y-47980476D01*
X79124045Y-47980476D02*
X79200236Y-48018571D01*
X79200236Y-48018571D02*
X79276426Y-48018571D01*
X79276426Y-48018571D02*
X79390712Y-47980476D01*
X79390712Y-47980476D02*
X79847855Y-47523333D01*
X79847855Y-47523333D02*
X79847855Y-48018571D01*
D10*
%TO.C,RST1*%
X51039094Y-31190295D02*
X51305761Y-30809342D01*
X51496237Y-31190295D02*
X51496237Y-30390295D01*
X51496237Y-30390295D02*
X51191475Y-30390295D01*
X51191475Y-30390295D02*
X51115285Y-30428390D01*
X51115285Y-30428390D02*
X51077190Y-30466485D01*
X51077190Y-30466485D02*
X51039094Y-30542676D01*
X51039094Y-30542676D02*
X51039094Y-30656961D01*
X51039094Y-30656961D02*
X51077190Y-30733152D01*
X51077190Y-30733152D02*
X51115285Y-30771247D01*
X51115285Y-30771247D02*
X51191475Y-30809342D01*
X51191475Y-30809342D02*
X51496237Y-30809342D01*
X50734333Y-31152200D02*
X50620047Y-31190295D01*
X50620047Y-31190295D02*
X50429571Y-31190295D01*
X50429571Y-31190295D02*
X50353380Y-31152200D01*
X50353380Y-31152200D02*
X50315285Y-31114104D01*
X50315285Y-31114104D02*
X50277190Y-31037914D01*
X50277190Y-31037914D02*
X50277190Y-30961723D01*
X50277190Y-30961723D02*
X50315285Y-30885533D01*
X50315285Y-30885533D02*
X50353380Y-30847438D01*
X50353380Y-30847438D02*
X50429571Y-30809342D01*
X50429571Y-30809342D02*
X50581952Y-30771247D01*
X50581952Y-30771247D02*
X50658142Y-30733152D01*
X50658142Y-30733152D02*
X50696237Y-30695057D01*
X50696237Y-30695057D02*
X50734333Y-30618866D01*
X50734333Y-30618866D02*
X50734333Y-30542676D01*
X50734333Y-30542676D02*
X50696237Y-30466485D01*
X50696237Y-30466485D02*
X50658142Y-30428390D01*
X50658142Y-30428390D02*
X50581952Y-30390295D01*
X50581952Y-30390295D02*
X50391475Y-30390295D01*
X50391475Y-30390295D02*
X50277190Y-30428390D01*
X50048618Y-30390295D02*
X49591475Y-30390295D01*
X49820047Y-31190295D02*
X49820047Y-30390295D01*
D11*
%TO.C,R4*%
X75408332Y-64656855D02*
X75674999Y-64275902D01*
X75865475Y-64656855D02*
X75865475Y-63856855D01*
X75865475Y-63856855D02*
X75560713Y-63856855D01*
X75560713Y-63856855D02*
X75484523Y-63894950D01*
X75484523Y-63894950D02*
X75446428Y-63933045D01*
X75446428Y-63933045D02*
X75408332Y-64009236D01*
X75408332Y-64009236D02*
X75408332Y-64123521D01*
X75408332Y-64123521D02*
X75446428Y-64199712D01*
X75446428Y-64199712D02*
X75484523Y-64237807D01*
X75484523Y-64237807D02*
X75560713Y-64275902D01*
X75560713Y-64275902D02*
X75865475Y-64275902D01*
X74722618Y-64123521D02*
X74722618Y-64656855D01*
X74913094Y-63818760D02*
X75103571Y-64390188D01*
X75103571Y-64390188D02*
X74608332Y-64390188D01*
%TO.C,J1*%
X66629450Y-69248476D02*
X66591355Y-69172286D01*
X66591355Y-69172286D02*
X66591355Y-69058000D01*
X66591355Y-69058000D02*
X66629450Y-68943714D01*
X66629450Y-68943714D02*
X66705640Y-68867524D01*
X66705640Y-68867524D02*
X66781831Y-68829429D01*
X66781831Y-68829429D02*
X66934212Y-68791333D01*
X66934212Y-68791333D02*
X67048498Y-68791333D01*
X67048498Y-68791333D02*
X67200879Y-68829429D01*
X67200879Y-68829429D02*
X67277069Y-68867524D01*
X67277069Y-68867524D02*
X67353260Y-68943714D01*
X67353260Y-68943714D02*
X67391355Y-69058000D01*
X67391355Y-69058000D02*
X67391355Y-69134191D01*
X67391355Y-69134191D02*
X67353260Y-69248476D01*
X67353260Y-69248476D02*
X67315164Y-69286572D01*
X67315164Y-69286572D02*
X67048498Y-69286572D01*
X67048498Y-69286572D02*
X67048498Y-69134191D01*
X67391355Y-69629429D02*
X66591355Y-69629429D01*
X66591355Y-69629429D02*
X67391355Y-70086572D01*
X67391355Y-70086572D02*
X66591355Y-70086572D01*
X67391355Y-70467524D02*
X66591355Y-70467524D01*
X66591355Y-70467524D02*
X66591355Y-70658000D01*
X66591355Y-70658000D02*
X66629450Y-70772286D01*
X66629450Y-70772286D02*
X66705640Y-70848476D01*
X66705640Y-70848476D02*
X66781831Y-70886571D01*
X66781831Y-70886571D02*
X66934212Y-70924667D01*
X66934212Y-70924667D02*
X67048498Y-70924667D01*
X67048498Y-70924667D02*
X67200879Y-70886571D01*
X67200879Y-70886571D02*
X67277069Y-70848476D01*
X67277069Y-70848476D02*
X67353260Y-70772286D01*
X67353260Y-70772286D02*
X67391355Y-70658000D01*
X67391355Y-70658000D02*
X67391355Y-70467524D01*
X62273260Y-68905618D02*
X62311355Y-69019904D01*
X62311355Y-69019904D02*
X62311355Y-69210380D01*
X62311355Y-69210380D02*
X62273260Y-69286571D01*
X62273260Y-69286571D02*
X62235164Y-69324666D01*
X62235164Y-69324666D02*
X62158974Y-69362761D01*
X62158974Y-69362761D02*
X62082783Y-69362761D01*
X62082783Y-69362761D02*
X62006593Y-69324666D01*
X62006593Y-69324666D02*
X61968498Y-69286571D01*
X61968498Y-69286571D02*
X61930402Y-69210380D01*
X61930402Y-69210380D02*
X61892307Y-69057999D01*
X61892307Y-69057999D02*
X61854212Y-68981809D01*
X61854212Y-68981809D02*
X61816117Y-68943714D01*
X61816117Y-68943714D02*
X61739926Y-68905618D01*
X61739926Y-68905618D02*
X61663736Y-68905618D01*
X61663736Y-68905618D02*
X61587545Y-68943714D01*
X61587545Y-68943714D02*
X61549450Y-68981809D01*
X61549450Y-68981809D02*
X61511355Y-69057999D01*
X61511355Y-69057999D02*
X61511355Y-69248476D01*
X61511355Y-69248476D02*
X61549450Y-69362761D01*
X62235164Y-70162762D02*
X62273260Y-70124666D01*
X62273260Y-70124666D02*
X62311355Y-70010381D01*
X62311355Y-70010381D02*
X62311355Y-69934190D01*
X62311355Y-69934190D02*
X62273260Y-69819904D01*
X62273260Y-69819904D02*
X62197069Y-69743714D01*
X62197069Y-69743714D02*
X62120879Y-69705619D01*
X62120879Y-69705619D02*
X61968498Y-69667523D01*
X61968498Y-69667523D02*
X61854212Y-69667523D01*
X61854212Y-69667523D02*
X61701831Y-69705619D01*
X61701831Y-69705619D02*
X61625640Y-69743714D01*
X61625640Y-69743714D02*
X61549450Y-69819904D01*
X61549450Y-69819904D02*
X61511355Y-69934190D01*
X61511355Y-69934190D02*
X61511355Y-70010381D01*
X61511355Y-70010381D02*
X61549450Y-70124666D01*
X61549450Y-70124666D02*
X61587545Y-70162762D01*
X62311355Y-70886571D02*
X62311355Y-70505619D01*
X62311355Y-70505619D02*
X61511355Y-70505619D01*
X59733260Y-68886571D02*
X59771355Y-69000857D01*
X59771355Y-69000857D02*
X59771355Y-69191333D01*
X59771355Y-69191333D02*
X59733260Y-69267524D01*
X59733260Y-69267524D02*
X59695164Y-69305619D01*
X59695164Y-69305619D02*
X59618974Y-69343714D01*
X59618974Y-69343714D02*
X59542783Y-69343714D01*
X59542783Y-69343714D02*
X59466593Y-69305619D01*
X59466593Y-69305619D02*
X59428498Y-69267524D01*
X59428498Y-69267524D02*
X59390402Y-69191333D01*
X59390402Y-69191333D02*
X59352307Y-69038952D01*
X59352307Y-69038952D02*
X59314212Y-68962762D01*
X59314212Y-68962762D02*
X59276117Y-68924667D01*
X59276117Y-68924667D02*
X59199926Y-68886571D01*
X59199926Y-68886571D02*
X59123736Y-68886571D01*
X59123736Y-68886571D02*
X59047545Y-68924667D01*
X59047545Y-68924667D02*
X59009450Y-68962762D01*
X59009450Y-68962762D02*
X58971355Y-69038952D01*
X58971355Y-69038952D02*
X58971355Y-69229429D01*
X58971355Y-69229429D02*
X59009450Y-69343714D01*
X59771355Y-69686572D02*
X58971355Y-69686572D01*
X58971355Y-69686572D02*
X58971355Y-69877048D01*
X58971355Y-69877048D02*
X59009450Y-69991334D01*
X59009450Y-69991334D02*
X59085640Y-70067524D01*
X59085640Y-70067524D02*
X59161831Y-70105619D01*
X59161831Y-70105619D02*
X59314212Y-70143715D01*
X59314212Y-70143715D02*
X59428498Y-70143715D01*
X59428498Y-70143715D02*
X59580879Y-70105619D01*
X59580879Y-70105619D02*
X59657069Y-70067524D01*
X59657069Y-70067524D02*
X59733260Y-69991334D01*
X59733260Y-69991334D02*
X59771355Y-69877048D01*
X59771355Y-69877048D02*
X59771355Y-69686572D01*
X59542783Y-70448476D02*
X59542783Y-70829429D01*
X59771355Y-70372286D02*
X58971355Y-70638953D01*
X58971355Y-70638953D02*
X59771355Y-70905619D01*
X64051355Y-68791333D02*
X64851355Y-69058000D01*
X64851355Y-69058000D02*
X64051355Y-69324666D01*
X64775164Y-70048476D02*
X64813260Y-70010380D01*
X64813260Y-70010380D02*
X64851355Y-69896095D01*
X64851355Y-69896095D02*
X64851355Y-69819904D01*
X64851355Y-69819904D02*
X64813260Y-69705618D01*
X64813260Y-69705618D02*
X64737069Y-69629428D01*
X64737069Y-69629428D02*
X64660879Y-69591333D01*
X64660879Y-69591333D02*
X64508498Y-69553237D01*
X64508498Y-69553237D02*
X64394212Y-69553237D01*
X64394212Y-69553237D02*
X64241831Y-69591333D01*
X64241831Y-69591333D02*
X64165640Y-69629428D01*
X64165640Y-69629428D02*
X64089450Y-69705618D01*
X64089450Y-69705618D02*
X64051355Y-69819904D01*
X64051355Y-69819904D02*
X64051355Y-69896095D01*
X64051355Y-69896095D02*
X64089450Y-70010380D01*
X64089450Y-70010380D02*
X64127545Y-70048476D01*
X64775164Y-70848476D02*
X64813260Y-70810380D01*
X64813260Y-70810380D02*
X64851355Y-70696095D01*
X64851355Y-70696095D02*
X64851355Y-70619904D01*
X64851355Y-70619904D02*
X64813260Y-70505618D01*
X64813260Y-70505618D02*
X64737069Y-70429428D01*
X64737069Y-70429428D02*
X64660879Y-70391333D01*
X64660879Y-70391333D02*
X64508498Y-70353237D01*
X64508498Y-70353237D02*
X64394212Y-70353237D01*
X64394212Y-70353237D02*
X64241831Y-70391333D01*
X64241831Y-70391333D02*
X64165640Y-70429428D01*
X64165640Y-70429428D02*
X64089450Y-70505618D01*
X64089450Y-70505618D02*
X64051355Y-70619904D01*
X64051355Y-70619904D02*
X64051355Y-70696095D01*
X64051355Y-70696095D02*
X64089450Y-70810380D01*
X64089450Y-70810380D02*
X64127545Y-70848476D01*
%TO.C,R2*%
X51294332Y-62116855D02*
X51560999Y-61735902D01*
X51751475Y-62116855D02*
X51751475Y-61316855D01*
X51751475Y-61316855D02*
X51446713Y-61316855D01*
X51446713Y-61316855D02*
X51370523Y-61354950D01*
X51370523Y-61354950D02*
X51332428Y-61393045D01*
X51332428Y-61393045D02*
X51294332Y-61469236D01*
X51294332Y-61469236D02*
X51294332Y-61583521D01*
X51294332Y-61583521D02*
X51332428Y-61659712D01*
X51332428Y-61659712D02*
X51370523Y-61697807D01*
X51370523Y-61697807D02*
X51446713Y-61735902D01*
X51446713Y-61735902D02*
X51751475Y-61735902D01*
X50989571Y-61393045D02*
X50951475Y-61354950D01*
X50951475Y-61354950D02*
X50875285Y-61316855D01*
X50875285Y-61316855D02*
X50684809Y-61316855D01*
X50684809Y-61316855D02*
X50608618Y-61354950D01*
X50608618Y-61354950D02*
X50570523Y-61393045D01*
X50570523Y-61393045D02*
X50532428Y-61469236D01*
X50532428Y-61469236D02*
X50532428Y-61545426D01*
X50532428Y-61545426D02*
X50570523Y-61659712D01*
X50570523Y-61659712D02*
X51027666Y-62116855D01*
X51027666Y-62116855D02*
X50532428Y-62116855D01*
%TO.C,U1*%
X45570523Y-40037950D02*
X45646713Y-39999855D01*
X45646713Y-39999855D02*
X45760999Y-39999855D01*
X45760999Y-39999855D02*
X45875285Y-40037950D01*
X45875285Y-40037950D02*
X45951475Y-40114140D01*
X45951475Y-40114140D02*
X45989570Y-40190331D01*
X45989570Y-40190331D02*
X46027666Y-40342712D01*
X46027666Y-40342712D02*
X46027666Y-40456998D01*
X46027666Y-40456998D02*
X45989570Y-40609379D01*
X45989570Y-40609379D02*
X45951475Y-40685569D01*
X45951475Y-40685569D02*
X45875285Y-40761760D01*
X45875285Y-40761760D02*
X45760999Y-40799855D01*
X45760999Y-40799855D02*
X45684808Y-40799855D01*
X45684808Y-40799855D02*
X45570523Y-40761760D01*
X45570523Y-40761760D02*
X45532427Y-40723664D01*
X45532427Y-40723664D02*
X45532427Y-40456998D01*
X45532427Y-40456998D02*
X45684808Y-40456998D01*
X45189570Y-40799855D02*
X45189570Y-39999855D01*
X45189570Y-39999855D02*
X44732427Y-40799855D01*
X44732427Y-40799855D02*
X44732427Y-39999855D01*
X44351475Y-40799855D02*
X44351475Y-39999855D01*
X44351475Y-39999855D02*
X44160999Y-39999855D01*
X44160999Y-39999855D02*
X44046713Y-40037950D01*
X44046713Y-40037950D02*
X43970523Y-40114140D01*
X43970523Y-40114140D02*
X43932428Y-40190331D01*
X43932428Y-40190331D02*
X43894332Y-40342712D01*
X43894332Y-40342712D02*
X43894332Y-40456998D01*
X43894332Y-40456998D02*
X43932428Y-40609379D01*
X43932428Y-40609379D02*
X43970523Y-40685569D01*
X43970523Y-40685569D02*
X44046713Y-40761760D01*
X44046713Y-40761760D02*
X44160999Y-40799855D01*
X44160999Y-40799855D02*
X44351475Y-40799855D01*
X50650523Y-55277950D02*
X50726713Y-55239855D01*
X50726713Y-55239855D02*
X50840999Y-55239855D01*
X50840999Y-55239855D02*
X50955285Y-55277950D01*
X50955285Y-55277950D02*
X51031475Y-55354140D01*
X51031475Y-55354140D02*
X51069570Y-55430331D01*
X51069570Y-55430331D02*
X51107666Y-55582712D01*
X51107666Y-55582712D02*
X51107666Y-55696998D01*
X51107666Y-55696998D02*
X51069570Y-55849379D01*
X51069570Y-55849379D02*
X51031475Y-55925569D01*
X51031475Y-55925569D02*
X50955285Y-56001760D01*
X50955285Y-56001760D02*
X50840999Y-56039855D01*
X50840999Y-56039855D02*
X50764808Y-56039855D01*
X50764808Y-56039855D02*
X50650523Y-56001760D01*
X50650523Y-56001760D02*
X50612427Y-55963664D01*
X50612427Y-55963664D02*
X50612427Y-55696998D01*
X50612427Y-55696998D02*
X50764808Y-55696998D01*
X50269570Y-56039855D02*
X50269570Y-55239855D01*
X50269570Y-55239855D02*
X49812427Y-56039855D01*
X49812427Y-56039855D02*
X49812427Y-55239855D01*
X49431475Y-56039855D02*
X49431475Y-55239855D01*
X49431475Y-55239855D02*
X49240999Y-55239855D01*
X49240999Y-55239855D02*
X49126713Y-55277950D01*
X49126713Y-55277950D02*
X49050523Y-55354140D01*
X49050523Y-55354140D02*
X49012428Y-55430331D01*
X49012428Y-55430331D02*
X48974332Y-55582712D01*
X48974332Y-55582712D02*
X48974332Y-55696998D01*
X48974332Y-55696998D02*
X49012428Y-55849379D01*
X49012428Y-55849379D02*
X49050523Y-55925569D01*
X49050523Y-55925569D02*
X49126713Y-56001760D01*
X49126713Y-56001760D02*
X49240999Y-56039855D01*
X49240999Y-56039855D02*
X49431475Y-56039855D01*
X48110523Y-55277950D02*
X48186713Y-55239855D01*
X48186713Y-55239855D02*
X48300999Y-55239855D01*
X48300999Y-55239855D02*
X48415285Y-55277950D01*
X48415285Y-55277950D02*
X48491475Y-55354140D01*
X48491475Y-55354140D02*
X48529570Y-55430331D01*
X48529570Y-55430331D02*
X48567666Y-55582712D01*
X48567666Y-55582712D02*
X48567666Y-55696998D01*
X48567666Y-55696998D02*
X48529570Y-55849379D01*
X48529570Y-55849379D02*
X48491475Y-55925569D01*
X48491475Y-55925569D02*
X48415285Y-56001760D01*
X48415285Y-56001760D02*
X48300999Y-56039855D01*
X48300999Y-56039855D02*
X48224808Y-56039855D01*
X48224808Y-56039855D02*
X48110523Y-56001760D01*
X48110523Y-56001760D02*
X48072427Y-55963664D01*
X48072427Y-55963664D02*
X48072427Y-55696998D01*
X48072427Y-55696998D02*
X48224808Y-55696998D01*
X47729570Y-56039855D02*
X47729570Y-55239855D01*
X47729570Y-55239855D02*
X47272427Y-56039855D01*
X47272427Y-56039855D02*
X47272427Y-55239855D01*
X46891475Y-56039855D02*
X46891475Y-55239855D01*
X46891475Y-55239855D02*
X46700999Y-55239855D01*
X46700999Y-55239855D02*
X46586713Y-55277950D01*
X46586713Y-55277950D02*
X46510523Y-55354140D01*
X46510523Y-55354140D02*
X46472428Y-55430331D01*
X46472428Y-55430331D02*
X46434332Y-55582712D01*
X46434332Y-55582712D02*
X46434332Y-55696998D01*
X46434332Y-55696998D02*
X46472428Y-55849379D01*
X46472428Y-55849379D02*
X46510523Y-55925569D01*
X46510523Y-55925569D02*
X46586713Y-56001760D01*
X46586713Y-56001760D02*
X46700999Y-56039855D01*
X46700999Y-56039855D02*
X46891475Y-56039855D01*
X51107666Y-39999855D02*
X50840999Y-40799855D01*
X50840999Y-40799855D02*
X50574333Y-39999855D01*
X49850523Y-40723664D02*
X49888619Y-40761760D01*
X49888619Y-40761760D02*
X50002904Y-40799855D01*
X50002904Y-40799855D02*
X50079095Y-40799855D01*
X50079095Y-40799855D02*
X50193381Y-40761760D01*
X50193381Y-40761760D02*
X50269571Y-40685569D01*
X50269571Y-40685569D02*
X50307666Y-40609379D01*
X50307666Y-40609379D02*
X50345762Y-40456998D01*
X50345762Y-40456998D02*
X50345762Y-40342712D01*
X50345762Y-40342712D02*
X50307666Y-40190331D01*
X50307666Y-40190331D02*
X50269571Y-40114140D01*
X50269571Y-40114140D02*
X50193381Y-40037950D01*
X50193381Y-40037950D02*
X50079095Y-39999855D01*
X50079095Y-39999855D02*
X50002904Y-39999855D01*
X50002904Y-39999855D02*
X49888619Y-40037950D01*
X49888619Y-40037950D02*
X49850523Y-40076045D01*
X49050523Y-40723664D02*
X49088619Y-40761760D01*
X49088619Y-40761760D02*
X49202904Y-40799855D01*
X49202904Y-40799855D02*
X49279095Y-40799855D01*
X49279095Y-40799855D02*
X49393381Y-40761760D01*
X49393381Y-40761760D02*
X49469571Y-40685569D01*
X49469571Y-40685569D02*
X49507666Y-40609379D01*
X49507666Y-40609379D02*
X49545762Y-40456998D01*
X49545762Y-40456998D02*
X49545762Y-40342712D01*
X49545762Y-40342712D02*
X49507666Y-40190331D01*
X49507666Y-40190331D02*
X49469571Y-40114140D01*
X49469571Y-40114140D02*
X49393381Y-40037950D01*
X49393381Y-40037950D02*
X49279095Y-39999855D01*
X49279095Y-39999855D02*
X49202904Y-39999855D01*
X49202904Y-39999855D02*
X49088619Y-40037950D01*
X49088619Y-40037950D02*
X49050523Y-40076045D01*
D12*
%TO.C,D13*%
X159094567Y-47050499D02*
X159494567Y-47050499D01*
X159494567Y-47050499D02*
X159494567Y-46500499D01*
X159494567Y-47050499D02*
X159494567Y-47600499D01*
X159494567Y-47050499D02*
X160094567Y-47450499D01*
X160094567Y-46650499D02*
X159494567Y-47050499D01*
X160094567Y-47050499D02*
X160594567Y-47050499D01*
X160094567Y-47450499D02*
X160094567Y-46650499D01*
%TO.C,D20*%
X178144400Y-104200000D02*
X178544400Y-104200000D01*
X178544400Y-104200000D02*
X178544400Y-103650000D01*
X178544400Y-104200000D02*
X178544400Y-104750000D01*
X178544400Y-104200000D02*
X179144400Y-104600000D01*
X179144400Y-103800000D02*
X178544400Y-104200000D01*
X179144400Y-104200000D02*
X179644400Y-104200000D01*
X179144400Y-104600000D02*
X179144400Y-103800000D01*
D11*
%TO.C,R3*%
X78145000Y-61753000D02*
X77195000Y-61753000D01*
X77195000Y-62673000D02*
X73355000Y-62673000D01*
X77195000Y-60833000D02*
X77195000Y-62673000D01*
X73355000Y-62673000D02*
X73355000Y-60833000D01*
X73355000Y-60833000D02*
X77195000Y-60833000D01*
X72405000Y-61753000D02*
X73355000Y-61753000D01*
%TO.C,SW16*%
X157216167Y-103084499D02*
X156279167Y-104021499D01*
X156279167Y-104021499D02*
X153532167Y-104021499D01*
X156279167Y-99229499D02*
X157300167Y-100250499D01*
X153632167Y-99229499D02*
X156279167Y-99229499D01*
X153532167Y-104021499D02*
X153129167Y-103941499D01*
X153129167Y-103941499D02*
X152787167Y-103712499D01*
X153070167Y-99124499D02*
X153632167Y-99229499D01*
X152787167Y-103712499D02*
X152254167Y-103179499D01*
X152591167Y-98825499D02*
X153070167Y-99124499D01*
X152254167Y-103179499D02*
X152254167Y-102957499D01*
X152254167Y-102957499D02*
X152167167Y-102519499D01*
X152253167Y-98372499D02*
X152591167Y-98825499D01*
X152167167Y-102519499D02*
X151923167Y-102152499D01*
X152099167Y-97814499D02*
X152253167Y-98372499D01*
X152017167Y-97516499D02*
X152099167Y-97814499D01*
X151923167Y-102152499D02*
X151556167Y-101908499D01*
X151824167Y-97258499D02*
X152017167Y-97516499D01*
X151556167Y-101908499D02*
X151118167Y-101821499D01*
X151550167Y-97088499D02*
X151824167Y-97258499D01*
X151240167Y-97029499D02*
X151550167Y-97088499D01*
X151118167Y-101821499D02*
X148318167Y-101821499D01*
X148318167Y-101821499D02*
X147991167Y-101756499D01*
X147991167Y-101756499D02*
X147708167Y-101567499D01*
X147708167Y-101567499D02*
X147519167Y-101284499D01*
X147519167Y-101284499D02*
X147434167Y-100857499D01*
X147154167Y-97971499D02*
X147154167Y-97029499D01*
X147154167Y-97029499D02*
X151240167Y-97029499D01*
D12*
%TO.C,D1*%
X101944567Y-47050499D02*
X102344567Y-47050499D01*
X102344567Y-47050499D02*
X102344567Y-46500499D01*
X102344567Y-47050499D02*
X102344567Y-47600499D01*
X102344567Y-47050499D02*
X102944567Y-47450499D01*
X102944567Y-46650499D02*
X102344567Y-47050499D01*
X102944567Y-47050499D02*
X103444567Y-47050499D01*
X102944567Y-47450499D02*
X102944567Y-46650499D01*
%TO.C,D18*%
X178144567Y-66100499D02*
X178544567Y-66100499D01*
X178544567Y-66100499D02*
X178544567Y-65550499D01*
X178544567Y-66100499D02*
X178544567Y-66650499D01*
X178544567Y-66100499D02*
X179144567Y-66500499D01*
X179144567Y-65700499D02*
X178544567Y-66100499D01*
X179144567Y-66100499D02*
X179644567Y-66100499D01*
X179144567Y-66500499D02*
X179144567Y-65700499D01*
D11*
%TO.C,SW3*%
X100066167Y-84034499D02*
X99129167Y-84971499D01*
X99129167Y-84971499D02*
X96382167Y-84971499D01*
X99129167Y-80179499D02*
X100150167Y-81200499D01*
X96482167Y-80179499D02*
X99129167Y-80179499D01*
X96382167Y-84971499D02*
X95979167Y-84891499D01*
X95979167Y-84891499D02*
X95637167Y-84662499D01*
X95920167Y-80074499D02*
X96482167Y-80179499D01*
X95637167Y-84662499D02*
X95104167Y-84129499D01*
X95441167Y-79775499D02*
X95920167Y-80074499D01*
X95104167Y-84129499D02*
X95104167Y-83907499D01*
X95104167Y-83907499D02*
X95017167Y-83469499D01*
X95103167Y-79322499D02*
X95441167Y-79775499D01*
X95017167Y-83469499D02*
X94773167Y-83102499D01*
X94949167Y-78764499D02*
X95103167Y-79322499D01*
X94867167Y-78466499D02*
X94949167Y-78764499D01*
X94773167Y-83102499D02*
X94406167Y-82858499D01*
X94674167Y-78208499D02*
X94867167Y-78466499D01*
X94406167Y-82858499D02*
X93968167Y-82771499D01*
X94400167Y-78038499D02*
X94674167Y-78208499D01*
X94090167Y-77979499D02*
X94400167Y-78038499D01*
X93968167Y-82771499D02*
X91168167Y-82771499D01*
X91168167Y-82771499D02*
X90841167Y-82706499D01*
X90841167Y-82706499D02*
X90558167Y-82517499D01*
X90558167Y-82517499D02*
X90369167Y-82234499D01*
X90369167Y-82234499D02*
X90284167Y-81807499D01*
X90004167Y-78921499D02*
X90004167Y-77979499D01*
X90004167Y-77979499D02*
X94090167Y-77979499D01*
%TO.C,SW4*%
X100066167Y-103084499D02*
X99129167Y-104021499D01*
X99129167Y-104021499D02*
X96382167Y-104021499D01*
X99129167Y-99229499D02*
X100150167Y-100250499D01*
X96482167Y-99229499D02*
X99129167Y-99229499D01*
X96382167Y-104021499D02*
X95979167Y-103941499D01*
X95979167Y-103941499D02*
X95637167Y-103712499D01*
X95920167Y-99124499D02*
X96482167Y-99229499D01*
X95637167Y-103712499D02*
X95104167Y-103179499D01*
X95441167Y-98825499D02*
X95920167Y-99124499D01*
X95104167Y-103179499D02*
X95104167Y-102957499D01*
X95104167Y-102957499D02*
X95017167Y-102519499D01*
X95103167Y-98372499D02*
X95441167Y-98825499D01*
X95017167Y-102519499D02*
X94773167Y-102152499D01*
X94949167Y-97814499D02*
X95103167Y-98372499D01*
X94867167Y-97516499D02*
X94949167Y-97814499D01*
X94773167Y-102152499D02*
X94406167Y-101908499D01*
X94674167Y-97258499D02*
X94867167Y-97516499D01*
X94406167Y-101908499D02*
X93968167Y-101821499D01*
X94400167Y-97088499D02*
X94674167Y-97258499D01*
X94090167Y-97029499D02*
X94400167Y-97088499D01*
X93968167Y-101821499D02*
X91168167Y-101821499D01*
X91168167Y-101821499D02*
X90841167Y-101756499D01*
X90841167Y-101756499D02*
X90558167Y-101567499D01*
X90558167Y-101567499D02*
X90369167Y-101284499D01*
X90369167Y-101284499D02*
X90284167Y-100857499D01*
X90004167Y-97971499D02*
X90004167Y-97029499D01*
X90004167Y-97029499D02*
X94090167Y-97029499D01*
D12*
%TO.C,D22*%
X197194567Y-66100499D02*
X197594567Y-66100499D01*
X197594567Y-66100499D02*
X197594567Y-65550499D01*
X197594567Y-66100499D02*
X197594567Y-66650499D01*
X197594567Y-66100499D02*
X198194567Y-66500499D01*
X198194567Y-65700499D02*
X197594567Y-66100499D01*
X198194567Y-66100499D02*
X198694567Y-66100499D01*
X198194567Y-66500499D02*
X198194567Y-65700499D01*
D11*
%TO.C,SW1*%
X100066167Y-45934499D02*
X99129167Y-46871499D01*
X99129167Y-46871499D02*
X96382167Y-46871499D01*
X99129167Y-42079499D02*
X100150167Y-43100499D01*
X96482167Y-42079499D02*
X99129167Y-42079499D01*
X96382167Y-46871499D02*
X95979167Y-46791499D01*
X95979167Y-46791499D02*
X95637167Y-46562499D01*
X95920167Y-41974499D02*
X96482167Y-42079499D01*
X95637167Y-46562499D02*
X95104167Y-46029499D01*
X95441167Y-41675499D02*
X95920167Y-41974499D01*
X95104167Y-46029499D02*
X95104167Y-45807499D01*
X95104167Y-45807499D02*
X95017167Y-45369499D01*
X95103167Y-41222499D02*
X95441167Y-41675499D01*
X95017167Y-45369499D02*
X94773167Y-45002499D01*
X94949167Y-40664499D02*
X95103167Y-41222499D01*
X94867167Y-40366499D02*
X94949167Y-40664499D01*
X94773167Y-45002499D02*
X94406167Y-44758499D01*
X94674167Y-40108499D02*
X94867167Y-40366499D01*
X94406167Y-44758499D02*
X93968167Y-44671499D01*
X94400167Y-39938499D02*
X94674167Y-40108499D01*
X94090167Y-39879499D02*
X94400167Y-39938499D01*
X93968167Y-44671499D02*
X91168167Y-44671499D01*
X91168167Y-44671499D02*
X90841167Y-44606499D01*
X90841167Y-44606499D02*
X90558167Y-44417499D01*
X90558167Y-44417499D02*
X90369167Y-44134499D01*
X90369167Y-44134499D02*
X90284167Y-43707499D01*
X90004167Y-40821499D02*
X90004167Y-39879499D01*
X90004167Y-39879499D02*
X94090167Y-39879499D01*
D12*
%TO.C,D6*%
X120994567Y-66100499D02*
X121394567Y-66100499D01*
X121394567Y-66100499D02*
X121394567Y-65550499D01*
X121394567Y-66100499D02*
X121394567Y-66650499D01*
X121394567Y-66100499D02*
X121994567Y-66500499D01*
X121994567Y-65700499D02*
X121394567Y-66100499D01*
X121994567Y-66100499D02*
X122494567Y-66100499D01*
X121994567Y-66500499D02*
X121994567Y-65700499D01*
D11*
%TO.C,SW7*%
X119116168Y-84034498D02*
X118179168Y-84971498D01*
X118179168Y-84971498D02*
X115432168Y-84971498D01*
X118179168Y-80179498D02*
X119200168Y-81200498D01*
X115532168Y-80179498D02*
X118179168Y-80179498D01*
X115432168Y-84971498D02*
X115029168Y-84891498D01*
X115029168Y-84891498D02*
X114687168Y-84662498D01*
X114970168Y-80074498D02*
X115532168Y-80179498D01*
X114687168Y-84662498D02*
X114154168Y-84129498D01*
X114491168Y-79775498D02*
X114970168Y-80074498D01*
X114154168Y-84129498D02*
X114154168Y-83907498D01*
X114154168Y-83907498D02*
X114067168Y-83469498D01*
X114153168Y-79322498D02*
X114491168Y-79775498D01*
X114067168Y-83469498D02*
X113823168Y-83102498D01*
X113999168Y-78764498D02*
X114153168Y-79322498D01*
X113917168Y-78466498D02*
X113999168Y-78764498D01*
X113823168Y-83102498D02*
X113456168Y-82858498D01*
X113724168Y-78208498D02*
X113917168Y-78466498D01*
X113456168Y-82858498D02*
X113018168Y-82771498D01*
X113450168Y-78038498D02*
X113724168Y-78208498D01*
X113140168Y-77979498D02*
X113450168Y-78038498D01*
X113018168Y-82771498D02*
X110218168Y-82771498D01*
X110218168Y-82771498D02*
X109891168Y-82706498D01*
X109891168Y-82706498D02*
X109608168Y-82517498D01*
X109608168Y-82517498D02*
X109419168Y-82234498D01*
X109419168Y-82234498D02*
X109334168Y-81807498D01*
X109054168Y-78921498D02*
X109054168Y-77979498D01*
X109054168Y-77979498D02*
X113140168Y-77979498D01*
D10*
%TO.C,T1*%
X73835800Y-29150000D02*
X73835800Y-41723000D01*
X73835800Y-41723000D02*
X80592200Y-41723000D01*
X80592200Y-29150000D02*
X73835800Y-29150000D01*
X80592200Y-29150000D02*
X80592200Y-41723000D01*
D11*
%TO.C,SW9*%
X138166167Y-45934499D02*
X137229167Y-46871499D01*
X137229167Y-46871499D02*
X134482167Y-46871499D01*
X137229167Y-42079499D02*
X138250167Y-43100499D01*
X134582167Y-42079499D02*
X137229167Y-42079499D01*
X134482167Y-46871499D02*
X134079167Y-46791499D01*
X134079167Y-46791499D02*
X133737167Y-46562499D01*
X134020167Y-41974499D02*
X134582167Y-42079499D01*
X133737167Y-46562499D02*
X133204167Y-46029499D01*
X133541167Y-41675499D02*
X134020167Y-41974499D01*
X133204167Y-46029499D02*
X133204167Y-45807499D01*
X133204167Y-45807499D02*
X133117167Y-45369499D01*
X133203167Y-41222499D02*
X133541167Y-41675499D01*
X133117167Y-45369499D02*
X132873167Y-45002499D01*
X133049167Y-40664499D02*
X133203167Y-41222499D01*
X132967167Y-40366499D02*
X133049167Y-40664499D01*
X132873167Y-45002499D02*
X132506167Y-44758499D01*
X132774167Y-40108499D02*
X132967167Y-40366499D01*
X132506167Y-44758499D02*
X132068167Y-44671499D01*
X132500167Y-39938499D02*
X132774167Y-40108499D01*
X132190167Y-39879499D02*
X132500167Y-39938499D01*
X132068167Y-44671499D02*
X129268167Y-44671499D01*
X129268167Y-44671499D02*
X128941167Y-44606499D01*
X128941167Y-44606499D02*
X128658167Y-44417499D01*
X128658167Y-44417499D02*
X128469167Y-44134499D01*
X128469167Y-44134499D02*
X128384167Y-43707499D01*
X128104167Y-40821499D02*
X128104167Y-39879499D01*
X128104167Y-39879499D02*
X132190167Y-39879499D01*
D12*
%TO.C,D2*%
X101944567Y-66100499D02*
X102344567Y-66100499D01*
X102344567Y-66100499D02*
X102344567Y-65550499D01*
X102344567Y-66100499D02*
X102344567Y-66650499D01*
X102344567Y-66100499D02*
X102944567Y-66500499D01*
X102944567Y-65700499D02*
X102344567Y-66100499D01*
X102944567Y-66100499D02*
X103444567Y-66100499D01*
X102944567Y-66500499D02*
X102944567Y-65700499D01*
%TO.C,D7*%
X120994568Y-85150498D02*
X121394568Y-85150498D01*
X121394568Y-85150498D02*
X121394568Y-84600498D01*
X121394568Y-85150498D02*
X121394568Y-85700498D01*
X121394568Y-85150498D02*
X121994568Y-85550498D01*
X121994568Y-84750498D02*
X121394568Y-85150498D01*
X121994568Y-85150498D02*
X122494568Y-85150498D01*
X121994568Y-85550498D02*
X121994568Y-84750498D01*
D11*
%TO.C,SW17*%
X176266167Y-45934499D02*
X175329167Y-46871499D01*
X175329167Y-46871499D02*
X172582167Y-46871499D01*
X175329167Y-42079499D02*
X176350167Y-43100499D01*
X172682167Y-42079499D02*
X175329167Y-42079499D01*
X172582167Y-46871499D02*
X172179167Y-46791499D01*
X172179167Y-46791499D02*
X171837167Y-46562499D01*
X172120167Y-41974499D02*
X172682167Y-42079499D01*
X171837167Y-46562499D02*
X171304167Y-46029499D01*
X171641167Y-41675499D02*
X172120167Y-41974499D01*
X171304167Y-46029499D02*
X171304167Y-45807499D01*
X171304167Y-45807499D02*
X171217167Y-45369499D01*
X171303167Y-41222499D02*
X171641167Y-41675499D01*
X171217167Y-45369499D02*
X170973167Y-45002499D01*
X171149167Y-40664499D02*
X171303167Y-41222499D01*
X171067167Y-40366499D02*
X171149167Y-40664499D01*
X170973167Y-45002499D02*
X170606167Y-44758499D01*
X170874167Y-40108499D02*
X171067167Y-40366499D01*
X170606167Y-44758499D02*
X170168167Y-44671499D01*
X170600167Y-39938499D02*
X170874167Y-40108499D01*
X170290167Y-39879499D02*
X170600167Y-39938499D01*
X170168167Y-44671499D02*
X167368167Y-44671499D01*
X167368167Y-44671499D02*
X167041167Y-44606499D01*
X167041167Y-44606499D02*
X166758167Y-44417499D01*
X166758167Y-44417499D02*
X166569167Y-44134499D01*
X166569167Y-44134499D02*
X166484167Y-43707499D01*
X166204167Y-40821499D02*
X166204167Y-39879499D01*
X166204167Y-39879499D02*
X170290167Y-39879499D01*
%TO.C,SW22*%
X195316167Y-64984499D02*
X194379167Y-65921499D01*
X194379167Y-65921499D02*
X191632167Y-65921499D01*
X194379167Y-61129499D02*
X195400167Y-62150499D01*
X191732167Y-61129499D02*
X194379167Y-61129499D01*
X191632167Y-65921499D02*
X191229167Y-65841499D01*
X191229167Y-65841499D02*
X190887167Y-65612499D01*
X191170167Y-61024499D02*
X191732167Y-61129499D01*
X190887167Y-65612499D02*
X190354167Y-65079499D01*
X190691167Y-60725499D02*
X191170167Y-61024499D01*
X190354167Y-65079499D02*
X190354167Y-64857499D01*
X190354167Y-64857499D02*
X190267167Y-64419499D01*
X190353167Y-60272499D02*
X190691167Y-60725499D01*
X190267167Y-64419499D02*
X190023167Y-64052499D01*
X190199167Y-59714499D02*
X190353167Y-60272499D01*
X190117167Y-59416499D02*
X190199167Y-59714499D01*
X190023167Y-64052499D02*
X189656167Y-63808499D01*
X189924167Y-59158499D02*
X190117167Y-59416499D01*
X189656167Y-63808499D02*
X189218167Y-63721499D01*
X189650167Y-58988499D02*
X189924167Y-59158499D01*
X189340167Y-58929499D02*
X189650167Y-58988499D01*
X189218167Y-63721499D02*
X186418167Y-63721499D01*
X186418167Y-63721499D02*
X186091167Y-63656499D01*
X186091167Y-63656499D02*
X185808167Y-63467499D01*
X185808167Y-63467499D02*
X185619167Y-63184499D01*
X185619167Y-63184499D02*
X185534167Y-62757499D01*
X185254167Y-59871499D02*
X185254167Y-58929499D01*
X185254167Y-58929499D02*
X189340167Y-58929499D01*
%TO.C,SW21*%
X195316167Y-45934499D02*
X194379167Y-46871499D01*
X194379167Y-46871499D02*
X191632167Y-46871499D01*
X194379167Y-42079499D02*
X195400167Y-43100499D01*
X191732167Y-42079499D02*
X194379167Y-42079499D01*
X191632167Y-46871499D02*
X191229167Y-46791499D01*
X191229167Y-46791499D02*
X190887167Y-46562499D01*
X191170167Y-41974499D02*
X191732167Y-42079499D01*
X190887167Y-46562499D02*
X190354167Y-46029499D01*
X190691167Y-41675499D02*
X191170167Y-41974499D01*
X190354167Y-46029499D02*
X190354167Y-45807499D01*
X190354167Y-45807499D02*
X190267167Y-45369499D01*
X190353167Y-41222499D02*
X190691167Y-41675499D01*
X190267167Y-45369499D02*
X190023167Y-45002499D01*
X190199167Y-40664499D02*
X190353167Y-41222499D01*
X190117167Y-40366499D02*
X190199167Y-40664499D01*
X190023167Y-45002499D02*
X189656167Y-44758499D01*
X189924167Y-40108499D02*
X190117167Y-40366499D01*
X189656167Y-44758499D02*
X189218167Y-44671499D01*
X189650167Y-39938499D02*
X189924167Y-40108499D01*
X189340167Y-39879499D02*
X189650167Y-39938499D01*
X189218167Y-44671499D02*
X186418167Y-44671499D01*
X186418167Y-44671499D02*
X186091167Y-44606499D01*
X186091167Y-44606499D02*
X185808167Y-44417499D01*
X185808167Y-44417499D02*
X185619167Y-44134499D01*
X185619167Y-44134499D02*
X185534167Y-43707499D01*
X185254167Y-40821499D02*
X185254167Y-39879499D01*
X185254167Y-39879499D02*
X189340167Y-39879499D01*
D12*
%TO.C,D19*%
X178144567Y-85150499D02*
X178544567Y-85150499D01*
X178544567Y-85150499D02*
X178544567Y-84600499D01*
X178544567Y-85150499D02*
X178544567Y-85700499D01*
X178544567Y-85150499D02*
X179144567Y-85550499D01*
X179144567Y-84750499D02*
X178544567Y-85150499D01*
X179144567Y-85150499D02*
X179644567Y-85150499D01*
X179144567Y-85550499D02*
X179144567Y-84750499D01*
D11*
%TO.C,SW23*%
X195316167Y-84034499D02*
X194379167Y-84971499D01*
X194379167Y-84971499D02*
X191632167Y-84971499D01*
X194379167Y-80179499D02*
X195400167Y-81200499D01*
X191732167Y-80179499D02*
X194379167Y-80179499D01*
X191632167Y-84971499D02*
X191229167Y-84891499D01*
X191229167Y-84891499D02*
X190887167Y-84662499D01*
X191170167Y-80074499D02*
X191732167Y-80179499D01*
X190887167Y-84662499D02*
X190354167Y-84129499D01*
X190691167Y-79775499D02*
X191170167Y-80074499D01*
X190354167Y-84129499D02*
X190354167Y-83907499D01*
X190354167Y-83907499D02*
X190267167Y-83469499D01*
X190353167Y-79322499D02*
X190691167Y-79775499D01*
X190267167Y-83469499D02*
X190023167Y-83102499D01*
X190199167Y-78764499D02*
X190353167Y-79322499D01*
X190117167Y-78466499D02*
X190199167Y-78764499D01*
X190023167Y-83102499D02*
X189656167Y-82858499D01*
X189924167Y-78208499D02*
X190117167Y-78466499D01*
X189656167Y-82858499D02*
X189218167Y-82771499D01*
X189650167Y-78038499D02*
X189924167Y-78208499D01*
X189340167Y-77979499D02*
X189650167Y-78038499D01*
X189218167Y-82771499D02*
X186418167Y-82771499D01*
X186418167Y-82771499D02*
X186091167Y-82706499D01*
X186091167Y-82706499D02*
X185808167Y-82517499D01*
X185808167Y-82517499D02*
X185619167Y-82234499D01*
X185619167Y-82234499D02*
X185534167Y-81807499D01*
X185254167Y-78921499D02*
X185254167Y-77979499D01*
X185254167Y-77979499D02*
X189340167Y-77979499D01*
D12*
%TO.C,D12*%
X140044567Y-104200499D02*
X140444567Y-104200499D01*
X140444567Y-104200499D02*
X140444567Y-103650499D01*
X140444567Y-104200499D02*
X140444567Y-104750499D01*
X140444567Y-104200499D02*
X141044567Y-104600499D01*
X141044567Y-103800499D02*
X140444567Y-104200499D01*
X141044567Y-104200499D02*
X141544567Y-104200499D01*
X141044567Y-104600499D02*
X141044567Y-103800499D01*
%TO.C,D25*%
X72165400Y-89075000D02*
X72565400Y-89075000D01*
X72565400Y-89075000D02*
X72565400Y-88525000D01*
X72565400Y-89075000D02*
X72565400Y-89625000D01*
X72565400Y-89075000D02*
X73165400Y-89475000D01*
X73165400Y-88675000D02*
X72565400Y-89075000D01*
X73165400Y-89075000D02*
X73665400Y-89075000D01*
X73165400Y-89475000D02*
X73165400Y-88675000D01*
D11*
%TO.C,SW18*%
X176266167Y-64984499D02*
X175329167Y-65921499D01*
X175329167Y-65921499D02*
X172582167Y-65921499D01*
X175329167Y-61129499D02*
X176350167Y-62150499D01*
X172682167Y-61129499D02*
X175329167Y-61129499D01*
X172582167Y-65921499D02*
X172179167Y-65841499D01*
X172179167Y-65841499D02*
X171837167Y-65612499D01*
X172120167Y-61024499D02*
X172682167Y-61129499D01*
X171837167Y-65612499D02*
X171304167Y-65079499D01*
X171641167Y-60725499D02*
X172120167Y-61024499D01*
X171304167Y-65079499D02*
X171304167Y-64857499D01*
X171304167Y-64857499D02*
X171217167Y-64419499D01*
X171303167Y-60272499D02*
X171641167Y-60725499D01*
X171217167Y-64419499D02*
X170973167Y-64052499D01*
X171149167Y-59714499D02*
X171303167Y-60272499D01*
X171067167Y-59416499D02*
X171149167Y-59714499D01*
X170973167Y-64052499D02*
X170606167Y-63808499D01*
X170874167Y-59158499D02*
X171067167Y-59416499D01*
X170606167Y-63808499D02*
X170168167Y-63721499D01*
X170600167Y-58988499D02*
X170874167Y-59158499D01*
X170290167Y-58929499D02*
X170600167Y-58988499D01*
X170168167Y-63721499D02*
X167368167Y-63721499D01*
X167368167Y-63721499D02*
X167041167Y-63656499D01*
X167041167Y-63656499D02*
X166758167Y-63467499D01*
X166758167Y-63467499D02*
X166569167Y-63184499D01*
X166569167Y-63184499D02*
X166484167Y-62757499D01*
X166204167Y-59871499D02*
X166204167Y-58929499D01*
X166204167Y-58929499D02*
X170290167Y-58929499D01*
D12*
%TO.C,D4*%
X101944567Y-104200499D02*
X102344567Y-104200499D01*
X102344567Y-104200499D02*
X102344567Y-103650499D01*
X102344567Y-104200499D02*
X102344567Y-104750499D01*
X102344567Y-104200499D02*
X102944567Y-104600499D01*
X102944567Y-103800499D02*
X102344567Y-104200499D01*
X102944567Y-104200499D02*
X103444567Y-104200499D01*
X102944567Y-104600499D02*
X102944567Y-103800499D01*
%TO.C,D14*%
X159094567Y-66100499D02*
X159494567Y-66100499D01*
X159494567Y-66100499D02*
X159494567Y-65550499D01*
X159494567Y-66100499D02*
X159494567Y-66650499D01*
X159494567Y-66100499D02*
X160094567Y-66500499D01*
X160094567Y-65700499D02*
X159494567Y-66100499D01*
X160094567Y-66100499D02*
X160594567Y-66100499D01*
X160094567Y-66500499D02*
X160094567Y-65700499D01*
%TO.C,D11*%
X140044567Y-85150499D02*
X140444567Y-85150499D01*
X140444567Y-85150499D02*
X140444567Y-84600499D01*
X140444567Y-85150499D02*
X140444567Y-85700499D01*
X140444567Y-85150499D02*
X141044567Y-85550499D01*
X141044567Y-84750499D02*
X140444567Y-85150499D01*
X141044567Y-85150499D02*
X141544567Y-85150499D01*
X141044567Y-85550499D02*
X141044567Y-84750499D01*
%TO.C,D10*%
X140044567Y-66100499D02*
X140444567Y-66100499D01*
X140444567Y-66100499D02*
X140444567Y-65550499D01*
X140444567Y-66100499D02*
X140444567Y-66650499D01*
X140444567Y-66100499D02*
X141044567Y-66500499D01*
X141044567Y-65700499D02*
X140444567Y-66100499D01*
X141044567Y-66100499D02*
X141544567Y-66100499D01*
X141044567Y-66500499D02*
X141044567Y-65700499D01*
D11*
%TO.C,SW25*%
X55418000Y-84543000D02*
X56018000Y-84543000D01*
X55718000Y-84243000D02*
X55418000Y-84543000D01*
X56018000Y-84543000D02*
X55718000Y-84243000D01*
X57118000Y-86343000D02*
X57118000Y-74543000D01*
X61218000Y-74543000D02*
X57118000Y-74543000D01*
X61218000Y-86343000D02*
X57118000Y-86343000D01*
X63218000Y-79943000D02*
X63218000Y-80943000D01*
X63718000Y-80443000D02*
X62718000Y-80443000D01*
X65218000Y-86343000D02*
X69318000Y-86343000D01*
X69318000Y-74543000D02*
X65218000Y-74543000D01*
X69318000Y-76943000D02*
X69318000Y-74543000D01*
X69318000Y-81743000D02*
X69318000Y-79143000D01*
X69318000Y-86343000D02*
X69318000Y-83943000D01*
X66218000Y-80443000D02*
G75*
G03*
X66218000Y-80443000I-3000000J0D01*
G01*
%TO.C,SW13*%
X157216167Y-45934499D02*
X156279167Y-46871499D01*
X156279167Y-46871499D02*
X153532167Y-46871499D01*
X156279167Y-42079499D02*
X157300167Y-43100499D01*
X153632167Y-42079499D02*
X156279167Y-42079499D01*
X153532167Y-46871499D02*
X153129167Y-46791499D01*
X153129167Y-46791499D02*
X152787167Y-46562499D01*
X153070167Y-41974499D02*
X153632167Y-42079499D01*
X152787167Y-46562499D02*
X152254167Y-46029499D01*
X152591167Y-41675499D02*
X153070167Y-41974499D01*
X152254167Y-46029499D02*
X152254167Y-45807499D01*
X152254167Y-45807499D02*
X152167167Y-45369499D01*
X152253167Y-41222499D02*
X152591167Y-41675499D01*
X152167167Y-45369499D02*
X151923167Y-45002499D01*
X152099167Y-40664499D02*
X152253167Y-41222499D01*
X152017167Y-40366499D02*
X152099167Y-40664499D01*
X151923167Y-45002499D02*
X151556167Y-44758499D01*
X151824167Y-40108499D02*
X152017167Y-40366499D01*
X151556167Y-44758499D02*
X151118167Y-44671499D01*
X151550167Y-39938499D02*
X151824167Y-40108499D01*
X151240167Y-39879499D02*
X151550167Y-39938499D01*
X151118167Y-44671499D02*
X148318167Y-44671499D01*
X148318167Y-44671499D02*
X147991167Y-44606499D01*
X147991167Y-44606499D02*
X147708167Y-44417499D01*
X147708167Y-44417499D02*
X147519167Y-44134499D01*
X147519167Y-44134499D02*
X147434167Y-43707499D01*
X147154167Y-40821499D02*
X147154167Y-39879499D01*
X147154167Y-39879499D02*
X151240167Y-39879499D01*
%TO.C,R1*%
X48291000Y-64293000D02*
X49241000Y-64293000D01*
X49241000Y-63373000D02*
X53081000Y-63373000D01*
X49241000Y-65213000D02*
X49241000Y-63373000D01*
X53081000Y-63373000D02*
X53081000Y-65213000D01*
X53081000Y-65213000D02*
X49241000Y-65213000D01*
X54031000Y-64293000D02*
X53081000Y-64293000D01*
%TO.C,SW12*%
X138166167Y-103084499D02*
X137229167Y-104021499D01*
X137229167Y-104021499D02*
X134482167Y-104021499D01*
X137229167Y-99229499D02*
X138250167Y-100250499D01*
X134582167Y-99229499D02*
X137229167Y-99229499D01*
X134482167Y-104021499D02*
X134079167Y-103941499D01*
X134079167Y-103941499D02*
X133737167Y-103712499D01*
X134020167Y-99124499D02*
X134582167Y-99229499D01*
X133737167Y-103712499D02*
X133204167Y-103179499D01*
X133541167Y-98825499D02*
X134020167Y-99124499D01*
X133204167Y-103179499D02*
X133204167Y-102957499D01*
X133204167Y-102957499D02*
X133117167Y-102519499D01*
X133203167Y-98372499D02*
X133541167Y-98825499D01*
X133117167Y-102519499D02*
X132873167Y-102152499D01*
X133049167Y-97814499D02*
X133203167Y-98372499D01*
X132967167Y-97516499D02*
X133049167Y-97814499D01*
X132873167Y-102152499D02*
X132506167Y-101908499D01*
X132774167Y-97258499D02*
X132967167Y-97516499D01*
X132506167Y-101908499D02*
X132068167Y-101821499D01*
X132500167Y-97088499D02*
X132774167Y-97258499D01*
X132190167Y-97029499D02*
X132500167Y-97088499D01*
X132068167Y-101821499D02*
X129268167Y-101821499D01*
X129268167Y-101821499D02*
X128941167Y-101756499D01*
X128941167Y-101756499D02*
X128658167Y-101567499D01*
X128658167Y-101567499D02*
X128469167Y-101284499D01*
X128469167Y-101284499D02*
X128384167Y-100857499D01*
X128104167Y-97971499D02*
X128104167Y-97029499D01*
X128104167Y-97029499D02*
X132190167Y-97029499D01*
D12*
%TO.C,D16*%
X159094567Y-104200499D02*
X159494567Y-104200499D01*
X159494567Y-104200499D02*
X159494567Y-103650499D01*
X159494567Y-104200499D02*
X159494567Y-104750499D01*
X159494567Y-104200499D02*
X160094567Y-104600499D01*
X160094567Y-103800499D02*
X159494567Y-104200499D01*
X160094567Y-104200499D02*
X160594567Y-104200499D01*
X160094567Y-104600499D02*
X160094567Y-103800499D01*
%TO.C,D17*%
X178144567Y-47050499D02*
X178544567Y-47050499D01*
X178544567Y-47050499D02*
X178544567Y-46500499D01*
X178544567Y-47050499D02*
X178544567Y-47600499D01*
X178544567Y-47050499D02*
X179144567Y-47450499D01*
X179144567Y-46650499D02*
X178544567Y-47050499D01*
X179144567Y-47050499D02*
X179644567Y-47050499D01*
X179144567Y-47450499D02*
X179144567Y-46650499D01*
D10*
%TO.C,RST1*%
X47751000Y-29228000D02*
X47751000Y-29478000D01*
X47751000Y-32428000D02*
X47751000Y-32178000D01*
X53451000Y-29228000D02*
X47751000Y-29228000D01*
X53451000Y-29228000D02*
X53451000Y-29478000D01*
X53451000Y-32428000D02*
X47751000Y-32428000D01*
X53451000Y-32428000D02*
X53451000Y-32178000D01*
D11*
%TO.C,SW14*%
X157216167Y-64984499D02*
X156279167Y-65921499D01*
X156279167Y-65921499D02*
X153532167Y-65921499D01*
X156279167Y-61129499D02*
X157300167Y-62150499D01*
X153632167Y-61129499D02*
X156279167Y-61129499D01*
X153532167Y-65921499D02*
X153129167Y-65841499D01*
X153129167Y-65841499D02*
X152787167Y-65612499D01*
X153070167Y-61024499D02*
X153632167Y-61129499D01*
X152787167Y-65612499D02*
X152254167Y-65079499D01*
X152591167Y-60725499D02*
X153070167Y-61024499D01*
X152254167Y-65079499D02*
X152254167Y-64857499D01*
X152254167Y-64857499D02*
X152167167Y-64419499D01*
X152253167Y-60272499D02*
X152591167Y-60725499D01*
X152167167Y-64419499D02*
X151923167Y-64052499D01*
X152099167Y-59714499D02*
X152253167Y-60272499D01*
X152017167Y-59416499D02*
X152099167Y-59714499D01*
X151923167Y-64052499D02*
X151556167Y-63808499D01*
X151824167Y-59158499D02*
X152017167Y-59416499D01*
X151556167Y-63808499D02*
X151118167Y-63721499D01*
X151550167Y-58988499D02*
X151824167Y-59158499D01*
X151240167Y-58929499D02*
X151550167Y-58988499D01*
X151118167Y-63721499D02*
X148318167Y-63721499D01*
X148318167Y-63721499D02*
X147991167Y-63656499D01*
X147991167Y-63656499D02*
X147708167Y-63467499D01*
X147708167Y-63467499D02*
X147519167Y-63184499D01*
X147519167Y-63184499D02*
X147434167Y-62757499D01*
X147154167Y-59871499D02*
X147154167Y-58929499D01*
X147154167Y-58929499D02*
X151240167Y-58929499D01*
D12*
%TO.C,D3*%
X101944567Y-85150499D02*
X102344567Y-85150499D01*
X102344567Y-85150499D02*
X102344567Y-84600499D01*
X102344567Y-85150499D02*
X102344567Y-85700499D01*
X102344567Y-85150499D02*
X102944567Y-85550499D01*
X102944567Y-84750499D02*
X102344567Y-85150499D01*
X102944567Y-85150499D02*
X103444567Y-85150499D01*
X102944567Y-85550499D02*
X102944567Y-84750499D01*
D11*
%TO.C,SW5*%
X119116167Y-45934499D02*
X118179167Y-46871499D01*
X118179167Y-46871499D02*
X115432167Y-46871499D01*
X118179167Y-42079499D02*
X119200167Y-43100499D01*
X115532167Y-42079499D02*
X118179167Y-42079499D01*
X115432167Y-46871499D02*
X115029167Y-46791499D01*
X115029167Y-46791499D02*
X114687167Y-46562499D01*
X114970167Y-41974499D02*
X115532167Y-42079499D01*
X114687167Y-46562499D02*
X114154167Y-46029499D01*
X114491167Y-41675499D02*
X114970167Y-41974499D01*
X114154167Y-46029499D02*
X114154167Y-45807499D01*
X114154167Y-45807499D02*
X114067167Y-45369499D01*
X114153167Y-41222499D02*
X114491167Y-41675499D01*
X114067167Y-45369499D02*
X113823167Y-45002499D01*
X113999167Y-40664499D02*
X114153167Y-41222499D01*
X113917167Y-40366499D02*
X113999167Y-40664499D01*
X113823167Y-45002499D02*
X113456167Y-44758499D01*
X113724167Y-40108499D02*
X113917167Y-40366499D01*
X113456167Y-44758499D02*
X113018167Y-44671499D01*
X113450167Y-39938499D02*
X113724167Y-40108499D01*
X113140167Y-39879499D02*
X113450167Y-39938499D01*
X113018167Y-44671499D02*
X110218167Y-44671499D01*
X110218167Y-44671499D02*
X109891167Y-44606499D01*
X109891167Y-44606499D02*
X109608167Y-44417499D01*
X109608167Y-44417499D02*
X109419167Y-44134499D01*
X109419167Y-44134499D02*
X109334167Y-43707499D01*
X109054167Y-40821499D02*
X109054167Y-39879499D01*
X109054167Y-39879499D02*
X113140167Y-39879499D01*
%TO.C,SW11*%
X138166167Y-84034499D02*
X137229167Y-84971499D01*
X137229167Y-84971499D02*
X134482167Y-84971499D01*
X137229167Y-80179499D02*
X138250167Y-81200499D01*
X134582167Y-80179499D02*
X137229167Y-80179499D01*
X134482167Y-84971499D02*
X134079167Y-84891499D01*
X134079167Y-84891499D02*
X133737167Y-84662499D01*
X134020167Y-80074499D02*
X134582167Y-80179499D01*
X133737167Y-84662499D02*
X133204167Y-84129499D01*
X133541167Y-79775499D02*
X134020167Y-80074499D01*
X133204167Y-84129499D02*
X133204167Y-83907499D01*
X133204167Y-83907499D02*
X133117167Y-83469499D01*
X133203167Y-79322499D02*
X133541167Y-79775499D01*
X133117167Y-83469499D02*
X132873167Y-83102499D01*
X133049167Y-78764499D02*
X133203167Y-79322499D01*
X132967167Y-78466499D02*
X133049167Y-78764499D01*
X132873167Y-83102499D02*
X132506167Y-82858499D01*
X132774167Y-78208499D02*
X132967167Y-78466499D01*
X132506167Y-82858499D02*
X132068167Y-82771499D01*
X132500167Y-78038499D02*
X132774167Y-78208499D01*
X132190167Y-77979499D02*
X132500167Y-78038499D01*
X132068167Y-82771499D02*
X129268167Y-82771499D01*
X129268167Y-82771499D02*
X128941167Y-82706499D01*
X128941167Y-82706499D02*
X128658167Y-82517499D01*
X128658167Y-82517499D02*
X128469167Y-82234499D01*
X128469167Y-82234499D02*
X128384167Y-81807499D01*
X128104167Y-78921499D02*
X128104167Y-77979499D01*
X128104167Y-77979499D02*
X132190167Y-77979499D01*
D12*
%TO.C,D15*%
X159094567Y-85150499D02*
X159494567Y-85150499D01*
X159494567Y-85150499D02*
X159494567Y-84600499D01*
X159494567Y-85150499D02*
X159494567Y-85700499D01*
X159494567Y-85150499D02*
X160094567Y-85550499D01*
X160094567Y-84750499D02*
X159494567Y-85150499D01*
X160094567Y-85150499D02*
X160594567Y-85150499D01*
X160094567Y-85550499D02*
X160094567Y-84750499D01*
D11*
%TO.C,R4*%
X78145000Y-64293000D02*
X77195000Y-64293000D01*
X77195000Y-65213000D02*
X73355000Y-65213000D01*
X77195000Y-63373000D02*
X77195000Y-65213000D01*
X73355000Y-65213000D02*
X73355000Y-63373000D01*
X73355000Y-63373000D02*
X77195000Y-63373000D01*
X72405000Y-64293000D02*
X73355000Y-64293000D01*
%TO.C,SW20*%
X176266167Y-103084499D02*
X175329167Y-104021499D01*
X175329167Y-104021499D02*
X172582167Y-104021499D01*
X175329167Y-99229499D02*
X176350167Y-100250499D01*
X172682167Y-99229499D02*
X175329167Y-99229499D01*
X172582167Y-104021499D02*
X172179167Y-103941499D01*
X172179167Y-103941499D02*
X171837167Y-103712499D01*
X172120167Y-99124499D02*
X172682167Y-99229499D01*
X171837167Y-103712499D02*
X171304167Y-103179499D01*
X171641167Y-98825499D02*
X172120167Y-99124499D01*
X171304167Y-103179499D02*
X171304167Y-102957499D01*
X171304167Y-102957499D02*
X171217167Y-102519499D01*
X171303167Y-98372499D02*
X171641167Y-98825499D01*
X171217167Y-102519499D02*
X170973167Y-102152499D01*
X171149167Y-97814499D02*
X171303167Y-98372499D01*
X171067167Y-97516499D02*
X171149167Y-97814499D01*
X170973167Y-102152499D02*
X170606167Y-101908499D01*
X170874167Y-97258499D02*
X171067167Y-97516499D01*
X170606167Y-101908499D02*
X170168167Y-101821499D01*
X170600167Y-97088499D02*
X170874167Y-97258499D01*
X170290167Y-97029499D02*
X170600167Y-97088499D01*
X170168167Y-101821499D02*
X167368167Y-101821499D01*
X167368167Y-101821499D02*
X167041167Y-101756499D01*
X167041167Y-101756499D02*
X166758167Y-101567499D01*
X166758167Y-101567499D02*
X166569167Y-101284499D01*
X166569167Y-101284499D02*
X166484167Y-100857499D01*
X166204167Y-97971499D02*
X166204167Y-97029499D01*
X166204167Y-97029499D02*
X170290167Y-97029499D01*
%TO.C,SW15*%
X157216167Y-84034499D02*
X156279167Y-84971499D01*
X156279167Y-84971499D02*
X153532167Y-84971499D01*
X156279167Y-80179499D02*
X157300167Y-81200499D01*
X153632167Y-80179499D02*
X156279167Y-80179499D01*
X153532167Y-84971499D02*
X153129167Y-84891499D01*
X153129167Y-84891499D02*
X152787167Y-84662499D01*
X153070167Y-80074499D02*
X153632167Y-80179499D01*
X152787167Y-84662499D02*
X152254167Y-84129499D01*
X152591167Y-79775499D02*
X153070167Y-80074499D01*
X152254167Y-84129499D02*
X152254167Y-83907499D01*
X152254167Y-83907499D02*
X152167167Y-83469499D01*
X152253167Y-79322499D02*
X152591167Y-79775499D01*
X152167167Y-83469499D02*
X151923167Y-83102499D01*
X152099167Y-78764499D02*
X152253167Y-79322499D01*
X152017167Y-78466499D02*
X152099167Y-78764499D01*
X151923167Y-83102499D02*
X151556167Y-82858499D01*
X151824167Y-78208499D02*
X152017167Y-78466499D01*
X151556167Y-82858499D02*
X151118167Y-82771499D01*
X151550167Y-78038499D02*
X151824167Y-78208499D01*
X151240167Y-77979499D02*
X151550167Y-78038499D01*
X151118167Y-82771499D02*
X148318167Y-82771499D01*
X148318167Y-82771499D02*
X147991167Y-82706499D01*
X147991167Y-82706499D02*
X147708167Y-82517499D01*
X147708167Y-82517499D02*
X147519167Y-82234499D01*
X147519167Y-82234499D02*
X147434167Y-81807499D01*
X147154167Y-78921499D02*
X147154167Y-77979499D01*
X147154167Y-77979499D02*
X151240167Y-77979499D01*
D12*
%TO.C,D8*%
X120994567Y-104200499D02*
X121394567Y-104200499D01*
X121394567Y-104200499D02*
X121394567Y-103650499D01*
X121394567Y-104200499D02*
X121394567Y-104750499D01*
X121394567Y-104200499D02*
X121994567Y-104600499D01*
X121994567Y-103800499D02*
X121394567Y-104200499D01*
X121994567Y-104200499D02*
X122494567Y-104200499D01*
X121994567Y-104600499D02*
X121994567Y-103800499D01*
D11*
%TO.C,SW10*%
X138166167Y-64984499D02*
X137229167Y-65921499D01*
X137229167Y-65921499D02*
X134482167Y-65921499D01*
X137229167Y-61129499D02*
X138250167Y-62150499D01*
X134582167Y-61129499D02*
X137229167Y-61129499D01*
X134482167Y-65921499D02*
X134079167Y-65841499D01*
X134079167Y-65841499D02*
X133737167Y-65612499D01*
X134020167Y-61024499D02*
X134582167Y-61129499D01*
X133737167Y-65612499D02*
X133204167Y-65079499D01*
X133541167Y-60725499D02*
X134020167Y-61024499D01*
X133204167Y-65079499D02*
X133204167Y-64857499D01*
X133204167Y-64857499D02*
X133117167Y-64419499D01*
X133203167Y-60272499D02*
X133541167Y-60725499D01*
X133117167Y-64419499D02*
X132873167Y-64052499D01*
X133049167Y-59714499D02*
X133203167Y-60272499D01*
X132967167Y-59416499D02*
X133049167Y-59714499D01*
X132873167Y-64052499D02*
X132506167Y-63808499D01*
X132774167Y-59158499D02*
X132967167Y-59416499D01*
X132506167Y-63808499D02*
X132068167Y-63721499D01*
X132500167Y-58988499D02*
X132774167Y-59158499D01*
X132190167Y-58929499D02*
X132500167Y-58988499D01*
X132068167Y-63721499D02*
X129268167Y-63721499D01*
X129268167Y-63721499D02*
X128941167Y-63656499D01*
X128941167Y-63656499D02*
X128658167Y-63467499D01*
X128658167Y-63467499D02*
X128469167Y-63184499D01*
X128469167Y-63184499D02*
X128384167Y-62757499D01*
X128104167Y-59871499D02*
X128104167Y-58929499D01*
X128104167Y-58929499D02*
X132190167Y-58929499D01*
D12*
%TO.C,D9*%
X140044567Y-47050499D02*
X140444567Y-47050499D01*
X140444567Y-47050499D02*
X140444567Y-46500499D01*
X140444567Y-47050499D02*
X140444567Y-47600499D01*
X140444567Y-47050499D02*
X141044567Y-47450499D01*
X141044567Y-46650499D02*
X140444567Y-47050499D01*
X141044567Y-47050499D02*
X141544567Y-47050499D01*
X141044567Y-47450499D02*
X141044567Y-46650499D01*
%TO.C,D24*%
X197194568Y-104200498D02*
X197594568Y-104200498D01*
X197594568Y-104200498D02*
X197594568Y-103650498D01*
X197594568Y-104200498D02*
X197594568Y-104750498D01*
X197594568Y-104200498D02*
X198194568Y-104600498D01*
X198194568Y-103800498D02*
X197594568Y-104200498D01*
X198194568Y-104200498D02*
X198694568Y-104200498D01*
X198194568Y-104600498D02*
X198194568Y-103800498D01*
D11*
%TO.C,SW6*%
X119116167Y-64984499D02*
X118179167Y-65921499D01*
X118179167Y-65921499D02*
X115432167Y-65921499D01*
X118179167Y-61129499D02*
X119200167Y-62150499D01*
X115532167Y-61129499D02*
X118179167Y-61129499D01*
X115432167Y-65921499D02*
X115029167Y-65841499D01*
X115029167Y-65841499D02*
X114687167Y-65612499D01*
X114970167Y-61024499D02*
X115532167Y-61129499D01*
X114687167Y-65612499D02*
X114154167Y-65079499D01*
X114491167Y-60725499D02*
X114970167Y-61024499D01*
X114154167Y-65079499D02*
X114154167Y-64857499D01*
X114154167Y-64857499D02*
X114067167Y-64419499D01*
X114153167Y-60272499D02*
X114491167Y-60725499D01*
X114067167Y-64419499D02*
X113823167Y-64052499D01*
X113999167Y-59714499D02*
X114153167Y-60272499D01*
X113917167Y-59416499D02*
X113999167Y-59714499D01*
X113823167Y-64052499D02*
X113456167Y-63808499D01*
X113724167Y-59158499D02*
X113917167Y-59416499D01*
X113456167Y-63808499D02*
X113018167Y-63721499D01*
X113450167Y-58988499D02*
X113724167Y-59158499D01*
X113140167Y-58929499D02*
X113450167Y-58988499D01*
X113018167Y-63721499D02*
X110218167Y-63721499D01*
X110218167Y-63721499D02*
X109891167Y-63656499D01*
X109891167Y-63656499D02*
X109608167Y-63467499D01*
X109608167Y-63467499D02*
X109419167Y-63184499D01*
X109419167Y-63184499D02*
X109334167Y-62757499D01*
X109054167Y-59871499D02*
X109054167Y-58929499D01*
X109054167Y-58929499D02*
X113140167Y-58929499D01*
%TO.C,R2*%
X48291000Y-61753000D02*
X49241000Y-61753000D01*
X49241000Y-60833000D02*
X53081000Y-60833000D01*
X49241000Y-62673000D02*
X49241000Y-60833000D01*
X53081000Y-60833000D02*
X53081000Y-62673000D01*
X53081000Y-62673000D02*
X49241000Y-62673000D01*
X54031000Y-61753000D02*
X53081000Y-61753000D01*
D12*
%TO.C,D21*%
X197194567Y-47050499D02*
X197594567Y-47050499D01*
X197594567Y-47050499D02*
X197594567Y-46500499D01*
X197594567Y-47050499D02*
X197594567Y-47600499D01*
X197594567Y-47050499D02*
X198194567Y-47450499D01*
X198194567Y-46650499D02*
X197594567Y-47050499D01*
X198194567Y-47050499D02*
X198694567Y-47050499D01*
X198194567Y-47450499D02*
X198194567Y-46650499D01*
%TO.C,D5*%
X120994567Y-47050499D02*
X121394567Y-47050499D01*
X121394567Y-47050499D02*
X121394567Y-46500499D01*
X121394567Y-47050499D02*
X121394567Y-47600499D01*
X121394567Y-47050499D02*
X121994567Y-47450499D01*
X121994567Y-46650499D02*
X121394567Y-47050499D01*
X121994567Y-47050499D02*
X122494567Y-47050499D01*
X121994567Y-47450499D02*
X121994567Y-46650499D01*
D11*
%TO.C,SW2*%
X100066167Y-64984499D02*
X99129167Y-65921499D01*
X99129167Y-65921499D02*
X96382167Y-65921499D01*
X99129167Y-61129499D02*
X100150167Y-62150499D01*
X96482167Y-61129499D02*
X99129167Y-61129499D01*
X96382167Y-65921499D02*
X95979167Y-65841499D01*
X95979167Y-65841499D02*
X95637167Y-65612499D01*
X95920167Y-61024499D02*
X96482167Y-61129499D01*
X95637167Y-65612499D02*
X95104167Y-65079499D01*
X95441167Y-60725499D02*
X95920167Y-61024499D01*
X95104167Y-65079499D02*
X95104167Y-64857499D01*
X95104167Y-64857499D02*
X95017167Y-64419499D01*
X95103167Y-60272499D02*
X95441167Y-60725499D01*
X95017167Y-64419499D02*
X94773167Y-64052499D01*
X94949167Y-59714499D02*
X95103167Y-60272499D01*
X94867167Y-59416499D02*
X94949167Y-59714499D01*
X94773167Y-64052499D02*
X94406167Y-63808499D01*
X94674167Y-59158499D02*
X94867167Y-59416499D01*
X94406167Y-63808499D02*
X93968167Y-63721499D01*
X94400167Y-58988499D02*
X94674167Y-59158499D01*
X94090167Y-58929499D02*
X94400167Y-58988499D01*
X93968167Y-63721499D02*
X91168167Y-63721499D01*
X91168167Y-63721499D02*
X90841167Y-63656499D01*
X90841167Y-63656499D02*
X90558167Y-63467499D01*
X90558167Y-63467499D02*
X90369167Y-63184499D01*
X90369167Y-63184499D02*
X90284167Y-62757499D01*
X90004167Y-59871499D02*
X90004167Y-58929499D01*
X90004167Y-58929499D02*
X94090167Y-58929499D01*
D12*
%TO.C,D23*%
X197194567Y-85150499D02*
X197594567Y-85150499D01*
X197594567Y-85150499D02*
X197594567Y-84600499D01*
X197594567Y-85150499D02*
X197594567Y-85700499D01*
X197594567Y-85150499D02*
X198194567Y-85550499D01*
X198194567Y-84750499D02*
X197594567Y-85150499D01*
X198194567Y-85150499D02*
X198694567Y-85150499D01*
X198194567Y-85550499D02*
X198194567Y-84750499D01*
D11*
%TO.C,SW24*%
X195316168Y-103084498D02*
X194379168Y-104021498D01*
X194379168Y-104021498D02*
X191632168Y-104021498D01*
X194379168Y-99229498D02*
X195400168Y-100250498D01*
X191732168Y-99229498D02*
X194379168Y-99229498D01*
X191632168Y-104021498D02*
X191229168Y-103941498D01*
X191229168Y-103941498D02*
X190887168Y-103712498D01*
X191170168Y-99124498D02*
X191732168Y-99229498D01*
X190887168Y-103712498D02*
X190354168Y-103179498D01*
X190691168Y-98825498D02*
X191170168Y-99124498D01*
X190354168Y-103179498D02*
X190354168Y-102957498D01*
X190354168Y-102957498D02*
X190267168Y-102519498D01*
X190353168Y-98372498D02*
X190691168Y-98825498D01*
X190267168Y-102519498D02*
X190023168Y-102152498D01*
X190199168Y-97814498D02*
X190353168Y-98372498D01*
X190117168Y-97516498D02*
X190199168Y-97814498D01*
X190023168Y-102152498D02*
X189656168Y-101908498D01*
X189924168Y-97258498D02*
X190117168Y-97516498D01*
X189656168Y-101908498D02*
X189218168Y-101821498D01*
X189650168Y-97088498D02*
X189924168Y-97258498D01*
X189340168Y-97029498D02*
X189650168Y-97088498D01*
X189218168Y-101821498D02*
X186418168Y-101821498D01*
X186418168Y-101821498D02*
X186091168Y-101756498D01*
X186091168Y-101756498D02*
X185808168Y-101567498D01*
X185808168Y-101567498D02*
X185619168Y-101284498D01*
X185619168Y-101284498D02*
X185534168Y-100857498D01*
X185254168Y-97971498D02*
X185254168Y-97029498D01*
X185254168Y-97029498D02*
X189340168Y-97029498D01*
%TO.C,SW8*%
X119116167Y-103084499D02*
X118179167Y-104021499D01*
X118179167Y-104021499D02*
X115432167Y-104021499D01*
X118179167Y-99229499D02*
X119200167Y-100250499D01*
X115532167Y-99229499D02*
X118179167Y-99229499D01*
X115432167Y-104021499D02*
X115029167Y-103941499D01*
X115029167Y-103941499D02*
X114687167Y-103712499D01*
X114970167Y-99124499D02*
X115532167Y-99229499D01*
X114687167Y-103712499D02*
X114154167Y-103179499D01*
X114491167Y-98825499D02*
X114970167Y-99124499D01*
X114154167Y-103179499D02*
X114154167Y-102957499D01*
X114154167Y-102957499D02*
X114067167Y-102519499D01*
X114153167Y-98372499D02*
X114491167Y-98825499D01*
X114067167Y-102519499D02*
X113823167Y-102152499D01*
X113999167Y-97814499D02*
X114153167Y-98372499D01*
X113917167Y-97516499D02*
X113999167Y-97814499D01*
X113823167Y-102152499D02*
X113456167Y-101908499D01*
X113724167Y-97258499D02*
X113917167Y-97516499D01*
X113456167Y-101908499D02*
X113018167Y-101821499D01*
X113450167Y-97088499D02*
X113724167Y-97258499D01*
X113140167Y-97029499D02*
X113450167Y-97088499D01*
X113018167Y-101821499D02*
X110218167Y-101821499D01*
X110218167Y-101821499D02*
X109891167Y-101756499D01*
X109891167Y-101756499D02*
X109608167Y-101567499D01*
X109608167Y-101567499D02*
X109419167Y-101284499D01*
X109419167Y-101284499D02*
X109334167Y-100857499D01*
X109054167Y-97971499D02*
X109054167Y-97029499D01*
X109054167Y-97029499D02*
X113140167Y-97029499D01*
%TO.C,SW19*%
X176266167Y-84034499D02*
X175329167Y-84971499D01*
X175329167Y-84971499D02*
X172582167Y-84971499D01*
X175329167Y-80179499D02*
X176350167Y-81200499D01*
X172682167Y-80179499D02*
X175329167Y-80179499D01*
X172582167Y-84971499D02*
X172179167Y-84891499D01*
X172179167Y-84891499D02*
X171837167Y-84662499D01*
X172120167Y-80074499D02*
X172682167Y-80179499D01*
X171837167Y-84662499D02*
X171304167Y-84129499D01*
X171641167Y-79775499D02*
X172120167Y-80074499D01*
X171304167Y-84129499D02*
X171304167Y-83907499D01*
X171304167Y-83907499D02*
X171217167Y-83469499D01*
X171303167Y-79322499D02*
X171641167Y-79775499D01*
X171217167Y-83469499D02*
X170973167Y-83102499D01*
X171149167Y-78764499D02*
X171303167Y-79322499D01*
X171067167Y-78466499D02*
X171149167Y-78764499D01*
X170973167Y-83102499D02*
X170606167Y-82858499D01*
X170874167Y-78208499D02*
X171067167Y-78466499D01*
X170606167Y-82858499D02*
X170168167Y-82771499D01*
X170600167Y-78038499D02*
X170874167Y-78208499D01*
X170290167Y-77979499D02*
X170600167Y-78038499D01*
X170168167Y-82771499D02*
X167368167Y-82771499D01*
X167368167Y-82771499D02*
X167041167Y-82706499D01*
X167041167Y-82706499D02*
X166758167Y-82517499D01*
X166758167Y-82517499D02*
X166569167Y-82234499D01*
X166569167Y-82234499D02*
X166484167Y-81807499D01*
X166204167Y-78921499D02*
X166204167Y-77979499D01*
X166204167Y-77979499D02*
X170290167Y-77979499D01*
%TO.C,JP9*%
X66727500Y-68393000D02*
X67327500Y-68393000D01*
X68027500Y-67693000D02*
X68027500Y-66293000D01*
X66027500Y-66293000D02*
X66027500Y-67693000D01*
X67327500Y-65593000D02*
X66727500Y-65593000D01*
X66027500Y-67693000D02*
G75*
G03*
X66727500Y-68393000I699999J-1D01*
G01*
X67327500Y-68393000D02*
G75*
G03*
X68027500Y-67693000I1J699999D01*
G01*
X66727500Y-65593000D02*
G75*
G03*
X66027500Y-66293000I0J-700000D01*
G01*
X68027500Y-66293000D02*
G75*
G03*
X67327500Y-65593000I-700000J0D01*
G01*
D10*
%TO.C,L5*%
X112700167Y-33375499D02*
X112700167Y-32125499D01*
X113950167Y-32125499D02*
X112700167Y-32125499D01*
%TO.C,L13*%
X150800167Y-33375499D02*
X150800167Y-32125499D01*
X152050167Y-32125499D02*
X150800167Y-32125499D01*
D11*
%TO.C,JP12*%
X59107500Y-68393000D02*
X59707500Y-68393000D01*
X60407500Y-67693000D02*
X60407500Y-66293000D01*
X58407500Y-66293000D02*
X58407500Y-67693000D01*
X59707500Y-65593000D02*
X59107500Y-65593000D01*
X58407500Y-67693000D02*
G75*
G03*
X59107500Y-68393000I699999J-1D01*
G01*
X59707500Y-68393000D02*
G75*
G03*
X60407500Y-67693000I1J699999D01*
G01*
X59107500Y-65593000D02*
G75*
G03*
X58407500Y-66293000I0J-700000D01*
G01*
X60407500Y-66293000D02*
G75*
G03*
X59707500Y-65593000I-700000J0D01*
G01*
D10*
%TO.C,L11*%
X131750167Y-71475499D02*
X131750167Y-70225499D01*
X133000167Y-70225499D02*
X131750167Y-70225499D01*
%TO.C,L23*%
X188900167Y-71475499D02*
X188900167Y-70225499D01*
X190150167Y-70225499D02*
X188900167Y-70225499D01*
D11*
%TO.C,JP3*%
X75944000Y-46250000D02*
X77944000Y-46250000D01*
X77944000Y-46250000D02*
X77944000Y-43450000D01*
X75944000Y-43450000D02*
X75944000Y-46250000D01*
X77944000Y-43450000D02*
X75944000Y-43450000D01*
D10*
%TO.C,L10*%
X131750167Y-52425499D02*
X131750167Y-51175499D01*
X133000167Y-51175499D02*
X131750167Y-51175499D01*
%TO.C,L16*%
X150800167Y-90525499D02*
X150800167Y-89275499D01*
X152050167Y-89275499D02*
X150800167Y-89275499D01*
%TO.C,L17*%
X169850167Y-33375499D02*
X169850167Y-32125499D01*
X171100167Y-32125499D02*
X169850167Y-32125499D01*
%TO.C,L18*%
X169850167Y-52425499D02*
X169850167Y-51175499D01*
X171100167Y-51175499D02*
X169850167Y-51175499D01*
D11*
%TO.C,JP11*%
X61647500Y-68393000D02*
X62247500Y-68393000D01*
X62947500Y-67693000D02*
X62947500Y-66293000D01*
X60947500Y-66293000D02*
X60947500Y-67693000D01*
X62247500Y-65593000D02*
X61647500Y-65593000D01*
X60947500Y-67693000D02*
G75*
G03*
X61647500Y-68393000I699999J-1D01*
G01*
X62247500Y-68393000D02*
G75*
G03*
X62947500Y-67693000I1J699999D01*
G01*
X61647500Y-65593000D02*
G75*
G03*
X60947500Y-66293000I0J-700000D01*
G01*
X62947500Y-66293000D02*
G75*
G03*
X62247500Y-65593000I-700000J0D01*
G01*
%TO.C,JP10*%
X64187500Y-68393000D02*
X64787500Y-68393000D01*
X65487500Y-67693000D02*
X65487500Y-66293000D01*
X63487500Y-66293000D02*
X63487500Y-67693000D01*
X64787500Y-65593000D02*
X64187500Y-65593000D01*
X63487500Y-67693000D02*
G75*
G03*
X64187500Y-68393000I699999J-1D01*
G01*
X64787500Y-68393000D02*
G75*
G03*
X65487500Y-67693000I1J699999D01*
G01*
X64187500Y-65593000D02*
G75*
G03*
X63487500Y-66293000I0J-700000D01*
G01*
X65487500Y-66293000D02*
G75*
G03*
X64787500Y-65593000I-700000J0D01*
G01*
D10*
%TO.C,L24*%
X188900167Y-90525499D02*
X188900167Y-89275499D01*
X190150167Y-89275499D02*
X188900167Y-89275499D01*
D11*
%TO.C,JP4*%
X78484000Y-46250000D02*
X80484000Y-46250000D01*
X80484000Y-46250000D02*
X80484000Y-43450000D01*
X78484000Y-43450000D02*
X78484000Y-46250000D01*
X80484000Y-43450000D02*
X78484000Y-43450000D01*
D10*
%TO.C,L2*%
X93650167Y-52425499D02*
X93650167Y-51175499D01*
X94900167Y-51175499D02*
X93650167Y-51175499D01*
%TO.C,L15*%
X150800167Y-71475499D02*
X150800167Y-70225499D01*
X152050167Y-70225499D02*
X150800167Y-70225499D01*
%TO.C,L21*%
X188900167Y-33375499D02*
X188900167Y-32125499D01*
X190150167Y-32125499D02*
X188900167Y-32125499D01*
%TO.C,L8*%
X112700167Y-90525499D02*
X112700167Y-89275499D01*
X113950167Y-89275499D02*
X112700167Y-89275499D01*
%TO.C,L9*%
X131750167Y-33375499D02*
X131750167Y-32125499D01*
X133000167Y-32125499D02*
X131750167Y-32125499D01*
%TO.C,L20*%
X169850167Y-90525499D02*
X169850167Y-89275499D01*
X171100167Y-89275499D02*
X169850167Y-89275499D01*
%TO.C,L14*%
X150800167Y-52425499D02*
X150800167Y-51175499D01*
X152050167Y-51175499D02*
X150800167Y-51175499D01*
%TO.C,L6*%
X112700167Y-52425499D02*
X112700167Y-51175499D01*
X113950167Y-51175499D02*
X112700167Y-51175499D01*
%TO.C,L22*%
X188900167Y-52425499D02*
X188900167Y-51175499D01*
X190150167Y-51175499D02*
X188900167Y-51175499D01*
%TO.C,L3*%
X93650167Y-71475499D02*
X93650167Y-70225499D01*
X94900167Y-70225499D02*
X93650167Y-70225499D01*
%TO.C,L4*%
X93650167Y-90525499D02*
X93650167Y-89275499D01*
X94900167Y-89275499D02*
X93650167Y-89275499D01*
%TO.C,L12*%
X131750167Y-90525499D02*
X131750167Y-89275499D01*
X133000167Y-89275499D02*
X131750167Y-89275499D01*
%TO.C,L19*%
X169850167Y-71475499D02*
X169850167Y-70225499D01*
X171100167Y-70225499D02*
X169850167Y-70225499D01*
%TO.C,L7*%
X112700168Y-71475498D02*
X112700168Y-70225498D01*
X113950168Y-70225498D02*
X112700168Y-70225498D01*
D11*
%TO.C,J3*%
X67868000Y-95543000D02*
X58568000Y-95543000D01*
X67868000Y-93803000D02*
X67868000Y-95543000D01*
X67868000Y-89743000D02*
X67868000Y-91083000D01*
X66378000Y-89743000D02*
X67868000Y-89743000D01*
X66378000Y-89743000D02*
X66378000Y-88543000D01*
X60058000Y-89743000D02*
X58568000Y-89743000D01*
X58568000Y-95543000D02*
X58568000Y-93803000D01*
X58568000Y-89743000D02*
X58568000Y-91083000D01*
D10*
%TO.C,L1*%
X93650167Y-33375499D02*
X93650167Y-32125499D01*
X94900167Y-32125499D02*
X93650167Y-32125499D01*
D11*
%TO.C,U1*%
X38611000Y-36951000D02*
X71631000Y-36951000D01*
X38611000Y-36951000D02*
X38611000Y-39491000D01*
X71631000Y-39491000D02*
X71631000Y-36951000D01*
X38611000Y-39491000D02*
X71631000Y-39491000D01*
X38611000Y-52191000D02*
X71631000Y-52191000D01*
X38611000Y-52191000D02*
X38611000Y-54731000D01*
X71631000Y-54731000D02*
X71631000Y-52191000D01*
X38611000Y-54731000D02*
X71631000Y-54731000D01*
%TD*%
M02*
