%TF.GenerationSoftware,KiCad,Pcbnew,7.0.5*%
%TF.CreationDate,2025-01-15T14:24:01+08:00*%
%TF.ProjectId,TPS,5450532e-6b69-4636-9164-5f7063625858,rev?*%
%TF.SameCoordinates,Original*%
%TF.FileFunction,Drillmap*%
%TF.FilePolarity,Positive*%
%FSLAX45Y45*%
G04 Gerber Fmt 4.5, Leading zero omitted, Abs format (unit mm)*
G04 Created by KiCad (PCBNEW 7.0.5) date 2025-01-15 14:24:01*
%MOMM*%
%LPD*%
G01*
G04 APERTURE LIST*
%ADD10C,0.100000*%
%ADD11C,0.120000*%
%ADD12C,0.200000*%
%ADD13C,0.040000*%
%ADD14C,0.070000*%
%ADD15C,0.090000*%
%ADD16C,0.109220*%
%ADD17C,0.130000*%
%ADD18C,0.150000*%
%ADD19C,0.305000*%
G04 APERTURE END LIST*
D10*
X6927100Y-9921300D02*
X5716800Y-9921300D01*
D11*
X20115500Y-2900000D02*
X3973100Y-2900000D01*
X3846100Y-10393000D02*
G75*
G03*
X3973100Y-10520000I127000J0D01*
G01*
X3973100Y-2900000D02*
G75*
G03*
X3846100Y-3027000I0J-127000D01*
G01*
X20242500Y-10393000D02*
X20242500Y-3027000D01*
D10*
X6927100Y-9921300D02*
G75*
G03*
X6927100Y-9671300I0J125000D01*
G01*
D11*
X20115500Y-10520000D02*
X3973100Y-10520000D01*
X3846100Y-3027000D02*
X3846100Y-10393000D01*
X20115500Y-10520000D02*
G75*
G03*
X20242500Y-10393000I0J127000D01*
G01*
D10*
X5716800Y-9671300D02*
G75*
G03*
X5716800Y-9921300I0J-125000D01*
G01*
D11*
X20242500Y-3027000D02*
G75*
G03*
X20115500Y-2900000I-127000J0D01*
G01*
D10*
X6927100Y-9671300D02*
X5716800Y-9671300D01*
D12*
D13*
X4222100Y-4256000D02*
X4262100Y-4296000D01*
X4262100Y-4256000D02*
X4222100Y-4296000D01*
X4349000Y-4114000D02*
X4389000Y-4154000D01*
X4389000Y-4114000D02*
X4349000Y-4154000D01*
X4483000Y-3141000D02*
X4523000Y-3181000D01*
X4523000Y-3141000D02*
X4483000Y-3181000D01*
X4539000Y-5645000D02*
X4579000Y-5685000D01*
X4579000Y-5645000D02*
X4539000Y-5685000D01*
X4984100Y-4168000D02*
X5024100Y-4208000D01*
X5024100Y-4168000D02*
X4984100Y-4208000D01*
X5618000Y-4833000D02*
X5658000Y-4873000D01*
X5658000Y-4833000D02*
X5618000Y-4873000D01*
X5746100Y-4544000D02*
X5786100Y-4584000D01*
X5786100Y-4544000D02*
X5746100Y-4584000D01*
X5754000Y-6614000D02*
X5794000Y-6654000D01*
X5794000Y-6614000D02*
X5754000Y-6654000D01*
X5920000Y-8834000D02*
X5960000Y-8874000D01*
X5960000Y-8834000D02*
X5920000Y-8874000D01*
X5920750Y-6484250D02*
X5960750Y-6524250D01*
X5960750Y-6484250D02*
X5920750Y-6524250D01*
X5921000Y-6295000D02*
X5961000Y-6335000D01*
X5961000Y-6295000D02*
X5921000Y-6335000D01*
X6000100Y-4619000D02*
X6040100Y-4659000D01*
X6040100Y-4619000D02*
X6000100Y-4659000D01*
X6077000Y-9044000D02*
X6117000Y-9084000D01*
X6117000Y-9044000D02*
X6077000Y-9084000D01*
X6094000Y-8346750D02*
X6134000Y-8386750D01*
X6134000Y-8346750D02*
X6094000Y-8386750D01*
X6127000Y-4879000D02*
X6167000Y-4919000D01*
X6167000Y-4879000D02*
X6127000Y-4919000D01*
X6175000Y-6381000D02*
X6215000Y-6421000D01*
X6215000Y-6381000D02*
X6175000Y-6421000D01*
X6254100Y-4354000D02*
X6294100Y-4394000D01*
X6294100Y-4354000D02*
X6254100Y-4394000D01*
X6302000Y-6222000D02*
X6342000Y-6262000D01*
X6342000Y-6222000D02*
X6302000Y-6262000D01*
X6302000Y-6472000D02*
X6342000Y-6512000D01*
X6342000Y-6472000D02*
X6302000Y-6512000D01*
X6302000Y-8750000D02*
X6342000Y-8790000D01*
X6342000Y-8750000D02*
X6302000Y-8790000D01*
X6381000Y-4760000D02*
X6421000Y-4800000D01*
X6421000Y-4760000D02*
X6381000Y-4800000D01*
X6428000Y-8420000D02*
X6468000Y-8460000D01*
X6468000Y-8420000D02*
X6428000Y-8460000D01*
X6501000Y-8346750D02*
X6541000Y-8386750D01*
X6541000Y-8346750D02*
X6501000Y-8386750D01*
X6508100Y-4545000D02*
X6548100Y-4585000D01*
X6548100Y-4545000D02*
X6508100Y-4585000D01*
X6527000Y-9045000D02*
X6567000Y-9085000D01*
X6567000Y-9045000D02*
X6527000Y-9085000D01*
X6634000Y-4545000D02*
X6674000Y-4585000D01*
X6674000Y-4545000D02*
X6634000Y-4585000D01*
X6682750Y-6373000D02*
X6722750Y-6413000D01*
X6722750Y-6373000D02*
X6682750Y-6413000D01*
X6694000Y-8834000D02*
X6734000Y-8874000D01*
X6734000Y-8834000D02*
X6694000Y-8874000D01*
X6742000Y-7775000D02*
X6782000Y-7815000D01*
X6782000Y-7775000D02*
X6742000Y-7815000D01*
X6762100Y-4354000D02*
X6802100Y-4394000D01*
X6802100Y-4354000D02*
X6762100Y-4394000D01*
X6816000Y-8274000D02*
X6856000Y-8314000D01*
X6856000Y-8274000D02*
X6816000Y-8314000D01*
X6849000Y-6615000D02*
X6889000Y-6655000D01*
X6889000Y-6615000D02*
X6849000Y-6655000D01*
X6889000Y-4281000D02*
X6929000Y-4321000D01*
X6929000Y-4281000D02*
X6889000Y-4321000D01*
X7002000Y-8887000D02*
X7042000Y-8927000D01*
X7042000Y-8887000D02*
X7002000Y-8927000D01*
X7016100Y-3995000D02*
X7056100Y-4035000D01*
X7056100Y-3995000D02*
X7016100Y-4035000D01*
X7253000Y-3421000D02*
X7293000Y-3461000D01*
X7293000Y-3421000D02*
X7253000Y-3461000D01*
X7276000Y-5146000D02*
X7316000Y-5186000D01*
X7316000Y-5146000D02*
X7276000Y-5186000D01*
X7369000Y-5219000D02*
X7409000Y-5259000D01*
X7409000Y-5219000D02*
X7369000Y-5259000D01*
X7396000Y-8600000D02*
X7436000Y-8640000D01*
X7436000Y-8600000D02*
X7396000Y-8640000D01*
X7437000Y-8748000D02*
X7477000Y-8788000D01*
X7477000Y-8748000D02*
X7437000Y-8788000D01*
X7443000Y-5145000D02*
X7483000Y-5185000D01*
X7483000Y-5145000D02*
X7443000Y-5185000D01*
X7445000Y-6005500D02*
X7485000Y-6045500D01*
X7485000Y-6005500D02*
X7445000Y-6045500D01*
X7508000Y-4530000D02*
X7548000Y-4570000D01*
X7548000Y-4530000D02*
X7508000Y-4570000D01*
X7510000Y-6577000D02*
X7550000Y-6617000D01*
X7550000Y-6577000D02*
X7510000Y-6617000D01*
X7515550Y-5072000D02*
X7555550Y-5112000D01*
X7555550Y-5072000D02*
X7515550Y-5112000D01*
X7515550Y-5860000D02*
X7555550Y-5900000D01*
X7555550Y-5860000D02*
X7515550Y-5900000D01*
X7588000Y-4999000D02*
X7628000Y-5039000D01*
X7628000Y-4999000D02*
X7588000Y-5039000D01*
X7588000Y-5933000D02*
X7628000Y-5973000D01*
X7628000Y-5933000D02*
X7588000Y-5973000D01*
X7801000Y-4672000D02*
X7841000Y-4712000D01*
X7841000Y-4672000D02*
X7801000Y-4712000D01*
X8131400Y-4400000D02*
X8171400Y-4440000D01*
X8171400Y-4400000D02*
X8131400Y-4440000D01*
X8527000Y-6332000D02*
X8567000Y-6372000D01*
X8567000Y-6332000D02*
X8527000Y-6372000D01*
X8601000Y-6184000D02*
X8641000Y-6224000D01*
X8641000Y-6184000D02*
X8601000Y-6224000D01*
X8673000Y-6255000D02*
X8713000Y-6295000D01*
X8713000Y-6255000D02*
X8673000Y-6295000D01*
X8746000Y-6701000D02*
X8786000Y-6741000D01*
X8786000Y-6701000D02*
X8746000Y-6741000D01*
X8747000Y-5066000D02*
X8787000Y-5106000D01*
X8787000Y-5066000D02*
X8747000Y-5106000D01*
X8762000Y-8719000D02*
X8802000Y-8759000D01*
X8802000Y-8719000D02*
X8762000Y-8759000D01*
X8778000Y-8596000D02*
X8818000Y-8636000D01*
X8818000Y-8596000D02*
X8778000Y-8636000D01*
X8792000Y-4976000D02*
X8832000Y-5016000D01*
X8832000Y-4976000D02*
X8792000Y-5016000D01*
X8793000Y-6790000D02*
X8833000Y-6830000D01*
X8833000Y-6790000D02*
X8793000Y-6830000D01*
X8852000Y-4542000D02*
X8892000Y-4582000D01*
X8892000Y-4542000D02*
X8852000Y-4582000D01*
X8858000Y-8754000D02*
X8898000Y-8794000D01*
X8898000Y-8754000D02*
X8858000Y-8794000D01*
X8884000Y-4935000D02*
X8924000Y-4975000D01*
X8924000Y-4935000D02*
X8884000Y-4975000D01*
X8884000Y-6850000D02*
X8924000Y-6890000D01*
X8924000Y-6850000D02*
X8884000Y-6890000D01*
X8911000Y-3128000D02*
X8951000Y-3168000D01*
X8951000Y-3128000D02*
X8911000Y-3168000D01*
X8917000Y-8843000D02*
X8957000Y-8883000D01*
X8957000Y-8843000D02*
X8917000Y-8883000D01*
X8970000Y-4545000D02*
X9010000Y-4585000D01*
X9010000Y-4545000D02*
X8970000Y-4585000D01*
X8995000Y-10207000D02*
X9035000Y-10247000D01*
X9035000Y-10207000D02*
X8995000Y-10247000D01*
X9040000Y-3128000D02*
X9080000Y-3168000D01*
X9080000Y-3128000D02*
X9040000Y-3168000D01*
X9040000Y-6938000D02*
X9080000Y-6978000D01*
X9080000Y-6938000D02*
X9040000Y-6978000D01*
X9040000Y-8843000D02*
X9080000Y-8883000D01*
X9080000Y-8843000D02*
X9040000Y-8883000D01*
X9041000Y-5033000D02*
X9081000Y-5073000D01*
X9081000Y-5033000D02*
X9041000Y-5073000D01*
X9345000Y-3124000D02*
X9385000Y-3164000D01*
X9385000Y-3124000D02*
X9345000Y-3164000D01*
X9345000Y-6934000D02*
X9385000Y-6974000D01*
X9385000Y-6934000D02*
X9345000Y-6974000D01*
X9345000Y-8839000D02*
X9385000Y-8879000D01*
X9385000Y-8839000D02*
X9345000Y-8879000D01*
X9346000Y-5029000D02*
X9386000Y-5069000D01*
X9386000Y-5029000D02*
X9346000Y-5069000D01*
X9480000Y-3561000D02*
X9520000Y-3601000D01*
X9520000Y-3561000D02*
X9480000Y-3601000D01*
X9480000Y-5465000D02*
X9520000Y-5505000D01*
X9520000Y-5465000D02*
X9480000Y-5505000D01*
X9480000Y-7370000D02*
X9520000Y-7410000D01*
X9520000Y-7370000D02*
X9480000Y-7410000D01*
X9480000Y-9275000D02*
X9520000Y-9315000D01*
X9520000Y-9275000D02*
X9480000Y-9315000D01*
X9525000Y-3127000D02*
X9565000Y-3167000D01*
X9565000Y-3127000D02*
X9525000Y-3167000D01*
X9525000Y-5032000D02*
X9565000Y-5072000D01*
X9565000Y-5032000D02*
X9525000Y-5072000D01*
X9525000Y-6938000D02*
X9565000Y-6978000D01*
X9565000Y-6938000D02*
X9525000Y-6978000D01*
X9525000Y-8842000D02*
X9565000Y-8882000D01*
X9565000Y-8842000D02*
X9525000Y-8882000D01*
X9980000Y-4685000D02*
X10020000Y-4725000D01*
X10020000Y-4685000D02*
X9980000Y-4725000D01*
X9980000Y-6590000D02*
X10020000Y-6630000D01*
X10020000Y-6590000D02*
X9980000Y-6630000D01*
X9980000Y-8495000D02*
X10020000Y-8535000D01*
X10020000Y-8495000D02*
X9980000Y-8535000D01*
X9980000Y-10400000D02*
X10020000Y-10440000D01*
X10020000Y-10400000D02*
X9980000Y-10440000D01*
X10145000Y-3561000D02*
X10185000Y-3601000D01*
X10185000Y-3561000D02*
X10145000Y-3601000D01*
X10145000Y-5466000D02*
X10185000Y-5506000D01*
X10185000Y-5466000D02*
X10145000Y-5506000D01*
X10145000Y-7371000D02*
X10185000Y-7411000D01*
X10185000Y-7371000D02*
X10145000Y-7411000D01*
X10145000Y-9276000D02*
X10185000Y-9316000D01*
X10185000Y-9276000D02*
X10145000Y-9316000D01*
X10406000Y-9178000D02*
X10446000Y-9218000D01*
X10446000Y-9178000D02*
X10406000Y-9218000D01*
X10415000Y-4565000D02*
X10455000Y-4605000D01*
X10455000Y-4565000D02*
X10415000Y-4605000D01*
X10415000Y-6470000D02*
X10455000Y-6510000D01*
X10455000Y-6470000D02*
X10415000Y-6510000D01*
X10415000Y-8375000D02*
X10455000Y-8415000D01*
X10455000Y-8375000D02*
X10415000Y-8415000D01*
X10415000Y-10280000D02*
X10455000Y-10320000D01*
X10455000Y-10280000D02*
X10415000Y-10320000D01*
X10440000Y-8642000D02*
X10480000Y-8682000D01*
X10480000Y-8642000D02*
X10440000Y-8682000D01*
X10520000Y-5097000D02*
X10560000Y-5137000D01*
X10560000Y-5097000D02*
X10520000Y-5137000D01*
X10520000Y-7001000D02*
X10560000Y-7041000D01*
X10560000Y-7001000D02*
X10520000Y-7041000D01*
X10520000Y-8907000D02*
X10560000Y-8947000D01*
X10560000Y-8907000D02*
X10520000Y-8947000D01*
X10521000Y-3193000D02*
X10561000Y-3233000D01*
X10561000Y-3193000D02*
X10521000Y-3233000D01*
X10698000Y-8993000D02*
X10738000Y-9033000D01*
X10738000Y-8993000D02*
X10698000Y-9033000D01*
X11032000Y-8652000D02*
X11072000Y-8692000D01*
X11072000Y-8652000D02*
X11032000Y-8692000D01*
X11250000Y-3124000D02*
X11290000Y-3164000D01*
X11290000Y-3124000D02*
X11250000Y-3164000D01*
X11250000Y-5029000D02*
X11290000Y-5069000D01*
X11290000Y-5029000D02*
X11250000Y-5069000D01*
X11250000Y-6934000D02*
X11290000Y-6974000D01*
X11290000Y-6934000D02*
X11250000Y-6974000D01*
X11250000Y-8839000D02*
X11290000Y-8879000D01*
X11290000Y-8839000D02*
X11250000Y-8879000D01*
X11320017Y-4795983D02*
X11360017Y-4835983D01*
X11360017Y-4795983D02*
X11320017Y-4835983D01*
X11385000Y-3560000D02*
X11425000Y-3600000D01*
X11425000Y-3560000D02*
X11385000Y-3600000D01*
X11385000Y-5466000D02*
X11425000Y-5506000D01*
X11425000Y-5466000D02*
X11385000Y-5506000D01*
X11385000Y-7371000D02*
X11425000Y-7411000D01*
X11425000Y-7371000D02*
X11385000Y-7411000D01*
X11385000Y-9275000D02*
X11425000Y-9315000D01*
X11425000Y-9275000D02*
X11385000Y-9315000D01*
X11430000Y-5033000D02*
X11470000Y-5073000D01*
X11470000Y-5033000D02*
X11430000Y-5073000D01*
X11430000Y-6937000D02*
X11470000Y-6977000D01*
X11470000Y-6937000D02*
X11430000Y-6977000D01*
X11430000Y-8842000D02*
X11470000Y-8882000D01*
X11470000Y-8842000D02*
X11430000Y-8882000D01*
X11431000Y-3127000D02*
X11471000Y-3167000D01*
X11471000Y-3127000D02*
X11431000Y-3167000D01*
X11507000Y-8401000D02*
X11547000Y-8441000D01*
X11547000Y-8401000D02*
X11507000Y-8441000D01*
X11509000Y-6497000D02*
X11549000Y-6537000D01*
X11549000Y-6497000D02*
X11509000Y-6537000D01*
X11717000Y-4783000D02*
X11757000Y-4823000D01*
X11757000Y-4783000D02*
X11717000Y-4823000D01*
X11885000Y-4685000D02*
X11925000Y-4725000D01*
X11925000Y-4685000D02*
X11885000Y-4725000D01*
X11885000Y-6590000D02*
X11925000Y-6630000D01*
X11925000Y-6590000D02*
X11885000Y-6630000D01*
X11885000Y-8495000D02*
X11925000Y-8535000D01*
X11925000Y-8495000D02*
X11885000Y-8535000D01*
X11885000Y-10400000D02*
X11925000Y-10440000D01*
X11925000Y-10400000D02*
X11885000Y-10440000D01*
X11915000Y-5051000D02*
X11955000Y-5091000D01*
X11955000Y-5051000D02*
X11915000Y-5091000D01*
X11915000Y-6956000D02*
X11955000Y-6996000D01*
X11955000Y-6956000D02*
X11915000Y-6996000D01*
X11915000Y-8861000D02*
X11955000Y-8901000D01*
X11955000Y-8861000D02*
X11915000Y-8901000D01*
X12050000Y-3561000D02*
X12090000Y-3601000D01*
X12090000Y-3561000D02*
X12050000Y-3601000D01*
X12050000Y-5466000D02*
X12090000Y-5506000D01*
X12090000Y-5466000D02*
X12050000Y-5506000D01*
X12050000Y-7371000D02*
X12090000Y-7411000D01*
X12090000Y-7371000D02*
X12050000Y-7411000D01*
X12050000Y-9276000D02*
X12090000Y-9316000D01*
X12090000Y-9276000D02*
X12050000Y-9316000D01*
X12320000Y-4565000D02*
X12360000Y-4605000D01*
X12360000Y-4565000D02*
X12320000Y-4605000D01*
X12320000Y-6470000D02*
X12360000Y-6510000D01*
X12360000Y-6470000D02*
X12320000Y-6510000D01*
X12320000Y-8375000D02*
X12360000Y-8415000D01*
X12360000Y-8375000D02*
X12320000Y-8415000D01*
X12320000Y-10280000D02*
X12360000Y-10320000D01*
X12360000Y-10280000D02*
X12320000Y-10320000D01*
X12425000Y-3193000D02*
X12465000Y-3233000D01*
X12465000Y-3193000D02*
X12425000Y-3233000D01*
X12425000Y-5097000D02*
X12465000Y-5137000D01*
X12465000Y-5097000D02*
X12425000Y-5137000D01*
X12425000Y-7001000D02*
X12465000Y-7041000D01*
X12465000Y-7001000D02*
X12425000Y-7041000D01*
X12425000Y-8907000D02*
X12465000Y-8947000D01*
X12465000Y-8907000D02*
X12425000Y-8947000D01*
X12603000Y-3417000D02*
X12643000Y-3457000D01*
X12643000Y-3417000D02*
X12603000Y-3457000D01*
X13155000Y-3124000D02*
X13195000Y-3164000D01*
X13195000Y-3124000D02*
X13155000Y-3164000D01*
X13155000Y-5029000D02*
X13195000Y-5069000D01*
X13195000Y-5029000D02*
X13155000Y-5069000D01*
X13155000Y-6934000D02*
X13195000Y-6974000D01*
X13195000Y-6934000D02*
X13155000Y-6974000D01*
X13155000Y-8839000D02*
X13195000Y-8879000D01*
X13195000Y-8839000D02*
X13155000Y-8879000D01*
X13225017Y-6700983D02*
X13265017Y-6740983D01*
X13265017Y-6700983D02*
X13225017Y-6740983D01*
X13290000Y-3561000D02*
X13330000Y-3601000D01*
X13330000Y-3561000D02*
X13290000Y-3601000D01*
X13290000Y-5466000D02*
X13330000Y-5506000D01*
X13330000Y-5466000D02*
X13290000Y-5506000D01*
X13290000Y-7371000D02*
X13330000Y-7411000D01*
X13330000Y-7371000D02*
X13290000Y-7411000D01*
X13290000Y-9276000D02*
X13330000Y-9316000D01*
X13330000Y-9276000D02*
X13290000Y-9316000D01*
X13335000Y-6937000D02*
X13375000Y-6977000D01*
X13375000Y-6937000D02*
X13335000Y-6977000D01*
X13335000Y-8843000D02*
X13375000Y-8883000D01*
X13375000Y-8843000D02*
X13335000Y-8883000D01*
X13336000Y-3128000D02*
X13376000Y-3168000D01*
X13376000Y-3128000D02*
X13336000Y-3168000D01*
X13336000Y-5033000D02*
X13376000Y-5073000D01*
X13376000Y-5033000D02*
X13336000Y-5073000D01*
X13790000Y-4685000D02*
X13830000Y-4725000D01*
X13830000Y-4685000D02*
X13790000Y-4725000D01*
X13790000Y-6590000D02*
X13830000Y-6630000D01*
X13830000Y-6590000D02*
X13790000Y-6630000D01*
X13790000Y-8495000D02*
X13830000Y-8535000D01*
X13830000Y-8495000D02*
X13790000Y-8535000D01*
X13790000Y-10400000D02*
X13830000Y-10440000D01*
X13830000Y-10400000D02*
X13790000Y-10440000D01*
X13955000Y-3561000D02*
X13995000Y-3601000D01*
X13995000Y-3561000D02*
X13955000Y-3601000D01*
X13955000Y-5466000D02*
X13995000Y-5506000D01*
X13995000Y-5466000D02*
X13955000Y-5506000D01*
X13955000Y-7371000D02*
X13995000Y-7411000D01*
X13995000Y-7371000D02*
X13955000Y-7411000D01*
X13955000Y-9276000D02*
X13995000Y-9316000D01*
X13995000Y-9276000D02*
X13955000Y-9316000D01*
X14225000Y-4565000D02*
X14265000Y-4605000D01*
X14265000Y-4565000D02*
X14225000Y-4605000D01*
X14225000Y-6470000D02*
X14265000Y-6510000D01*
X14265000Y-6470000D02*
X14225000Y-6510000D01*
X14225000Y-8375000D02*
X14265000Y-8415000D01*
X14265000Y-8375000D02*
X14225000Y-8415000D01*
X14225000Y-10280000D02*
X14265000Y-10320000D01*
X14265000Y-10280000D02*
X14225000Y-10320000D01*
X14330000Y-3193000D02*
X14370000Y-3233000D01*
X14370000Y-3193000D02*
X14330000Y-3233000D01*
X14330000Y-5097000D02*
X14370000Y-5137000D01*
X14370000Y-5097000D02*
X14330000Y-5137000D01*
X14330000Y-7001000D02*
X14370000Y-7041000D01*
X14370000Y-7001000D02*
X14330000Y-7041000D01*
X14330000Y-8907000D02*
X14370000Y-8947000D01*
X14370000Y-8907000D02*
X14330000Y-8947000D01*
X14508000Y-8992000D02*
X14548000Y-9032000D01*
X14548000Y-8992000D02*
X14508000Y-9032000D01*
X15060000Y-3124000D02*
X15100000Y-3164000D01*
X15100000Y-3124000D02*
X15060000Y-3164000D01*
X15060000Y-5029000D02*
X15100000Y-5069000D01*
X15100000Y-5029000D02*
X15060000Y-5069000D01*
X15060000Y-8839000D02*
X15100000Y-8879000D01*
X15100000Y-8839000D02*
X15060000Y-8879000D01*
X15061000Y-6934000D02*
X15101000Y-6974000D01*
X15101000Y-6934000D02*
X15061000Y-6974000D01*
X15130017Y-6700983D02*
X15170017Y-6740983D01*
X15170017Y-6700983D02*
X15130017Y-6740983D01*
X15195000Y-3560000D02*
X15235000Y-3600000D01*
X15235000Y-3560000D02*
X15195000Y-3600000D01*
X15195000Y-5466000D02*
X15235000Y-5506000D01*
X15235000Y-5466000D02*
X15195000Y-5506000D01*
X15195000Y-7370000D02*
X15235000Y-7410000D01*
X15235000Y-7370000D02*
X15195000Y-7410000D01*
X15195000Y-9275000D02*
X15235000Y-9315000D01*
X15235000Y-9275000D02*
X15195000Y-9315000D01*
X15240000Y-3128000D02*
X15280000Y-3168000D01*
X15280000Y-3128000D02*
X15240000Y-3168000D01*
X15240000Y-5032000D02*
X15280000Y-5072000D01*
X15280000Y-5032000D02*
X15240000Y-5072000D01*
X15240000Y-6938000D02*
X15280000Y-6978000D01*
X15280000Y-6938000D02*
X15240000Y-6978000D01*
X15241000Y-8843000D02*
X15281000Y-8883000D01*
X15281000Y-8843000D02*
X15241000Y-8883000D01*
X15317000Y-8402000D02*
X15357000Y-8442000D01*
X15357000Y-8402000D02*
X15317000Y-8442000D01*
X15525000Y-4784000D02*
X15565000Y-4824000D01*
X15565000Y-4784000D02*
X15525000Y-4824000D01*
X15525000Y-6690000D02*
X15565000Y-6730000D01*
X15565000Y-6690000D02*
X15525000Y-6730000D01*
X15694000Y-8495000D02*
X15734000Y-8535000D01*
X15734000Y-8495000D02*
X15694000Y-8535000D01*
X15695000Y-4685000D02*
X15735000Y-4725000D01*
X15735000Y-4685000D02*
X15695000Y-4725000D01*
X15695000Y-6590000D02*
X15735000Y-6630000D01*
X15735000Y-6590000D02*
X15695000Y-6630000D01*
X15695000Y-10400000D02*
X15735000Y-10440000D01*
X15735000Y-10400000D02*
X15695000Y-10440000D01*
X15725000Y-5051000D02*
X15765000Y-5091000D01*
X15765000Y-5051000D02*
X15725000Y-5091000D01*
X15725000Y-6956000D02*
X15765000Y-6996000D01*
X15765000Y-6956000D02*
X15725000Y-6996000D01*
X15725000Y-8861000D02*
X15765000Y-8901000D01*
X15765000Y-8861000D02*
X15725000Y-8901000D01*
X15860000Y-3561000D02*
X15900000Y-3601000D01*
X15900000Y-3561000D02*
X15860000Y-3601000D01*
X15860000Y-5466000D02*
X15900000Y-5506000D01*
X15900000Y-5466000D02*
X15860000Y-5506000D01*
X15860000Y-7371000D02*
X15900000Y-7411000D01*
X15900000Y-7371000D02*
X15860000Y-7411000D01*
X15860000Y-9276000D02*
X15900000Y-9316000D01*
X15900000Y-9276000D02*
X15860000Y-9316000D01*
X16130000Y-4565000D02*
X16170000Y-4605000D01*
X16170000Y-4565000D02*
X16130000Y-4605000D01*
X16130000Y-6470000D02*
X16170000Y-6510000D01*
X16170000Y-6470000D02*
X16130000Y-6510000D01*
X16130000Y-8375000D02*
X16170000Y-8415000D01*
X16170000Y-8375000D02*
X16130000Y-8415000D01*
X16130000Y-10280000D02*
X16170000Y-10320000D01*
X16170000Y-10280000D02*
X16130000Y-10320000D01*
X16235000Y-3193000D02*
X16275000Y-3233000D01*
X16275000Y-3193000D02*
X16235000Y-3233000D01*
X16235000Y-7002000D02*
X16275000Y-7042000D01*
X16275000Y-7002000D02*
X16235000Y-7042000D01*
X16235000Y-8907000D02*
X16275000Y-8947000D01*
X16275000Y-8907000D02*
X16235000Y-8947000D01*
X16236000Y-5097000D02*
X16276000Y-5137000D01*
X16276000Y-5097000D02*
X16236000Y-5137000D01*
X16413000Y-3417000D02*
X16453000Y-3457000D01*
X16453000Y-3417000D02*
X16413000Y-3457000D01*
X16965000Y-3124000D02*
X17005000Y-3164000D01*
X17005000Y-3124000D02*
X16965000Y-3164000D01*
X16965000Y-5029000D02*
X17005000Y-5069000D01*
X17005000Y-5029000D02*
X16965000Y-5069000D01*
X16965000Y-6934000D02*
X17005000Y-6974000D01*
X17005000Y-6934000D02*
X16965000Y-6974000D01*
X16965000Y-8839000D02*
X17005000Y-8879000D01*
X17005000Y-8839000D02*
X16965000Y-8879000D01*
X17035017Y-8605983D02*
X17075017Y-8645983D01*
X17075017Y-8605983D02*
X17035017Y-8645983D01*
X17100000Y-3561000D02*
X17140000Y-3601000D01*
X17140000Y-3561000D02*
X17100000Y-3601000D01*
X17100000Y-5465000D02*
X17140000Y-5505000D01*
X17140000Y-5465000D02*
X17100000Y-5505000D01*
X17100000Y-7371000D02*
X17140000Y-7411000D01*
X17140000Y-7371000D02*
X17100000Y-7411000D01*
X17100000Y-9276000D02*
X17140000Y-9316000D01*
X17140000Y-9276000D02*
X17100000Y-9316000D01*
X17145000Y-8842000D02*
X17185000Y-8882000D01*
X17185000Y-8842000D02*
X17145000Y-8882000D01*
X17146000Y-3127000D02*
X17186000Y-3167000D01*
X17186000Y-3127000D02*
X17146000Y-3167000D01*
X17146000Y-5032000D02*
X17186000Y-5072000D01*
X17186000Y-5032000D02*
X17146000Y-5072000D01*
X17146000Y-6937000D02*
X17186000Y-6977000D01*
X17186000Y-6937000D02*
X17146000Y-6977000D01*
X17600000Y-4685000D02*
X17640000Y-4725000D01*
X17640000Y-4685000D02*
X17600000Y-4725000D01*
X17600000Y-6590000D02*
X17640000Y-6630000D01*
X17640000Y-6590000D02*
X17600000Y-6630000D01*
X17600000Y-8495000D02*
X17640000Y-8535000D01*
X17640000Y-8495000D02*
X17600000Y-8535000D01*
X17600000Y-10400000D02*
X17640000Y-10440000D01*
X17640000Y-10400000D02*
X17600000Y-10440000D01*
X17765000Y-3561000D02*
X17805000Y-3601000D01*
X17805000Y-3561000D02*
X17765000Y-3601000D01*
X17765000Y-5466000D02*
X17805000Y-5506000D01*
X17805000Y-5466000D02*
X17765000Y-5506000D01*
X17765000Y-7371000D02*
X17805000Y-7411000D01*
X17805000Y-7371000D02*
X17765000Y-7411000D01*
X17765000Y-9276000D02*
X17805000Y-9316000D01*
X17805000Y-9276000D02*
X17765000Y-9316000D01*
X18035000Y-4565000D02*
X18075000Y-4605000D01*
X18075000Y-4565000D02*
X18035000Y-4605000D01*
X18035000Y-6470000D02*
X18075000Y-6510000D01*
X18075000Y-6470000D02*
X18035000Y-6510000D01*
X18035000Y-8375000D02*
X18075000Y-8415000D01*
X18075000Y-8375000D02*
X18035000Y-8415000D01*
X18035000Y-10280000D02*
X18075000Y-10320000D01*
X18075000Y-10280000D02*
X18035000Y-10320000D01*
X18140000Y-5096000D02*
X18180000Y-5136000D01*
X18180000Y-5096000D02*
X18140000Y-5136000D01*
X18140000Y-7002000D02*
X18180000Y-7042000D01*
X18180000Y-7002000D02*
X18140000Y-7042000D01*
X18140000Y-8907000D02*
X18180000Y-8947000D01*
X18180000Y-8907000D02*
X18140000Y-8947000D01*
X18141000Y-3193000D02*
X18181000Y-3233000D01*
X18181000Y-3193000D02*
X18141000Y-3233000D01*
X18318000Y-8992000D02*
X18358000Y-9032000D01*
X18358000Y-8992000D02*
X18318000Y-9032000D01*
X18870000Y-3124000D02*
X18910000Y-3164000D01*
X18910000Y-3124000D02*
X18870000Y-3164000D01*
X18870000Y-5029000D02*
X18910000Y-5069000D01*
X18910000Y-5029000D02*
X18870000Y-5069000D01*
X18870000Y-6935000D02*
X18910000Y-6975000D01*
X18910000Y-6935000D02*
X18870000Y-6975000D01*
X18870000Y-8839000D02*
X18910000Y-8879000D01*
X18910000Y-8839000D02*
X18870000Y-8879000D01*
X18940017Y-8605983D02*
X18980017Y-8645983D01*
X18980017Y-8605983D02*
X18940017Y-8645983D01*
X19005000Y-3561000D02*
X19045000Y-3601000D01*
X19045000Y-3561000D02*
X19005000Y-3601000D01*
X19005000Y-5465000D02*
X19045000Y-5505000D01*
X19045000Y-5465000D02*
X19005000Y-5505000D01*
X19005000Y-7370000D02*
X19045000Y-7410000D01*
X19045000Y-7370000D02*
X19005000Y-7410000D01*
X19005000Y-9275000D02*
X19045000Y-9315000D01*
X19045000Y-9275000D02*
X19005000Y-9315000D01*
X19050000Y-3128000D02*
X19090000Y-3168000D01*
X19090000Y-3128000D02*
X19050000Y-3168000D01*
X19050000Y-5032000D02*
X19090000Y-5072000D01*
X19090000Y-5032000D02*
X19050000Y-5072000D01*
X19050000Y-6937000D02*
X19090000Y-6977000D01*
X19090000Y-6937000D02*
X19050000Y-6977000D01*
X19050000Y-8842000D02*
X19090000Y-8882000D01*
X19090000Y-8842000D02*
X19050000Y-8882000D01*
X19334000Y-8595000D02*
X19374000Y-8635000D01*
X19374000Y-8595000D02*
X19334000Y-8635000D01*
X19336000Y-6689000D02*
X19376000Y-6729000D01*
X19376000Y-6689000D02*
X19336000Y-6729000D01*
X19337000Y-4785000D02*
X19377000Y-4825000D01*
X19377000Y-4785000D02*
X19337000Y-4825000D01*
X19505000Y-4685000D02*
X19545000Y-4725000D01*
X19545000Y-4685000D02*
X19505000Y-4725000D01*
X19505000Y-6590000D02*
X19545000Y-6630000D01*
X19545000Y-6590000D02*
X19505000Y-6630000D01*
X19505000Y-8495000D02*
X19545000Y-8535000D01*
X19545000Y-8495000D02*
X19505000Y-8535000D01*
X19505000Y-10400000D02*
X19545000Y-10440000D01*
X19545000Y-10400000D02*
X19505000Y-10440000D01*
X19535000Y-5051000D02*
X19575000Y-5091000D01*
X19575000Y-5051000D02*
X19535000Y-5091000D01*
X19535000Y-6956000D02*
X19575000Y-6996000D01*
X19575000Y-6956000D02*
X19535000Y-6996000D01*
X19535000Y-8861000D02*
X19575000Y-8901000D01*
X19575000Y-8861000D02*
X19535000Y-8901000D01*
X19670000Y-3561000D02*
X19710000Y-3601000D01*
X19710000Y-3561000D02*
X19670000Y-3601000D01*
X19670000Y-5466000D02*
X19710000Y-5506000D01*
X19710000Y-5466000D02*
X19670000Y-5506000D01*
X19670000Y-7371000D02*
X19710000Y-7411000D01*
X19710000Y-7371000D02*
X19670000Y-7411000D01*
X19670000Y-9276000D02*
X19710000Y-9316000D01*
X19710000Y-9276000D02*
X19670000Y-9316000D01*
X19940000Y-4565000D02*
X19980000Y-4605000D01*
X19980000Y-4565000D02*
X19940000Y-4605000D01*
X19940000Y-6470000D02*
X19980000Y-6510000D01*
X19980000Y-6470000D02*
X19940000Y-6510000D01*
X19940000Y-8375000D02*
X19980000Y-8415000D01*
X19980000Y-8375000D02*
X19940000Y-8415000D01*
X19940000Y-10280000D02*
X19980000Y-10320000D01*
X19980000Y-10280000D02*
X19940000Y-10320000D01*
X20045000Y-5096000D02*
X20085000Y-5136000D01*
X20085000Y-5096000D02*
X20045000Y-5136000D01*
X20045000Y-8907000D02*
X20085000Y-8947000D01*
X20085000Y-8907000D02*
X20045000Y-8947000D01*
X20046000Y-3192000D02*
X20086000Y-3232000D01*
X20086000Y-3192000D02*
X20046000Y-3232000D01*
X20046000Y-7002000D02*
X20086000Y-7042000D01*
X20086000Y-7002000D02*
X20046000Y-7042000D01*
X20102000Y-10378000D02*
X20142000Y-10418000D01*
X20142000Y-10378000D02*
X20102000Y-10418000D01*
D14*
X4770100Y-6175300D02*
G75*
G03*
X4770100Y-6175300I-35000J0D01*
G01*
X4770100Y-6429300D02*
G75*
G03*
X4770100Y-6429300I-35000J0D01*
G01*
X5532100Y-6175300D02*
G75*
G03*
X5532100Y-6175300I-35000J0D01*
G01*
X5532100Y-6429300D02*
G75*
G03*
X5532100Y-6429300I-35000J0D01*
G01*
X7181500Y-6175300D02*
G75*
G03*
X7181500Y-6175300I-35000J0D01*
G01*
X7181500Y-6429300D02*
G75*
G03*
X7181500Y-6429300I-35000J0D01*
G01*
X7943500Y-6175300D02*
G75*
G03*
X7943500Y-6175300I-35000J0D01*
G01*
X7943500Y-6429300D02*
G75*
G03*
X7943500Y-6429300I-35000J0D01*
G01*
D15*
X7491400Y-3185200D02*
X7491400Y-3275200D01*
X7446400Y-3230200D02*
X7536400Y-3230200D01*
D12*
X7446400Y-3210200D02*
X7446400Y-3250200D01*
X7446400Y-3250200D02*
G75*
G03*
X7536400Y-3250200I45000J0D01*
G01*
X7536400Y-3250200D02*
X7536400Y-3210200D01*
X7536400Y-3210200D02*
G75*
G03*
X7446400Y-3210200I-45000J0D01*
G01*
D15*
X7491400Y-3490000D02*
X7491400Y-3580000D01*
X7446400Y-3535000D02*
X7536400Y-3535000D01*
D12*
X7446400Y-3515000D02*
X7446400Y-3555000D01*
X7446400Y-3555000D02*
G75*
G03*
X7536400Y-3555000I45000J0D01*
G01*
X7536400Y-3555000D02*
X7536400Y-3515000D01*
X7536400Y-3515000D02*
G75*
G03*
X7446400Y-3515000I-45000J0D01*
G01*
D15*
X7491400Y-3890000D02*
X7491400Y-3980000D01*
X7446400Y-3935000D02*
X7536400Y-3935000D01*
D12*
X7446400Y-3915000D02*
X7446400Y-3955000D01*
X7446400Y-3955000D02*
G75*
G03*
X7536400Y-3955000I45000J0D01*
G01*
X7536400Y-3955000D02*
X7536400Y-3915000D01*
X7536400Y-3915000D02*
G75*
G03*
X7446400Y-3915000I-45000J0D01*
G01*
D15*
X7691400Y-4000000D02*
X7691400Y-4090000D01*
X7646400Y-4045000D02*
X7736400Y-4045000D01*
D12*
X7646400Y-4025000D02*
X7646400Y-4065000D01*
X7646400Y-4065000D02*
G75*
G03*
X7736400Y-4065000I45000J0D01*
G01*
X7736400Y-4065000D02*
X7736400Y-4025000D01*
X7736400Y-4025000D02*
G75*
G03*
X7646400Y-4025000I-45000J0D01*
G01*
D15*
X7951400Y-4000000D02*
X7951400Y-4090000D01*
X7906400Y-4045000D02*
X7996400Y-4045000D01*
D12*
X7906400Y-4025000D02*
X7906400Y-4065000D01*
X7906400Y-4065000D02*
G75*
G03*
X7996400Y-4065000I45000J0D01*
G01*
X7996400Y-4065000D02*
X7996400Y-4025000D01*
X7996400Y-4025000D02*
G75*
G03*
X7906400Y-4025000I-45000J0D01*
G01*
D15*
X8151400Y-3185200D02*
X8151400Y-3275200D01*
X8106400Y-3230200D02*
X8196400Y-3230200D01*
D12*
X8106400Y-3210200D02*
X8106400Y-3250200D01*
X8106400Y-3250200D02*
G75*
G03*
X8196400Y-3250200I45000J0D01*
G01*
X8196400Y-3250200D02*
X8196400Y-3210200D01*
X8196400Y-3210200D02*
G75*
G03*
X8106400Y-3210200I-45000J0D01*
G01*
D15*
X8151400Y-3490000D02*
X8151400Y-3580000D01*
X8106400Y-3535000D02*
X8196400Y-3535000D01*
D12*
X8106400Y-3515000D02*
X8106400Y-3555000D01*
X8106400Y-3555000D02*
G75*
G03*
X8196400Y-3555000I45000J0D01*
G01*
X8196400Y-3555000D02*
X8196400Y-3515000D01*
X8196400Y-3515000D02*
G75*
G03*
X8106400Y-3515000I-45000J0D01*
G01*
D15*
X8151400Y-3890000D02*
X8151400Y-3980000D01*
X8106400Y-3935000D02*
X8196400Y-3935000D01*
D12*
X8106400Y-3915000D02*
X8106400Y-3955000D01*
X8106400Y-3955000D02*
G75*
G03*
X8196400Y-3955000I45000J0D01*
G01*
X8196400Y-3955000D02*
X8196400Y-3915000D01*
X8196400Y-3915000D02*
G75*
G03*
X8106400Y-3915000I-45000J0D01*
G01*
D10*
X5607156Y-7829656D02*
X5607156Y-7758944D01*
X5536444Y-7758944D01*
X5536444Y-7829656D01*
X5607156Y-7829656D01*
X5607156Y-8079656D02*
X5607156Y-8008944D01*
X5536444Y-8008944D01*
X5536444Y-8079656D01*
X5607156Y-8079656D01*
X5607156Y-8329656D02*
X5607156Y-8258944D01*
X5536444Y-8258944D01*
X5536444Y-8329656D01*
X5607156Y-8329656D01*
X5976106Y-7242656D02*
X5976106Y-7171944D01*
X5905394Y-7171944D01*
X5905394Y-7242656D01*
X5976106Y-7242656D01*
X6230106Y-7242656D02*
X6230106Y-7171944D01*
X6159394Y-7171944D01*
X6159394Y-7242656D01*
X6230106Y-7242656D01*
X6484106Y-7242656D02*
X6484106Y-7171944D01*
X6413394Y-7171944D01*
X6413394Y-7242656D01*
X6484106Y-7242656D01*
X6738106Y-7242656D02*
X6738106Y-7171944D01*
X6667394Y-7171944D01*
X6667394Y-7242656D01*
X6738106Y-7242656D01*
X7057156Y-7829656D02*
X7057156Y-7758944D01*
X6986444Y-7758944D01*
X6986444Y-7829656D01*
X7057156Y-7829656D01*
X7057156Y-8329656D02*
X7057156Y-8258944D01*
X6986444Y-8258944D01*
X6986444Y-8329656D01*
X7057156Y-8329656D01*
D16*
X3988100Y-3622710D02*
X4042710Y-3568100D01*
X3988100Y-3513490D01*
X3933490Y-3568100D01*
X3988100Y-3622710D01*
X3988100Y-3876710D02*
X4042710Y-3822100D01*
X3988100Y-3767490D01*
X3933490Y-3822100D01*
X3988100Y-3876710D01*
X3988100Y-5146710D02*
X4042710Y-5092100D01*
X3988100Y-5037490D01*
X3933490Y-5092100D01*
X3988100Y-5146710D01*
X3988100Y-5400710D02*
X4042710Y-5346100D01*
X3988100Y-5291490D01*
X3933490Y-5346100D01*
X3988100Y-5400710D01*
X4242100Y-3622710D02*
X4296710Y-3568100D01*
X4242100Y-3513490D01*
X4187490Y-3568100D01*
X4242100Y-3622710D01*
X4242100Y-3876710D02*
X4296710Y-3822100D01*
X4242100Y-3767490D01*
X4187490Y-3822100D01*
X4242100Y-3876710D01*
X4242100Y-5146710D02*
X4296710Y-5092100D01*
X4242100Y-5037490D01*
X4187490Y-5092100D01*
X4242100Y-5146710D01*
X4242100Y-5400710D02*
X4296710Y-5346100D01*
X4242100Y-5291490D01*
X4187490Y-5346100D01*
X4242100Y-5400710D01*
X4496100Y-3622710D02*
X4550710Y-3568100D01*
X4496100Y-3513490D01*
X4441490Y-3568100D01*
X4496100Y-3622710D01*
X4496100Y-3876710D02*
X4550710Y-3822100D01*
X4496100Y-3767490D01*
X4441490Y-3822100D01*
X4496100Y-3876710D01*
X4496100Y-5146710D02*
X4550710Y-5092100D01*
X4496100Y-5037490D01*
X4441490Y-5092100D01*
X4496100Y-5146710D01*
X4496100Y-5400710D02*
X4550710Y-5346100D01*
X4496100Y-5291490D01*
X4441490Y-5346100D01*
X4496100Y-5400710D01*
X4750100Y-3622710D02*
X4804710Y-3568100D01*
X4750100Y-3513490D01*
X4695490Y-3568100D01*
X4750100Y-3622710D01*
X4750100Y-3876710D02*
X4804710Y-3822100D01*
X4750100Y-3767490D01*
X4695490Y-3822100D01*
X4750100Y-3876710D01*
X4750100Y-5146710D02*
X4804710Y-5092100D01*
X4750100Y-5037490D01*
X4695490Y-5092100D01*
X4750100Y-5146710D01*
X4750100Y-5400710D02*
X4804710Y-5346100D01*
X4750100Y-5291490D01*
X4695490Y-5346100D01*
X4750100Y-5400710D01*
X5004100Y-3622710D02*
X5058710Y-3568100D01*
X5004100Y-3513490D01*
X4949490Y-3568100D01*
X5004100Y-3622710D01*
X5004100Y-3876710D02*
X5058710Y-3822100D01*
X5004100Y-3767490D01*
X4949490Y-3822100D01*
X5004100Y-3876710D01*
X5004100Y-5146710D02*
X5058710Y-5092100D01*
X5004100Y-5037490D01*
X4949490Y-5092100D01*
X5004100Y-5146710D01*
X5004100Y-5400710D02*
X5058710Y-5346100D01*
X5004100Y-5291490D01*
X4949490Y-5346100D01*
X5004100Y-5400710D01*
X5258100Y-3622710D02*
X5312710Y-3568100D01*
X5258100Y-3513490D01*
X5203490Y-3568100D01*
X5258100Y-3622710D01*
X5258100Y-3876710D02*
X5312710Y-3822100D01*
X5258100Y-3767490D01*
X5203490Y-3822100D01*
X5258100Y-3876710D01*
X5258100Y-5146710D02*
X5312710Y-5092100D01*
X5258100Y-5037490D01*
X5203490Y-5092100D01*
X5258100Y-5146710D01*
X5258100Y-5400710D02*
X5312710Y-5346100D01*
X5258100Y-5291490D01*
X5203490Y-5346100D01*
X5258100Y-5400710D01*
X5512100Y-3622710D02*
X5566710Y-3568100D01*
X5512100Y-3513490D01*
X5457490Y-3568100D01*
X5512100Y-3622710D01*
X5512100Y-3876710D02*
X5566710Y-3822100D01*
X5512100Y-3767490D01*
X5457490Y-3822100D01*
X5512100Y-3876710D01*
X5512100Y-5146710D02*
X5566710Y-5092100D01*
X5512100Y-5037490D01*
X5457490Y-5092100D01*
X5512100Y-5146710D01*
X5512100Y-5400710D02*
X5566710Y-5346100D01*
X5512100Y-5291490D01*
X5457490Y-5346100D01*
X5512100Y-5400710D01*
X5766100Y-3622710D02*
X5820710Y-3568100D01*
X5766100Y-3513490D01*
X5711490Y-3568100D01*
X5766100Y-3622710D01*
X5766100Y-3876710D02*
X5820710Y-3822100D01*
X5766100Y-3767490D01*
X5711490Y-3822100D01*
X5766100Y-3876710D01*
X5766100Y-5146710D02*
X5820710Y-5092100D01*
X5766100Y-5037490D01*
X5711490Y-5092100D01*
X5766100Y-5146710D01*
X5766100Y-5400710D02*
X5820710Y-5346100D01*
X5766100Y-5291490D01*
X5711490Y-5346100D01*
X5766100Y-5400710D01*
X6020100Y-3622710D02*
X6074710Y-3568100D01*
X6020100Y-3513490D01*
X5965490Y-3568100D01*
X6020100Y-3622710D01*
X6020100Y-3876710D02*
X6074710Y-3822100D01*
X6020100Y-3767490D01*
X5965490Y-3822100D01*
X6020100Y-3876710D01*
X6020100Y-5146710D02*
X6074710Y-5092100D01*
X6020100Y-5037490D01*
X5965490Y-5092100D01*
X6020100Y-5146710D01*
X6020100Y-5400710D02*
X6074710Y-5346100D01*
X6020100Y-5291490D01*
X5965490Y-5346100D01*
X6020100Y-5400710D01*
X6274100Y-3622710D02*
X6328710Y-3568100D01*
X6274100Y-3513490D01*
X6219490Y-3568100D01*
X6274100Y-3622710D01*
X6274100Y-3876710D02*
X6328710Y-3822100D01*
X6274100Y-3767490D01*
X6219490Y-3822100D01*
X6274100Y-3876710D01*
X6274100Y-5146710D02*
X6328710Y-5092100D01*
X6274100Y-5037490D01*
X6219490Y-5092100D01*
X6274100Y-5146710D01*
X6274100Y-5400710D02*
X6328710Y-5346100D01*
X6274100Y-5291490D01*
X6219490Y-5346100D01*
X6274100Y-5400710D01*
X6528100Y-3622710D02*
X6582710Y-3568100D01*
X6528100Y-3513490D01*
X6473490Y-3568100D01*
X6528100Y-3622710D01*
X6528100Y-3876710D02*
X6582710Y-3822100D01*
X6528100Y-3767490D01*
X6473490Y-3822100D01*
X6528100Y-3876710D01*
X6528100Y-5146710D02*
X6582710Y-5092100D01*
X6528100Y-5037490D01*
X6473490Y-5092100D01*
X6528100Y-5146710D01*
X6528100Y-5400710D02*
X6582710Y-5346100D01*
X6528100Y-5291490D01*
X6473490Y-5346100D01*
X6528100Y-5400710D01*
X6782100Y-3622710D02*
X6836710Y-3568100D01*
X6782100Y-3513490D01*
X6727490Y-3568100D01*
X6782100Y-3622710D01*
X6782100Y-3876710D02*
X6836710Y-3822100D01*
X6782100Y-3767490D01*
X6727490Y-3822100D01*
X6782100Y-3876710D01*
X6782100Y-5146710D02*
X6836710Y-5092100D01*
X6782100Y-5037490D01*
X6727490Y-5092100D01*
X6782100Y-5146710D01*
X6782100Y-5400710D02*
X6836710Y-5346100D01*
X6782100Y-5291490D01*
X6727490Y-5346100D01*
X6782100Y-5400710D01*
X7036100Y-3622710D02*
X7090710Y-3568100D01*
X7036100Y-3513490D01*
X6981490Y-3568100D01*
X7036100Y-3622710D01*
X7036100Y-3876710D02*
X7090710Y-3822100D01*
X7036100Y-3767490D01*
X6981490Y-3822100D01*
X7036100Y-3876710D01*
X7036100Y-5146710D02*
X7090710Y-5092100D01*
X7036100Y-5037490D01*
X6981490Y-5092100D01*
X7036100Y-5146710D01*
X7036100Y-5400710D02*
X7090710Y-5346100D01*
X7036100Y-5291490D01*
X6981490Y-5346100D01*
X7036100Y-5400710D01*
D17*
X4670100Y-3017300D02*
X4800100Y-3147300D01*
X4800100Y-3017300D02*
X4670100Y-3147300D01*
X4800100Y-3082300D02*
G75*
G03*
X4800100Y-3082300I-65000J0D01*
G01*
X5320100Y-3017300D02*
X5450100Y-3147300D01*
X5450100Y-3017300D02*
X5320100Y-3147300D01*
X5450100Y-3082300D02*
G75*
G03*
X5450100Y-3082300I-65000J0D01*
G01*
D18*
X6246800Y-7409300D02*
X6396800Y-7559300D01*
X6396800Y-7409300D02*
X6246800Y-7559300D01*
X6321800Y-7409300D02*
X6321800Y-7559300D01*
X6246800Y-7484300D02*
X6396800Y-7484300D01*
D12*
X6266800Y-7559300D02*
X6376800Y-7559300D01*
X6376800Y-7559300D02*
G75*
G03*
X6376800Y-7409300I0J75000D01*
G01*
X6376800Y-7409300D02*
X6266800Y-7409300D01*
X6266800Y-7409300D02*
G75*
G03*
X6266800Y-7559300I0J-75000D01*
G01*
D18*
X6246800Y-8529300D02*
X6396800Y-8679300D01*
X6396800Y-8529300D02*
X6246800Y-8679300D01*
X6321800Y-8529300D02*
X6321800Y-8679300D01*
X6246800Y-8604300D02*
X6396800Y-8604300D01*
D12*
X6266800Y-8679300D02*
X6376800Y-8679300D01*
X6376800Y-8679300D02*
G75*
G03*
X6376800Y-8529300I0J75000D01*
G01*
X6376800Y-8529300D02*
X6266800Y-8529300D01*
X6266800Y-8529300D02*
G75*
G03*
X6266800Y-8679300I0J-75000D01*
G01*
D19*
X9112517Y-4080050D02*
X9417517Y-4385050D01*
X9417517Y-4080050D02*
X9112517Y-4385050D01*
X9372852Y-4340385D02*
X9372852Y-4124715D01*
X9157182Y-4124715D01*
X9157182Y-4340385D01*
X9372852Y-4340385D01*
X9112517Y-5985050D02*
X9417517Y-6290050D01*
X9417517Y-5985050D02*
X9112517Y-6290050D01*
X9372852Y-6245385D02*
X9372852Y-6029715D01*
X9157182Y-6029715D01*
X9157182Y-6245385D01*
X9372852Y-6245385D01*
X9112517Y-7890050D02*
X9417517Y-8195050D01*
X9417517Y-7890050D02*
X9112517Y-8195050D01*
X9372852Y-8150385D02*
X9372852Y-7934715D01*
X9157182Y-7934715D01*
X9157182Y-8150385D01*
X9372852Y-8150385D01*
X9112517Y-9795050D02*
X9417517Y-10100050D01*
X9417517Y-9795050D02*
X9112517Y-10100050D01*
X9372852Y-10055385D02*
X9372852Y-9839715D01*
X9157182Y-9839715D01*
X9157182Y-10055385D01*
X9372852Y-10055385D01*
X10112517Y-4080050D02*
X10417517Y-4385050D01*
X10417517Y-4080050D02*
X10112517Y-4385050D01*
X10372852Y-4340385D02*
X10372852Y-4124715D01*
X10157182Y-4124715D01*
X10157182Y-4340385D01*
X10372852Y-4340385D01*
X10112517Y-5985050D02*
X10417517Y-6290050D01*
X10417517Y-5985050D02*
X10112517Y-6290050D01*
X10372852Y-6245385D02*
X10372852Y-6029715D01*
X10157182Y-6029715D01*
X10157182Y-6245385D01*
X10372852Y-6245385D01*
X10112517Y-7890050D02*
X10417517Y-8195050D01*
X10417517Y-7890050D02*
X10112517Y-8195050D01*
X10372852Y-8150385D02*
X10372852Y-7934715D01*
X10157182Y-7934715D01*
X10157182Y-8150385D01*
X10372852Y-8150385D01*
X10112517Y-9795050D02*
X10417517Y-10100050D01*
X10417517Y-9795050D02*
X10112517Y-10100050D01*
X10372852Y-10055385D02*
X10372852Y-9839715D01*
X10157182Y-9839715D01*
X10157182Y-10055385D01*
X10372852Y-10055385D01*
X11017517Y-4080050D02*
X11322517Y-4385050D01*
X11322517Y-4080050D02*
X11017517Y-4385050D01*
X11277851Y-4340385D02*
X11277851Y-4124715D01*
X11062182Y-4124715D01*
X11062182Y-4340385D01*
X11277851Y-4340385D01*
X11017517Y-5985050D02*
X11322517Y-6290050D01*
X11322517Y-5985050D02*
X11017517Y-6290050D01*
X11277851Y-6245385D02*
X11277851Y-6029715D01*
X11062182Y-6029715D01*
X11062182Y-6245385D01*
X11277851Y-6245385D01*
X11017517Y-9795050D02*
X11322517Y-10100050D01*
X11322517Y-9795050D02*
X11017517Y-10100050D01*
X11277851Y-10055385D02*
X11277851Y-9839715D01*
X11062182Y-9839715D01*
X11062182Y-10055385D01*
X11277851Y-10055385D01*
X11017517Y-7890050D02*
X11322517Y-8195050D01*
X11322517Y-7890050D02*
X11017517Y-8195050D01*
X11277852Y-8150385D02*
X11277852Y-7934715D01*
X11062182Y-7934715D01*
X11062182Y-8150385D01*
X11277852Y-8150385D01*
X12017517Y-4080050D02*
X12322517Y-4385050D01*
X12322517Y-4080050D02*
X12017517Y-4385050D01*
X12277851Y-4340385D02*
X12277851Y-4124715D01*
X12062182Y-4124715D01*
X12062182Y-4340385D01*
X12277851Y-4340385D01*
X12017517Y-5985050D02*
X12322517Y-6290050D01*
X12322517Y-5985050D02*
X12017517Y-6290050D01*
X12277851Y-6245385D02*
X12277851Y-6029715D01*
X12062182Y-6029715D01*
X12062182Y-6245385D01*
X12277851Y-6245385D01*
X12017517Y-9795050D02*
X12322517Y-10100050D01*
X12322517Y-9795050D02*
X12017517Y-10100050D01*
X12277851Y-10055385D02*
X12277851Y-9839715D01*
X12062182Y-9839715D01*
X12062182Y-10055385D01*
X12277851Y-10055385D01*
X12017517Y-7890050D02*
X12322517Y-8195050D01*
X12322517Y-7890050D02*
X12017517Y-8195050D01*
X12277852Y-8150385D02*
X12277852Y-7934715D01*
X12062182Y-7934715D01*
X12062182Y-8150385D01*
X12277852Y-8150385D01*
X12922517Y-4080050D02*
X13227517Y-4385050D01*
X13227517Y-4080050D02*
X12922517Y-4385050D01*
X13182851Y-4340385D02*
X13182851Y-4124715D01*
X12967182Y-4124715D01*
X12967182Y-4340385D01*
X13182851Y-4340385D01*
X12922517Y-5985050D02*
X13227517Y-6290050D01*
X13227517Y-5985050D02*
X12922517Y-6290050D01*
X13182851Y-6245385D02*
X13182851Y-6029715D01*
X12967182Y-6029715D01*
X12967182Y-6245385D01*
X13182851Y-6245385D01*
X12922517Y-7890050D02*
X13227517Y-8195050D01*
X13227517Y-7890050D02*
X12922517Y-8195050D01*
X13182851Y-8150385D02*
X13182851Y-7934715D01*
X12967182Y-7934715D01*
X12967182Y-8150385D01*
X13182851Y-8150385D01*
X12922517Y-9795050D02*
X13227517Y-10100050D01*
X13227517Y-9795050D02*
X12922517Y-10100050D01*
X13182851Y-10055385D02*
X13182851Y-9839715D01*
X12967182Y-9839715D01*
X12967182Y-10055385D01*
X13182851Y-10055385D01*
X13922517Y-4080050D02*
X14227517Y-4385050D01*
X14227517Y-4080050D02*
X13922517Y-4385050D01*
X14182851Y-4340385D02*
X14182851Y-4124715D01*
X13967182Y-4124715D01*
X13967182Y-4340385D01*
X14182851Y-4340385D01*
X13922517Y-5985050D02*
X14227517Y-6290050D01*
X14227517Y-5985050D02*
X13922517Y-6290050D01*
X14182851Y-6245385D02*
X14182851Y-6029715D01*
X13967182Y-6029715D01*
X13967182Y-6245385D01*
X14182851Y-6245385D01*
X13922517Y-7890050D02*
X14227517Y-8195050D01*
X14227517Y-7890050D02*
X13922517Y-8195050D01*
X14182851Y-8150385D02*
X14182851Y-7934715D01*
X13967182Y-7934715D01*
X13967182Y-8150385D01*
X14182851Y-8150385D01*
X13922517Y-9795050D02*
X14227517Y-10100050D01*
X14227517Y-9795050D02*
X13922517Y-10100050D01*
X14182851Y-10055385D02*
X14182851Y-9839715D01*
X13967182Y-9839715D01*
X13967182Y-10055385D01*
X14182851Y-10055385D01*
X14827517Y-4080050D02*
X15132517Y-4385050D01*
X15132517Y-4080050D02*
X14827517Y-4385050D01*
X15087851Y-4340385D02*
X15087851Y-4124715D01*
X14872182Y-4124715D01*
X14872182Y-4340385D01*
X15087851Y-4340385D01*
X14827517Y-5985050D02*
X15132517Y-6290050D01*
X15132517Y-5985050D02*
X14827517Y-6290050D01*
X15087851Y-6245385D02*
X15087851Y-6029715D01*
X14872182Y-6029715D01*
X14872182Y-6245385D01*
X15087851Y-6245385D01*
X14827517Y-7890050D02*
X15132517Y-8195050D01*
X15132517Y-7890050D02*
X14827517Y-8195050D01*
X15087851Y-8150385D02*
X15087851Y-7934715D01*
X14872182Y-7934715D01*
X14872182Y-8150385D01*
X15087851Y-8150385D01*
X14827517Y-9795050D02*
X15132517Y-10100050D01*
X15132517Y-9795050D02*
X14827517Y-10100050D01*
X15087851Y-10055385D02*
X15087851Y-9839715D01*
X14872182Y-9839715D01*
X14872182Y-10055385D01*
X15087851Y-10055385D01*
X15827517Y-4080050D02*
X16132517Y-4385050D01*
X16132517Y-4080050D02*
X15827517Y-4385050D01*
X16087851Y-4340385D02*
X16087851Y-4124715D01*
X15872182Y-4124715D01*
X15872182Y-4340385D01*
X16087851Y-4340385D01*
X15827517Y-5985050D02*
X16132517Y-6290050D01*
X16132517Y-5985050D02*
X15827517Y-6290050D01*
X16087851Y-6245385D02*
X16087851Y-6029715D01*
X15872182Y-6029715D01*
X15872182Y-6245385D01*
X16087851Y-6245385D01*
X15827517Y-7890050D02*
X16132517Y-8195050D01*
X16132517Y-7890050D02*
X15827517Y-8195050D01*
X16087851Y-8150385D02*
X16087851Y-7934715D01*
X15872182Y-7934715D01*
X15872182Y-8150385D01*
X16087851Y-8150385D01*
X15827517Y-9795050D02*
X16132517Y-10100050D01*
X16132517Y-9795050D02*
X15827517Y-10100050D01*
X16087851Y-10055385D02*
X16087851Y-9839715D01*
X15872182Y-9839715D01*
X15872182Y-10055385D01*
X16087851Y-10055385D01*
X16732517Y-4080050D02*
X17037517Y-4385050D01*
X17037517Y-4080050D02*
X16732517Y-4385050D01*
X16992852Y-4340385D02*
X16992852Y-4124715D01*
X16777182Y-4124715D01*
X16777182Y-4340385D01*
X16992852Y-4340385D01*
X16732517Y-5985050D02*
X17037517Y-6290050D01*
X17037517Y-5985050D02*
X16732517Y-6290050D01*
X16992852Y-6245385D02*
X16992852Y-6029715D01*
X16777182Y-6029715D01*
X16777182Y-6245385D01*
X16992852Y-6245385D01*
X16732517Y-7890050D02*
X17037517Y-8195050D01*
X17037517Y-7890050D02*
X16732517Y-8195050D01*
X16992852Y-8150385D02*
X16992852Y-7934715D01*
X16777182Y-7934715D01*
X16777182Y-8150385D01*
X16992852Y-8150385D01*
X16732517Y-9795050D02*
X17037517Y-10100050D01*
X17037517Y-9795050D02*
X16732517Y-10100050D01*
X16992852Y-10055385D02*
X16992852Y-9839715D01*
X16777182Y-9839715D01*
X16777182Y-10055385D01*
X16992852Y-10055385D01*
X17732517Y-4080050D02*
X18037517Y-4385050D01*
X18037517Y-4080050D02*
X17732517Y-4385050D01*
X17992852Y-4340385D02*
X17992852Y-4124715D01*
X17777182Y-4124715D01*
X17777182Y-4340385D01*
X17992852Y-4340385D01*
X17732517Y-5985050D02*
X18037517Y-6290050D01*
X18037517Y-5985050D02*
X17732517Y-6290050D01*
X17992852Y-6245385D02*
X17992852Y-6029715D01*
X17777182Y-6029715D01*
X17777182Y-6245385D01*
X17992852Y-6245385D01*
X17732517Y-7890050D02*
X18037517Y-8195050D01*
X18037517Y-7890050D02*
X17732517Y-8195050D01*
X17992852Y-8150385D02*
X17992852Y-7934715D01*
X17777182Y-7934715D01*
X17777182Y-8150385D01*
X17992852Y-8150385D01*
X17732517Y-9795050D02*
X18037517Y-10100050D01*
X18037517Y-9795050D02*
X17732517Y-10100050D01*
X17992852Y-10055385D02*
X17992852Y-9839715D01*
X17777182Y-9839715D01*
X17777182Y-10055385D01*
X17992852Y-10055385D01*
X18637517Y-4080050D02*
X18942517Y-4385050D01*
X18942517Y-4080050D02*
X18637517Y-4385050D01*
X18897852Y-4340385D02*
X18897852Y-4124715D01*
X18682182Y-4124715D01*
X18682182Y-4340385D01*
X18897852Y-4340385D01*
X18637517Y-5985050D02*
X18942517Y-6290050D01*
X18942517Y-5985050D02*
X18637517Y-6290050D01*
X18897852Y-6245385D02*
X18897852Y-6029715D01*
X18682182Y-6029715D01*
X18682182Y-6245385D01*
X18897852Y-6245385D01*
X18637517Y-7890050D02*
X18942517Y-8195050D01*
X18942517Y-7890050D02*
X18637517Y-8195050D01*
X18897852Y-8150385D02*
X18897852Y-7934715D01*
X18682182Y-7934715D01*
X18682182Y-8150385D01*
X18897852Y-8150385D01*
X18637517Y-9795050D02*
X18942517Y-10100050D01*
X18942517Y-9795050D02*
X18637517Y-10100050D01*
X18897852Y-10055385D02*
X18897852Y-9839715D01*
X18682182Y-9839715D01*
X18682182Y-10055385D01*
X18897852Y-10055385D01*
X19637517Y-4080050D02*
X19942517Y-4385050D01*
X19942517Y-4080050D02*
X19637517Y-4385050D01*
X19897852Y-4340385D02*
X19897852Y-4124715D01*
X19682182Y-4124715D01*
X19682182Y-4340385D01*
X19897852Y-4340385D01*
X19637517Y-5985050D02*
X19942517Y-6290050D01*
X19942517Y-5985050D02*
X19637517Y-6290050D01*
X19897852Y-6245385D02*
X19897852Y-6029715D01*
X19682182Y-6029715D01*
X19682182Y-6245385D01*
X19897852Y-6245385D01*
X19637517Y-7890050D02*
X19942517Y-8195050D01*
X19942517Y-7890050D02*
X19637517Y-8195050D01*
X19897852Y-8150385D02*
X19897852Y-7934715D01*
X19682182Y-7934715D01*
X19682182Y-8150385D01*
X19897852Y-8150385D01*
X19637517Y-9795050D02*
X19942517Y-10100050D01*
X19942517Y-9795050D02*
X19637517Y-10100050D01*
X19897852Y-10055385D02*
X19897852Y-9839715D01*
X19682182Y-9839715D01*
X19682182Y-10055385D01*
X19897852Y-10055385D01*
D12*
X4100877Y-10837484D02*
X4100877Y-10637484D01*
X4100877Y-10637484D02*
X4148496Y-10637484D01*
X4148496Y-10637484D02*
X4177067Y-10647008D01*
X4177067Y-10647008D02*
X4196115Y-10666055D01*
X4196115Y-10666055D02*
X4205639Y-10685103D01*
X4205639Y-10685103D02*
X4215163Y-10723198D01*
X4215163Y-10723198D02*
X4215163Y-10751770D01*
X4215163Y-10751770D02*
X4205639Y-10789865D01*
X4205639Y-10789865D02*
X4196115Y-10808912D01*
X4196115Y-10808912D02*
X4177067Y-10827960D01*
X4177067Y-10827960D02*
X4148496Y-10837484D01*
X4148496Y-10837484D02*
X4100877Y-10837484D01*
X4300877Y-10837484D02*
X4300877Y-10704150D01*
X4300877Y-10742246D02*
X4310401Y-10723198D01*
X4310401Y-10723198D02*
X4319924Y-10713674D01*
X4319924Y-10713674D02*
X4338972Y-10704150D01*
X4338972Y-10704150D02*
X4358020Y-10704150D01*
X4424686Y-10837484D02*
X4424686Y-10704150D01*
X4424686Y-10637484D02*
X4415163Y-10647008D01*
X4415163Y-10647008D02*
X4424686Y-10656531D01*
X4424686Y-10656531D02*
X4434210Y-10647008D01*
X4434210Y-10647008D02*
X4424686Y-10637484D01*
X4424686Y-10637484D02*
X4424686Y-10656531D01*
X4548496Y-10837484D02*
X4529448Y-10827960D01*
X4529448Y-10827960D02*
X4519924Y-10808912D01*
X4519924Y-10808912D02*
X4519924Y-10637484D01*
X4653258Y-10837484D02*
X4634210Y-10827960D01*
X4634210Y-10827960D02*
X4624686Y-10808912D01*
X4624686Y-10808912D02*
X4624686Y-10637484D01*
X4881829Y-10837484D02*
X4881829Y-10637484D01*
X4881829Y-10637484D02*
X4948496Y-10780341D01*
X4948496Y-10780341D02*
X5015163Y-10637484D01*
X5015163Y-10637484D02*
X5015163Y-10837484D01*
X5196115Y-10837484D02*
X5196115Y-10732722D01*
X5196115Y-10732722D02*
X5186591Y-10713674D01*
X5186591Y-10713674D02*
X5167544Y-10704150D01*
X5167544Y-10704150D02*
X5129448Y-10704150D01*
X5129448Y-10704150D02*
X5110401Y-10713674D01*
X5196115Y-10827960D02*
X5177067Y-10837484D01*
X5177067Y-10837484D02*
X5129448Y-10837484D01*
X5129448Y-10837484D02*
X5110401Y-10827960D01*
X5110401Y-10827960D02*
X5100877Y-10808912D01*
X5100877Y-10808912D02*
X5100877Y-10789865D01*
X5100877Y-10789865D02*
X5110401Y-10770817D01*
X5110401Y-10770817D02*
X5129448Y-10761293D01*
X5129448Y-10761293D02*
X5177067Y-10761293D01*
X5177067Y-10761293D02*
X5196115Y-10751770D01*
X5291353Y-10704150D02*
X5291353Y-10904150D01*
X5291353Y-10713674D02*
X5310401Y-10704150D01*
X5310401Y-10704150D02*
X5348496Y-10704150D01*
X5348496Y-10704150D02*
X5367544Y-10713674D01*
X5367544Y-10713674D02*
X5377067Y-10723198D01*
X5377067Y-10723198D02*
X5386591Y-10742246D01*
X5386591Y-10742246D02*
X5386591Y-10799389D01*
X5386591Y-10799389D02*
X5377067Y-10818436D01*
X5377067Y-10818436D02*
X5367544Y-10827960D01*
X5367544Y-10827960D02*
X5348496Y-10837484D01*
X5348496Y-10837484D02*
X5310401Y-10837484D01*
X5310401Y-10837484D02*
X5291353Y-10827960D01*
X5472305Y-10818436D02*
X5481829Y-10827960D01*
X5481829Y-10827960D02*
X5472305Y-10837484D01*
X5472305Y-10837484D02*
X5462782Y-10827960D01*
X5462782Y-10827960D02*
X5472305Y-10818436D01*
X5472305Y-10818436D02*
X5472305Y-10837484D01*
X5472305Y-10713674D02*
X5481829Y-10723198D01*
X5481829Y-10723198D02*
X5472305Y-10732722D01*
X5472305Y-10732722D02*
X5462782Y-10723198D01*
X5462782Y-10723198D02*
X5472305Y-10713674D01*
X5472305Y-10713674D02*
X5472305Y-10732722D01*
D13*
X3800100Y-11146000D02*
X3840100Y-11186000D01*
X3840100Y-11146000D02*
X3800100Y-11186000D01*
D12*
X4138972Y-11057484D02*
X4158020Y-11057484D01*
X4158020Y-11057484D02*
X4177067Y-11067008D01*
X4177067Y-11067008D02*
X4186591Y-11076531D01*
X4186591Y-11076531D02*
X4196115Y-11095579D01*
X4196115Y-11095579D02*
X4205639Y-11133674D01*
X4205639Y-11133674D02*
X4205639Y-11181293D01*
X4205639Y-11181293D02*
X4196115Y-11219388D01*
X4196115Y-11219388D02*
X4186591Y-11238436D01*
X4186591Y-11238436D02*
X4177067Y-11247960D01*
X4177067Y-11247960D02*
X4158020Y-11257484D01*
X4158020Y-11257484D02*
X4138972Y-11257484D01*
X4138972Y-11257484D02*
X4119924Y-11247960D01*
X4119924Y-11247960D02*
X4110401Y-11238436D01*
X4110401Y-11238436D02*
X4100877Y-11219388D01*
X4100877Y-11219388D02*
X4091353Y-11181293D01*
X4091353Y-11181293D02*
X4091353Y-11133674D01*
X4091353Y-11133674D02*
X4100877Y-11095579D01*
X4100877Y-11095579D02*
X4110401Y-11076531D01*
X4110401Y-11076531D02*
X4119924Y-11067008D01*
X4119924Y-11067008D02*
X4138972Y-11057484D01*
X4291353Y-11238436D02*
X4300877Y-11247960D01*
X4300877Y-11247960D02*
X4291353Y-11257484D01*
X4291353Y-11257484D02*
X4281829Y-11247960D01*
X4281829Y-11247960D02*
X4291353Y-11238436D01*
X4291353Y-11238436D02*
X4291353Y-11257484D01*
X4472305Y-11124150D02*
X4472305Y-11257484D01*
X4424686Y-11047960D02*
X4377067Y-11190817D01*
X4377067Y-11190817D02*
X4500877Y-11190817D01*
X4615163Y-11057484D02*
X4634210Y-11057484D01*
X4634210Y-11057484D02*
X4653258Y-11067008D01*
X4653258Y-11067008D02*
X4662782Y-11076531D01*
X4662782Y-11076531D02*
X4672305Y-11095579D01*
X4672305Y-11095579D02*
X4681829Y-11133674D01*
X4681829Y-11133674D02*
X4681829Y-11181293D01*
X4681829Y-11181293D02*
X4672305Y-11219388D01*
X4672305Y-11219388D02*
X4662782Y-11238436D01*
X4662782Y-11238436D02*
X4653258Y-11247960D01*
X4653258Y-11247960D02*
X4634210Y-11257484D01*
X4634210Y-11257484D02*
X4615163Y-11257484D01*
X4615163Y-11257484D02*
X4596115Y-11247960D01*
X4596115Y-11247960D02*
X4586591Y-11238436D01*
X4586591Y-11238436D02*
X4577067Y-11219388D01*
X4577067Y-11219388D02*
X4567544Y-11181293D01*
X4567544Y-11181293D02*
X4567544Y-11133674D01*
X4567544Y-11133674D02*
X4577067Y-11095579D01*
X4577067Y-11095579D02*
X4586591Y-11076531D01*
X4586591Y-11076531D02*
X4596115Y-11067008D01*
X4596115Y-11067008D02*
X4615163Y-11057484D01*
X4805639Y-11057484D02*
X4824686Y-11057484D01*
X4824686Y-11057484D02*
X4843734Y-11067008D01*
X4843734Y-11067008D02*
X4853258Y-11076531D01*
X4853258Y-11076531D02*
X4862782Y-11095579D01*
X4862782Y-11095579D02*
X4872305Y-11133674D01*
X4872305Y-11133674D02*
X4872305Y-11181293D01*
X4872305Y-11181293D02*
X4862782Y-11219388D01*
X4862782Y-11219388D02*
X4853258Y-11238436D01*
X4853258Y-11238436D02*
X4843734Y-11247960D01*
X4843734Y-11247960D02*
X4824686Y-11257484D01*
X4824686Y-11257484D02*
X4805639Y-11257484D01*
X4805639Y-11257484D02*
X4786591Y-11247960D01*
X4786591Y-11247960D02*
X4777067Y-11238436D01*
X4777067Y-11238436D02*
X4767544Y-11219388D01*
X4767544Y-11219388D02*
X4758020Y-11181293D01*
X4758020Y-11181293D02*
X4758020Y-11133674D01*
X4758020Y-11133674D02*
X4767544Y-11095579D01*
X4767544Y-11095579D02*
X4777067Y-11076531D01*
X4777067Y-11076531D02*
X4786591Y-11067008D01*
X4786591Y-11067008D02*
X4805639Y-11057484D01*
X4958020Y-11257484D02*
X4958020Y-11124150D01*
X4958020Y-11143198D02*
X4967544Y-11133674D01*
X4967544Y-11133674D02*
X4986591Y-11124150D01*
X4986591Y-11124150D02*
X5015163Y-11124150D01*
X5015163Y-11124150D02*
X5034210Y-11133674D01*
X5034210Y-11133674D02*
X5043734Y-11152722D01*
X5043734Y-11152722D02*
X5043734Y-11257484D01*
X5043734Y-11152722D02*
X5053258Y-11133674D01*
X5053258Y-11133674D02*
X5072305Y-11124150D01*
X5072305Y-11124150D02*
X5100877Y-11124150D01*
X5100877Y-11124150D02*
X5119925Y-11133674D01*
X5119925Y-11133674D02*
X5129448Y-11152722D01*
X5129448Y-11152722D02*
X5129448Y-11257484D01*
X5224686Y-11257484D02*
X5224686Y-11124150D01*
X5224686Y-11143198D02*
X5234210Y-11133674D01*
X5234210Y-11133674D02*
X5253258Y-11124150D01*
X5253258Y-11124150D02*
X5281829Y-11124150D01*
X5281829Y-11124150D02*
X5300877Y-11133674D01*
X5300877Y-11133674D02*
X5310401Y-11152722D01*
X5310401Y-11152722D02*
X5310401Y-11257484D01*
X5310401Y-11152722D02*
X5319925Y-11133674D01*
X5319925Y-11133674D02*
X5338972Y-11124150D01*
X5338972Y-11124150D02*
X5367544Y-11124150D01*
X5367544Y-11124150D02*
X5386591Y-11133674D01*
X5386591Y-11133674D02*
X5396115Y-11152722D01*
X5396115Y-11152722D02*
X5396115Y-11257484D01*
X5786591Y-11047960D02*
X5615163Y-11305103D01*
X6043734Y-11057484D02*
X6062782Y-11057484D01*
X6062782Y-11057484D02*
X6081829Y-11067008D01*
X6081829Y-11067008D02*
X6091353Y-11076531D01*
X6091353Y-11076531D02*
X6100877Y-11095579D01*
X6100877Y-11095579D02*
X6110401Y-11133674D01*
X6110401Y-11133674D02*
X6110401Y-11181293D01*
X6110401Y-11181293D02*
X6100877Y-11219388D01*
X6100877Y-11219388D02*
X6091353Y-11238436D01*
X6091353Y-11238436D02*
X6081829Y-11247960D01*
X6081829Y-11247960D02*
X6062782Y-11257484D01*
X6062782Y-11257484D02*
X6043734Y-11257484D01*
X6043734Y-11257484D02*
X6024686Y-11247960D01*
X6024686Y-11247960D02*
X6015163Y-11238436D01*
X6015163Y-11238436D02*
X6005639Y-11219388D01*
X6005639Y-11219388D02*
X5996115Y-11181293D01*
X5996115Y-11181293D02*
X5996115Y-11133674D01*
X5996115Y-11133674D02*
X6005639Y-11095579D01*
X6005639Y-11095579D02*
X6015163Y-11076531D01*
X6015163Y-11076531D02*
X6024686Y-11067008D01*
X6024686Y-11067008D02*
X6043734Y-11057484D01*
X6196115Y-11238436D02*
X6205639Y-11247960D01*
X6205639Y-11247960D02*
X6196115Y-11257484D01*
X6196115Y-11257484D02*
X6186591Y-11247960D01*
X6186591Y-11247960D02*
X6196115Y-11238436D01*
X6196115Y-11238436D02*
X6196115Y-11257484D01*
X6329448Y-11057484D02*
X6348496Y-11057484D01*
X6348496Y-11057484D02*
X6367544Y-11067008D01*
X6367544Y-11067008D02*
X6377067Y-11076531D01*
X6377067Y-11076531D02*
X6386591Y-11095579D01*
X6386591Y-11095579D02*
X6396115Y-11133674D01*
X6396115Y-11133674D02*
X6396115Y-11181293D01*
X6396115Y-11181293D02*
X6386591Y-11219388D01*
X6386591Y-11219388D02*
X6377067Y-11238436D01*
X6377067Y-11238436D02*
X6367544Y-11247960D01*
X6367544Y-11247960D02*
X6348496Y-11257484D01*
X6348496Y-11257484D02*
X6329448Y-11257484D01*
X6329448Y-11257484D02*
X6310401Y-11247960D01*
X6310401Y-11247960D02*
X6300877Y-11238436D01*
X6300877Y-11238436D02*
X6291353Y-11219388D01*
X6291353Y-11219388D02*
X6281829Y-11181293D01*
X6281829Y-11181293D02*
X6281829Y-11133674D01*
X6281829Y-11133674D02*
X6291353Y-11095579D01*
X6291353Y-11095579D02*
X6300877Y-11076531D01*
X6300877Y-11076531D02*
X6310401Y-11067008D01*
X6310401Y-11067008D02*
X6329448Y-11057484D01*
X6586591Y-11257484D02*
X6472306Y-11257484D01*
X6529448Y-11257484D02*
X6529448Y-11057484D01*
X6529448Y-11057484D02*
X6510401Y-11086055D01*
X6510401Y-11086055D02*
X6491353Y-11105103D01*
X6491353Y-11105103D02*
X6472306Y-11114627D01*
X6767544Y-11057484D02*
X6672306Y-11057484D01*
X6672306Y-11057484D02*
X6662782Y-11152722D01*
X6662782Y-11152722D02*
X6672306Y-11143198D01*
X6672306Y-11143198D02*
X6691353Y-11133674D01*
X6691353Y-11133674D02*
X6738972Y-11133674D01*
X6738972Y-11133674D02*
X6758020Y-11143198D01*
X6758020Y-11143198D02*
X6767544Y-11152722D01*
X6767544Y-11152722D02*
X6777067Y-11171770D01*
X6777067Y-11171770D02*
X6777067Y-11219388D01*
X6777067Y-11219388D02*
X6767544Y-11238436D01*
X6767544Y-11238436D02*
X6758020Y-11247960D01*
X6758020Y-11247960D02*
X6738972Y-11257484D01*
X6738972Y-11257484D02*
X6691353Y-11257484D01*
X6691353Y-11257484D02*
X6672306Y-11247960D01*
X6672306Y-11247960D02*
X6662782Y-11238436D01*
X6843734Y-11057484D02*
X6977067Y-11057484D01*
X6977067Y-11057484D02*
X6891353Y-11257484D01*
X7043734Y-11057484D02*
X7043734Y-11095579D01*
X7119925Y-11057484D02*
X7119925Y-11095579D01*
X7415163Y-11333674D02*
X7405639Y-11324150D01*
X7405639Y-11324150D02*
X7386591Y-11295579D01*
X7386591Y-11295579D02*
X7377068Y-11276531D01*
X7377068Y-11276531D02*
X7367544Y-11247960D01*
X7367544Y-11247960D02*
X7358020Y-11200341D01*
X7358020Y-11200341D02*
X7358020Y-11162246D01*
X7358020Y-11162246D02*
X7367544Y-11114627D01*
X7367544Y-11114627D02*
X7377068Y-11086055D01*
X7377068Y-11086055D02*
X7386591Y-11067008D01*
X7386591Y-11067008D02*
X7405639Y-11038436D01*
X7405639Y-11038436D02*
X7415163Y-11028912D01*
X7481829Y-11076531D02*
X7491353Y-11067008D01*
X7491353Y-11067008D02*
X7510401Y-11057484D01*
X7510401Y-11057484D02*
X7558020Y-11057484D01*
X7558020Y-11057484D02*
X7577068Y-11067008D01*
X7577068Y-11067008D02*
X7586591Y-11076531D01*
X7586591Y-11076531D02*
X7596115Y-11095579D01*
X7596115Y-11095579D02*
X7596115Y-11114627D01*
X7596115Y-11114627D02*
X7586591Y-11143198D01*
X7586591Y-11143198D02*
X7472306Y-11257484D01*
X7472306Y-11257484D02*
X7596115Y-11257484D01*
X7662782Y-11057484D02*
X7796115Y-11057484D01*
X7796115Y-11057484D02*
X7710401Y-11257484D01*
X7977068Y-11257484D02*
X7862782Y-11257484D01*
X7919925Y-11257484D02*
X7919925Y-11057484D01*
X7919925Y-11057484D02*
X7900877Y-11086055D01*
X7900877Y-11086055D02*
X7881829Y-11105103D01*
X7881829Y-11105103D02*
X7862782Y-11114627D01*
X8215163Y-11257484D02*
X8215163Y-11057484D01*
X8300877Y-11257484D02*
X8300877Y-11152722D01*
X8300877Y-11152722D02*
X8291353Y-11133674D01*
X8291353Y-11133674D02*
X8272306Y-11124150D01*
X8272306Y-11124150D02*
X8243734Y-11124150D01*
X8243734Y-11124150D02*
X8224687Y-11133674D01*
X8224687Y-11133674D02*
X8215163Y-11143198D01*
X8424687Y-11257484D02*
X8405639Y-11247960D01*
X8405639Y-11247960D02*
X8396115Y-11238436D01*
X8396115Y-11238436D02*
X8386591Y-11219388D01*
X8386591Y-11219388D02*
X8386591Y-11162246D01*
X8386591Y-11162246D02*
X8396115Y-11143198D01*
X8396115Y-11143198D02*
X8405639Y-11133674D01*
X8405639Y-11133674D02*
X8424687Y-11124150D01*
X8424687Y-11124150D02*
X8453258Y-11124150D01*
X8453258Y-11124150D02*
X8472306Y-11133674D01*
X8472306Y-11133674D02*
X8481830Y-11143198D01*
X8481830Y-11143198D02*
X8491353Y-11162246D01*
X8491353Y-11162246D02*
X8491353Y-11219388D01*
X8491353Y-11219388D02*
X8481830Y-11238436D01*
X8481830Y-11238436D02*
X8472306Y-11247960D01*
X8472306Y-11247960D02*
X8453258Y-11257484D01*
X8453258Y-11257484D02*
X8424687Y-11257484D01*
X8605639Y-11257484D02*
X8586592Y-11247960D01*
X8586592Y-11247960D02*
X8577068Y-11228912D01*
X8577068Y-11228912D02*
X8577068Y-11057484D01*
X8758020Y-11247960D02*
X8738973Y-11257484D01*
X8738973Y-11257484D02*
X8700877Y-11257484D01*
X8700877Y-11257484D02*
X8681830Y-11247960D01*
X8681830Y-11247960D02*
X8672306Y-11228912D01*
X8672306Y-11228912D02*
X8672306Y-11152722D01*
X8672306Y-11152722D02*
X8681830Y-11133674D01*
X8681830Y-11133674D02*
X8700877Y-11124150D01*
X8700877Y-11124150D02*
X8738973Y-11124150D01*
X8738973Y-11124150D02*
X8758020Y-11133674D01*
X8758020Y-11133674D02*
X8767544Y-11152722D01*
X8767544Y-11152722D02*
X8767544Y-11171770D01*
X8767544Y-11171770D02*
X8672306Y-11190817D01*
X8843734Y-11247960D02*
X8862782Y-11257484D01*
X8862782Y-11257484D02*
X8900877Y-11257484D01*
X8900877Y-11257484D02*
X8919925Y-11247960D01*
X8919925Y-11247960D02*
X8929449Y-11228912D01*
X8929449Y-11228912D02*
X8929449Y-11219388D01*
X8929449Y-11219388D02*
X8919925Y-11200341D01*
X8919925Y-11200341D02*
X8900877Y-11190817D01*
X8900877Y-11190817D02*
X8872306Y-11190817D01*
X8872306Y-11190817D02*
X8853258Y-11181293D01*
X8853258Y-11181293D02*
X8843734Y-11162246D01*
X8843734Y-11162246D02*
X8843734Y-11152722D01*
X8843734Y-11152722D02*
X8853258Y-11133674D01*
X8853258Y-11133674D02*
X8872306Y-11124150D01*
X8872306Y-11124150D02*
X8900877Y-11124150D01*
X8900877Y-11124150D02*
X8919925Y-11133674D01*
X8996115Y-11333674D02*
X9005639Y-11324150D01*
X9005639Y-11324150D02*
X9024687Y-11295579D01*
X9024687Y-11295579D02*
X9034211Y-11276531D01*
X9034211Y-11276531D02*
X9043734Y-11247960D01*
X9043734Y-11247960D02*
X9053258Y-11200341D01*
X9053258Y-11200341D02*
X9053258Y-11162246D01*
X9053258Y-11162246D02*
X9043734Y-11114627D01*
X9043734Y-11114627D02*
X9034211Y-11086055D01*
X9034211Y-11086055D02*
X9024687Y-11067008D01*
X9024687Y-11067008D02*
X9005639Y-11038436D01*
X9005639Y-11038436D02*
X8996115Y-11028912D01*
D14*
X3840100Y-11430000D02*
G75*
G03*
X3840100Y-11430000I-35000J0D01*
G01*
D12*
X4138972Y-11321484D02*
X4158020Y-11321484D01*
X4158020Y-11321484D02*
X4177067Y-11331008D01*
X4177067Y-11331008D02*
X4186591Y-11340531D01*
X4186591Y-11340531D02*
X4196115Y-11359579D01*
X4196115Y-11359579D02*
X4205639Y-11397674D01*
X4205639Y-11397674D02*
X4205639Y-11445293D01*
X4205639Y-11445293D02*
X4196115Y-11483388D01*
X4196115Y-11483388D02*
X4186591Y-11502436D01*
X4186591Y-11502436D02*
X4177067Y-11511960D01*
X4177067Y-11511960D02*
X4158020Y-11521484D01*
X4158020Y-11521484D02*
X4138972Y-11521484D01*
X4138972Y-11521484D02*
X4119924Y-11511960D01*
X4119924Y-11511960D02*
X4110401Y-11502436D01*
X4110401Y-11502436D02*
X4100877Y-11483388D01*
X4100877Y-11483388D02*
X4091353Y-11445293D01*
X4091353Y-11445293D02*
X4091353Y-11397674D01*
X4091353Y-11397674D02*
X4100877Y-11359579D01*
X4100877Y-11359579D02*
X4110401Y-11340531D01*
X4110401Y-11340531D02*
X4119924Y-11331008D01*
X4119924Y-11331008D02*
X4138972Y-11321484D01*
X4291353Y-11502436D02*
X4300877Y-11511960D01*
X4300877Y-11511960D02*
X4291353Y-11521484D01*
X4291353Y-11521484D02*
X4281829Y-11511960D01*
X4281829Y-11511960D02*
X4291353Y-11502436D01*
X4291353Y-11502436D02*
X4291353Y-11521484D01*
X4367544Y-11321484D02*
X4500877Y-11321484D01*
X4500877Y-11321484D02*
X4415163Y-11521484D01*
X4615163Y-11321484D02*
X4634210Y-11321484D01*
X4634210Y-11321484D02*
X4653258Y-11331008D01*
X4653258Y-11331008D02*
X4662782Y-11340531D01*
X4662782Y-11340531D02*
X4672305Y-11359579D01*
X4672305Y-11359579D02*
X4681829Y-11397674D01*
X4681829Y-11397674D02*
X4681829Y-11445293D01*
X4681829Y-11445293D02*
X4672305Y-11483388D01*
X4672305Y-11483388D02*
X4662782Y-11502436D01*
X4662782Y-11502436D02*
X4653258Y-11511960D01*
X4653258Y-11511960D02*
X4634210Y-11521484D01*
X4634210Y-11521484D02*
X4615163Y-11521484D01*
X4615163Y-11521484D02*
X4596115Y-11511960D01*
X4596115Y-11511960D02*
X4586591Y-11502436D01*
X4586591Y-11502436D02*
X4577067Y-11483388D01*
X4577067Y-11483388D02*
X4567544Y-11445293D01*
X4567544Y-11445293D02*
X4567544Y-11397674D01*
X4567544Y-11397674D02*
X4577067Y-11359579D01*
X4577067Y-11359579D02*
X4586591Y-11340531D01*
X4586591Y-11340531D02*
X4596115Y-11331008D01*
X4596115Y-11331008D02*
X4615163Y-11321484D01*
X4805639Y-11321484D02*
X4824686Y-11321484D01*
X4824686Y-11321484D02*
X4843734Y-11331008D01*
X4843734Y-11331008D02*
X4853258Y-11340531D01*
X4853258Y-11340531D02*
X4862782Y-11359579D01*
X4862782Y-11359579D02*
X4872305Y-11397674D01*
X4872305Y-11397674D02*
X4872305Y-11445293D01*
X4872305Y-11445293D02*
X4862782Y-11483388D01*
X4862782Y-11483388D02*
X4853258Y-11502436D01*
X4853258Y-11502436D02*
X4843734Y-11511960D01*
X4843734Y-11511960D02*
X4824686Y-11521484D01*
X4824686Y-11521484D02*
X4805639Y-11521484D01*
X4805639Y-11521484D02*
X4786591Y-11511960D01*
X4786591Y-11511960D02*
X4777067Y-11502436D01*
X4777067Y-11502436D02*
X4767544Y-11483388D01*
X4767544Y-11483388D02*
X4758020Y-11445293D01*
X4758020Y-11445293D02*
X4758020Y-11397674D01*
X4758020Y-11397674D02*
X4767544Y-11359579D01*
X4767544Y-11359579D02*
X4777067Y-11340531D01*
X4777067Y-11340531D02*
X4786591Y-11331008D01*
X4786591Y-11331008D02*
X4805639Y-11321484D01*
X4958020Y-11521484D02*
X4958020Y-11388150D01*
X4958020Y-11407198D02*
X4967544Y-11397674D01*
X4967544Y-11397674D02*
X4986591Y-11388150D01*
X4986591Y-11388150D02*
X5015163Y-11388150D01*
X5015163Y-11388150D02*
X5034210Y-11397674D01*
X5034210Y-11397674D02*
X5043734Y-11416722D01*
X5043734Y-11416722D02*
X5043734Y-11521484D01*
X5043734Y-11416722D02*
X5053258Y-11397674D01*
X5053258Y-11397674D02*
X5072305Y-11388150D01*
X5072305Y-11388150D02*
X5100877Y-11388150D01*
X5100877Y-11388150D02*
X5119925Y-11397674D01*
X5119925Y-11397674D02*
X5129448Y-11416722D01*
X5129448Y-11416722D02*
X5129448Y-11521484D01*
X5224686Y-11521484D02*
X5224686Y-11388150D01*
X5224686Y-11407198D02*
X5234210Y-11397674D01*
X5234210Y-11397674D02*
X5253258Y-11388150D01*
X5253258Y-11388150D02*
X5281829Y-11388150D01*
X5281829Y-11388150D02*
X5300877Y-11397674D01*
X5300877Y-11397674D02*
X5310401Y-11416722D01*
X5310401Y-11416722D02*
X5310401Y-11521484D01*
X5310401Y-11416722D02*
X5319925Y-11397674D01*
X5319925Y-11397674D02*
X5338972Y-11388150D01*
X5338972Y-11388150D02*
X5367544Y-11388150D01*
X5367544Y-11388150D02*
X5386591Y-11397674D01*
X5386591Y-11397674D02*
X5396115Y-11416722D01*
X5396115Y-11416722D02*
X5396115Y-11521484D01*
X5786591Y-11311960D02*
X5615163Y-11569103D01*
X6043734Y-11321484D02*
X6062782Y-11321484D01*
X6062782Y-11321484D02*
X6081829Y-11331008D01*
X6081829Y-11331008D02*
X6091353Y-11340531D01*
X6091353Y-11340531D02*
X6100877Y-11359579D01*
X6100877Y-11359579D02*
X6110401Y-11397674D01*
X6110401Y-11397674D02*
X6110401Y-11445293D01*
X6110401Y-11445293D02*
X6100877Y-11483388D01*
X6100877Y-11483388D02*
X6091353Y-11502436D01*
X6091353Y-11502436D02*
X6081829Y-11511960D01*
X6081829Y-11511960D02*
X6062782Y-11521484D01*
X6062782Y-11521484D02*
X6043734Y-11521484D01*
X6043734Y-11521484D02*
X6024686Y-11511960D01*
X6024686Y-11511960D02*
X6015163Y-11502436D01*
X6015163Y-11502436D02*
X6005639Y-11483388D01*
X6005639Y-11483388D02*
X5996115Y-11445293D01*
X5996115Y-11445293D02*
X5996115Y-11397674D01*
X5996115Y-11397674D02*
X6005639Y-11359579D01*
X6005639Y-11359579D02*
X6015163Y-11340531D01*
X6015163Y-11340531D02*
X6024686Y-11331008D01*
X6024686Y-11331008D02*
X6043734Y-11321484D01*
X6196115Y-11502436D02*
X6205639Y-11511960D01*
X6205639Y-11511960D02*
X6196115Y-11521484D01*
X6196115Y-11521484D02*
X6186591Y-11511960D01*
X6186591Y-11511960D02*
X6196115Y-11502436D01*
X6196115Y-11502436D02*
X6196115Y-11521484D01*
X6329448Y-11321484D02*
X6348496Y-11321484D01*
X6348496Y-11321484D02*
X6367544Y-11331008D01*
X6367544Y-11331008D02*
X6377067Y-11340531D01*
X6377067Y-11340531D02*
X6386591Y-11359579D01*
X6386591Y-11359579D02*
X6396115Y-11397674D01*
X6396115Y-11397674D02*
X6396115Y-11445293D01*
X6396115Y-11445293D02*
X6386591Y-11483388D01*
X6386591Y-11483388D02*
X6377067Y-11502436D01*
X6377067Y-11502436D02*
X6367544Y-11511960D01*
X6367544Y-11511960D02*
X6348496Y-11521484D01*
X6348496Y-11521484D02*
X6329448Y-11521484D01*
X6329448Y-11521484D02*
X6310401Y-11511960D01*
X6310401Y-11511960D02*
X6300877Y-11502436D01*
X6300877Y-11502436D02*
X6291353Y-11483388D01*
X6291353Y-11483388D02*
X6281829Y-11445293D01*
X6281829Y-11445293D02*
X6281829Y-11397674D01*
X6281829Y-11397674D02*
X6291353Y-11359579D01*
X6291353Y-11359579D02*
X6300877Y-11340531D01*
X6300877Y-11340531D02*
X6310401Y-11331008D01*
X6310401Y-11331008D02*
X6329448Y-11321484D01*
X6472306Y-11340531D02*
X6481829Y-11331008D01*
X6481829Y-11331008D02*
X6500877Y-11321484D01*
X6500877Y-11321484D02*
X6548496Y-11321484D01*
X6548496Y-11321484D02*
X6567544Y-11331008D01*
X6567544Y-11331008D02*
X6577067Y-11340531D01*
X6577067Y-11340531D02*
X6586591Y-11359579D01*
X6586591Y-11359579D02*
X6586591Y-11378627D01*
X6586591Y-11378627D02*
X6577067Y-11407198D01*
X6577067Y-11407198D02*
X6462782Y-11521484D01*
X6462782Y-11521484D02*
X6586591Y-11521484D01*
X6653258Y-11321484D02*
X6786591Y-11321484D01*
X6786591Y-11321484D02*
X6700877Y-11521484D01*
X6948496Y-11321484D02*
X6910401Y-11321484D01*
X6910401Y-11321484D02*
X6891353Y-11331008D01*
X6891353Y-11331008D02*
X6881829Y-11340531D01*
X6881829Y-11340531D02*
X6862782Y-11369103D01*
X6862782Y-11369103D02*
X6853258Y-11407198D01*
X6853258Y-11407198D02*
X6853258Y-11483388D01*
X6853258Y-11483388D02*
X6862782Y-11502436D01*
X6862782Y-11502436D02*
X6872306Y-11511960D01*
X6872306Y-11511960D02*
X6891353Y-11521484D01*
X6891353Y-11521484D02*
X6929448Y-11521484D01*
X6929448Y-11521484D02*
X6948496Y-11511960D01*
X6948496Y-11511960D02*
X6958020Y-11502436D01*
X6958020Y-11502436D02*
X6967544Y-11483388D01*
X6967544Y-11483388D02*
X6967544Y-11435769D01*
X6967544Y-11435769D02*
X6958020Y-11416722D01*
X6958020Y-11416722D02*
X6948496Y-11407198D01*
X6948496Y-11407198D02*
X6929448Y-11397674D01*
X6929448Y-11397674D02*
X6891353Y-11397674D01*
X6891353Y-11397674D02*
X6872306Y-11407198D01*
X6872306Y-11407198D02*
X6862782Y-11416722D01*
X6862782Y-11416722D02*
X6853258Y-11435769D01*
X7043734Y-11321484D02*
X7043734Y-11359579D01*
X7119925Y-11321484D02*
X7119925Y-11359579D01*
X7415163Y-11597674D02*
X7405639Y-11588150D01*
X7405639Y-11588150D02*
X7386591Y-11559579D01*
X7386591Y-11559579D02*
X7377068Y-11540531D01*
X7377068Y-11540531D02*
X7367544Y-11511960D01*
X7367544Y-11511960D02*
X7358020Y-11464341D01*
X7358020Y-11464341D02*
X7358020Y-11426246D01*
X7358020Y-11426246D02*
X7367544Y-11378627D01*
X7367544Y-11378627D02*
X7377068Y-11350055D01*
X7377068Y-11350055D02*
X7386591Y-11331008D01*
X7386591Y-11331008D02*
X7405639Y-11302436D01*
X7405639Y-11302436D02*
X7415163Y-11292912D01*
X7519925Y-11407198D02*
X7500877Y-11397674D01*
X7500877Y-11397674D02*
X7491353Y-11388150D01*
X7491353Y-11388150D02*
X7481829Y-11369103D01*
X7481829Y-11369103D02*
X7481829Y-11359579D01*
X7481829Y-11359579D02*
X7491353Y-11340531D01*
X7491353Y-11340531D02*
X7500877Y-11331008D01*
X7500877Y-11331008D02*
X7519925Y-11321484D01*
X7519925Y-11321484D02*
X7558020Y-11321484D01*
X7558020Y-11321484D02*
X7577068Y-11331008D01*
X7577068Y-11331008D02*
X7586591Y-11340531D01*
X7586591Y-11340531D02*
X7596115Y-11359579D01*
X7596115Y-11359579D02*
X7596115Y-11369103D01*
X7596115Y-11369103D02*
X7586591Y-11388150D01*
X7586591Y-11388150D02*
X7577068Y-11397674D01*
X7577068Y-11397674D02*
X7558020Y-11407198D01*
X7558020Y-11407198D02*
X7519925Y-11407198D01*
X7519925Y-11407198D02*
X7500877Y-11416722D01*
X7500877Y-11416722D02*
X7491353Y-11426246D01*
X7491353Y-11426246D02*
X7481829Y-11445293D01*
X7481829Y-11445293D02*
X7481829Y-11483388D01*
X7481829Y-11483388D02*
X7491353Y-11502436D01*
X7491353Y-11502436D02*
X7500877Y-11511960D01*
X7500877Y-11511960D02*
X7519925Y-11521484D01*
X7519925Y-11521484D02*
X7558020Y-11521484D01*
X7558020Y-11521484D02*
X7577068Y-11511960D01*
X7577068Y-11511960D02*
X7586591Y-11502436D01*
X7586591Y-11502436D02*
X7596115Y-11483388D01*
X7596115Y-11483388D02*
X7596115Y-11445293D01*
X7596115Y-11445293D02*
X7586591Y-11426246D01*
X7586591Y-11426246D02*
X7577068Y-11416722D01*
X7577068Y-11416722D02*
X7558020Y-11407198D01*
X7834210Y-11521484D02*
X7834210Y-11321484D01*
X7919925Y-11521484D02*
X7919925Y-11416722D01*
X7919925Y-11416722D02*
X7910401Y-11397674D01*
X7910401Y-11397674D02*
X7891353Y-11388150D01*
X7891353Y-11388150D02*
X7862782Y-11388150D01*
X7862782Y-11388150D02*
X7843734Y-11397674D01*
X7843734Y-11397674D02*
X7834210Y-11407198D01*
X8043734Y-11521484D02*
X8024687Y-11511960D01*
X8024687Y-11511960D02*
X8015163Y-11502436D01*
X8015163Y-11502436D02*
X8005639Y-11483388D01*
X8005639Y-11483388D02*
X8005639Y-11426246D01*
X8005639Y-11426246D02*
X8015163Y-11407198D01*
X8015163Y-11407198D02*
X8024687Y-11397674D01*
X8024687Y-11397674D02*
X8043734Y-11388150D01*
X8043734Y-11388150D02*
X8072306Y-11388150D01*
X8072306Y-11388150D02*
X8091353Y-11397674D01*
X8091353Y-11397674D02*
X8100877Y-11407198D01*
X8100877Y-11407198D02*
X8110401Y-11426246D01*
X8110401Y-11426246D02*
X8110401Y-11483388D01*
X8110401Y-11483388D02*
X8100877Y-11502436D01*
X8100877Y-11502436D02*
X8091353Y-11511960D01*
X8091353Y-11511960D02*
X8072306Y-11521484D01*
X8072306Y-11521484D02*
X8043734Y-11521484D01*
X8224687Y-11521484D02*
X8205639Y-11511960D01*
X8205639Y-11511960D02*
X8196115Y-11492912D01*
X8196115Y-11492912D02*
X8196115Y-11321484D01*
X8377068Y-11511960D02*
X8358020Y-11521484D01*
X8358020Y-11521484D02*
X8319925Y-11521484D01*
X8319925Y-11521484D02*
X8300877Y-11511960D01*
X8300877Y-11511960D02*
X8291353Y-11492912D01*
X8291353Y-11492912D02*
X8291353Y-11416722D01*
X8291353Y-11416722D02*
X8300877Y-11397674D01*
X8300877Y-11397674D02*
X8319925Y-11388150D01*
X8319925Y-11388150D02*
X8358020Y-11388150D01*
X8358020Y-11388150D02*
X8377068Y-11397674D01*
X8377068Y-11397674D02*
X8386591Y-11416722D01*
X8386591Y-11416722D02*
X8386591Y-11435769D01*
X8386591Y-11435769D02*
X8291353Y-11454817D01*
X8462782Y-11511960D02*
X8481830Y-11521484D01*
X8481830Y-11521484D02*
X8519925Y-11521484D01*
X8519925Y-11521484D02*
X8538973Y-11511960D01*
X8538973Y-11511960D02*
X8548496Y-11492912D01*
X8548496Y-11492912D02*
X8548496Y-11483388D01*
X8548496Y-11483388D02*
X8538973Y-11464341D01*
X8538973Y-11464341D02*
X8519925Y-11454817D01*
X8519925Y-11454817D02*
X8491353Y-11454817D01*
X8491353Y-11454817D02*
X8472306Y-11445293D01*
X8472306Y-11445293D02*
X8462782Y-11426246D01*
X8462782Y-11426246D02*
X8462782Y-11416722D01*
X8462782Y-11416722D02*
X8472306Y-11397674D01*
X8472306Y-11397674D02*
X8491353Y-11388150D01*
X8491353Y-11388150D02*
X8519925Y-11388150D01*
X8519925Y-11388150D02*
X8538973Y-11397674D01*
X8615163Y-11597674D02*
X8624687Y-11588150D01*
X8624687Y-11588150D02*
X8643734Y-11559579D01*
X8643734Y-11559579D02*
X8653258Y-11540531D01*
X8653258Y-11540531D02*
X8662782Y-11511960D01*
X8662782Y-11511960D02*
X8672306Y-11464341D01*
X8672306Y-11464341D02*
X8672306Y-11426246D01*
X8672306Y-11426246D02*
X8662782Y-11378627D01*
X8662782Y-11378627D02*
X8653258Y-11350055D01*
X8653258Y-11350055D02*
X8643734Y-11331008D01*
X8643734Y-11331008D02*
X8624687Y-11302436D01*
X8624687Y-11302436D02*
X8615163Y-11292912D01*
D15*
X3795100Y-11649000D02*
X3795100Y-11739000D01*
X3750100Y-11694000D02*
X3840100Y-11694000D01*
D12*
X4138972Y-11585484D02*
X4158020Y-11585484D01*
X4158020Y-11585484D02*
X4177067Y-11595008D01*
X4177067Y-11595008D02*
X4186591Y-11604531D01*
X4186591Y-11604531D02*
X4196115Y-11623579D01*
X4196115Y-11623579D02*
X4205639Y-11661674D01*
X4205639Y-11661674D02*
X4205639Y-11709293D01*
X4205639Y-11709293D02*
X4196115Y-11747388D01*
X4196115Y-11747388D02*
X4186591Y-11766436D01*
X4186591Y-11766436D02*
X4177067Y-11775960D01*
X4177067Y-11775960D02*
X4158020Y-11785484D01*
X4158020Y-11785484D02*
X4138972Y-11785484D01*
X4138972Y-11785484D02*
X4119924Y-11775960D01*
X4119924Y-11775960D02*
X4110401Y-11766436D01*
X4110401Y-11766436D02*
X4100877Y-11747388D01*
X4100877Y-11747388D02*
X4091353Y-11709293D01*
X4091353Y-11709293D02*
X4091353Y-11661674D01*
X4091353Y-11661674D02*
X4100877Y-11623579D01*
X4100877Y-11623579D02*
X4110401Y-11604531D01*
X4110401Y-11604531D02*
X4119924Y-11595008D01*
X4119924Y-11595008D02*
X4138972Y-11585484D01*
X4291353Y-11766436D02*
X4300877Y-11775960D01*
X4300877Y-11775960D02*
X4291353Y-11785484D01*
X4291353Y-11785484D02*
X4281829Y-11775960D01*
X4281829Y-11775960D02*
X4291353Y-11766436D01*
X4291353Y-11766436D02*
X4291353Y-11785484D01*
X4396115Y-11785484D02*
X4434210Y-11785484D01*
X4434210Y-11785484D02*
X4453258Y-11775960D01*
X4453258Y-11775960D02*
X4462782Y-11766436D01*
X4462782Y-11766436D02*
X4481829Y-11737865D01*
X4481829Y-11737865D02*
X4491353Y-11699769D01*
X4491353Y-11699769D02*
X4491353Y-11623579D01*
X4491353Y-11623579D02*
X4481829Y-11604531D01*
X4481829Y-11604531D02*
X4472305Y-11595008D01*
X4472305Y-11595008D02*
X4453258Y-11585484D01*
X4453258Y-11585484D02*
X4415163Y-11585484D01*
X4415163Y-11585484D02*
X4396115Y-11595008D01*
X4396115Y-11595008D02*
X4386591Y-11604531D01*
X4386591Y-11604531D02*
X4377067Y-11623579D01*
X4377067Y-11623579D02*
X4377067Y-11671198D01*
X4377067Y-11671198D02*
X4386591Y-11690246D01*
X4386591Y-11690246D02*
X4396115Y-11699769D01*
X4396115Y-11699769D02*
X4415163Y-11709293D01*
X4415163Y-11709293D02*
X4453258Y-11709293D01*
X4453258Y-11709293D02*
X4472305Y-11699769D01*
X4472305Y-11699769D02*
X4481829Y-11690246D01*
X4481829Y-11690246D02*
X4491353Y-11671198D01*
X4615163Y-11585484D02*
X4634210Y-11585484D01*
X4634210Y-11585484D02*
X4653258Y-11595008D01*
X4653258Y-11595008D02*
X4662782Y-11604531D01*
X4662782Y-11604531D02*
X4672305Y-11623579D01*
X4672305Y-11623579D02*
X4681829Y-11661674D01*
X4681829Y-11661674D02*
X4681829Y-11709293D01*
X4681829Y-11709293D02*
X4672305Y-11747388D01*
X4672305Y-11747388D02*
X4662782Y-11766436D01*
X4662782Y-11766436D02*
X4653258Y-11775960D01*
X4653258Y-11775960D02*
X4634210Y-11785484D01*
X4634210Y-11785484D02*
X4615163Y-11785484D01*
X4615163Y-11785484D02*
X4596115Y-11775960D01*
X4596115Y-11775960D02*
X4586591Y-11766436D01*
X4586591Y-11766436D02*
X4577067Y-11747388D01*
X4577067Y-11747388D02*
X4567544Y-11709293D01*
X4567544Y-11709293D02*
X4567544Y-11661674D01*
X4567544Y-11661674D02*
X4577067Y-11623579D01*
X4577067Y-11623579D02*
X4586591Y-11604531D01*
X4586591Y-11604531D02*
X4596115Y-11595008D01*
X4596115Y-11595008D02*
X4615163Y-11585484D01*
X4805639Y-11585484D02*
X4824686Y-11585484D01*
X4824686Y-11585484D02*
X4843734Y-11595008D01*
X4843734Y-11595008D02*
X4853258Y-11604531D01*
X4853258Y-11604531D02*
X4862782Y-11623579D01*
X4862782Y-11623579D02*
X4872305Y-11661674D01*
X4872305Y-11661674D02*
X4872305Y-11709293D01*
X4872305Y-11709293D02*
X4862782Y-11747388D01*
X4862782Y-11747388D02*
X4853258Y-11766436D01*
X4853258Y-11766436D02*
X4843734Y-11775960D01*
X4843734Y-11775960D02*
X4824686Y-11785484D01*
X4824686Y-11785484D02*
X4805639Y-11785484D01*
X4805639Y-11785484D02*
X4786591Y-11775960D01*
X4786591Y-11775960D02*
X4777067Y-11766436D01*
X4777067Y-11766436D02*
X4767544Y-11747388D01*
X4767544Y-11747388D02*
X4758020Y-11709293D01*
X4758020Y-11709293D02*
X4758020Y-11661674D01*
X4758020Y-11661674D02*
X4767544Y-11623579D01*
X4767544Y-11623579D02*
X4777067Y-11604531D01*
X4777067Y-11604531D02*
X4786591Y-11595008D01*
X4786591Y-11595008D02*
X4805639Y-11585484D01*
X4958020Y-11785484D02*
X4958020Y-11652150D01*
X4958020Y-11671198D02*
X4967544Y-11661674D01*
X4967544Y-11661674D02*
X4986591Y-11652150D01*
X4986591Y-11652150D02*
X5015163Y-11652150D01*
X5015163Y-11652150D02*
X5034210Y-11661674D01*
X5034210Y-11661674D02*
X5043734Y-11680722D01*
X5043734Y-11680722D02*
X5043734Y-11785484D01*
X5043734Y-11680722D02*
X5053258Y-11661674D01*
X5053258Y-11661674D02*
X5072305Y-11652150D01*
X5072305Y-11652150D02*
X5100877Y-11652150D01*
X5100877Y-11652150D02*
X5119925Y-11661674D01*
X5119925Y-11661674D02*
X5129448Y-11680722D01*
X5129448Y-11680722D02*
X5129448Y-11785484D01*
X5224686Y-11785484D02*
X5224686Y-11652150D01*
X5224686Y-11671198D02*
X5234210Y-11661674D01*
X5234210Y-11661674D02*
X5253258Y-11652150D01*
X5253258Y-11652150D02*
X5281829Y-11652150D01*
X5281829Y-11652150D02*
X5300877Y-11661674D01*
X5300877Y-11661674D02*
X5310401Y-11680722D01*
X5310401Y-11680722D02*
X5310401Y-11785484D01*
X5310401Y-11680722D02*
X5319925Y-11661674D01*
X5319925Y-11661674D02*
X5338972Y-11652150D01*
X5338972Y-11652150D02*
X5367544Y-11652150D01*
X5367544Y-11652150D02*
X5386591Y-11661674D01*
X5386591Y-11661674D02*
X5396115Y-11680722D01*
X5396115Y-11680722D02*
X5396115Y-11785484D01*
X5786591Y-11575960D02*
X5615163Y-11833103D01*
X6043734Y-11585484D02*
X6062782Y-11585484D01*
X6062782Y-11585484D02*
X6081829Y-11595008D01*
X6081829Y-11595008D02*
X6091353Y-11604531D01*
X6091353Y-11604531D02*
X6100877Y-11623579D01*
X6100877Y-11623579D02*
X6110401Y-11661674D01*
X6110401Y-11661674D02*
X6110401Y-11709293D01*
X6110401Y-11709293D02*
X6100877Y-11747388D01*
X6100877Y-11747388D02*
X6091353Y-11766436D01*
X6091353Y-11766436D02*
X6081829Y-11775960D01*
X6081829Y-11775960D02*
X6062782Y-11785484D01*
X6062782Y-11785484D02*
X6043734Y-11785484D01*
X6043734Y-11785484D02*
X6024686Y-11775960D01*
X6024686Y-11775960D02*
X6015163Y-11766436D01*
X6015163Y-11766436D02*
X6005639Y-11747388D01*
X6005639Y-11747388D02*
X5996115Y-11709293D01*
X5996115Y-11709293D02*
X5996115Y-11661674D01*
X5996115Y-11661674D02*
X6005639Y-11623579D01*
X6005639Y-11623579D02*
X6015163Y-11604531D01*
X6015163Y-11604531D02*
X6024686Y-11595008D01*
X6024686Y-11595008D02*
X6043734Y-11585484D01*
X6196115Y-11766436D02*
X6205639Y-11775960D01*
X6205639Y-11775960D02*
X6196115Y-11785484D01*
X6196115Y-11785484D02*
X6186591Y-11775960D01*
X6186591Y-11775960D02*
X6196115Y-11766436D01*
X6196115Y-11766436D02*
X6196115Y-11785484D01*
X6329448Y-11585484D02*
X6348496Y-11585484D01*
X6348496Y-11585484D02*
X6367544Y-11595008D01*
X6367544Y-11595008D02*
X6377067Y-11604531D01*
X6377067Y-11604531D02*
X6386591Y-11623579D01*
X6386591Y-11623579D02*
X6396115Y-11661674D01*
X6396115Y-11661674D02*
X6396115Y-11709293D01*
X6396115Y-11709293D02*
X6386591Y-11747388D01*
X6386591Y-11747388D02*
X6377067Y-11766436D01*
X6377067Y-11766436D02*
X6367544Y-11775960D01*
X6367544Y-11775960D02*
X6348496Y-11785484D01*
X6348496Y-11785484D02*
X6329448Y-11785484D01*
X6329448Y-11785484D02*
X6310401Y-11775960D01*
X6310401Y-11775960D02*
X6300877Y-11766436D01*
X6300877Y-11766436D02*
X6291353Y-11747388D01*
X6291353Y-11747388D02*
X6281829Y-11709293D01*
X6281829Y-11709293D02*
X6281829Y-11661674D01*
X6281829Y-11661674D02*
X6291353Y-11623579D01*
X6291353Y-11623579D02*
X6300877Y-11604531D01*
X6300877Y-11604531D02*
X6310401Y-11595008D01*
X6310401Y-11595008D02*
X6329448Y-11585484D01*
X6462782Y-11585484D02*
X6586591Y-11585484D01*
X6586591Y-11585484D02*
X6519925Y-11661674D01*
X6519925Y-11661674D02*
X6548496Y-11661674D01*
X6548496Y-11661674D02*
X6567544Y-11671198D01*
X6567544Y-11671198D02*
X6577067Y-11680722D01*
X6577067Y-11680722D02*
X6586591Y-11699769D01*
X6586591Y-11699769D02*
X6586591Y-11747388D01*
X6586591Y-11747388D02*
X6577067Y-11766436D01*
X6577067Y-11766436D02*
X6567544Y-11775960D01*
X6567544Y-11775960D02*
X6548496Y-11785484D01*
X6548496Y-11785484D02*
X6491353Y-11785484D01*
X6491353Y-11785484D02*
X6472306Y-11775960D01*
X6472306Y-11775960D02*
X6462782Y-11766436D01*
X6767544Y-11585484D02*
X6672306Y-11585484D01*
X6672306Y-11585484D02*
X6662782Y-11680722D01*
X6662782Y-11680722D02*
X6672306Y-11671198D01*
X6672306Y-11671198D02*
X6691353Y-11661674D01*
X6691353Y-11661674D02*
X6738972Y-11661674D01*
X6738972Y-11661674D02*
X6758020Y-11671198D01*
X6758020Y-11671198D02*
X6767544Y-11680722D01*
X6767544Y-11680722D02*
X6777067Y-11699769D01*
X6777067Y-11699769D02*
X6777067Y-11747388D01*
X6777067Y-11747388D02*
X6767544Y-11766436D01*
X6767544Y-11766436D02*
X6758020Y-11775960D01*
X6758020Y-11775960D02*
X6738972Y-11785484D01*
X6738972Y-11785484D02*
X6691353Y-11785484D01*
X6691353Y-11785484D02*
X6672306Y-11775960D01*
X6672306Y-11775960D02*
X6662782Y-11766436D01*
X6948496Y-11652150D02*
X6948496Y-11785484D01*
X6900877Y-11575960D02*
X6853258Y-11718817D01*
X6853258Y-11718817D02*
X6977067Y-11718817D01*
X7043734Y-11585484D02*
X7043734Y-11623579D01*
X7119925Y-11585484D02*
X7119925Y-11623579D01*
X7415163Y-11861674D02*
X7405639Y-11852150D01*
X7405639Y-11852150D02*
X7386591Y-11823579D01*
X7386591Y-11823579D02*
X7377068Y-11804531D01*
X7377068Y-11804531D02*
X7367544Y-11775960D01*
X7367544Y-11775960D02*
X7358020Y-11728341D01*
X7358020Y-11728341D02*
X7358020Y-11690246D01*
X7358020Y-11690246D02*
X7367544Y-11642627D01*
X7367544Y-11642627D02*
X7377068Y-11614055D01*
X7377068Y-11614055D02*
X7386591Y-11595008D01*
X7386591Y-11595008D02*
X7405639Y-11566436D01*
X7405639Y-11566436D02*
X7415163Y-11556912D01*
X7529448Y-11585484D02*
X7548496Y-11585484D01*
X7548496Y-11585484D02*
X7567544Y-11595008D01*
X7567544Y-11595008D02*
X7577068Y-11604531D01*
X7577068Y-11604531D02*
X7586591Y-11623579D01*
X7586591Y-11623579D02*
X7596115Y-11661674D01*
X7596115Y-11661674D02*
X7596115Y-11709293D01*
X7596115Y-11709293D02*
X7586591Y-11747388D01*
X7586591Y-11747388D02*
X7577068Y-11766436D01*
X7577068Y-11766436D02*
X7567544Y-11775960D01*
X7567544Y-11775960D02*
X7548496Y-11785484D01*
X7548496Y-11785484D02*
X7529448Y-11785484D01*
X7529448Y-11785484D02*
X7510401Y-11775960D01*
X7510401Y-11775960D02*
X7500877Y-11766436D01*
X7500877Y-11766436D02*
X7491353Y-11747388D01*
X7491353Y-11747388D02*
X7481829Y-11709293D01*
X7481829Y-11709293D02*
X7481829Y-11661674D01*
X7481829Y-11661674D02*
X7491353Y-11623579D01*
X7491353Y-11623579D02*
X7500877Y-11604531D01*
X7500877Y-11604531D02*
X7510401Y-11595008D01*
X7510401Y-11595008D02*
X7529448Y-11585484D01*
X7834210Y-11785484D02*
X7834210Y-11585484D01*
X7919925Y-11785484D02*
X7919925Y-11680722D01*
X7919925Y-11680722D02*
X7910401Y-11661674D01*
X7910401Y-11661674D02*
X7891353Y-11652150D01*
X7891353Y-11652150D02*
X7862782Y-11652150D01*
X7862782Y-11652150D02*
X7843734Y-11661674D01*
X7843734Y-11661674D02*
X7834210Y-11671198D01*
X8043734Y-11785484D02*
X8024687Y-11775960D01*
X8024687Y-11775960D02*
X8015163Y-11766436D01*
X8015163Y-11766436D02*
X8005639Y-11747388D01*
X8005639Y-11747388D02*
X8005639Y-11690246D01*
X8005639Y-11690246D02*
X8015163Y-11671198D01*
X8015163Y-11671198D02*
X8024687Y-11661674D01*
X8024687Y-11661674D02*
X8043734Y-11652150D01*
X8043734Y-11652150D02*
X8072306Y-11652150D01*
X8072306Y-11652150D02*
X8091353Y-11661674D01*
X8091353Y-11661674D02*
X8100877Y-11671198D01*
X8100877Y-11671198D02*
X8110401Y-11690246D01*
X8110401Y-11690246D02*
X8110401Y-11747388D01*
X8110401Y-11747388D02*
X8100877Y-11766436D01*
X8100877Y-11766436D02*
X8091353Y-11775960D01*
X8091353Y-11775960D02*
X8072306Y-11785484D01*
X8072306Y-11785484D02*
X8043734Y-11785484D01*
X8224687Y-11785484D02*
X8205639Y-11775960D01*
X8205639Y-11775960D02*
X8196115Y-11756912D01*
X8196115Y-11756912D02*
X8196115Y-11585484D01*
X8377068Y-11775960D02*
X8358020Y-11785484D01*
X8358020Y-11785484D02*
X8319925Y-11785484D01*
X8319925Y-11785484D02*
X8300877Y-11775960D01*
X8300877Y-11775960D02*
X8291353Y-11756912D01*
X8291353Y-11756912D02*
X8291353Y-11680722D01*
X8291353Y-11680722D02*
X8300877Y-11661674D01*
X8300877Y-11661674D02*
X8319925Y-11652150D01*
X8319925Y-11652150D02*
X8358020Y-11652150D01*
X8358020Y-11652150D02*
X8377068Y-11661674D01*
X8377068Y-11661674D02*
X8386591Y-11680722D01*
X8386591Y-11680722D02*
X8386591Y-11699769D01*
X8386591Y-11699769D02*
X8291353Y-11718817D01*
X8462782Y-11775960D02*
X8481830Y-11785484D01*
X8481830Y-11785484D02*
X8519925Y-11785484D01*
X8519925Y-11785484D02*
X8538973Y-11775960D01*
X8538973Y-11775960D02*
X8548496Y-11756912D01*
X8548496Y-11756912D02*
X8548496Y-11747388D01*
X8548496Y-11747388D02*
X8538973Y-11728341D01*
X8538973Y-11728341D02*
X8519925Y-11718817D01*
X8519925Y-11718817D02*
X8491353Y-11718817D01*
X8491353Y-11718817D02*
X8472306Y-11709293D01*
X8472306Y-11709293D02*
X8462782Y-11690246D01*
X8462782Y-11690246D02*
X8462782Y-11680722D01*
X8462782Y-11680722D02*
X8472306Y-11661674D01*
X8472306Y-11661674D02*
X8491353Y-11652150D01*
X8491353Y-11652150D02*
X8519925Y-11652150D01*
X8519925Y-11652150D02*
X8538973Y-11661674D01*
X8786592Y-11709293D02*
X8938973Y-11709293D01*
X8862782Y-11785484D02*
X8862782Y-11633103D01*
X9215163Y-11671198D02*
X9196115Y-11661674D01*
X9196115Y-11661674D02*
X9186592Y-11652150D01*
X9186592Y-11652150D02*
X9177068Y-11633103D01*
X9177068Y-11633103D02*
X9177068Y-11623579D01*
X9177068Y-11623579D02*
X9186592Y-11604531D01*
X9186592Y-11604531D02*
X9196115Y-11595008D01*
X9196115Y-11595008D02*
X9215163Y-11585484D01*
X9215163Y-11585484D02*
X9253258Y-11585484D01*
X9253258Y-11585484D02*
X9272306Y-11595008D01*
X9272306Y-11595008D02*
X9281830Y-11604531D01*
X9281830Y-11604531D02*
X9291354Y-11623579D01*
X9291354Y-11623579D02*
X9291354Y-11633103D01*
X9291354Y-11633103D02*
X9281830Y-11652150D01*
X9281830Y-11652150D02*
X9272306Y-11661674D01*
X9272306Y-11661674D02*
X9253258Y-11671198D01*
X9253258Y-11671198D02*
X9215163Y-11671198D01*
X9215163Y-11671198D02*
X9196115Y-11680722D01*
X9196115Y-11680722D02*
X9186592Y-11690246D01*
X9186592Y-11690246D02*
X9177068Y-11709293D01*
X9177068Y-11709293D02*
X9177068Y-11747388D01*
X9177068Y-11747388D02*
X9186592Y-11766436D01*
X9186592Y-11766436D02*
X9196115Y-11775960D01*
X9196115Y-11775960D02*
X9215163Y-11785484D01*
X9215163Y-11785484D02*
X9253258Y-11785484D01*
X9253258Y-11785484D02*
X9272306Y-11775960D01*
X9272306Y-11775960D02*
X9281830Y-11766436D01*
X9281830Y-11766436D02*
X9291354Y-11747388D01*
X9291354Y-11747388D02*
X9291354Y-11709293D01*
X9291354Y-11709293D02*
X9281830Y-11690246D01*
X9281830Y-11690246D02*
X9272306Y-11680722D01*
X9272306Y-11680722D02*
X9253258Y-11671198D01*
X9519925Y-11775960D02*
X9538973Y-11785484D01*
X9538973Y-11785484D02*
X9577068Y-11785484D01*
X9577068Y-11785484D02*
X9596116Y-11775960D01*
X9596116Y-11775960D02*
X9605639Y-11756912D01*
X9605639Y-11756912D02*
X9605639Y-11747388D01*
X9605639Y-11747388D02*
X9596116Y-11728341D01*
X9596116Y-11728341D02*
X9577068Y-11718817D01*
X9577068Y-11718817D02*
X9548496Y-11718817D01*
X9548496Y-11718817D02*
X9529449Y-11709293D01*
X9529449Y-11709293D02*
X9519925Y-11690246D01*
X9519925Y-11690246D02*
X9519925Y-11680722D01*
X9519925Y-11680722D02*
X9529449Y-11661674D01*
X9529449Y-11661674D02*
X9548496Y-11652150D01*
X9548496Y-11652150D02*
X9577068Y-11652150D01*
X9577068Y-11652150D02*
X9596116Y-11661674D01*
X9719925Y-11785484D02*
X9700877Y-11775960D01*
X9700877Y-11775960D02*
X9691354Y-11756912D01*
X9691354Y-11756912D02*
X9691354Y-11585484D01*
X9824687Y-11785484D02*
X9805639Y-11775960D01*
X9805639Y-11775960D02*
X9796116Y-11766436D01*
X9796116Y-11766436D02*
X9786592Y-11747388D01*
X9786592Y-11747388D02*
X9786592Y-11690246D01*
X9786592Y-11690246D02*
X9796116Y-11671198D01*
X9796116Y-11671198D02*
X9805639Y-11661674D01*
X9805639Y-11661674D02*
X9824687Y-11652150D01*
X9824687Y-11652150D02*
X9853258Y-11652150D01*
X9853258Y-11652150D02*
X9872306Y-11661674D01*
X9872306Y-11661674D02*
X9881830Y-11671198D01*
X9881830Y-11671198D02*
X9891354Y-11690246D01*
X9891354Y-11690246D02*
X9891354Y-11747388D01*
X9891354Y-11747388D02*
X9881830Y-11766436D01*
X9881830Y-11766436D02*
X9872306Y-11775960D01*
X9872306Y-11775960D02*
X9853258Y-11785484D01*
X9853258Y-11785484D02*
X9824687Y-11785484D01*
X9948497Y-11652150D02*
X10024687Y-11652150D01*
X9977068Y-11585484D02*
X9977068Y-11756912D01*
X9977068Y-11756912D02*
X9986592Y-11775960D01*
X9986592Y-11775960D02*
X10005639Y-11785484D01*
X10005639Y-11785484D02*
X10024687Y-11785484D01*
X10081830Y-11775960D02*
X10100877Y-11785484D01*
X10100877Y-11785484D02*
X10138973Y-11785484D01*
X10138973Y-11785484D02*
X10158020Y-11775960D01*
X10158020Y-11775960D02*
X10167544Y-11756912D01*
X10167544Y-11756912D02*
X10167544Y-11747388D01*
X10167544Y-11747388D02*
X10158020Y-11728341D01*
X10158020Y-11728341D02*
X10138973Y-11718817D01*
X10138973Y-11718817D02*
X10110401Y-11718817D01*
X10110401Y-11718817D02*
X10091354Y-11709293D01*
X10091354Y-11709293D02*
X10081830Y-11690246D01*
X10081830Y-11690246D02*
X10081830Y-11680722D01*
X10081830Y-11680722D02*
X10091354Y-11661674D01*
X10091354Y-11661674D02*
X10110401Y-11652150D01*
X10110401Y-11652150D02*
X10138973Y-11652150D01*
X10138973Y-11652150D02*
X10158020Y-11661674D01*
X10234211Y-11861674D02*
X10243735Y-11852150D01*
X10243735Y-11852150D02*
X10262782Y-11823579D01*
X10262782Y-11823579D02*
X10272306Y-11804531D01*
X10272306Y-11804531D02*
X10281830Y-11775960D01*
X10281830Y-11775960D02*
X10291354Y-11728341D01*
X10291354Y-11728341D02*
X10291354Y-11690246D01*
X10291354Y-11690246D02*
X10281830Y-11642627D01*
X10281830Y-11642627D02*
X10272306Y-11614055D01*
X10272306Y-11614055D02*
X10262782Y-11595008D01*
X10262782Y-11595008D02*
X10243735Y-11566436D01*
X10243735Y-11566436D02*
X10234211Y-11556912D01*
D10*
X3825456Y-11993356D02*
X3825456Y-11922644D01*
X3754744Y-11922644D01*
X3754744Y-11993356D01*
X3825456Y-11993356D01*
D12*
X4205639Y-12049484D02*
X4091353Y-12049484D01*
X4148496Y-12049484D02*
X4148496Y-11849484D01*
X4148496Y-11849484D02*
X4129448Y-11878055D01*
X4129448Y-11878055D02*
X4110401Y-11897103D01*
X4110401Y-11897103D02*
X4091353Y-11906627D01*
X4291353Y-12030436D02*
X4300877Y-12039960D01*
X4300877Y-12039960D02*
X4291353Y-12049484D01*
X4291353Y-12049484D02*
X4281829Y-12039960D01*
X4281829Y-12039960D02*
X4291353Y-12030436D01*
X4291353Y-12030436D02*
X4291353Y-12049484D01*
X4424686Y-11849484D02*
X4443734Y-11849484D01*
X4443734Y-11849484D02*
X4462782Y-11859008D01*
X4462782Y-11859008D02*
X4472305Y-11868531D01*
X4472305Y-11868531D02*
X4481829Y-11887579D01*
X4481829Y-11887579D02*
X4491353Y-11925674D01*
X4491353Y-11925674D02*
X4491353Y-11973293D01*
X4491353Y-11973293D02*
X4481829Y-12011388D01*
X4481829Y-12011388D02*
X4472305Y-12030436D01*
X4472305Y-12030436D02*
X4462782Y-12039960D01*
X4462782Y-12039960D02*
X4443734Y-12049484D01*
X4443734Y-12049484D02*
X4424686Y-12049484D01*
X4424686Y-12049484D02*
X4405639Y-12039960D01*
X4405639Y-12039960D02*
X4396115Y-12030436D01*
X4396115Y-12030436D02*
X4386591Y-12011388D01*
X4386591Y-12011388D02*
X4377067Y-11973293D01*
X4377067Y-11973293D02*
X4377067Y-11925674D01*
X4377067Y-11925674D02*
X4386591Y-11887579D01*
X4386591Y-11887579D02*
X4396115Y-11868531D01*
X4396115Y-11868531D02*
X4405639Y-11859008D01*
X4405639Y-11859008D02*
X4424686Y-11849484D01*
X4615163Y-11849484D02*
X4634210Y-11849484D01*
X4634210Y-11849484D02*
X4653258Y-11859008D01*
X4653258Y-11859008D02*
X4662782Y-11868531D01*
X4662782Y-11868531D02*
X4672305Y-11887579D01*
X4672305Y-11887579D02*
X4681829Y-11925674D01*
X4681829Y-11925674D02*
X4681829Y-11973293D01*
X4681829Y-11973293D02*
X4672305Y-12011388D01*
X4672305Y-12011388D02*
X4662782Y-12030436D01*
X4662782Y-12030436D02*
X4653258Y-12039960D01*
X4653258Y-12039960D02*
X4634210Y-12049484D01*
X4634210Y-12049484D02*
X4615163Y-12049484D01*
X4615163Y-12049484D02*
X4596115Y-12039960D01*
X4596115Y-12039960D02*
X4586591Y-12030436D01*
X4586591Y-12030436D02*
X4577067Y-12011388D01*
X4577067Y-12011388D02*
X4567544Y-11973293D01*
X4567544Y-11973293D02*
X4567544Y-11925674D01*
X4567544Y-11925674D02*
X4577067Y-11887579D01*
X4577067Y-11887579D02*
X4586591Y-11868531D01*
X4586591Y-11868531D02*
X4596115Y-11859008D01*
X4596115Y-11859008D02*
X4615163Y-11849484D01*
X4805639Y-11849484D02*
X4824686Y-11849484D01*
X4824686Y-11849484D02*
X4843734Y-11859008D01*
X4843734Y-11859008D02*
X4853258Y-11868531D01*
X4853258Y-11868531D02*
X4862782Y-11887579D01*
X4862782Y-11887579D02*
X4872305Y-11925674D01*
X4872305Y-11925674D02*
X4872305Y-11973293D01*
X4872305Y-11973293D02*
X4862782Y-12011388D01*
X4862782Y-12011388D02*
X4853258Y-12030436D01*
X4853258Y-12030436D02*
X4843734Y-12039960D01*
X4843734Y-12039960D02*
X4824686Y-12049484D01*
X4824686Y-12049484D02*
X4805639Y-12049484D01*
X4805639Y-12049484D02*
X4786591Y-12039960D01*
X4786591Y-12039960D02*
X4777067Y-12030436D01*
X4777067Y-12030436D02*
X4767544Y-12011388D01*
X4767544Y-12011388D02*
X4758020Y-11973293D01*
X4758020Y-11973293D02*
X4758020Y-11925674D01*
X4758020Y-11925674D02*
X4767544Y-11887579D01*
X4767544Y-11887579D02*
X4777067Y-11868531D01*
X4777067Y-11868531D02*
X4786591Y-11859008D01*
X4786591Y-11859008D02*
X4805639Y-11849484D01*
X4958020Y-12049484D02*
X4958020Y-11916150D01*
X4958020Y-11935198D02*
X4967544Y-11925674D01*
X4967544Y-11925674D02*
X4986591Y-11916150D01*
X4986591Y-11916150D02*
X5015163Y-11916150D01*
X5015163Y-11916150D02*
X5034210Y-11925674D01*
X5034210Y-11925674D02*
X5043734Y-11944722D01*
X5043734Y-11944722D02*
X5043734Y-12049484D01*
X5043734Y-11944722D02*
X5053258Y-11925674D01*
X5053258Y-11925674D02*
X5072305Y-11916150D01*
X5072305Y-11916150D02*
X5100877Y-11916150D01*
X5100877Y-11916150D02*
X5119925Y-11925674D01*
X5119925Y-11925674D02*
X5129448Y-11944722D01*
X5129448Y-11944722D02*
X5129448Y-12049484D01*
X5224686Y-12049484D02*
X5224686Y-11916150D01*
X5224686Y-11935198D02*
X5234210Y-11925674D01*
X5234210Y-11925674D02*
X5253258Y-11916150D01*
X5253258Y-11916150D02*
X5281829Y-11916150D01*
X5281829Y-11916150D02*
X5300877Y-11925674D01*
X5300877Y-11925674D02*
X5310401Y-11944722D01*
X5310401Y-11944722D02*
X5310401Y-12049484D01*
X5310401Y-11944722D02*
X5319925Y-11925674D01*
X5319925Y-11925674D02*
X5338972Y-11916150D01*
X5338972Y-11916150D02*
X5367544Y-11916150D01*
X5367544Y-11916150D02*
X5386591Y-11925674D01*
X5386591Y-11925674D02*
X5396115Y-11944722D01*
X5396115Y-11944722D02*
X5396115Y-12049484D01*
X5786591Y-11839960D02*
X5615163Y-12097103D01*
X6043734Y-11849484D02*
X6062782Y-11849484D01*
X6062782Y-11849484D02*
X6081829Y-11859008D01*
X6081829Y-11859008D02*
X6091353Y-11868531D01*
X6091353Y-11868531D02*
X6100877Y-11887579D01*
X6100877Y-11887579D02*
X6110401Y-11925674D01*
X6110401Y-11925674D02*
X6110401Y-11973293D01*
X6110401Y-11973293D02*
X6100877Y-12011388D01*
X6100877Y-12011388D02*
X6091353Y-12030436D01*
X6091353Y-12030436D02*
X6081829Y-12039960D01*
X6081829Y-12039960D02*
X6062782Y-12049484D01*
X6062782Y-12049484D02*
X6043734Y-12049484D01*
X6043734Y-12049484D02*
X6024686Y-12039960D01*
X6024686Y-12039960D02*
X6015163Y-12030436D01*
X6015163Y-12030436D02*
X6005639Y-12011388D01*
X6005639Y-12011388D02*
X5996115Y-11973293D01*
X5996115Y-11973293D02*
X5996115Y-11925674D01*
X5996115Y-11925674D02*
X6005639Y-11887579D01*
X6005639Y-11887579D02*
X6015163Y-11868531D01*
X6015163Y-11868531D02*
X6024686Y-11859008D01*
X6024686Y-11859008D02*
X6043734Y-11849484D01*
X6196115Y-12030436D02*
X6205639Y-12039960D01*
X6205639Y-12039960D02*
X6196115Y-12049484D01*
X6196115Y-12049484D02*
X6186591Y-12039960D01*
X6186591Y-12039960D02*
X6196115Y-12030436D01*
X6196115Y-12030436D02*
X6196115Y-12049484D01*
X6329448Y-11849484D02*
X6348496Y-11849484D01*
X6348496Y-11849484D02*
X6367544Y-11859008D01*
X6367544Y-11859008D02*
X6377067Y-11868531D01*
X6377067Y-11868531D02*
X6386591Y-11887579D01*
X6386591Y-11887579D02*
X6396115Y-11925674D01*
X6396115Y-11925674D02*
X6396115Y-11973293D01*
X6396115Y-11973293D02*
X6386591Y-12011388D01*
X6386591Y-12011388D02*
X6377067Y-12030436D01*
X6377067Y-12030436D02*
X6367544Y-12039960D01*
X6367544Y-12039960D02*
X6348496Y-12049484D01*
X6348496Y-12049484D02*
X6329448Y-12049484D01*
X6329448Y-12049484D02*
X6310401Y-12039960D01*
X6310401Y-12039960D02*
X6300877Y-12030436D01*
X6300877Y-12030436D02*
X6291353Y-12011388D01*
X6291353Y-12011388D02*
X6281829Y-11973293D01*
X6281829Y-11973293D02*
X6281829Y-11925674D01*
X6281829Y-11925674D02*
X6291353Y-11887579D01*
X6291353Y-11887579D02*
X6300877Y-11868531D01*
X6300877Y-11868531D02*
X6310401Y-11859008D01*
X6310401Y-11859008D02*
X6329448Y-11849484D01*
X6462782Y-11849484D02*
X6586591Y-11849484D01*
X6586591Y-11849484D02*
X6519925Y-11925674D01*
X6519925Y-11925674D02*
X6548496Y-11925674D01*
X6548496Y-11925674D02*
X6567544Y-11935198D01*
X6567544Y-11935198D02*
X6577067Y-11944722D01*
X6577067Y-11944722D02*
X6586591Y-11963769D01*
X6586591Y-11963769D02*
X6586591Y-12011388D01*
X6586591Y-12011388D02*
X6577067Y-12030436D01*
X6577067Y-12030436D02*
X6567544Y-12039960D01*
X6567544Y-12039960D02*
X6548496Y-12049484D01*
X6548496Y-12049484D02*
X6491353Y-12049484D01*
X6491353Y-12049484D02*
X6472306Y-12039960D01*
X6472306Y-12039960D02*
X6462782Y-12030436D01*
X6681829Y-12049484D02*
X6719925Y-12049484D01*
X6719925Y-12049484D02*
X6738972Y-12039960D01*
X6738972Y-12039960D02*
X6748496Y-12030436D01*
X6748496Y-12030436D02*
X6767544Y-12001865D01*
X6767544Y-12001865D02*
X6777067Y-11963769D01*
X6777067Y-11963769D02*
X6777067Y-11887579D01*
X6777067Y-11887579D02*
X6767544Y-11868531D01*
X6767544Y-11868531D02*
X6758020Y-11859008D01*
X6758020Y-11859008D02*
X6738972Y-11849484D01*
X6738972Y-11849484D02*
X6700877Y-11849484D01*
X6700877Y-11849484D02*
X6681829Y-11859008D01*
X6681829Y-11859008D02*
X6672306Y-11868531D01*
X6672306Y-11868531D02*
X6662782Y-11887579D01*
X6662782Y-11887579D02*
X6662782Y-11935198D01*
X6662782Y-11935198D02*
X6672306Y-11954246D01*
X6672306Y-11954246D02*
X6681829Y-11963769D01*
X6681829Y-11963769D02*
X6700877Y-11973293D01*
X6700877Y-11973293D02*
X6738972Y-11973293D01*
X6738972Y-11973293D02*
X6758020Y-11963769D01*
X6758020Y-11963769D02*
X6767544Y-11954246D01*
X6767544Y-11954246D02*
X6777067Y-11935198D01*
X6948496Y-11916150D02*
X6948496Y-12049484D01*
X6900877Y-11839960D02*
X6853258Y-11982817D01*
X6853258Y-11982817D02*
X6977067Y-11982817D01*
X7043734Y-11849484D02*
X7043734Y-11887579D01*
X7119925Y-11849484D02*
X7119925Y-11887579D01*
X7415163Y-12125674D02*
X7405639Y-12116150D01*
X7405639Y-12116150D02*
X7386591Y-12087579D01*
X7386591Y-12087579D02*
X7377068Y-12068531D01*
X7377068Y-12068531D02*
X7367544Y-12039960D01*
X7367544Y-12039960D02*
X7358020Y-11992341D01*
X7358020Y-11992341D02*
X7358020Y-11954246D01*
X7358020Y-11954246D02*
X7367544Y-11906627D01*
X7367544Y-11906627D02*
X7377068Y-11878055D01*
X7377068Y-11878055D02*
X7386591Y-11859008D01*
X7386591Y-11859008D02*
X7405639Y-11830436D01*
X7405639Y-11830436D02*
X7415163Y-11820912D01*
X7500877Y-12049484D02*
X7538972Y-12049484D01*
X7538972Y-12049484D02*
X7558020Y-12039960D01*
X7558020Y-12039960D02*
X7567544Y-12030436D01*
X7567544Y-12030436D02*
X7586591Y-12001865D01*
X7586591Y-12001865D02*
X7596115Y-11963769D01*
X7596115Y-11963769D02*
X7596115Y-11887579D01*
X7596115Y-11887579D02*
X7586591Y-11868531D01*
X7586591Y-11868531D02*
X7577068Y-11859008D01*
X7577068Y-11859008D02*
X7558020Y-11849484D01*
X7558020Y-11849484D02*
X7519925Y-11849484D01*
X7519925Y-11849484D02*
X7500877Y-11859008D01*
X7500877Y-11859008D02*
X7491353Y-11868531D01*
X7491353Y-11868531D02*
X7481829Y-11887579D01*
X7481829Y-11887579D02*
X7481829Y-11935198D01*
X7481829Y-11935198D02*
X7491353Y-11954246D01*
X7491353Y-11954246D02*
X7500877Y-11963769D01*
X7500877Y-11963769D02*
X7519925Y-11973293D01*
X7519925Y-11973293D02*
X7558020Y-11973293D01*
X7558020Y-11973293D02*
X7577068Y-11963769D01*
X7577068Y-11963769D02*
X7586591Y-11954246D01*
X7586591Y-11954246D02*
X7596115Y-11935198D01*
X7834210Y-12049484D02*
X7834210Y-11849484D01*
X7919925Y-12049484D02*
X7919925Y-11944722D01*
X7919925Y-11944722D02*
X7910401Y-11925674D01*
X7910401Y-11925674D02*
X7891353Y-11916150D01*
X7891353Y-11916150D02*
X7862782Y-11916150D01*
X7862782Y-11916150D02*
X7843734Y-11925674D01*
X7843734Y-11925674D02*
X7834210Y-11935198D01*
X8043734Y-12049484D02*
X8024687Y-12039960D01*
X8024687Y-12039960D02*
X8015163Y-12030436D01*
X8015163Y-12030436D02*
X8005639Y-12011388D01*
X8005639Y-12011388D02*
X8005639Y-11954246D01*
X8005639Y-11954246D02*
X8015163Y-11935198D01*
X8015163Y-11935198D02*
X8024687Y-11925674D01*
X8024687Y-11925674D02*
X8043734Y-11916150D01*
X8043734Y-11916150D02*
X8072306Y-11916150D01*
X8072306Y-11916150D02*
X8091353Y-11925674D01*
X8091353Y-11925674D02*
X8100877Y-11935198D01*
X8100877Y-11935198D02*
X8110401Y-11954246D01*
X8110401Y-11954246D02*
X8110401Y-12011388D01*
X8110401Y-12011388D02*
X8100877Y-12030436D01*
X8100877Y-12030436D02*
X8091353Y-12039960D01*
X8091353Y-12039960D02*
X8072306Y-12049484D01*
X8072306Y-12049484D02*
X8043734Y-12049484D01*
X8224687Y-12049484D02*
X8205639Y-12039960D01*
X8205639Y-12039960D02*
X8196115Y-12020912D01*
X8196115Y-12020912D02*
X8196115Y-11849484D01*
X8377068Y-12039960D02*
X8358020Y-12049484D01*
X8358020Y-12049484D02*
X8319925Y-12049484D01*
X8319925Y-12049484D02*
X8300877Y-12039960D01*
X8300877Y-12039960D02*
X8291353Y-12020912D01*
X8291353Y-12020912D02*
X8291353Y-11944722D01*
X8291353Y-11944722D02*
X8300877Y-11925674D01*
X8300877Y-11925674D02*
X8319925Y-11916150D01*
X8319925Y-11916150D02*
X8358020Y-11916150D01*
X8358020Y-11916150D02*
X8377068Y-11925674D01*
X8377068Y-11925674D02*
X8386591Y-11944722D01*
X8386591Y-11944722D02*
X8386591Y-11963769D01*
X8386591Y-11963769D02*
X8291353Y-11982817D01*
X8462782Y-12039960D02*
X8481830Y-12049484D01*
X8481830Y-12049484D02*
X8519925Y-12049484D01*
X8519925Y-12049484D02*
X8538973Y-12039960D01*
X8538973Y-12039960D02*
X8548496Y-12020912D01*
X8548496Y-12020912D02*
X8548496Y-12011388D01*
X8548496Y-12011388D02*
X8538973Y-11992341D01*
X8538973Y-11992341D02*
X8519925Y-11982817D01*
X8519925Y-11982817D02*
X8491353Y-11982817D01*
X8491353Y-11982817D02*
X8472306Y-11973293D01*
X8472306Y-11973293D02*
X8462782Y-11954246D01*
X8462782Y-11954246D02*
X8462782Y-11944722D01*
X8462782Y-11944722D02*
X8472306Y-11925674D01*
X8472306Y-11925674D02*
X8491353Y-11916150D01*
X8491353Y-11916150D02*
X8519925Y-11916150D01*
X8519925Y-11916150D02*
X8538973Y-11925674D01*
X8615163Y-12125674D02*
X8624687Y-12116150D01*
X8624687Y-12116150D02*
X8643734Y-12087579D01*
X8643734Y-12087579D02*
X8653258Y-12068531D01*
X8653258Y-12068531D02*
X8662782Y-12039960D01*
X8662782Y-12039960D02*
X8672306Y-11992341D01*
X8672306Y-11992341D02*
X8672306Y-11954246D01*
X8672306Y-11954246D02*
X8662782Y-11906627D01*
X8662782Y-11906627D02*
X8653258Y-11878055D01*
X8653258Y-11878055D02*
X8643734Y-11859008D01*
X8643734Y-11859008D02*
X8624687Y-11830436D01*
X8624687Y-11830436D02*
X8615163Y-11820912D01*
D16*
X3785490Y-12276610D02*
X3840100Y-12222000D01*
X3785490Y-12167390D01*
X3730880Y-12222000D01*
X3785490Y-12276610D01*
D12*
X4205639Y-12313484D02*
X4091353Y-12313484D01*
X4148496Y-12313484D02*
X4148496Y-12113484D01*
X4148496Y-12113484D02*
X4129448Y-12142055D01*
X4129448Y-12142055D02*
X4110401Y-12161103D01*
X4110401Y-12161103D02*
X4091353Y-12170627D01*
X4291353Y-12294436D02*
X4300877Y-12303960D01*
X4300877Y-12303960D02*
X4291353Y-12313484D01*
X4291353Y-12313484D02*
X4281829Y-12303960D01*
X4281829Y-12303960D02*
X4291353Y-12294436D01*
X4291353Y-12294436D02*
X4291353Y-12313484D01*
X4424686Y-12113484D02*
X4443734Y-12113484D01*
X4443734Y-12113484D02*
X4462782Y-12123008D01*
X4462782Y-12123008D02*
X4472305Y-12132531D01*
X4472305Y-12132531D02*
X4481829Y-12151579D01*
X4481829Y-12151579D02*
X4491353Y-12189674D01*
X4491353Y-12189674D02*
X4491353Y-12237293D01*
X4491353Y-12237293D02*
X4481829Y-12275388D01*
X4481829Y-12275388D02*
X4472305Y-12294436D01*
X4472305Y-12294436D02*
X4462782Y-12303960D01*
X4462782Y-12303960D02*
X4443734Y-12313484D01*
X4443734Y-12313484D02*
X4424686Y-12313484D01*
X4424686Y-12313484D02*
X4405639Y-12303960D01*
X4405639Y-12303960D02*
X4396115Y-12294436D01*
X4396115Y-12294436D02*
X4386591Y-12275388D01*
X4386591Y-12275388D02*
X4377067Y-12237293D01*
X4377067Y-12237293D02*
X4377067Y-12189674D01*
X4377067Y-12189674D02*
X4386591Y-12151579D01*
X4386591Y-12151579D02*
X4396115Y-12132531D01*
X4396115Y-12132531D02*
X4405639Y-12123008D01*
X4405639Y-12123008D02*
X4424686Y-12113484D01*
X4586591Y-12313484D02*
X4624686Y-12313484D01*
X4624686Y-12313484D02*
X4643734Y-12303960D01*
X4643734Y-12303960D02*
X4653258Y-12294436D01*
X4653258Y-12294436D02*
X4672305Y-12265865D01*
X4672305Y-12265865D02*
X4681829Y-12227769D01*
X4681829Y-12227769D02*
X4681829Y-12151579D01*
X4681829Y-12151579D02*
X4672305Y-12132531D01*
X4672305Y-12132531D02*
X4662782Y-12123008D01*
X4662782Y-12123008D02*
X4643734Y-12113484D01*
X4643734Y-12113484D02*
X4605639Y-12113484D01*
X4605639Y-12113484D02*
X4586591Y-12123008D01*
X4586591Y-12123008D02*
X4577067Y-12132531D01*
X4577067Y-12132531D02*
X4567544Y-12151579D01*
X4567544Y-12151579D02*
X4567544Y-12199198D01*
X4567544Y-12199198D02*
X4577067Y-12218246D01*
X4577067Y-12218246D02*
X4586591Y-12227769D01*
X4586591Y-12227769D02*
X4605639Y-12237293D01*
X4605639Y-12237293D02*
X4643734Y-12237293D01*
X4643734Y-12237293D02*
X4662782Y-12227769D01*
X4662782Y-12227769D02*
X4672305Y-12218246D01*
X4672305Y-12218246D02*
X4681829Y-12199198D01*
X4758020Y-12132531D02*
X4767544Y-12123008D01*
X4767544Y-12123008D02*
X4786591Y-12113484D01*
X4786591Y-12113484D02*
X4834210Y-12113484D01*
X4834210Y-12113484D02*
X4853258Y-12123008D01*
X4853258Y-12123008D02*
X4862782Y-12132531D01*
X4862782Y-12132531D02*
X4872305Y-12151579D01*
X4872305Y-12151579D02*
X4872305Y-12170627D01*
X4872305Y-12170627D02*
X4862782Y-12199198D01*
X4862782Y-12199198D02*
X4748496Y-12313484D01*
X4748496Y-12313484D02*
X4872305Y-12313484D01*
X4958020Y-12313484D02*
X4958020Y-12180150D01*
X4958020Y-12199198D02*
X4967544Y-12189674D01*
X4967544Y-12189674D02*
X4986591Y-12180150D01*
X4986591Y-12180150D02*
X5015163Y-12180150D01*
X5015163Y-12180150D02*
X5034210Y-12189674D01*
X5034210Y-12189674D02*
X5043734Y-12208722D01*
X5043734Y-12208722D02*
X5043734Y-12313484D01*
X5043734Y-12208722D02*
X5053258Y-12189674D01*
X5053258Y-12189674D02*
X5072305Y-12180150D01*
X5072305Y-12180150D02*
X5100877Y-12180150D01*
X5100877Y-12180150D02*
X5119925Y-12189674D01*
X5119925Y-12189674D02*
X5129448Y-12208722D01*
X5129448Y-12208722D02*
X5129448Y-12313484D01*
X5224686Y-12313484D02*
X5224686Y-12180150D01*
X5224686Y-12199198D02*
X5234210Y-12189674D01*
X5234210Y-12189674D02*
X5253258Y-12180150D01*
X5253258Y-12180150D02*
X5281829Y-12180150D01*
X5281829Y-12180150D02*
X5300877Y-12189674D01*
X5300877Y-12189674D02*
X5310401Y-12208722D01*
X5310401Y-12208722D02*
X5310401Y-12313484D01*
X5310401Y-12208722D02*
X5319925Y-12189674D01*
X5319925Y-12189674D02*
X5338972Y-12180150D01*
X5338972Y-12180150D02*
X5367544Y-12180150D01*
X5367544Y-12180150D02*
X5386591Y-12189674D01*
X5386591Y-12189674D02*
X5396115Y-12208722D01*
X5396115Y-12208722D02*
X5396115Y-12313484D01*
X5786591Y-12103960D02*
X5615163Y-12361103D01*
X6043734Y-12113484D02*
X6062782Y-12113484D01*
X6062782Y-12113484D02*
X6081829Y-12123008D01*
X6081829Y-12123008D02*
X6091353Y-12132531D01*
X6091353Y-12132531D02*
X6100877Y-12151579D01*
X6100877Y-12151579D02*
X6110401Y-12189674D01*
X6110401Y-12189674D02*
X6110401Y-12237293D01*
X6110401Y-12237293D02*
X6100877Y-12275388D01*
X6100877Y-12275388D02*
X6091353Y-12294436D01*
X6091353Y-12294436D02*
X6081829Y-12303960D01*
X6081829Y-12303960D02*
X6062782Y-12313484D01*
X6062782Y-12313484D02*
X6043734Y-12313484D01*
X6043734Y-12313484D02*
X6024686Y-12303960D01*
X6024686Y-12303960D02*
X6015163Y-12294436D01*
X6015163Y-12294436D02*
X6005639Y-12275388D01*
X6005639Y-12275388D02*
X5996115Y-12237293D01*
X5996115Y-12237293D02*
X5996115Y-12189674D01*
X5996115Y-12189674D02*
X6005639Y-12151579D01*
X6005639Y-12151579D02*
X6015163Y-12132531D01*
X6015163Y-12132531D02*
X6024686Y-12123008D01*
X6024686Y-12123008D02*
X6043734Y-12113484D01*
X6196115Y-12294436D02*
X6205639Y-12303960D01*
X6205639Y-12303960D02*
X6196115Y-12313484D01*
X6196115Y-12313484D02*
X6186591Y-12303960D01*
X6186591Y-12303960D02*
X6196115Y-12294436D01*
X6196115Y-12294436D02*
X6196115Y-12313484D01*
X6329448Y-12113484D02*
X6348496Y-12113484D01*
X6348496Y-12113484D02*
X6367544Y-12123008D01*
X6367544Y-12123008D02*
X6377067Y-12132531D01*
X6377067Y-12132531D02*
X6386591Y-12151579D01*
X6386591Y-12151579D02*
X6396115Y-12189674D01*
X6396115Y-12189674D02*
X6396115Y-12237293D01*
X6396115Y-12237293D02*
X6386591Y-12275388D01*
X6386591Y-12275388D02*
X6377067Y-12294436D01*
X6377067Y-12294436D02*
X6367544Y-12303960D01*
X6367544Y-12303960D02*
X6348496Y-12313484D01*
X6348496Y-12313484D02*
X6329448Y-12313484D01*
X6329448Y-12313484D02*
X6310401Y-12303960D01*
X6310401Y-12303960D02*
X6300877Y-12294436D01*
X6300877Y-12294436D02*
X6291353Y-12275388D01*
X6291353Y-12275388D02*
X6281829Y-12237293D01*
X6281829Y-12237293D02*
X6281829Y-12189674D01*
X6281829Y-12189674D02*
X6291353Y-12151579D01*
X6291353Y-12151579D02*
X6300877Y-12132531D01*
X6300877Y-12132531D02*
X6310401Y-12123008D01*
X6310401Y-12123008D02*
X6329448Y-12113484D01*
X6567544Y-12180150D02*
X6567544Y-12313484D01*
X6519925Y-12103960D02*
X6472306Y-12246817D01*
X6472306Y-12246817D02*
X6596115Y-12246817D01*
X6653258Y-12113484D02*
X6777067Y-12113484D01*
X6777067Y-12113484D02*
X6710401Y-12189674D01*
X6710401Y-12189674D02*
X6738972Y-12189674D01*
X6738972Y-12189674D02*
X6758020Y-12199198D01*
X6758020Y-12199198D02*
X6767544Y-12208722D01*
X6767544Y-12208722D02*
X6777067Y-12227769D01*
X6777067Y-12227769D02*
X6777067Y-12275388D01*
X6777067Y-12275388D02*
X6767544Y-12294436D01*
X6767544Y-12294436D02*
X6758020Y-12303960D01*
X6758020Y-12303960D02*
X6738972Y-12313484D01*
X6738972Y-12313484D02*
X6681829Y-12313484D01*
X6681829Y-12313484D02*
X6662782Y-12303960D01*
X6662782Y-12303960D02*
X6653258Y-12294436D01*
X6900877Y-12113484D02*
X6919925Y-12113484D01*
X6919925Y-12113484D02*
X6938972Y-12123008D01*
X6938972Y-12123008D02*
X6948496Y-12132531D01*
X6948496Y-12132531D02*
X6958020Y-12151579D01*
X6958020Y-12151579D02*
X6967544Y-12189674D01*
X6967544Y-12189674D02*
X6967544Y-12237293D01*
X6967544Y-12237293D02*
X6958020Y-12275388D01*
X6958020Y-12275388D02*
X6948496Y-12294436D01*
X6948496Y-12294436D02*
X6938972Y-12303960D01*
X6938972Y-12303960D02*
X6919925Y-12313484D01*
X6919925Y-12313484D02*
X6900877Y-12313484D01*
X6900877Y-12313484D02*
X6881829Y-12303960D01*
X6881829Y-12303960D02*
X6872306Y-12294436D01*
X6872306Y-12294436D02*
X6862782Y-12275388D01*
X6862782Y-12275388D02*
X6853258Y-12237293D01*
X6853258Y-12237293D02*
X6853258Y-12189674D01*
X6853258Y-12189674D02*
X6862782Y-12151579D01*
X6862782Y-12151579D02*
X6872306Y-12132531D01*
X6872306Y-12132531D02*
X6881829Y-12123008D01*
X6881829Y-12123008D02*
X6900877Y-12113484D01*
X7043734Y-12113484D02*
X7043734Y-12151579D01*
X7119925Y-12113484D02*
X7119925Y-12151579D01*
X7415163Y-12389674D02*
X7405639Y-12380150D01*
X7405639Y-12380150D02*
X7386591Y-12351579D01*
X7386591Y-12351579D02*
X7377068Y-12332531D01*
X7377068Y-12332531D02*
X7367544Y-12303960D01*
X7367544Y-12303960D02*
X7358020Y-12256341D01*
X7358020Y-12256341D02*
X7358020Y-12218246D01*
X7358020Y-12218246D02*
X7367544Y-12170627D01*
X7367544Y-12170627D02*
X7377068Y-12142055D01*
X7377068Y-12142055D02*
X7386591Y-12123008D01*
X7386591Y-12123008D02*
X7405639Y-12094436D01*
X7405639Y-12094436D02*
X7415163Y-12084912D01*
X7586591Y-12113484D02*
X7491353Y-12113484D01*
X7491353Y-12113484D02*
X7481829Y-12208722D01*
X7481829Y-12208722D02*
X7491353Y-12199198D01*
X7491353Y-12199198D02*
X7510401Y-12189674D01*
X7510401Y-12189674D02*
X7558020Y-12189674D01*
X7558020Y-12189674D02*
X7577068Y-12199198D01*
X7577068Y-12199198D02*
X7586591Y-12208722D01*
X7586591Y-12208722D02*
X7596115Y-12227769D01*
X7596115Y-12227769D02*
X7596115Y-12275388D01*
X7596115Y-12275388D02*
X7586591Y-12294436D01*
X7586591Y-12294436D02*
X7577068Y-12303960D01*
X7577068Y-12303960D02*
X7558020Y-12313484D01*
X7558020Y-12313484D02*
X7510401Y-12313484D01*
X7510401Y-12313484D02*
X7491353Y-12303960D01*
X7491353Y-12303960D02*
X7481829Y-12294436D01*
X7672306Y-12132531D02*
X7681829Y-12123008D01*
X7681829Y-12123008D02*
X7700877Y-12113484D01*
X7700877Y-12113484D02*
X7748496Y-12113484D01*
X7748496Y-12113484D02*
X7767544Y-12123008D01*
X7767544Y-12123008D02*
X7777068Y-12132531D01*
X7777068Y-12132531D02*
X7786591Y-12151579D01*
X7786591Y-12151579D02*
X7786591Y-12170627D01*
X7786591Y-12170627D02*
X7777068Y-12199198D01*
X7777068Y-12199198D02*
X7662782Y-12313484D01*
X7662782Y-12313484D02*
X7786591Y-12313484D01*
X8024687Y-12313484D02*
X8024687Y-12113484D01*
X8110401Y-12313484D02*
X8110401Y-12208722D01*
X8110401Y-12208722D02*
X8100877Y-12189674D01*
X8100877Y-12189674D02*
X8081830Y-12180150D01*
X8081830Y-12180150D02*
X8053258Y-12180150D01*
X8053258Y-12180150D02*
X8034210Y-12189674D01*
X8034210Y-12189674D02*
X8024687Y-12199198D01*
X8234210Y-12313484D02*
X8215163Y-12303960D01*
X8215163Y-12303960D02*
X8205639Y-12294436D01*
X8205639Y-12294436D02*
X8196115Y-12275388D01*
X8196115Y-12275388D02*
X8196115Y-12218246D01*
X8196115Y-12218246D02*
X8205639Y-12199198D01*
X8205639Y-12199198D02*
X8215163Y-12189674D01*
X8215163Y-12189674D02*
X8234210Y-12180150D01*
X8234210Y-12180150D02*
X8262782Y-12180150D01*
X8262782Y-12180150D02*
X8281830Y-12189674D01*
X8281830Y-12189674D02*
X8291353Y-12199198D01*
X8291353Y-12199198D02*
X8300877Y-12218246D01*
X8300877Y-12218246D02*
X8300877Y-12275388D01*
X8300877Y-12275388D02*
X8291353Y-12294436D01*
X8291353Y-12294436D02*
X8281830Y-12303960D01*
X8281830Y-12303960D02*
X8262782Y-12313484D01*
X8262782Y-12313484D02*
X8234210Y-12313484D01*
X8415163Y-12313484D02*
X8396115Y-12303960D01*
X8396115Y-12303960D02*
X8386591Y-12284912D01*
X8386591Y-12284912D02*
X8386591Y-12113484D01*
X8567544Y-12303960D02*
X8548496Y-12313484D01*
X8548496Y-12313484D02*
X8510401Y-12313484D01*
X8510401Y-12313484D02*
X8491353Y-12303960D01*
X8491353Y-12303960D02*
X8481830Y-12284912D01*
X8481830Y-12284912D02*
X8481830Y-12208722D01*
X8481830Y-12208722D02*
X8491353Y-12189674D01*
X8491353Y-12189674D02*
X8510401Y-12180150D01*
X8510401Y-12180150D02*
X8548496Y-12180150D01*
X8548496Y-12180150D02*
X8567544Y-12189674D01*
X8567544Y-12189674D02*
X8577068Y-12208722D01*
X8577068Y-12208722D02*
X8577068Y-12227769D01*
X8577068Y-12227769D02*
X8481830Y-12246817D01*
X8653258Y-12303960D02*
X8672306Y-12313484D01*
X8672306Y-12313484D02*
X8710401Y-12313484D01*
X8710401Y-12313484D02*
X8729449Y-12303960D01*
X8729449Y-12303960D02*
X8738973Y-12284912D01*
X8738973Y-12284912D02*
X8738973Y-12275388D01*
X8738973Y-12275388D02*
X8729449Y-12256341D01*
X8729449Y-12256341D02*
X8710401Y-12246817D01*
X8710401Y-12246817D02*
X8681830Y-12246817D01*
X8681830Y-12246817D02*
X8662782Y-12237293D01*
X8662782Y-12237293D02*
X8653258Y-12218246D01*
X8653258Y-12218246D02*
X8653258Y-12208722D01*
X8653258Y-12208722D02*
X8662782Y-12189674D01*
X8662782Y-12189674D02*
X8681830Y-12180150D01*
X8681830Y-12180150D02*
X8710401Y-12180150D01*
X8710401Y-12180150D02*
X8729449Y-12189674D01*
X8805639Y-12389674D02*
X8815163Y-12380150D01*
X8815163Y-12380150D02*
X8834211Y-12351579D01*
X8834211Y-12351579D02*
X8843734Y-12332531D01*
X8843734Y-12332531D02*
X8853258Y-12303960D01*
X8853258Y-12303960D02*
X8862782Y-12256341D01*
X8862782Y-12256341D02*
X8862782Y-12218246D01*
X8862782Y-12218246D02*
X8853258Y-12170627D01*
X8853258Y-12170627D02*
X8843734Y-12142055D01*
X8843734Y-12142055D02*
X8834211Y-12123008D01*
X8834211Y-12123008D02*
X8815163Y-12094436D01*
X8815163Y-12094436D02*
X8805639Y-12084912D01*
D17*
X3710100Y-12421000D02*
X3840100Y-12551000D01*
X3840100Y-12421000D02*
X3710100Y-12551000D01*
X3840100Y-12486000D02*
G75*
G03*
X3840100Y-12486000I-65000J0D01*
G01*
D12*
X4205639Y-12577484D02*
X4091353Y-12577484D01*
X4148496Y-12577484D02*
X4148496Y-12377484D01*
X4148496Y-12377484D02*
X4129448Y-12406055D01*
X4129448Y-12406055D02*
X4110401Y-12425103D01*
X4110401Y-12425103D02*
X4091353Y-12434627D01*
X4291353Y-12558436D02*
X4300877Y-12567960D01*
X4300877Y-12567960D02*
X4291353Y-12577484D01*
X4291353Y-12577484D02*
X4281829Y-12567960D01*
X4281829Y-12567960D02*
X4291353Y-12558436D01*
X4291353Y-12558436D02*
X4291353Y-12577484D01*
X4367544Y-12377484D02*
X4491353Y-12377484D01*
X4491353Y-12377484D02*
X4424686Y-12453674D01*
X4424686Y-12453674D02*
X4453258Y-12453674D01*
X4453258Y-12453674D02*
X4472305Y-12463198D01*
X4472305Y-12463198D02*
X4481829Y-12472722D01*
X4481829Y-12472722D02*
X4491353Y-12491769D01*
X4491353Y-12491769D02*
X4491353Y-12539388D01*
X4491353Y-12539388D02*
X4481829Y-12558436D01*
X4481829Y-12558436D02*
X4472305Y-12567960D01*
X4472305Y-12567960D02*
X4453258Y-12577484D01*
X4453258Y-12577484D02*
X4396115Y-12577484D01*
X4396115Y-12577484D02*
X4377067Y-12567960D01*
X4377067Y-12567960D02*
X4367544Y-12558436D01*
X4615163Y-12377484D02*
X4634210Y-12377484D01*
X4634210Y-12377484D02*
X4653258Y-12387008D01*
X4653258Y-12387008D02*
X4662782Y-12396531D01*
X4662782Y-12396531D02*
X4672305Y-12415579D01*
X4672305Y-12415579D02*
X4681829Y-12453674D01*
X4681829Y-12453674D02*
X4681829Y-12501293D01*
X4681829Y-12501293D02*
X4672305Y-12539388D01*
X4672305Y-12539388D02*
X4662782Y-12558436D01*
X4662782Y-12558436D02*
X4653258Y-12567960D01*
X4653258Y-12567960D02*
X4634210Y-12577484D01*
X4634210Y-12577484D02*
X4615163Y-12577484D01*
X4615163Y-12577484D02*
X4596115Y-12567960D01*
X4596115Y-12567960D02*
X4586591Y-12558436D01*
X4586591Y-12558436D02*
X4577067Y-12539388D01*
X4577067Y-12539388D02*
X4567544Y-12501293D01*
X4567544Y-12501293D02*
X4567544Y-12453674D01*
X4567544Y-12453674D02*
X4577067Y-12415579D01*
X4577067Y-12415579D02*
X4586591Y-12396531D01*
X4586591Y-12396531D02*
X4596115Y-12387008D01*
X4596115Y-12387008D02*
X4615163Y-12377484D01*
X4805639Y-12377484D02*
X4824686Y-12377484D01*
X4824686Y-12377484D02*
X4843734Y-12387008D01*
X4843734Y-12387008D02*
X4853258Y-12396531D01*
X4853258Y-12396531D02*
X4862782Y-12415579D01*
X4862782Y-12415579D02*
X4872305Y-12453674D01*
X4872305Y-12453674D02*
X4872305Y-12501293D01*
X4872305Y-12501293D02*
X4862782Y-12539388D01*
X4862782Y-12539388D02*
X4853258Y-12558436D01*
X4853258Y-12558436D02*
X4843734Y-12567960D01*
X4843734Y-12567960D02*
X4824686Y-12577484D01*
X4824686Y-12577484D02*
X4805639Y-12577484D01*
X4805639Y-12577484D02*
X4786591Y-12567960D01*
X4786591Y-12567960D02*
X4777067Y-12558436D01*
X4777067Y-12558436D02*
X4767544Y-12539388D01*
X4767544Y-12539388D02*
X4758020Y-12501293D01*
X4758020Y-12501293D02*
X4758020Y-12453674D01*
X4758020Y-12453674D02*
X4767544Y-12415579D01*
X4767544Y-12415579D02*
X4777067Y-12396531D01*
X4777067Y-12396531D02*
X4786591Y-12387008D01*
X4786591Y-12387008D02*
X4805639Y-12377484D01*
X4958020Y-12577484D02*
X4958020Y-12444150D01*
X4958020Y-12463198D02*
X4967544Y-12453674D01*
X4967544Y-12453674D02*
X4986591Y-12444150D01*
X4986591Y-12444150D02*
X5015163Y-12444150D01*
X5015163Y-12444150D02*
X5034210Y-12453674D01*
X5034210Y-12453674D02*
X5043734Y-12472722D01*
X5043734Y-12472722D02*
X5043734Y-12577484D01*
X5043734Y-12472722D02*
X5053258Y-12453674D01*
X5053258Y-12453674D02*
X5072305Y-12444150D01*
X5072305Y-12444150D02*
X5100877Y-12444150D01*
X5100877Y-12444150D02*
X5119925Y-12453674D01*
X5119925Y-12453674D02*
X5129448Y-12472722D01*
X5129448Y-12472722D02*
X5129448Y-12577484D01*
X5224686Y-12577484D02*
X5224686Y-12444150D01*
X5224686Y-12463198D02*
X5234210Y-12453674D01*
X5234210Y-12453674D02*
X5253258Y-12444150D01*
X5253258Y-12444150D02*
X5281829Y-12444150D01*
X5281829Y-12444150D02*
X5300877Y-12453674D01*
X5300877Y-12453674D02*
X5310401Y-12472722D01*
X5310401Y-12472722D02*
X5310401Y-12577484D01*
X5310401Y-12472722D02*
X5319925Y-12453674D01*
X5319925Y-12453674D02*
X5338972Y-12444150D01*
X5338972Y-12444150D02*
X5367544Y-12444150D01*
X5367544Y-12444150D02*
X5386591Y-12453674D01*
X5386591Y-12453674D02*
X5396115Y-12472722D01*
X5396115Y-12472722D02*
X5396115Y-12577484D01*
X5786591Y-12367960D02*
X5615163Y-12625103D01*
X6043734Y-12377484D02*
X6062782Y-12377484D01*
X6062782Y-12377484D02*
X6081829Y-12387008D01*
X6081829Y-12387008D02*
X6091353Y-12396531D01*
X6091353Y-12396531D02*
X6100877Y-12415579D01*
X6100877Y-12415579D02*
X6110401Y-12453674D01*
X6110401Y-12453674D02*
X6110401Y-12501293D01*
X6110401Y-12501293D02*
X6100877Y-12539388D01*
X6100877Y-12539388D02*
X6091353Y-12558436D01*
X6091353Y-12558436D02*
X6081829Y-12567960D01*
X6081829Y-12567960D02*
X6062782Y-12577484D01*
X6062782Y-12577484D02*
X6043734Y-12577484D01*
X6043734Y-12577484D02*
X6024686Y-12567960D01*
X6024686Y-12567960D02*
X6015163Y-12558436D01*
X6015163Y-12558436D02*
X6005639Y-12539388D01*
X6005639Y-12539388D02*
X5996115Y-12501293D01*
X5996115Y-12501293D02*
X5996115Y-12453674D01*
X5996115Y-12453674D02*
X6005639Y-12415579D01*
X6005639Y-12415579D02*
X6015163Y-12396531D01*
X6015163Y-12396531D02*
X6024686Y-12387008D01*
X6024686Y-12387008D02*
X6043734Y-12377484D01*
X6196115Y-12558436D02*
X6205639Y-12567960D01*
X6205639Y-12567960D02*
X6196115Y-12577484D01*
X6196115Y-12577484D02*
X6186591Y-12567960D01*
X6186591Y-12567960D02*
X6196115Y-12558436D01*
X6196115Y-12558436D02*
X6196115Y-12577484D01*
X6329448Y-12377484D02*
X6348496Y-12377484D01*
X6348496Y-12377484D02*
X6367544Y-12387008D01*
X6367544Y-12387008D02*
X6377067Y-12396531D01*
X6377067Y-12396531D02*
X6386591Y-12415579D01*
X6386591Y-12415579D02*
X6396115Y-12453674D01*
X6396115Y-12453674D02*
X6396115Y-12501293D01*
X6396115Y-12501293D02*
X6386591Y-12539388D01*
X6386591Y-12539388D02*
X6377067Y-12558436D01*
X6377067Y-12558436D02*
X6367544Y-12567960D01*
X6367544Y-12567960D02*
X6348496Y-12577484D01*
X6348496Y-12577484D02*
X6329448Y-12577484D01*
X6329448Y-12577484D02*
X6310401Y-12567960D01*
X6310401Y-12567960D02*
X6300877Y-12558436D01*
X6300877Y-12558436D02*
X6291353Y-12539388D01*
X6291353Y-12539388D02*
X6281829Y-12501293D01*
X6281829Y-12501293D02*
X6281829Y-12453674D01*
X6281829Y-12453674D02*
X6291353Y-12415579D01*
X6291353Y-12415579D02*
X6300877Y-12396531D01*
X6300877Y-12396531D02*
X6310401Y-12387008D01*
X6310401Y-12387008D02*
X6329448Y-12377484D01*
X6577067Y-12377484D02*
X6481829Y-12377484D01*
X6481829Y-12377484D02*
X6472306Y-12472722D01*
X6472306Y-12472722D02*
X6481829Y-12463198D01*
X6481829Y-12463198D02*
X6500877Y-12453674D01*
X6500877Y-12453674D02*
X6548496Y-12453674D01*
X6548496Y-12453674D02*
X6567544Y-12463198D01*
X6567544Y-12463198D02*
X6577067Y-12472722D01*
X6577067Y-12472722D02*
X6586591Y-12491769D01*
X6586591Y-12491769D02*
X6586591Y-12539388D01*
X6586591Y-12539388D02*
X6577067Y-12558436D01*
X6577067Y-12558436D02*
X6567544Y-12567960D01*
X6567544Y-12567960D02*
X6548496Y-12577484D01*
X6548496Y-12577484D02*
X6500877Y-12577484D01*
X6500877Y-12577484D02*
X6481829Y-12567960D01*
X6481829Y-12567960D02*
X6472306Y-12558436D01*
X6777067Y-12577484D02*
X6662782Y-12577484D01*
X6719925Y-12577484D02*
X6719925Y-12377484D01*
X6719925Y-12377484D02*
X6700877Y-12406055D01*
X6700877Y-12406055D02*
X6681829Y-12425103D01*
X6681829Y-12425103D02*
X6662782Y-12434627D01*
X6853258Y-12396531D02*
X6862782Y-12387008D01*
X6862782Y-12387008D02*
X6881829Y-12377484D01*
X6881829Y-12377484D02*
X6929448Y-12377484D01*
X6929448Y-12377484D02*
X6948496Y-12387008D01*
X6948496Y-12387008D02*
X6958020Y-12396531D01*
X6958020Y-12396531D02*
X6967544Y-12415579D01*
X6967544Y-12415579D02*
X6967544Y-12434627D01*
X6967544Y-12434627D02*
X6958020Y-12463198D01*
X6958020Y-12463198D02*
X6843734Y-12577484D01*
X6843734Y-12577484D02*
X6967544Y-12577484D01*
X7043734Y-12377484D02*
X7043734Y-12415579D01*
X7119925Y-12377484D02*
X7119925Y-12415579D01*
X7415163Y-12653674D02*
X7405639Y-12644150D01*
X7405639Y-12644150D02*
X7386591Y-12615579D01*
X7386591Y-12615579D02*
X7377068Y-12596531D01*
X7377068Y-12596531D02*
X7367544Y-12567960D01*
X7367544Y-12567960D02*
X7358020Y-12520341D01*
X7358020Y-12520341D02*
X7358020Y-12482246D01*
X7358020Y-12482246D02*
X7367544Y-12434627D01*
X7367544Y-12434627D02*
X7377068Y-12406055D01*
X7377068Y-12406055D02*
X7386591Y-12387008D01*
X7386591Y-12387008D02*
X7405639Y-12358436D01*
X7405639Y-12358436D02*
X7415163Y-12348912D01*
X7481829Y-12396531D02*
X7491353Y-12387008D01*
X7491353Y-12387008D02*
X7510401Y-12377484D01*
X7510401Y-12377484D02*
X7558020Y-12377484D01*
X7558020Y-12377484D02*
X7577068Y-12387008D01*
X7577068Y-12387008D02*
X7586591Y-12396531D01*
X7586591Y-12396531D02*
X7596115Y-12415579D01*
X7596115Y-12415579D02*
X7596115Y-12434627D01*
X7596115Y-12434627D02*
X7586591Y-12463198D01*
X7586591Y-12463198D02*
X7472306Y-12577484D01*
X7472306Y-12577484D02*
X7596115Y-12577484D01*
X7834210Y-12577484D02*
X7834210Y-12377484D01*
X7919925Y-12577484D02*
X7919925Y-12472722D01*
X7919925Y-12472722D02*
X7910401Y-12453674D01*
X7910401Y-12453674D02*
X7891353Y-12444150D01*
X7891353Y-12444150D02*
X7862782Y-12444150D01*
X7862782Y-12444150D02*
X7843734Y-12453674D01*
X7843734Y-12453674D02*
X7834210Y-12463198D01*
X8043734Y-12577484D02*
X8024687Y-12567960D01*
X8024687Y-12567960D02*
X8015163Y-12558436D01*
X8015163Y-12558436D02*
X8005639Y-12539388D01*
X8005639Y-12539388D02*
X8005639Y-12482246D01*
X8005639Y-12482246D02*
X8015163Y-12463198D01*
X8015163Y-12463198D02*
X8024687Y-12453674D01*
X8024687Y-12453674D02*
X8043734Y-12444150D01*
X8043734Y-12444150D02*
X8072306Y-12444150D01*
X8072306Y-12444150D02*
X8091353Y-12453674D01*
X8091353Y-12453674D02*
X8100877Y-12463198D01*
X8100877Y-12463198D02*
X8110401Y-12482246D01*
X8110401Y-12482246D02*
X8110401Y-12539388D01*
X8110401Y-12539388D02*
X8100877Y-12558436D01*
X8100877Y-12558436D02*
X8091353Y-12567960D01*
X8091353Y-12567960D02*
X8072306Y-12577484D01*
X8072306Y-12577484D02*
X8043734Y-12577484D01*
X8224687Y-12577484D02*
X8205639Y-12567960D01*
X8205639Y-12567960D02*
X8196115Y-12548912D01*
X8196115Y-12548912D02*
X8196115Y-12377484D01*
X8377068Y-12567960D02*
X8358020Y-12577484D01*
X8358020Y-12577484D02*
X8319925Y-12577484D01*
X8319925Y-12577484D02*
X8300877Y-12567960D01*
X8300877Y-12567960D02*
X8291353Y-12548912D01*
X8291353Y-12548912D02*
X8291353Y-12472722D01*
X8291353Y-12472722D02*
X8300877Y-12453674D01*
X8300877Y-12453674D02*
X8319925Y-12444150D01*
X8319925Y-12444150D02*
X8358020Y-12444150D01*
X8358020Y-12444150D02*
X8377068Y-12453674D01*
X8377068Y-12453674D02*
X8386591Y-12472722D01*
X8386591Y-12472722D02*
X8386591Y-12491769D01*
X8386591Y-12491769D02*
X8291353Y-12510817D01*
X8462782Y-12567960D02*
X8481830Y-12577484D01*
X8481830Y-12577484D02*
X8519925Y-12577484D01*
X8519925Y-12577484D02*
X8538973Y-12567960D01*
X8538973Y-12567960D02*
X8548496Y-12548912D01*
X8548496Y-12548912D02*
X8548496Y-12539388D01*
X8548496Y-12539388D02*
X8538973Y-12520341D01*
X8538973Y-12520341D02*
X8519925Y-12510817D01*
X8519925Y-12510817D02*
X8491353Y-12510817D01*
X8491353Y-12510817D02*
X8472306Y-12501293D01*
X8472306Y-12501293D02*
X8462782Y-12482246D01*
X8462782Y-12482246D02*
X8462782Y-12472722D01*
X8462782Y-12472722D02*
X8472306Y-12453674D01*
X8472306Y-12453674D02*
X8491353Y-12444150D01*
X8491353Y-12444150D02*
X8519925Y-12444150D01*
X8519925Y-12444150D02*
X8538973Y-12453674D01*
X8615163Y-12653674D02*
X8624687Y-12644150D01*
X8624687Y-12644150D02*
X8643734Y-12615579D01*
X8643734Y-12615579D02*
X8653258Y-12596531D01*
X8653258Y-12596531D02*
X8662782Y-12567960D01*
X8662782Y-12567960D02*
X8672306Y-12520341D01*
X8672306Y-12520341D02*
X8672306Y-12482246D01*
X8672306Y-12482246D02*
X8662782Y-12434627D01*
X8662782Y-12434627D02*
X8653258Y-12406055D01*
X8653258Y-12406055D02*
X8643734Y-12387008D01*
X8643734Y-12387008D02*
X8624687Y-12358436D01*
X8624687Y-12358436D02*
X8615163Y-12348912D01*
D18*
X3690100Y-12675000D02*
X3840100Y-12825000D01*
X3840100Y-12675000D02*
X3690100Y-12825000D01*
X3765100Y-12675000D02*
X3765100Y-12825000D01*
X3690100Y-12750000D02*
X3840100Y-12750000D01*
D12*
X4205639Y-12841484D02*
X4091353Y-12841484D01*
X4148496Y-12841484D02*
X4148496Y-12641484D01*
X4148496Y-12641484D02*
X4129448Y-12670055D01*
X4129448Y-12670055D02*
X4110401Y-12689103D01*
X4110401Y-12689103D02*
X4091353Y-12698627D01*
X4291353Y-12822436D02*
X4300877Y-12831960D01*
X4300877Y-12831960D02*
X4291353Y-12841484D01*
X4291353Y-12841484D02*
X4281829Y-12831960D01*
X4281829Y-12831960D02*
X4291353Y-12822436D01*
X4291353Y-12822436D02*
X4291353Y-12841484D01*
X4481829Y-12641484D02*
X4386591Y-12641484D01*
X4386591Y-12641484D02*
X4377067Y-12736722D01*
X4377067Y-12736722D02*
X4386591Y-12727198D01*
X4386591Y-12727198D02*
X4405639Y-12717674D01*
X4405639Y-12717674D02*
X4453258Y-12717674D01*
X4453258Y-12717674D02*
X4472305Y-12727198D01*
X4472305Y-12727198D02*
X4481829Y-12736722D01*
X4481829Y-12736722D02*
X4491353Y-12755769D01*
X4491353Y-12755769D02*
X4491353Y-12803388D01*
X4491353Y-12803388D02*
X4481829Y-12822436D01*
X4481829Y-12822436D02*
X4472305Y-12831960D01*
X4472305Y-12831960D02*
X4453258Y-12841484D01*
X4453258Y-12841484D02*
X4405639Y-12841484D01*
X4405639Y-12841484D02*
X4386591Y-12831960D01*
X4386591Y-12831960D02*
X4377067Y-12822436D01*
X4615163Y-12641484D02*
X4634210Y-12641484D01*
X4634210Y-12641484D02*
X4653258Y-12651008D01*
X4653258Y-12651008D02*
X4662782Y-12660531D01*
X4662782Y-12660531D02*
X4672305Y-12679579D01*
X4672305Y-12679579D02*
X4681829Y-12717674D01*
X4681829Y-12717674D02*
X4681829Y-12765293D01*
X4681829Y-12765293D02*
X4672305Y-12803388D01*
X4672305Y-12803388D02*
X4662782Y-12822436D01*
X4662782Y-12822436D02*
X4653258Y-12831960D01*
X4653258Y-12831960D02*
X4634210Y-12841484D01*
X4634210Y-12841484D02*
X4615163Y-12841484D01*
X4615163Y-12841484D02*
X4596115Y-12831960D01*
X4596115Y-12831960D02*
X4586591Y-12822436D01*
X4586591Y-12822436D02*
X4577067Y-12803388D01*
X4577067Y-12803388D02*
X4567544Y-12765293D01*
X4567544Y-12765293D02*
X4567544Y-12717674D01*
X4567544Y-12717674D02*
X4577067Y-12679579D01*
X4577067Y-12679579D02*
X4586591Y-12660531D01*
X4586591Y-12660531D02*
X4596115Y-12651008D01*
X4596115Y-12651008D02*
X4615163Y-12641484D01*
X4805639Y-12641484D02*
X4824686Y-12641484D01*
X4824686Y-12641484D02*
X4843734Y-12651008D01*
X4843734Y-12651008D02*
X4853258Y-12660531D01*
X4853258Y-12660531D02*
X4862782Y-12679579D01*
X4862782Y-12679579D02*
X4872305Y-12717674D01*
X4872305Y-12717674D02*
X4872305Y-12765293D01*
X4872305Y-12765293D02*
X4862782Y-12803388D01*
X4862782Y-12803388D02*
X4853258Y-12822436D01*
X4853258Y-12822436D02*
X4843734Y-12831960D01*
X4843734Y-12831960D02*
X4824686Y-12841484D01*
X4824686Y-12841484D02*
X4805639Y-12841484D01*
X4805639Y-12841484D02*
X4786591Y-12831960D01*
X4786591Y-12831960D02*
X4777067Y-12822436D01*
X4777067Y-12822436D02*
X4767544Y-12803388D01*
X4767544Y-12803388D02*
X4758020Y-12765293D01*
X4758020Y-12765293D02*
X4758020Y-12717674D01*
X4758020Y-12717674D02*
X4767544Y-12679579D01*
X4767544Y-12679579D02*
X4777067Y-12660531D01*
X4777067Y-12660531D02*
X4786591Y-12651008D01*
X4786591Y-12651008D02*
X4805639Y-12641484D01*
X4958020Y-12841484D02*
X4958020Y-12708150D01*
X4958020Y-12727198D02*
X4967544Y-12717674D01*
X4967544Y-12717674D02*
X4986591Y-12708150D01*
X4986591Y-12708150D02*
X5015163Y-12708150D01*
X5015163Y-12708150D02*
X5034210Y-12717674D01*
X5034210Y-12717674D02*
X5043734Y-12736722D01*
X5043734Y-12736722D02*
X5043734Y-12841484D01*
X5043734Y-12736722D02*
X5053258Y-12717674D01*
X5053258Y-12717674D02*
X5072305Y-12708150D01*
X5072305Y-12708150D02*
X5100877Y-12708150D01*
X5100877Y-12708150D02*
X5119925Y-12717674D01*
X5119925Y-12717674D02*
X5129448Y-12736722D01*
X5129448Y-12736722D02*
X5129448Y-12841484D01*
X5224686Y-12841484D02*
X5224686Y-12708150D01*
X5224686Y-12727198D02*
X5234210Y-12717674D01*
X5234210Y-12717674D02*
X5253258Y-12708150D01*
X5253258Y-12708150D02*
X5281829Y-12708150D01*
X5281829Y-12708150D02*
X5300877Y-12717674D01*
X5300877Y-12717674D02*
X5310401Y-12736722D01*
X5310401Y-12736722D02*
X5310401Y-12841484D01*
X5310401Y-12736722D02*
X5319925Y-12717674D01*
X5319925Y-12717674D02*
X5338972Y-12708150D01*
X5338972Y-12708150D02*
X5367544Y-12708150D01*
X5367544Y-12708150D02*
X5386591Y-12717674D01*
X5386591Y-12717674D02*
X5396115Y-12736722D01*
X5396115Y-12736722D02*
X5396115Y-12841484D01*
X5786591Y-12631960D02*
X5615163Y-12889103D01*
X6043734Y-12641484D02*
X6062782Y-12641484D01*
X6062782Y-12641484D02*
X6081829Y-12651008D01*
X6081829Y-12651008D02*
X6091353Y-12660531D01*
X6091353Y-12660531D02*
X6100877Y-12679579D01*
X6100877Y-12679579D02*
X6110401Y-12717674D01*
X6110401Y-12717674D02*
X6110401Y-12765293D01*
X6110401Y-12765293D02*
X6100877Y-12803388D01*
X6100877Y-12803388D02*
X6091353Y-12822436D01*
X6091353Y-12822436D02*
X6081829Y-12831960D01*
X6081829Y-12831960D02*
X6062782Y-12841484D01*
X6062782Y-12841484D02*
X6043734Y-12841484D01*
X6043734Y-12841484D02*
X6024686Y-12831960D01*
X6024686Y-12831960D02*
X6015163Y-12822436D01*
X6015163Y-12822436D02*
X6005639Y-12803388D01*
X6005639Y-12803388D02*
X5996115Y-12765293D01*
X5996115Y-12765293D02*
X5996115Y-12717674D01*
X5996115Y-12717674D02*
X6005639Y-12679579D01*
X6005639Y-12679579D02*
X6015163Y-12660531D01*
X6015163Y-12660531D02*
X6024686Y-12651008D01*
X6024686Y-12651008D02*
X6043734Y-12641484D01*
X6196115Y-12822436D02*
X6205639Y-12831960D01*
X6205639Y-12831960D02*
X6196115Y-12841484D01*
X6196115Y-12841484D02*
X6186591Y-12831960D01*
X6186591Y-12831960D02*
X6196115Y-12822436D01*
X6196115Y-12822436D02*
X6196115Y-12841484D01*
X6329448Y-12641484D02*
X6348496Y-12641484D01*
X6348496Y-12641484D02*
X6367544Y-12651008D01*
X6367544Y-12651008D02*
X6377067Y-12660531D01*
X6377067Y-12660531D02*
X6386591Y-12679579D01*
X6386591Y-12679579D02*
X6396115Y-12717674D01*
X6396115Y-12717674D02*
X6396115Y-12765293D01*
X6396115Y-12765293D02*
X6386591Y-12803388D01*
X6386591Y-12803388D02*
X6377067Y-12822436D01*
X6377067Y-12822436D02*
X6367544Y-12831960D01*
X6367544Y-12831960D02*
X6348496Y-12841484D01*
X6348496Y-12841484D02*
X6329448Y-12841484D01*
X6329448Y-12841484D02*
X6310401Y-12831960D01*
X6310401Y-12831960D02*
X6300877Y-12822436D01*
X6300877Y-12822436D02*
X6291353Y-12803388D01*
X6291353Y-12803388D02*
X6281829Y-12765293D01*
X6281829Y-12765293D02*
X6281829Y-12717674D01*
X6281829Y-12717674D02*
X6291353Y-12679579D01*
X6291353Y-12679579D02*
X6300877Y-12660531D01*
X6300877Y-12660531D02*
X6310401Y-12651008D01*
X6310401Y-12651008D02*
X6329448Y-12641484D01*
X6577067Y-12641484D02*
X6481829Y-12641484D01*
X6481829Y-12641484D02*
X6472306Y-12736722D01*
X6472306Y-12736722D02*
X6481829Y-12727198D01*
X6481829Y-12727198D02*
X6500877Y-12717674D01*
X6500877Y-12717674D02*
X6548496Y-12717674D01*
X6548496Y-12717674D02*
X6567544Y-12727198D01*
X6567544Y-12727198D02*
X6577067Y-12736722D01*
X6577067Y-12736722D02*
X6586591Y-12755769D01*
X6586591Y-12755769D02*
X6586591Y-12803388D01*
X6586591Y-12803388D02*
X6577067Y-12822436D01*
X6577067Y-12822436D02*
X6567544Y-12831960D01*
X6567544Y-12831960D02*
X6548496Y-12841484D01*
X6548496Y-12841484D02*
X6500877Y-12841484D01*
X6500877Y-12841484D02*
X6481829Y-12831960D01*
X6481829Y-12831960D02*
X6472306Y-12822436D01*
X6681829Y-12841484D02*
X6719925Y-12841484D01*
X6719925Y-12841484D02*
X6738972Y-12831960D01*
X6738972Y-12831960D02*
X6748496Y-12822436D01*
X6748496Y-12822436D02*
X6767544Y-12793865D01*
X6767544Y-12793865D02*
X6777067Y-12755769D01*
X6777067Y-12755769D02*
X6777067Y-12679579D01*
X6777067Y-12679579D02*
X6767544Y-12660531D01*
X6767544Y-12660531D02*
X6758020Y-12651008D01*
X6758020Y-12651008D02*
X6738972Y-12641484D01*
X6738972Y-12641484D02*
X6700877Y-12641484D01*
X6700877Y-12641484D02*
X6681829Y-12651008D01*
X6681829Y-12651008D02*
X6672306Y-12660531D01*
X6672306Y-12660531D02*
X6662782Y-12679579D01*
X6662782Y-12679579D02*
X6662782Y-12727198D01*
X6662782Y-12727198D02*
X6672306Y-12746246D01*
X6672306Y-12746246D02*
X6681829Y-12755769D01*
X6681829Y-12755769D02*
X6700877Y-12765293D01*
X6700877Y-12765293D02*
X6738972Y-12765293D01*
X6738972Y-12765293D02*
X6758020Y-12755769D01*
X6758020Y-12755769D02*
X6767544Y-12746246D01*
X6767544Y-12746246D02*
X6777067Y-12727198D01*
X6967544Y-12841484D02*
X6853258Y-12841484D01*
X6910401Y-12841484D02*
X6910401Y-12641484D01*
X6910401Y-12641484D02*
X6891353Y-12670055D01*
X6891353Y-12670055D02*
X6872306Y-12689103D01*
X6872306Y-12689103D02*
X6853258Y-12698627D01*
X7043734Y-12641484D02*
X7043734Y-12679579D01*
X7119925Y-12641484D02*
X7119925Y-12679579D01*
X7415163Y-12917674D02*
X7405639Y-12908150D01*
X7405639Y-12908150D02*
X7386591Y-12879579D01*
X7386591Y-12879579D02*
X7377068Y-12860531D01*
X7377068Y-12860531D02*
X7367544Y-12831960D01*
X7367544Y-12831960D02*
X7358020Y-12784341D01*
X7358020Y-12784341D02*
X7358020Y-12746246D01*
X7358020Y-12746246D02*
X7367544Y-12698627D01*
X7367544Y-12698627D02*
X7377068Y-12670055D01*
X7377068Y-12670055D02*
X7386591Y-12651008D01*
X7386591Y-12651008D02*
X7405639Y-12622436D01*
X7405639Y-12622436D02*
X7415163Y-12612912D01*
X7529448Y-12641484D02*
X7548496Y-12641484D01*
X7548496Y-12641484D02*
X7567544Y-12651008D01*
X7567544Y-12651008D02*
X7577068Y-12660531D01*
X7577068Y-12660531D02*
X7586591Y-12679579D01*
X7586591Y-12679579D02*
X7596115Y-12717674D01*
X7596115Y-12717674D02*
X7596115Y-12765293D01*
X7596115Y-12765293D02*
X7586591Y-12803388D01*
X7586591Y-12803388D02*
X7577068Y-12822436D01*
X7577068Y-12822436D02*
X7567544Y-12831960D01*
X7567544Y-12831960D02*
X7548496Y-12841484D01*
X7548496Y-12841484D02*
X7529448Y-12841484D01*
X7529448Y-12841484D02*
X7510401Y-12831960D01*
X7510401Y-12831960D02*
X7500877Y-12822436D01*
X7500877Y-12822436D02*
X7491353Y-12803388D01*
X7491353Y-12803388D02*
X7481829Y-12765293D01*
X7481829Y-12765293D02*
X7481829Y-12717674D01*
X7481829Y-12717674D02*
X7491353Y-12679579D01*
X7491353Y-12679579D02*
X7500877Y-12660531D01*
X7500877Y-12660531D02*
X7510401Y-12651008D01*
X7510401Y-12651008D02*
X7529448Y-12641484D01*
X7834210Y-12841484D02*
X7834210Y-12641484D01*
X7919925Y-12841484D02*
X7919925Y-12736722D01*
X7919925Y-12736722D02*
X7910401Y-12717674D01*
X7910401Y-12717674D02*
X7891353Y-12708150D01*
X7891353Y-12708150D02*
X7862782Y-12708150D01*
X7862782Y-12708150D02*
X7843734Y-12717674D01*
X7843734Y-12717674D02*
X7834210Y-12727198D01*
X8043734Y-12841484D02*
X8024687Y-12831960D01*
X8024687Y-12831960D02*
X8015163Y-12822436D01*
X8015163Y-12822436D02*
X8005639Y-12803388D01*
X8005639Y-12803388D02*
X8005639Y-12746246D01*
X8005639Y-12746246D02*
X8015163Y-12727198D01*
X8015163Y-12727198D02*
X8024687Y-12717674D01*
X8024687Y-12717674D02*
X8043734Y-12708150D01*
X8043734Y-12708150D02*
X8072306Y-12708150D01*
X8072306Y-12708150D02*
X8091353Y-12717674D01*
X8091353Y-12717674D02*
X8100877Y-12727198D01*
X8100877Y-12727198D02*
X8110401Y-12746246D01*
X8110401Y-12746246D02*
X8110401Y-12803388D01*
X8110401Y-12803388D02*
X8100877Y-12822436D01*
X8100877Y-12822436D02*
X8091353Y-12831960D01*
X8091353Y-12831960D02*
X8072306Y-12841484D01*
X8072306Y-12841484D02*
X8043734Y-12841484D01*
X8224687Y-12841484D02*
X8205639Y-12831960D01*
X8205639Y-12831960D02*
X8196115Y-12812912D01*
X8196115Y-12812912D02*
X8196115Y-12641484D01*
X8377068Y-12831960D02*
X8358020Y-12841484D01*
X8358020Y-12841484D02*
X8319925Y-12841484D01*
X8319925Y-12841484D02*
X8300877Y-12831960D01*
X8300877Y-12831960D02*
X8291353Y-12812912D01*
X8291353Y-12812912D02*
X8291353Y-12736722D01*
X8291353Y-12736722D02*
X8300877Y-12717674D01*
X8300877Y-12717674D02*
X8319925Y-12708150D01*
X8319925Y-12708150D02*
X8358020Y-12708150D01*
X8358020Y-12708150D02*
X8377068Y-12717674D01*
X8377068Y-12717674D02*
X8386591Y-12736722D01*
X8386591Y-12736722D02*
X8386591Y-12755769D01*
X8386591Y-12755769D02*
X8291353Y-12774817D01*
X8462782Y-12831960D02*
X8481830Y-12841484D01*
X8481830Y-12841484D02*
X8519925Y-12841484D01*
X8519925Y-12841484D02*
X8538973Y-12831960D01*
X8538973Y-12831960D02*
X8548496Y-12812912D01*
X8548496Y-12812912D02*
X8548496Y-12803388D01*
X8548496Y-12803388D02*
X8538973Y-12784341D01*
X8538973Y-12784341D02*
X8519925Y-12774817D01*
X8519925Y-12774817D02*
X8491353Y-12774817D01*
X8491353Y-12774817D02*
X8472306Y-12765293D01*
X8472306Y-12765293D02*
X8462782Y-12746246D01*
X8462782Y-12746246D02*
X8462782Y-12736722D01*
X8462782Y-12736722D02*
X8472306Y-12717674D01*
X8472306Y-12717674D02*
X8491353Y-12708150D01*
X8491353Y-12708150D02*
X8519925Y-12708150D01*
X8519925Y-12708150D02*
X8538973Y-12717674D01*
X8786592Y-12765293D02*
X8938973Y-12765293D01*
X8862782Y-12841484D02*
X8862782Y-12689103D01*
X9177068Y-12660531D02*
X9186592Y-12651008D01*
X9186592Y-12651008D02*
X9205639Y-12641484D01*
X9205639Y-12641484D02*
X9253258Y-12641484D01*
X9253258Y-12641484D02*
X9272306Y-12651008D01*
X9272306Y-12651008D02*
X9281830Y-12660531D01*
X9281830Y-12660531D02*
X9291354Y-12679579D01*
X9291354Y-12679579D02*
X9291354Y-12698627D01*
X9291354Y-12698627D02*
X9281830Y-12727198D01*
X9281830Y-12727198D02*
X9167544Y-12841484D01*
X9167544Y-12841484D02*
X9291354Y-12841484D01*
X9519925Y-12831960D02*
X9538973Y-12841484D01*
X9538973Y-12841484D02*
X9577068Y-12841484D01*
X9577068Y-12841484D02*
X9596116Y-12831960D01*
X9596116Y-12831960D02*
X9605639Y-12812912D01*
X9605639Y-12812912D02*
X9605639Y-12803388D01*
X9605639Y-12803388D02*
X9596116Y-12784341D01*
X9596116Y-12784341D02*
X9577068Y-12774817D01*
X9577068Y-12774817D02*
X9548496Y-12774817D01*
X9548496Y-12774817D02*
X9529449Y-12765293D01*
X9529449Y-12765293D02*
X9519925Y-12746246D01*
X9519925Y-12746246D02*
X9519925Y-12736722D01*
X9519925Y-12736722D02*
X9529449Y-12717674D01*
X9529449Y-12717674D02*
X9548496Y-12708150D01*
X9548496Y-12708150D02*
X9577068Y-12708150D01*
X9577068Y-12708150D02*
X9596116Y-12717674D01*
X9719925Y-12841484D02*
X9700877Y-12831960D01*
X9700877Y-12831960D02*
X9691354Y-12812912D01*
X9691354Y-12812912D02*
X9691354Y-12641484D01*
X9824687Y-12841484D02*
X9805639Y-12831960D01*
X9805639Y-12831960D02*
X9796116Y-12822436D01*
X9796116Y-12822436D02*
X9786592Y-12803388D01*
X9786592Y-12803388D02*
X9786592Y-12746246D01*
X9786592Y-12746246D02*
X9796116Y-12727198D01*
X9796116Y-12727198D02*
X9805639Y-12717674D01*
X9805639Y-12717674D02*
X9824687Y-12708150D01*
X9824687Y-12708150D02*
X9853258Y-12708150D01*
X9853258Y-12708150D02*
X9872306Y-12717674D01*
X9872306Y-12717674D02*
X9881830Y-12727198D01*
X9881830Y-12727198D02*
X9891354Y-12746246D01*
X9891354Y-12746246D02*
X9891354Y-12803388D01*
X9891354Y-12803388D02*
X9881830Y-12822436D01*
X9881830Y-12822436D02*
X9872306Y-12831960D01*
X9872306Y-12831960D02*
X9853258Y-12841484D01*
X9853258Y-12841484D02*
X9824687Y-12841484D01*
X9948497Y-12708150D02*
X10024687Y-12708150D01*
X9977068Y-12641484D02*
X9977068Y-12812912D01*
X9977068Y-12812912D02*
X9986592Y-12831960D01*
X9986592Y-12831960D02*
X10005639Y-12841484D01*
X10005639Y-12841484D02*
X10024687Y-12841484D01*
X10081830Y-12831960D02*
X10100877Y-12841484D01*
X10100877Y-12841484D02*
X10138973Y-12841484D01*
X10138973Y-12841484D02*
X10158020Y-12831960D01*
X10158020Y-12831960D02*
X10167544Y-12812912D01*
X10167544Y-12812912D02*
X10167544Y-12803388D01*
X10167544Y-12803388D02*
X10158020Y-12784341D01*
X10158020Y-12784341D02*
X10138973Y-12774817D01*
X10138973Y-12774817D02*
X10110401Y-12774817D01*
X10110401Y-12774817D02*
X10091354Y-12765293D01*
X10091354Y-12765293D02*
X10081830Y-12746246D01*
X10081830Y-12746246D02*
X10081830Y-12736722D01*
X10081830Y-12736722D02*
X10091354Y-12717674D01*
X10091354Y-12717674D02*
X10110401Y-12708150D01*
X10110401Y-12708150D02*
X10138973Y-12708150D01*
X10138973Y-12708150D02*
X10158020Y-12717674D01*
X10234211Y-12917674D02*
X10243735Y-12908150D01*
X10243735Y-12908150D02*
X10262782Y-12879579D01*
X10262782Y-12879579D02*
X10272306Y-12860531D01*
X10272306Y-12860531D02*
X10281830Y-12831960D01*
X10281830Y-12831960D02*
X10291354Y-12784341D01*
X10291354Y-12784341D02*
X10291354Y-12746246D01*
X10291354Y-12746246D02*
X10281830Y-12698627D01*
X10281830Y-12698627D02*
X10272306Y-12670055D01*
X10272306Y-12670055D02*
X10262782Y-12651008D01*
X10262782Y-12651008D02*
X10243735Y-12622436D01*
X10243735Y-12622436D02*
X10234211Y-12612912D01*
X3640100Y-12920000D02*
X3840100Y-13120000D01*
X3840100Y-12920000D02*
X3640100Y-13120000D01*
X3810811Y-13090711D02*
X3810811Y-12949289D01*
X3669389Y-12949289D01*
X3669389Y-13090711D01*
X3810811Y-13090711D01*
X4081829Y-12911484D02*
X4205639Y-12911484D01*
X4205639Y-12911484D02*
X4138972Y-12987674D01*
X4138972Y-12987674D02*
X4167543Y-12987674D01*
X4167543Y-12987674D02*
X4186591Y-12997198D01*
X4186591Y-12997198D02*
X4196115Y-13006722D01*
X4196115Y-13006722D02*
X4205639Y-13025769D01*
X4205639Y-13025769D02*
X4205639Y-13073388D01*
X4205639Y-13073388D02*
X4196115Y-13092436D01*
X4196115Y-13092436D02*
X4186591Y-13101960D01*
X4186591Y-13101960D02*
X4167543Y-13111484D01*
X4167543Y-13111484D02*
X4110401Y-13111484D01*
X4110401Y-13111484D02*
X4091353Y-13101960D01*
X4091353Y-13101960D02*
X4081829Y-13092436D01*
X4291353Y-13092436D02*
X4300877Y-13101960D01*
X4300877Y-13101960D02*
X4291353Y-13111484D01*
X4291353Y-13111484D02*
X4281829Y-13101960D01*
X4281829Y-13101960D02*
X4291353Y-13092436D01*
X4291353Y-13092436D02*
X4291353Y-13111484D01*
X4424686Y-12911484D02*
X4443734Y-12911484D01*
X4443734Y-12911484D02*
X4462782Y-12921008D01*
X4462782Y-12921008D02*
X4472305Y-12930531D01*
X4472305Y-12930531D02*
X4481829Y-12949579D01*
X4481829Y-12949579D02*
X4491353Y-12987674D01*
X4491353Y-12987674D02*
X4491353Y-13035293D01*
X4491353Y-13035293D02*
X4481829Y-13073388D01*
X4481829Y-13073388D02*
X4472305Y-13092436D01*
X4472305Y-13092436D02*
X4462782Y-13101960D01*
X4462782Y-13101960D02*
X4443734Y-13111484D01*
X4443734Y-13111484D02*
X4424686Y-13111484D01*
X4424686Y-13111484D02*
X4405639Y-13101960D01*
X4405639Y-13101960D02*
X4396115Y-13092436D01*
X4396115Y-13092436D02*
X4386591Y-13073388D01*
X4386591Y-13073388D02*
X4377067Y-13035293D01*
X4377067Y-13035293D02*
X4377067Y-12987674D01*
X4377067Y-12987674D02*
X4386591Y-12949579D01*
X4386591Y-12949579D02*
X4396115Y-12930531D01*
X4396115Y-12930531D02*
X4405639Y-12921008D01*
X4405639Y-12921008D02*
X4424686Y-12911484D01*
X4672305Y-12911484D02*
X4577067Y-12911484D01*
X4577067Y-12911484D02*
X4567544Y-13006722D01*
X4567544Y-13006722D02*
X4577067Y-12997198D01*
X4577067Y-12997198D02*
X4596115Y-12987674D01*
X4596115Y-12987674D02*
X4643734Y-12987674D01*
X4643734Y-12987674D02*
X4662782Y-12997198D01*
X4662782Y-12997198D02*
X4672305Y-13006722D01*
X4672305Y-13006722D02*
X4681829Y-13025769D01*
X4681829Y-13025769D02*
X4681829Y-13073388D01*
X4681829Y-13073388D02*
X4672305Y-13092436D01*
X4672305Y-13092436D02*
X4662782Y-13101960D01*
X4662782Y-13101960D02*
X4643734Y-13111484D01*
X4643734Y-13111484D02*
X4596115Y-13111484D01*
X4596115Y-13111484D02*
X4577067Y-13101960D01*
X4577067Y-13101960D02*
X4567544Y-13092436D01*
X4805639Y-12911484D02*
X4824686Y-12911484D01*
X4824686Y-12911484D02*
X4843734Y-12921008D01*
X4843734Y-12921008D02*
X4853258Y-12930531D01*
X4853258Y-12930531D02*
X4862782Y-12949579D01*
X4862782Y-12949579D02*
X4872305Y-12987674D01*
X4872305Y-12987674D02*
X4872305Y-13035293D01*
X4872305Y-13035293D02*
X4862782Y-13073388D01*
X4862782Y-13073388D02*
X4853258Y-13092436D01*
X4853258Y-13092436D02*
X4843734Y-13101960D01*
X4843734Y-13101960D02*
X4824686Y-13111484D01*
X4824686Y-13111484D02*
X4805639Y-13111484D01*
X4805639Y-13111484D02*
X4786591Y-13101960D01*
X4786591Y-13101960D02*
X4777067Y-13092436D01*
X4777067Y-13092436D02*
X4767544Y-13073388D01*
X4767544Y-13073388D02*
X4758020Y-13035293D01*
X4758020Y-13035293D02*
X4758020Y-12987674D01*
X4758020Y-12987674D02*
X4767544Y-12949579D01*
X4767544Y-12949579D02*
X4777067Y-12930531D01*
X4777067Y-12930531D02*
X4786591Y-12921008D01*
X4786591Y-12921008D02*
X4805639Y-12911484D01*
X4958020Y-13111484D02*
X4958020Y-12978150D01*
X4958020Y-12997198D02*
X4967544Y-12987674D01*
X4967544Y-12987674D02*
X4986591Y-12978150D01*
X4986591Y-12978150D02*
X5015163Y-12978150D01*
X5015163Y-12978150D02*
X5034210Y-12987674D01*
X5034210Y-12987674D02*
X5043734Y-13006722D01*
X5043734Y-13006722D02*
X5043734Y-13111484D01*
X5043734Y-13006722D02*
X5053258Y-12987674D01*
X5053258Y-12987674D02*
X5072305Y-12978150D01*
X5072305Y-12978150D02*
X5100877Y-12978150D01*
X5100877Y-12978150D02*
X5119925Y-12987674D01*
X5119925Y-12987674D02*
X5129448Y-13006722D01*
X5129448Y-13006722D02*
X5129448Y-13111484D01*
X5224686Y-13111484D02*
X5224686Y-12978150D01*
X5224686Y-12997198D02*
X5234210Y-12987674D01*
X5234210Y-12987674D02*
X5253258Y-12978150D01*
X5253258Y-12978150D02*
X5281829Y-12978150D01*
X5281829Y-12978150D02*
X5300877Y-12987674D01*
X5300877Y-12987674D02*
X5310401Y-13006722D01*
X5310401Y-13006722D02*
X5310401Y-13111484D01*
X5310401Y-13006722D02*
X5319925Y-12987674D01*
X5319925Y-12987674D02*
X5338972Y-12978150D01*
X5338972Y-12978150D02*
X5367544Y-12978150D01*
X5367544Y-12978150D02*
X5386591Y-12987674D01*
X5386591Y-12987674D02*
X5396115Y-13006722D01*
X5396115Y-13006722D02*
X5396115Y-13111484D01*
X5786591Y-12901960D02*
X5615163Y-13159103D01*
X6043734Y-12911484D02*
X6062782Y-12911484D01*
X6062782Y-12911484D02*
X6081829Y-12921008D01*
X6081829Y-12921008D02*
X6091353Y-12930531D01*
X6091353Y-12930531D02*
X6100877Y-12949579D01*
X6100877Y-12949579D02*
X6110401Y-12987674D01*
X6110401Y-12987674D02*
X6110401Y-13035293D01*
X6110401Y-13035293D02*
X6100877Y-13073388D01*
X6100877Y-13073388D02*
X6091353Y-13092436D01*
X6091353Y-13092436D02*
X6081829Y-13101960D01*
X6081829Y-13101960D02*
X6062782Y-13111484D01*
X6062782Y-13111484D02*
X6043734Y-13111484D01*
X6043734Y-13111484D02*
X6024686Y-13101960D01*
X6024686Y-13101960D02*
X6015163Y-13092436D01*
X6015163Y-13092436D02*
X6005639Y-13073388D01*
X6005639Y-13073388D02*
X5996115Y-13035293D01*
X5996115Y-13035293D02*
X5996115Y-12987674D01*
X5996115Y-12987674D02*
X6005639Y-12949579D01*
X6005639Y-12949579D02*
X6015163Y-12930531D01*
X6015163Y-12930531D02*
X6024686Y-12921008D01*
X6024686Y-12921008D02*
X6043734Y-12911484D01*
X6196115Y-13092436D02*
X6205639Y-13101960D01*
X6205639Y-13101960D02*
X6196115Y-13111484D01*
X6196115Y-13111484D02*
X6186591Y-13101960D01*
X6186591Y-13101960D02*
X6196115Y-13092436D01*
X6196115Y-13092436D02*
X6196115Y-13111484D01*
X6396115Y-13111484D02*
X6281829Y-13111484D01*
X6338972Y-13111484D02*
X6338972Y-12911484D01*
X6338972Y-12911484D02*
X6319925Y-12940055D01*
X6319925Y-12940055D02*
X6300877Y-12959103D01*
X6300877Y-12959103D02*
X6281829Y-12968627D01*
X6472306Y-12930531D02*
X6481829Y-12921008D01*
X6481829Y-12921008D02*
X6500877Y-12911484D01*
X6500877Y-12911484D02*
X6548496Y-12911484D01*
X6548496Y-12911484D02*
X6567544Y-12921008D01*
X6567544Y-12921008D02*
X6577067Y-12930531D01*
X6577067Y-12930531D02*
X6586591Y-12949579D01*
X6586591Y-12949579D02*
X6586591Y-12968627D01*
X6586591Y-12968627D02*
X6577067Y-12997198D01*
X6577067Y-12997198D02*
X6462782Y-13111484D01*
X6462782Y-13111484D02*
X6586591Y-13111484D01*
X6710401Y-12911484D02*
X6729448Y-12911484D01*
X6729448Y-12911484D02*
X6748496Y-12921008D01*
X6748496Y-12921008D02*
X6758020Y-12930531D01*
X6758020Y-12930531D02*
X6767544Y-12949579D01*
X6767544Y-12949579D02*
X6777067Y-12987674D01*
X6777067Y-12987674D02*
X6777067Y-13035293D01*
X6777067Y-13035293D02*
X6767544Y-13073388D01*
X6767544Y-13073388D02*
X6758020Y-13092436D01*
X6758020Y-13092436D02*
X6748496Y-13101960D01*
X6748496Y-13101960D02*
X6729448Y-13111484D01*
X6729448Y-13111484D02*
X6710401Y-13111484D01*
X6710401Y-13111484D02*
X6691353Y-13101960D01*
X6691353Y-13101960D02*
X6681829Y-13092436D01*
X6681829Y-13092436D02*
X6672306Y-13073388D01*
X6672306Y-13073388D02*
X6662782Y-13035293D01*
X6662782Y-13035293D02*
X6662782Y-12987674D01*
X6662782Y-12987674D02*
X6672306Y-12949579D01*
X6672306Y-12949579D02*
X6681829Y-12930531D01*
X6681829Y-12930531D02*
X6691353Y-12921008D01*
X6691353Y-12921008D02*
X6710401Y-12911484D01*
X6967544Y-13111484D02*
X6853258Y-13111484D01*
X6910401Y-13111484D02*
X6910401Y-12911484D01*
X6910401Y-12911484D02*
X6891353Y-12940055D01*
X6891353Y-12940055D02*
X6872306Y-12959103D01*
X6872306Y-12959103D02*
X6853258Y-12968627D01*
X7043734Y-12911484D02*
X7043734Y-12949579D01*
X7119925Y-12911484D02*
X7119925Y-12949579D01*
X7415163Y-13187674D02*
X7405639Y-13178150D01*
X7405639Y-13178150D02*
X7386591Y-13149579D01*
X7386591Y-13149579D02*
X7377068Y-13130531D01*
X7377068Y-13130531D02*
X7367544Y-13101960D01*
X7367544Y-13101960D02*
X7358020Y-13054341D01*
X7358020Y-13054341D02*
X7358020Y-13016246D01*
X7358020Y-13016246D02*
X7367544Y-12968627D01*
X7367544Y-12968627D02*
X7377068Y-12940055D01*
X7377068Y-12940055D02*
X7386591Y-12921008D01*
X7386591Y-12921008D02*
X7405639Y-12892436D01*
X7405639Y-12892436D02*
X7415163Y-12882912D01*
X7577068Y-12978150D02*
X7577068Y-13111484D01*
X7529448Y-12901960D02*
X7481829Y-13044817D01*
X7481829Y-13044817D02*
X7605639Y-13044817D01*
X7710401Y-12997198D02*
X7691353Y-12987674D01*
X7691353Y-12987674D02*
X7681829Y-12978150D01*
X7681829Y-12978150D02*
X7672306Y-12959103D01*
X7672306Y-12959103D02*
X7672306Y-12949579D01*
X7672306Y-12949579D02*
X7681829Y-12930531D01*
X7681829Y-12930531D02*
X7691353Y-12921008D01*
X7691353Y-12921008D02*
X7710401Y-12911484D01*
X7710401Y-12911484D02*
X7748496Y-12911484D01*
X7748496Y-12911484D02*
X7767544Y-12921008D01*
X7767544Y-12921008D02*
X7777068Y-12930531D01*
X7777068Y-12930531D02*
X7786591Y-12949579D01*
X7786591Y-12949579D02*
X7786591Y-12959103D01*
X7786591Y-12959103D02*
X7777068Y-12978150D01*
X7777068Y-12978150D02*
X7767544Y-12987674D01*
X7767544Y-12987674D02*
X7748496Y-12997198D01*
X7748496Y-12997198D02*
X7710401Y-12997198D01*
X7710401Y-12997198D02*
X7691353Y-13006722D01*
X7691353Y-13006722D02*
X7681829Y-13016246D01*
X7681829Y-13016246D02*
X7672306Y-13035293D01*
X7672306Y-13035293D02*
X7672306Y-13073388D01*
X7672306Y-13073388D02*
X7681829Y-13092436D01*
X7681829Y-13092436D02*
X7691353Y-13101960D01*
X7691353Y-13101960D02*
X7710401Y-13111484D01*
X7710401Y-13111484D02*
X7748496Y-13111484D01*
X7748496Y-13111484D02*
X7767544Y-13101960D01*
X7767544Y-13101960D02*
X7777068Y-13092436D01*
X7777068Y-13092436D02*
X7786591Y-13073388D01*
X7786591Y-13073388D02*
X7786591Y-13035293D01*
X7786591Y-13035293D02*
X7777068Y-13016246D01*
X7777068Y-13016246D02*
X7767544Y-13006722D01*
X7767544Y-13006722D02*
X7748496Y-12997198D01*
X8024687Y-13111484D02*
X8024687Y-12911484D01*
X8110401Y-13111484D02*
X8110401Y-13006722D01*
X8110401Y-13006722D02*
X8100877Y-12987674D01*
X8100877Y-12987674D02*
X8081830Y-12978150D01*
X8081830Y-12978150D02*
X8053258Y-12978150D01*
X8053258Y-12978150D02*
X8034210Y-12987674D01*
X8034210Y-12987674D02*
X8024687Y-12997198D01*
X8234210Y-13111484D02*
X8215163Y-13101960D01*
X8215163Y-13101960D02*
X8205639Y-13092436D01*
X8205639Y-13092436D02*
X8196115Y-13073388D01*
X8196115Y-13073388D02*
X8196115Y-13016246D01*
X8196115Y-13016246D02*
X8205639Y-12997198D01*
X8205639Y-12997198D02*
X8215163Y-12987674D01*
X8215163Y-12987674D02*
X8234210Y-12978150D01*
X8234210Y-12978150D02*
X8262782Y-12978150D01*
X8262782Y-12978150D02*
X8281830Y-12987674D01*
X8281830Y-12987674D02*
X8291353Y-12997198D01*
X8291353Y-12997198D02*
X8300877Y-13016246D01*
X8300877Y-13016246D02*
X8300877Y-13073388D01*
X8300877Y-13073388D02*
X8291353Y-13092436D01*
X8291353Y-13092436D02*
X8281830Y-13101960D01*
X8281830Y-13101960D02*
X8262782Y-13111484D01*
X8262782Y-13111484D02*
X8234210Y-13111484D01*
X8415163Y-13111484D02*
X8396115Y-13101960D01*
X8396115Y-13101960D02*
X8386591Y-13082912D01*
X8386591Y-13082912D02*
X8386591Y-12911484D01*
X8567544Y-13101960D02*
X8548496Y-13111484D01*
X8548496Y-13111484D02*
X8510401Y-13111484D01*
X8510401Y-13111484D02*
X8491353Y-13101960D01*
X8491353Y-13101960D02*
X8481830Y-13082912D01*
X8481830Y-13082912D02*
X8481830Y-13006722D01*
X8481830Y-13006722D02*
X8491353Y-12987674D01*
X8491353Y-12987674D02*
X8510401Y-12978150D01*
X8510401Y-12978150D02*
X8548496Y-12978150D01*
X8548496Y-12978150D02*
X8567544Y-12987674D01*
X8567544Y-12987674D02*
X8577068Y-13006722D01*
X8577068Y-13006722D02*
X8577068Y-13025769D01*
X8577068Y-13025769D02*
X8481830Y-13044817D01*
X8653258Y-13101960D02*
X8672306Y-13111484D01*
X8672306Y-13111484D02*
X8710401Y-13111484D01*
X8710401Y-13111484D02*
X8729449Y-13101960D01*
X8729449Y-13101960D02*
X8738973Y-13082912D01*
X8738973Y-13082912D02*
X8738973Y-13073388D01*
X8738973Y-13073388D02*
X8729449Y-13054341D01*
X8729449Y-13054341D02*
X8710401Y-13044817D01*
X8710401Y-13044817D02*
X8681830Y-13044817D01*
X8681830Y-13044817D02*
X8662782Y-13035293D01*
X8662782Y-13035293D02*
X8653258Y-13016246D01*
X8653258Y-13016246D02*
X8653258Y-13006722D01*
X8653258Y-13006722D02*
X8662782Y-12987674D01*
X8662782Y-12987674D02*
X8681830Y-12978150D01*
X8681830Y-12978150D02*
X8710401Y-12978150D01*
X8710401Y-12978150D02*
X8729449Y-12987674D01*
X8805639Y-13187674D02*
X8815163Y-13178150D01*
X8815163Y-13178150D02*
X8834211Y-13149579D01*
X8834211Y-13149579D02*
X8843734Y-13130531D01*
X8843734Y-13130531D02*
X8853258Y-13101960D01*
X8853258Y-13101960D02*
X8862782Y-13054341D01*
X8862782Y-13054341D02*
X8862782Y-13016246D01*
X8862782Y-13016246D02*
X8853258Y-12968627D01*
X8853258Y-12968627D02*
X8843734Y-12940055D01*
X8843734Y-12940055D02*
X8834211Y-12921008D01*
X8834211Y-12921008D02*
X8815163Y-12892436D01*
X8815163Y-12892436D02*
X8805639Y-12882912D01*
M02*
