M48
; DRILL file {KiCad 7.0.5} date Wed Jan 15 14:24:02 2025
; FORMAT={-:-/ absolute / metric / decimal}
; #@! TF.CreationDate,2025-01-15T14:24:02+08:00
; #@! TF.GenerationSoftware,Kicad,Pcbnew,7.0.5
; #@! TF.FileFunction,Plated,1,2,PTH
FMAT,2
METRIC
; #@! TA.AperFunction,Plated,PTH,ViaDrill
T1C0.400
; #@! TA.AperFunction,Plated,PTH,ComponentDrill
T2C0.700
; #@! TA.AperFunction,Plated,PTH,ComponentDrill
T3C0.900
; #@! TA.AperFunction,Plated,PTH,ComponentDrill
T4C1.000
; #@! TA.AperFunction,Plated,PTH,ComponentDrill
T5C1.092
; #@! TA.AperFunction,Plated,PTH,ComponentDrill
T6C1.300
; #@! TA.AperFunction,Plated,PTH,ComponentDrill
T7C1.500
; #@! TA.AperFunction,Plated,PTH,ComponentDrill
T8C3.050
%
G90
G05
T1
X42.421Y-42.76
X43.69Y-41.34
X45.03Y-31.61
X45.59Y-56.65
X50.041Y-41.88
X56.38Y-48.53
X57.661Y-45.64
X57.74Y-66.34
X59.4Y-88.54
X59.407Y-65.043
X59.41Y-63.15
X60.201Y-46.39
X60.97Y-90.64
X61.14Y-83.667
X61.47Y-48.99
X61.95Y-64.01
X62.741Y-43.74
X63.22Y-62.42
X63.22Y-64.92
X63.22Y-87.7
X64.01Y-47.8
X64.48Y-84.4
X65.21Y-83.667
X65.281Y-45.65
X65.47Y-90.65
X66.54Y-45.65
X67.028Y-63.93
X67.14Y-88.54
X67.62Y-77.95
X67.821Y-43.74
X68.36Y-82.94
X68.69Y-66.35
X69.09Y-43.01
X70.22Y-89.07
X70.361Y-40.15
X72.73Y-34.41
X72.96Y-51.66
X73.89Y-52.39
X74.16Y-86.2
X74.57Y-87.68
X74.63Y-51.65
X74.65Y-60.255
X75.28Y-45.5
X75.3Y-65.97
X75.355Y-50.92
X75.355Y-58.8
X76.08Y-50.19
X76.08Y-59.53
X78.21Y-46.92
X81.514Y-44.2
X85.47Y-63.52
X86.21Y-62.04
X86.93Y-62.75
X87.66Y-67.21
X87.67Y-50.86
X87.82Y-87.39
X87.98Y-86.16
X88.12Y-49.96
X88.13Y-68.1
X88.72Y-45.62
X88.78Y-87.74
X89.04Y-49.55
X89.04Y-68.7
X89.31Y-31.48
X89.37Y-88.63
X89.9Y-45.65
X90.15Y-102.27
X90.6Y-31.48
X90.6Y-69.58
X90.6Y-88.63
X90.61Y-50.53
X93.65Y-31.44
X93.65Y-69.54
X93.65Y-88.59
X93.66Y-50.49
X95.0Y-35.81
X95.0Y-54.85
X95.0Y-73.9
X95.0Y-92.95
X95.45Y-31.47
X95.45Y-50.52
X95.45Y-69.58
X95.45Y-88.62
X100.0Y-47.05
X100.0Y-66.1
X100.0Y-85.15
X100.0Y-104.2
X101.65Y-35.81
X101.65Y-54.86
X101.65Y-73.91
X101.65Y-92.96
X104.26Y-91.98
X104.35Y-45.85
X104.35Y-64.9
X104.35Y-83.95
X104.35Y-103.0
X104.6Y-86.62
X105.4Y-51.17
X105.4Y-70.21
X105.4Y-89.27
X105.41Y-32.13
X107.18Y-90.13
X110.52Y-86.72
X112.7Y-31.44
X112.7Y-50.49
X112.7Y-69.54
X112.7Y-88.59
X113.4Y-48.16
X114.05Y-35.8
X114.05Y-54.86
X114.05Y-73.91
X114.05Y-92.95
X114.5Y-50.53
X114.5Y-69.57
X114.5Y-88.62
X114.51Y-31.47
X115.27Y-84.21
X115.29Y-65.17
X117.37Y-48.03
X119.05Y-47.05
X119.05Y-66.1
X119.05Y-85.15
X119.05Y-104.2
X119.35Y-50.71
X119.35Y-69.76
X119.35Y-88.81
X120.7Y-35.81
X120.7Y-54.86
X120.7Y-73.91
X120.7Y-92.96
X123.4Y-45.85
X123.4Y-64.9
X123.4Y-83.95
X123.4Y-103.0
X124.45Y-32.13
X124.45Y-51.17
X124.45Y-70.21
X124.45Y-89.27
X126.23Y-34.37
X131.75Y-31.44
X131.75Y-50.49
X131.75Y-69.54
X131.75Y-88.59
X132.45Y-67.21
X133.1Y-35.81
X133.1Y-54.86
X133.1Y-73.91
X133.1Y-92.96
X133.55Y-69.57
X133.55Y-88.63
X133.56Y-31.48
X133.56Y-50.53
X138.1Y-47.05
X138.1Y-66.1
X138.1Y-85.15
X138.1Y-104.2
X139.75Y-35.81
X139.75Y-54.86
X139.75Y-73.91
X139.75Y-92.96
X142.45Y-45.85
X142.45Y-64.9
X142.45Y-83.95
X142.45Y-103.0
X143.5Y-32.13
X143.5Y-51.17
X143.5Y-70.21
X143.5Y-89.27
X145.28Y-90.12
X150.8Y-31.44
X150.8Y-50.49
X150.8Y-88.59
X150.81Y-69.54
X151.5Y-67.21
X152.15Y-35.8
X152.15Y-54.86
X152.15Y-73.9
X152.15Y-92.95
X152.6Y-31.48
X152.6Y-50.52
X152.6Y-69.58
X152.61Y-88.63
X153.37Y-84.22
X155.45Y-48.04
X155.45Y-67.1
X157.14Y-85.15
X157.15Y-47.05
X157.15Y-66.1
X157.15Y-104.2
X157.45Y-50.71
X157.45Y-69.76
X157.45Y-88.81
X158.8Y-35.81
X158.8Y-54.86
X158.8Y-73.91
X158.8Y-92.96
X161.5Y-45.85
X161.5Y-64.9
X161.5Y-83.95
X161.5Y-103.0
X162.55Y-32.13
X162.55Y-70.22
X162.55Y-89.27
X162.56Y-51.17
X164.33Y-34.37
X169.85Y-31.44
X169.85Y-50.49
X169.85Y-69.54
X169.85Y-88.59
X170.55Y-86.26
X171.2Y-35.81
X171.2Y-54.85
X171.2Y-73.91
X171.2Y-92.96
X171.65Y-88.62
X171.66Y-31.47
X171.66Y-50.52
X171.66Y-69.57
X176.2Y-47.05
X176.2Y-66.1
X176.2Y-85.15
X176.2Y-104.2
X177.85Y-35.81
X177.85Y-54.86
X177.85Y-73.91
X177.85Y-92.96
X180.55Y-45.85
X180.55Y-64.9
X180.55Y-83.95
X180.55Y-103.0
X181.6Y-51.16
X181.6Y-70.22
X181.6Y-89.27
X181.61Y-32.13
X183.38Y-90.12
X188.9Y-31.44
X188.9Y-50.49
X188.9Y-69.55
X188.9Y-88.59
X189.6Y-86.26
X190.25Y-35.81
X190.25Y-54.85
X190.25Y-73.9
X190.25Y-92.95
X190.7Y-31.48
X190.7Y-50.52
X190.7Y-69.57
X190.7Y-88.62
X193.54Y-86.15
X193.56Y-67.09
X193.57Y-48.05
X195.25Y-47.05
X195.25Y-66.1
X195.25Y-85.15
X195.25Y-104.2
X195.55Y-50.71
X195.55Y-69.76
X195.55Y-88.81
X196.9Y-35.81
X196.9Y-54.86
X196.9Y-73.91
X196.9Y-92.96
X199.6Y-45.85
X199.6Y-64.9
X199.6Y-83.95
X199.6Y-103.0
X200.65Y-51.16
X200.65Y-89.27
X200.66Y-32.12
X200.66Y-70.22
X201.22Y-103.98
T2
X47.351Y-61.753
X47.351Y-64.293
X54.971Y-61.753
X54.971Y-64.293
X71.465Y-61.753
X71.465Y-64.293
X79.085Y-61.753
X79.085Y-64.293
T4
X55.718Y-77.943
X55.718Y-80.443
X55.718Y-82.943
X59.407Y-72.073
X61.947Y-72.073
X64.487Y-72.073
X67.028Y-72.073
X70.218Y-77.943
X70.218Y-82.943
T5
X39.881Y-35.681
X39.881Y-38.221
X39.881Y-50.921
X39.881Y-53.461
X42.421Y-35.681
X42.421Y-38.221
X42.421Y-50.921
X42.421Y-53.461
X44.961Y-35.681
X44.961Y-38.221
X44.961Y-50.921
X44.961Y-53.461
X47.501Y-35.681
X47.501Y-38.221
X47.501Y-50.921
X47.501Y-53.461
X50.041Y-35.681
X50.041Y-38.221
X50.041Y-50.921
X50.041Y-53.461
X52.581Y-35.681
X52.581Y-38.221
X52.581Y-50.921
X52.581Y-53.461
X55.121Y-35.681
X55.121Y-38.221
X55.121Y-50.921
X55.121Y-53.461
X57.661Y-35.681
X57.661Y-38.221
X57.661Y-50.921
X57.661Y-53.461
X60.201Y-35.681
X60.201Y-38.221
X60.201Y-50.921
X60.201Y-53.461
X62.741Y-35.681
X62.741Y-38.221
X62.741Y-50.921
X62.741Y-53.461
X65.281Y-35.681
X65.281Y-38.221
X65.281Y-50.921
X65.281Y-53.461
X67.821Y-35.681
X67.821Y-38.221
X67.821Y-50.921
X67.821Y-53.461
X70.361Y-35.681
X70.361Y-38.221
X70.361Y-50.921
X70.361Y-53.461
T6
X47.351Y-30.823
X53.851Y-30.823
T8
X92.65Y-42.325
X92.65Y-61.375
X92.65Y-80.425
X92.65Y-99.475
X102.65Y-42.325
X102.65Y-61.375
X102.65Y-80.425
X102.65Y-99.475
X111.7Y-42.325
X111.7Y-61.375
X111.7Y-99.475
X111.7Y-80.425
X121.7Y-42.325
X121.7Y-61.375
X121.7Y-99.475
X121.7Y-80.425
X130.75Y-42.325
X130.75Y-61.375
X130.75Y-80.425
X130.75Y-99.475
X140.75Y-42.325
X140.75Y-61.375
X140.75Y-80.425
X140.75Y-99.475
X149.8Y-42.325
X149.8Y-61.375
X149.8Y-80.425
X149.8Y-99.475
X159.8Y-42.325
X159.8Y-61.375
X159.8Y-80.425
X159.8Y-99.475
X168.85Y-42.325
X168.85Y-61.375
X168.85Y-80.425
X168.85Y-99.475
X178.85Y-42.325
X178.85Y-61.375
X178.85Y-80.425
X178.85Y-99.475
X187.9Y-42.325
X187.9Y-61.375
X187.9Y-80.425
X187.9Y-99.475
X197.9Y-42.325
X197.9Y-61.375
X197.9Y-80.425
X197.9Y-99.475
T3
X74.914Y-32.102G85X74.914Y-32.502
G05
X74.914Y-35.15G85X74.914Y-35.55
G05
X74.914Y-39.15G85X74.914Y-39.55
G05
X76.914Y-40.25G85X76.914Y-40.65
G05
X79.514Y-40.25G85X79.514Y-40.65
G05
X81.514Y-32.102G85X81.514Y-32.502
G05
X81.514Y-35.15G85X81.514Y-35.55
G05
X81.514Y-39.15G85X81.514Y-39.55
G05
T7
X62.668Y-74.843G85X63.768Y-74.843
G05
X62.668Y-86.043G85X63.768Y-86.043
G05
T0
M30
