%TF.GenerationSoftware,KiCad,Pcbnew,7.0.5*%
%TF.CreationDate,2025-01-15T14:24:01+08:00*%
%TF.ProjectId,TPS,5450532e-6b69-4636-9164-5f7063625858,rev?*%
%TF.SameCoordinates,Original*%
%TF.FileFunction,Drillmap*%
%TF.FilePolarity,Positive*%
%FSLAX45Y45*%
G04 Gerber Fmt 4.5, Leading zero omitted, Abs format (unit mm)*
G04 Created by KiCad (PCBNEW 7.0.5) date 2025-01-15 14:24:01*
%MOMM*%
%LPD*%
G01*
G04 APERTURE LIST*
%ADD10C,0.100000*%
%ADD11C,0.120000*%
%ADD12C,0.200000*%
%ADD13C,0.080000*%
%ADD14C,0.190000*%
%ADD15C,0.220000*%
%ADD16C,0.305000*%
%ADD17C,0.350000*%
%ADD18C,0.505000*%
G04 APERTURE END LIST*
D10*
X6927100Y-9921300D02*
X5716800Y-9921300D01*
D11*
X20115500Y-2900000D02*
X3973100Y-2900000D01*
X3846100Y-10393000D02*
G75*
G03*
X3973100Y-10520000I127000J0D01*
G01*
X3973100Y-2900000D02*
G75*
G03*
X3846100Y-3027000I0J-127000D01*
G01*
X20242500Y-10393000D02*
X20242500Y-3027000D01*
D10*
X6927100Y-9921300D02*
G75*
G03*
X6927100Y-9671300I0J125000D01*
G01*
D11*
X20115500Y-10520000D02*
X3973100Y-10520000D01*
X3846100Y-3027000D02*
X3846100Y-10393000D01*
X20115500Y-10520000D02*
G75*
G03*
X20242500Y-10393000I0J127000D01*
G01*
D10*
X5716800Y-9671300D02*
G75*
G03*
X5716800Y-9921300I0J-125000D01*
G01*
D11*
X20242500Y-3027000D02*
G75*
G03*
X20115500Y-2900000I-127000J0D01*
G01*
D10*
X6927100Y-9671300D02*
X5716800Y-9671300D01*
D12*
D13*
X7681400Y-3035000D02*
X7761400Y-3115000D01*
X7761400Y-3035000D02*
X7681400Y-3115000D01*
X7681400Y-3735000D02*
X7761400Y-3815000D01*
X7761400Y-3735000D02*
X7681400Y-3815000D01*
X7881400Y-3035000D02*
X7961400Y-3115000D01*
X7961400Y-3035000D02*
X7881400Y-3115000D01*
X7881400Y-3735000D02*
X7961400Y-3815000D01*
X7961400Y-3735000D02*
X7881400Y-3815000D01*
D10*
X9315017Y-3337550D02*
G75*
G03*
X9315017Y-3337550I-50000J0D01*
G01*
X9315017Y-5242550D02*
G75*
G03*
X9315017Y-5242550I-50000J0D01*
G01*
X9315017Y-7147550D02*
G75*
G03*
X9315017Y-7147550I-50000J0D01*
G01*
X9315017Y-9052550D02*
G75*
G03*
X9315017Y-9052550I-50000J0D01*
G01*
X10315017Y-3337550D02*
G75*
G03*
X10315017Y-3337550I-50000J0D01*
G01*
X10315017Y-5242550D02*
G75*
G03*
X10315017Y-5242550I-50000J0D01*
G01*
X10315017Y-7147550D02*
G75*
G03*
X10315017Y-7147550I-50000J0D01*
G01*
X10315017Y-9052550D02*
G75*
G03*
X10315017Y-9052550I-50000J0D01*
G01*
X11220017Y-3337550D02*
G75*
G03*
X11220017Y-3337550I-50000J0D01*
G01*
X11220017Y-5242550D02*
G75*
G03*
X11220017Y-5242550I-50000J0D01*
G01*
X11220017Y-9052550D02*
G75*
G03*
X11220017Y-9052550I-50000J0D01*
G01*
X11220017Y-7147550D02*
G75*
G03*
X11220017Y-7147550I-50000J0D01*
G01*
X12220017Y-3337550D02*
G75*
G03*
X12220017Y-3337550I-50000J0D01*
G01*
X12220017Y-5242550D02*
G75*
G03*
X12220017Y-5242550I-50000J0D01*
G01*
X12220017Y-9052550D02*
G75*
G03*
X12220017Y-9052550I-50000J0D01*
G01*
X12220017Y-7147550D02*
G75*
G03*
X12220017Y-7147550I-50000J0D01*
G01*
X13125017Y-3337550D02*
G75*
G03*
X13125017Y-3337550I-50000J0D01*
G01*
X13125017Y-5242550D02*
G75*
G03*
X13125017Y-5242550I-50000J0D01*
G01*
X13125017Y-7147550D02*
G75*
G03*
X13125017Y-7147550I-50000J0D01*
G01*
X13125017Y-9052550D02*
G75*
G03*
X13125017Y-9052550I-50000J0D01*
G01*
X14125017Y-3337550D02*
G75*
G03*
X14125017Y-3337550I-50000J0D01*
G01*
X14125017Y-5242550D02*
G75*
G03*
X14125017Y-5242550I-50000J0D01*
G01*
X14125017Y-7147550D02*
G75*
G03*
X14125017Y-7147550I-50000J0D01*
G01*
X14125017Y-9052550D02*
G75*
G03*
X14125017Y-9052550I-50000J0D01*
G01*
X15030017Y-3337550D02*
G75*
G03*
X15030017Y-3337550I-50000J0D01*
G01*
X15030017Y-5242550D02*
G75*
G03*
X15030017Y-5242550I-50000J0D01*
G01*
X15030017Y-7147550D02*
G75*
G03*
X15030017Y-7147550I-50000J0D01*
G01*
X15030017Y-9052550D02*
G75*
G03*
X15030017Y-9052550I-50000J0D01*
G01*
X16030017Y-3337550D02*
G75*
G03*
X16030017Y-3337550I-50000J0D01*
G01*
X16030017Y-5242550D02*
G75*
G03*
X16030017Y-5242550I-50000J0D01*
G01*
X16030017Y-7147550D02*
G75*
G03*
X16030017Y-7147550I-50000J0D01*
G01*
X16030017Y-9052550D02*
G75*
G03*
X16030017Y-9052550I-50000J0D01*
G01*
X16935017Y-3337550D02*
G75*
G03*
X16935017Y-3337550I-50000J0D01*
G01*
X16935017Y-5242550D02*
G75*
G03*
X16935017Y-5242550I-50000J0D01*
G01*
X16935017Y-7147550D02*
G75*
G03*
X16935017Y-7147550I-50000J0D01*
G01*
X16935017Y-9052550D02*
G75*
G03*
X16935017Y-9052550I-50000J0D01*
G01*
X17935017Y-3337550D02*
G75*
G03*
X17935017Y-3337550I-50000J0D01*
G01*
X17935017Y-5242550D02*
G75*
G03*
X17935017Y-5242550I-50000J0D01*
G01*
X17935017Y-7147550D02*
G75*
G03*
X17935017Y-7147550I-50000J0D01*
G01*
X17935017Y-9052550D02*
G75*
G03*
X17935017Y-9052550I-50000J0D01*
G01*
X18840017Y-3337550D02*
G75*
G03*
X18840017Y-3337550I-50000J0D01*
G01*
X18840017Y-5242550D02*
G75*
G03*
X18840017Y-5242550I-50000J0D01*
G01*
X18840017Y-7147550D02*
G75*
G03*
X18840017Y-7147550I-50000J0D01*
G01*
X18840017Y-9052550D02*
G75*
G03*
X18840017Y-9052550I-50000J0D01*
G01*
X19840017Y-3337550D02*
G75*
G03*
X19840017Y-3337550I-50000J0D01*
G01*
X19840017Y-5242550D02*
G75*
G03*
X19840017Y-5242550I-50000J0D01*
G01*
X19840017Y-7147550D02*
G75*
G03*
X19840017Y-7147550I-50000J0D01*
G01*
X19840017Y-9052550D02*
G75*
G03*
X19840017Y-9052550I-50000J0D01*
G01*
D14*
X9215017Y-3757550D02*
X9215017Y-3947550D01*
X9120017Y-3852550D02*
X9310017Y-3852550D01*
X9215017Y-5662550D02*
X9215017Y-5852550D01*
X9120017Y-5757550D02*
X9310017Y-5757550D01*
X9215017Y-7567550D02*
X9215017Y-7757550D01*
X9120017Y-7662550D02*
X9310017Y-7662550D01*
X9215017Y-9472550D02*
X9215017Y-9662550D01*
X9120017Y-9567550D02*
X9310017Y-9567550D01*
X10315017Y-3757550D02*
X10315017Y-3947550D01*
X10220017Y-3852550D02*
X10410017Y-3852550D01*
X10315017Y-5662550D02*
X10315017Y-5852550D01*
X10220017Y-5757550D02*
X10410017Y-5757550D01*
X10315017Y-7567550D02*
X10315017Y-7757550D01*
X10220017Y-7662550D02*
X10410017Y-7662550D01*
X10315017Y-9472550D02*
X10315017Y-9662550D01*
X10220017Y-9567550D02*
X10410017Y-9567550D01*
X11120017Y-3757550D02*
X11120017Y-3947550D01*
X11025017Y-3852550D02*
X11215017Y-3852550D01*
X11120017Y-5662550D02*
X11120017Y-5852550D01*
X11025017Y-5757550D02*
X11215017Y-5757550D01*
X11120017Y-9472550D02*
X11120017Y-9662550D01*
X11025017Y-9567550D02*
X11215017Y-9567550D01*
X11120017Y-7567550D02*
X11120017Y-7757550D01*
X11025017Y-7662550D02*
X11215017Y-7662550D01*
X12220017Y-3757550D02*
X12220017Y-3947550D01*
X12125017Y-3852550D02*
X12315017Y-3852550D01*
X12220017Y-5662550D02*
X12220017Y-5852550D01*
X12125017Y-5757550D02*
X12315017Y-5757550D01*
X12220017Y-9472550D02*
X12220017Y-9662550D01*
X12125017Y-9567550D02*
X12315017Y-9567550D01*
X12220017Y-7567550D02*
X12220017Y-7757550D01*
X12125017Y-7662550D02*
X12315017Y-7662550D01*
X13025017Y-3757550D02*
X13025017Y-3947550D01*
X12930017Y-3852550D02*
X13120017Y-3852550D01*
X13025017Y-5662550D02*
X13025017Y-5852550D01*
X12930017Y-5757550D02*
X13120017Y-5757550D01*
X13025017Y-7567550D02*
X13025017Y-7757550D01*
X12930017Y-7662550D02*
X13120017Y-7662550D01*
X13025017Y-9472550D02*
X13025017Y-9662550D01*
X12930017Y-9567550D02*
X13120017Y-9567550D01*
X14125017Y-3757550D02*
X14125017Y-3947550D01*
X14030017Y-3852550D02*
X14220017Y-3852550D01*
X14125017Y-5662550D02*
X14125017Y-5852550D01*
X14030017Y-5757550D02*
X14220017Y-5757550D01*
X14125017Y-7567550D02*
X14125017Y-7757550D01*
X14030017Y-7662550D02*
X14220017Y-7662550D01*
X14125017Y-9472550D02*
X14125017Y-9662550D01*
X14030017Y-9567550D02*
X14220017Y-9567550D01*
X14930017Y-3757550D02*
X14930017Y-3947550D01*
X14835017Y-3852550D02*
X15025017Y-3852550D01*
X14930017Y-5662550D02*
X14930017Y-5852550D01*
X14835017Y-5757550D02*
X15025017Y-5757550D01*
X14930017Y-7567550D02*
X14930017Y-7757550D01*
X14835017Y-7662550D02*
X15025017Y-7662550D01*
X14930017Y-9472550D02*
X14930017Y-9662550D01*
X14835017Y-9567550D02*
X15025017Y-9567550D01*
X16030017Y-3757550D02*
X16030017Y-3947550D01*
X15935017Y-3852550D02*
X16125017Y-3852550D01*
X16030017Y-5662550D02*
X16030017Y-5852550D01*
X15935017Y-5757550D02*
X16125017Y-5757550D01*
X16030017Y-7567550D02*
X16030017Y-7757550D01*
X15935017Y-7662550D02*
X16125017Y-7662550D01*
X16030017Y-9472550D02*
X16030017Y-9662550D01*
X15935017Y-9567550D02*
X16125017Y-9567550D01*
X16835017Y-3757550D02*
X16835017Y-3947550D01*
X16740017Y-3852550D02*
X16930017Y-3852550D01*
X16835017Y-5662550D02*
X16835017Y-5852550D01*
X16740017Y-5757550D02*
X16930017Y-5757550D01*
X16835017Y-7567550D02*
X16835017Y-7757550D01*
X16740017Y-7662550D02*
X16930017Y-7662550D01*
X16835017Y-9472550D02*
X16835017Y-9662550D01*
X16740017Y-9567550D02*
X16930017Y-9567550D01*
X17935017Y-3757550D02*
X17935017Y-3947550D01*
X17840017Y-3852550D02*
X18030017Y-3852550D01*
X17935017Y-5662550D02*
X17935017Y-5852550D01*
X17840017Y-5757550D02*
X18030017Y-5757550D01*
X17935017Y-7567550D02*
X17935017Y-7757550D01*
X17840017Y-7662550D02*
X18030017Y-7662550D01*
X17935017Y-9472550D02*
X17935017Y-9662550D01*
X17840017Y-9567550D02*
X18030017Y-9567550D01*
X18740017Y-3757550D02*
X18740017Y-3947550D01*
X18645017Y-3852550D02*
X18835017Y-3852550D01*
X18740017Y-5662550D02*
X18740017Y-5852550D01*
X18645017Y-5757550D02*
X18835017Y-5757550D01*
X18740017Y-7567550D02*
X18740017Y-7757550D01*
X18645017Y-7662550D02*
X18835017Y-7662550D01*
X18740017Y-9472550D02*
X18740017Y-9662550D01*
X18645017Y-9567550D02*
X18835017Y-9567550D01*
X19840017Y-3757550D02*
X19840017Y-3947550D01*
X19745017Y-3852550D02*
X19935017Y-3852550D01*
X19840017Y-5662550D02*
X19840017Y-5852550D01*
X19745017Y-5757550D02*
X19935017Y-5757550D01*
X19840017Y-7567550D02*
X19840017Y-7757550D01*
X19745017Y-7662550D02*
X19935017Y-7662550D01*
X19840017Y-9472550D02*
X19840017Y-9662550D01*
X19745017Y-9567550D02*
X19935017Y-9567550D01*
D15*
X4143882Y-3197782D02*
X4143882Y-3042217D01*
X3988317Y-3042217D01*
X3988317Y-3197782D01*
X4143882Y-3197782D01*
X4243883Y-5966382D02*
X4243883Y-5810817D01*
X4088317Y-5810817D01*
X4088317Y-5966382D01*
X4243883Y-5966382D01*
D12*
X4342877Y-5909813D02*
X4144887Y-5711823D01*
X4144887Y-5711823D02*
G75*
G03*
X3989323Y-5867387I-77782J-77782D01*
G01*
X3989323Y-5867387D02*
X4187313Y-6065377D01*
X4187313Y-6065377D02*
G75*
G03*
X4342877Y-5909813I77782J77782D01*
G01*
D15*
X4243883Y-10277783D02*
X4243883Y-10122218D01*
X4088317Y-10122218D01*
X4088317Y-10277783D01*
X4243883Y-10277783D01*
D12*
X4187313Y-10023223D02*
X3989323Y-10221213D01*
X3989323Y-10221213D02*
G75*
G03*
X4144887Y-10376777I77782J-77782D01*
G01*
X4144887Y-10376777D02*
X4342877Y-10178787D01*
X4342877Y-10178787D02*
G75*
G03*
X4187313Y-10023223I-77782J77782D01*
G01*
D15*
X8555283Y-5966382D02*
X8555283Y-5810817D01*
X8399718Y-5810817D01*
X8399718Y-5966382D01*
X8555283Y-5966382D01*
D12*
X8456287Y-6065377D02*
X8654277Y-5867387D01*
X8654277Y-5867387D02*
G75*
G03*
X8498713Y-5711823I-77782J77782D01*
G01*
X8498713Y-5711823D02*
X8300723Y-5909813D01*
X8300723Y-5909813D02*
G75*
G03*
X8456287Y-6065377I77782J-77782D01*
G01*
D15*
X8555283Y-10277783D02*
X8555283Y-10122218D01*
X8399718Y-10122218D01*
X8399718Y-10277783D01*
X8555283Y-10277783D01*
D12*
X8654277Y-10221213D02*
X8456287Y-10023223D01*
X8456287Y-10023223D02*
G75*
G03*
X8300723Y-10178787I-77782J-77782D01*
G01*
X8300723Y-10178787D02*
X8498713Y-10376777D01*
X8498713Y-10376777D02*
G75*
G03*
X8654277Y-10221213I77782J77782D01*
G01*
D15*
X8655283Y-3197782D02*
X8655283Y-3042217D01*
X8499718Y-3042217D01*
X8499718Y-3197782D01*
X8655283Y-3197782D01*
D16*
X9765017Y-4595050D02*
X9917517Y-4442550D01*
X9765017Y-4290050D01*
X9612517Y-4442550D01*
X9765017Y-4595050D01*
X9765017Y-6500050D02*
X9917517Y-6347550D01*
X9765017Y-6195050D01*
X9612517Y-6347550D01*
X9765017Y-6500050D01*
X9765017Y-8405050D02*
X9917517Y-8252550D01*
X9765017Y-8100050D01*
X9612517Y-8252550D01*
X9765017Y-8405050D01*
X9765017Y-10310050D02*
X9917517Y-10157550D01*
X9765017Y-10005050D01*
X9612517Y-10157550D01*
X9765017Y-10310050D01*
X11670017Y-4595050D02*
X11822517Y-4442550D01*
X11670017Y-4290050D01*
X11517517Y-4442550D01*
X11670017Y-4595050D01*
X11670017Y-6500050D02*
X11822517Y-6347550D01*
X11670017Y-6195050D01*
X11517517Y-6347550D01*
X11670017Y-6500050D01*
X11670017Y-10310050D02*
X11822517Y-10157550D01*
X11670017Y-10005050D01*
X11517517Y-10157550D01*
X11670017Y-10310050D01*
X11670017Y-8405050D02*
X11822517Y-8252550D01*
X11670017Y-8100050D01*
X11517517Y-8252550D01*
X11670017Y-8405050D01*
X13575017Y-4595050D02*
X13727517Y-4442550D01*
X13575017Y-4290050D01*
X13422517Y-4442550D01*
X13575017Y-4595050D01*
X13575017Y-6500050D02*
X13727517Y-6347550D01*
X13575017Y-6195050D01*
X13422517Y-6347550D01*
X13575017Y-6500050D01*
X13575017Y-8405050D02*
X13727517Y-8252550D01*
X13575017Y-8100050D01*
X13422517Y-8252550D01*
X13575017Y-8405050D01*
X13575017Y-10310050D02*
X13727517Y-10157550D01*
X13575017Y-10005050D01*
X13422517Y-10157550D01*
X13575017Y-10310050D01*
X15480017Y-4595050D02*
X15632517Y-4442550D01*
X15480017Y-4290050D01*
X15327517Y-4442550D01*
X15480017Y-4595050D01*
X15480017Y-6500050D02*
X15632517Y-6347550D01*
X15480017Y-6195050D01*
X15327517Y-6347550D01*
X15480017Y-6500050D01*
X15480017Y-8405050D02*
X15632517Y-8252550D01*
X15480017Y-8100050D01*
X15327517Y-8252550D01*
X15480017Y-8405050D01*
X15480017Y-10310050D02*
X15632517Y-10157550D01*
X15480017Y-10005050D01*
X15327517Y-10157550D01*
X15480017Y-10310050D01*
X17385017Y-4595050D02*
X17537517Y-4442550D01*
X17385017Y-4290050D01*
X17232517Y-4442550D01*
X17385017Y-4595050D01*
X17385017Y-6500050D02*
X17537517Y-6347550D01*
X17385017Y-6195050D01*
X17232517Y-6347550D01*
X17385017Y-6500050D01*
X17385017Y-8405050D02*
X17537517Y-8252550D01*
X17385017Y-8100050D01*
X17232517Y-8252550D01*
X17385017Y-8405050D01*
X17385017Y-10310050D02*
X17537517Y-10157550D01*
X17385017Y-10005050D01*
X17232517Y-10157550D01*
X17385017Y-10310050D01*
X19290017Y-4595050D02*
X19442517Y-4442550D01*
X19290017Y-4290050D01*
X19137517Y-4442550D01*
X19290017Y-4595050D01*
X19290017Y-6500050D02*
X19442517Y-6347550D01*
X19290017Y-6195050D01*
X19137517Y-6347550D01*
X19290017Y-6500050D01*
X19290017Y-8405050D02*
X19442517Y-8252550D01*
X19290017Y-8100050D01*
X19137517Y-8252550D01*
X19290017Y-8405050D01*
X19290017Y-10310050D02*
X19442517Y-10157550D01*
X19290017Y-10005050D01*
X19137517Y-10157550D01*
X19290017Y-10310050D01*
D17*
X10542500Y-4630000D02*
X10892500Y-4980000D01*
X10892500Y-4630000D02*
X10542500Y-4980000D01*
X10892500Y-4805000D02*
G75*
G03*
X10892500Y-4805000I-175000J0D01*
G01*
X10542500Y-8440000D02*
X10892500Y-8790000D01*
X10892500Y-8440000D02*
X10542500Y-8790000D01*
X10892500Y-8615000D02*
G75*
G03*
X10892500Y-8615000I-175000J0D01*
G01*
X18162500Y-4630000D02*
X18512500Y-4980000D01*
X18512500Y-4630000D02*
X18162500Y-4980000D01*
X18512500Y-4805000D02*
G75*
G03*
X18512500Y-4805000I-175000J0D01*
G01*
X18162500Y-8440000D02*
X18512500Y-8790000D01*
X18512500Y-8440000D02*
X18162500Y-8790000D01*
X18512500Y-8615000D02*
G75*
G03*
X18512500Y-8615000I-175000J0D01*
G01*
D18*
X9512517Y-3600050D02*
X10017517Y-4105050D01*
X10017517Y-3600050D02*
X9512517Y-4105050D01*
X9765017Y-3600050D02*
X9765017Y-4105050D01*
X9512517Y-3852550D02*
X10017517Y-3852550D01*
X9512517Y-5505050D02*
X10017517Y-6010050D01*
X10017517Y-5505050D02*
X9512517Y-6010050D01*
X9765017Y-5505050D02*
X9765017Y-6010050D01*
X9512517Y-5757550D02*
X10017517Y-5757550D01*
X9512517Y-7410050D02*
X10017517Y-7915050D01*
X10017517Y-7410050D02*
X9512517Y-7915050D01*
X9765017Y-7410050D02*
X9765017Y-7915050D01*
X9512517Y-7662550D02*
X10017517Y-7662550D01*
X9512517Y-9315050D02*
X10017517Y-9820050D01*
X10017517Y-9315050D02*
X9512517Y-9820050D01*
X9765017Y-9315050D02*
X9765017Y-9820050D01*
X9512517Y-9567550D02*
X10017517Y-9567550D01*
X11417517Y-3600050D02*
X11922517Y-4105050D01*
X11922517Y-3600050D02*
X11417517Y-4105050D01*
X11670017Y-3600050D02*
X11670017Y-4105050D01*
X11417517Y-3852550D02*
X11922517Y-3852550D01*
X11417517Y-5505050D02*
X11922517Y-6010050D01*
X11922517Y-5505050D02*
X11417517Y-6010050D01*
X11670017Y-5505050D02*
X11670017Y-6010050D01*
X11417517Y-5757550D02*
X11922517Y-5757550D01*
X11417517Y-9315050D02*
X11922517Y-9820050D01*
X11922517Y-9315050D02*
X11417517Y-9820050D01*
X11670017Y-9315050D02*
X11670017Y-9820050D01*
X11417517Y-9567550D02*
X11922517Y-9567550D01*
X11417517Y-7410050D02*
X11922517Y-7915050D01*
X11922517Y-7410050D02*
X11417517Y-7915050D01*
X11670017Y-7410050D02*
X11670017Y-7915050D01*
X11417517Y-7662550D02*
X11922517Y-7662550D01*
X13322517Y-3600050D02*
X13827517Y-4105050D01*
X13827517Y-3600050D02*
X13322517Y-4105050D01*
X13575017Y-3600050D02*
X13575017Y-4105050D01*
X13322517Y-3852550D02*
X13827517Y-3852550D01*
X13322517Y-5505050D02*
X13827517Y-6010050D01*
X13827517Y-5505050D02*
X13322517Y-6010050D01*
X13575017Y-5505050D02*
X13575017Y-6010050D01*
X13322517Y-5757550D02*
X13827517Y-5757550D01*
X13322517Y-7410050D02*
X13827517Y-7915050D01*
X13827517Y-7410050D02*
X13322517Y-7915050D01*
X13575017Y-7410050D02*
X13575017Y-7915050D01*
X13322517Y-7662550D02*
X13827517Y-7662550D01*
X13322517Y-9315050D02*
X13827517Y-9820050D01*
X13827517Y-9315050D02*
X13322517Y-9820050D01*
X13575017Y-9315050D02*
X13575017Y-9820050D01*
X13322517Y-9567550D02*
X13827517Y-9567550D01*
X15227517Y-3600050D02*
X15732517Y-4105050D01*
X15732517Y-3600050D02*
X15227517Y-4105050D01*
X15480017Y-3600050D02*
X15480017Y-4105050D01*
X15227517Y-3852550D02*
X15732517Y-3852550D01*
X15227517Y-5505050D02*
X15732517Y-6010050D01*
X15732517Y-5505050D02*
X15227517Y-6010050D01*
X15480017Y-5505050D02*
X15480017Y-6010050D01*
X15227517Y-5757550D02*
X15732517Y-5757550D01*
X15227517Y-7410050D02*
X15732517Y-7915050D01*
X15732517Y-7410050D02*
X15227517Y-7915050D01*
X15480017Y-7410050D02*
X15480017Y-7915050D01*
X15227517Y-7662550D02*
X15732517Y-7662550D01*
X15227517Y-9315050D02*
X15732517Y-9820050D01*
X15732517Y-9315050D02*
X15227517Y-9820050D01*
X15480017Y-9315050D02*
X15480017Y-9820050D01*
X15227517Y-9567550D02*
X15732517Y-9567550D01*
X17132517Y-3600050D02*
X17637517Y-4105050D01*
X17637517Y-3600050D02*
X17132517Y-4105050D01*
X17385017Y-3600050D02*
X17385017Y-4105050D01*
X17132517Y-3852550D02*
X17637517Y-3852550D01*
X17132517Y-5505050D02*
X17637517Y-6010050D01*
X17637517Y-5505050D02*
X17132517Y-6010050D01*
X17385017Y-5505050D02*
X17385017Y-6010050D01*
X17132517Y-5757550D02*
X17637517Y-5757550D01*
X17132517Y-7410050D02*
X17637517Y-7915050D01*
X17637517Y-7410050D02*
X17132517Y-7915050D01*
X17385017Y-7410050D02*
X17385017Y-7915050D01*
X17132517Y-7662550D02*
X17637517Y-7662550D01*
X17132517Y-9315050D02*
X17637517Y-9820050D01*
X17637517Y-9315050D02*
X17132517Y-9820050D01*
X17385017Y-9315050D02*
X17385017Y-9820050D01*
X17132517Y-9567550D02*
X17637517Y-9567550D01*
X19037517Y-3600050D02*
X19542517Y-4105050D01*
X19542517Y-3600050D02*
X19037517Y-4105050D01*
X19290017Y-3600050D02*
X19290017Y-4105050D01*
X19037517Y-3852550D02*
X19542517Y-3852550D01*
X19037517Y-5505050D02*
X19542517Y-6010050D01*
X19542517Y-5505050D02*
X19037517Y-6010050D01*
X19290017Y-5505050D02*
X19290017Y-6010050D01*
X19037517Y-5757550D02*
X19542517Y-5757550D01*
X19037517Y-7410050D02*
X19542517Y-7915050D01*
X19542517Y-7410050D02*
X19037517Y-7915050D01*
X19290017Y-7410050D02*
X19290017Y-7915050D01*
X19037517Y-7662550D02*
X19542517Y-7662550D01*
X19037517Y-9315050D02*
X19542517Y-9820050D01*
X19542517Y-9315050D02*
X19037517Y-9820050D01*
X19290017Y-9315050D02*
X19290017Y-9820050D01*
X19037517Y-9567550D02*
X19542517Y-9567550D01*
D12*
X4100877Y-10837484D02*
X4100877Y-10637484D01*
X4100877Y-10637484D02*
X4148496Y-10637484D01*
X4148496Y-10637484D02*
X4177067Y-10647008D01*
X4177067Y-10647008D02*
X4196115Y-10666055D01*
X4196115Y-10666055D02*
X4205639Y-10685103D01*
X4205639Y-10685103D02*
X4215163Y-10723198D01*
X4215163Y-10723198D02*
X4215163Y-10751770D01*
X4215163Y-10751770D02*
X4205639Y-10789865D01*
X4205639Y-10789865D02*
X4196115Y-10808912D01*
X4196115Y-10808912D02*
X4177067Y-10827960D01*
X4177067Y-10827960D02*
X4148496Y-10837484D01*
X4148496Y-10837484D02*
X4100877Y-10837484D01*
X4300877Y-10837484D02*
X4300877Y-10704150D01*
X4300877Y-10742246D02*
X4310401Y-10723198D01*
X4310401Y-10723198D02*
X4319924Y-10713674D01*
X4319924Y-10713674D02*
X4338972Y-10704150D01*
X4338972Y-10704150D02*
X4358020Y-10704150D01*
X4424686Y-10837484D02*
X4424686Y-10704150D01*
X4424686Y-10637484D02*
X4415163Y-10647008D01*
X4415163Y-10647008D02*
X4424686Y-10656531D01*
X4424686Y-10656531D02*
X4434210Y-10647008D01*
X4434210Y-10647008D02*
X4424686Y-10637484D01*
X4424686Y-10637484D02*
X4424686Y-10656531D01*
X4548496Y-10837484D02*
X4529448Y-10827960D01*
X4529448Y-10827960D02*
X4519924Y-10808912D01*
X4519924Y-10808912D02*
X4519924Y-10637484D01*
X4653258Y-10837484D02*
X4634210Y-10827960D01*
X4634210Y-10827960D02*
X4624686Y-10808912D01*
X4624686Y-10808912D02*
X4624686Y-10637484D01*
X4881829Y-10837484D02*
X4881829Y-10637484D01*
X4881829Y-10637484D02*
X4948496Y-10780341D01*
X4948496Y-10780341D02*
X5015163Y-10637484D01*
X5015163Y-10637484D02*
X5015163Y-10837484D01*
X5196115Y-10837484D02*
X5196115Y-10732722D01*
X5196115Y-10732722D02*
X5186591Y-10713674D01*
X5186591Y-10713674D02*
X5167544Y-10704150D01*
X5167544Y-10704150D02*
X5129448Y-10704150D01*
X5129448Y-10704150D02*
X5110401Y-10713674D01*
X5196115Y-10827960D02*
X5177067Y-10837484D01*
X5177067Y-10837484D02*
X5129448Y-10837484D01*
X5129448Y-10837484D02*
X5110401Y-10827960D01*
X5110401Y-10827960D02*
X5100877Y-10808912D01*
X5100877Y-10808912D02*
X5100877Y-10789865D01*
X5100877Y-10789865D02*
X5110401Y-10770817D01*
X5110401Y-10770817D02*
X5129448Y-10761293D01*
X5129448Y-10761293D02*
X5177067Y-10761293D01*
X5177067Y-10761293D02*
X5196115Y-10751770D01*
X5291353Y-10704150D02*
X5291353Y-10904150D01*
X5291353Y-10713674D02*
X5310401Y-10704150D01*
X5310401Y-10704150D02*
X5348496Y-10704150D01*
X5348496Y-10704150D02*
X5367544Y-10713674D01*
X5367544Y-10713674D02*
X5377067Y-10723198D01*
X5377067Y-10723198D02*
X5386591Y-10742246D01*
X5386591Y-10742246D02*
X5386591Y-10799389D01*
X5386591Y-10799389D02*
X5377067Y-10818436D01*
X5377067Y-10818436D02*
X5367544Y-10827960D01*
X5367544Y-10827960D02*
X5348496Y-10837484D01*
X5348496Y-10837484D02*
X5310401Y-10837484D01*
X5310401Y-10837484D02*
X5291353Y-10827960D01*
X5472305Y-10818436D02*
X5481829Y-10827960D01*
X5481829Y-10827960D02*
X5472305Y-10837484D01*
X5472305Y-10837484D02*
X5462782Y-10827960D01*
X5462782Y-10827960D02*
X5472305Y-10818436D01*
X5472305Y-10818436D02*
X5472305Y-10837484D01*
X5472305Y-10713674D02*
X5481829Y-10723198D01*
X5481829Y-10723198D02*
X5472305Y-10732722D01*
X5472305Y-10732722D02*
X5462782Y-10723198D01*
X5462782Y-10723198D02*
X5472305Y-10713674D01*
X5472305Y-10713674D02*
X5472305Y-10732722D01*
D13*
X3760100Y-11126000D02*
X3840100Y-11206000D01*
X3840100Y-11126000D02*
X3760100Y-11206000D01*
D12*
X4138972Y-11057484D02*
X4158020Y-11057484D01*
X4158020Y-11057484D02*
X4177067Y-11067008D01*
X4177067Y-11067008D02*
X4186591Y-11076531D01*
X4186591Y-11076531D02*
X4196115Y-11095579D01*
X4196115Y-11095579D02*
X4205639Y-11133674D01*
X4205639Y-11133674D02*
X4205639Y-11181293D01*
X4205639Y-11181293D02*
X4196115Y-11219388D01*
X4196115Y-11219388D02*
X4186591Y-11238436D01*
X4186591Y-11238436D02*
X4177067Y-11247960D01*
X4177067Y-11247960D02*
X4158020Y-11257484D01*
X4158020Y-11257484D02*
X4138972Y-11257484D01*
X4138972Y-11257484D02*
X4119924Y-11247960D01*
X4119924Y-11247960D02*
X4110401Y-11238436D01*
X4110401Y-11238436D02*
X4100877Y-11219388D01*
X4100877Y-11219388D02*
X4091353Y-11181293D01*
X4091353Y-11181293D02*
X4091353Y-11133674D01*
X4091353Y-11133674D02*
X4100877Y-11095579D01*
X4100877Y-11095579D02*
X4110401Y-11076531D01*
X4110401Y-11076531D02*
X4119924Y-11067008D01*
X4119924Y-11067008D02*
X4138972Y-11057484D01*
X4291353Y-11238436D02*
X4300877Y-11247960D01*
X4300877Y-11247960D02*
X4291353Y-11257484D01*
X4291353Y-11257484D02*
X4281829Y-11247960D01*
X4281829Y-11247960D02*
X4291353Y-11238436D01*
X4291353Y-11238436D02*
X4291353Y-11257484D01*
X4415163Y-11143198D02*
X4396115Y-11133674D01*
X4396115Y-11133674D02*
X4386591Y-11124150D01*
X4386591Y-11124150D02*
X4377067Y-11105103D01*
X4377067Y-11105103D02*
X4377067Y-11095579D01*
X4377067Y-11095579D02*
X4386591Y-11076531D01*
X4386591Y-11076531D02*
X4396115Y-11067008D01*
X4396115Y-11067008D02*
X4415163Y-11057484D01*
X4415163Y-11057484D02*
X4453258Y-11057484D01*
X4453258Y-11057484D02*
X4472305Y-11067008D01*
X4472305Y-11067008D02*
X4481829Y-11076531D01*
X4481829Y-11076531D02*
X4491353Y-11095579D01*
X4491353Y-11095579D02*
X4491353Y-11105103D01*
X4491353Y-11105103D02*
X4481829Y-11124150D01*
X4481829Y-11124150D02*
X4472305Y-11133674D01*
X4472305Y-11133674D02*
X4453258Y-11143198D01*
X4453258Y-11143198D02*
X4415163Y-11143198D01*
X4415163Y-11143198D02*
X4396115Y-11152722D01*
X4396115Y-11152722D02*
X4386591Y-11162246D01*
X4386591Y-11162246D02*
X4377067Y-11181293D01*
X4377067Y-11181293D02*
X4377067Y-11219388D01*
X4377067Y-11219388D02*
X4386591Y-11238436D01*
X4386591Y-11238436D02*
X4396115Y-11247960D01*
X4396115Y-11247960D02*
X4415163Y-11257484D01*
X4415163Y-11257484D02*
X4453258Y-11257484D01*
X4453258Y-11257484D02*
X4472305Y-11247960D01*
X4472305Y-11247960D02*
X4481829Y-11238436D01*
X4481829Y-11238436D02*
X4491353Y-11219388D01*
X4491353Y-11219388D02*
X4491353Y-11181293D01*
X4491353Y-11181293D02*
X4481829Y-11162246D01*
X4481829Y-11162246D02*
X4472305Y-11152722D01*
X4472305Y-11152722D02*
X4453258Y-11143198D01*
X4615163Y-11057484D02*
X4634210Y-11057484D01*
X4634210Y-11057484D02*
X4653258Y-11067008D01*
X4653258Y-11067008D02*
X4662782Y-11076531D01*
X4662782Y-11076531D02*
X4672305Y-11095579D01*
X4672305Y-11095579D02*
X4681829Y-11133674D01*
X4681829Y-11133674D02*
X4681829Y-11181293D01*
X4681829Y-11181293D02*
X4672305Y-11219388D01*
X4672305Y-11219388D02*
X4662782Y-11238436D01*
X4662782Y-11238436D02*
X4653258Y-11247960D01*
X4653258Y-11247960D02*
X4634210Y-11257484D01*
X4634210Y-11257484D02*
X4615163Y-11257484D01*
X4615163Y-11257484D02*
X4596115Y-11247960D01*
X4596115Y-11247960D02*
X4586591Y-11238436D01*
X4586591Y-11238436D02*
X4577067Y-11219388D01*
X4577067Y-11219388D02*
X4567544Y-11181293D01*
X4567544Y-11181293D02*
X4567544Y-11133674D01*
X4567544Y-11133674D02*
X4577067Y-11095579D01*
X4577067Y-11095579D02*
X4586591Y-11076531D01*
X4586591Y-11076531D02*
X4596115Y-11067008D01*
X4596115Y-11067008D02*
X4615163Y-11057484D01*
X4805639Y-11057484D02*
X4824686Y-11057484D01*
X4824686Y-11057484D02*
X4843734Y-11067008D01*
X4843734Y-11067008D02*
X4853258Y-11076531D01*
X4853258Y-11076531D02*
X4862782Y-11095579D01*
X4862782Y-11095579D02*
X4872305Y-11133674D01*
X4872305Y-11133674D02*
X4872305Y-11181293D01*
X4872305Y-11181293D02*
X4862782Y-11219388D01*
X4862782Y-11219388D02*
X4853258Y-11238436D01*
X4853258Y-11238436D02*
X4843734Y-11247960D01*
X4843734Y-11247960D02*
X4824686Y-11257484D01*
X4824686Y-11257484D02*
X4805639Y-11257484D01*
X4805639Y-11257484D02*
X4786591Y-11247960D01*
X4786591Y-11247960D02*
X4777067Y-11238436D01*
X4777067Y-11238436D02*
X4767544Y-11219388D01*
X4767544Y-11219388D02*
X4758020Y-11181293D01*
X4758020Y-11181293D02*
X4758020Y-11133674D01*
X4758020Y-11133674D02*
X4767544Y-11095579D01*
X4767544Y-11095579D02*
X4777067Y-11076531D01*
X4777067Y-11076531D02*
X4786591Y-11067008D01*
X4786591Y-11067008D02*
X4805639Y-11057484D01*
X4958020Y-11257484D02*
X4958020Y-11124150D01*
X4958020Y-11143198D02*
X4967544Y-11133674D01*
X4967544Y-11133674D02*
X4986591Y-11124150D01*
X4986591Y-11124150D02*
X5015163Y-11124150D01*
X5015163Y-11124150D02*
X5034210Y-11133674D01*
X5034210Y-11133674D02*
X5043734Y-11152722D01*
X5043734Y-11152722D02*
X5043734Y-11257484D01*
X5043734Y-11152722D02*
X5053258Y-11133674D01*
X5053258Y-11133674D02*
X5072305Y-11124150D01*
X5072305Y-11124150D02*
X5100877Y-11124150D01*
X5100877Y-11124150D02*
X5119925Y-11133674D01*
X5119925Y-11133674D02*
X5129448Y-11152722D01*
X5129448Y-11152722D02*
X5129448Y-11257484D01*
X5224686Y-11257484D02*
X5224686Y-11124150D01*
X5224686Y-11143198D02*
X5234210Y-11133674D01*
X5234210Y-11133674D02*
X5253258Y-11124150D01*
X5253258Y-11124150D02*
X5281829Y-11124150D01*
X5281829Y-11124150D02*
X5300877Y-11133674D01*
X5300877Y-11133674D02*
X5310401Y-11152722D01*
X5310401Y-11152722D02*
X5310401Y-11257484D01*
X5310401Y-11152722D02*
X5319925Y-11133674D01*
X5319925Y-11133674D02*
X5338972Y-11124150D01*
X5338972Y-11124150D02*
X5367544Y-11124150D01*
X5367544Y-11124150D02*
X5386591Y-11133674D01*
X5386591Y-11133674D02*
X5396115Y-11152722D01*
X5396115Y-11152722D02*
X5396115Y-11257484D01*
X5786591Y-11047960D02*
X5615163Y-11305103D01*
X6043734Y-11057484D02*
X6062782Y-11057484D01*
X6062782Y-11057484D02*
X6081829Y-11067008D01*
X6081829Y-11067008D02*
X6091353Y-11076531D01*
X6091353Y-11076531D02*
X6100877Y-11095579D01*
X6100877Y-11095579D02*
X6110401Y-11133674D01*
X6110401Y-11133674D02*
X6110401Y-11181293D01*
X6110401Y-11181293D02*
X6100877Y-11219388D01*
X6100877Y-11219388D02*
X6091353Y-11238436D01*
X6091353Y-11238436D02*
X6081829Y-11247960D01*
X6081829Y-11247960D02*
X6062782Y-11257484D01*
X6062782Y-11257484D02*
X6043734Y-11257484D01*
X6043734Y-11257484D02*
X6024686Y-11247960D01*
X6024686Y-11247960D02*
X6015163Y-11238436D01*
X6015163Y-11238436D02*
X6005639Y-11219388D01*
X6005639Y-11219388D02*
X5996115Y-11181293D01*
X5996115Y-11181293D02*
X5996115Y-11133674D01*
X5996115Y-11133674D02*
X6005639Y-11095579D01*
X6005639Y-11095579D02*
X6015163Y-11076531D01*
X6015163Y-11076531D02*
X6024686Y-11067008D01*
X6024686Y-11067008D02*
X6043734Y-11057484D01*
X6196115Y-11238436D02*
X6205639Y-11247960D01*
X6205639Y-11247960D02*
X6196115Y-11257484D01*
X6196115Y-11257484D02*
X6186591Y-11247960D01*
X6186591Y-11247960D02*
X6196115Y-11238436D01*
X6196115Y-11238436D02*
X6196115Y-11257484D01*
X6329448Y-11057484D02*
X6348496Y-11057484D01*
X6348496Y-11057484D02*
X6367544Y-11067008D01*
X6367544Y-11067008D02*
X6377067Y-11076531D01*
X6377067Y-11076531D02*
X6386591Y-11095579D01*
X6386591Y-11095579D02*
X6396115Y-11133674D01*
X6396115Y-11133674D02*
X6396115Y-11181293D01*
X6396115Y-11181293D02*
X6386591Y-11219388D01*
X6386591Y-11219388D02*
X6377067Y-11238436D01*
X6377067Y-11238436D02*
X6367544Y-11247960D01*
X6367544Y-11247960D02*
X6348496Y-11257484D01*
X6348496Y-11257484D02*
X6329448Y-11257484D01*
X6329448Y-11257484D02*
X6310401Y-11247960D01*
X6310401Y-11247960D02*
X6300877Y-11238436D01*
X6300877Y-11238436D02*
X6291353Y-11219388D01*
X6291353Y-11219388D02*
X6281829Y-11181293D01*
X6281829Y-11181293D02*
X6281829Y-11133674D01*
X6281829Y-11133674D02*
X6291353Y-11095579D01*
X6291353Y-11095579D02*
X6300877Y-11076531D01*
X6300877Y-11076531D02*
X6310401Y-11067008D01*
X6310401Y-11067008D02*
X6329448Y-11057484D01*
X6462782Y-11057484D02*
X6586591Y-11057484D01*
X6586591Y-11057484D02*
X6519925Y-11133674D01*
X6519925Y-11133674D02*
X6548496Y-11133674D01*
X6548496Y-11133674D02*
X6567544Y-11143198D01*
X6567544Y-11143198D02*
X6577067Y-11152722D01*
X6577067Y-11152722D02*
X6586591Y-11171770D01*
X6586591Y-11171770D02*
X6586591Y-11219388D01*
X6586591Y-11219388D02*
X6577067Y-11238436D01*
X6577067Y-11238436D02*
X6567544Y-11247960D01*
X6567544Y-11247960D02*
X6548496Y-11257484D01*
X6548496Y-11257484D02*
X6491353Y-11257484D01*
X6491353Y-11257484D02*
X6472306Y-11247960D01*
X6472306Y-11247960D02*
X6462782Y-11238436D01*
X6777067Y-11257484D02*
X6662782Y-11257484D01*
X6719925Y-11257484D02*
X6719925Y-11057484D01*
X6719925Y-11057484D02*
X6700877Y-11086055D01*
X6700877Y-11086055D02*
X6681829Y-11105103D01*
X6681829Y-11105103D02*
X6662782Y-11114627D01*
X6958020Y-11057484D02*
X6862782Y-11057484D01*
X6862782Y-11057484D02*
X6853258Y-11152722D01*
X6853258Y-11152722D02*
X6862782Y-11143198D01*
X6862782Y-11143198D02*
X6881829Y-11133674D01*
X6881829Y-11133674D02*
X6929448Y-11133674D01*
X6929448Y-11133674D02*
X6948496Y-11143198D01*
X6948496Y-11143198D02*
X6958020Y-11152722D01*
X6958020Y-11152722D02*
X6967544Y-11171770D01*
X6967544Y-11171770D02*
X6967544Y-11219388D01*
X6967544Y-11219388D02*
X6958020Y-11238436D01*
X6958020Y-11238436D02*
X6948496Y-11247960D01*
X6948496Y-11247960D02*
X6929448Y-11257484D01*
X6929448Y-11257484D02*
X6881829Y-11257484D01*
X6881829Y-11257484D02*
X6862782Y-11247960D01*
X6862782Y-11247960D02*
X6853258Y-11238436D01*
X7043734Y-11057484D02*
X7043734Y-11095579D01*
X7119925Y-11057484D02*
X7119925Y-11095579D01*
X7415163Y-11333674D02*
X7405639Y-11324150D01*
X7405639Y-11324150D02*
X7386591Y-11295579D01*
X7386591Y-11295579D02*
X7377068Y-11276531D01*
X7377068Y-11276531D02*
X7367544Y-11247960D01*
X7367544Y-11247960D02*
X7358020Y-11200341D01*
X7358020Y-11200341D02*
X7358020Y-11162246D01*
X7358020Y-11162246D02*
X7367544Y-11114627D01*
X7367544Y-11114627D02*
X7377068Y-11086055D01*
X7377068Y-11086055D02*
X7386591Y-11067008D01*
X7386591Y-11067008D02*
X7405639Y-11038436D01*
X7405639Y-11038436D02*
X7415163Y-11028912D01*
X7577068Y-11124150D02*
X7577068Y-11257484D01*
X7529448Y-11047960D02*
X7481829Y-11190817D01*
X7481829Y-11190817D02*
X7605639Y-11190817D01*
X7834210Y-11257484D02*
X7834210Y-11057484D01*
X7919925Y-11257484D02*
X7919925Y-11152722D01*
X7919925Y-11152722D02*
X7910401Y-11133674D01*
X7910401Y-11133674D02*
X7891353Y-11124150D01*
X7891353Y-11124150D02*
X7862782Y-11124150D01*
X7862782Y-11124150D02*
X7843734Y-11133674D01*
X7843734Y-11133674D02*
X7834210Y-11143198D01*
X8043734Y-11257484D02*
X8024687Y-11247960D01*
X8024687Y-11247960D02*
X8015163Y-11238436D01*
X8015163Y-11238436D02*
X8005639Y-11219388D01*
X8005639Y-11219388D02*
X8005639Y-11162246D01*
X8005639Y-11162246D02*
X8015163Y-11143198D01*
X8015163Y-11143198D02*
X8024687Y-11133674D01*
X8024687Y-11133674D02*
X8043734Y-11124150D01*
X8043734Y-11124150D02*
X8072306Y-11124150D01*
X8072306Y-11124150D02*
X8091353Y-11133674D01*
X8091353Y-11133674D02*
X8100877Y-11143198D01*
X8100877Y-11143198D02*
X8110401Y-11162246D01*
X8110401Y-11162246D02*
X8110401Y-11219388D01*
X8110401Y-11219388D02*
X8100877Y-11238436D01*
X8100877Y-11238436D02*
X8091353Y-11247960D01*
X8091353Y-11247960D02*
X8072306Y-11257484D01*
X8072306Y-11257484D02*
X8043734Y-11257484D01*
X8224687Y-11257484D02*
X8205639Y-11247960D01*
X8205639Y-11247960D02*
X8196115Y-11228912D01*
X8196115Y-11228912D02*
X8196115Y-11057484D01*
X8377068Y-11247960D02*
X8358020Y-11257484D01*
X8358020Y-11257484D02*
X8319925Y-11257484D01*
X8319925Y-11257484D02*
X8300877Y-11247960D01*
X8300877Y-11247960D02*
X8291353Y-11228912D01*
X8291353Y-11228912D02*
X8291353Y-11152722D01*
X8291353Y-11152722D02*
X8300877Y-11133674D01*
X8300877Y-11133674D02*
X8319925Y-11124150D01*
X8319925Y-11124150D02*
X8358020Y-11124150D01*
X8358020Y-11124150D02*
X8377068Y-11133674D01*
X8377068Y-11133674D02*
X8386591Y-11152722D01*
X8386591Y-11152722D02*
X8386591Y-11171770D01*
X8386591Y-11171770D02*
X8291353Y-11190817D01*
X8462782Y-11247960D02*
X8481830Y-11257484D01*
X8481830Y-11257484D02*
X8519925Y-11257484D01*
X8519925Y-11257484D02*
X8538973Y-11247960D01*
X8538973Y-11247960D02*
X8548496Y-11228912D01*
X8548496Y-11228912D02*
X8548496Y-11219388D01*
X8548496Y-11219388D02*
X8538973Y-11200341D01*
X8538973Y-11200341D02*
X8519925Y-11190817D01*
X8519925Y-11190817D02*
X8491353Y-11190817D01*
X8491353Y-11190817D02*
X8472306Y-11181293D01*
X8472306Y-11181293D02*
X8462782Y-11162246D01*
X8462782Y-11162246D02*
X8462782Y-11152722D01*
X8462782Y-11152722D02*
X8472306Y-11133674D01*
X8472306Y-11133674D02*
X8491353Y-11124150D01*
X8491353Y-11124150D02*
X8519925Y-11124150D01*
X8519925Y-11124150D02*
X8538973Y-11133674D01*
X8615163Y-11333674D02*
X8624687Y-11324150D01*
X8624687Y-11324150D02*
X8643734Y-11295579D01*
X8643734Y-11295579D02*
X8653258Y-11276531D01*
X8653258Y-11276531D02*
X8662782Y-11247960D01*
X8662782Y-11247960D02*
X8672306Y-11200341D01*
X8672306Y-11200341D02*
X8672306Y-11162246D01*
X8672306Y-11162246D02*
X8662782Y-11114627D01*
X8662782Y-11114627D02*
X8653258Y-11086055D01*
X8653258Y-11086055D02*
X8643734Y-11067008D01*
X8643734Y-11067008D02*
X8624687Y-11038436D01*
X8624687Y-11038436D02*
X8615163Y-11028912D01*
X8977068Y-11333674D02*
X8967544Y-11324150D01*
X8967544Y-11324150D02*
X8948496Y-11295579D01*
X8948496Y-11295579D02*
X8938973Y-11276531D01*
X8938973Y-11276531D02*
X8929449Y-11247960D01*
X8929449Y-11247960D02*
X8919925Y-11200341D01*
X8919925Y-11200341D02*
X8919925Y-11162246D01*
X8919925Y-11162246D02*
X8929449Y-11114627D01*
X8929449Y-11114627D02*
X8938973Y-11086055D01*
X8938973Y-11086055D02*
X8948496Y-11067008D01*
X8948496Y-11067008D02*
X8967544Y-11038436D01*
X8967544Y-11038436D02*
X8977068Y-11028912D01*
X9053258Y-11124150D02*
X9053258Y-11257484D01*
X9053258Y-11143198D02*
X9062782Y-11133674D01*
X9062782Y-11133674D02*
X9081830Y-11124150D01*
X9081830Y-11124150D02*
X9110401Y-11124150D01*
X9110401Y-11124150D02*
X9129449Y-11133674D01*
X9129449Y-11133674D02*
X9138973Y-11152722D01*
X9138973Y-11152722D02*
X9138973Y-11257484D01*
X9262782Y-11257484D02*
X9243734Y-11247960D01*
X9243734Y-11247960D02*
X9234211Y-11238436D01*
X9234211Y-11238436D02*
X9224687Y-11219388D01*
X9224687Y-11219388D02*
X9224687Y-11162246D01*
X9224687Y-11162246D02*
X9234211Y-11143198D01*
X9234211Y-11143198D02*
X9243734Y-11133674D01*
X9243734Y-11133674D02*
X9262782Y-11124150D01*
X9262782Y-11124150D02*
X9291354Y-11124150D01*
X9291354Y-11124150D02*
X9310401Y-11133674D01*
X9310401Y-11133674D02*
X9319925Y-11143198D01*
X9319925Y-11143198D02*
X9329449Y-11162246D01*
X9329449Y-11162246D02*
X9329449Y-11219388D01*
X9329449Y-11219388D02*
X9319925Y-11238436D01*
X9319925Y-11238436D02*
X9310401Y-11247960D01*
X9310401Y-11247960D02*
X9291354Y-11257484D01*
X9291354Y-11257484D02*
X9262782Y-11257484D01*
X9386592Y-11124150D02*
X9462782Y-11124150D01*
X9415163Y-11057484D02*
X9415163Y-11228912D01*
X9415163Y-11228912D02*
X9424687Y-11247960D01*
X9424687Y-11247960D02*
X9443734Y-11257484D01*
X9443734Y-11257484D02*
X9462782Y-11257484D01*
X9681830Y-11124150D02*
X9681830Y-11324150D01*
X9681830Y-11133674D02*
X9700877Y-11124150D01*
X9700877Y-11124150D02*
X9738973Y-11124150D01*
X9738973Y-11124150D02*
X9758020Y-11133674D01*
X9758020Y-11133674D02*
X9767544Y-11143198D01*
X9767544Y-11143198D02*
X9777068Y-11162246D01*
X9777068Y-11162246D02*
X9777068Y-11219388D01*
X9777068Y-11219388D02*
X9767544Y-11238436D01*
X9767544Y-11238436D02*
X9758020Y-11247960D01*
X9758020Y-11247960D02*
X9738973Y-11257484D01*
X9738973Y-11257484D02*
X9700877Y-11257484D01*
X9700877Y-11257484D02*
X9681830Y-11247960D01*
X9891354Y-11257484D02*
X9872306Y-11247960D01*
X9872306Y-11247960D02*
X9862782Y-11228912D01*
X9862782Y-11228912D02*
X9862782Y-11057484D01*
X10053258Y-11257484D02*
X10053258Y-11152722D01*
X10053258Y-11152722D02*
X10043735Y-11133674D01*
X10043735Y-11133674D02*
X10024687Y-11124150D01*
X10024687Y-11124150D02*
X9986592Y-11124150D01*
X9986592Y-11124150D02*
X9967544Y-11133674D01*
X10053258Y-11247960D02*
X10034211Y-11257484D01*
X10034211Y-11257484D02*
X9986592Y-11257484D01*
X9986592Y-11257484D02*
X9967544Y-11247960D01*
X9967544Y-11247960D02*
X9958020Y-11228912D01*
X9958020Y-11228912D02*
X9958020Y-11209865D01*
X9958020Y-11209865D02*
X9967544Y-11190817D01*
X9967544Y-11190817D02*
X9986592Y-11181293D01*
X9986592Y-11181293D02*
X10034211Y-11181293D01*
X10034211Y-11181293D02*
X10053258Y-11171770D01*
X10119925Y-11124150D02*
X10196115Y-11124150D01*
X10148496Y-11057484D02*
X10148496Y-11228912D01*
X10148496Y-11228912D02*
X10158020Y-11247960D01*
X10158020Y-11247960D02*
X10177068Y-11257484D01*
X10177068Y-11257484D02*
X10196115Y-11257484D01*
X10338973Y-11247960D02*
X10319925Y-11257484D01*
X10319925Y-11257484D02*
X10281830Y-11257484D01*
X10281830Y-11257484D02*
X10262782Y-11247960D01*
X10262782Y-11247960D02*
X10253258Y-11228912D01*
X10253258Y-11228912D02*
X10253258Y-11152722D01*
X10253258Y-11152722D02*
X10262782Y-11133674D01*
X10262782Y-11133674D02*
X10281830Y-11124150D01*
X10281830Y-11124150D02*
X10319925Y-11124150D01*
X10319925Y-11124150D02*
X10338973Y-11133674D01*
X10338973Y-11133674D02*
X10348496Y-11152722D01*
X10348496Y-11152722D02*
X10348496Y-11171770D01*
X10348496Y-11171770D02*
X10253258Y-11190817D01*
X10519925Y-11257484D02*
X10519925Y-11057484D01*
X10519925Y-11247960D02*
X10500877Y-11257484D01*
X10500877Y-11257484D02*
X10462782Y-11257484D01*
X10462782Y-11257484D02*
X10443735Y-11247960D01*
X10443735Y-11247960D02*
X10434211Y-11238436D01*
X10434211Y-11238436D02*
X10424687Y-11219388D01*
X10424687Y-11219388D02*
X10424687Y-11162246D01*
X10424687Y-11162246D02*
X10434211Y-11143198D01*
X10434211Y-11143198D02*
X10443735Y-11133674D01*
X10443735Y-11133674D02*
X10462782Y-11124150D01*
X10462782Y-11124150D02*
X10500877Y-11124150D01*
X10500877Y-11124150D02*
X10519925Y-11133674D01*
X10596116Y-11333674D02*
X10605639Y-11324150D01*
X10605639Y-11324150D02*
X10624687Y-11295579D01*
X10624687Y-11295579D02*
X10634211Y-11276531D01*
X10634211Y-11276531D02*
X10643735Y-11247960D01*
X10643735Y-11247960D02*
X10653258Y-11200341D01*
X10653258Y-11200341D02*
X10653258Y-11162246D01*
X10653258Y-11162246D02*
X10643735Y-11114627D01*
X10643735Y-11114627D02*
X10634211Y-11086055D01*
X10634211Y-11086055D02*
X10624687Y-11067008D01*
X10624687Y-11067008D02*
X10605639Y-11038436D01*
X10605639Y-11038436D02*
X10596116Y-11028912D01*
D10*
X3840100Y-11430000D02*
G75*
G03*
X3840100Y-11430000I-50000J0D01*
G01*
D12*
X4205639Y-11521484D02*
X4091353Y-11521484D01*
X4148496Y-11521484D02*
X4148496Y-11321484D01*
X4148496Y-11321484D02*
X4129448Y-11350055D01*
X4129448Y-11350055D02*
X4110401Y-11369103D01*
X4110401Y-11369103D02*
X4091353Y-11378627D01*
X4291353Y-11502436D02*
X4300877Y-11511960D01*
X4300877Y-11511960D02*
X4291353Y-11521484D01*
X4291353Y-11521484D02*
X4281829Y-11511960D01*
X4281829Y-11511960D02*
X4291353Y-11502436D01*
X4291353Y-11502436D02*
X4291353Y-11521484D01*
X4424686Y-11321484D02*
X4443734Y-11321484D01*
X4443734Y-11321484D02*
X4462782Y-11331008D01*
X4462782Y-11331008D02*
X4472305Y-11340531D01*
X4472305Y-11340531D02*
X4481829Y-11359579D01*
X4481829Y-11359579D02*
X4491353Y-11397674D01*
X4491353Y-11397674D02*
X4491353Y-11445293D01*
X4491353Y-11445293D02*
X4481829Y-11483388D01*
X4481829Y-11483388D02*
X4472305Y-11502436D01*
X4472305Y-11502436D02*
X4462782Y-11511960D01*
X4462782Y-11511960D02*
X4443734Y-11521484D01*
X4443734Y-11521484D02*
X4424686Y-11521484D01*
X4424686Y-11521484D02*
X4405639Y-11511960D01*
X4405639Y-11511960D02*
X4396115Y-11502436D01*
X4396115Y-11502436D02*
X4386591Y-11483388D01*
X4386591Y-11483388D02*
X4377067Y-11445293D01*
X4377067Y-11445293D02*
X4377067Y-11397674D01*
X4377067Y-11397674D02*
X4386591Y-11359579D01*
X4386591Y-11359579D02*
X4396115Y-11340531D01*
X4396115Y-11340531D02*
X4405639Y-11331008D01*
X4405639Y-11331008D02*
X4424686Y-11321484D01*
X4615163Y-11321484D02*
X4634210Y-11321484D01*
X4634210Y-11321484D02*
X4653258Y-11331008D01*
X4653258Y-11331008D02*
X4662782Y-11340531D01*
X4662782Y-11340531D02*
X4672305Y-11359579D01*
X4672305Y-11359579D02*
X4681829Y-11397674D01*
X4681829Y-11397674D02*
X4681829Y-11445293D01*
X4681829Y-11445293D02*
X4672305Y-11483388D01*
X4672305Y-11483388D02*
X4662782Y-11502436D01*
X4662782Y-11502436D02*
X4653258Y-11511960D01*
X4653258Y-11511960D02*
X4634210Y-11521484D01*
X4634210Y-11521484D02*
X4615163Y-11521484D01*
X4615163Y-11521484D02*
X4596115Y-11511960D01*
X4596115Y-11511960D02*
X4586591Y-11502436D01*
X4586591Y-11502436D02*
X4577067Y-11483388D01*
X4577067Y-11483388D02*
X4567544Y-11445293D01*
X4567544Y-11445293D02*
X4567544Y-11397674D01*
X4567544Y-11397674D02*
X4577067Y-11359579D01*
X4577067Y-11359579D02*
X4586591Y-11340531D01*
X4586591Y-11340531D02*
X4596115Y-11331008D01*
X4596115Y-11331008D02*
X4615163Y-11321484D01*
X4805639Y-11321484D02*
X4824686Y-11321484D01*
X4824686Y-11321484D02*
X4843734Y-11331008D01*
X4843734Y-11331008D02*
X4853258Y-11340531D01*
X4853258Y-11340531D02*
X4862782Y-11359579D01*
X4862782Y-11359579D02*
X4872305Y-11397674D01*
X4872305Y-11397674D02*
X4872305Y-11445293D01*
X4872305Y-11445293D02*
X4862782Y-11483388D01*
X4862782Y-11483388D02*
X4853258Y-11502436D01*
X4853258Y-11502436D02*
X4843734Y-11511960D01*
X4843734Y-11511960D02*
X4824686Y-11521484D01*
X4824686Y-11521484D02*
X4805639Y-11521484D01*
X4805639Y-11521484D02*
X4786591Y-11511960D01*
X4786591Y-11511960D02*
X4777067Y-11502436D01*
X4777067Y-11502436D02*
X4767544Y-11483388D01*
X4767544Y-11483388D02*
X4758020Y-11445293D01*
X4758020Y-11445293D02*
X4758020Y-11397674D01*
X4758020Y-11397674D02*
X4767544Y-11359579D01*
X4767544Y-11359579D02*
X4777067Y-11340531D01*
X4777067Y-11340531D02*
X4786591Y-11331008D01*
X4786591Y-11331008D02*
X4805639Y-11321484D01*
X4958020Y-11521484D02*
X4958020Y-11388150D01*
X4958020Y-11407198D02*
X4967544Y-11397674D01*
X4967544Y-11397674D02*
X4986591Y-11388150D01*
X4986591Y-11388150D02*
X5015163Y-11388150D01*
X5015163Y-11388150D02*
X5034210Y-11397674D01*
X5034210Y-11397674D02*
X5043734Y-11416722D01*
X5043734Y-11416722D02*
X5043734Y-11521484D01*
X5043734Y-11416722D02*
X5053258Y-11397674D01*
X5053258Y-11397674D02*
X5072305Y-11388150D01*
X5072305Y-11388150D02*
X5100877Y-11388150D01*
X5100877Y-11388150D02*
X5119925Y-11397674D01*
X5119925Y-11397674D02*
X5129448Y-11416722D01*
X5129448Y-11416722D02*
X5129448Y-11521484D01*
X5224686Y-11521484D02*
X5224686Y-11388150D01*
X5224686Y-11407198D02*
X5234210Y-11397674D01*
X5234210Y-11397674D02*
X5253258Y-11388150D01*
X5253258Y-11388150D02*
X5281829Y-11388150D01*
X5281829Y-11388150D02*
X5300877Y-11397674D01*
X5300877Y-11397674D02*
X5310401Y-11416722D01*
X5310401Y-11416722D02*
X5310401Y-11521484D01*
X5310401Y-11416722D02*
X5319925Y-11397674D01*
X5319925Y-11397674D02*
X5338972Y-11388150D01*
X5338972Y-11388150D02*
X5367544Y-11388150D01*
X5367544Y-11388150D02*
X5386591Y-11397674D01*
X5386591Y-11397674D02*
X5396115Y-11416722D01*
X5396115Y-11416722D02*
X5396115Y-11521484D01*
X5786591Y-11311960D02*
X5615163Y-11569103D01*
X6043734Y-11321484D02*
X6062782Y-11321484D01*
X6062782Y-11321484D02*
X6081829Y-11331008D01*
X6081829Y-11331008D02*
X6091353Y-11340531D01*
X6091353Y-11340531D02*
X6100877Y-11359579D01*
X6100877Y-11359579D02*
X6110401Y-11397674D01*
X6110401Y-11397674D02*
X6110401Y-11445293D01*
X6110401Y-11445293D02*
X6100877Y-11483388D01*
X6100877Y-11483388D02*
X6091353Y-11502436D01*
X6091353Y-11502436D02*
X6081829Y-11511960D01*
X6081829Y-11511960D02*
X6062782Y-11521484D01*
X6062782Y-11521484D02*
X6043734Y-11521484D01*
X6043734Y-11521484D02*
X6024686Y-11511960D01*
X6024686Y-11511960D02*
X6015163Y-11502436D01*
X6015163Y-11502436D02*
X6005639Y-11483388D01*
X6005639Y-11483388D02*
X5996115Y-11445293D01*
X5996115Y-11445293D02*
X5996115Y-11397674D01*
X5996115Y-11397674D02*
X6005639Y-11359579D01*
X6005639Y-11359579D02*
X6015163Y-11340531D01*
X6015163Y-11340531D02*
X6024686Y-11331008D01*
X6024686Y-11331008D02*
X6043734Y-11321484D01*
X6196115Y-11502436D02*
X6205639Y-11511960D01*
X6205639Y-11511960D02*
X6196115Y-11521484D01*
X6196115Y-11521484D02*
X6186591Y-11511960D01*
X6186591Y-11511960D02*
X6196115Y-11502436D01*
X6196115Y-11502436D02*
X6196115Y-11521484D01*
X6329448Y-11321484D02*
X6348496Y-11321484D01*
X6348496Y-11321484D02*
X6367544Y-11331008D01*
X6367544Y-11331008D02*
X6377067Y-11340531D01*
X6377067Y-11340531D02*
X6386591Y-11359579D01*
X6386591Y-11359579D02*
X6396115Y-11397674D01*
X6396115Y-11397674D02*
X6396115Y-11445293D01*
X6396115Y-11445293D02*
X6386591Y-11483388D01*
X6386591Y-11483388D02*
X6377067Y-11502436D01*
X6377067Y-11502436D02*
X6367544Y-11511960D01*
X6367544Y-11511960D02*
X6348496Y-11521484D01*
X6348496Y-11521484D02*
X6329448Y-11521484D01*
X6329448Y-11521484D02*
X6310401Y-11511960D01*
X6310401Y-11511960D02*
X6300877Y-11502436D01*
X6300877Y-11502436D02*
X6291353Y-11483388D01*
X6291353Y-11483388D02*
X6281829Y-11445293D01*
X6281829Y-11445293D02*
X6281829Y-11397674D01*
X6281829Y-11397674D02*
X6291353Y-11359579D01*
X6291353Y-11359579D02*
X6300877Y-11340531D01*
X6300877Y-11340531D02*
X6310401Y-11331008D01*
X6310401Y-11331008D02*
X6329448Y-11321484D01*
X6462782Y-11321484D02*
X6586591Y-11321484D01*
X6586591Y-11321484D02*
X6519925Y-11397674D01*
X6519925Y-11397674D02*
X6548496Y-11397674D01*
X6548496Y-11397674D02*
X6567544Y-11407198D01*
X6567544Y-11407198D02*
X6577067Y-11416722D01*
X6577067Y-11416722D02*
X6586591Y-11435769D01*
X6586591Y-11435769D02*
X6586591Y-11483388D01*
X6586591Y-11483388D02*
X6577067Y-11502436D01*
X6577067Y-11502436D02*
X6567544Y-11511960D01*
X6567544Y-11511960D02*
X6548496Y-11521484D01*
X6548496Y-11521484D02*
X6491353Y-11521484D01*
X6491353Y-11521484D02*
X6472306Y-11511960D01*
X6472306Y-11511960D02*
X6462782Y-11502436D01*
X6681829Y-11521484D02*
X6719925Y-11521484D01*
X6719925Y-11521484D02*
X6738972Y-11511960D01*
X6738972Y-11511960D02*
X6748496Y-11502436D01*
X6748496Y-11502436D02*
X6767544Y-11473865D01*
X6767544Y-11473865D02*
X6777067Y-11435769D01*
X6777067Y-11435769D02*
X6777067Y-11359579D01*
X6777067Y-11359579D02*
X6767544Y-11340531D01*
X6767544Y-11340531D02*
X6758020Y-11331008D01*
X6758020Y-11331008D02*
X6738972Y-11321484D01*
X6738972Y-11321484D02*
X6700877Y-11321484D01*
X6700877Y-11321484D02*
X6681829Y-11331008D01*
X6681829Y-11331008D02*
X6672306Y-11340531D01*
X6672306Y-11340531D02*
X6662782Y-11359579D01*
X6662782Y-11359579D02*
X6662782Y-11407198D01*
X6662782Y-11407198D02*
X6672306Y-11426246D01*
X6672306Y-11426246D02*
X6681829Y-11435769D01*
X6681829Y-11435769D02*
X6700877Y-11445293D01*
X6700877Y-11445293D02*
X6738972Y-11445293D01*
X6738972Y-11445293D02*
X6758020Y-11435769D01*
X6758020Y-11435769D02*
X6767544Y-11426246D01*
X6767544Y-11426246D02*
X6777067Y-11407198D01*
X6948496Y-11388150D02*
X6948496Y-11521484D01*
X6900877Y-11311960D02*
X6853258Y-11454817D01*
X6853258Y-11454817D02*
X6977067Y-11454817D01*
X7043734Y-11321484D02*
X7043734Y-11359579D01*
X7119925Y-11321484D02*
X7119925Y-11359579D01*
X7415163Y-11597674D02*
X7405639Y-11588150D01*
X7405639Y-11588150D02*
X7386591Y-11559579D01*
X7386591Y-11559579D02*
X7377068Y-11540531D01*
X7377068Y-11540531D02*
X7367544Y-11511960D01*
X7367544Y-11511960D02*
X7358020Y-11464341D01*
X7358020Y-11464341D02*
X7358020Y-11426246D01*
X7358020Y-11426246D02*
X7367544Y-11378627D01*
X7367544Y-11378627D02*
X7377068Y-11350055D01*
X7377068Y-11350055D02*
X7386591Y-11331008D01*
X7386591Y-11331008D02*
X7405639Y-11302436D01*
X7405639Y-11302436D02*
X7415163Y-11292912D01*
X7577068Y-11388150D02*
X7577068Y-11521484D01*
X7529448Y-11311960D02*
X7481829Y-11454817D01*
X7481829Y-11454817D02*
X7605639Y-11454817D01*
X7710401Y-11407198D02*
X7691353Y-11397674D01*
X7691353Y-11397674D02*
X7681829Y-11388150D01*
X7681829Y-11388150D02*
X7672306Y-11369103D01*
X7672306Y-11369103D02*
X7672306Y-11359579D01*
X7672306Y-11359579D02*
X7681829Y-11340531D01*
X7681829Y-11340531D02*
X7691353Y-11331008D01*
X7691353Y-11331008D02*
X7710401Y-11321484D01*
X7710401Y-11321484D02*
X7748496Y-11321484D01*
X7748496Y-11321484D02*
X7767544Y-11331008D01*
X7767544Y-11331008D02*
X7777068Y-11340531D01*
X7777068Y-11340531D02*
X7786591Y-11359579D01*
X7786591Y-11359579D02*
X7786591Y-11369103D01*
X7786591Y-11369103D02*
X7777068Y-11388150D01*
X7777068Y-11388150D02*
X7767544Y-11397674D01*
X7767544Y-11397674D02*
X7748496Y-11407198D01*
X7748496Y-11407198D02*
X7710401Y-11407198D01*
X7710401Y-11407198D02*
X7691353Y-11416722D01*
X7691353Y-11416722D02*
X7681829Y-11426246D01*
X7681829Y-11426246D02*
X7672306Y-11445293D01*
X7672306Y-11445293D02*
X7672306Y-11483388D01*
X7672306Y-11483388D02*
X7681829Y-11502436D01*
X7681829Y-11502436D02*
X7691353Y-11511960D01*
X7691353Y-11511960D02*
X7710401Y-11521484D01*
X7710401Y-11521484D02*
X7748496Y-11521484D01*
X7748496Y-11521484D02*
X7767544Y-11511960D01*
X7767544Y-11511960D02*
X7777068Y-11502436D01*
X7777068Y-11502436D02*
X7786591Y-11483388D01*
X7786591Y-11483388D02*
X7786591Y-11445293D01*
X7786591Y-11445293D02*
X7777068Y-11426246D01*
X7777068Y-11426246D02*
X7767544Y-11416722D01*
X7767544Y-11416722D02*
X7748496Y-11407198D01*
X8024687Y-11521484D02*
X8024687Y-11321484D01*
X8110401Y-11521484D02*
X8110401Y-11416722D01*
X8110401Y-11416722D02*
X8100877Y-11397674D01*
X8100877Y-11397674D02*
X8081830Y-11388150D01*
X8081830Y-11388150D02*
X8053258Y-11388150D01*
X8053258Y-11388150D02*
X8034210Y-11397674D01*
X8034210Y-11397674D02*
X8024687Y-11407198D01*
X8234210Y-11521484D02*
X8215163Y-11511960D01*
X8215163Y-11511960D02*
X8205639Y-11502436D01*
X8205639Y-11502436D02*
X8196115Y-11483388D01*
X8196115Y-11483388D02*
X8196115Y-11426246D01*
X8196115Y-11426246D02*
X8205639Y-11407198D01*
X8205639Y-11407198D02*
X8215163Y-11397674D01*
X8215163Y-11397674D02*
X8234210Y-11388150D01*
X8234210Y-11388150D02*
X8262782Y-11388150D01*
X8262782Y-11388150D02*
X8281830Y-11397674D01*
X8281830Y-11397674D02*
X8291353Y-11407198D01*
X8291353Y-11407198D02*
X8300877Y-11426246D01*
X8300877Y-11426246D02*
X8300877Y-11483388D01*
X8300877Y-11483388D02*
X8291353Y-11502436D01*
X8291353Y-11502436D02*
X8281830Y-11511960D01*
X8281830Y-11511960D02*
X8262782Y-11521484D01*
X8262782Y-11521484D02*
X8234210Y-11521484D01*
X8415163Y-11521484D02*
X8396115Y-11511960D01*
X8396115Y-11511960D02*
X8386591Y-11492912D01*
X8386591Y-11492912D02*
X8386591Y-11321484D01*
X8567544Y-11511960D02*
X8548496Y-11521484D01*
X8548496Y-11521484D02*
X8510401Y-11521484D01*
X8510401Y-11521484D02*
X8491353Y-11511960D01*
X8491353Y-11511960D02*
X8481830Y-11492912D01*
X8481830Y-11492912D02*
X8481830Y-11416722D01*
X8481830Y-11416722D02*
X8491353Y-11397674D01*
X8491353Y-11397674D02*
X8510401Y-11388150D01*
X8510401Y-11388150D02*
X8548496Y-11388150D01*
X8548496Y-11388150D02*
X8567544Y-11397674D01*
X8567544Y-11397674D02*
X8577068Y-11416722D01*
X8577068Y-11416722D02*
X8577068Y-11435769D01*
X8577068Y-11435769D02*
X8481830Y-11454817D01*
X8653258Y-11511960D02*
X8672306Y-11521484D01*
X8672306Y-11521484D02*
X8710401Y-11521484D01*
X8710401Y-11521484D02*
X8729449Y-11511960D01*
X8729449Y-11511960D02*
X8738973Y-11492912D01*
X8738973Y-11492912D02*
X8738973Y-11483388D01*
X8738973Y-11483388D02*
X8729449Y-11464341D01*
X8729449Y-11464341D02*
X8710401Y-11454817D01*
X8710401Y-11454817D02*
X8681830Y-11454817D01*
X8681830Y-11454817D02*
X8662782Y-11445293D01*
X8662782Y-11445293D02*
X8653258Y-11426246D01*
X8653258Y-11426246D02*
X8653258Y-11416722D01*
X8653258Y-11416722D02*
X8662782Y-11397674D01*
X8662782Y-11397674D02*
X8681830Y-11388150D01*
X8681830Y-11388150D02*
X8710401Y-11388150D01*
X8710401Y-11388150D02*
X8729449Y-11397674D01*
X8805639Y-11597674D02*
X8815163Y-11588150D01*
X8815163Y-11588150D02*
X8834211Y-11559579D01*
X8834211Y-11559579D02*
X8843734Y-11540531D01*
X8843734Y-11540531D02*
X8853258Y-11511960D01*
X8853258Y-11511960D02*
X8862782Y-11464341D01*
X8862782Y-11464341D02*
X8862782Y-11426246D01*
X8862782Y-11426246D02*
X8853258Y-11378627D01*
X8853258Y-11378627D02*
X8843734Y-11350055D01*
X8843734Y-11350055D02*
X8834211Y-11331008D01*
X8834211Y-11331008D02*
X8815163Y-11302436D01*
X8815163Y-11302436D02*
X8805639Y-11292912D01*
X9167544Y-11597674D02*
X9158020Y-11588150D01*
X9158020Y-11588150D02*
X9138973Y-11559579D01*
X9138973Y-11559579D02*
X9129449Y-11540531D01*
X9129449Y-11540531D02*
X9119925Y-11511960D01*
X9119925Y-11511960D02*
X9110401Y-11464341D01*
X9110401Y-11464341D02*
X9110401Y-11426246D01*
X9110401Y-11426246D02*
X9119925Y-11378627D01*
X9119925Y-11378627D02*
X9129449Y-11350055D01*
X9129449Y-11350055D02*
X9138973Y-11331008D01*
X9138973Y-11331008D02*
X9158020Y-11302436D01*
X9158020Y-11302436D02*
X9167544Y-11292912D01*
X9243734Y-11388150D02*
X9243734Y-11521484D01*
X9243734Y-11407198D02*
X9253258Y-11397674D01*
X9253258Y-11397674D02*
X9272306Y-11388150D01*
X9272306Y-11388150D02*
X9300877Y-11388150D01*
X9300877Y-11388150D02*
X9319925Y-11397674D01*
X9319925Y-11397674D02*
X9329449Y-11416722D01*
X9329449Y-11416722D02*
X9329449Y-11521484D01*
X9453258Y-11521484D02*
X9434211Y-11511960D01*
X9434211Y-11511960D02*
X9424687Y-11502436D01*
X9424687Y-11502436D02*
X9415163Y-11483388D01*
X9415163Y-11483388D02*
X9415163Y-11426246D01*
X9415163Y-11426246D02*
X9424687Y-11407198D01*
X9424687Y-11407198D02*
X9434211Y-11397674D01*
X9434211Y-11397674D02*
X9453258Y-11388150D01*
X9453258Y-11388150D02*
X9481830Y-11388150D01*
X9481830Y-11388150D02*
X9500877Y-11397674D01*
X9500877Y-11397674D02*
X9510401Y-11407198D01*
X9510401Y-11407198D02*
X9519925Y-11426246D01*
X9519925Y-11426246D02*
X9519925Y-11483388D01*
X9519925Y-11483388D02*
X9510401Y-11502436D01*
X9510401Y-11502436D02*
X9500877Y-11511960D01*
X9500877Y-11511960D02*
X9481830Y-11521484D01*
X9481830Y-11521484D02*
X9453258Y-11521484D01*
X9577068Y-11388150D02*
X9653258Y-11388150D01*
X9605639Y-11321484D02*
X9605639Y-11492912D01*
X9605639Y-11492912D02*
X9615163Y-11511960D01*
X9615163Y-11511960D02*
X9634211Y-11521484D01*
X9634211Y-11521484D02*
X9653258Y-11521484D01*
X9872306Y-11388150D02*
X9872306Y-11588150D01*
X9872306Y-11397674D02*
X9891354Y-11388150D01*
X9891354Y-11388150D02*
X9929449Y-11388150D01*
X9929449Y-11388150D02*
X9948496Y-11397674D01*
X9948496Y-11397674D02*
X9958020Y-11407198D01*
X9958020Y-11407198D02*
X9967544Y-11426246D01*
X9967544Y-11426246D02*
X9967544Y-11483388D01*
X9967544Y-11483388D02*
X9958020Y-11502436D01*
X9958020Y-11502436D02*
X9948496Y-11511960D01*
X9948496Y-11511960D02*
X9929449Y-11521484D01*
X9929449Y-11521484D02*
X9891354Y-11521484D01*
X9891354Y-11521484D02*
X9872306Y-11511960D01*
X10081830Y-11521484D02*
X10062782Y-11511960D01*
X10062782Y-11511960D02*
X10053258Y-11492912D01*
X10053258Y-11492912D02*
X10053258Y-11321484D01*
X10243735Y-11521484D02*
X10243735Y-11416722D01*
X10243735Y-11416722D02*
X10234211Y-11397674D01*
X10234211Y-11397674D02*
X10215163Y-11388150D01*
X10215163Y-11388150D02*
X10177068Y-11388150D01*
X10177068Y-11388150D02*
X10158020Y-11397674D01*
X10243735Y-11511960D02*
X10224687Y-11521484D01*
X10224687Y-11521484D02*
X10177068Y-11521484D01*
X10177068Y-11521484D02*
X10158020Y-11511960D01*
X10158020Y-11511960D02*
X10148496Y-11492912D01*
X10148496Y-11492912D02*
X10148496Y-11473865D01*
X10148496Y-11473865D02*
X10158020Y-11454817D01*
X10158020Y-11454817D02*
X10177068Y-11445293D01*
X10177068Y-11445293D02*
X10224687Y-11445293D01*
X10224687Y-11445293D02*
X10243735Y-11435769D01*
X10310401Y-11388150D02*
X10386592Y-11388150D01*
X10338973Y-11321484D02*
X10338973Y-11492912D01*
X10338973Y-11492912D02*
X10348496Y-11511960D01*
X10348496Y-11511960D02*
X10367544Y-11521484D01*
X10367544Y-11521484D02*
X10386592Y-11521484D01*
X10529449Y-11511960D02*
X10510401Y-11521484D01*
X10510401Y-11521484D02*
X10472306Y-11521484D01*
X10472306Y-11521484D02*
X10453258Y-11511960D01*
X10453258Y-11511960D02*
X10443735Y-11492912D01*
X10443735Y-11492912D02*
X10443735Y-11416722D01*
X10443735Y-11416722D02*
X10453258Y-11397674D01*
X10453258Y-11397674D02*
X10472306Y-11388150D01*
X10472306Y-11388150D02*
X10510401Y-11388150D01*
X10510401Y-11388150D02*
X10529449Y-11397674D01*
X10529449Y-11397674D02*
X10538973Y-11416722D01*
X10538973Y-11416722D02*
X10538973Y-11435769D01*
X10538973Y-11435769D02*
X10443735Y-11454817D01*
X10710401Y-11521484D02*
X10710401Y-11321484D01*
X10710401Y-11511960D02*
X10691354Y-11521484D01*
X10691354Y-11521484D02*
X10653258Y-11521484D01*
X10653258Y-11521484D02*
X10634211Y-11511960D01*
X10634211Y-11511960D02*
X10624687Y-11502436D01*
X10624687Y-11502436D02*
X10615163Y-11483388D01*
X10615163Y-11483388D02*
X10615163Y-11426246D01*
X10615163Y-11426246D02*
X10624687Y-11407198D01*
X10624687Y-11407198D02*
X10634211Y-11397674D01*
X10634211Y-11397674D02*
X10653258Y-11388150D01*
X10653258Y-11388150D02*
X10691354Y-11388150D01*
X10691354Y-11388150D02*
X10710401Y-11397674D01*
X10786592Y-11597674D02*
X10796116Y-11588150D01*
X10796116Y-11588150D02*
X10815163Y-11559579D01*
X10815163Y-11559579D02*
X10824687Y-11540531D01*
X10824687Y-11540531D02*
X10834211Y-11511960D01*
X10834211Y-11511960D02*
X10843735Y-11464341D01*
X10843735Y-11464341D02*
X10843735Y-11426246D01*
X10843735Y-11426246D02*
X10834211Y-11378627D01*
X10834211Y-11378627D02*
X10824687Y-11350055D01*
X10824687Y-11350055D02*
X10815163Y-11331008D01*
X10815163Y-11331008D02*
X10796116Y-11302436D01*
X10796116Y-11302436D02*
X10786592Y-11292912D01*
D14*
X3745100Y-11599000D02*
X3745100Y-11789000D01*
X3650100Y-11694000D02*
X3840100Y-11694000D01*
D12*
X4205639Y-11785484D02*
X4091353Y-11785484D01*
X4148496Y-11785484D02*
X4148496Y-11585484D01*
X4148496Y-11585484D02*
X4129448Y-11614055D01*
X4129448Y-11614055D02*
X4110401Y-11633103D01*
X4110401Y-11633103D02*
X4091353Y-11642627D01*
X4291353Y-11766436D02*
X4300877Y-11775960D01*
X4300877Y-11775960D02*
X4291353Y-11785484D01*
X4291353Y-11785484D02*
X4281829Y-11775960D01*
X4281829Y-11775960D02*
X4291353Y-11766436D01*
X4291353Y-11766436D02*
X4291353Y-11785484D01*
X4396115Y-11785484D02*
X4434210Y-11785484D01*
X4434210Y-11785484D02*
X4453258Y-11775960D01*
X4453258Y-11775960D02*
X4462782Y-11766436D01*
X4462782Y-11766436D02*
X4481829Y-11737865D01*
X4481829Y-11737865D02*
X4491353Y-11699769D01*
X4491353Y-11699769D02*
X4491353Y-11623579D01*
X4491353Y-11623579D02*
X4481829Y-11604531D01*
X4481829Y-11604531D02*
X4472305Y-11595008D01*
X4472305Y-11595008D02*
X4453258Y-11585484D01*
X4453258Y-11585484D02*
X4415163Y-11585484D01*
X4415163Y-11585484D02*
X4396115Y-11595008D01*
X4396115Y-11595008D02*
X4386591Y-11604531D01*
X4386591Y-11604531D02*
X4377067Y-11623579D01*
X4377067Y-11623579D02*
X4377067Y-11671198D01*
X4377067Y-11671198D02*
X4386591Y-11690246D01*
X4386591Y-11690246D02*
X4396115Y-11699769D01*
X4396115Y-11699769D02*
X4415163Y-11709293D01*
X4415163Y-11709293D02*
X4453258Y-11709293D01*
X4453258Y-11709293D02*
X4472305Y-11699769D01*
X4472305Y-11699769D02*
X4481829Y-11690246D01*
X4481829Y-11690246D02*
X4491353Y-11671198D01*
X4615163Y-11585484D02*
X4634210Y-11585484D01*
X4634210Y-11585484D02*
X4653258Y-11595008D01*
X4653258Y-11595008D02*
X4662782Y-11604531D01*
X4662782Y-11604531D02*
X4672305Y-11623579D01*
X4672305Y-11623579D02*
X4681829Y-11661674D01*
X4681829Y-11661674D02*
X4681829Y-11709293D01*
X4681829Y-11709293D02*
X4672305Y-11747388D01*
X4672305Y-11747388D02*
X4662782Y-11766436D01*
X4662782Y-11766436D02*
X4653258Y-11775960D01*
X4653258Y-11775960D02*
X4634210Y-11785484D01*
X4634210Y-11785484D02*
X4615163Y-11785484D01*
X4615163Y-11785484D02*
X4596115Y-11775960D01*
X4596115Y-11775960D02*
X4586591Y-11766436D01*
X4586591Y-11766436D02*
X4577067Y-11747388D01*
X4577067Y-11747388D02*
X4567544Y-11709293D01*
X4567544Y-11709293D02*
X4567544Y-11661674D01*
X4567544Y-11661674D02*
X4577067Y-11623579D01*
X4577067Y-11623579D02*
X4586591Y-11604531D01*
X4586591Y-11604531D02*
X4596115Y-11595008D01*
X4596115Y-11595008D02*
X4615163Y-11585484D01*
X4805639Y-11585484D02*
X4824686Y-11585484D01*
X4824686Y-11585484D02*
X4843734Y-11595008D01*
X4843734Y-11595008D02*
X4853258Y-11604531D01*
X4853258Y-11604531D02*
X4862782Y-11623579D01*
X4862782Y-11623579D02*
X4872305Y-11661674D01*
X4872305Y-11661674D02*
X4872305Y-11709293D01*
X4872305Y-11709293D02*
X4862782Y-11747388D01*
X4862782Y-11747388D02*
X4853258Y-11766436D01*
X4853258Y-11766436D02*
X4843734Y-11775960D01*
X4843734Y-11775960D02*
X4824686Y-11785484D01*
X4824686Y-11785484D02*
X4805639Y-11785484D01*
X4805639Y-11785484D02*
X4786591Y-11775960D01*
X4786591Y-11775960D02*
X4777067Y-11766436D01*
X4777067Y-11766436D02*
X4767544Y-11747388D01*
X4767544Y-11747388D02*
X4758020Y-11709293D01*
X4758020Y-11709293D02*
X4758020Y-11661674D01*
X4758020Y-11661674D02*
X4767544Y-11623579D01*
X4767544Y-11623579D02*
X4777067Y-11604531D01*
X4777067Y-11604531D02*
X4786591Y-11595008D01*
X4786591Y-11595008D02*
X4805639Y-11585484D01*
X4958020Y-11785484D02*
X4958020Y-11652150D01*
X4958020Y-11671198D02*
X4967544Y-11661674D01*
X4967544Y-11661674D02*
X4986591Y-11652150D01*
X4986591Y-11652150D02*
X5015163Y-11652150D01*
X5015163Y-11652150D02*
X5034210Y-11661674D01*
X5034210Y-11661674D02*
X5043734Y-11680722D01*
X5043734Y-11680722D02*
X5043734Y-11785484D01*
X5043734Y-11680722D02*
X5053258Y-11661674D01*
X5053258Y-11661674D02*
X5072305Y-11652150D01*
X5072305Y-11652150D02*
X5100877Y-11652150D01*
X5100877Y-11652150D02*
X5119925Y-11661674D01*
X5119925Y-11661674D02*
X5129448Y-11680722D01*
X5129448Y-11680722D02*
X5129448Y-11785484D01*
X5224686Y-11785484D02*
X5224686Y-11652150D01*
X5224686Y-11671198D02*
X5234210Y-11661674D01*
X5234210Y-11661674D02*
X5253258Y-11652150D01*
X5253258Y-11652150D02*
X5281829Y-11652150D01*
X5281829Y-11652150D02*
X5300877Y-11661674D01*
X5300877Y-11661674D02*
X5310401Y-11680722D01*
X5310401Y-11680722D02*
X5310401Y-11785484D01*
X5310401Y-11680722D02*
X5319925Y-11661674D01*
X5319925Y-11661674D02*
X5338972Y-11652150D01*
X5338972Y-11652150D02*
X5367544Y-11652150D01*
X5367544Y-11652150D02*
X5386591Y-11661674D01*
X5386591Y-11661674D02*
X5396115Y-11680722D01*
X5396115Y-11680722D02*
X5396115Y-11785484D01*
X5786591Y-11575960D02*
X5615163Y-11833103D01*
X6043734Y-11585484D02*
X6062782Y-11585484D01*
X6062782Y-11585484D02*
X6081829Y-11595008D01*
X6081829Y-11595008D02*
X6091353Y-11604531D01*
X6091353Y-11604531D02*
X6100877Y-11623579D01*
X6100877Y-11623579D02*
X6110401Y-11661674D01*
X6110401Y-11661674D02*
X6110401Y-11709293D01*
X6110401Y-11709293D02*
X6100877Y-11747388D01*
X6100877Y-11747388D02*
X6091353Y-11766436D01*
X6091353Y-11766436D02*
X6081829Y-11775960D01*
X6081829Y-11775960D02*
X6062782Y-11785484D01*
X6062782Y-11785484D02*
X6043734Y-11785484D01*
X6043734Y-11785484D02*
X6024686Y-11775960D01*
X6024686Y-11775960D02*
X6015163Y-11766436D01*
X6015163Y-11766436D02*
X6005639Y-11747388D01*
X6005639Y-11747388D02*
X5996115Y-11709293D01*
X5996115Y-11709293D02*
X5996115Y-11661674D01*
X5996115Y-11661674D02*
X6005639Y-11623579D01*
X6005639Y-11623579D02*
X6015163Y-11604531D01*
X6015163Y-11604531D02*
X6024686Y-11595008D01*
X6024686Y-11595008D02*
X6043734Y-11585484D01*
X6196115Y-11766436D02*
X6205639Y-11775960D01*
X6205639Y-11775960D02*
X6196115Y-11785484D01*
X6196115Y-11785484D02*
X6186591Y-11775960D01*
X6186591Y-11775960D02*
X6196115Y-11766436D01*
X6196115Y-11766436D02*
X6196115Y-11785484D01*
X6329448Y-11585484D02*
X6348496Y-11585484D01*
X6348496Y-11585484D02*
X6367544Y-11595008D01*
X6367544Y-11595008D02*
X6377067Y-11604531D01*
X6377067Y-11604531D02*
X6386591Y-11623579D01*
X6386591Y-11623579D02*
X6396115Y-11661674D01*
X6396115Y-11661674D02*
X6396115Y-11709293D01*
X6396115Y-11709293D02*
X6386591Y-11747388D01*
X6386591Y-11747388D02*
X6377067Y-11766436D01*
X6377067Y-11766436D02*
X6367544Y-11775960D01*
X6367544Y-11775960D02*
X6348496Y-11785484D01*
X6348496Y-11785484D02*
X6329448Y-11785484D01*
X6329448Y-11785484D02*
X6310401Y-11775960D01*
X6310401Y-11775960D02*
X6300877Y-11766436D01*
X6300877Y-11766436D02*
X6291353Y-11747388D01*
X6291353Y-11747388D02*
X6281829Y-11709293D01*
X6281829Y-11709293D02*
X6281829Y-11661674D01*
X6281829Y-11661674D02*
X6291353Y-11623579D01*
X6291353Y-11623579D02*
X6300877Y-11604531D01*
X6300877Y-11604531D02*
X6310401Y-11595008D01*
X6310401Y-11595008D02*
X6329448Y-11585484D01*
X6462782Y-11585484D02*
X6596115Y-11585484D01*
X6596115Y-11585484D02*
X6510401Y-11785484D01*
X6758020Y-11652150D02*
X6758020Y-11785484D01*
X6710401Y-11575960D02*
X6662782Y-11718817D01*
X6662782Y-11718817D02*
X6786591Y-11718817D01*
X6891353Y-11671198D02*
X6872306Y-11661674D01*
X6872306Y-11661674D02*
X6862782Y-11652150D01*
X6862782Y-11652150D02*
X6853258Y-11633103D01*
X6853258Y-11633103D02*
X6853258Y-11623579D01*
X6853258Y-11623579D02*
X6862782Y-11604531D01*
X6862782Y-11604531D02*
X6872306Y-11595008D01*
X6872306Y-11595008D02*
X6891353Y-11585484D01*
X6891353Y-11585484D02*
X6929448Y-11585484D01*
X6929448Y-11585484D02*
X6948496Y-11595008D01*
X6948496Y-11595008D02*
X6958020Y-11604531D01*
X6958020Y-11604531D02*
X6967544Y-11623579D01*
X6967544Y-11623579D02*
X6967544Y-11633103D01*
X6967544Y-11633103D02*
X6958020Y-11652150D01*
X6958020Y-11652150D02*
X6948496Y-11661674D01*
X6948496Y-11661674D02*
X6929448Y-11671198D01*
X6929448Y-11671198D02*
X6891353Y-11671198D01*
X6891353Y-11671198D02*
X6872306Y-11680722D01*
X6872306Y-11680722D02*
X6862782Y-11690246D01*
X6862782Y-11690246D02*
X6853258Y-11709293D01*
X6853258Y-11709293D02*
X6853258Y-11747388D01*
X6853258Y-11747388D02*
X6862782Y-11766436D01*
X6862782Y-11766436D02*
X6872306Y-11775960D01*
X6872306Y-11775960D02*
X6891353Y-11785484D01*
X6891353Y-11785484D02*
X6929448Y-11785484D01*
X6929448Y-11785484D02*
X6948496Y-11775960D01*
X6948496Y-11775960D02*
X6958020Y-11766436D01*
X6958020Y-11766436D02*
X6967544Y-11747388D01*
X6967544Y-11747388D02*
X6967544Y-11709293D01*
X6967544Y-11709293D02*
X6958020Y-11690246D01*
X6958020Y-11690246D02*
X6948496Y-11680722D01*
X6948496Y-11680722D02*
X6929448Y-11671198D01*
X7043734Y-11585484D02*
X7043734Y-11623579D01*
X7119925Y-11585484D02*
X7119925Y-11623579D01*
X7415163Y-11861674D02*
X7405639Y-11852150D01*
X7405639Y-11852150D02*
X7386591Y-11823579D01*
X7386591Y-11823579D02*
X7377068Y-11804531D01*
X7377068Y-11804531D02*
X7367544Y-11775960D01*
X7367544Y-11775960D02*
X7358020Y-11728341D01*
X7358020Y-11728341D02*
X7358020Y-11690246D01*
X7358020Y-11690246D02*
X7367544Y-11642627D01*
X7367544Y-11642627D02*
X7377068Y-11614055D01*
X7377068Y-11614055D02*
X7386591Y-11595008D01*
X7386591Y-11595008D02*
X7405639Y-11566436D01*
X7405639Y-11566436D02*
X7415163Y-11556912D01*
X7577068Y-11652150D02*
X7577068Y-11785484D01*
X7529448Y-11575960D02*
X7481829Y-11718817D01*
X7481829Y-11718817D02*
X7605639Y-11718817D01*
X7710401Y-11671198D02*
X7691353Y-11661674D01*
X7691353Y-11661674D02*
X7681829Y-11652150D01*
X7681829Y-11652150D02*
X7672306Y-11633103D01*
X7672306Y-11633103D02*
X7672306Y-11623579D01*
X7672306Y-11623579D02*
X7681829Y-11604531D01*
X7681829Y-11604531D02*
X7691353Y-11595008D01*
X7691353Y-11595008D02*
X7710401Y-11585484D01*
X7710401Y-11585484D02*
X7748496Y-11585484D01*
X7748496Y-11585484D02*
X7767544Y-11595008D01*
X7767544Y-11595008D02*
X7777068Y-11604531D01*
X7777068Y-11604531D02*
X7786591Y-11623579D01*
X7786591Y-11623579D02*
X7786591Y-11633103D01*
X7786591Y-11633103D02*
X7777068Y-11652150D01*
X7777068Y-11652150D02*
X7767544Y-11661674D01*
X7767544Y-11661674D02*
X7748496Y-11671198D01*
X7748496Y-11671198D02*
X7710401Y-11671198D01*
X7710401Y-11671198D02*
X7691353Y-11680722D01*
X7691353Y-11680722D02*
X7681829Y-11690246D01*
X7681829Y-11690246D02*
X7672306Y-11709293D01*
X7672306Y-11709293D02*
X7672306Y-11747388D01*
X7672306Y-11747388D02*
X7681829Y-11766436D01*
X7681829Y-11766436D02*
X7691353Y-11775960D01*
X7691353Y-11775960D02*
X7710401Y-11785484D01*
X7710401Y-11785484D02*
X7748496Y-11785484D01*
X7748496Y-11785484D02*
X7767544Y-11775960D01*
X7767544Y-11775960D02*
X7777068Y-11766436D01*
X7777068Y-11766436D02*
X7786591Y-11747388D01*
X7786591Y-11747388D02*
X7786591Y-11709293D01*
X7786591Y-11709293D02*
X7777068Y-11690246D01*
X7777068Y-11690246D02*
X7767544Y-11680722D01*
X7767544Y-11680722D02*
X7748496Y-11671198D01*
X8024687Y-11785484D02*
X8024687Y-11585484D01*
X8110401Y-11785484D02*
X8110401Y-11680722D01*
X8110401Y-11680722D02*
X8100877Y-11661674D01*
X8100877Y-11661674D02*
X8081830Y-11652150D01*
X8081830Y-11652150D02*
X8053258Y-11652150D01*
X8053258Y-11652150D02*
X8034210Y-11661674D01*
X8034210Y-11661674D02*
X8024687Y-11671198D01*
X8234210Y-11785484D02*
X8215163Y-11775960D01*
X8215163Y-11775960D02*
X8205639Y-11766436D01*
X8205639Y-11766436D02*
X8196115Y-11747388D01*
X8196115Y-11747388D02*
X8196115Y-11690246D01*
X8196115Y-11690246D02*
X8205639Y-11671198D01*
X8205639Y-11671198D02*
X8215163Y-11661674D01*
X8215163Y-11661674D02*
X8234210Y-11652150D01*
X8234210Y-11652150D02*
X8262782Y-11652150D01*
X8262782Y-11652150D02*
X8281830Y-11661674D01*
X8281830Y-11661674D02*
X8291353Y-11671198D01*
X8291353Y-11671198D02*
X8300877Y-11690246D01*
X8300877Y-11690246D02*
X8300877Y-11747388D01*
X8300877Y-11747388D02*
X8291353Y-11766436D01*
X8291353Y-11766436D02*
X8281830Y-11775960D01*
X8281830Y-11775960D02*
X8262782Y-11785484D01*
X8262782Y-11785484D02*
X8234210Y-11785484D01*
X8415163Y-11785484D02*
X8396115Y-11775960D01*
X8396115Y-11775960D02*
X8386591Y-11756912D01*
X8386591Y-11756912D02*
X8386591Y-11585484D01*
X8567544Y-11775960D02*
X8548496Y-11785484D01*
X8548496Y-11785484D02*
X8510401Y-11785484D01*
X8510401Y-11785484D02*
X8491353Y-11775960D01*
X8491353Y-11775960D02*
X8481830Y-11756912D01*
X8481830Y-11756912D02*
X8481830Y-11680722D01*
X8481830Y-11680722D02*
X8491353Y-11661674D01*
X8491353Y-11661674D02*
X8510401Y-11652150D01*
X8510401Y-11652150D02*
X8548496Y-11652150D01*
X8548496Y-11652150D02*
X8567544Y-11661674D01*
X8567544Y-11661674D02*
X8577068Y-11680722D01*
X8577068Y-11680722D02*
X8577068Y-11699769D01*
X8577068Y-11699769D02*
X8481830Y-11718817D01*
X8653258Y-11775960D02*
X8672306Y-11785484D01*
X8672306Y-11785484D02*
X8710401Y-11785484D01*
X8710401Y-11785484D02*
X8729449Y-11775960D01*
X8729449Y-11775960D02*
X8738973Y-11756912D01*
X8738973Y-11756912D02*
X8738973Y-11747388D01*
X8738973Y-11747388D02*
X8729449Y-11728341D01*
X8729449Y-11728341D02*
X8710401Y-11718817D01*
X8710401Y-11718817D02*
X8681830Y-11718817D01*
X8681830Y-11718817D02*
X8662782Y-11709293D01*
X8662782Y-11709293D02*
X8653258Y-11690246D01*
X8653258Y-11690246D02*
X8653258Y-11680722D01*
X8653258Y-11680722D02*
X8662782Y-11661674D01*
X8662782Y-11661674D02*
X8681830Y-11652150D01*
X8681830Y-11652150D02*
X8710401Y-11652150D01*
X8710401Y-11652150D02*
X8729449Y-11661674D01*
X8805639Y-11861674D02*
X8815163Y-11852150D01*
X8815163Y-11852150D02*
X8834211Y-11823579D01*
X8834211Y-11823579D02*
X8843734Y-11804531D01*
X8843734Y-11804531D02*
X8853258Y-11775960D01*
X8853258Y-11775960D02*
X8862782Y-11728341D01*
X8862782Y-11728341D02*
X8862782Y-11690246D01*
X8862782Y-11690246D02*
X8853258Y-11642627D01*
X8853258Y-11642627D02*
X8843734Y-11614055D01*
X8843734Y-11614055D02*
X8834211Y-11595008D01*
X8834211Y-11595008D02*
X8815163Y-11566436D01*
X8815163Y-11566436D02*
X8805639Y-11556912D01*
X9167544Y-11861674D02*
X9158020Y-11852150D01*
X9158020Y-11852150D02*
X9138973Y-11823579D01*
X9138973Y-11823579D02*
X9129449Y-11804531D01*
X9129449Y-11804531D02*
X9119925Y-11775960D01*
X9119925Y-11775960D02*
X9110401Y-11728341D01*
X9110401Y-11728341D02*
X9110401Y-11690246D01*
X9110401Y-11690246D02*
X9119925Y-11642627D01*
X9119925Y-11642627D02*
X9129449Y-11614055D01*
X9129449Y-11614055D02*
X9138973Y-11595008D01*
X9138973Y-11595008D02*
X9158020Y-11566436D01*
X9158020Y-11566436D02*
X9167544Y-11556912D01*
X9243734Y-11652150D02*
X9243734Y-11785484D01*
X9243734Y-11671198D02*
X9253258Y-11661674D01*
X9253258Y-11661674D02*
X9272306Y-11652150D01*
X9272306Y-11652150D02*
X9300877Y-11652150D01*
X9300877Y-11652150D02*
X9319925Y-11661674D01*
X9319925Y-11661674D02*
X9329449Y-11680722D01*
X9329449Y-11680722D02*
X9329449Y-11785484D01*
X9453258Y-11785484D02*
X9434211Y-11775960D01*
X9434211Y-11775960D02*
X9424687Y-11766436D01*
X9424687Y-11766436D02*
X9415163Y-11747388D01*
X9415163Y-11747388D02*
X9415163Y-11690246D01*
X9415163Y-11690246D02*
X9424687Y-11671198D01*
X9424687Y-11671198D02*
X9434211Y-11661674D01*
X9434211Y-11661674D02*
X9453258Y-11652150D01*
X9453258Y-11652150D02*
X9481830Y-11652150D01*
X9481830Y-11652150D02*
X9500877Y-11661674D01*
X9500877Y-11661674D02*
X9510401Y-11671198D01*
X9510401Y-11671198D02*
X9519925Y-11690246D01*
X9519925Y-11690246D02*
X9519925Y-11747388D01*
X9519925Y-11747388D02*
X9510401Y-11766436D01*
X9510401Y-11766436D02*
X9500877Y-11775960D01*
X9500877Y-11775960D02*
X9481830Y-11785484D01*
X9481830Y-11785484D02*
X9453258Y-11785484D01*
X9577068Y-11652150D02*
X9653258Y-11652150D01*
X9605639Y-11585484D02*
X9605639Y-11756912D01*
X9605639Y-11756912D02*
X9615163Y-11775960D01*
X9615163Y-11775960D02*
X9634211Y-11785484D01*
X9634211Y-11785484D02*
X9653258Y-11785484D01*
X9872306Y-11652150D02*
X9872306Y-11852150D01*
X9872306Y-11661674D02*
X9891354Y-11652150D01*
X9891354Y-11652150D02*
X9929449Y-11652150D01*
X9929449Y-11652150D02*
X9948496Y-11661674D01*
X9948496Y-11661674D02*
X9958020Y-11671198D01*
X9958020Y-11671198D02*
X9967544Y-11690246D01*
X9967544Y-11690246D02*
X9967544Y-11747388D01*
X9967544Y-11747388D02*
X9958020Y-11766436D01*
X9958020Y-11766436D02*
X9948496Y-11775960D01*
X9948496Y-11775960D02*
X9929449Y-11785484D01*
X9929449Y-11785484D02*
X9891354Y-11785484D01*
X9891354Y-11785484D02*
X9872306Y-11775960D01*
X10081830Y-11785484D02*
X10062782Y-11775960D01*
X10062782Y-11775960D02*
X10053258Y-11756912D01*
X10053258Y-11756912D02*
X10053258Y-11585484D01*
X10243735Y-11785484D02*
X10243735Y-11680722D01*
X10243735Y-11680722D02*
X10234211Y-11661674D01*
X10234211Y-11661674D02*
X10215163Y-11652150D01*
X10215163Y-11652150D02*
X10177068Y-11652150D01*
X10177068Y-11652150D02*
X10158020Y-11661674D01*
X10243735Y-11775960D02*
X10224687Y-11785484D01*
X10224687Y-11785484D02*
X10177068Y-11785484D01*
X10177068Y-11785484D02*
X10158020Y-11775960D01*
X10158020Y-11775960D02*
X10148496Y-11756912D01*
X10148496Y-11756912D02*
X10148496Y-11737865D01*
X10148496Y-11737865D02*
X10158020Y-11718817D01*
X10158020Y-11718817D02*
X10177068Y-11709293D01*
X10177068Y-11709293D02*
X10224687Y-11709293D01*
X10224687Y-11709293D02*
X10243735Y-11699769D01*
X10310401Y-11652150D02*
X10386592Y-11652150D01*
X10338973Y-11585484D02*
X10338973Y-11756912D01*
X10338973Y-11756912D02*
X10348496Y-11775960D01*
X10348496Y-11775960D02*
X10367544Y-11785484D01*
X10367544Y-11785484D02*
X10386592Y-11785484D01*
X10529449Y-11775960D02*
X10510401Y-11785484D01*
X10510401Y-11785484D02*
X10472306Y-11785484D01*
X10472306Y-11785484D02*
X10453258Y-11775960D01*
X10453258Y-11775960D02*
X10443735Y-11756912D01*
X10443735Y-11756912D02*
X10443735Y-11680722D01*
X10443735Y-11680722D02*
X10453258Y-11661674D01*
X10453258Y-11661674D02*
X10472306Y-11652150D01*
X10472306Y-11652150D02*
X10510401Y-11652150D01*
X10510401Y-11652150D02*
X10529449Y-11661674D01*
X10529449Y-11661674D02*
X10538973Y-11680722D01*
X10538973Y-11680722D02*
X10538973Y-11699769D01*
X10538973Y-11699769D02*
X10443735Y-11718817D01*
X10710401Y-11785484D02*
X10710401Y-11585484D01*
X10710401Y-11775960D02*
X10691354Y-11785484D01*
X10691354Y-11785484D02*
X10653258Y-11785484D01*
X10653258Y-11785484D02*
X10634211Y-11775960D01*
X10634211Y-11775960D02*
X10624687Y-11766436D01*
X10624687Y-11766436D02*
X10615163Y-11747388D01*
X10615163Y-11747388D02*
X10615163Y-11690246D01*
X10615163Y-11690246D02*
X10624687Y-11671198D01*
X10624687Y-11671198D02*
X10634211Y-11661674D01*
X10634211Y-11661674D02*
X10653258Y-11652150D01*
X10653258Y-11652150D02*
X10691354Y-11652150D01*
X10691354Y-11652150D02*
X10710401Y-11661674D01*
X10786592Y-11861674D02*
X10796116Y-11852150D01*
X10796116Y-11852150D02*
X10815163Y-11823579D01*
X10815163Y-11823579D02*
X10824687Y-11804531D01*
X10824687Y-11804531D02*
X10834211Y-11775960D01*
X10834211Y-11775960D02*
X10843735Y-11728341D01*
X10843735Y-11728341D02*
X10843735Y-11690246D01*
X10843735Y-11690246D02*
X10834211Y-11642627D01*
X10834211Y-11642627D02*
X10824687Y-11614055D01*
X10824687Y-11614055D02*
X10815163Y-11595008D01*
X10815163Y-11595008D02*
X10796116Y-11566436D01*
X10796116Y-11566436D02*
X10786592Y-11556912D01*
X3810811Y-12074711D02*
X3810811Y-11933289D01*
X3669389Y-11933289D01*
X3669389Y-12074711D01*
X3810811Y-12074711D01*
X4091353Y-11914531D02*
X4100877Y-11905008D01*
X4100877Y-11905008D02*
X4119924Y-11895484D01*
X4119924Y-11895484D02*
X4167543Y-11895484D01*
X4167543Y-11895484D02*
X4186591Y-11905008D01*
X4186591Y-11905008D02*
X4196115Y-11914531D01*
X4196115Y-11914531D02*
X4205639Y-11933579D01*
X4205639Y-11933579D02*
X4205639Y-11952627D01*
X4205639Y-11952627D02*
X4196115Y-11981198D01*
X4196115Y-11981198D02*
X4081829Y-12095484D01*
X4081829Y-12095484D02*
X4205639Y-12095484D01*
X4291353Y-12076436D02*
X4300877Y-12085960D01*
X4300877Y-12085960D02*
X4291353Y-12095484D01*
X4291353Y-12095484D02*
X4281829Y-12085960D01*
X4281829Y-12085960D02*
X4291353Y-12076436D01*
X4291353Y-12076436D02*
X4291353Y-12095484D01*
X4377067Y-11914531D02*
X4386591Y-11905008D01*
X4386591Y-11905008D02*
X4405639Y-11895484D01*
X4405639Y-11895484D02*
X4453258Y-11895484D01*
X4453258Y-11895484D02*
X4472305Y-11905008D01*
X4472305Y-11905008D02*
X4481829Y-11914531D01*
X4481829Y-11914531D02*
X4491353Y-11933579D01*
X4491353Y-11933579D02*
X4491353Y-11952627D01*
X4491353Y-11952627D02*
X4481829Y-11981198D01*
X4481829Y-11981198D02*
X4367544Y-12095484D01*
X4367544Y-12095484D02*
X4491353Y-12095484D01*
X4615163Y-11895484D02*
X4634210Y-11895484D01*
X4634210Y-11895484D02*
X4653258Y-11905008D01*
X4653258Y-11905008D02*
X4662782Y-11914531D01*
X4662782Y-11914531D02*
X4672305Y-11933579D01*
X4672305Y-11933579D02*
X4681829Y-11971674D01*
X4681829Y-11971674D02*
X4681829Y-12019293D01*
X4681829Y-12019293D02*
X4672305Y-12057388D01*
X4672305Y-12057388D02*
X4662782Y-12076436D01*
X4662782Y-12076436D02*
X4653258Y-12085960D01*
X4653258Y-12085960D02*
X4634210Y-12095484D01*
X4634210Y-12095484D02*
X4615163Y-12095484D01*
X4615163Y-12095484D02*
X4596115Y-12085960D01*
X4596115Y-12085960D02*
X4586591Y-12076436D01*
X4586591Y-12076436D02*
X4577067Y-12057388D01*
X4577067Y-12057388D02*
X4567544Y-12019293D01*
X4567544Y-12019293D02*
X4567544Y-11971674D01*
X4567544Y-11971674D02*
X4577067Y-11933579D01*
X4577067Y-11933579D02*
X4586591Y-11914531D01*
X4586591Y-11914531D02*
X4596115Y-11905008D01*
X4596115Y-11905008D02*
X4615163Y-11895484D01*
X4805639Y-11895484D02*
X4824686Y-11895484D01*
X4824686Y-11895484D02*
X4843734Y-11905008D01*
X4843734Y-11905008D02*
X4853258Y-11914531D01*
X4853258Y-11914531D02*
X4862782Y-11933579D01*
X4862782Y-11933579D02*
X4872305Y-11971674D01*
X4872305Y-11971674D02*
X4872305Y-12019293D01*
X4872305Y-12019293D02*
X4862782Y-12057388D01*
X4862782Y-12057388D02*
X4853258Y-12076436D01*
X4853258Y-12076436D02*
X4843734Y-12085960D01*
X4843734Y-12085960D02*
X4824686Y-12095484D01*
X4824686Y-12095484D02*
X4805639Y-12095484D01*
X4805639Y-12095484D02*
X4786591Y-12085960D01*
X4786591Y-12085960D02*
X4777067Y-12076436D01*
X4777067Y-12076436D02*
X4767544Y-12057388D01*
X4767544Y-12057388D02*
X4758020Y-12019293D01*
X4758020Y-12019293D02*
X4758020Y-11971674D01*
X4758020Y-11971674D02*
X4767544Y-11933579D01*
X4767544Y-11933579D02*
X4777067Y-11914531D01*
X4777067Y-11914531D02*
X4786591Y-11905008D01*
X4786591Y-11905008D02*
X4805639Y-11895484D01*
X4958020Y-12095484D02*
X4958020Y-11962150D01*
X4958020Y-11981198D02*
X4967544Y-11971674D01*
X4967544Y-11971674D02*
X4986591Y-11962150D01*
X4986591Y-11962150D02*
X5015163Y-11962150D01*
X5015163Y-11962150D02*
X5034210Y-11971674D01*
X5034210Y-11971674D02*
X5043734Y-11990722D01*
X5043734Y-11990722D02*
X5043734Y-12095484D01*
X5043734Y-11990722D02*
X5053258Y-11971674D01*
X5053258Y-11971674D02*
X5072305Y-11962150D01*
X5072305Y-11962150D02*
X5100877Y-11962150D01*
X5100877Y-11962150D02*
X5119925Y-11971674D01*
X5119925Y-11971674D02*
X5129448Y-11990722D01*
X5129448Y-11990722D02*
X5129448Y-12095484D01*
X5224686Y-12095484D02*
X5224686Y-11962150D01*
X5224686Y-11981198D02*
X5234210Y-11971674D01*
X5234210Y-11971674D02*
X5253258Y-11962150D01*
X5253258Y-11962150D02*
X5281829Y-11962150D01*
X5281829Y-11962150D02*
X5300877Y-11971674D01*
X5300877Y-11971674D02*
X5310401Y-11990722D01*
X5310401Y-11990722D02*
X5310401Y-12095484D01*
X5310401Y-11990722D02*
X5319925Y-11971674D01*
X5319925Y-11971674D02*
X5338972Y-11962150D01*
X5338972Y-11962150D02*
X5367544Y-11962150D01*
X5367544Y-11962150D02*
X5386591Y-11971674D01*
X5386591Y-11971674D02*
X5396115Y-11990722D01*
X5396115Y-11990722D02*
X5396115Y-12095484D01*
X5786591Y-11885960D02*
X5615163Y-12143103D01*
X6043734Y-11895484D02*
X6062782Y-11895484D01*
X6062782Y-11895484D02*
X6081829Y-11905008D01*
X6081829Y-11905008D02*
X6091353Y-11914531D01*
X6091353Y-11914531D02*
X6100877Y-11933579D01*
X6100877Y-11933579D02*
X6110401Y-11971674D01*
X6110401Y-11971674D02*
X6110401Y-12019293D01*
X6110401Y-12019293D02*
X6100877Y-12057388D01*
X6100877Y-12057388D02*
X6091353Y-12076436D01*
X6091353Y-12076436D02*
X6081829Y-12085960D01*
X6081829Y-12085960D02*
X6062782Y-12095484D01*
X6062782Y-12095484D02*
X6043734Y-12095484D01*
X6043734Y-12095484D02*
X6024686Y-12085960D01*
X6024686Y-12085960D02*
X6015163Y-12076436D01*
X6015163Y-12076436D02*
X6005639Y-12057388D01*
X6005639Y-12057388D02*
X5996115Y-12019293D01*
X5996115Y-12019293D02*
X5996115Y-11971674D01*
X5996115Y-11971674D02*
X6005639Y-11933579D01*
X6005639Y-11933579D02*
X6015163Y-11914531D01*
X6015163Y-11914531D02*
X6024686Y-11905008D01*
X6024686Y-11905008D02*
X6043734Y-11895484D01*
X6196115Y-12076436D02*
X6205639Y-12085960D01*
X6205639Y-12085960D02*
X6196115Y-12095484D01*
X6196115Y-12095484D02*
X6186591Y-12085960D01*
X6186591Y-12085960D02*
X6196115Y-12076436D01*
X6196115Y-12076436D02*
X6196115Y-12095484D01*
X6329448Y-11895484D02*
X6348496Y-11895484D01*
X6348496Y-11895484D02*
X6367544Y-11905008D01*
X6367544Y-11905008D02*
X6377067Y-11914531D01*
X6377067Y-11914531D02*
X6386591Y-11933579D01*
X6386591Y-11933579D02*
X6396115Y-11971674D01*
X6396115Y-11971674D02*
X6396115Y-12019293D01*
X6396115Y-12019293D02*
X6386591Y-12057388D01*
X6386591Y-12057388D02*
X6377067Y-12076436D01*
X6377067Y-12076436D02*
X6367544Y-12085960D01*
X6367544Y-12085960D02*
X6348496Y-12095484D01*
X6348496Y-12095484D02*
X6329448Y-12095484D01*
X6329448Y-12095484D02*
X6310401Y-12085960D01*
X6310401Y-12085960D02*
X6300877Y-12076436D01*
X6300877Y-12076436D02*
X6291353Y-12057388D01*
X6291353Y-12057388D02*
X6281829Y-12019293D01*
X6281829Y-12019293D02*
X6281829Y-11971674D01*
X6281829Y-11971674D02*
X6291353Y-11933579D01*
X6291353Y-11933579D02*
X6300877Y-11914531D01*
X6300877Y-11914531D02*
X6310401Y-11905008D01*
X6310401Y-11905008D02*
X6329448Y-11895484D01*
X6510401Y-11981198D02*
X6491353Y-11971674D01*
X6491353Y-11971674D02*
X6481829Y-11962150D01*
X6481829Y-11962150D02*
X6472306Y-11943103D01*
X6472306Y-11943103D02*
X6472306Y-11933579D01*
X6472306Y-11933579D02*
X6481829Y-11914531D01*
X6481829Y-11914531D02*
X6491353Y-11905008D01*
X6491353Y-11905008D02*
X6510401Y-11895484D01*
X6510401Y-11895484D02*
X6548496Y-11895484D01*
X6548496Y-11895484D02*
X6567544Y-11905008D01*
X6567544Y-11905008D02*
X6577067Y-11914531D01*
X6577067Y-11914531D02*
X6586591Y-11933579D01*
X6586591Y-11933579D02*
X6586591Y-11943103D01*
X6586591Y-11943103D02*
X6577067Y-11962150D01*
X6577067Y-11962150D02*
X6567544Y-11971674D01*
X6567544Y-11971674D02*
X6548496Y-11981198D01*
X6548496Y-11981198D02*
X6510401Y-11981198D01*
X6510401Y-11981198D02*
X6491353Y-11990722D01*
X6491353Y-11990722D02*
X6481829Y-12000246D01*
X6481829Y-12000246D02*
X6472306Y-12019293D01*
X6472306Y-12019293D02*
X6472306Y-12057388D01*
X6472306Y-12057388D02*
X6481829Y-12076436D01*
X6481829Y-12076436D02*
X6491353Y-12085960D01*
X6491353Y-12085960D02*
X6510401Y-12095484D01*
X6510401Y-12095484D02*
X6548496Y-12095484D01*
X6548496Y-12095484D02*
X6567544Y-12085960D01*
X6567544Y-12085960D02*
X6577067Y-12076436D01*
X6577067Y-12076436D02*
X6586591Y-12057388D01*
X6586591Y-12057388D02*
X6586591Y-12019293D01*
X6586591Y-12019293D02*
X6577067Y-12000246D01*
X6577067Y-12000246D02*
X6567544Y-11990722D01*
X6567544Y-11990722D02*
X6548496Y-11981198D01*
X6758020Y-11895484D02*
X6719925Y-11895484D01*
X6719925Y-11895484D02*
X6700877Y-11905008D01*
X6700877Y-11905008D02*
X6691353Y-11914531D01*
X6691353Y-11914531D02*
X6672306Y-11943103D01*
X6672306Y-11943103D02*
X6662782Y-11981198D01*
X6662782Y-11981198D02*
X6662782Y-12057388D01*
X6662782Y-12057388D02*
X6672306Y-12076436D01*
X6672306Y-12076436D02*
X6681829Y-12085960D01*
X6681829Y-12085960D02*
X6700877Y-12095484D01*
X6700877Y-12095484D02*
X6738972Y-12095484D01*
X6738972Y-12095484D02*
X6758020Y-12085960D01*
X6758020Y-12085960D02*
X6767544Y-12076436D01*
X6767544Y-12076436D02*
X6777067Y-12057388D01*
X6777067Y-12057388D02*
X6777067Y-12009769D01*
X6777067Y-12009769D02*
X6767544Y-11990722D01*
X6767544Y-11990722D02*
X6758020Y-11981198D01*
X6758020Y-11981198D02*
X6738972Y-11971674D01*
X6738972Y-11971674D02*
X6700877Y-11971674D01*
X6700877Y-11971674D02*
X6681829Y-11981198D01*
X6681829Y-11981198D02*
X6672306Y-11990722D01*
X6672306Y-11990722D02*
X6662782Y-12009769D01*
X6948496Y-11895484D02*
X6910401Y-11895484D01*
X6910401Y-11895484D02*
X6891353Y-11905008D01*
X6891353Y-11905008D02*
X6881829Y-11914531D01*
X6881829Y-11914531D02*
X6862782Y-11943103D01*
X6862782Y-11943103D02*
X6853258Y-11981198D01*
X6853258Y-11981198D02*
X6853258Y-12057388D01*
X6853258Y-12057388D02*
X6862782Y-12076436D01*
X6862782Y-12076436D02*
X6872306Y-12085960D01*
X6872306Y-12085960D02*
X6891353Y-12095484D01*
X6891353Y-12095484D02*
X6929448Y-12095484D01*
X6929448Y-12095484D02*
X6948496Y-12085960D01*
X6948496Y-12085960D02*
X6958020Y-12076436D01*
X6958020Y-12076436D02*
X6967544Y-12057388D01*
X6967544Y-12057388D02*
X6967544Y-12009769D01*
X6967544Y-12009769D02*
X6958020Y-11990722D01*
X6958020Y-11990722D02*
X6948496Y-11981198D01*
X6948496Y-11981198D02*
X6929448Y-11971674D01*
X6929448Y-11971674D02*
X6891353Y-11971674D01*
X6891353Y-11971674D02*
X6872306Y-11981198D01*
X6872306Y-11981198D02*
X6862782Y-11990722D01*
X6862782Y-11990722D02*
X6853258Y-12009769D01*
X7043734Y-11895484D02*
X7043734Y-11933579D01*
X7119925Y-11895484D02*
X7119925Y-11933579D01*
X7415163Y-12171674D02*
X7405639Y-12162150D01*
X7405639Y-12162150D02*
X7386591Y-12133579D01*
X7386591Y-12133579D02*
X7377068Y-12114531D01*
X7377068Y-12114531D02*
X7367544Y-12085960D01*
X7367544Y-12085960D02*
X7358020Y-12038341D01*
X7358020Y-12038341D02*
X7358020Y-12000246D01*
X7358020Y-12000246D02*
X7367544Y-11952627D01*
X7367544Y-11952627D02*
X7377068Y-11924055D01*
X7377068Y-11924055D02*
X7386591Y-11905008D01*
X7386591Y-11905008D02*
X7405639Y-11876436D01*
X7405639Y-11876436D02*
X7415163Y-11866912D01*
X7481829Y-11914531D02*
X7491353Y-11905008D01*
X7491353Y-11905008D02*
X7510401Y-11895484D01*
X7510401Y-11895484D02*
X7558020Y-11895484D01*
X7558020Y-11895484D02*
X7577068Y-11905008D01*
X7577068Y-11905008D02*
X7586591Y-11914531D01*
X7586591Y-11914531D02*
X7596115Y-11933579D01*
X7596115Y-11933579D02*
X7596115Y-11952627D01*
X7596115Y-11952627D02*
X7586591Y-11981198D01*
X7586591Y-11981198D02*
X7472306Y-12095484D01*
X7472306Y-12095484D02*
X7596115Y-12095484D01*
X7834210Y-12095484D02*
X7834210Y-11895484D01*
X7919925Y-12095484D02*
X7919925Y-11990722D01*
X7919925Y-11990722D02*
X7910401Y-11971674D01*
X7910401Y-11971674D02*
X7891353Y-11962150D01*
X7891353Y-11962150D02*
X7862782Y-11962150D01*
X7862782Y-11962150D02*
X7843734Y-11971674D01*
X7843734Y-11971674D02*
X7834210Y-11981198D01*
X8043734Y-12095484D02*
X8024687Y-12085960D01*
X8024687Y-12085960D02*
X8015163Y-12076436D01*
X8015163Y-12076436D02*
X8005639Y-12057388D01*
X8005639Y-12057388D02*
X8005639Y-12000246D01*
X8005639Y-12000246D02*
X8015163Y-11981198D01*
X8015163Y-11981198D02*
X8024687Y-11971674D01*
X8024687Y-11971674D02*
X8043734Y-11962150D01*
X8043734Y-11962150D02*
X8072306Y-11962150D01*
X8072306Y-11962150D02*
X8091353Y-11971674D01*
X8091353Y-11971674D02*
X8100877Y-11981198D01*
X8100877Y-11981198D02*
X8110401Y-12000246D01*
X8110401Y-12000246D02*
X8110401Y-12057388D01*
X8110401Y-12057388D02*
X8100877Y-12076436D01*
X8100877Y-12076436D02*
X8091353Y-12085960D01*
X8091353Y-12085960D02*
X8072306Y-12095484D01*
X8072306Y-12095484D02*
X8043734Y-12095484D01*
X8224687Y-12095484D02*
X8205639Y-12085960D01*
X8205639Y-12085960D02*
X8196115Y-12066912D01*
X8196115Y-12066912D02*
X8196115Y-11895484D01*
X8377068Y-12085960D02*
X8358020Y-12095484D01*
X8358020Y-12095484D02*
X8319925Y-12095484D01*
X8319925Y-12095484D02*
X8300877Y-12085960D01*
X8300877Y-12085960D02*
X8291353Y-12066912D01*
X8291353Y-12066912D02*
X8291353Y-11990722D01*
X8291353Y-11990722D02*
X8300877Y-11971674D01*
X8300877Y-11971674D02*
X8319925Y-11962150D01*
X8319925Y-11962150D02*
X8358020Y-11962150D01*
X8358020Y-11962150D02*
X8377068Y-11971674D01*
X8377068Y-11971674D02*
X8386591Y-11990722D01*
X8386591Y-11990722D02*
X8386591Y-12009769D01*
X8386591Y-12009769D02*
X8291353Y-12028817D01*
X8462782Y-12085960D02*
X8481830Y-12095484D01*
X8481830Y-12095484D02*
X8519925Y-12095484D01*
X8519925Y-12095484D02*
X8538973Y-12085960D01*
X8538973Y-12085960D02*
X8548496Y-12066912D01*
X8548496Y-12066912D02*
X8548496Y-12057388D01*
X8548496Y-12057388D02*
X8538973Y-12038341D01*
X8538973Y-12038341D02*
X8519925Y-12028817D01*
X8519925Y-12028817D02*
X8491353Y-12028817D01*
X8491353Y-12028817D02*
X8472306Y-12019293D01*
X8472306Y-12019293D02*
X8462782Y-12000246D01*
X8462782Y-12000246D02*
X8462782Y-11990722D01*
X8462782Y-11990722D02*
X8472306Y-11971674D01*
X8472306Y-11971674D02*
X8491353Y-11962150D01*
X8491353Y-11962150D02*
X8519925Y-11962150D01*
X8519925Y-11962150D02*
X8538973Y-11971674D01*
X8786592Y-12019293D02*
X8938973Y-12019293D01*
X8862782Y-12095484D02*
X8862782Y-11943103D01*
X9272306Y-11962150D02*
X9272306Y-12095484D01*
X9224687Y-11885960D02*
X9177068Y-12028817D01*
X9177068Y-12028817D02*
X9300877Y-12028817D01*
X9519925Y-12085960D02*
X9538973Y-12095484D01*
X9538973Y-12095484D02*
X9577068Y-12095484D01*
X9577068Y-12095484D02*
X9596116Y-12085960D01*
X9596116Y-12085960D02*
X9605639Y-12066912D01*
X9605639Y-12066912D02*
X9605639Y-12057388D01*
X9605639Y-12057388D02*
X9596116Y-12038341D01*
X9596116Y-12038341D02*
X9577068Y-12028817D01*
X9577068Y-12028817D02*
X9548496Y-12028817D01*
X9548496Y-12028817D02*
X9529449Y-12019293D01*
X9529449Y-12019293D02*
X9519925Y-12000246D01*
X9519925Y-12000246D02*
X9519925Y-11990722D01*
X9519925Y-11990722D02*
X9529449Y-11971674D01*
X9529449Y-11971674D02*
X9548496Y-11962150D01*
X9548496Y-11962150D02*
X9577068Y-11962150D01*
X9577068Y-11962150D02*
X9596116Y-11971674D01*
X9719925Y-12095484D02*
X9700877Y-12085960D01*
X9700877Y-12085960D02*
X9691354Y-12066912D01*
X9691354Y-12066912D02*
X9691354Y-11895484D01*
X9824687Y-12095484D02*
X9805639Y-12085960D01*
X9805639Y-12085960D02*
X9796116Y-12076436D01*
X9796116Y-12076436D02*
X9786592Y-12057388D01*
X9786592Y-12057388D02*
X9786592Y-12000246D01*
X9786592Y-12000246D02*
X9796116Y-11981198D01*
X9796116Y-11981198D02*
X9805639Y-11971674D01*
X9805639Y-11971674D02*
X9824687Y-11962150D01*
X9824687Y-11962150D02*
X9853258Y-11962150D01*
X9853258Y-11962150D02*
X9872306Y-11971674D01*
X9872306Y-11971674D02*
X9881830Y-11981198D01*
X9881830Y-11981198D02*
X9891354Y-12000246D01*
X9891354Y-12000246D02*
X9891354Y-12057388D01*
X9891354Y-12057388D02*
X9881830Y-12076436D01*
X9881830Y-12076436D02*
X9872306Y-12085960D01*
X9872306Y-12085960D02*
X9853258Y-12095484D01*
X9853258Y-12095484D02*
X9824687Y-12095484D01*
X9948497Y-11962150D02*
X10024687Y-11962150D01*
X9977068Y-11895484D02*
X9977068Y-12066912D01*
X9977068Y-12066912D02*
X9986592Y-12085960D01*
X9986592Y-12085960D02*
X10005639Y-12095484D01*
X10005639Y-12095484D02*
X10024687Y-12095484D01*
X10081830Y-12085960D02*
X10100877Y-12095484D01*
X10100877Y-12095484D02*
X10138973Y-12095484D01*
X10138973Y-12095484D02*
X10158020Y-12085960D01*
X10158020Y-12085960D02*
X10167544Y-12066912D01*
X10167544Y-12066912D02*
X10167544Y-12057388D01*
X10167544Y-12057388D02*
X10158020Y-12038341D01*
X10158020Y-12038341D02*
X10138973Y-12028817D01*
X10138973Y-12028817D02*
X10110401Y-12028817D01*
X10110401Y-12028817D02*
X10091354Y-12019293D01*
X10091354Y-12019293D02*
X10081830Y-12000246D01*
X10081830Y-12000246D02*
X10081830Y-11990722D01*
X10081830Y-11990722D02*
X10091354Y-11971674D01*
X10091354Y-11971674D02*
X10110401Y-11962150D01*
X10110401Y-11962150D02*
X10138973Y-11962150D01*
X10138973Y-11962150D02*
X10158020Y-11971674D01*
X10234211Y-12171674D02*
X10243735Y-12162150D01*
X10243735Y-12162150D02*
X10262782Y-12133579D01*
X10262782Y-12133579D02*
X10272306Y-12114531D01*
X10272306Y-12114531D02*
X10281830Y-12085960D01*
X10281830Y-12085960D02*
X10291354Y-12038341D01*
X10291354Y-12038341D02*
X10291354Y-12000246D01*
X10291354Y-12000246D02*
X10281830Y-11952627D01*
X10281830Y-11952627D02*
X10272306Y-11924055D01*
X10272306Y-11924055D02*
X10262782Y-11905008D01*
X10262782Y-11905008D02*
X10243735Y-11876436D01*
X10243735Y-11876436D02*
X10234211Y-11866912D01*
X10596116Y-12171674D02*
X10586592Y-12162150D01*
X10586592Y-12162150D02*
X10567544Y-12133579D01*
X10567544Y-12133579D02*
X10558020Y-12114531D01*
X10558020Y-12114531D02*
X10548497Y-12085960D01*
X10548497Y-12085960D02*
X10538973Y-12038341D01*
X10538973Y-12038341D02*
X10538973Y-12000246D01*
X10538973Y-12000246D02*
X10548497Y-11952627D01*
X10548497Y-11952627D02*
X10558020Y-11924055D01*
X10558020Y-11924055D02*
X10567544Y-11905008D01*
X10567544Y-11905008D02*
X10586592Y-11876436D01*
X10586592Y-11876436D02*
X10596116Y-11866912D01*
X10672306Y-11962150D02*
X10672306Y-12095484D01*
X10672306Y-11981198D02*
X10681830Y-11971674D01*
X10681830Y-11971674D02*
X10700877Y-11962150D01*
X10700877Y-11962150D02*
X10729449Y-11962150D01*
X10729449Y-11962150D02*
X10748497Y-11971674D01*
X10748497Y-11971674D02*
X10758020Y-11990722D01*
X10758020Y-11990722D02*
X10758020Y-12095484D01*
X10881830Y-12095484D02*
X10862782Y-12085960D01*
X10862782Y-12085960D02*
X10853258Y-12076436D01*
X10853258Y-12076436D02*
X10843735Y-12057388D01*
X10843735Y-12057388D02*
X10843735Y-12000246D01*
X10843735Y-12000246D02*
X10853258Y-11981198D01*
X10853258Y-11981198D02*
X10862782Y-11971674D01*
X10862782Y-11971674D02*
X10881830Y-11962150D01*
X10881830Y-11962150D02*
X10910401Y-11962150D01*
X10910401Y-11962150D02*
X10929449Y-11971674D01*
X10929449Y-11971674D02*
X10938973Y-11981198D01*
X10938973Y-11981198D02*
X10948497Y-12000246D01*
X10948497Y-12000246D02*
X10948497Y-12057388D01*
X10948497Y-12057388D02*
X10938973Y-12076436D01*
X10938973Y-12076436D02*
X10929449Y-12085960D01*
X10929449Y-12085960D02*
X10910401Y-12095484D01*
X10910401Y-12095484D02*
X10881830Y-12095484D01*
X11005639Y-11962150D02*
X11081830Y-11962150D01*
X11034211Y-11895484D02*
X11034211Y-12066912D01*
X11034211Y-12066912D02*
X11043735Y-12085960D01*
X11043735Y-12085960D02*
X11062782Y-12095484D01*
X11062782Y-12095484D02*
X11081830Y-12095484D01*
X11300877Y-11962150D02*
X11300877Y-12162150D01*
X11300877Y-11971674D02*
X11319925Y-11962150D01*
X11319925Y-11962150D02*
X11358020Y-11962150D01*
X11358020Y-11962150D02*
X11377068Y-11971674D01*
X11377068Y-11971674D02*
X11386592Y-11981198D01*
X11386592Y-11981198D02*
X11396116Y-12000246D01*
X11396116Y-12000246D02*
X11396116Y-12057388D01*
X11396116Y-12057388D02*
X11386592Y-12076436D01*
X11386592Y-12076436D02*
X11377068Y-12085960D01*
X11377068Y-12085960D02*
X11358020Y-12095484D01*
X11358020Y-12095484D02*
X11319925Y-12095484D01*
X11319925Y-12095484D02*
X11300877Y-12085960D01*
X11510401Y-12095484D02*
X11491354Y-12085960D01*
X11491354Y-12085960D02*
X11481830Y-12066912D01*
X11481830Y-12066912D02*
X11481830Y-11895484D01*
X11672306Y-12095484D02*
X11672306Y-11990722D01*
X11672306Y-11990722D02*
X11662782Y-11971674D01*
X11662782Y-11971674D02*
X11643735Y-11962150D01*
X11643735Y-11962150D02*
X11605639Y-11962150D01*
X11605639Y-11962150D02*
X11586592Y-11971674D01*
X11672306Y-12085960D02*
X11653258Y-12095484D01*
X11653258Y-12095484D02*
X11605639Y-12095484D01*
X11605639Y-12095484D02*
X11586592Y-12085960D01*
X11586592Y-12085960D02*
X11577068Y-12066912D01*
X11577068Y-12066912D02*
X11577068Y-12047865D01*
X11577068Y-12047865D02*
X11586592Y-12028817D01*
X11586592Y-12028817D02*
X11605639Y-12019293D01*
X11605639Y-12019293D02*
X11653258Y-12019293D01*
X11653258Y-12019293D02*
X11672306Y-12009769D01*
X11738973Y-11962150D02*
X11815163Y-11962150D01*
X11767544Y-11895484D02*
X11767544Y-12066912D01*
X11767544Y-12066912D02*
X11777068Y-12085960D01*
X11777068Y-12085960D02*
X11796116Y-12095484D01*
X11796116Y-12095484D02*
X11815163Y-12095484D01*
X11958020Y-12085960D02*
X11938973Y-12095484D01*
X11938973Y-12095484D02*
X11900877Y-12095484D01*
X11900877Y-12095484D02*
X11881830Y-12085960D01*
X11881830Y-12085960D02*
X11872306Y-12066912D01*
X11872306Y-12066912D02*
X11872306Y-11990722D01*
X11872306Y-11990722D02*
X11881830Y-11971674D01*
X11881830Y-11971674D02*
X11900877Y-11962150D01*
X11900877Y-11962150D02*
X11938973Y-11962150D01*
X11938973Y-11962150D02*
X11958020Y-11971674D01*
X11958020Y-11971674D02*
X11967544Y-11990722D01*
X11967544Y-11990722D02*
X11967544Y-12009769D01*
X11967544Y-12009769D02*
X11872306Y-12028817D01*
X12138973Y-12095484D02*
X12138973Y-11895484D01*
X12138973Y-12085960D02*
X12119925Y-12095484D01*
X12119925Y-12095484D02*
X12081830Y-12095484D01*
X12081830Y-12095484D02*
X12062782Y-12085960D01*
X12062782Y-12085960D02*
X12053258Y-12076436D01*
X12053258Y-12076436D02*
X12043735Y-12057388D01*
X12043735Y-12057388D02*
X12043735Y-12000246D01*
X12043735Y-12000246D02*
X12053258Y-11981198D01*
X12053258Y-11981198D02*
X12062782Y-11971674D01*
X12062782Y-11971674D02*
X12081830Y-11962150D01*
X12081830Y-11962150D02*
X12119925Y-11962150D01*
X12119925Y-11962150D02*
X12138973Y-11971674D01*
X12215163Y-12171674D02*
X12224687Y-12162150D01*
X12224687Y-12162150D02*
X12243735Y-12133579D01*
X12243735Y-12133579D02*
X12253258Y-12114531D01*
X12253258Y-12114531D02*
X12262782Y-12085960D01*
X12262782Y-12085960D02*
X12272306Y-12038341D01*
X12272306Y-12038341D02*
X12272306Y-12000246D01*
X12272306Y-12000246D02*
X12262782Y-11952627D01*
X12262782Y-11952627D02*
X12253258Y-11924055D01*
X12253258Y-11924055D02*
X12243735Y-11905008D01*
X12243735Y-11905008D02*
X12224687Y-11876436D01*
X12224687Y-11876436D02*
X12215163Y-11866912D01*
X3740100Y-12424000D02*
X3840100Y-12324000D01*
X3740100Y-12224000D01*
X3640100Y-12324000D01*
X3740100Y-12424000D01*
X4081829Y-12215484D02*
X4205639Y-12215484D01*
X4205639Y-12215484D02*
X4138972Y-12291674D01*
X4138972Y-12291674D02*
X4167543Y-12291674D01*
X4167543Y-12291674D02*
X4186591Y-12301198D01*
X4186591Y-12301198D02*
X4196115Y-12310722D01*
X4196115Y-12310722D02*
X4205639Y-12329769D01*
X4205639Y-12329769D02*
X4205639Y-12377388D01*
X4205639Y-12377388D02*
X4196115Y-12396436D01*
X4196115Y-12396436D02*
X4186591Y-12405960D01*
X4186591Y-12405960D02*
X4167543Y-12415484D01*
X4167543Y-12415484D02*
X4110401Y-12415484D01*
X4110401Y-12415484D02*
X4091353Y-12405960D01*
X4091353Y-12405960D02*
X4081829Y-12396436D01*
X4291353Y-12396436D02*
X4300877Y-12405960D01*
X4300877Y-12405960D02*
X4291353Y-12415484D01*
X4291353Y-12415484D02*
X4281829Y-12405960D01*
X4281829Y-12405960D02*
X4291353Y-12396436D01*
X4291353Y-12396436D02*
X4291353Y-12415484D01*
X4424686Y-12215484D02*
X4443734Y-12215484D01*
X4443734Y-12215484D02*
X4462782Y-12225008D01*
X4462782Y-12225008D02*
X4472305Y-12234531D01*
X4472305Y-12234531D02*
X4481829Y-12253579D01*
X4481829Y-12253579D02*
X4491353Y-12291674D01*
X4491353Y-12291674D02*
X4491353Y-12339293D01*
X4491353Y-12339293D02*
X4481829Y-12377388D01*
X4481829Y-12377388D02*
X4472305Y-12396436D01*
X4472305Y-12396436D02*
X4462782Y-12405960D01*
X4462782Y-12405960D02*
X4443734Y-12415484D01*
X4443734Y-12415484D02*
X4424686Y-12415484D01*
X4424686Y-12415484D02*
X4405639Y-12405960D01*
X4405639Y-12405960D02*
X4396115Y-12396436D01*
X4396115Y-12396436D02*
X4386591Y-12377388D01*
X4386591Y-12377388D02*
X4377067Y-12339293D01*
X4377067Y-12339293D02*
X4377067Y-12291674D01*
X4377067Y-12291674D02*
X4386591Y-12253579D01*
X4386591Y-12253579D02*
X4396115Y-12234531D01*
X4396115Y-12234531D02*
X4405639Y-12225008D01*
X4405639Y-12225008D02*
X4424686Y-12215484D01*
X4672305Y-12215484D02*
X4577067Y-12215484D01*
X4577067Y-12215484D02*
X4567544Y-12310722D01*
X4567544Y-12310722D02*
X4577067Y-12301198D01*
X4577067Y-12301198D02*
X4596115Y-12291674D01*
X4596115Y-12291674D02*
X4643734Y-12291674D01*
X4643734Y-12291674D02*
X4662782Y-12301198D01*
X4662782Y-12301198D02*
X4672305Y-12310722D01*
X4672305Y-12310722D02*
X4681829Y-12329769D01*
X4681829Y-12329769D02*
X4681829Y-12377388D01*
X4681829Y-12377388D02*
X4672305Y-12396436D01*
X4672305Y-12396436D02*
X4662782Y-12405960D01*
X4662782Y-12405960D02*
X4643734Y-12415484D01*
X4643734Y-12415484D02*
X4596115Y-12415484D01*
X4596115Y-12415484D02*
X4577067Y-12405960D01*
X4577067Y-12405960D02*
X4567544Y-12396436D01*
X4805639Y-12215484D02*
X4824686Y-12215484D01*
X4824686Y-12215484D02*
X4843734Y-12225008D01*
X4843734Y-12225008D02*
X4853258Y-12234531D01*
X4853258Y-12234531D02*
X4862782Y-12253579D01*
X4862782Y-12253579D02*
X4872305Y-12291674D01*
X4872305Y-12291674D02*
X4872305Y-12339293D01*
X4872305Y-12339293D02*
X4862782Y-12377388D01*
X4862782Y-12377388D02*
X4853258Y-12396436D01*
X4853258Y-12396436D02*
X4843734Y-12405960D01*
X4843734Y-12405960D02*
X4824686Y-12415484D01*
X4824686Y-12415484D02*
X4805639Y-12415484D01*
X4805639Y-12415484D02*
X4786591Y-12405960D01*
X4786591Y-12405960D02*
X4777067Y-12396436D01*
X4777067Y-12396436D02*
X4767544Y-12377388D01*
X4767544Y-12377388D02*
X4758020Y-12339293D01*
X4758020Y-12339293D02*
X4758020Y-12291674D01*
X4758020Y-12291674D02*
X4767544Y-12253579D01*
X4767544Y-12253579D02*
X4777067Y-12234531D01*
X4777067Y-12234531D02*
X4786591Y-12225008D01*
X4786591Y-12225008D02*
X4805639Y-12215484D01*
X4958020Y-12415484D02*
X4958020Y-12282150D01*
X4958020Y-12301198D02*
X4967544Y-12291674D01*
X4967544Y-12291674D02*
X4986591Y-12282150D01*
X4986591Y-12282150D02*
X5015163Y-12282150D01*
X5015163Y-12282150D02*
X5034210Y-12291674D01*
X5034210Y-12291674D02*
X5043734Y-12310722D01*
X5043734Y-12310722D02*
X5043734Y-12415484D01*
X5043734Y-12310722D02*
X5053258Y-12291674D01*
X5053258Y-12291674D02*
X5072305Y-12282150D01*
X5072305Y-12282150D02*
X5100877Y-12282150D01*
X5100877Y-12282150D02*
X5119925Y-12291674D01*
X5119925Y-12291674D02*
X5129448Y-12310722D01*
X5129448Y-12310722D02*
X5129448Y-12415484D01*
X5224686Y-12415484D02*
X5224686Y-12282150D01*
X5224686Y-12301198D02*
X5234210Y-12291674D01*
X5234210Y-12291674D02*
X5253258Y-12282150D01*
X5253258Y-12282150D02*
X5281829Y-12282150D01*
X5281829Y-12282150D02*
X5300877Y-12291674D01*
X5300877Y-12291674D02*
X5310401Y-12310722D01*
X5310401Y-12310722D02*
X5310401Y-12415484D01*
X5310401Y-12310722D02*
X5319925Y-12291674D01*
X5319925Y-12291674D02*
X5338972Y-12282150D01*
X5338972Y-12282150D02*
X5367544Y-12282150D01*
X5367544Y-12282150D02*
X5386591Y-12291674D01*
X5386591Y-12291674D02*
X5396115Y-12310722D01*
X5396115Y-12310722D02*
X5396115Y-12415484D01*
X5786591Y-12205960D02*
X5615163Y-12463103D01*
X6043734Y-12215484D02*
X6062782Y-12215484D01*
X6062782Y-12215484D02*
X6081829Y-12225008D01*
X6081829Y-12225008D02*
X6091353Y-12234531D01*
X6091353Y-12234531D02*
X6100877Y-12253579D01*
X6100877Y-12253579D02*
X6110401Y-12291674D01*
X6110401Y-12291674D02*
X6110401Y-12339293D01*
X6110401Y-12339293D02*
X6100877Y-12377388D01*
X6100877Y-12377388D02*
X6091353Y-12396436D01*
X6091353Y-12396436D02*
X6081829Y-12405960D01*
X6081829Y-12405960D02*
X6062782Y-12415484D01*
X6062782Y-12415484D02*
X6043734Y-12415484D01*
X6043734Y-12415484D02*
X6024686Y-12405960D01*
X6024686Y-12405960D02*
X6015163Y-12396436D01*
X6015163Y-12396436D02*
X6005639Y-12377388D01*
X6005639Y-12377388D02*
X5996115Y-12339293D01*
X5996115Y-12339293D02*
X5996115Y-12291674D01*
X5996115Y-12291674D02*
X6005639Y-12253579D01*
X6005639Y-12253579D02*
X6015163Y-12234531D01*
X6015163Y-12234531D02*
X6024686Y-12225008D01*
X6024686Y-12225008D02*
X6043734Y-12215484D01*
X6196115Y-12396436D02*
X6205639Y-12405960D01*
X6205639Y-12405960D02*
X6196115Y-12415484D01*
X6196115Y-12415484D02*
X6186591Y-12405960D01*
X6186591Y-12405960D02*
X6196115Y-12396436D01*
X6196115Y-12396436D02*
X6196115Y-12415484D01*
X6396115Y-12415484D02*
X6281829Y-12415484D01*
X6338972Y-12415484D02*
X6338972Y-12215484D01*
X6338972Y-12215484D02*
X6319925Y-12244055D01*
X6319925Y-12244055D02*
X6300877Y-12263103D01*
X6300877Y-12263103D02*
X6281829Y-12272627D01*
X6472306Y-12234531D02*
X6481829Y-12225008D01*
X6481829Y-12225008D02*
X6500877Y-12215484D01*
X6500877Y-12215484D02*
X6548496Y-12215484D01*
X6548496Y-12215484D02*
X6567544Y-12225008D01*
X6567544Y-12225008D02*
X6577067Y-12234531D01*
X6577067Y-12234531D02*
X6586591Y-12253579D01*
X6586591Y-12253579D02*
X6586591Y-12272627D01*
X6586591Y-12272627D02*
X6577067Y-12301198D01*
X6577067Y-12301198D02*
X6462782Y-12415484D01*
X6462782Y-12415484D02*
X6586591Y-12415484D01*
X6710401Y-12215484D02*
X6729448Y-12215484D01*
X6729448Y-12215484D02*
X6748496Y-12225008D01*
X6748496Y-12225008D02*
X6758020Y-12234531D01*
X6758020Y-12234531D02*
X6767544Y-12253579D01*
X6767544Y-12253579D02*
X6777067Y-12291674D01*
X6777067Y-12291674D02*
X6777067Y-12339293D01*
X6777067Y-12339293D02*
X6767544Y-12377388D01*
X6767544Y-12377388D02*
X6758020Y-12396436D01*
X6758020Y-12396436D02*
X6748496Y-12405960D01*
X6748496Y-12405960D02*
X6729448Y-12415484D01*
X6729448Y-12415484D02*
X6710401Y-12415484D01*
X6710401Y-12415484D02*
X6691353Y-12405960D01*
X6691353Y-12405960D02*
X6681829Y-12396436D01*
X6681829Y-12396436D02*
X6672306Y-12377388D01*
X6672306Y-12377388D02*
X6662782Y-12339293D01*
X6662782Y-12339293D02*
X6662782Y-12291674D01*
X6662782Y-12291674D02*
X6672306Y-12253579D01*
X6672306Y-12253579D02*
X6681829Y-12234531D01*
X6681829Y-12234531D02*
X6691353Y-12225008D01*
X6691353Y-12225008D02*
X6710401Y-12215484D01*
X6967544Y-12415484D02*
X6853258Y-12415484D01*
X6910401Y-12415484D02*
X6910401Y-12215484D01*
X6910401Y-12215484D02*
X6891353Y-12244055D01*
X6891353Y-12244055D02*
X6872306Y-12263103D01*
X6872306Y-12263103D02*
X6853258Y-12272627D01*
X7043734Y-12215484D02*
X7043734Y-12253579D01*
X7119925Y-12215484D02*
X7119925Y-12253579D01*
X7415163Y-12491674D02*
X7405639Y-12482150D01*
X7405639Y-12482150D02*
X7386591Y-12453579D01*
X7386591Y-12453579D02*
X7377068Y-12434531D01*
X7377068Y-12434531D02*
X7367544Y-12405960D01*
X7367544Y-12405960D02*
X7358020Y-12358341D01*
X7358020Y-12358341D02*
X7358020Y-12320246D01*
X7358020Y-12320246D02*
X7367544Y-12272627D01*
X7367544Y-12272627D02*
X7377068Y-12244055D01*
X7377068Y-12244055D02*
X7386591Y-12225008D01*
X7386591Y-12225008D02*
X7405639Y-12196436D01*
X7405639Y-12196436D02*
X7415163Y-12186912D01*
X7481829Y-12234531D02*
X7491353Y-12225008D01*
X7491353Y-12225008D02*
X7510401Y-12215484D01*
X7510401Y-12215484D02*
X7558020Y-12215484D01*
X7558020Y-12215484D02*
X7577068Y-12225008D01*
X7577068Y-12225008D02*
X7586591Y-12234531D01*
X7586591Y-12234531D02*
X7596115Y-12253579D01*
X7596115Y-12253579D02*
X7596115Y-12272627D01*
X7596115Y-12272627D02*
X7586591Y-12301198D01*
X7586591Y-12301198D02*
X7472306Y-12415484D01*
X7472306Y-12415484D02*
X7596115Y-12415484D01*
X7767544Y-12282150D02*
X7767544Y-12415484D01*
X7719925Y-12205960D02*
X7672306Y-12348817D01*
X7672306Y-12348817D02*
X7796115Y-12348817D01*
X8024687Y-12415484D02*
X8024687Y-12215484D01*
X8110401Y-12415484D02*
X8110401Y-12310722D01*
X8110401Y-12310722D02*
X8100877Y-12291674D01*
X8100877Y-12291674D02*
X8081830Y-12282150D01*
X8081830Y-12282150D02*
X8053258Y-12282150D01*
X8053258Y-12282150D02*
X8034210Y-12291674D01*
X8034210Y-12291674D02*
X8024687Y-12301198D01*
X8234210Y-12415484D02*
X8215163Y-12405960D01*
X8215163Y-12405960D02*
X8205639Y-12396436D01*
X8205639Y-12396436D02*
X8196115Y-12377388D01*
X8196115Y-12377388D02*
X8196115Y-12320246D01*
X8196115Y-12320246D02*
X8205639Y-12301198D01*
X8205639Y-12301198D02*
X8215163Y-12291674D01*
X8215163Y-12291674D02*
X8234210Y-12282150D01*
X8234210Y-12282150D02*
X8262782Y-12282150D01*
X8262782Y-12282150D02*
X8281830Y-12291674D01*
X8281830Y-12291674D02*
X8291353Y-12301198D01*
X8291353Y-12301198D02*
X8300877Y-12320246D01*
X8300877Y-12320246D02*
X8300877Y-12377388D01*
X8300877Y-12377388D02*
X8291353Y-12396436D01*
X8291353Y-12396436D02*
X8281830Y-12405960D01*
X8281830Y-12405960D02*
X8262782Y-12415484D01*
X8262782Y-12415484D02*
X8234210Y-12415484D01*
X8415163Y-12415484D02*
X8396115Y-12405960D01*
X8396115Y-12405960D02*
X8386591Y-12386912D01*
X8386591Y-12386912D02*
X8386591Y-12215484D01*
X8567544Y-12405960D02*
X8548496Y-12415484D01*
X8548496Y-12415484D02*
X8510401Y-12415484D01*
X8510401Y-12415484D02*
X8491353Y-12405960D01*
X8491353Y-12405960D02*
X8481830Y-12386912D01*
X8481830Y-12386912D02*
X8481830Y-12310722D01*
X8481830Y-12310722D02*
X8491353Y-12291674D01*
X8491353Y-12291674D02*
X8510401Y-12282150D01*
X8510401Y-12282150D02*
X8548496Y-12282150D01*
X8548496Y-12282150D02*
X8567544Y-12291674D01*
X8567544Y-12291674D02*
X8577068Y-12310722D01*
X8577068Y-12310722D02*
X8577068Y-12329769D01*
X8577068Y-12329769D02*
X8481830Y-12348817D01*
X8653258Y-12405960D02*
X8672306Y-12415484D01*
X8672306Y-12415484D02*
X8710401Y-12415484D01*
X8710401Y-12415484D02*
X8729449Y-12405960D01*
X8729449Y-12405960D02*
X8738973Y-12386912D01*
X8738973Y-12386912D02*
X8738973Y-12377388D01*
X8738973Y-12377388D02*
X8729449Y-12358341D01*
X8729449Y-12358341D02*
X8710401Y-12348817D01*
X8710401Y-12348817D02*
X8681830Y-12348817D01*
X8681830Y-12348817D02*
X8662782Y-12339293D01*
X8662782Y-12339293D02*
X8653258Y-12320246D01*
X8653258Y-12320246D02*
X8653258Y-12310722D01*
X8653258Y-12310722D02*
X8662782Y-12291674D01*
X8662782Y-12291674D02*
X8681830Y-12282150D01*
X8681830Y-12282150D02*
X8710401Y-12282150D01*
X8710401Y-12282150D02*
X8729449Y-12291674D01*
X8805639Y-12491674D02*
X8815163Y-12482150D01*
X8815163Y-12482150D02*
X8834211Y-12453579D01*
X8834211Y-12453579D02*
X8843734Y-12434531D01*
X8843734Y-12434531D02*
X8853258Y-12405960D01*
X8853258Y-12405960D02*
X8862782Y-12358341D01*
X8862782Y-12358341D02*
X8862782Y-12320246D01*
X8862782Y-12320246D02*
X8853258Y-12272627D01*
X8853258Y-12272627D02*
X8843734Y-12244055D01*
X8843734Y-12244055D02*
X8834211Y-12225008D01*
X8834211Y-12225008D02*
X8815163Y-12196436D01*
X8815163Y-12196436D02*
X8805639Y-12186912D01*
X9167544Y-12491674D02*
X9158020Y-12482150D01*
X9158020Y-12482150D02*
X9138973Y-12453579D01*
X9138973Y-12453579D02*
X9129449Y-12434531D01*
X9129449Y-12434531D02*
X9119925Y-12405960D01*
X9119925Y-12405960D02*
X9110401Y-12358341D01*
X9110401Y-12358341D02*
X9110401Y-12320246D01*
X9110401Y-12320246D02*
X9119925Y-12272627D01*
X9119925Y-12272627D02*
X9129449Y-12244055D01*
X9129449Y-12244055D02*
X9138973Y-12225008D01*
X9138973Y-12225008D02*
X9158020Y-12196436D01*
X9158020Y-12196436D02*
X9167544Y-12186912D01*
X9243734Y-12282150D02*
X9243734Y-12415484D01*
X9243734Y-12301198D02*
X9253258Y-12291674D01*
X9253258Y-12291674D02*
X9272306Y-12282150D01*
X9272306Y-12282150D02*
X9300877Y-12282150D01*
X9300877Y-12282150D02*
X9319925Y-12291674D01*
X9319925Y-12291674D02*
X9329449Y-12310722D01*
X9329449Y-12310722D02*
X9329449Y-12415484D01*
X9453258Y-12415484D02*
X9434211Y-12405960D01*
X9434211Y-12405960D02*
X9424687Y-12396436D01*
X9424687Y-12396436D02*
X9415163Y-12377388D01*
X9415163Y-12377388D02*
X9415163Y-12320246D01*
X9415163Y-12320246D02*
X9424687Y-12301198D01*
X9424687Y-12301198D02*
X9434211Y-12291674D01*
X9434211Y-12291674D02*
X9453258Y-12282150D01*
X9453258Y-12282150D02*
X9481830Y-12282150D01*
X9481830Y-12282150D02*
X9500877Y-12291674D01*
X9500877Y-12291674D02*
X9510401Y-12301198D01*
X9510401Y-12301198D02*
X9519925Y-12320246D01*
X9519925Y-12320246D02*
X9519925Y-12377388D01*
X9519925Y-12377388D02*
X9510401Y-12396436D01*
X9510401Y-12396436D02*
X9500877Y-12405960D01*
X9500877Y-12405960D02*
X9481830Y-12415484D01*
X9481830Y-12415484D02*
X9453258Y-12415484D01*
X9577068Y-12282150D02*
X9653258Y-12282150D01*
X9605639Y-12215484D02*
X9605639Y-12386912D01*
X9605639Y-12386912D02*
X9615163Y-12405960D01*
X9615163Y-12405960D02*
X9634211Y-12415484D01*
X9634211Y-12415484D02*
X9653258Y-12415484D01*
X9872306Y-12282150D02*
X9872306Y-12482150D01*
X9872306Y-12291674D02*
X9891354Y-12282150D01*
X9891354Y-12282150D02*
X9929449Y-12282150D01*
X9929449Y-12282150D02*
X9948496Y-12291674D01*
X9948496Y-12291674D02*
X9958020Y-12301198D01*
X9958020Y-12301198D02*
X9967544Y-12320246D01*
X9967544Y-12320246D02*
X9967544Y-12377388D01*
X9967544Y-12377388D02*
X9958020Y-12396436D01*
X9958020Y-12396436D02*
X9948496Y-12405960D01*
X9948496Y-12405960D02*
X9929449Y-12415484D01*
X9929449Y-12415484D02*
X9891354Y-12415484D01*
X9891354Y-12415484D02*
X9872306Y-12405960D01*
X10081830Y-12415484D02*
X10062782Y-12405960D01*
X10062782Y-12405960D02*
X10053258Y-12386912D01*
X10053258Y-12386912D02*
X10053258Y-12215484D01*
X10243735Y-12415484D02*
X10243735Y-12310722D01*
X10243735Y-12310722D02*
X10234211Y-12291674D01*
X10234211Y-12291674D02*
X10215163Y-12282150D01*
X10215163Y-12282150D02*
X10177068Y-12282150D01*
X10177068Y-12282150D02*
X10158020Y-12291674D01*
X10243735Y-12405960D02*
X10224687Y-12415484D01*
X10224687Y-12415484D02*
X10177068Y-12415484D01*
X10177068Y-12415484D02*
X10158020Y-12405960D01*
X10158020Y-12405960D02*
X10148496Y-12386912D01*
X10148496Y-12386912D02*
X10148496Y-12367865D01*
X10148496Y-12367865D02*
X10158020Y-12348817D01*
X10158020Y-12348817D02*
X10177068Y-12339293D01*
X10177068Y-12339293D02*
X10224687Y-12339293D01*
X10224687Y-12339293D02*
X10243735Y-12329769D01*
X10310401Y-12282150D02*
X10386592Y-12282150D01*
X10338973Y-12215484D02*
X10338973Y-12386912D01*
X10338973Y-12386912D02*
X10348496Y-12405960D01*
X10348496Y-12405960D02*
X10367544Y-12415484D01*
X10367544Y-12415484D02*
X10386592Y-12415484D01*
X10529449Y-12405960D02*
X10510401Y-12415484D01*
X10510401Y-12415484D02*
X10472306Y-12415484D01*
X10472306Y-12415484D02*
X10453258Y-12405960D01*
X10453258Y-12405960D02*
X10443735Y-12386912D01*
X10443735Y-12386912D02*
X10443735Y-12310722D01*
X10443735Y-12310722D02*
X10453258Y-12291674D01*
X10453258Y-12291674D02*
X10472306Y-12282150D01*
X10472306Y-12282150D02*
X10510401Y-12282150D01*
X10510401Y-12282150D02*
X10529449Y-12291674D01*
X10529449Y-12291674D02*
X10538973Y-12310722D01*
X10538973Y-12310722D02*
X10538973Y-12329769D01*
X10538973Y-12329769D02*
X10443735Y-12348817D01*
X10710401Y-12415484D02*
X10710401Y-12215484D01*
X10710401Y-12405960D02*
X10691354Y-12415484D01*
X10691354Y-12415484D02*
X10653258Y-12415484D01*
X10653258Y-12415484D02*
X10634211Y-12405960D01*
X10634211Y-12405960D02*
X10624687Y-12396436D01*
X10624687Y-12396436D02*
X10615163Y-12377388D01*
X10615163Y-12377388D02*
X10615163Y-12320246D01*
X10615163Y-12320246D02*
X10624687Y-12301198D01*
X10624687Y-12301198D02*
X10634211Y-12291674D01*
X10634211Y-12291674D02*
X10653258Y-12282150D01*
X10653258Y-12282150D02*
X10691354Y-12282150D01*
X10691354Y-12282150D02*
X10710401Y-12291674D01*
X10786592Y-12491674D02*
X10796116Y-12482150D01*
X10796116Y-12482150D02*
X10815163Y-12453579D01*
X10815163Y-12453579D02*
X10824687Y-12434531D01*
X10824687Y-12434531D02*
X10834211Y-12405960D01*
X10834211Y-12405960D02*
X10843735Y-12358341D01*
X10843735Y-12358341D02*
X10843735Y-12320246D01*
X10843735Y-12320246D02*
X10834211Y-12272627D01*
X10834211Y-12272627D02*
X10824687Y-12244055D01*
X10824687Y-12244055D02*
X10815163Y-12225008D01*
X10815163Y-12225008D02*
X10796116Y-12196436D01*
X10796116Y-12196436D02*
X10786592Y-12186912D01*
X3640100Y-12544000D02*
X3840100Y-12744000D01*
X3840100Y-12544000D02*
X3640100Y-12744000D01*
X3840100Y-12644000D02*
G75*
G03*
X3840100Y-12644000I-100000J0D01*
G01*
X4081829Y-12535484D02*
X4205639Y-12535484D01*
X4205639Y-12535484D02*
X4138972Y-12611674D01*
X4138972Y-12611674D02*
X4167543Y-12611674D01*
X4167543Y-12611674D02*
X4186591Y-12621198D01*
X4186591Y-12621198D02*
X4196115Y-12630722D01*
X4196115Y-12630722D02*
X4205639Y-12649769D01*
X4205639Y-12649769D02*
X4205639Y-12697388D01*
X4205639Y-12697388D02*
X4196115Y-12716436D01*
X4196115Y-12716436D02*
X4186591Y-12725960D01*
X4186591Y-12725960D02*
X4167543Y-12735484D01*
X4167543Y-12735484D02*
X4110401Y-12735484D01*
X4110401Y-12735484D02*
X4091353Y-12725960D01*
X4091353Y-12725960D02*
X4081829Y-12716436D01*
X4291353Y-12716436D02*
X4300877Y-12725960D01*
X4300877Y-12725960D02*
X4291353Y-12735484D01*
X4291353Y-12735484D02*
X4281829Y-12725960D01*
X4281829Y-12725960D02*
X4291353Y-12716436D01*
X4291353Y-12716436D02*
X4291353Y-12735484D01*
X4481829Y-12535484D02*
X4386591Y-12535484D01*
X4386591Y-12535484D02*
X4377067Y-12630722D01*
X4377067Y-12630722D02*
X4386591Y-12621198D01*
X4386591Y-12621198D02*
X4405639Y-12611674D01*
X4405639Y-12611674D02*
X4453258Y-12611674D01*
X4453258Y-12611674D02*
X4472305Y-12621198D01*
X4472305Y-12621198D02*
X4481829Y-12630722D01*
X4481829Y-12630722D02*
X4491353Y-12649769D01*
X4491353Y-12649769D02*
X4491353Y-12697388D01*
X4491353Y-12697388D02*
X4481829Y-12716436D01*
X4481829Y-12716436D02*
X4472305Y-12725960D01*
X4472305Y-12725960D02*
X4453258Y-12735484D01*
X4453258Y-12735484D02*
X4405639Y-12735484D01*
X4405639Y-12735484D02*
X4386591Y-12725960D01*
X4386591Y-12725960D02*
X4377067Y-12716436D01*
X4615163Y-12535484D02*
X4634210Y-12535484D01*
X4634210Y-12535484D02*
X4653258Y-12545008D01*
X4653258Y-12545008D02*
X4662782Y-12554531D01*
X4662782Y-12554531D02*
X4672305Y-12573579D01*
X4672305Y-12573579D02*
X4681829Y-12611674D01*
X4681829Y-12611674D02*
X4681829Y-12659293D01*
X4681829Y-12659293D02*
X4672305Y-12697388D01*
X4672305Y-12697388D02*
X4662782Y-12716436D01*
X4662782Y-12716436D02*
X4653258Y-12725960D01*
X4653258Y-12725960D02*
X4634210Y-12735484D01*
X4634210Y-12735484D02*
X4615163Y-12735484D01*
X4615163Y-12735484D02*
X4596115Y-12725960D01*
X4596115Y-12725960D02*
X4586591Y-12716436D01*
X4586591Y-12716436D02*
X4577067Y-12697388D01*
X4577067Y-12697388D02*
X4567544Y-12659293D01*
X4567544Y-12659293D02*
X4567544Y-12611674D01*
X4567544Y-12611674D02*
X4577067Y-12573579D01*
X4577067Y-12573579D02*
X4586591Y-12554531D01*
X4586591Y-12554531D02*
X4596115Y-12545008D01*
X4596115Y-12545008D02*
X4615163Y-12535484D01*
X4805639Y-12535484D02*
X4824686Y-12535484D01*
X4824686Y-12535484D02*
X4843734Y-12545008D01*
X4843734Y-12545008D02*
X4853258Y-12554531D01*
X4853258Y-12554531D02*
X4862782Y-12573579D01*
X4862782Y-12573579D02*
X4872305Y-12611674D01*
X4872305Y-12611674D02*
X4872305Y-12659293D01*
X4872305Y-12659293D02*
X4862782Y-12697388D01*
X4862782Y-12697388D02*
X4853258Y-12716436D01*
X4853258Y-12716436D02*
X4843734Y-12725960D01*
X4843734Y-12725960D02*
X4824686Y-12735484D01*
X4824686Y-12735484D02*
X4805639Y-12735484D01*
X4805639Y-12735484D02*
X4786591Y-12725960D01*
X4786591Y-12725960D02*
X4777067Y-12716436D01*
X4777067Y-12716436D02*
X4767544Y-12697388D01*
X4767544Y-12697388D02*
X4758020Y-12659293D01*
X4758020Y-12659293D02*
X4758020Y-12611674D01*
X4758020Y-12611674D02*
X4767544Y-12573579D01*
X4767544Y-12573579D02*
X4777067Y-12554531D01*
X4777067Y-12554531D02*
X4786591Y-12545008D01*
X4786591Y-12545008D02*
X4805639Y-12535484D01*
X4958020Y-12735484D02*
X4958020Y-12602150D01*
X4958020Y-12621198D02*
X4967544Y-12611674D01*
X4967544Y-12611674D02*
X4986591Y-12602150D01*
X4986591Y-12602150D02*
X5015163Y-12602150D01*
X5015163Y-12602150D02*
X5034210Y-12611674D01*
X5034210Y-12611674D02*
X5043734Y-12630722D01*
X5043734Y-12630722D02*
X5043734Y-12735484D01*
X5043734Y-12630722D02*
X5053258Y-12611674D01*
X5053258Y-12611674D02*
X5072305Y-12602150D01*
X5072305Y-12602150D02*
X5100877Y-12602150D01*
X5100877Y-12602150D02*
X5119925Y-12611674D01*
X5119925Y-12611674D02*
X5129448Y-12630722D01*
X5129448Y-12630722D02*
X5129448Y-12735484D01*
X5224686Y-12735484D02*
X5224686Y-12602150D01*
X5224686Y-12621198D02*
X5234210Y-12611674D01*
X5234210Y-12611674D02*
X5253258Y-12602150D01*
X5253258Y-12602150D02*
X5281829Y-12602150D01*
X5281829Y-12602150D02*
X5300877Y-12611674D01*
X5300877Y-12611674D02*
X5310401Y-12630722D01*
X5310401Y-12630722D02*
X5310401Y-12735484D01*
X5310401Y-12630722D02*
X5319925Y-12611674D01*
X5319925Y-12611674D02*
X5338972Y-12602150D01*
X5338972Y-12602150D02*
X5367544Y-12602150D01*
X5367544Y-12602150D02*
X5386591Y-12611674D01*
X5386591Y-12611674D02*
X5396115Y-12630722D01*
X5396115Y-12630722D02*
X5396115Y-12735484D01*
X5786591Y-12525960D02*
X5615163Y-12783103D01*
X6043734Y-12535484D02*
X6062782Y-12535484D01*
X6062782Y-12535484D02*
X6081829Y-12545008D01*
X6081829Y-12545008D02*
X6091353Y-12554531D01*
X6091353Y-12554531D02*
X6100877Y-12573579D01*
X6100877Y-12573579D02*
X6110401Y-12611674D01*
X6110401Y-12611674D02*
X6110401Y-12659293D01*
X6110401Y-12659293D02*
X6100877Y-12697388D01*
X6100877Y-12697388D02*
X6091353Y-12716436D01*
X6091353Y-12716436D02*
X6081829Y-12725960D01*
X6081829Y-12725960D02*
X6062782Y-12735484D01*
X6062782Y-12735484D02*
X6043734Y-12735484D01*
X6043734Y-12735484D02*
X6024686Y-12725960D01*
X6024686Y-12725960D02*
X6015163Y-12716436D01*
X6015163Y-12716436D02*
X6005639Y-12697388D01*
X6005639Y-12697388D02*
X5996115Y-12659293D01*
X5996115Y-12659293D02*
X5996115Y-12611674D01*
X5996115Y-12611674D02*
X6005639Y-12573579D01*
X6005639Y-12573579D02*
X6015163Y-12554531D01*
X6015163Y-12554531D02*
X6024686Y-12545008D01*
X6024686Y-12545008D02*
X6043734Y-12535484D01*
X6196115Y-12716436D02*
X6205639Y-12725960D01*
X6205639Y-12725960D02*
X6196115Y-12735484D01*
X6196115Y-12735484D02*
X6186591Y-12725960D01*
X6186591Y-12725960D02*
X6196115Y-12716436D01*
X6196115Y-12716436D02*
X6196115Y-12735484D01*
X6396115Y-12735484D02*
X6281829Y-12735484D01*
X6338972Y-12735484D02*
X6338972Y-12535484D01*
X6338972Y-12535484D02*
X6319925Y-12564055D01*
X6319925Y-12564055D02*
X6300877Y-12583103D01*
X6300877Y-12583103D02*
X6281829Y-12592627D01*
X6462782Y-12535484D02*
X6586591Y-12535484D01*
X6586591Y-12535484D02*
X6519925Y-12611674D01*
X6519925Y-12611674D02*
X6548496Y-12611674D01*
X6548496Y-12611674D02*
X6567544Y-12621198D01*
X6567544Y-12621198D02*
X6577067Y-12630722D01*
X6577067Y-12630722D02*
X6586591Y-12649769D01*
X6586591Y-12649769D02*
X6586591Y-12697388D01*
X6586591Y-12697388D02*
X6577067Y-12716436D01*
X6577067Y-12716436D02*
X6567544Y-12725960D01*
X6567544Y-12725960D02*
X6548496Y-12735484D01*
X6548496Y-12735484D02*
X6491353Y-12735484D01*
X6491353Y-12735484D02*
X6472306Y-12725960D01*
X6472306Y-12725960D02*
X6462782Y-12716436D01*
X6653258Y-12535484D02*
X6786591Y-12535484D01*
X6786591Y-12535484D02*
X6700877Y-12735484D01*
X6891353Y-12621198D02*
X6872306Y-12611674D01*
X6872306Y-12611674D02*
X6862782Y-12602150D01*
X6862782Y-12602150D02*
X6853258Y-12583103D01*
X6853258Y-12583103D02*
X6853258Y-12573579D01*
X6853258Y-12573579D02*
X6862782Y-12554531D01*
X6862782Y-12554531D02*
X6872306Y-12545008D01*
X6872306Y-12545008D02*
X6891353Y-12535484D01*
X6891353Y-12535484D02*
X6929448Y-12535484D01*
X6929448Y-12535484D02*
X6948496Y-12545008D01*
X6948496Y-12545008D02*
X6958020Y-12554531D01*
X6958020Y-12554531D02*
X6967544Y-12573579D01*
X6967544Y-12573579D02*
X6967544Y-12583103D01*
X6967544Y-12583103D02*
X6958020Y-12602150D01*
X6958020Y-12602150D02*
X6948496Y-12611674D01*
X6948496Y-12611674D02*
X6929448Y-12621198D01*
X6929448Y-12621198D02*
X6891353Y-12621198D01*
X6891353Y-12621198D02*
X6872306Y-12630722D01*
X6872306Y-12630722D02*
X6862782Y-12640246D01*
X6862782Y-12640246D02*
X6853258Y-12659293D01*
X6853258Y-12659293D02*
X6853258Y-12697388D01*
X6853258Y-12697388D02*
X6862782Y-12716436D01*
X6862782Y-12716436D02*
X6872306Y-12725960D01*
X6872306Y-12725960D02*
X6891353Y-12735484D01*
X6891353Y-12735484D02*
X6929448Y-12735484D01*
X6929448Y-12735484D02*
X6948496Y-12725960D01*
X6948496Y-12725960D02*
X6958020Y-12716436D01*
X6958020Y-12716436D02*
X6967544Y-12697388D01*
X6967544Y-12697388D02*
X6967544Y-12659293D01*
X6967544Y-12659293D02*
X6958020Y-12640246D01*
X6958020Y-12640246D02*
X6948496Y-12630722D01*
X6948496Y-12630722D02*
X6929448Y-12621198D01*
X7043734Y-12535484D02*
X7043734Y-12573579D01*
X7119925Y-12535484D02*
X7119925Y-12573579D01*
X7415163Y-12811674D02*
X7405639Y-12802150D01*
X7405639Y-12802150D02*
X7386591Y-12773579D01*
X7386591Y-12773579D02*
X7377068Y-12754531D01*
X7377068Y-12754531D02*
X7367544Y-12725960D01*
X7367544Y-12725960D02*
X7358020Y-12678341D01*
X7358020Y-12678341D02*
X7358020Y-12640246D01*
X7358020Y-12640246D02*
X7367544Y-12592627D01*
X7367544Y-12592627D02*
X7377068Y-12564055D01*
X7377068Y-12564055D02*
X7386591Y-12545008D01*
X7386591Y-12545008D02*
X7405639Y-12516436D01*
X7405639Y-12516436D02*
X7415163Y-12506912D01*
X7577068Y-12602150D02*
X7577068Y-12735484D01*
X7529448Y-12525960D02*
X7481829Y-12668817D01*
X7481829Y-12668817D02*
X7605639Y-12668817D01*
X7834210Y-12735484D02*
X7834210Y-12535484D01*
X7919925Y-12735484D02*
X7919925Y-12630722D01*
X7919925Y-12630722D02*
X7910401Y-12611674D01*
X7910401Y-12611674D02*
X7891353Y-12602150D01*
X7891353Y-12602150D02*
X7862782Y-12602150D01*
X7862782Y-12602150D02*
X7843734Y-12611674D01*
X7843734Y-12611674D02*
X7834210Y-12621198D01*
X8043734Y-12735484D02*
X8024687Y-12725960D01*
X8024687Y-12725960D02*
X8015163Y-12716436D01*
X8015163Y-12716436D02*
X8005639Y-12697388D01*
X8005639Y-12697388D02*
X8005639Y-12640246D01*
X8005639Y-12640246D02*
X8015163Y-12621198D01*
X8015163Y-12621198D02*
X8024687Y-12611674D01*
X8024687Y-12611674D02*
X8043734Y-12602150D01*
X8043734Y-12602150D02*
X8072306Y-12602150D01*
X8072306Y-12602150D02*
X8091353Y-12611674D01*
X8091353Y-12611674D02*
X8100877Y-12621198D01*
X8100877Y-12621198D02*
X8110401Y-12640246D01*
X8110401Y-12640246D02*
X8110401Y-12697388D01*
X8110401Y-12697388D02*
X8100877Y-12716436D01*
X8100877Y-12716436D02*
X8091353Y-12725960D01*
X8091353Y-12725960D02*
X8072306Y-12735484D01*
X8072306Y-12735484D02*
X8043734Y-12735484D01*
X8224687Y-12735484D02*
X8205639Y-12725960D01*
X8205639Y-12725960D02*
X8196115Y-12706912D01*
X8196115Y-12706912D02*
X8196115Y-12535484D01*
X8377068Y-12725960D02*
X8358020Y-12735484D01*
X8358020Y-12735484D02*
X8319925Y-12735484D01*
X8319925Y-12735484D02*
X8300877Y-12725960D01*
X8300877Y-12725960D02*
X8291353Y-12706912D01*
X8291353Y-12706912D02*
X8291353Y-12630722D01*
X8291353Y-12630722D02*
X8300877Y-12611674D01*
X8300877Y-12611674D02*
X8319925Y-12602150D01*
X8319925Y-12602150D02*
X8358020Y-12602150D01*
X8358020Y-12602150D02*
X8377068Y-12611674D01*
X8377068Y-12611674D02*
X8386591Y-12630722D01*
X8386591Y-12630722D02*
X8386591Y-12649769D01*
X8386591Y-12649769D02*
X8291353Y-12668817D01*
X8462782Y-12725960D02*
X8481830Y-12735484D01*
X8481830Y-12735484D02*
X8519925Y-12735484D01*
X8519925Y-12735484D02*
X8538973Y-12725960D01*
X8538973Y-12725960D02*
X8548496Y-12706912D01*
X8548496Y-12706912D02*
X8548496Y-12697388D01*
X8548496Y-12697388D02*
X8538973Y-12678341D01*
X8538973Y-12678341D02*
X8519925Y-12668817D01*
X8519925Y-12668817D02*
X8491353Y-12668817D01*
X8491353Y-12668817D02*
X8472306Y-12659293D01*
X8472306Y-12659293D02*
X8462782Y-12640246D01*
X8462782Y-12640246D02*
X8462782Y-12630722D01*
X8462782Y-12630722D02*
X8472306Y-12611674D01*
X8472306Y-12611674D02*
X8491353Y-12602150D01*
X8491353Y-12602150D02*
X8519925Y-12602150D01*
X8519925Y-12602150D02*
X8538973Y-12611674D01*
X8615163Y-12811674D02*
X8624687Y-12802150D01*
X8624687Y-12802150D02*
X8643734Y-12773579D01*
X8643734Y-12773579D02*
X8653258Y-12754531D01*
X8653258Y-12754531D02*
X8662782Y-12725960D01*
X8662782Y-12725960D02*
X8672306Y-12678341D01*
X8672306Y-12678341D02*
X8672306Y-12640246D01*
X8672306Y-12640246D02*
X8662782Y-12592627D01*
X8662782Y-12592627D02*
X8653258Y-12564055D01*
X8653258Y-12564055D02*
X8643734Y-12545008D01*
X8643734Y-12545008D02*
X8624687Y-12516436D01*
X8624687Y-12516436D02*
X8615163Y-12506912D01*
X8977068Y-12811674D02*
X8967544Y-12802150D01*
X8967544Y-12802150D02*
X8948496Y-12773579D01*
X8948496Y-12773579D02*
X8938973Y-12754531D01*
X8938973Y-12754531D02*
X8929449Y-12725960D01*
X8929449Y-12725960D02*
X8919925Y-12678341D01*
X8919925Y-12678341D02*
X8919925Y-12640246D01*
X8919925Y-12640246D02*
X8929449Y-12592627D01*
X8929449Y-12592627D02*
X8938973Y-12564055D01*
X8938973Y-12564055D02*
X8948496Y-12545008D01*
X8948496Y-12545008D02*
X8967544Y-12516436D01*
X8967544Y-12516436D02*
X8977068Y-12506912D01*
X9053258Y-12602150D02*
X9053258Y-12735484D01*
X9053258Y-12621198D02*
X9062782Y-12611674D01*
X9062782Y-12611674D02*
X9081830Y-12602150D01*
X9081830Y-12602150D02*
X9110401Y-12602150D01*
X9110401Y-12602150D02*
X9129449Y-12611674D01*
X9129449Y-12611674D02*
X9138973Y-12630722D01*
X9138973Y-12630722D02*
X9138973Y-12735484D01*
X9262782Y-12735484D02*
X9243734Y-12725960D01*
X9243734Y-12725960D02*
X9234211Y-12716436D01*
X9234211Y-12716436D02*
X9224687Y-12697388D01*
X9224687Y-12697388D02*
X9224687Y-12640246D01*
X9224687Y-12640246D02*
X9234211Y-12621198D01*
X9234211Y-12621198D02*
X9243734Y-12611674D01*
X9243734Y-12611674D02*
X9262782Y-12602150D01*
X9262782Y-12602150D02*
X9291354Y-12602150D01*
X9291354Y-12602150D02*
X9310401Y-12611674D01*
X9310401Y-12611674D02*
X9319925Y-12621198D01*
X9319925Y-12621198D02*
X9329449Y-12640246D01*
X9329449Y-12640246D02*
X9329449Y-12697388D01*
X9329449Y-12697388D02*
X9319925Y-12716436D01*
X9319925Y-12716436D02*
X9310401Y-12725960D01*
X9310401Y-12725960D02*
X9291354Y-12735484D01*
X9291354Y-12735484D02*
X9262782Y-12735484D01*
X9386592Y-12602150D02*
X9462782Y-12602150D01*
X9415163Y-12535484D02*
X9415163Y-12706912D01*
X9415163Y-12706912D02*
X9424687Y-12725960D01*
X9424687Y-12725960D02*
X9443734Y-12735484D01*
X9443734Y-12735484D02*
X9462782Y-12735484D01*
X9681830Y-12602150D02*
X9681830Y-12802150D01*
X9681830Y-12611674D02*
X9700877Y-12602150D01*
X9700877Y-12602150D02*
X9738973Y-12602150D01*
X9738973Y-12602150D02*
X9758020Y-12611674D01*
X9758020Y-12611674D02*
X9767544Y-12621198D01*
X9767544Y-12621198D02*
X9777068Y-12640246D01*
X9777068Y-12640246D02*
X9777068Y-12697388D01*
X9777068Y-12697388D02*
X9767544Y-12716436D01*
X9767544Y-12716436D02*
X9758020Y-12725960D01*
X9758020Y-12725960D02*
X9738973Y-12735484D01*
X9738973Y-12735484D02*
X9700877Y-12735484D01*
X9700877Y-12735484D02*
X9681830Y-12725960D01*
X9891354Y-12735484D02*
X9872306Y-12725960D01*
X9872306Y-12725960D02*
X9862782Y-12706912D01*
X9862782Y-12706912D02*
X9862782Y-12535484D01*
X10053258Y-12735484D02*
X10053258Y-12630722D01*
X10053258Y-12630722D02*
X10043735Y-12611674D01*
X10043735Y-12611674D02*
X10024687Y-12602150D01*
X10024687Y-12602150D02*
X9986592Y-12602150D01*
X9986592Y-12602150D02*
X9967544Y-12611674D01*
X10053258Y-12725960D02*
X10034211Y-12735484D01*
X10034211Y-12735484D02*
X9986592Y-12735484D01*
X9986592Y-12735484D02*
X9967544Y-12725960D01*
X9967544Y-12725960D02*
X9958020Y-12706912D01*
X9958020Y-12706912D02*
X9958020Y-12687865D01*
X9958020Y-12687865D02*
X9967544Y-12668817D01*
X9967544Y-12668817D02*
X9986592Y-12659293D01*
X9986592Y-12659293D02*
X10034211Y-12659293D01*
X10034211Y-12659293D02*
X10053258Y-12649769D01*
X10119925Y-12602150D02*
X10196115Y-12602150D01*
X10148496Y-12535484D02*
X10148496Y-12706912D01*
X10148496Y-12706912D02*
X10158020Y-12725960D01*
X10158020Y-12725960D02*
X10177068Y-12735484D01*
X10177068Y-12735484D02*
X10196115Y-12735484D01*
X10338973Y-12725960D02*
X10319925Y-12735484D01*
X10319925Y-12735484D02*
X10281830Y-12735484D01*
X10281830Y-12735484D02*
X10262782Y-12725960D01*
X10262782Y-12725960D02*
X10253258Y-12706912D01*
X10253258Y-12706912D02*
X10253258Y-12630722D01*
X10253258Y-12630722D02*
X10262782Y-12611674D01*
X10262782Y-12611674D02*
X10281830Y-12602150D01*
X10281830Y-12602150D02*
X10319925Y-12602150D01*
X10319925Y-12602150D02*
X10338973Y-12611674D01*
X10338973Y-12611674D02*
X10348496Y-12630722D01*
X10348496Y-12630722D02*
X10348496Y-12649769D01*
X10348496Y-12649769D02*
X10253258Y-12668817D01*
X10519925Y-12735484D02*
X10519925Y-12535484D01*
X10519925Y-12725960D02*
X10500877Y-12735484D01*
X10500877Y-12735484D02*
X10462782Y-12735484D01*
X10462782Y-12735484D02*
X10443735Y-12725960D01*
X10443735Y-12725960D02*
X10434211Y-12716436D01*
X10434211Y-12716436D02*
X10424687Y-12697388D01*
X10424687Y-12697388D02*
X10424687Y-12640246D01*
X10424687Y-12640246D02*
X10434211Y-12621198D01*
X10434211Y-12621198D02*
X10443735Y-12611674D01*
X10443735Y-12611674D02*
X10462782Y-12602150D01*
X10462782Y-12602150D02*
X10500877Y-12602150D01*
X10500877Y-12602150D02*
X10519925Y-12611674D01*
X10596116Y-12811674D02*
X10605639Y-12802150D01*
X10605639Y-12802150D02*
X10624687Y-12773579D01*
X10624687Y-12773579D02*
X10634211Y-12754531D01*
X10634211Y-12754531D02*
X10643735Y-12725960D01*
X10643735Y-12725960D02*
X10653258Y-12678341D01*
X10653258Y-12678341D02*
X10653258Y-12640246D01*
X10653258Y-12640246D02*
X10643735Y-12592627D01*
X10643735Y-12592627D02*
X10634211Y-12564055D01*
X10634211Y-12564055D02*
X10624687Y-12545008D01*
X10624687Y-12545008D02*
X10605639Y-12516436D01*
X10605639Y-12516436D02*
X10596116Y-12506912D01*
X3640100Y-12864000D02*
X3840100Y-13064000D01*
X3840100Y-12864000D02*
X3640100Y-13064000D01*
X3740100Y-12864000D02*
X3740100Y-13064000D01*
X3640100Y-12964000D02*
X3840100Y-12964000D01*
X4196115Y-12855484D02*
X4100877Y-12855484D01*
X4100877Y-12855484D02*
X4091353Y-12950722D01*
X4091353Y-12950722D02*
X4100877Y-12941198D01*
X4100877Y-12941198D02*
X4119924Y-12931674D01*
X4119924Y-12931674D02*
X4167543Y-12931674D01*
X4167543Y-12931674D02*
X4186591Y-12941198D01*
X4186591Y-12941198D02*
X4196115Y-12950722D01*
X4196115Y-12950722D02*
X4205639Y-12969769D01*
X4205639Y-12969769D02*
X4205639Y-13017388D01*
X4205639Y-13017388D02*
X4196115Y-13036436D01*
X4196115Y-13036436D02*
X4186591Y-13045960D01*
X4186591Y-13045960D02*
X4167543Y-13055484D01*
X4167543Y-13055484D02*
X4119924Y-13055484D01*
X4119924Y-13055484D02*
X4100877Y-13045960D01*
X4100877Y-13045960D02*
X4091353Y-13036436D01*
X4291353Y-13036436D02*
X4300877Y-13045960D01*
X4300877Y-13045960D02*
X4291353Y-13055484D01*
X4291353Y-13055484D02*
X4281829Y-13045960D01*
X4281829Y-13045960D02*
X4291353Y-13036436D01*
X4291353Y-13036436D02*
X4291353Y-13055484D01*
X4424686Y-12855484D02*
X4443734Y-12855484D01*
X4443734Y-12855484D02*
X4462782Y-12865008D01*
X4462782Y-12865008D02*
X4472305Y-12874531D01*
X4472305Y-12874531D02*
X4481829Y-12893579D01*
X4481829Y-12893579D02*
X4491353Y-12931674D01*
X4491353Y-12931674D02*
X4491353Y-12979293D01*
X4491353Y-12979293D02*
X4481829Y-13017388D01*
X4481829Y-13017388D02*
X4472305Y-13036436D01*
X4472305Y-13036436D02*
X4462782Y-13045960D01*
X4462782Y-13045960D02*
X4443734Y-13055484D01*
X4443734Y-13055484D02*
X4424686Y-13055484D01*
X4424686Y-13055484D02*
X4405639Y-13045960D01*
X4405639Y-13045960D02*
X4396115Y-13036436D01*
X4396115Y-13036436D02*
X4386591Y-13017388D01*
X4386591Y-13017388D02*
X4377067Y-12979293D01*
X4377067Y-12979293D02*
X4377067Y-12931674D01*
X4377067Y-12931674D02*
X4386591Y-12893579D01*
X4386591Y-12893579D02*
X4396115Y-12874531D01*
X4396115Y-12874531D02*
X4405639Y-12865008D01*
X4405639Y-12865008D02*
X4424686Y-12855484D01*
X4672305Y-12855484D02*
X4577067Y-12855484D01*
X4577067Y-12855484D02*
X4567544Y-12950722D01*
X4567544Y-12950722D02*
X4577067Y-12941198D01*
X4577067Y-12941198D02*
X4596115Y-12931674D01*
X4596115Y-12931674D02*
X4643734Y-12931674D01*
X4643734Y-12931674D02*
X4662782Y-12941198D01*
X4662782Y-12941198D02*
X4672305Y-12950722D01*
X4672305Y-12950722D02*
X4681829Y-12969769D01*
X4681829Y-12969769D02*
X4681829Y-13017388D01*
X4681829Y-13017388D02*
X4672305Y-13036436D01*
X4672305Y-13036436D02*
X4662782Y-13045960D01*
X4662782Y-13045960D02*
X4643734Y-13055484D01*
X4643734Y-13055484D02*
X4596115Y-13055484D01*
X4596115Y-13055484D02*
X4577067Y-13045960D01*
X4577067Y-13045960D02*
X4567544Y-13036436D01*
X4805639Y-12855484D02*
X4824686Y-12855484D01*
X4824686Y-12855484D02*
X4843734Y-12865008D01*
X4843734Y-12865008D02*
X4853258Y-12874531D01*
X4853258Y-12874531D02*
X4862782Y-12893579D01*
X4862782Y-12893579D02*
X4872305Y-12931674D01*
X4872305Y-12931674D02*
X4872305Y-12979293D01*
X4872305Y-12979293D02*
X4862782Y-13017388D01*
X4862782Y-13017388D02*
X4853258Y-13036436D01*
X4853258Y-13036436D02*
X4843734Y-13045960D01*
X4843734Y-13045960D02*
X4824686Y-13055484D01*
X4824686Y-13055484D02*
X4805639Y-13055484D01*
X4805639Y-13055484D02*
X4786591Y-13045960D01*
X4786591Y-13045960D02*
X4777067Y-13036436D01*
X4777067Y-13036436D02*
X4767544Y-13017388D01*
X4767544Y-13017388D02*
X4758020Y-12979293D01*
X4758020Y-12979293D02*
X4758020Y-12931674D01*
X4758020Y-12931674D02*
X4767544Y-12893579D01*
X4767544Y-12893579D02*
X4777067Y-12874531D01*
X4777067Y-12874531D02*
X4786591Y-12865008D01*
X4786591Y-12865008D02*
X4805639Y-12855484D01*
X4958020Y-13055484D02*
X4958020Y-12922150D01*
X4958020Y-12941198D02*
X4967544Y-12931674D01*
X4967544Y-12931674D02*
X4986591Y-12922150D01*
X4986591Y-12922150D02*
X5015163Y-12922150D01*
X5015163Y-12922150D02*
X5034210Y-12931674D01*
X5034210Y-12931674D02*
X5043734Y-12950722D01*
X5043734Y-12950722D02*
X5043734Y-13055484D01*
X5043734Y-12950722D02*
X5053258Y-12931674D01*
X5053258Y-12931674D02*
X5072305Y-12922150D01*
X5072305Y-12922150D02*
X5100877Y-12922150D01*
X5100877Y-12922150D02*
X5119925Y-12931674D01*
X5119925Y-12931674D02*
X5129448Y-12950722D01*
X5129448Y-12950722D02*
X5129448Y-13055484D01*
X5224686Y-13055484D02*
X5224686Y-12922150D01*
X5224686Y-12941198D02*
X5234210Y-12931674D01*
X5234210Y-12931674D02*
X5253258Y-12922150D01*
X5253258Y-12922150D02*
X5281829Y-12922150D01*
X5281829Y-12922150D02*
X5300877Y-12931674D01*
X5300877Y-12931674D02*
X5310401Y-12950722D01*
X5310401Y-12950722D02*
X5310401Y-13055484D01*
X5310401Y-12950722D02*
X5319925Y-12931674D01*
X5319925Y-12931674D02*
X5338972Y-12922150D01*
X5338972Y-12922150D02*
X5367544Y-12922150D01*
X5367544Y-12922150D02*
X5386591Y-12931674D01*
X5386591Y-12931674D02*
X5396115Y-12950722D01*
X5396115Y-12950722D02*
X5396115Y-13055484D01*
X5786591Y-12845960D02*
X5615163Y-13103103D01*
X6043734Y-12855484D02*
X6062782Y-12855484D01*
X6062782Y-12855484D02*
X6081829Y-12865008D01*
X6081829Y-12865008D02*
X6091353Y-12874531D01*
X6091353Y-12874531D02*
X6100877Y-12893579D01*
X6100877Y-12893579D02*
X6110401Y-12931674D01*
X6110401Y-12931674D02*
X6110401Y-12979293D01*
X6110401Y-12979293D02*
X6100877Y-13017388D01*
X6100877Y-13017388D02*
X6091353Y-13036436D01*
X6091353Y-13036436D02*
X6081829Y-13045960D01*
X6081829Y-13045960D02*
X6062782Y-13055484D01*
X6062782Y-13055484D02*
X6043734Y-13055484D01*
X6043734Y-13055484D02*
X6024686Y-13045960D01*
X6024686Y-13045960D02*
X6015163Y-13036436D01*
X6015163Y-13036436D02*
X6005639Y-13017388D01*
X6005639Y-13017388D02*
X5996115Y-12979293D01*
X5996115Y-12979293D02*
X5996115Y-12931674D01*
X5996115Y-12931674D02*
X6005639Y-12893579D01*
X6005639Y-12893579D02*
X6015163Y-12874531D01*
X6015163Y-12874531D02*
X6024686Y-12865008D01*
X6024686Y-12865008D02*
X6043734Y-12855484D01*
X6196115Y-13036436D02*
X6205639Y-13045960D01*
X6205639Y-13045960D02*
X6196115Y-13055484D01*
X6196115Y-13055484D02*
X6186591Y-13045960D01*
X6186591Y-13045960D02*
X6196115Y-13036436D01*
X6196115Y-13036436D02*
X6196115Y-13055484D01*
X6396115Y-13055484D02*
X6281829Y-13055484D01*
X6338972Y-13055484D02*
X6338972Y-12855484D01*
X6338972Y-12855484D02*
X6319925Y-12884055D01*
X6319925Y-12884055D02*
X6300877Y-12903103D01*
X6300877Y-12903103D02*
X6281829Y-12912627D01*
X6491353Y-13055484D02*
X6529448Y-13055484D01*
X6529448Y-13055484D02*
X6548496Y-13045960D01*
X6548496Y-13045960D02*
X6558020Y-13036436D01*
X6558020Y-13036436D02*
X6577067Y-13007865D01*
X6577067Y-13007865D02*
X6586591Y-12969769D01*
X6586591Y-12969769D02*
X6586591Y-12893579D01*
X6586591Y-12893579D02*
X6577067Y-12874531D01*
X6577067Y-12874531D02*
X6567544Y-12865008D01*
X6567544Y-12865008D02*
X6548496Y-12855484D01*
X6548496Y-12855484D02*
X6510401Y-12855484D01*
X6510401Y-12855484D02*
X6491353Y-12865008D01*
X6491353Y-12865008D02*
X6481829Y-12874531D01*
X6481829Y-12874531D02*
X6472306Y-12893579D01*
X6472306Y-12893579D02*
X6472306Y-12941198D01*
X6472306Y-12941198D02*
X6481829Y-12960246D01*
X6481829Y-12960246D02*
X6491353Y-12969769D01*
X6491353Y-12969769D02*
X6510401Y-12979293D01*
X6510401Y-12979293D02*
X6548496Y-12979293D01*
X6548496Y-12979293D02*
X6567544Y-12969769D01*
X6567544Y-12969769D02*
X6577067Y-12960246D01*
X6577067Y-12960246D02*
X6586591Y-12941198D01*
X6700877Y-12941198D02*
X6681829Y-12931674D01*
X6681829Y-12931674D02*
X6672306Y-12922150D01*
X6672306Y-12922150D02*
X6662782Y-12903103D01*
X6662782Y-12903103D02*
X6662782Y-12893579D01*
X6662782Y-12893579D02*
X6672306Y-12874531D01*
X6672306Y-12874531D02*
X6681829Y-12865008D01*
X6681829Y-12865008D02*
X6700877Y-12855484D01*
X6700877Y-12855484D02*
X6738972Y-12855484D01*
X6738972Y-12855484D02*
X6758020Y-12865008D01*
X6758020Y-12865008D02*
X6767544Y-12874531D01*
X6767544Y-12874531D02*
X6777067Y-12893579D01*
X6777067Y-12893579D02*
X6777067Y-12903103D01*
X6777067Y-12903103D02*
X6767544Y-12922150D01*
X6767544Y-12922150D02*
X6758020Y-12931674D01*
X6758020Y-12931674D02*
X6738972Y-12941198D01*
X6738972Y-12941198D02*
X6700877Y-12941198D01*
X6700877Y-12941198D02*
X6681829Y-12950722D01*
X6681829Y-12950722D02*
X6672306Y-12960246D01*
X6672306Y-12960246D02*
X6662782Y-12979293D01*
X6662782Y-12979293D02*
X6662782Y-13017388D01*
X6662782Y-13017388D02*
X6672306Y-13036436D01*
X6672306Y-13036436D02*
X6681829Y-13045960D01*
X6681829Y-13045960D02*
X6700877Y-13055484D01*
X6700877Y-13055484D02*
X6738972Y-13055484D01*
X6738972Y-13055484D02*
X6758020Y-13045960D01*
X6758020Y-13045960D02*
X6767544Y-13036436D01*
X6767544Y-13036436D02*
X6777067Y-13017388D01*
X6777067Y-13017388D02*
X6777067Y-12979293D01*
X6777067Y-12979293D02*
X6767544Y-12960246D01*
X6767544Y-12960246D02*
X6758020Y-12950722D01*
X6758020Y-12950722D02*
X6738972Y-12941198D01*
X6891353Y-12941198D02*
X6872306Y-12931674D01*
X6872306Y-12931674D02*
X6862782Y-12922150D01*
X6862782Y-12922150D02*
X6853258Y-12903103D01*
X6853258Y-12903103D02*
X6853258Y-12893579D01*
X6853258Y-12893579D02*
X6862782Y-12874531D01*
X6862782Y-12874531D02*
X6872306Y-12865008D01*
X6872306Y-12865008D02*
X6891353Y-12855484D01*
X6891353Y-12855484D02*
X6929448Y-12855484D01*
X6929448Y-12855484D02*
X6948496Y-12865008D01*
X6948496Y-12865008D02*
X6958020Y-12874531D01*
X6958020Y-12874531D02*
X6967544Y-12893579D01*
X6967544Y-12893579D02*
X6967544Y-12903103D01*
X6967544Y-12903103D02*
X6958020Y-12922150D01*
X6958020Y-12922150D02*
X6948496Y-12931674D01*
X6948496Y-12931674D02*
X6929448Y-12941198D01*
X6929448Y-12941198D02*
X6891353Y-12941198D01*
X6891353Y-12941198D02*
X6872306Y-12950722D01*
X6872306Y-12950722D02*
X6862782Y-12960246D01*
X6862782Y-12960246D02*
X6853258Y-12979293D01*
X6853258Y-12979293D02*
X6853258Y-13017388D01*
X6853258Y-13017388D02*
X6862782Y-13036436D01*
X6862782Y-13036436D02*
X6872306Y-13045960D01*
X6872306Y-13045960D02*
X6891353Y-13055484D01*
X6891353Y-13055484D02*
X6929448Y-13055484D01*
X6929448Y-13055484D02*
X6948496Y-13045960D01*
X6948496Y-13045960D02*
X6958020Y-13036436D01*
X6958020Y-13036436D02*
X6967544Y-13017388D01*
X6967544Y-13017388D02*
X6967544Y-12979293D01*
X6967544Y-12979293D02*
X6958020Y-12960246D01*
X6958020Y-12960246D02*
X6948496Y-12950722D01*
X6948496Y-12950722D02*
X6929448Y-12941198D01*
X7043734Y-12855484D02*
X7043734Y-12893579D01*
X7119925Y-12855484D02*
X7119925Y-12893579D01*
X7415163Y-13131674D02*
X7405639Y-13122150D01*
X7405639Y-13122150D02*
X7386591Y-13093579D01*
X7386591Y-13093579D02*
X7377068Y-13074531D01*
X7377068Y-13074531D02*
X7367544Y-13045960D01*
X7367544Y-13045960D02*
X7358020Y-12998341D01*
X7358020Y-12998341D02*
X7358020Y-12960246D01*
X7358020Y-12960246D02*
X7367544Y-12912627D01*
X7367544Y-12912627D02*
X7377068Y-12884055D01*
X7377068Y-12884055D02*
X7386591Y-12865008D01*
X7386591Y-12865008D02*
X7405639Y-12836436D01*
X7405639Y-12836436D02*
X7415163Y-12826912D01*
X7481829Y-12874531D02*
X7491353Y-12865008D01*
X7491353Y-12865008D02*
X7510401Y-12855484D01*
X7510401Y-12855484D02*
X7558020Y-12855484D01*
X7558020Y-12855484D02*
X7577068Y-12865008D01*
X7577068Y-12865008D02*
X7586591Y-12874531D01*
X7586591Y-12874531D02*
X7596115Y-12893579D01*
X7596115Y-12893579D02*
X7596115Y-12912627D01*
X7596115Y-12912627D02*
X7586591Y-12941198D01*
X7586591Y-12941198D02*
X7472306Y-13055484D01*
X7472306Y-13055484D02*
X7596115Y-13055484D01*
X7767544Y-12922150D02*
X7767544Y-13055484D01*
X7719925Y-12845960D02*
X7672306Y-12988817D01*
X7672306Y-12988817D02*
X7796115Y-12988817D01*
X8024687Y-13055484D02*
X8024687Y-12855484D01*
X8110401Y-13055484D02*
X8110401Y-12950722D01*
X8110401Y-12950722D02*
X8100877Y-12931674D01*
X8100877Y-12931674D02*
X8081830Y-12922150D01*
X8081830Y-12922150D02*
X8053258Y-12922150D01*
X8053258Y-12922150D02*
X8034210Y-12931674D01*
X8034210Y-12931674D02*
X8024687Y-12941198D01*
X8234210Y-13055484D02*
X8215163Y-13045960D01*
X8215163Y-13045960D02*
X8205639Y-13036436D01*
X8205639Y-13036436D02*
X8196115Y-13017388D01*
X8196115Y-13017388D02*
X8196115Y-12960246D01*
X8196115Y-12960246D02*
X8205639Y-12941198D01*
X8205639Y-12941198D02*
X8215163Y-12931674D01*
X8215163Y-12931674D02*
X8234210Y-12922150D01*
X8234210Y-12922150D02*
X8262782Y-12922150D01*
X8262782Y-12922150D02*
X8281830Y-12931674D01*
X8281830Y-12931674D02*
X8291353Y-12941198D01*
X8291353Y-12941198D02*
X8300877Y-12960246D01*
X8300877Y-12960246D02*
X8300877Y-13017388D01*
X8300877Y-13017388D02*
X8291353Y-13036436D01*
X8291353Y-13036436D02*
X8281830Y-13045960D01*
X8281830Y-13045960D02*
X8262782Y-13055484D01*
X8262782Y-13055484D02*
X8234210Y-13055484D01*
X8415163Y-13055484D02*
X8396115Y-13045960D01*
X8396115Y-13045960D02*
X8386591Y-13026912D01*
X8386591Y-13026912D02*
X8386591Y-12855484D01*
X8567544Y-13045960D02*
X8548496Y-13055484D01*
X8548496Y-13055484D02*
X8510401Y-13055484D01*
X8510401Y-13055484D02*
X8491353Y-13045960D01*
X8491353Y-13045960D02*
X8481830Y-13026912D01*
X8481830Y-13026912D02*
X8481830Y-12950722D01*
X8481830Y-12950722D02*
X8491353Y-12931674D01*
X8491353Y-12931674D02*
X8510401Y-12922150D01*
X8510401Y-12922150D02*
X8548496Y-12922150D01*
X8548496Y-12922150D02*
X8567544Y-12931674D01*
X8567544Y-12931674D02*
X8577068Y-12950722D01*
X8577068Y-12950722D02*
X8577068Y-12969769D01*
X8577068Y-12969769D02*
X8481830Y-12988817D01*
X8653258Y-13045960D02*
X8672306Y-13055484D01*
X8672306Y-13055484D02*
X8710401Y-13055484D01*
X8710401Y-13055484D02*
X8729449Y-13045960D01*
X8729449Y-13045960D02*
X8738973Y-13026912D01*
X8738973Y-13026912D02*
X8738973Y-13017388D01*
X8738973Y-13017388D02*
X8729449Y-12998341D01*
X8729449Y-12998341D02*
X8710401Y-12988817D01*
X8710401Y-12988817D02*
X8681830Y-12988817D01*
X8681830Y-12988817D02*
X8662782Y-12979293D01*
X8662782Y-12979293D02*
X8653258Y-12960246D01*
X8653258Y-12960246D02*
X8653258Y-12950722D01*
X8653258Y-12950722D02*
X8662782Y-12931674D01*
X8662782Y-12931674D02*
X8681830Y-12922150D01*
X8681830Y-12922150D02*
X8710401Y-12922150D01*
X8710401Y-12922150D02*
X8729449Y-12931674D01*
X8805639Y-13131674D02*
X8815163Y-13122150D01*
X8815163Y-13122150D02*
X8834211Y-13093579D01*
X8834211Y-13093579D02*
X8843734Y-13074531D01*
X8843734Y-13074531D02*
X8853258Y-13045960D01*
X8853258Y-13045960D02*
X8862782Y-12998341D01*
X8862782Y-12998341D02*
X8862782Y-12960246D01*
X8862782Y-12960246D02*
X8853258Y-12912627D01*
X8853258Y-12912627D02*
X8843734Y-12884055D01*
X8843734Y-12884055D02*
X8834211Y-12865008D01*
X8834211Y-12865008D02*
X8815163Y-12836436D01*
X8815163Y-12836436D02*
X8805639Y-12826912D01*
X9167544Y-13131674D02*
X9158020Y-13122150D01*
X9158020Y-13122150D02*
X9138973Y-13093579D01*
X9138973Y-13093579D02*
X9129449Y-13074531D01*
X9129449Y-13074531D02*
X9119925Y-13045960D01*
X9119925Y-13045960D02*
X9110401Y-12998341D01*
X9110401Y-12998341D02*
X9110401Y-12960246D01*
X9110401Y-12960246D02*
X9119925Y-12912627D01*
X9119925Y-12912627D02*
X9129449Y-12884055D01*
X9129449Y-12884055D02*
X9138973Y-12865008D01*
X9138973Y-12865008D02*
X9158020Y-12836436D01*
X9158020Y-12836436D02*
X9167544Y-12826912D01*
X9243734Y-12922150D02*
X9243734Y-13055484D01*
X9243734Y-12941198D02*
X9253258Y-12931674D01*
X9253258Y-12931674D02*
X9272306Y-12922150D01*
X9272306Y-12922150D02*
X9300877Y-12922150D01*
X9300877Y-12922150D02*
X9319925Y-12931674D01*
X9319925Y-12931674D02*
X9329449Y-12950722D01*
X9329449Y-12950722D02*
X9329449Y-13055484D01*
X9453258Y-13055484D02*
X9434211Y-13045960D01*
X9434211Y-13045960D02*
X9424687Y-13036436D01*
X9424687Y-13036436D02*
X9415163Y-13017388D01*
X9415163Y-13017388D02*
X9415163Y-12960246D01*
X9415163Y-12960246D02*
X9424687Y-12941198D01*
X9424687Y-12941198D02*
X9434211Y-12931674D01*
X9434211Y-12931674D02*
X9453258Y-12922150D01*
X9453258Y-12922150D02*
X9481830Y-12922150D01*
X9481830Y-12922150D02*
X9500877Y-12931674D01*
X9500877Y-12931674D02*
X9510401Y-12941198D01*
X9510401Y-12941198D02*
X9519925Y-12960246D01*
X9519925Y-12960246D02*
X9519925Y-13017388D01*
X9519925Y-13017388D02*
X9510401Y-13036436D01*
X9510401Y-13036436D02*
X9500877Y-13045960D01*
X9500877Y-13045960D02*
X9481830Y-13055484D01*
X9481830Y-13055484D02*
X9453258Y-13055484D01*
X9577068Y-12922150D02*
X9653258Y-12922150D01*
X9605639Y-12855484D02*
X9605639Y-13026912D01*
X9605639Y-13026912D02*
X9615163Y-13045960D01*
X9615163Y-13045960D02*
X9634211Y-13055484D01*
X9634211Y-13055484D02*
X9653258Y-13055484D01*
X9872306Y-12922150D02*
X9872306Y-13122150D01*
X9872306Y-12931674D02*
X9891354Y-12922150D01*
X9891354Y-12922150D02*
X9929449Y-12922150D01*
X9929449Y-12922150D02*
X9948496Y-12931674D01*
X9948496Y-12931674D02*
X9958020Y-12941198D01*
X9958020Y-12941198D02*
X9967544Y-12960246D01*
X9967544Y-12960246D02*
X9967544Y-13017388D01*
X9967544Y-13017388D02*
X9958020Y-13036436D01*
X9958020Y-13036436D02*
X9948496Y-13045960D01*
X9948496Y-13045960D02*
X9929449Y-13055484D01*
X9929449Y-13055484D02*
X9891354Y-13055484D01*
X9891354Y-13055484D02*
X9872306Y-13045960D01*
X10081830Y-13055484D02*
X10062782Y-13045960D01*
X10062782Y-13045960D02*
X10053258Y-13026912D01*
X10053258Y-13026912D02*
X10053258Y-12855484D01*
X10243735Y-13055484D02*
X10243735Y-12950722D01*
X10243735Y-12950722D02*
X10234211Y-12931674D01*
X10234211Y-12931674D02*
X10215163Y-12922150D01*
X10215163Y-12922150D02*
X10177068Y-12922150D01*
X10177068Y-12922150D02*
X10158020Y-12931674D01*
X10243735Y-13045960D02*
X10224687Y-13055484D01*
X10224687Y-13055484D02*
X10177068Y-13055484D01*
X10177068Y-13055484D02*
X10158020Y-13045960D01*
X10158020Y-13045960D02*
X10148496Y-13026912D01*
X10148496Y-13026912D02*
X10148496Y-13007865D01*
X10148496Y-13007865D02*
X10158020Y-12988817D01*
X10158020Y-12988817D02*
X10177068Y-12979293D01*
X10177068Y-12979293D02*
X10224687Y-12979293D01*
X10224687Y-12979293D02*
X10243735Y-12969769D01*
X10310401Y-12922150D02*
X10386592Y-12922150D01*
X10338973Y-12855484D02*
X10338973Y-13026912D01*
X10338973Y-13026912D02*
X10348496Y-13045960D01*
X10348496Y-13045960D02*
X10367544Y-13055484D01*
X10367544Y-13055484D02*
X10386592Y-13055484D01*
X10529449Y-13045960D02*
X10510401Y-13055484D01*
X10510401Y-13055484D02*
X10472306Y-13055484D01*
X10472306Y-13055484D02*
X10453258Y-13045960D01*
X10453258Y-13045960D02*
X10443735Y-13026912D01*
X10443735Y-13026912D02*
X10443735Y-12950722D01*
X10443735Y-12950722D02*
X10453258Y-12931674D01*
X10453258Y-12931674D02*
X10472306Y-12922150D01*
X10472306Y-12922150D02*
X10510401Y-12922150D01*
X10510401Y-12922150D02*
X10529449Y-12931674D01*
X10529449Y-12931674D02*
X10538973Y-12950722D01*
X10538973Y-12950722D02*
X10538973Y-12969769D01*
X10538973Y-12969769D02*
X10443735Y-12988817D01*
X10710401Y-13055484D02*
X10710401Y-12855484D01*
X10710401Y-13045960D02*
X10691354Y-13055484D01*
X10691354Y-13055484D02*
X10653258Y-13055484D01*
X10653258Y-13055484D02*
X10634211Y-13045960D01*
X10634211Y-13045960D02*
X10624687Y-13036436D01*
X10624687Y-13036436D02*
X10615163Y-13017388D01*
X10615163Y-13017388D02*
X10615163Y-12960246D01*
X10615163Y-12960246D02*
X10624687Y-12941198D01*
X10624687Y-12941198D02*
X10634211Y-12931674D01*
X10634211Y-12931674D02*
X10653258Y-12922150D01*
X10653258Y-12922150D02*
X10691354Y-12922150D01*
X10691354Y-12922150D02*
X10710401Y-12931674D01*
X10786592Y-13131674D02*
X10796116Y-13122150D01*
X10796116Y-13122150D02*
X10815163Y-13093579D01*
X10815163Y-13093579D02*
X10824687Y-13074531D01*
X10824687Y-13074531D02*
X10834211Y-13045960D01*
X10834211Y-13045960D02*
X10843735Y-12998341D01*
X10843735Y-12998341D02*
X10843735Y-12960246D01*
X10843735Y-12960246D02*
X10834211Y-12912627D01*
X10834211Y-12912627D02*
X10824687Y-12884055D01*
X10824687Y-12884055D02*
X10815163Y-12865008D01*
X10815163Y-12865008D02*
X10796116Y-12836436D01*
X10796116Y-12836436D02*
X10786592Y-12826912D01*
M02*
