M48
; DRILL file {KiCad 7.0.5} date Wed Jan 15 14:24:02 2025
; FORMAT={-:-/ absolute / metric / decimal}
; #@! TF.CreationDate,2025-01-15T14:24:02+08:00
; #@! TF.GenerationSoftware,Kicad,Pcbnew,7.0.5
; #@! TF.FileFunction,NonPlated,1,2,NPTH
FMAT,2
METRIC
; #@! TA.AperFunction,NonPlated,NPTH,ComponentDrill
T1C0.800
; #@! TA.AperFunction,NonPlated,NPTH,ComponentDrill
T2C1.000
; #@! TA.AperFunction,NonPlated,NPTH,ComponentDrill
T3C1.900
; #@! TA.AperFunction,NonPlated,NPTH,ComponentDrill
T4C2.200
; #@! TA.AperFunction,NonPlated,NPTH,ComponentDrill
T5C3.050
; #@! TA.AperFunction,NonPlated,NPTH,ComponentDrill
T6C3.500
; #@! TA.AperFunction,NonPlated,NPTH,ComponentDrill
T7C5.050
%
G90
G05
T1
X77.214Y-30.75
X77.214Y-37.75
X79.214Y-30.75
X79.214Y-37.75
T2
X92.65Y-33.375
X92.65Y-52.425
X92.65Y-71.475
X92.65Y-90.525
X102.65Y-33.375
X102.65Y-52.425
X102.65Y-71.475
X102.65Y-90.525
X111.7Y-33.375
X111.7Y-52.425
X111.7Y-90.525
X111.7Y-71.475
X121.7Y-33.375
X121.7Y-52.425
X121.7Y-90.525
X121.7Y-71.475
X130.75Y-33.375
X130.75Y-52.425
X130.75Y-71.475
X130.75Y-90.525
X140.75Y-33.375
X140.75Y-52.425
X140.75Y-71.475
X140.75Y-90.525
X149.8Y-33.375
X149.8Y-52.425
X149.8Y-71.475
X149.8Y-90.525
X159.8Y-33.375
X159.8Y-52.425
X159.8Y-71.475
X159.8Y-90.525
X168.85Y-33.375
X168.85Y-52.425
X168.85Y-71.475
X168.85Y-90.525
X178.85Y-33.375
X178.85Y-52.425
X178.85Y-71.475
X178.85Y-90.525
X187.9Y-33.375
X187.9Y-52.425
X187.9Y-71.475
X187.9Y-90.525
X197.9Y-33.375
X197.9Y-52.425
X197.9Y-71.475
X197.9Y-90.525
T3
X92.15Y-38.525
X92.15Y-57.575
X92.15Y-76.625
X92.15Y-95.675
X103.15Y-38.525
X103.15Y-57.575
X103.15Y-76.625
X103.15Y-95.675
X111.2Y-38.525
X111.2Y-57.575
X111.2Y-95.675
X111.2Y-76.625
X122.2Y-38.525
X122.2Y-57.575
X122.2Y-95.675
X122.2Y-76.625
X130.25Y-38.525
X130.25Y-57.575
X130.25Y-76.625
X130.25Y-95.675
X141.25Y-38.525
X141.25Y-57.575
X141.25Y-76.625
X141.25Y-95.675
X149.3Y-38.525
X149.3Y-57.575
X149.3Y-76.625
X149.3Y-95.675
X160.3Y-38.525
X160.3Y-57.575
X160.3Y-76.625
X160.3Y-95.675
X168.35Y-38.525
X168.35Y-57.575
X168.35Y-76.625
X168.35Y-95.675
X179.35Y-38.525
X179.35Y-57.575
X179.35Y-76.625
X179.35Y-95.675
X187.4Y-38.525
X187.4Y-57.575
X187.4Y-76.625
X187.4Y-95.675
X198.4Y-38.525
X198.4Y-57.575
X198.4Y-76.625
X198.4Y-95.675
T4
X40.661Y-31.2
X85.775Y-31.2
T5
X97.65Y-44.425
X97.65Y-63.475
X97.65Y-82.525
X97.65Y-101.575
X116.7Y-44.425
X116.7Y-63.475
X116.7Y-101.575
X116.7Y-82.525
X135.75Y-44.425
X135.75Y-63.475
X135.75Y-82.525
X135.75Y-101.575
X154.8Y-44.425
X154.8Y-63.475
X154.8Y-82.525
X154.8Y-101.575
X173.85Y-44.425
X173.85Y-63.475
X173.85Y-82.525
X173.85Y-101.575
X192.9Y-44.425
X192.9Y-63.475
X192.9Y-82.525
X192.9Y-101.575
T6
X107.175Y-48.05
X107.175Y-86.15
X183.375Y-48.05
X183.375Y-86.15
T7
X97.65Y-38.525
X97.65Y-57.575
X97.65Y-76.625
X97.65Y-95.675
X116.7Y-38.525
X116.7Y-57.575
X116.7Y-95.675
X116.7Y-76.625
X135.75Y-38.525
X135.75Y-57.575
X135.75Y-76.625
X135.75Y-95.675
X154.8Y-38.525
X154.8Y-57.575
X154.8Y-76.625
X154.8Y-95.675
X173.85Y-38.525
X173.85Y-57.575
X173.85Y-76.625
X173.85Y-95.675
X192.9Y-38.525
X192.9Y-57.575
X192.9Y-76.625
X192.9Y-95.675
T4
X42.651Y-59.876G85X40.671Y-57.896
G05
X42.651Y-101.01G85X40.671Y-102.99
G05
X83.785Y-59.876G85X85.765Y-57.896
G05
X85.765Y-102.99G85X83.785Y-101.01
G05
T0
M30
