%TF.GenerationSoftware,KiCad,Pcbnew,7.0.5*%
%TF.CreationDate,2025-01-15T14:24:04+08:00*%
%TF.ProjectId,TPS,5450532e-6b69-4636-9164-5f7063625858,rev?*%
%TF.SameCoordinates,Original*%
%TF.FileFunction,Paste,Bot*%
%TF.FilePolarity,Positive*%
%FSLAX46Y46*%
G04 Gerber Fmt 4.6, Leading zero omitted, Abs format (unit mm)*
G04 Created by KiCad (PCBNEW 7.0.5) date 2025-01-15 14:24:04*
%MOMM*%
%LPD*%
G01*
G04 APERTURE LIST*
G04 Aperture macros list*
%AMRoundRect*
0 Rectangle with rounded corners*
0 $1 Rounding radius*
0 $2 $3 $4 $5 $6 $7 $8 $9 X,Y pos of 4 corners*
0 Add a 4 corners polygon primitive as box body*
4,1,4,$2,$3,$4,$5,$6,$7,$8,$9,$2,$3,0*
0 Add four circle primitives for the rounded corners*
1,1,$1+$1,$2,$3*
1,1,$1+$1,$4,$5*
1,1,$1+$1,$6,$7*
1,1,$1+$1,$8,$9*
0 Add four rect primitives between the rounded corners*
20,1,$1+$1,$2,$3,$4,$5,0*
20,1,$1+$1,$4,$5,$6,$7,0*
20,1,$1+$1,$6,$7,$8,$9,0*
20,1,$1+$1,$8,$9,$2,$3,0*%
G04 Aperture macros list end*
%ADD10RoundRect,0.225000X0.225000X0.375000X-0.225000X0.375000X-0.225000X-0.375000X0.225000X-0.375000X0*%
%ADD11RoundRect,0.250000X1.000000X1.000000X-1.000000X1.000000X-1.000000X-1.000000X1.000000X-1.000000X0*%
%ADD12R,1.800000X0.820000*%
%ADD13R,1.800000X2.200000*%
%ADD14R,0.300000X1.300000*%
G04 APERTURE END LIST*
D10*
%TO.C,D13*%
X158200167Y-47050499D03*
X161500167Y-47050499D03*
%TD*%
%TO.C,D20*%
X177250000Y-104200000D03*
X180550000Y-104200000D03*
%TD*%
D11*
%TO.C,SW16*%
X146700167Y-99475499D03*
X158100167Y-101675499D03*
%TD*%
D10*
%TO.C,D1*%
X101050167Y-47050499D03*
X104350167Y-47050499D03*
%TD*%
%TO.C,D18*%
X177250167Y-66100499D03*
X180550167Y-66100499D03*
%TD*%
D11*
%TO.C,SW3*%
X89550167Y-80425499D03*
X100950167Y-82625499D03*
%TD*%
%TO.C,SW4*%
X89550167Y-99475499D03*
X100950167Y-101675499D03*
%TD*%
D10*
%TO.C,D22*%
X196300167Y-66100499D03*
X199600167Y-66100499D03*
%TD*%
D11*
%TO.C,SW1*%
X89550167Y-42325499D03*
X100950167Y-44525499D03*
%TD*%
D10*
%TO.C,D6*%
X120100167Y-66100499D03*
X123400167Y-66100499D03*
%TD*%
D11*
%TO.C,SW7*%
X108600168Y-80425498D03*
X120000168Y-82625498D03*
%TD*%
%TO.C,SW9*%
X127650167Y-42325499D03*
X139050167Y-44525499D03*
%TD*%
D10*
%TO.C,D2*%
X101050167Y-66100499D03*
X104350167Y-66100499D03*
%TD*%
%TO.C,D7*%
X120100168Y-85150498D03*
X123400168Y-85150498D03*
%TD*%
D11*
%TO.C,SW17*%
X165750167Y-42325499D03*
X177150167Y-44525499D03*
%TD*%
%TO.C,SW22*%
X184800167Y-61375499D03*
X196200167Y-63575499D03*
%TD*%
%TO.C,SW21*%
X184800167Y-42325499D03*
X196200167Y-44525499D03*
%TD*%
D10*
%TO.C,D19*%
X177250167Y-85150499D03*
X180550167Y-85150499D03*
%TD*%
D11*
%TO.C,SW23*%
X184800167Y-80425499D03*
X196200167Y-82625499D03*
%TD*%
D10*
%TO.C,D12*%
X139150167Y-104200499D03*
X142450167Y-104200499D03*
%TD*%
%TO.C,D25*%
X71271000Y-89075000D03*
X74571000Y-89075000D03*
%TD*%
D11*
%TO.C,SW18*%
X165750167Y-61375499D03*
X177150167Y-63575499D03*
%TD*%
D10*
%TO.C,D4*%
X101050167Y-104200499D03*
X104350167Y-104200499D03*
%TD*%
%TO.C,D14*%
X158200167Y-66100499D03*
X161500167Y-66100499D03*
%TD*%
%TO.C,D11*%
X139150167Y-85150499D03*
X142450167Y-85150499D03*
%TD*%
%TO.C,D10*%
X139150167Y-66100499D03*
X142450167Y-66100499D03*
%TD*%
D11*
%TO.C,SW13*%
X146700167Y-42325499D03*
X158100167Y-44525499D03*
%TD*%
%TO.C,SW12*%
X127650167Y-99475499D03*
X139050167Y-101675499D03*
%TD*%
D10*
%TO.C,D16*%
X158200167Y-104200499D03*
X161500167Y-104200499D03*
%TD*%
%TO.C,D17*%
X177250167Y-47050499D03*
X180550167Y-47050499D03*
%TD*%
D11*
%TO.C,SW14*%
X146700167Y-61375499D03*
X158100167Y-63575499D03*
%TD*%
D10*
%TO.C,D3*%
X101050167Y-85150499D03*
X104350167Y-85150499D03*
%TD*%
D11*
%TO.C,SW5*%
X108600167Y-42325499D03*
X120000167Y-44525499D03*
%TD*%
%TO.C,SW11*%
X127650167Y-80425499D03*
X139050167Y-82625499D03*
%TD*%
D10*
%TO.C,D15*%
X158200167Y-85150499D03*
X161500167Y-85150499D03*
%TD*%
D11*
%TO.C,SW20*%
X165750167Y-99475499D03*
X177150167Y-101675499D03*
%TD*%
%TO.C,SW15*%
X146700167Y-80425499D03*
X158100167Y-82625499D03*
%TD*%
D10*
%TO.C,D8*%
X120100167Y-104200499D03*
X123400167Y-104200499D03*
%TD*%
D11*
%TO.C,SW10*%
X127650167Y-61375499D03*
X139050167Y-63575499D03*
%TD*%
D10*
%TO.C,D9*%
X139150167Y-47050499D03*
X142450167Y-47050499D03*
%TD*%
%TO.C,D24*%
X196300168Y-104200498D03*
X199600168Y-104200498D03*
%TD*%
D11*
%TO.C,SW6*%
X108600167Y-61375499D03*
X120000167Y-63575499D03*
%TD*%
D10*
%TO.C,D21*%
X196300167Y-47050499D03*
X199600167Y-47050499D03*
%TD*%
%TO.C,D5*%
X120100167Y-47050499D03*
X123400167Y-47050499D03*
%TD*%
D11*
%TO.C,SW2*%
X89550167Y-61375499D03*
X100950167Y-63575499D03*
%TD*%
D10*
%TO.C,D23*%
X196300167Y-85150499D03*
X199600167Y-85150499D03*
%TD*%
D11*
%TO.C,SW24*%
X184800168Y-99475498D03*
X196200168Y-101675498D03*
%TD*%
%TO.C,SW8*%
X108600167Y-99475499D03*
X120000167Y-101675499D03*
%TD*%
%TO.C,SW19*%
X165750167Y-80425499D03*
X177150167Y-82625499D03*
%TD*%
D12*
%TO.C,L5*%
X119350167Y-34375499D03*
X119350167Y-32875499D03*
X114050167Y-32875499D03*
X114050167Y-34375499D03*
%TD*%
%TO.C,L13*%
X157450167Y-34375499D03*
X157450167Y-32875499D03*
X152150167Y-32875499D03*
X152150167Y-34375499D03*
%TD*%
%TO.C,L11*%
X138400167Y-72475499D03*
X138400167Y-70975499D03*
X133100167Y-70975499D03*
X133100167Y-72475499D03*
%TD*%
%TO.C,L23*%
X195550167Y-72475499D03*
X195550167Y-70975499D03*
X190250167Y-70975499D03*
X190250167Y-72475499D03*
%TD*%
%TO.C,L10*%
X138400167Y-53425499D03*
X138400167Y-51925499D03*
X133100167Y-51925499D03*
X133100167Y-53425499D03*
%TD*%
%TO.C,L16*%
X157450167Y-91525499D03*
X157450167Y-90025499D03*
X152150167Y-90025499D03*
X152150167Y-91525499D03*
%TD*%
%TO.C,L17*%
X176500167Y-34375499D03*
X176500167Y-32875499D03*
X171200167Y-32875499D03*
X171200167Y-34375499D03*
%TD*%
%TO.C,L18*%
X176500167Y-53425499D03*
X176500167Y-51925499D03*
X171200167Y-51925499D03*
X171200167Y-53425499D03*
%TD*%
%TO.C,L24*%
X195550167Y-91525499D03*
X195550167Y-90025499D03*
X190250167Y-90025499D03*
X190250167Y-91525499D03*
%TD*%
%TO.C,L2*%
X100300167Y-53425499D03*
X100300167Y-51925499D03*
X95000167Y-51925499D03*
X95000167Y-53425499D03*
%TD*%
%TO.C,L15*%
X157450167Y-72475499D03*
X157450167Y-70975499D03*
X152150167Y-70975499D03*
X152150167Y-72475499D03*
%TD*%
%TO.C,L21*%
X195550167Y-34375499D03*
X195550167Y-32875499D03*
X190250167Y-32875499D03*
X190250167Y-34375499D03*
%TD*%
%TO.C,L8*%
X119350167Y-91525499D03*
X119350167Y-90025499D03*
X114050167Y-90025499D03*
X114050167Y-91525499D03*
%TD*%
%TO.C,L9*%
X138400167Y-34375499D03*
X138400167Y-32875499D03*
X133100167Y-32875499D03*
X133100167Y-34375499D03*
%TD*%
%TO.C,L20*%
X176500167Y-91525499D03*
X176500167Y-90025499D03*
X171200167Y-90025499D03*
X171200167Y-91525499D03*
%TD*%
%TO.C,L14*%
X157450167Y-53425499D03*
X157450167Y-51925499D03*
X152150167Y-51925499D03*
X152150167Y-53425499D03*
%TD*%
%TO.C,L6*%
X119350167Y-53425499D03*
X119350167Y-51925499D03*
X114050167Y-51925499D03*
X114050167Y-53425499D03*
%TD*%
%TO.C,L22*%
X195550167Y-53425499D03*
X195550167Y-51925499D03*
X190250167Y-51925499D03*
X190250167Y-53425499D03*
%TD*%
%TO.C,L3*%
X100300167Y-72475499D03*
X100300167Y-70975499D03*
X95000167Y-70975499D03*
X95000167Y-72475499D03*
%TD*%
%TO.C,L4*%
X100300167Y-91525499D03*
X100300167Y-90025499D03*
X95000167Y-90025499D03*
X95000167Y-91525499D03*
%TD*%
%TO.C,L12*%
X138400167Y-91525499D03*
X138400167Y-90025499D03*
X133100167Y-90025499D03*
X133100167Y-91525499D03*
%TD*%
%TO.C,L19*%
X176500167Y-72475499D03*
X176500167Y-70975499D03*
X171200167Y-70975499D03*
X171200167Y-72475499D03*
%TD*%
%TO.C,L7*%
X119350168Y-72475498D03*
X119350168Y-70975498D03*
X114050168Y-70975498D03*
X114050168Y-72475498D03*
%TD*%
D13*
%TO.C,J3*%
X67868000Y-92443000D03*
X58568000Y-92443000D03*
D14*
X65968000Y-89193000D03*
X65468000Y-89193000D03*
X64968000Y-89193000D03*
X64468000Y-89193000D03*
X63968000Y-89193000D03*
X63468000Y-89193000D03*
X62968000Y-89193000D03*
X62468000Y-89193000D03*
X61968000Y-89193000D03*
X61468000Y-89193000D03*
X60968000Y-89193000D03*
X60468000Y-89193000D03*
%TD*%
D12*
%TO.C,L1*%
X100300167Y-34375499D03*
X100300167Y-32875499D03*
X95000167Y-32875499D03*
X95000167Y-34375499D03*
%TD*%
M02*
